<svg xmlns="http://www.w3.org/2000/svg" xmlns:xlink="http://www.w3.org/1999/xlink" viewBox="0 0 387.79 131.45"><defs><style>.cls-1{fill:#0dff81;}.cls-1,.cls-2,.cls-4,.cls-9{fill-rule:evenodd;}.cls-2{fill:#fff;}.cls-3,.cls-5,.cls-6,.cls-7,.cls-8{isolation:isolate;}.cls-3{fill:url(#linear-gradient);}.cls-4{fill:#b3d2ff;}.cls-5{fill:url(#linear-gradient-2);}.cls-6{fill:url(#linear-gradient-3);}.cls-7{fill:url(#linear-gradient-4);}.cls-8{fill:url(#linear-gradient-5);}.cls-9{fill:#003580;}.cls-10{fill:#1f1f1f;}</style><linearGradient id="linear-gradient" x1="21.35" y1="140.45" x2="18.88" y2="120.25" gradientUnits="userSpaceOnUse"><stop offset="0.29" stop-color="#3a8bff"/><stop offset="1" stop-color="#81b5ff"/></linearGradient><linearGradient id="linear-gradient-2" x1="53.25" y1="-13.54" x2="4.51" y2="112.02" gradientUnits="userSpaceOnUse"><stop offset="0.29" stop-color="#0062ee"/><stop offset="1" stop-color="#00398a"/></linearGradient><linearGradient id="linear-gradient-3" x1="77.94" y1="130.62" x2="94.45" y2="36.26" xlink:href="#linear-gradient-2"/><linearGradient id="linear-gradient-4" x1="58.26" y1="162.52" x2="58.26" y2="74.89" gradientUnits="userSpaceOnUse"><stop offset="0.29" stop-color="#b3d2ff"/><stop offset="1" stop-color="#fff"/></linearGradient><linearGradient id="linear-gradient-5" x1="34.76" y1="27.73" x2="4.26" y2="8.77" xlink:href="#linear-gradient"/></defs><g id="Layer_2" data-name="Layer 2"><g id="Layer_1-2" data-name="Layer 1"><path class="cls-1" d="M17.07,68.77a3.57,3.57,0,0,1-3.24.48l-3.18-1.09a2.43,2.43,0,0,1,0-4.6l3.18-1.09a3.58,3.58,0,0,1,3.24,6.3"/><path class="cls-2" d="M16.37,95.44a2,2,0,0,1,.56-2.62l7.41-5.34a2.93,2.93,0,0,1,4.09.66c.06.08.11.17.16.25a2.92,2.92,0,0,1-1.07,4l-.27.14-8.33,3.75a2,2,0,0,1-2.55-.83"/><path class="cls-2" d="M28.59,44.35h0a3,3,0,0,1-1.92,1.39,2.92,2.92,0,0,1-2.33-.48l-7.41-5.35a2,2,0,0,1,2-3.44l8.33,3.74a2.92,2.92,0,0,1,1.48,3.86c0,.09-.09.18-.14.27"/><path class="cls-3" d="M36.09,106.54l-.84,24.91H11.85A11.86,11.86,0,0,1,0,119.6H0V114.3a87.21,87.21,0,0,0,36.09-7.76"/><path class="cls-2" d="M99.1,95.44a2,2,0,0,1-2.55.83l-8.33-3.75a2.91,2.91,0,0,1-1.48-3.84l.15-.29a2.91,2.91,0,0,1,4-1.07l.25.16,7.41,5.34a2,2,0,0,1,.56,2.62"/><path class="cls-2" d="M98.54,39.92l-7.41,5.35a2.94,2.94,0,0,1-4.1-.69l-.14-.22h0a2.91,2.91,0,0,1,1-4,1.59,1.59,0,0,1,.29-.15l8.33-3.74a2,2,0,0,1,2,3.44"/><path class="cls-4" d="M107.47,65.86a2.42,2.42,0,0,1-1.64,2.3l-3.19,1.09a3.58,3.58,0,0,1-2.3-6.78,3.62,3.62,0,0,1,2.3,0l3.19,1.09a2.43,2.43,0,0,1,1.64,2.3"/><path class="cls-5" d="M28.84,42a3,3,0,0,1-.25,2.36h0a3,3,0,0,1-1.92,1.39,2.92,2.92,0,0,1-2.33-.48l-7.41-5.35a2,2,0,0,1,2-3.44l8.33,3.74A2.93,2.93,0,0,1,28.84,42m0,48.76a2.93,2.93,0,0,1-1.59,1.77l-8.33,3.75a2,2,0,0,1-2-3.45l7.41-5.34a2.93,2.93,0,0,1,4.09.66c.06.08.11.17.16.25a3,3,0,0,1,.25,2.36m-15-21.5-3.18-1.09a2.43,2.43,0,0,1,0-4.6l3.18-1.09a3.58,3.58,0,1,1,2.3,6.78,3.62,3.62,0,0,1-2.3,0M50.72,0H32.34A32.36,32.36,0,0,1,0,32.35V114.3a87.21,87.21,0,0,0,36.09-7.76l1.43-42.36c-2.53-1.25-4.34-4.57-4.34-8.45,0-4.37,2.28-8,5.29-8.82a20,20,0,0,1,2.74-7.42A4.36,4.36,0,0,1,38,37.41c-2.72-4-6.39-8.1-9.2-14.73a3.52,3.52,0,0,1,.38-3.55,1.75,1.75,0,0,1,2.45-.33,2.09,2.09,0,0,1,.22.2c4.35,4.12,9.58,5.35,12.47,9.3a5.57,5.57,0,0,1,.83-1.36,6.06,6.06,0,0,1,7.16-1.88,6.19,6.19,0,0,1,11.87,0,5.7,5.7,0,0,1,4.16-.2A86.69,86.69,0,0,1,80.64,7.19,65.4,65.4,0,0,0,50.72,0"/><path class="cls-4" d="M17.07,68.77a3.57,3.57,0,0,1-3.24.48l-3.18-1.09a2.43,2.43,0,0,1,0-4.6l3.18-1.09a3.58,3.58,0,0,1,3.24,6.3"/><path class="cls-6" d="M105.83,68.16l-3.19,1.09a3.58,3.58,0,0,1-2.3-6.78,3.62,3.62,0,0,1,2.3,0l3.19,1.09a2.43,2.43,0,0,1,0,4.6M99.1,95.44a2,2,0,0,1-2.55.83l-8.33-3.75a2.91,2.91,0,0,1-1.48-3.84l.15-.29a2.91,2.91,0,0,1,4-1.07l.25.16,7.41,5.34a2,2,0,0,1,.56,2.62M86.63,42a2.93,2.93,0,0,1,1.59-1.77l8.33-3.74a2,2,0,0,1,2,3.44l-7.41,5.35a2.94,2.94,0,0,1-4.1-.69l-.14-.22h0A2.94,2.94,0,0,1,86.63,42M86.3,10.46c-1.83-1.18-3.71-2.27-5.66-3.27a86.69,86.69,0,0,0-12.3,17.67,6.25,6.25,0,0,1,3,2.08,6.52,6.52,0,0,1,.83,1.36c2.71-3.71,7.48-4.55,11.66-8.53A2.45,2.45,0,0,1,87,19.46a2,2,0,0,1,.55.54,2.41,2.41,0,0,1,.29,2.5l-.12.28c-2.8,6.5-6.45,10.64-9.15,14.63a4.39,4.39,0,0,1-3.26,2.08A19.74,19.74,0,0,1,78,46.91c2.71.74,4.82,3.74,5.22,7.52a11.33,11.33,0,0,1,.07,1.3c0,3.65-1.6,6.81-3.91,8.2a2.67,2.67,0,0,1-.43.25v.63l2,59.26A65.72,65.72,0,0,0,116.4,65.73h0A65.69,65.69,0,0,0,86.3,10.46"/><path class="cls-7" d="M70.73,62a3.93,3.93,0,0,1-.22,4.17c-2.85,4.16-6.84,7.32-11.92,7.32H57.51c-4.39-.38-9-3.25-11.85-6.7a4,4,0,0,1-.37-4.53A12,12,0,0,0,47,56.09a12.43,12.43,0,0,0-1.46-5.85,3.92,3.92,0,0,1,.22-4.13,4.68,4.68,0,0,0,.75.79,5.84,5.84,0,0,0,7.09.1c0,2.27,2.29,4.11,5.1,4.11a5,5,0,0,0,.77,0c2.46-.3,4.34-2,4.34-4.06A5.84,5.84,0,0,0,71,46.9l.28-.25A4,4,0,0,1,70.91,50a11.9,11.9,0,0,0-1.68,6.13,12.4,12.4,0,0,0,1.5,5.9M87.52,20a2,2,0,0,0-.55-.54,2.45,2.45,0,0,0-3.13.31c-4.18,4-9,4.82-11.66,8.53a6.52,6.52,0,0,0-.83-1.36,6.25,6.25,0,0,0-3-2.08,5.7,5.7,0,0,0-4.16.2,6.19,6.19,0,0,0-11.87,0,6.06,6.06,0,0,0-7.16,1.88,5.57,5.57,0,0,0-.83,1.36c-2.89-3.95-8.12-5.18-12.47-9.3a1.74,1.74,0,0,0-2.47-.13,1.48,1.48,0,0,0-.24.26,3.52,3.52,0,0,0-.38,3.55c2.81,6.63,6.48,10.71,9.2,14.73a4.36,4.36,0,0,0,3.25,2.08,20,20,0,0,0-2.74,7.42c-3,.82-5.29,4.45-5.29,8.82,0,3.88,1.81,7.2,4.34,8.45L36.1,106.54l-.84,24.91H50.72a65.4,65.4,0,0,0,29.92-7.19l.35-.19L79,64.81v-.63a2.67,2.67,0,0,0,.43-.25c2.31-1.39,3.91-4.55,3.91-8.2a11.33,11.33,0,0,0-.07-1.3c-.4-3.78-2.51-6.78-5.22-7.52a19.59,19.59,0,0,0-2.74-7.42,4.39,4.39,0,0,0,3.26-2.08c2.7-4,6.35-8.13,9.15-14.63l.12-.28a2.41,2.41,0,0,0-.29-2.5"/><path class="cls-8" d="M32.34,0A32.36,32.36,0,0,1,0,32.35V11.85A11.86,11.86,0,0,1,11.85,0Z"/><path class="cls-4" d="M64.18,57.21l-3.33,3.06a2.09,2.09,0,0,0-.59,1c-.22.88-.65,2.61-1,4.25a1,1,0,0,1-1,.76h0a1,1,0,0,1-1-.76L56.2,61.27a2,2,0,0,0-.59-1l-3.33-3.06a1,1,0,0,1,0-1.41,1,1,0,0,1,.85-.31l5,.68h.27l.39-.05,4.61-.63a1,1,0,0,1,1,.56,1,1,0,0,1-.23,1.16m5-1.12A11.93,11.93,0,0,1,70.91,50a4,4,0,0,0,.32-3.31L71,46.9a5.84,5.84,0,0,1-7.14.06C63.86,49,62,50.72,59.52,51a5,5,0,0,1-.77,0c-2.81,0-5.1-1.84-5.1-4.11a5.84,5.84,0,0,1-7.14-.06,4.68,4.68,0,0,1-.75-.79,3.92,3.92,0,0,0-.22,4.13A12.39,12.39,0,0,1,47,56.09a11.93,11.93,0,0,1-1.66,6.11,4,4,0,0,0,.37,4.53c2.87,3.45,7.46,6.32,11.85,6.7h1.08c5.08,0,9.07-3.16,11.92-7.32A3.93,3.93,0,0,0,70.73,62a12.4,12.4,0,0,1-1.5-5.9"/><path class="cls-9" d="M64.18,57.21l-3.33,3.06a2.09,2.09,0,0,0-.59,1c-.22.88-.65,2.61-1,4.25a1,1,0,0,1-1,.76h0a1,1,0,0,1-1-.76L56.2,61.27a2,2,0,0,0-.59-1l-3.33-3.06a1,1,0,0,1,0-1.41,1,1,0,0,1,.85-.31l5,.68h.27l.39-.05,4.61-.63a1,1,0,0,1,1,.56,1,1,0,0,1-.23,1.16"/><path class="cls-10" d="M171.1,68.9a20.63,20.63,0,0,1-1.33,7.74A14.82,14.82,0,0,1,166,82.16a15.52,15.52,0,0,1-5.8,3.32,24.24,24.24,0,0,1-7.55,1.1c-.62,0-1.33,0-2.12,0s-1.61-.1-2.43-.19-1.67-.23-2.52-.39a15.25,15.25,0,0,1-2.32-.64,3.8,3.8,0,0,1-2.87-3.76V55.25a2.35,2.35,0,0,1,.58-1.71,4.1,4.1,0,0,1,1.68-1,22.28,22.28,0,0,1,4.81-.94c1.69-.15,3.24-.22,4.64-.22a26.73,26.73,0,0,1,7.74,1,16,16,0,0,1,6,3.23,14.89,14.89,0,0,1,3.87,5.47A20,20,0,0,1,171.1,68.9Zm-9,.11c0-3.57-.87-6.24-2.62-8a9.24,9.24,0,0,0-6.83-2.62c-.66,0-1.29,0-1.87.05a13.4,13.4,0,0,0-1.77.23V79.23a11.67,11.67,0,0,0,1.74.25c.68.06,1.33.09,2,.09a9.09,9.09,0,0,0,6.85-2.63C161.3,75.19,162.14,72.55,162.14,69Z"/><path class="cls-10" d="M183.48,76a5.31,5.31,0,0,0,2.71,3.29,9.77,9.77,0,0,0,4.47,1,15.62,15.62,0,0,0,7.68-2,4.67,4.67,0,0,1,1.39,1.44,3.66,3.66,0,0,1,.55,1.93,3.38,3.38,0,0,1-.78,2.22,6,6,0,0,1-2.12,1.57,12.29,12.29,0,0,1-3.21.94,25.44,25.44,0,0,1-4.06.3,19.11,19.11,0,0,1-6-.91A13.17,13.17,0,0,1,179.33,83a12.31,12.31,0,0,1-3.12-4.5,16.28,16.28,0,0,1-1.13-6.36A15.18,15.18,0,0,1,176.21,66a12,12,0,0,1,7.41-6.83,16.26,16.26,0,0,1,5-.8,15,15,0,0,1,5.17.86,11.84,11.84,0,0,1,4,2.4,10.9,10.9,0,0,1,2.63,3.71,11.52,11.52,0,0,1,.94,4.69,3.48,3.48,0,0,1-.94,2.66,5,5,0,0,1-2.65,1.16Zm5.25-11.38a5.59,5.59,0,0,0-3.95,1.46,6.46,6.46,0,0,0-1.86,4.23l10.56-1.71a4.39,4.39,0,0,0-4.75-4Z"/><path class="cls-10" d="M214.48,61.11h9.4c.18.37.37.83.58,1.38a5.3,5.3,0,0,1,.3,1.82,3.42,3.42,0,0,1-.8,2.54,2.85,2.85,0,0,1-2.07.78h-7V85.7a10.93,10.93,0,0,1-1.55.3,16.44,16.44,0,0,1-2.21.14,6.24,6.24,0,0,1-3.59-.8q-1.11-.8-1.11-3.12V58.73a11.36,11.36,0,0,1,.91-4.7,8.55,8.55,0,0,1,2.52-3.23A10.75,10.75,0,0,1,213.6,49a16.79,16.79,0,0,1,4.64-.61,12.84,12.84,0,0,1,5.83,1A3.53,3.53,0,0,1,226,52.71a3.94,3.94,0,0,1-.42,1.85,3.78,3.78,0,0,1-1,1.24,20.38,20.38,0,0,0-2.24-.55,14.6,14.6,0,0,0-2.68-.22,6.79,6.79,0,0,0-3.87.91A3.45,3.45,0,0,0,214.48,59Zm14.92-9.56a4.43,4.43,0,0,1,1.3-3.21,5,5,0,0,1,6.8,0,4.43,4.43,0,0,1,1.3,3.21,4.51,4.51,0,0,1-1.3,3.26,5,5,0,0,1-6.8,0A4.51,4.51,0,0,1,229.4,51.55Zm8.9,34.15a10.65,10.65,0,0,1-1.55.3,16.44,16.44,0,0,1-2.21.14,6.13,6.13,0,0,1-3.56-.8q-1.08-.8-1.08-3.12V59.5a13.15,13.15,0,0,1,1.55-.33,13.57,13.57,0,0,1,2.21-.16,5.85,5.85,0,0,1,3.56.83q1.08.82,1.08,3.15Z"/><path class="cls-10" d="M246.78,84.62a4.55,4.55,0,0,1-1.24-3.34V52.15l1.74-.27a15.57,15.57,0,0,1,2.24-.17,6.09,6.09,0,0,1,3.59.83c.74.55,1.11,1.64,1.11,3.26v23h13.26a8.21,8.21,0,0,1,.64,1.43,6,6,0,0,1,.3,1.94,4,4,0,0,1-.8,2.73,2.75,2.75,0,0,1-2.18.92H250.13A4.54,4.54,0,0,1,246.78,84.62Z"/><path class="cls-10" d="M278,86.14a6.09,6.09,0,0,1-3.56-.8q-1.08-.8-1.08-3.12V49.78a13.2,13.2,0,0,1,1.57-.33,14.07,14.07,0,0,1,2.24-.17,6,6,0,0,1,3.54.83c.74.55,1.1,1.6,1.1,3.15V85.7a12.91,12.91,0,0,1-1.6.3A16.44,16.44,0,0,1,278,86.14Z"/><path class="cls-10" d="M299,58.34a22.18,22.18,0,0,1,5.22.58,11.44,11.44,0,0,1,4,1.8,8.31,8.31,0,0,1,2.57,3.09,10.18,10.18,0,0,1,.91,4.43V80.73A3.36,3.36,0,0,1,311,83a7.11,7.11,0,0,1-1.79,1.46,13.89,13.89,0,0,1-4.2,1.61,26.69,26.69,0,0,1-5.64.55q-5.7,0-9.07-2.18a7.41,7.41,0,0,1-3.37-6.66A7.34,7.34,0,0,1,289.2,72q2.26-2,7-2.48l7.35-.78v-.6a2.8,2.8,0,0,0-1.43-2.6,8.34,8.34,0,0,0-4.15-.83,16.78,16.78,0,0,0-4.12.5,24.48,24.48,0,0,0-3.62,1.16A3.54,3.54,0,0,1,289.06,65a4.26,4.26,0,0,1-.47-2,3.6,3.6,0,0,1,2.54-3.48,17.12,17.12,0,0,1,3.73-.91A30,30,0,0,1,299,58.34Zm.33,22a12.06,12.06,0,0,0,2.4-.24,5.68,5.68,0,0,0,1.8-.64V74.43l-4.53.38a6.93,6.93,0,0,0-2.85.8,2.08,2.08,0,0,0-1.08,1.91,2.52,2.52,0,0,0,1,2.1A5.34,5.34,0,0,0,299.37,80.39Z"/><path class="cls-10" d="M358.11,85.7a12.55,12.55,0,0,1-1.6.3,16.44,16.44,0,0,1-2.21.14,6.11,6.11,0,0,1-3.56-.8q-1.08-.8-1.08-3.12V68.51a3.34,3.34,0,0,0-1-2.68A4,4,0,0,0,346,65a5.54,5.54,0,0,0-2.08.39,7.11,7.11,0,0,0-1.74,1,5.25,5.25,0,0,1,.09.55c0,.18,0,.37,0,.55V85.7a12.91,12.91,0,0,1-1.6.3,16.44,16.44,0,0,1-2.21.14,6.09,6.09,0,0,1-3.56-.8q-1.08-.8-1.08-3.12V68.51a3.18,3.18,0,0,0-1.11-2.68A4.29,4.29,0,0,0,330,65a5.86,5.86,0,0,0-2.1.36,11.56,11.56,0,0,0-1.54.7V85.7a10.93,10.93,0,0,1-1.55.3,16.44,16.44,0,0,1-2.21.14,6.24,6.24,0,0,1-3.59-.8q-1.11-.8-1.11-3.12V65.14a4,4,0,0,1,.61-2.32,6.79,6.79,0,0,1,1.71-1.66,15,15,0,0,1,4.51-2,19.91,19.91,0,0,1,5.61-.78,15,15,0,0,1,4.39.64,11.9,11.9,0,0,1,3.79,2,16.8,16.8,0,0,1,3.75-1.85,14.83,14.83,0,0,1,5-.75,15.93,15.93,0,0,1,4.12.53,9.47,9.47,0,0,1,3.45,1.71,8.61,8.61,0,0,1,2.4,3.1,10.59,10.59,0,0,1,.91,4.61Z"/><path class="cls-10" d="M375.08,58.34a22.06,22.06,0,0,1,5.22.58,11.36,11.36,0,0,1,4,1.8,8.21,8.21,0,0,1,2.57,3.09,10,10,0,0,1,.91,4.43V80.73a3.41,3.41,0,0,1-.74,2.29,7,7,0,0,1-1.8,1.46,13.69,13.69,0,0,1-4.2,1.61,26.69,26.69,0,0,1-5.64.55q-5.69,0-9.06-2.18A7.39,7.39,0,0,1,363,77.8,7.33,7.33,0,0,1,365.24,72q2.26-2,7-2.48l7.35-.78v-.6a2.79,2.79,0,0,0-1.44-2.6A8.33,8.33,0,0,0,374,64.7a16.66,16.66,0,0,0-4.12.5,24.1,24.1,0,0,0-3.62,1.16A3.64,3.64,0,0,1,365.1,65a4.25,4.25,0,0,1-.46-2,3.58,3.58,0,0,1,2.54-3.48,17.12,17.12,0,0,1,3.73-.91A29.92,29.92,0,0,1,375.08,58.34Zm.33,22a12.23,12.23,0,0,0,2.41-.24,5.52,5.52,0,0,0,1.79-.64V74.43l-4.53.38a6.93,6.93,0,0,0-2.85.8,2.09,2.09,0,0,0-1.07,1.91,2.53,2.53,0,0,0,1,2.1A5.34,5.34,0,0,0,375.41,80.39Z"/></g></g></svg>