<?xml version="1.0" encoding="UTF-8"?>
<svg xmlns="http://www.w3.org/2000/svg" width="0" height="0">
<defs>
<symbol id="research-icon" viewBox="0 0 21 29" fill="none">
<path d="M16.7812 1.87212C17.2094 1.63652 17.6103 1.43272 18.0815 1.19303C18.2663 1.12267 18.5527 1.03447 18.667 1C18.8882 1.12746 19.1883 1 19.1883 1.46468C19.2066 1.57295 19.195 1.65265 19.147 1.79616C19.0457 1.99207 18.9807 2.12418 18.9158 2.25629C17.8287 3.58899 16.8919 5.00536 15.2712 6.05741C15.4585 6.47836 15.6478 6.94122 15.8756 7.393C15.9429 7.52649 16.0905 7.66135 16.2494 7.74028C18.0057 8.61249 18.1674 10.4803 16.5215 11.4638C16.1581 11.681 16.0824 11.8895 16.0981 12.1982C16.1433 13.0892 16.1603 13.981 16.128 14.9148C15.9227 14.8681 15.7385 14.7989 15.6394 14.6868C15.1157 14.0943 14.3772 13.7928 13.4698 13.6373C13.1697 13.5858 12.931 13.33 12.6879 13.1375C13.0452 12.777 13.4095 12.4614 13.7039 12.1121C14.0009 11.7598 14.0118 11.4195 13.712 11.0032C13.0942 10.1449 13.2215 9.25514 13.7915 8.38442C13.9313 8.17088 13.9354 7.90665 13.9784 7.75094C13.1883 7.75094 12.5276 7.75094 11.8277 7.75094C10.9756 8.82433 9.71503 8.81555 8.5169 7.67443C7.63822 8.05911 6.86888 7.83438 6.0417 7.41491C6.03918 7.79848 6.05039 8.17453 6.23797 8.49093C6.75511 9.36319 6.83747 10.2232 6.18626 11.0528C5.91254 11.4015 5.92379 11.6869 6.14341 12.0132C6.26308 12.191 6.38148 12.3693 6.45335 12.5664C5.4988 12.8698 4.40746 13.7155 3.5 14C3.49767 13.7819 3.67255 13.0026 3.6782 12.7846C3.69291 12.2168 3.70755 11.7471 2.99155 11.2657C1.62716 10.3483 2.03717 8.49863 3.58133 7.74572C3.77595 7.65082 3.94431 7.48097 4.03506 7.31742C4.26612 6.90103 4.44632 6.46854 4.59123 6.16069C3.92368 5.48546 3.23312 4.86118 2.65545 4.18211C2.05753 3.47924 1.52912 2.7374 1.0593 1.98106C0.932283 1.77657 1.02095 1.38923 1.2148 1.21673C1.33416 1.11052 1.91606 1.16935 2.15992 1.2966C3.40774 1.94776 4.61318 2.64526 5.87383 3.34911C6.44619 2.66041 7.21011 2.26926 8.32158 2.63864C9.49683 1.37261 10.8904 1.35979 11.9656 2.60585C12.937 2.40649 13.7101 2.59985 14.163 3.3629C15.0389 2.86967 15.8963 2.38679 16.7812 1.87212Z" fill="currentColor"/>
<path d="M16.5 16C16.0877 15.895 12.2256 20.5 12.2256 20.5C11.5519 20.5 11.1759 18.9601 10.0186 19C7.60212 21.5 9.64464 20.9023 8.0006 20.9486C10.2523 19.014 4.56824 25.9094 3.59612 26C2.78884 26.7049 3.81091 14.9702 3.5 15C3.44274 14.7336 3.52793 14.1138 3.5966 13.8139C3.92025 13.7638 3.95272 14.0534 4.13334 13.9858C5.22881 13.5754 6.44378 13.8002 7.60212 13.8139C8.22116 13.8212 8.57274 13.783 8.61161 13.441C8.86265 13.4635 9.05498 13.483 9.24946 13.5272C9.35437 13.6152 9.45713 13.6785 9.5599 13.7418C9.69466 13.6636 9.82942 13.5853 10.0186 13.4954C10.7906 13.3226 11.5081 13.1613 12.2256 13C12.4887 13.1069 12.7241 13.2754 13.02 13.3093C13.9148 13.4118 14.6429 13.6103 15.1593 14.0006C15.257 14.0745 15.8097 14.4358 16 14.5C16.0866 14.9409 16.9123 16.105 16.5 16Z" fill="currentColor"/>
<path d="M9.35321 13.8856C9.37513 14.4417 8.98653 14.5033 8.30231 14.4915C7.02201 14.4696 5.67911 14.1072 4.4683 14.7685C4.26866 14.8775 3.91635 14.8353 3.57025 14.863C3.53058 14.4281 4 13.5 4 13C5.01164 12.6528 5.29572 12.6996 6.37973 12.3973C7.33171 12.8383 8.49621 13.4442 9.35321 13.8856Z" fill="currentColor"/>
<path d="M11.6541 10.2039C10.9584 10.6333 10.4754 11.0974 10.4228 11.7781C10.4103 11.94 10.1316 12.0901 9.97534 12.2456C9.83835 12.0951 9.58894 11.9467 9.58372 11.7936C9.56042 11.1094 9.08868 10.6501 8.42553 10.2455C8.27326 10.1526 8.232 9.95592 8.13965 9.80699C8.37031 9.75925 8.59998 9.67402 8.8318 9.67056C9.63861 9.65851 10.4463 9.67132 11.2534 9.68299C11.4331 9.68559 11.6119 9.72212 11.7912 9.74303C11.7587 9.88703 11.7262 10.031 11.6541 10.2039Z" fill="currentColor"/>
<path d="M17.9071 14.7143C16.7145 15.975 15.5256 17.2412 14.3367 18.5023C13.5236 19.3648 12.7086 20.2242 11.8935 21.0866L10.8853 20.1017L10.8155 20.0378C10.7272 19.9635 10.5834 19.8713 10.39 19.868C10.1885 19.8646 10.0385 19.9573 9.94329 20.0386L9.8667 20.1124C7.85195 22.2348 5.83311 24.3524 3.81577 26.4737C3.56755 26.7348 3.32024 26.9998 3.07651 27.2698C3.03567 27.2287 2.99343 27.1882 2.95086 27.1474C3.489 26.5854 4.0247 26.0189 4.55725 25.4589C5.93701 24.0078 7.31943 22.5566 8.69886 21.1041C9.25326 20.5203 9.80527 19.9329 10.3555 19.3432C10.4919 19.4755 10.6273 19.607 10.7623 19.7351C10.9631 19.9257 11.1595 20.1125 11.3515 20.3019C11.43 20.3793 11.6146 20.5497 11.888 20.5456C12.1629 20.5412 12.3429 20.3638 12.4235 20.2774C14.1974 18.3739 15.977 16.4756 17.7567 14.5759C17.805 14.6215 17.8562 14.6669 17.9071 14.7143Z" fill="currentColor"/>
<path d="M16.121 27.312C16.0587 24.5902 15.9991 21.8888 15.9418 19.1874C15.9344 18.8386 16.0742 18.6808 16.4237 18.6676C17.0055 18.6456 17.588 18.6337 18.1702 18.6306C18.47 18.6291 18.6134 18.7772 18.6199 19.0758C18.6791 21.7928 18.7363 24.5098 18.7921 27.2269C18.7979 27.5084 18.6797 27.6535 18.3943 27.6654C17.7739 27.6912 17.1525 27.7003 16.5315 27.7047C16.2949 27.7064 16.1664 27.5592 16.121 27.312Z" fill="currentColor"/>
<path d="M12.2985 23.2297C12.2814 22.5432 12.3527 22.4667 13.0038 22.4523C13.4925 22.4415 13.9811 22.4299 14.4698 22.4217C14.8192 22.4158 14.964 22.5539 14.9719 22.9086C15.0043 24.3591 15.0344 25.8096 15.0636 27.2602C15.0705 27.6025 14.939 27.7449 14.5963 27.7547C14.0302 27.7709 13.4639 27.781 12.8976 27.7887C12.55 27.7933 12.3987 27.6513 12.3862 27.3015C12.3701 26.8519 12.3647 26.4018 12.3552 25.9519C12.3363 25.0521 12.3178 24.1523 12.2985 23.2297Z" fill="currentColor"/>
<path d="M10.4925 27.8439C10.035 27.8523 9.60058 27.8637 9.16615 27.8672C8.82089 27.8701 8.66253 27.7226 8.65408 27.3783C8.62477 26.1838 8.60305 24.9892 8.57396 23.7948C8.57063 23.6579 8.62242 23.556 8.71108 23.4629C8.96789 23.1932 9.22555 22.9244 9.4803 22.6528C9.56514 22.5624 9.6618 22.5185 9.78793 22.5181C10.0827 22.5174 10.3774 22.507 10.6722 22.5009C11.1115 22.4918 11.234 22.6096 11.2448 23.0587C11.2596 23.6714 11.2719 24.2842 11.2849 24.897C11.3014 25.6804 11.3176 26.4639 11.3339 27.2473C11.3436 27.7108 11.232 27.8282 10.7716 27.8382C10.6863 27.8401 10.6009 27.8417 10.4925 27.8439Z" fill="currentColor"/>
<path d="M7.5642 25.2865C7.57948 26.0074 7.59544 26.7053 7.60852 27.4032C7.61506 27.7521 7.47632 27.903 7.12491 27.9131C6.55897 27.9294 5.99276 27.9365 5.42664 27.9466C5.21754 27.9503 5.0438 27.8913 4.95854 27.677C4.91479 27.5671 4.91517 27.4659 5.00145 27.3753C5.81427 26.5216 6.62688 25.6678 7.44058 24.8149C7.45415 24.8007 7.4807 24.7989 7.521 24.7839C7.58486 24.9439 7.54848 25.1071 7.5642 25.2865Z" fill="currentColor"/>
</symbol>
</defs>
</svg>
