<svg width="36" height="36" viewBox="0 0 36 36" fill="none" xmlns="http://www.w3.org/2000/svg">
<path d="M18 0C27.9411 0 36 8.05887 36 18C36 27.9411 27.9411 36 18 36C8.05887 36 0 27.9411 0 18C0 8.05887 8.05887 0 18 0ZM12.4824 21.5361C11.7578 21.5361 11.0622 21.8236 10.5498 22.3359C10.0376 22.8482 9.75011 23.5432 9.75 24.2676C9.75 25.7464 11.0036 27 12.4824 27C13.9861 26.9998 15.2139 25.7462 15.2139 24.2676C15.2138 23.5432 14.9263 22.8482 14.4141 22.3359C13.9018 21.8237 13.2068 21.5362 12.4824 21.5361ZM9.75 18.1396C12.0999 18.1396 14.353 19.0737 16.0146 20.7354C17.6763 22.397 18.6104 24.6501 18.6104 27H22.1572C22.1572 23.7095 20.8492 20.5543 18.5225 18.2275C16.1957 15.9008 13.0405 14.5928 9.75 14.5928V18.1396ZM9.75 11.0469C13.9811 11.0469 18.0394 12.7279 21.0312 15.7197C24.0228 18.7115 25.7031 22.7691 25.7031 27H29.25C29.25 21.8283 27.196 16.8679 23.5391 13.2109C19.8821 9.55398 14.9217 7.5 9.75 7.5V11.0469Z" fill="white"/>
</svg>
