<svg xmlns="http://www.w3.org/2000/svg" xmlns:xlink="http://www.w3.org/1999/xlink" viewBox="0 0 600.07 160.68"><defs><style>.cls-1{fill:#fff;}.cls-2{fill:url(#linear-gradient);}.cls-3{fill:none;}.cls-4{fill:url(#linear-gradient-2);}.cls-5{fill:url(#linear-gradient-3);}.cls-6{fill:#b3d2ff;}.cls-7{fill:url(#linear-gradient-4);}.cls-8{fill:url(#linear-gradient-5);}.cls-9{fill:url(#linear-gradient-6);}.cls-10{fill:#c7c7ff;}.cls-11{fill:#442589;fill-rule:evenodd;}.cls-12{fill:url(#linear-gradient-7);}.cls-13{fill:url(#linear-gradient-8);}.cls-14{fill:url(#linear-gradient-9);}</style><linearGradient id="linear-gradient" y1="-18.63" x2="160.68" y2="-18.63" gradientTransform="matrix(0.71, 0.71, 0.71, -0.71, 36.7, 10.36)" gradientUnits="userSpaceOnUse"><stop offset="0" stop-color="#442589"/><stop offset="1" stop-color="#5d5fff"/></linearGradient><linearGradient id="linear-gradient-2" x1="-15.52" y1="-11.8" x2="80.44" y2="59.13" gradientTransform="matrix(1, 0, 0, -1, 0, 61.71)" xlink:href="#linear-gradient"/><linearGradient id="linear-gradient-3" x1="-54.54" y1="-35.72" x2="26.82" y2="-15.55" gradientTransform="matrix(1, 0, 0, -1, 0, 61.71)" xlink:href="#linear-gradient"/><linearGradient id="linear-gradient-4" x1="85.44" y1="-41.41" x2="-61.75" y2="-129.94" gradientTransform="matrix(1, 0, 0, -1, 0, 61.71)" gradientUnits="userSpaceOnUse"><stop offset="0" stop-color="#c7c7ff"/><stop offset="1" stop-color="#5d5fff"/></linearGradient><linearGradient id="linear-gradient-5" x1="88.57" y1="-35.41" x2="205.85" y2="-40.1" gradientTransform="matrix(1, 0, 0, -1, 0, 61.71)" xlink:href="#linear-gradient"/><linearGradient id="linear-gradient-6" x1="75.79" y1="-117.5" x2="78.04" y2="-30.17" gradientTransform="matrix(1, 0, 0, -1, 0, 61.71)" gradientUnits="userSpaceOnUse"><stop offset="0" stop-color="#b3d2ff"/><stop offset="1" stop-color="#fff"/></linearGradient><linearGradient id="linear-gradient-7" x1="97.94" y1="-119.78" x2="102.18" y2="-41.73" xlink:href="#linear-gradient-6"/><linearGradient id="linear-gradient-8" x1="69.55" y1="624.77" x2="73.79" y2="702.82" gradientTransform="matrix(0.99, 0.16, 0.16, -0.99, -105.41, 783.56)" xlink:href="#linear-gradient-6"/><linearGradient id="linear-gradient-9" x1="89.14" y1="-119.31" x2="93.38" y2="-41.26" xlink:href="#linear-gradient-6"/></defs><g id="Layer_2" data-name="Layer 2"><g id="Layer_1-2" data-name="Layer 1"><g id="Layer_2-2" data-name="Layer 2"><g id="Layer_1-2-2" data-name="Layer 1-2"><path class="cls-1" d="M220.81,74.31a24.05,24.05,0,0,1-1.53,9,17.36,17.36,0,0,1-4.32,6.4,18.18,18.18,0,0,1-6.73,3.85,28.47,28.47,0,0,1-8.74,1.28c-.72,0-1.55,0-2.46-.07s-1.86-.12-2.82-.22-1.93-.26-2.91-.45a16.46,16.46,0,0,1-2.69-.74q-3.33-1.23-3.33-4.35V58.49a2.75,2.75,0,0,1,.67-2,4.86,4.86,0,0,1,2-1.16,25.77,25.77,0,0,1,5.57-1.08c2-.17,3.76-.26,5.38-.26a30.79,30.79,0,0,1,9,1.22,18.41,18.41,0,0,1,6.83,3.8,17.1,17.1,0,0,1,4.48,6.34A23,23,0,0,1,220.81,74.31Zm-10.37.13q0-6.21-3-9.26a10.7,10.7,0,0,0-7.91-3,21.56,21.56,0,0,0-2.17.07,15,15,0,0,0-2,.25V86.28a15.06,15.06,0,0,0,2,.29c.79.06,1.55.1,2.28.1a10.56,10.56,0,0,0,7.94-3C209.46,81.6,210.44,78.53,210.44,74.44Z"/><path class="cls-1" d="M235.16,82.5a6.17,6.17,0,0,0,3.13,3.81,11.51,11.51,0,0,0,5.19,1.12,17.94,17.94,0,0,0,8.9-2.37,5.32,5.32,0,0,1,1.6,1.67,4.14,4.14,0,0,1,.64,2.24,3.92,3.92,0,0,1-.89,2.56,7,7,0,0,1-2.47,1.83,14.11,14.11,0,0,1-3.71,1.08,28.57,28.57,0,0,1-4.71.36,22.43,22.43,0,0,1-7-1.06,15.28,15.28,0,0,1-5.51-3.14,14.33,14.33,0,0,1-3.61-5.22,19,19,0,0,1-1.3-7.37,17.48,17.48,0,0,1,1.32-7.11,14.29,14.29,0,0,1,3.52-5A13.82,13.82,0,0,1,235.32,63a18.8,18.8,0,0,1,5.86-.93,17.3,17.3,0,0,1,6,1,13.82,13.82,0,0,1,4.68,2.78,12.71,12.71,0,0,1,3,4.29A13.57,13.57,0,0,1,256,75.59a4,4,0,0,1-1.09,3.07,5.79,5.79,0,0,1-3.1,1.35Zm6.08-13.19a6.42,6.42,0,0,0-4.58,1.7,7.41,7.41,0,0,0-2.14,4.9l12.23-2a5.11,5.11,0,0,0-5.51-4.6Z"/><path class="cls-1" d="M271.08,65.28H282a15.06,15.06,0,0,1,.68,1.6A6.12,6.12,0,0,1,283,69a4,4,0,0,1-.93,3,3.28,3.28,0,0,1-2.4.89h-8.13V93.77a12.18,12.18,0,0,1-1.8.35,18.24,18.24,0,0,1-2.56.16,7.35,7.35,0,0,1-4.16-.92c-.85-.62-1.28-1.83-1.28-3.62V62.53a12.78,12.78,0,0,1,1.06-5.45,9.79,9.79,0,0,1,2.91-3.74,12.65,12.65,0,0,1,4.35-2.15,19.53,19.53,0,0,1,5.38-.7,14.94,14.94,0,0,1,6.76,1.18,4.08,4.08,0,0,1,2.21,3.88,4.68,4.68,0,0,1-.48,2.14,4.48,4.48,0,0,1-1.12,1.44,21,21,0,0,0-2.6-.64,16.92,16.92,0,0,0-3.1-.25,7.91,7.91,0,0,0-4.48,1,4,4,0,0,0-1.54,3.55ZM288.37,54.2a5.1,5.1,0,0,1,1.5-3.71,5.8,5.8,0,0,1,7.88,0,5.14,5.14,0,0,1,1.5,3.71,5.24,5.24,0,0,1-1.5,3.78,5.82,5.82,0,0,1-7.88,0A5.24,5.24,0,0,1,288.37,54.2Zm10.31,39.57a12.18,12.18,0,0,1-1.8.35,18.24,18.24,0,0,1-2.56.16,7.09,7.09,0,0,1-4.13-.92c-.83-.62-1.25-1.83-1.25-3.62V63.42a15.55,15.55,0,0,1,1.8-.38,14.65,14.65,0,0,1,2.56-.2,6.89,6.89,0,0,1,4.13,1c.83.64,1.25,1.85,1.25,3.65Z"/><path class="cls-1" d="M308.51,92.52a5.25,5.25,0,0,1-1.45-3.87V54.91c.47-.09,1.15-.2,2-.32a17.28,17.28,0,0,1,2.59-.2,7,7,0,0,1,4.17,1c.85.64,1.28,1.9,1.28,3.78v26.7h15.36a8.58,8.58,0,0,1,.74,1.67,6.81,6.81,0,0,1,.35,2.24,4.74,4.74,0,0,1-.92,3.17,3.24,3.24,0,0,1-2.53,1H312.38A5.24,5.24,0,0,1,308.51,92.52Z"/><path class="cls-1" d="M344.65,94.28a7.09,7.09,0,0,1-4.13-.92c-.83-.62-1.25-1.83-1.25-3.62V52.15a16.05,16.05,0,0,1,1.83-.38,15,15,0,0,1,2.59-.19,6.94,6.94,0,0,1,4.1,1c.85.64,1.28,1.85,1.28,3.65V93.77a14.52,14.52,0,0,1-1.86.35A18.24,18.24,0,0,1,344.65,94.28Z"/><path class="cls-1" d="M369,62.08a25.25,25.25,0,0,1,6.06.67,13,13,0,0,1,4.64,2.08,9.58,9.58,0,0,1,3,3.59,11.57,11.57,0,0,1,1.06,5.12V88a3.94,3.94,0,0,1-.86,2.66,8.48,8.48,0,0,1-2.08,1.69A15.71,15.71,0,0,1,376,94.22a30.51,30.51,0,0,1-6.53.64q-6.6,0-10.5-2.53a8.53,8.53,0,0,1-4-7.71q0-4.43,2.63-6.73T365.72,75l8.51-.89v-.71a3.22,3.22,0,0,0-1.66-3,9.76,9.76,0,0,0-4.81-1A19.11,19.11,0,0,0,363,70a29.18,29.18,0,0,0-4.19,1.34,3.91,3.91,0,0,1-1.31-1.57,4.73,4.73,0,0,1-.55-2.27,4.16,4.16,0,0,1,2.95-4,20.06,20.06,0,0,1,4.32-1.06A34.73,34.73,0,0,1,369,62.08Zm.39,25.55a13.67,13.67,0,0,0,2.78-.29,6.77,6.77,0,0,0,2.09-.74V80.71l-5.26.45a7.93,7.93,0,0,0-3.29.93,2.4,2.4,0,0,0-1.25,2.21,2.9,2.9,0,0,0,1.15,2.43,6.24,6.24,0,0,0,3.82.9Z"/><path class="cls-1" d="M437.49,93.77a14.7,14.7,0,0,1-1.85.35,18.38,18.38,0,0,1-2.57.16,7.25,7.25,0,0,1-4.13-.92c-.83-.62-1.24-1.83-1.24-3.62V73.86a3.88,3.88,0,0,0-1.16-3.11,4.61,4.61,0,0,0-3.13-1,6.17,6.17,0,0,0-2.4.45,7.82,7.82,0,0,0-2,1.15c0,.22.07.43.09.64s0,.43,0,.64V93.77a14.52,14.52,0,0,1-1.86.35,18.24,18.24,0,0,1-2.56.16,7.09,7.09,0,0,1-4.13-.92c-.83-.62-1.25-1.83-1.25-3.62V73.86a3.7,3.7,0,0,0-1.3-3.11,5,5,0,0,0-3.14-1,6.72,6.72,0,0,0-2.43.42,12.51,12.51,0,0,0-1.79.8v22.8a12.18,12.18,0,0,1-1.8.35,18.24,18.24,0,0,1-2.56.16,7.35,7.35,0,0,1-4.16-.92c-.86-.62-1.28-1.83-1.28-3.62V70a4.62,4.62,0,0,1,.7-2.69,7.61,7.61,0,0,1,2-1.92A17.42,17.42,0,0,1,398.79,63a23.39,23.39,0,0,1,6.5-.89,17.22,17.22,0,0,1,5.09.73,13.29,13.29,0,0,1,4.38,2.28A19.22,19.22,0,0,1,419.12,63a17.31,17.31,0,0,1,5.76-.86,18.3,18.3,0,0,1,4.77.61,10.77,10.77,0,0,1,4,2,10.11,10.11,0,0,1,2.79,3.59,12.4,12.4,0,0,1,1.05,5.34Z"/><path class="cls-1" d="M457.15,62.08a25.11,25.11,0,0,1,6.05.67,13,13,0,0,1,4.64,2.08,9.58,9.58,0,0,1,3,3.59,11.57,11.57,0,0,1,1.06,5.12V88a3.9,3.9,0,0,1-.87,2.66A8.29,8.29,0,0,1,469,92.36a15.5,15.5,0,0,1-4.87,1.86,30.51,30.51,0,0,1-6.53.64q-6.58,0-10.5-2.53a8.56,8.56,0,0,1-3.9-7.71q0-4.43,2.62-6.73T453.82,75l8.52-.89v-.71a3.22,3.22,0,0,0-1.67-3,9.73,9.73,0,0,0-4.8-1,19.65,19.65,0,0,0-4.77.58,29.31,29.31,0,0,0-4.2,1.34,3.91,3.91,0,0,1-1.31-1.57,4.84,4.84,0,0,1-.54-2.27,4.15,4.15,0,0,1,2.94-4,20.06,20.06,0,0,1,4.32-1.06A34,34,0,0,1,457.15,62.08Zm.38,25.55a13.76,13.76,0,0,0,2.79-.29,6.72,6.72,0,0,0,2.08-.74V80.71l-5.25.45a8,8,0,0,0-3.3.93,2.4,2.4,0,0,0-1.25,2.21,2.92,2.92,0,0,0,1.16,2.43A6.17,6.17,0,0,0,457.53,87.63Z"/><path class="cls-1" d="M524.57,93.87a12.54,12.54,0,0,1-3.65.48,11.62,11.62,0,0,1-4.09-.71,6.09,6.09,0,0,1-3.21-3.2L506.2,76.1c-.73-1.37-1.4-2.73-2-4.1s-1.2-2.79-1.85-4.29l-.44.13q.31,3.84.38,7.33t.06,6.76V93.84c-.42.08-1.05.18-1.89.28a20.35,20.35,0,0,1-2.59.16c-1.92,0-3.26-.33-4-1a4.63,4.63,0,0,1-1.16-3.55v-33A5,5,0,0,1,495.18,55a10.39,10.39,0,0,1,3.62-.61,11.61,11.61,0,0,1,4.13.7,6.19,6.19,0,0,1,3.17,3.14l7.49,14.41c.73,1.36,1.4,2.73,2,4.09s1.22,2.8,1.82,4.29l.26-.06c-.22-2.86-.33-5.57-.36-8.13s0-5,0-7.37V54.91c.43-.09,1.06-.2,1.89-.32a16.93,16.93,0,0,1,2.66-.2c1.92,0,3.26.33,4,1A4.63,4.63,0,0,1,527,58.94V92.62A7,7,0,0,1,524.57,93.87Z"/><path class="cls-1" d="M562.54,55a7.91,7.91,0,0,1,.71,1.67,7.36,7.36,0,0,1,.32,2.24,4.56,4.56,0,0,1-.93,3.14,3.35,3.35,0,0,1-2.59,1H545.83v8.39h14.54a12.29,12.29,0,0,1,.73,1.66,6.35,6.35,0,0,1,.35,2.25,4.38,4.38,0,0,1-1,3.1,3.39,3.39,0,0,1-2.56,1H546V93.77a15.22,15.22,0,0,1-2,.35,22,22,0,0,1-2.69.16c-2,0-3.4-.34-4.19-1s-1.19-1.92-1.19-3.71V60.35A5,5,0,0,1,540.57,55h22Z"/><path class="cls-1" d="M588.6,63.1V93.77a15.22,15.22,0,0,1-2,.35,22,22,0,0,1-2.69.16,6.87,6.87,0,0,1-4.23-1c-.81-.68-1.21-1.92-1.21-3.71V63.1h-10a9.1,9.1,0,0,1-.73-1.66,6.57,6.57,0,0,1-.36-2.24,4.44,4.44,0,0,1,1-3.17A3.48,3.48,0,0,1,571,55h28a6,6,0,0,1,.77,1.67,7.36,7.36,0,0,1,.32,2.24,4.48,4.48,0,0,1-1,3.14,3.47,3.47,0,0,1-2.63,1Z"/><rect class="cls-2" x="15.02" y="15.01" width="130.65" height="130.65" rx="29.08" transform="translate(-33.28 80.34) rotate(-45)"/><rect class="cls-3" x="15.02" y="15.01" width="130.65" height="130.65" rx="29.08" transform="translate(-33.28 80.34) rotate(-45)"/><path class="cls-4" d="M59.77,8.53l-32,32a29,29,0,0,0,25-8.17l32-32A29,29,0,0,0,59.77,8.53Z"/><path class="cls-5" d="M8.52,100.91l5.86,5.86,5.86-5.86a29.08,29.08,0,0,0,0-41.13h0l-5.86-5.86L8.52,59.78a29.08,29.08,0,0,0,0,41.12Z"/><path class="cls-1" d="M41.19,58.89A2.62,2.62,0,0,1,41,61h0a2.59,2.59,0,0,1-3.54.94l-.2-.13-6.52-4.71a1.76,1.76,0,0,1,1.76-3l7.33,3.29A2.55,2.55,0,0,1,41.22,59"/><path class="cls-1" d="M41.19,101.78a2.57,2.57,0,0,1-1.4,1.56l-7.33,3.3a1.76,1.76,0,0,1-1.75-3l6.51-4.7a2.58,2.58,0,0,1,3.6.59,1.64,1.64,0,0,1,.14.22,2.59,2.59,0,0,1,.22,2.07"/><path class="cls-6" d="M28,82.87l-2.8-1a2.13,2.13,0,0,1-1.33-2.72,2.1,2.1,0,0,1,1.33-1.33l2.8-1a3.15,3.15,0,1,1,0,6"/><path class="cls-7" d="M50.31,95.39c-6.52,12.92-15.78,19.32-25.16,22.15l34.62,34.62.61.58a74.56,74.56,0,0,0,11.42-21.9S69.54,57.31,50.31,95.39Z"/><path class="cls-8" d="M156.36,65.11,120,101.48a22.36,22.36,0,0,0,0,31.62l32.19-32.19A29.08,29.08,0,0,0,156.36,65.11Z"/><path class="cls-1" d="M127.45,58.89a2.55,2.55,0,0,1,1.39-1.57L136.17,54a1.75,1.75,0,0,1,2.28,1,1.77,1.77,0,0,1-.52,2l-6.52,4.71a2.59,2.59,0,0,1-3.61-.61l-.13-.2h0a2.59,2.59,0,0,1-.22-2.07"/><path class="cls-1" d="M127.46,101.78a2.59,2.59,0,0,1,.22-2.07,1.64,1.64,0,0,1,.14-.22,2.58,2.58,0,0,1,3.6-.59l6.51,4.7a1.76,1.76,0,0,1-1.75,3l-7.33-3.3a2.57,2.57,0,0,1-1.4-1.56"/><path class="cls-6" d="M140.65,82.87a3.15,3.15,0,1,1,0-6l2.8,1a2.14,2.14,0,0,1,0,4l-2.8,1"/><path class="cls-9" d="M100.09,37.85h-.33a7.42,7.42,0,0,0-7.42-7.42h1a4.89,4.89,0,0,0-4.89-4.91H74.32a4.91,4.91,0,0,0-4.91,4.91H68a7.42,7.42,0,0,0-7.42,7.42H59.45a7.4,7.4,0,0,0-7.4,7.4h0V58h0V88.18A9.31,9.31,0,0,0,51.82,90c-.21,21-2.41,36.73-5.82,48.37l13.78,13.78a29.1,29.1,0,0,0,38.42,2.38c.44-.34.88-.7,1.31-1.08l.1-.09c.45-.39.88-.79,1.3-1.21l6.59-6.59V45.25a7.4,7.4,0,0,0-7.4-7.4Z"/><path class="cls-10" d="M121.88,80.73c0,5.7-6.25,10.12-13.47,9.6-11.28-.81-17.59-2.67-20-5.17-2.22-2.27,0-6.12,0-6.12L89.07,57h14.11c10.33,0,18.88,9.73,18.88,17.85Z"/><path class="cls-11" d="M121.79,81.88a1.65,1.65,0,0,1-1.17-.86l-1.11-5.32a2.45,2.45,0,0,0-.67-1.23l-3.78-3.77a1.33,1.33,0,0,1,0-1.75,1.09,1.09,0,0,1,1-.37l4.87.68s1,1.31,1.33,5.64A21.31,21.31,0,0,1,121.79,81.88Z"/><path class="cls-10" d="M87.12,22.85a2.69,2.69,0,0,0-.84-.58,3.25,3.25,0,0,0-4,1.1c-4.6,6.18-10.74,8.33-13.4,13.78C65.75,43,71.4,53.54,79.27,48.08,85.11,44,85.77,35.61,88,26.46l.09-.4a3.19,3.19,0,0,0-.93-3.21"/><circle class="cls-12" cx="104.65" cy="57.97" r="5.09"/><circle class="cls-13" cx="88.18" cy="67.99" r="11.05"/><ellipse class="cls-14" cx="96.08" cy="53.21" rx="11.03" ry="6.45"/></g></g></g></g></svg>