<svg xmlns="http://www.w3.org/2000/svg" xmlns:xlink="http://www.w3.org/1999/xlink" viewBox="0 0 694.81 694.77"><defs><style>.cls-1{fill:url(#linear-gradient);}.cls-2{fill:none;}.cls-3{fill:url(#linear-gradient-2);}.cls-4{fill:url(#linear-gradient-3);}.cls-5{fill:#fff;}.cls-6{fill:#b3d2ff;}.cls-7{fill:url(#linear-gradient-4);}.cls-8{fill:url(#linear-gradient-5);}.cls-9{fill:url(#linear-gradient-6);}.cls-10{fill:#c7c7ff;}.cls-11{fill:#442589;fill-rule:evenodd;}.cls-12{fill:url(#linear-gradient-7);}.cls-13{fill:url(#linear-gradient-8);}.cls-14{fill:url(#linear-gradient-9);}</style><linearGradient id="linear-gradient" x1="0.01" y1="-2002.84" x2="694.78" y2="-2002.84" gradientTransform="matrix(0.71, 0.71, 0.71, -0.71, 1517.97, -1314.48)" gradientUnits="userSpaceOnUse"><stop offset="0" stop-color="#442589"/><stop offset="1" stop-color="#5d5fff"/></linearGradient><linearGradient id="linear-gradient-2" x1="-67.12" y1="-1973.31" x2="347.82" y2="-1666.6" gradientTransform="matrix(1, 0, 0, -1, 0, -1655.45)" xlink:href="#linear-gradient"/><linearGradient id="linear-gradient-3" x1="-235.83" y1="-2076.74" x2="115.97" y2="-1989.52" gradientTransform="matrix(1, 0, 0, -1, 0, -1655.45)" xlink:href="#linear-gradient"/><linearGradient id="linear-gradient-4" x1="369.45" y1="-2101.35" x2="-267.01" y2="-2484.16" gradientTransform="matrix(1, 0, 0, -1, 0, -1655.45)" gradientUnits="userSpaceOnUse"><stop offset="0" stop-color="#c7c7ff"/><stop offset="1" stop-color="#5d5fff"/></linearGradient><linearGradient id="linear-gradient-5" x1="382.98" y1="-2075.4" x2="890.11" y2="-2095.68" gradientTransform="matrix(1, 0, 0, -1, 0, -1655.45)" xlink:href="#linear-gradient"/><linearGradient id="linear-gradient-6" x1="327.72" y1="-2430.36" x2="337.45" y2="-2052.74" gradientTransform="matrix(1, 0, 0, -1, 0, -1655.45)" gradientUnits="userSpaceOnUse"><stop offset="0" stop-color="#b3d2ff"/><stop offset="1" stop-color="#fff"/></linearGradient><linearGradient id="linear-gradient-7" x1="423.49" y1="-2440.26" x2="441.83" y2="-2102.76" xlink:href="#linear-gradient-6"/><linearGradient id="linear-gradient-8" x1="486.51" y1="-1300.28" x2="504.84" y2="-962.79" gradientTransform="matrix(0.99, 0.16, 0.16, -0.99, 6.17, -591.25)" xlink:href="#linear-gradient-6"/><linearGradient id="linear-gradient-9" x1="385.43" y1="-2438.18" x2="403.77" y2="-2100.69" xlink:href="#linear-gradient-6"/></defs><g id="Layer_2" data-name="Layer 2"><g id="Layer_1-2" data-name="Layer 1"><rect class="cls-1" x="64.93" y="64.92" width="564.94" height="564.94" rx="125.74" transform="translate(-143.89 347.39) rotate(-45)"/><rect class="cls-2" x="64.93" y="64.92" width="564.94" height="564.94" rx="125.74" transform="translate(-143.89 347.39) rotate(-45)"/><path class="cls-3" d="M258.45,36.88,120.08,175.25a125.4,125.4,0,0,0,108.1-35.33L366.55,1.55A125.39,125.39,0,0,0,258.45,36.88Z"/><path class="cls-4" d="M36.84,436.33l25.34,25.34,25.34-25.34a125.75,125.75,0,0,0,0-177.83l0,0L62.18,233.15,36.84,258.48a125.75,125.75,0,0,0,0,177.83Z"/><path class="cls-5" d="M178.11,254.64a11.17,11.17,0,0,1-.83,9.16h0a11.18,11.18,0,0,1-15.3,4.06c-.3-.17-.59-.36-.87-.55l-28.19-20.37a7.61,7.61,0,0,1,7.61-13l31.7,14.22a11.06,11.06,0,0,1,6,6.79"/><path class="cls-5" d="M178.11,440.09a11.12,11.12,0,0,1-6.06,6.75l-31.69,14.27a7.61,7.61,0,0,1-7.57-13l28.15-20.33a11.16,11.16,0,0,1,15.57,2.56,6.63,6.63,0,0,1,.6.95,11.17,11.17,0,0,1,.95,8.95"/><path class="cls-6" d="M121.07,358.33,109,354a9.25,9.25,0,0,1,0-17.51l12.11-4.32a13.62,13.62,0,1,1,0,25.94"/><path class="cls-7" d="M217.54,412.46c-28.19,55.87-68.23,83.54-108.79,95.78l149.7,149.7,2.64,2.51a322.28,322.28,0,0,0,49.38-94.7S300.69,247.8,217.54,412.46Z"/><path class="cls-8" d="M676.11,281.53,518.89,438.8a96.72,96.72,0,0,0,0,136.72L658.08,436.33A125.76,125.76,0,0,0,676.11,281.53Z"/><path class="cls-5" d="M551.1,254.64a11.14,11.14,0,0,1,6-6.79l31.7-14.32a7.62,7.62,0,0,1,7.61,13l-28.2,20.36a11.19,11.19,0,0,1-15.61-2.64,9.74,9.74,0,0,1-.56-.86h0a11.21,11.21,0,0,1-.95-9"/><path class="cls-5" d="M551.14,440.09a11.21,11.21,0,0,1,1-8.95,7.3,7.3,0,0,1,.61-.95,11.16,11.16,0,0,1,15.57-2.55L596.42,448a7.61,7.61,0,0,1-7.57,13l-31.7-14.27a11.14,11.14,0,0,1-6-6.75"/><path class="cls-6" d="M608.18,358.33a13.62,13.62,0,1,1,0-25.95l12.1,4.33a9.25,9.25,0,0,1,0,17.51l-12.1,4.32"/><path class="cls-9" d="M432.79,163.66h-1.42a32.09,32.09,0,0,0-32.09-32.09h4.33a21.2,21.2,0,0,0-21.15-21.23h-61.1a21.24,21.24,0,0,0-21.23,21.23H294A32.09,32.09,0,0,0,262,163.66h-4.89a32,32,0,0,0-32,32h0v55.17h-.22V381.29a43.73,43.73,0,0,0-.78,7.91C223.16,480,213.65,548,198.91,598.36l59.58,59.58a125.78,125.78,0,0,0,166.13,10.29c1.9-1.47,3.81-3,5.67-4.67l.43-.39c1.94-1.68,3.8-3.41,5.62-5.23l28.49-28.49V195.66a32,32,0,0,0-32-32Z"/><path class="cls-10" d="M527,349.07c0,24.65-27,43.76-58.24,41.51-48.78-3.5-76.06-11.54-86.48-22.35-9.6-9.82,0-26.46,0-26.46l2.85-95.52h61c44.67,0,81.64,42.07,81.64,77.18Z"/><path class="cls-11" d="M526.63,354.05a7,7,0,0,1-5.06-3.72l-4.8-23a10.78,10.78,0,0,0-2.9-5.32l-16.35-16.3a5.75,5.75,0,0,1,0-7.56,4.75,4.75,0,0,1,4.33-1.6l21.06,2.94s4.32,5.66,5.75,24.38A91.52,91.52,0,0,1,526.63,354.05Z"/><path class="cls-10" d="M376.71,98.8a11.69,11.69,0,0,0-3.63-2.51,14.09,14.09,0,0,0-17.3,4.76c-19.89,26.72-46.44,36-57.94,59.58-13.53,25.34,10.9,70.87,44.93,47.26,25.25-17.6,28.1-53.92,37.75-93.48l.38-1.73a13.77,13.77,0,0,0-4-13.88"/><circle class="cls-12" cx="452.51" cy="250.66" r="22.01"/><circle class="cls-13" cx="381.29" cy="293.98" r="47.78"/><ellipse class="cls-14" cx="415.45" cy="230.08" rx="47.69" ry="27.89"/></g></g></svg>