<svg xmlns="http://www.w3.org/2000/svg" xmlns:xlink="http://www.w3.org/1999/xlink" viewBox="0 0 900 836.26"><defs><style>.cls-1{fill:#333336;}.cls-2{fill:url(#linear-gradient);}.cls-3{fill:none;}.cls-4{fill:url(#linear-gradient-2);}.cls-5{fill:url(#linear-gradient-3);}.cls-6{fill:#fff;}.cls-7{fill:#b3d2ff;}.cls-8{fill:url(#linear-gradient-4);}.cls-9{fill:url(#linear-gradient-5);}.cls-10{fill:url(#linear-gradient-6);}.cls-11{fill:#c7c7ff;}.cls-12{fill:#442589;fill-rule:evenodd;}.cls-13{fill:url(#linear-gradient-7);}.cls-14{fill:url(#linear-gradient-8);}.cls-15{fill:url(#linear-gradient-9);}</style><linearGradient id="linear-gradient" x1="99.2" y1="-1999.1" x2="793.97" y2="-1999.1" gradientTransform="matrix(0.71, 0.71, 0.71, -0.71, 1544.38, -1381.97)" gradientUnits="userSpaceOnUse"><stop offset="0" stop-color="#442589"/><stop offset="1" stop-color="#5d5fff"/></linearGradient><linearGradient id="linear-gradient-2" x1="32.07" y1="-1969.57" x2="447" y2="-1662.86" gradientTransform="matrix(1, 0, 0, -1, 0, -1651.71)" xlink:href="#linear-gradient"/><linearGradient id="linear-gradient-3" x1="-136.65" y1="-2073" x2="215.16" y2="-1985.78" gradientTransform="matrix(1, 0, 0, -1, 0, -1651.71)" xlink:href="#linear-gradient"/><linearGradient id="linear-gradient-4" x1="468.64" y1="-2097.61" x2="-167.82" y2="-2480.42" gradientTransform="matrix(1, 0, 0, -1, 0, -1651.71)" gradientUnits="userSpaceOnUse"><stop offset="0" stop-color="#c7c7ff"/><stop offset="1" stop-color="#5d5fff"/></linearGradient><linearGradient id="linear-gradient-5" x1="482.17" y1="-2071.66" x2="989.29" y2="-2091.94" gradientTransform="matrix(1, 0, 0, -1, 0, -1651.71)" xlink:href="#linear-gradient"/><linearGradient id="linear-gradient-6" x1="426.91" y1="-2426.62" x2="436.64" y2="-2049" gradientTransform="matrix(1, 0, 0, -1, 0, -1651.71)" gradientUnits="userSpaceOnUse"><stop offset="0" stop-color="#b3d2ff"/><stop offset="1" stop-color="#fff"/></linearGradient><linearGradient id="linear-gradient-7" x1="522.68" y1="-2436.52" x2="541.02" y2="-2099.02" xlink:href="#linear-gradient-6"/><linearGradient id="linear-gradient-8" x1="616.72" y1="-1682.59" x2="635.06" y2="-1345.1" gradientTransform="matrix(0.99, 0.16, 0.16, -0.99, 38.49, -989.56)" xlink:href="#linear-gradient-6"/><linearGradient id="linear-gradient-9" x1="484.62" y1="-2434.44" x2="502.95" y2="-2096.95" xlink:href="#linear-gradient-6"/></defs><g id="Layer_2" data-name="Layer 2"><g id="Layer_1-2" data-name="Layer 1"><path class="cls-1" d="M77.12,791.66a52.23,52.23,0,0,1-3.33,19.45A37.55,37.55,0,0,1,64.41,825a39.28,39.28,0,0,1-14.6,8.34,61.09,61.09,0,0,1-19,2.77c-1.58,0-3.36,0-5.35-.14s-4-.25-6.12-.48-4.19-.56-6.32-1a37,37,0,0,1-5.83-1.61Q0,830.3,0,823.48V757.33A6,6,0,0,1,1.46,753a10.43,10.43,0,0,1,4.24-2.5,55.58,55.58,0,0,1,12.09-2.37q6.39-.55,11.67-.56a67.17,67.17,0,0,1,19.45,2.65,39.69,39.69,0,0,1,15,8.13,37.15,37.15,0,0,1,9.73,13.75A50.33,50.33,0,0,1,77.12,791.66Zm-22.51.28q0-13.49-6.6-20.09t-17.16-6.6c-1.67,0-3.25,0-4.72.14a37.32,37.32,0,0,0-4.45.56v51.69a30.58,30.58,0,0,0,4.37.63c1.72.13,3.36.2,4.94.2q10.83,0,17.23-6.6T54.61,791.94Z"/><path class="cls-1" d="M108.25,809.44a13.5,13.5,0,0,0,6.8,8.27,24.88,24.88,0,0,0,11.26,2.43,36.67,36.67,0,0,0,11-1.6,37.47,37.47,0,0,0,8.33-3.54,11.81,11.81,0,0,1,3.48,3.62,9,9,0,0,1,1.39,4.86,8.48,8.48,0,0,1-2,5.56,15.09,15.09,0,0,1-5.35,4,30.81,30.81,0,0,1-8.06,2.37,64.32,64.32,0,0,1-10.21.76,48,48,0,0,1-15.15-2.29,33.11,33.11,0,0,1-12-6.81A31.27,31.27,0,0,1,90,815.7a41.22,41.22,0,0,1-2.85-16A38.37,38.37,0,0,1,90,784.29a31.08,31.08,0,0,1,7.64-10.84,30.31,30.31,0,0,1,11-6.32,40.87,40.87,0,0,1,12.72-2,37.82,37.82,0,0,1,13,2.15,30.12,30.12,0,0,1,10.14,6,27.23,27.23,0,0,1,6.6,9.31,29.18,29.18,0,0,1,2.37,11.81q0,4.46-2.37,6.67a12.26,12.26,0,0,1-6.67,2.92Zm13.2-28.62a14,14,0,0,0-9.94,3.68q-4,3.69-4.65,10.63l26.53-4.31A11.27,11.27,0,0,0,130.2,784C128.25,781.88,125.34,780.82,121.45,780.82Z"/><path class="cls-1" d="M186.2,772.06h23.62a35.75,35.75,0,0,1,1.46,3.48,13.22,13.22,0,0,1,.76,4.58q0,4.46-2,6.4a7.22,7.22,0,0,1-5.21,1.94H187.17V833.9a28.41,28.41,0,0,1-3.89.76,40.88,40.88,0,0,1-5.56.35q-6.25,0-9-2c-1.86-1.33-2.78-4-2.78-7.85v-59a28.17,28.17,0,0,1,2.29-11.82,21.45,21.45,0,0,1,6.32-8.12,27.5,27.5,0,0,1,9.45-4.66A42.89,42.89,0,0,1,195.65,740q9.85,0,14.65,2.58t4.8,8.4a10.09,10.09,0,0,1-1,4.66,9.57,9.57,0,0,1-2.43,3.12,51.49,51.49,0,0,0-5.63-1.39,38.13,38.13,0,0,0-6.74-.55q-6.39,0-9.73,2.29t-3.33,7.72Zm37.52-24A11.12,11.12,0,0,1,227,740a12.63,12.63,0,0,1,17.09,0,11.13,11.13,0,0,1,3.27,8.07,11.24,11.24,0,0,1-3.27,8.19,12.6,12.6,0,0,1-17.09,0A11.23,11.23,0,0,1,223.72,748Zm22.37,85.87a28.73,28.73,0,0,1-3.89.76,40.88,40.88,0,0,1-5.56.35q-6.25,0-9-2t-2.7-7.85V768a35.28,35.28,0,0,1,3.89-.83,33.67,33.67,0,0,1,5.55-.41q6.26,0,9,2.08c1.8,1.39,2.71,4,2.71,7.92Z"/><path class="cls-1" d="M267.42,831.19a11.36,11.36,0,0,1-3.13-8.41V749.55q1.53-.27,4.38-.69a38.51,38.51,0,0,1,5.63-.42c4.17,0,7.17.7,9,2.09s2.78,4.12,2.78,8.19v57.95h33.35a19.28,19.28,0,0,1,1.59,3.61,14.83,14.83,0,0,1,.77,4.86c0,3.06-.67,5.36-2,6.88a7,7,0,0,1-5.49,2.3H275.83A11.38,11.38,0,0,1,267.42,831.19Z"/><path class="cls-1" d="M345.86,835c-4.17,0-7.15-.67-9-2s-2.7-4-2.7-7.85V743.58a30.76,30.76,0,0,1,4-.83,34.85,34.85,0,0,1,5.62-.42c4.08,0,7,.69,8.9,2.08s2.77,4,2.77,7.92V833.9a34.42,34.42,0,0,1-4,.76A41,41,0,0,1,345.86,835Z"/><path class="cls-1" d="M398.79,765.12a55,55,0,0,1,13.14,1.45A28.46,28.46,0,0,1,422,771.09a20.62,20.62,0,0,1,6.46,7.78,25.2,25.2,0,0,1,2.3,11.12v31.4a8.45,8.45,0,0,1-1.88,5.77,17.6,17.6,0,0,1-4.52,3.68,34.22,34.22,0,0,1-10.56,4,66,66,0,0,1-14.17,1.39q-14.31,0-22.79-5.49T368.37,814q0-9.59,5.69-14.6c3.79-3.33,9.64-5.41,17.51-6.24l18.49-2v-1.53a7,7,0,0,0-3.62-6.53q-3.62-2.08-10.42-2.09a43.9,43.9,0,0,0-10.36,1.25,63.14,63.14,0,0,0-9.09,2.93,8.76,8.76,0,0,1-2.85-3.41,10.58,10.58,0,0,1-1.18-4.93q0-6.12,6.39-8.76a43.87,43.87,0,0,1,9.37-2.29A74.15,74.15,0,0,1,398.79,765.12Zm.84,55.44a29.15,29.15,0,0,0,6-.63,14,14,0,0,0,4.52-1.59V805.55l-11.4,1a17.22,17.22,0,0,0-7.15,2,5.23,5.23,0,0,0-2.71,4.79,6.37,6.37,0,0,0,2.5,5.29Q393.94,820.56,399.63,820.56Z"/><path class="cls-1" d="M547.34,833.9a35.07,35.07,0,0,1-4,.76,41,41,0,0,1-5.56.35c-4.17,0-7.15-.67-9-2s-2.7-4-2.7-7.85V790.68q0-4.57-2.51-6.74a10.08,10.08,0,0,0-6.8-2.15,14,14,0,0,0-5.21,1,17.84,17.84,0,0,0-4.39,2.51,13.19,13.19,0,0,1,.22,1.38c0,.47.07.93.07,1.39V833.9a34.65,34.65,0,0,1-4,.76,41,41,0,0,1-5.56.35q-6.25,0-9-2t-2.71-7.85V790.68q0-4.57-2.79-6.74a10.78,10.78,0,0,0-6.8-2.15,14.48,14.48,0,0,0-5.28.91,33,33,0,0,0-3.89,1.73V833.9a28.41,28.41,0,0,1-3.89.76A40.93,40.93,0,0,1,458,835q-6.24,0-9-2c-1.86-1.33-2.78-4-2.78-7.85V782.21a10.11,10.11,0,0,1,1.53-5.84,16.83,16.83,0,0,1,4.3-4.17,38.44,38.44,0,0,1,11.33-5.14,50.81,50.81,0,0,1,14.1-1.94,37.61,37.61,0,0,1,11.05,1.59,29.78,29.78,0,0,1,9.52,4.93,42.87,42.87,0,0,1,9.45-4.65,37.34,37.34,0,0,1,12.5-1.87,40.27,40.27,0,0,1,10.35,1.31,23.56,23.56,0,0,1,8.69,4.31,22,22,0,0,1,6,7.78,26.88,26.88,0,0,1,2.29,11.61Z"/><path class="cls-1" d="M590,765.12a55,55,0,0,1,13.14,1.45,28.46,28.46,0,0,1,10.07,4.52,20.71,20.71,0,0,1,6.46,7.78A25.2,25.2,0,0,1,622,790v31.4a8.5,8.5,0,0,1-1.87,5.77,17.6,17.6,0,0,1-4.52,3.68,34.22,34.22,0,0,1-10.56,4,66,66,0,0,1-14.17,1.39q-14.31,0-22.79-5.49T559.57,814q0-9.59,5.69-14.6t17.51-6.24l18.48-2v-1.53a7,7,0,0,0-3.61-6.53q-3.61-2.08-10.42-2.09a43.84,43.84,0,0,0-10.36,1.25,63.7,63.7,0,0,0-9.1,2.93,8.93,8.93,0,0,1-2.85-3.41,10.7,10.7,0,0,1-1.18-4.93q0-6.12,6.39-8.76a44.12,44.12,0,0,1,9.38-2.29A74,74,0,0,1,590,765.12Zm.84,55.44a29.15,29.15,0,0,0,6-.63,14,14,0,0,0,4.52-1.59V805.55l-11.4,1a17.17,17.17,0,0,0-7.15,2,5.23,5.23,0,0,0-2.71,4.79,6.37,6.37,0,0,0,2.5,5.29Q585.14,820.56,590.83,820.56Z"/><path class="cls-1" d="M736.31,834.11a26.82,26.82,0,0,1-7.92,1,25.59,25.59,0,0,1-8.89-1.53q-4.17-1.53-7-6.94l-16.12-31.13c-1.57-3-3-5.93-4.37-8.9s-2.67-6.06-4-9.31l-1,.28q.71,8.34.83,15.91t.14,14.66V834c-.93.18-2.29.39-4.09.62a44.79,44.79,0,0,1-5.63.35q-6.25,0-8.76-2.15c-1.66-1.44-2.5-4-2.5-7.72V753.58a10.76,10.76,0,0,1,5.35-3.68,23.06,23.06,0,0,1,7.85-1.32,25.42,25.42,0,0,1,9,1.53q4.11,1.53,6.88,6.81l16.26,31.26c1.58,3,3,5.93,4.38,8.89s2.66,6.08,4,9.31l.56-.13q-.7-9.32-.77-17.65t-.07-16V749.55c.92-.18,2.29-.41,4.1-.69a37.63,37.63,0,0,1,5.77-.42q6.25,0,8.75,2.16t2.5,7.7v73.1A14.93,14.93,0,0,1,736.31,834.11Z"/><path class="cls-1" d="M818.71,749.83a16.52,16.52,0,0,1,1.53,3.62,16.28,16.28,0,0,1,.7,4.85c0,3.06-.68,5.34-2,6.82a7.2,7.2,0,0,1-5.62,2.22H782.44v18.2H814a28.76,28.76,0,0,1,1.6,3.62,14.33,14.33,0,0,1,.76,4.86c0,3.05-.69,5.31-2.08,6.74a7.37,7.37,0,0,1-5.56,2.15h-26v31a33.49,33.49,0,0,1-4.31.76,47.21,47.21,0,0,1-5.83.35q-6.54,0-9.1-2.22c-1.72-1.49-2.58-4.17-2.58-8.06V761.36a10.8,10.8,0,0,1,11.54-11.53Z"/><path class="cls-1" d="M875.27,767.34V833.9a34.37,34.37,0,0,1-4.32.76,47.21,47.21,0,0,1-5.83.35c-4.36,0-7.41-.74-9.17-2.22s-2.64-4.17-2.64-8.06V767.34H831.49a20,20,0,0,1-1.59-3.61,14.89,14.89,0,0,1-.77-4.87c0-3.15.69-5.44,2.09-6.87a7.54,7.54,0,0,1,5.69-2.16h60.73a13.3,13.3,0,0,1,1.66,3.62,16.28,16.28,0,0,1,.7,4.85c0,3.06-.7,5.34-2.08,6.82a7.44,7.44,0,0,1-5.7,2.22Z"/><rect class="cls-2" x="164.12" y="64.92" width="564.94" height="564.94" rx="125.74" transform="translate(-114.84 417.53) rotate(-45)"/><rect class="cls-3" x="164.12" y="64.92" width="564.94" height="564.94" rx="125.74" transform="translate(-114.84 417.53) rotate(-45)"/><path class="cls-4" d="M357.64,36.88,219.27,175.25a125.41,125.41,0,0,0,108.1-35.33L465.74,1.55A125.39,125.39,0,0,0,357.64,36.88Z"/><path class="cls-5" d="M136,436.33l25.34,25.34,25.34-25.34a125.75,125.75,0,0,0,0-177.83l0,0-25.34-25.33L136,258.48a125.75,125.75,0,0,0,0,177.83Z"/><path class="cls-6" d="M277.29,254.64a11.13,11.13,0,0,1-.82,9.16h0a11.19,11.19,0,0,1-15.31,4.06c-.29-.17-.58-.36-.86-.55l-28.19-20.37a7.61,7.61,0,0,1,7.61-13l31.69,14.22a11,11,0,0,1,6,6.79"/><path class="cls-6" d="M277.29,440.09a11.08,11.08,0,0,1-6.05,6.75l-31.69,14.27a7.61,7.61,0,0,1-7.57-13l28.15-20.33a11.15,11.15,0,0,1,15.56,2.56,6.68,6.68,0,0,1,.61.95,11.21,11.21,0,0,1,.95,8.95"/><path class="cls-7" d="M220.26,358.33,208.15,354a9.25,9.25,0,0,1,0-17.51l12.11-4.32a13.62,13.62,0,1,1,0,25.94"/><path class="cls-8" d="M316.73,412.46C288.54,468.33,248.5,496,207.94,508.24l149.7,149.7,2.63,2.51a321.8,321.8,0,0,0,49.38-94.7S399.88,247.8,316.73,412.46Z"/><path class="cls-9" d="M775.3,281.53,618.07,438.8a96.72,96.72,0,0,0,0,136.72L757.26,436.33A125.75,125.75,0,0,0,775.3,281.53Z"/><path class="cls-6" d="M650.29,254.64a11.11,11.11,0,0,1,6-6.79L688,233.53a7.61,7.61,0,0,1,7.61,13l-28.19,20.36a11.2,11.2,0,0,1-15.62-2.64c-.19-.28-.38-.56-.55-.86h0a11.17,11.17,0,0,1-1-9"/><path class="cls-6" d="M650.33,440.09a11.21,11.21,0,0,1,.95-8.95,7.3,7.3,0,0,1,.61-.95,11.15,11.15,0,0,1,15.56-2.55L695.6,448a7.61,7.61,0,0,1-7.56,13l-31.7-14.27a11.11,11.11,0,0,1-6.05-6.75"/><path class="cls-7" d="M707.36,358.33a13.62,13.62,0,1,1,0-25.95l12.11,4.33a9.25,9.25,0,0,1,0,17.51l-12.11,4.32"/><path class="cls-10" d="M532,163.66h-1.43a32.09,32.09,0,0,0-32.08-32.09h4.32a21.19,21.19,0,0,0-21.14-21.23h-61.1a21.23,21.23,0,0,0-21.23,21.23h-6.1a32.09,32.09,0,0,0-32.08,32.09h-4.89a32,32,0,0,0-32,32h0v55.17H324V381.29a43.73,43.73,0,0,0-.78,7.91C322.35,480,312.84,548,298.09,598.36l59.59,59.58a125.78,125.78,0,0,0,166.13,10.29c1.9-1.47,3.8-3,5.66-4.67l.44-.39c1.94-1.68,3.8-3.41,5.62-5.23L564,629.45V195.66a32,32,0,0,0-32-32Z"/><path class="cls-11" d="M626.2,349.07c0,24.65-27,43.76-58.24,41.51-48.78-3.5-76.06-11.54-86.48-22.35-9.6-9.82,0-26.46,0-26.46l2.85-95.52h61c44.67,0,81.64,42.07,81.64,77.18Z"/><path class="cls-12" d="M625.81,354.05a7,7,0,0,1-5.06-3.72l-4.8-23a10.76,10.76,0,0,0-2.89-5.32l-16.35-16.3a5.75,5.75,0,0,1,0-7.56,4.75,4.75,0,0,1,4.33-1.6l21.05,2.94s4.33,5.66,5.76,24.38A91.25,91.25,0,0,1,625.81,354.05Z"/><path class="cls-11" d="M475.9,98.8a11.69,11.69,0,0,0-3.63-2.51,14.09,14.09,0,0,0-17.3,4.76c-19.89,26.72-46.44,36-57.94,59.58C383.49,186,407.92,231.5,442,207.89c25.26-17.6,28.11-53.92,37.75-93.48l.39-1.73a13.77,13.77,0,0,0-4-13.88"/><circle class="cls-13" cx="551.7" cy="250.66" r="22.01"/><circle class="cls-14" cx="480.48" cy="293.98" r="47.78"/><ellipse class="cls-15" cx="514.64" cy="230.08" rx="47.69" ry="27.89"/></g></g></svg>