<svg fill="none" height="29" viewBox="0 0 141 29" width="141" xmlns="http://www.w3.org/2000/svg"><g fill="#fff"><path d="m9.47281 12.126 5.42039-5.42017 5.4233 5.42307 3.1539-3.15399-8.5772-8.577449-8.57435 8.574579z"/><path d="m7.24571 14.3526-3.15391-3.1539-3.154069 3.1541 3.153909 3.1539z"/><path d="m9.47256 16.5803 5.42044 5.4202 5.423-5.4229 3.1557 3.1522-.0015.0018-8.5772 8.5772-8.57463-8.5743-.00441-.0044z"/><path d="m25.6951 17.5083 3.154-3.1541-3.1539-3.1539-3.1541 3.1541z"/><path d="m18.0926 14.3514h.0013l-3.2005-3.2005-2.3652 2.3652h-.0002l-.2716.2718-.5606.5606-.0044.0044.0044.0046 3.1976 3.1976 3.2005-3.2004.0016-.0018z"/><path d="m33.7661 7.1604h6.8597c1.7026 0 2.99.43693 3.8625 1.31079.6753.67678 1.0128 1.51559 1.0128 2.51621v.0423c0 .4228-.0523.7965-.1574 1.1206-.105.3245-.2452.6166-.4204.8773-.1749.2611-.3781.4901-.6091.6872-.2313.1975-.4797.3668-.7458.5075.8558.3245 1.5295.7647 2.0206 1.3216.491.557.7368 1.3288.7368 2.3153v.0421c0 .6768-.1301 1.2687-.3905 1.7764-.2603.5073-.6333.9303-1.119 1.2687-.4856.3384-1.0696.5919-1.7521.7612-.6825.1691-1.4389.2535-2.2688.2535h-7.0293zm6.1739 5.9836c.7191 0 1.2901-.123 1.7127-.3699.4228-.2467.6342-.645.6342-1.1946v-.0423c0-.4932-.1834-.8701-.5498-1.1311-.3666-.2608-.8952-.3913-1.5857-.3913h-3.2139v3.1292zm.867 5.963c.7189 0 1.2824-.1301 1.6915-.3911.4088-.2608.6133-.6662.6133-1.216v-.0421c0-.4934-.1904-.8845-.5709-1.1737-.3807-.2885-.9938-.4332-1.8397-.4332h-3.7637v3.2563z"/><path d="m50.4111 7.1604h3.2565v14.8012h-3.2565z"/><path d="m58.5996 7.1604h3.0021l6.9355 9.1134v-9.1134h3.214v14.8012h-2.7698l-7.1681-9.4092v9.4092h-3.2137z"/><path d="m81.6095 7.05493h3.0023l6.3436 14.90677h-3.4044l-1.3533-3.3195h-6.2588l-1.3531 3.3195h-3.3202zm3.4253 8.71127-1.9666-4.7996-1.966 4.7996z"/><path d="m94.4707 7.1604h3.0027l6.9356 9.1134v-9.1134h3.213v14.8012h-2.769l-7.1684-9.4092v9.4092h-3.2139z"/><path d="m119.341 22.2152c-1.085 0-2.093-.1976-3.023-.592-.931-.3943-1.734-.9338-2.411-1.6176-.677-.6836-1.205-1.4907-1.586-2.421-.38-.9305-.571-1.9243-.571-2.9815v-.0422c0-1.0572.191-2.0473.571-2.9707.381-.9233.909-1.73386 1.586-2.43158.676-.69772 1.487-1.24774 2.431-1.64939.945-.40166 1.988-.60249 3.13-.60249.69 0 1.321.05665 1.892.16908.571.11309 1.089.26785 1.554.46515.466.19752.895.43715 1.291.71888.393.28218.76.59213 1.099.93052l-2.072 2.38923c-.579-.5214-1.167-.9305-1.766-1.2264-.599-.2958-1.272-.44395-2.019-.44395-.621 0-1.195.11995-1.723.35955-.529.2396-.984.5707-1.364.9936-.381.4228-.677.9128-.889 1.4695-.211.5571-.316 1.1525-.316 1.7867v.0421c0 .6343.105 1.2337.316 1.7971.212.5642.504 1.0573.878 1.4801s.825.7579 1.353 1.0046c.529.2469 1.111.3699 1.745.3699.846 0 1.561-.155 2.146-.4651.585-.3098 1.166-.7328 1.744-1.2687l2.073 2.0934c-.381.4089-.776.7755-1.185 1.0993-.408.3245-.856.6028-1.342.8355-.487.2324-1.019.409-1.597.5285-.578.1197-1.226.1799-1.945.1799z"/><path d="m129.242 7.1604h11.143v2.8969h-7.929v3.0025h6.977v2.8967h-6.977v3.1084h8.035v2.8967h-11.249z"/></g></svg>