<svg fill="none" height="25" viewBox="0 0 100 25" width="100" xmlns="http://www.w3.org/2000/svg"><g fill="#fff"><path d="m18.1204.255127v4.226733l-7.4643 7.35674h-10.6023891c.0487021-.2346.0566231-.4753.0930031-.7119.727888-4.74774 5.314666-7.90615 9.541176-9.40936 2.69061-.957336 5.57491-1.421507 8.43251-1.462213z"/><path d="m18.1204 20.0725v4.1684c-1.7706.0006-3.5562-.2011-5.2848-.5649-5.59102-1.1764-12.203334-4.6906-12.7818891-11.0185h10.6023891z"/><path d="m36.9496 11.8381h-10.5437l-7.464-7.38576v-4.153812c.0258-.041585.0584-.040414.1012-.045392.2755-.032214.7622.013764 1.0585.029578 4.392.232818 9.2716 1.615956 12.7265 4.389566 2.1954 1.76267 3.9988 4.26188 4.1215 7.16582z"/><path d="m36.9496 12.6575c-.0537 1.6279-.6889 3.1994-1.6066 4.5257-2.1913 3.1678-6.1095 5.1905-9.7665 6.1719-2.1502.5769-4.4063.8832-6.6346.8858v-4.1391l7.4933-7.4443z"/><path d="m45.5105 5.89109v-5.134036h1.6993c1.2003 0 1.7933.462786 1.7933 1.410056 0 .57848-.3543.99065-.9256 1.09188.7159.09401 1.1425.54233 1.1425 1.20759 0 .92557-.6002 1.42451-1.721 1.42451zm.4917-.47725h1.4968c.7882 0 1.2076-.33263 1.2076-.94726 0-.58572-.4483-.93281-1.2076-.93281h-1.4968zm0-2.35732h1.2076c.8243 0 1.2799-.31816 1.2799-.88941 0-.62187-.4266-.93281-1.2799-.93281h-1.2076z"/><path d="m49.7072 5.89109 1.8656-5.134036h.6508l1.8728 5.134036h-.5351l-.5496-1.54021h-2.2199l-.5495 1.54021zm1.2509-2.01746h1.8873l-.9472-2.67548z"/><path d="m54.8459.757054h.6942l2.7405 4.562786v-4.562786h.4917v5.134036h-.7158l-2.7189-4.5194v4.5194h-.4917z"/><path d="m60.022.757054h.4917v2.747796l2.5164-2.747796h.6219l-2.0392 2.227156 2.1838 2.90688h-.5929l-1.9163-2.54533-.7737.8388v1.70653h-.4917z"/><path d="m68.4648 6.00679c-1.4317 0-2.3067-1.02681-2.3067-2.67549 0-1.66314.875-2.689943 2.3067-2.689943 1.4318 0 2.3067 1.026803 2.3067 2.689943 0 1.64868-.8749 2.67549-2.3067 2.67549zm-1.7861-2.67549c0 1.35221.6725 2.19101 1.7861 2.19101s1.7861-.8388 1.7861-2.19101c0-1.36666-.6725-2.20546-1.7861-2.20546s-1.7861.8388-1.7861 2.20546z"/><path d="m71.6312.757054h3.16v.477246h-2.6683v1.89453h2.5381v.47002h-2.5381v2.29224h-.4917z"/><path d="m45.5105 9.79585h.4917v5.13405h-.4917z"/><path d="m47.3536 9.79585h.6941l2.7406 4.56275v-4.56275h.4917v5.13405h-.7158l-2.7189-4.5194v4.5194h-.4917z"/><path d="m55.9261 9.79585v.47725h-1.6487v4.6568h-.4917v-4.6568h-1.6487v-.47725z"/><path d="m56.7878 9.79585h3.16v.47725h-2.6683v1.8511h2.5815v.4701h-2.5815v1.8583h2.7261v.4773h-3.2178z"/><path d="m62.947 9.79585c1.0919 0 1.7499.57845 1.7499 1.53295 0 .6147-.4121 1.0775-.9183 1.2148.5134.0796.7665.3544.8099.875l.1374 1.5113h-.499l-.1229-1.4679c-.0434-.4845-.3905-.658-1.2004-.658h-1.3377v2.1259h-.4917v-5.13405zm-1.3811 2.53085h1.3811c.7882 0 1.2293-.3615 1.2293-1.0123 0-.6725-.4194-1.0413-1.2293-1.0413h-1.3811z"/><path d="m65.7631 9.79585h.6941l2.7406 4.56275v-4.56275h.4917v5.13405h-.7159l-2.7188-4.5194v4.5194h-.4917z"/><path d="m70.447 14.9299 1.8656-5.13405h.6508l1.8728 5.13405h-.5351l-.5496-1.5402h-2.2199l-.5495 1.5402zm1.2509-2.0175h1.8873l-.9472-2.6755z"/><path d="m78.3395 9.79585v.47725h-1.6487v4.6568h-.4917v-4.6568h-1.6487v-.47725z"/><path d="m79.2012 9.79585h.4917v5.13405h-.4917z"/><path d="m82.941 15.0456c-1.4317 0-2.3067-1.0268-2.3067-2.6755 0-1.6631.875-2.68995 2.3067-2.68995s2.3067 1.02685 2.3067 2.68995c0 1.6487-.875 2.6755-2.3067 2.6755zm-1.7861-2.6755c0 1.3522.6725 2.191 1.7861 2.191s1.7861-.8388 1.7861-2.191c0-1.3667-.6725-2.2055-1.7861-2.2055s-1.7861.8388-1.7861 2.2055z"/><path d="m86.2063 9.79585h.6941l2.7406 4.56275v-4.56275h.4917v5.13405h-.7159l-2.7188-4.5194v4.5194h-.4917z"/><path d="m90.8902 14.9299 1.8656-5.13405h.6508l1.8728 5.13405h-.5351l-.5495-1.5402h-2.22l-.5495 1.5402zm1.2509-2.0175h1.8873l-.9472-2.6755z"/><path d="m96.0289 14.9299v-5.13405h.4917v4.65675h2.6321v.4773z"/><path d="m45.7781 22.3128c.0867.7303.658 1.2582 1.5112 1.2582.7159 0 1.2293-.3327 1.2293-.8822 0-.5423-.47-.8894-1.5402-1.1642-.94-.2386-1.6053-.6508-1.6053-1.4173 0-.8533.6797-1.3884 1.6848-1.3884 1.0485 0 1.7861.687 1.8584 1.6126l-.5134.0361c-.0651-.6942-.6002-1.1642-1.3739-1.1642-.6725 0-1.1425.3471-1.1425.9039 0 .6002.6291.8099 1.4607 1.0485 1.0196.2892 1.6848.7448 1.6848 1.4896 0 .8822-.8243 1.4101-1.786 1.4101-1.0992 0-1.9235-.7015-1.9814-1.7066z"/><path d="m50.0652 18.8346h3.16v.4773h-2.6683v1.8511h2.5815v.4701h-2.5815v1.8583h2.7261v.4773h-3.2178z"/><path d="m57.6562 18.8346v.4773h-1.6487v4.6568h-.4917v-4.6568h-1.6487v-.4773z"/><path d="m61.9143 18.8346v.4773h-1.6487v4.6568h-.4917v-4.6568h-1.6487v-.4773z"/><path d="m62.776 23.9687v-5.1341h.4917v4.6568h2.6321v.4773z"/><path d="m66.9 18.8346h3.1599v.4773h-2.6682v1.8511h2.5815v.4701h-2.5815v1.8583h2.7261v.4773h-3.2178z"/><path d="m71.1863 18.8346h.7087l1.7571 4.599 1.7572-4.599h.7086v5.1341h-.4917v-4.2302l-1.6559 4.2302h-.6364l-1.6559-4.2302v4.2302h-.4917z"/><path d="m77.3723 18.8346h3.1599v.4773h-2.6682v1.8511h2.5814v.4701h-2.5814v1.8583h2.7261v.4773h-3.2178z"/><path d="m81.6021 18.8346h.6942l2.7406 4.5628v-4.5628h.4917v5.1341h-.7159l-2.7189-4.5194v4.5194h-.4917z"/><path d="m90.1746 18.8346v.4773h-1.6486v4.6568h-.4918v-4.6568h-1.6486v-.4773z"/><path d="m91.1627 22.3128c.0868.7303.658 1.2582 1.5113 1.2582.7158 0 1.2293-.3327 1.2293-.8822 0-.5423-.4701-.8894-1.5403-1.1642-.94-.2386-1.6052-.6508-1.6052-1.4173 0-.8533.6797-1.3884 1.6848-1.3884 1.0485 0 1.786.687 1.8584 1.6126l-.5134.0361c-.0651-.6942-.6002-1.1642-1.3739-1.1642-.6725 0-1.1425.3471-1.1425.9039 0 .6002.6291.8099 1.4606 1.0485 1.0196.2892 1.6849.7448 1.6849 1.4896 0 .8822-.8244 1.4101-1.7861 1.4101-1.0991 0-1.9235-.7015-1.9813-1.7066z"/></g></svg>