<svg fill="none" height="34" viewBox="0 0 134 34" width="134" xmlns="http://www.w3.org/2000/svg"><g fill="#fff"><path d="m5.5908 11.8696h1.75398v11.1617h-1.75398zm2.98974 0h1.75396v11.1617h-1.74399zm2.98976 0h1.754v11.1617h-1.7441zm2.9897 0h1.754v11.1617h-1.744zm8.9692 0h1.754v11.1617h-1.744zm-2.9897 0h1.754v11.1617h-1.7441zm-2.9898 0h1.754v11.1617h-1.744zm10.0456 17.5497c.3426-.7911.5546-1.6325.6278-2.4914 0-.6877 0-.9069-.7973-1.166 0 0-.0897 0-.0897-.1694-.0013-.0184.001-.0368.0068-.0542.0057-.0175.0149-.0336.027-.0475.012-.0139.0267-.0253.0431-.0335.0165-.0082.0344-.0131.0527-.0143 0-.0997 0-.2791-.5581-.2791s-.5481.1794-.5581.2791c.0184.0012.0363.0061.0527.0143.0165.0082.0311.0196.0432.0335.012.0139.0212.03.027.0475.0058.0174.008.0358.0067.0542 0 .1395-.0897.1694-.0897.1694-.8471.2591-.8272.4684-.7973 1.166.0794.8547.2913 1.6918.6279 2.4814h-3.9066v1.4052h-5.2221v-5.3616h-3.2887v5.4114h-5.22206v-1.4051h-3.98631c.3377-.7893.54955-1.6266.62784-2.4815 0-.6876.04983-.9069-.79726-1.166 0 0-.08969 0-.08969-.1694-.00136-.0183.00092-.0368.0067-.0542.00579-.0175.01496-.0336.027-.0475s.02671-.0253.04315-.0335c.01645-.0082.03436-.013.0527-.0143 0 0 0-.279-.55808-.279-.55809 0-.55809.1793-.55809.279.01834.0013.03625.0061.0527.0143s.03111.0196.04315.0335.02122.03.027.0475c.00579.0174.00806.0359.00671.0542 0 .1395-.08969.1694-.08969.1694-.8471.2591-.83713.4684-.79727 1.166.07427.8556.28628 1.6935.62785 2.4815h-3.21895v3.2388h30.8939v-3.2388h-3.2986zm-7.5541-22.82158-4.5942-1.64435-4.5943 1.64435v.58798h9.1885zm-20.0412-5.790103v22.313283h1.58456l.91685-.9467v-11.0221h1.09624v-3.92654h5.63067v-1.62441l5.08258-1.91343v-.68764h2.2522v.67768l5.0826 1.91342v1.63438h5.6307v3.92654h1.1062v11.0221l.9168.9467h1.5945v-22.313283z"/><path d="m37.9795 32.1103h-1.6543v-6.8564h1.6543c1.5248 0 2.2224.6976 2.2224 1.7739.003.3081-.0919.6093-.271.86s-.4331.4381-.7256.5352c.3695.0873.6975.2997.9282.6012.2307.3016.3499.6737.3375 1.0531 0 1.3952-.9966 1.9932-2.5413 1.9932m0-6.0293h-.7574v2.0928h.6976c.8869 0 1.3952-.3787 1.3952-1.0763s-.3986-.9866-1.2856-.9866zm0 2.7904h-.7574v2.4117h.7574c.9966 0 1.5248-.3787 1.5248-1.2058 0-.8272-.4585-1.166-1.475-1.166z"/><path d="m46.6699 32.17-.8272-2.0928h-2.7904l-.7574 1.9931h-.9966l2.6609-6.8564h.9966l2.6011 6.7269-.887.1893m-2.2224-5.8001-1.0763 2.8602h2.1626z"/><path d="m53.4664 32.1103-3.7472-5.3416v5.3416h-.8271v-6.8564h.8271l3.6176 5.1423v-5.1423h.8272v6.8564z"/><path d="m59.7946 31.9808 1.9931.6976-.1893.9966-3.797-1.5646c-.6971-.2384-1.2955-.7014-1.7013-1.3164-.4058-.6149-.5961-1.3472-.541-2.0819 0-2.0928 1.2657-3.5578 3.1691-3.5578 1.9035 0 3.1094 1.455 3.1094 3.5578.0662.6936-.0981 1.3898-.4674 1.9807s-.9231 1.0436-1.5756 1.288zm-.9966-5.9794c-1.3354 0-2.1626.9966-2.1626 2.6608 0 1.6643.8272 2.7307 2.1626 2.7307s2.0928-1.0664 2.0928-2.6808c0-1.6145-.8271-2.7007-2.1626-2.7007z"/><path d="m65.9033 32.2299c-.361.0213-.7224-.0353-1.0596-.1659-.3372-.1307-.6423-.3324-.8947-.5914s-.4461-.5693-.568-.9098c-.1219-.3404-.1692-.7032-.1385-1.0635v-4.2454h.9965v4.1258c0 1.2059.5083 1.9932 1.7142 1.9932 1.2058 0 1.7141-.6976 1.7141-1.9932v-4.1856h.9966v4.1856c.0455.3695.0097.7444-.1051 1.0985-.1147.3542-.3056.6789-.5591.9514-.2536.2726-.5637.4863-.9086.6263s-.7163.2028-1.0881.184"/><path d="m70.478 32.1103v-6.8564h3.6774v.887h-2.7904v1.9632h2.1526l.1295.8272h-2.2821v2.2821h2.8502v.8969z"/><path d="m80.374 32.1103h-1.9931v-6.8564h1.9931c2.3519 0 3.6176 1.3952 3.6176 3.4282s-1.2756 3.4282-3.6176 3.4282zm.0598-6.0292h-1.0763v5.1423h1.0763c.3555.0476.7171.0136 1.0574-.0994.3404-.113.6505-.302.907-.5526.2564-.2507.4524-.5565.5731-.8942s.1629-.6984.1234-1.0549c.0188-.3494-.038-.6989-.1667-1.0243-.1286-.3255-.3259-.6194-.5786-.8616-.2526-.2422-.5545-.4271-.8851-.5419s-.6821-.1569-1.0305-.1234z"/><path d="m87.6992 32.2299c-.361.0213-.7224-.0353-1.0596-.1659-.3372-.1307-.6423-.3324-.8947-.5914s-.4461-.5693-.568-.9098c-.1219-.3404-.1692-.7032-.1385-1.0635v-4.2454h.9965v4.1258c0 1.2059.5083 1.9932 1.7142 1.9932 1.2058 0 1.7141-.6976 1.7141-1.9932v-4.1856h.9965v4.1856c.0461.3776.0072.7607-.1139 1.1213-.121.3606-.3212.6896-.5859.9628-.2646.2733-.587.4839-.9436.6164-.3565.1326-.7382.1837-1.1171.1497z"/><path d="m97.256 32.2298c-1.9034 0-3.1691-1.3952-3.1691-3.5578 0-2.1625 1.2657-3.5578 3.1691-3.5578.7084-.0311 1.4077.1682 1.9932.5681l-.1296.9966c-.5236-.417-1.1743-.6421-1.8436-.6378-1.3952 0-2.2224.9965-2.2224 2.6608s.8272 2.6609 2.2224 2.6609c.6939-.0171 1.3628-.2623 1.9034-.6976l.1296.8869c-.5682.448-1.2696.6935-1.9932.6976"/><path d="m105.378 32.17-.827-2.0928h-2.79l-.758 1.9931h-.996l2.661-6.8564h.996l2.661 6.7269-.996.1893m-2.223-5.8399-1.076 2.8601h2.222z"/><path d="m112.235 32.1103-3.747-5.3416v5.3416h-.887v-6.8564h.827l3.617 5.1423v-5.1423h.887v6.8564z"/><path d="m119.53 32.17-.827-2.0928h-2.791l-.757 1.9931h-.997l2.661-6.8564h.997l2.601 6.7269-.887.1893m-2.223-5.8399-1.076 2.8601h2.163z"/><path d="m123.725 32.1103h-1.993v-6.8564h1.993c2.352 0 3.618 1.3952 3.618 3.4282s-1.266 3.4282-3.618 3.4282zm.06-6.0292h-1.076v5.1423h1.076c.353.0477.712.0133 1.049-.1005.337-.1139.644-.3041.896-.5558.251-.2518.442-.5583.555-.8956.114-.3373.149-.6964.101-1.0492.026-.346-.023-.6936-.146-1.0185-.122-.3248-.313-.619-.561-.862-.248-.2431-.546-.429-.873-.5448-.327-.1159-.676-.1588-1.021-.1259z"/><path d="m133.053 32.17-.827-2.0928h-2.79l-.758 1.9931h-.996l2.661-6.8564h.996l2.661 6.7269-.997.1893m-2.222-5.8399-1.076 2.8601h2.162z"/><path d="m37.9795 21.7359h-1.6543v-6.8963h1.6543c1.5248 0 2.2224.6976 2.2224 1.7739.003.3081-.0919.6093-.271.86s-.4331.4381-.7256.5352c.3695.0872.6975.2997.9282.6012.2307.3016.3499.6737.3375 1.0531 0 1.3952-.9966 1.9932-2.5413 1.9932m0-6.0293h-.7574v2.1227h.6976c.8869 0 1.3952-.3787 1.3952-1.0763s-.3986-1.0065-1.2856-1.0065zm0 2.7904h-.7574v2.4117h.7574c.9966 0 1.5248-.3787 1.5248-1.2058 0-.8272-.4585-1.166-1.475-1.166z"/><path d="m46.6699 21.7358-.8272-2.1326h-2.7904l-.7574 2.1326h-.9966l2.6609-6.8564h.9966l2.6011 6.7269-.887.1893m-2.2224-5.8698-1.0763 2.8203h2.1626z"/><path d="m53.4664 21.696-3.7472-5.3316v5.3316h-.8271v-6.8564h.8271l3.6176 5.1423v-5.1423h.8272v6.8564z"/><path d="m60.253 21.7558-3.2389-3.5478v3.488h-.9467v-6.8564h.9467v3.0495l2.92-3.0495h1.0863l-2.9898 3.1791 3.1791 3.488z"/><path d="m67.2392 21.8255c-1.9035 0-3.1093-1.3952-3.1093-3.5578s1.2058-3.5079 3.1691-3.5079 3.1093 1.3952 3.1093 3.5577c0 2.1626-1.2058 3.5578-3.1691 3.5578m0-6.2784c-1.3354 0-2.1626 1.0763-2.1626 2.6608 0 1.5846.8272 2.6609 2.1626 2.6609s2.1626-1.0763 2.1626-2.6609c0-1.5845-.7674-2.7206-2.1626-2.7206z"/><path d="m72.9494 15.6668v2.0928h2.033l.1894.8869h-2.2224v3.0495h-.9567v-6.8564h3.5578v.8272z"/><path d="m82.0182 21.8257c-1.9034 0-3.1691-1.3952-3.1691-3.5578 0-2.1625 1.2657-3.5079 3.1691-3.5079.7084-.0311 1.4077.1682 1.9932.568l-.1296.9966c-.5236-.4169-1.1743-.642-1.8436-.6378-1.3952 0-2.2224 1.0763-2.2224 2.6609 0 1.5845.8272 2.6608 2.2224 2.6608.6939-.0171 1.3628-.2622 1.9034-.6976l.1296.887c-.5782.4294-1.2734.6727-1.9932.6976"/><path d="m90.1503 21.7358-.8272-2.0928h-2.7904l-.8271 2.0928h-.9966l2.6608-6.8564h.9966l2.6011 6.7269-.8272.1893m-2.2223-5.8399-1.0763 2.7904h2.1625z"/><path d="m96.9368 21.696-3.7471-5.3316v5.3316h-.887v-6.8564h.8272l3.6774 5.1423v-5.1423h.8271v6.8564z"/><path d="m104.302 21.7359-.827-2.0928h-2.821l-.757 1.9931h-.9966l2.7506-6.7966h.997l2.601 6.7269-.887.1893m-2.223-5.8399-1.136 2.8303h2.163z"/><path d="m108.428 21.7359h-1.993v-6.8963h1.993c2.352 0 3.617 1.3952 3.617 3.4282s-1.275 3.4681-3.617 3.4681zm.06-6.0293h-1.077v5.1424h1.077c.352.0477.711.0133 1.049-.1006.337-.1138.644-.304.895-.5558.252-.2517.442-.5582.556-.8955s.148-.6964.101-1.0492c.036-.3497-.006-.703-.124-1.0341-.119-.3311-.309-.6316-.559-.8792s-.551-.4361-.883-.5517-.686-.1553-1.035-.1161z"/><path d="m117.756 21.7358-.827-2.1626h-2.791l-.757 1.9932h-.997l2.701-6.8066h.997l2.66 6.7269-.996.2491m-2.222-5.8399-1.067 2.8502h2.223z"/></g></svg>