<svg fill="none" height="21" viewBox="0 0 158 21" width="158" xmlns="http://www.w3.org/2000/svg"><g fill="#fff"><path d="m11.0848 11.4526c0 2.5785-2.08551 4.3666-4.69531 4.3666h-6.38949v-15.064073h5.94344c2.53937 0 4.58186 1.721603 4.58186 4.241413.0132.57796-.1082 1.15108-.3547 1.674-.24652.52292-.61137.98128-1.06567 1.33881.61437.33679 1.12417.83626 1.47337 1.44363.3492.60742.5245 1.29922.5065 1.99962zm-8.11112-7.91943v3.3141h2.96976c.21633.00228.43087-.03942.63058-.12259.19972-.08317.38045-.20606.53121-.36122.15077-.15515.26842-.33933.34582-.54136.0774-.20202.11293-.41766.10444-.63384.0126-.21698-.02012-.43422-.0961-.63786s-.19354-.38923-.34519-.54493c-.15166-.15571-.33408-.27811-.53565-.35943-.20157-.08131-.41786-.11975-.63511-.11287zm3.41973 9.51183c.23422.0051.467-.038.68387-.1266.21687-.0887.41321-.2209.57684-.3886.16364-.1676.29107-.3672.37439-.5861.08332-.219.12075-.4527.10997-.6868.00864-.2324-.03045-.4641-.11483-.6808-.08439-.2167-.2123-.4138-.37582-.57915-.16352-.16536-.3592-.29545-.57495-.38225s-.447-.12846-.67947-.12242h-3.41973v3.55272z"/><path d="m23.6092 5.70494v10.11446h-2.7741v-1.2286c-.6026.8608-1.5925 1.5299-3.2515 1.5299-2.4963 0-5.0865-1.7647-5.0865-5.5718 0-3.68187 2.4963-5.79084 6.499-5.79084 1.8586 0 3.7328.45387 4.6131.94688zm-2.7741 6.60866v-4.73446c-.6132-.1529-1.2423-.23301-1.8742-.23867-2.2576 0-3.7014 1.14252-3.7014 3.20843 0 2.0659 1.4203 3.0324 2.9697 3.0324.5034.0079 1.0015-.1027 1.4542-.3229s.8473-.5439 1.1517-.9448z"/><path d="m36.2007 9.21467v6.60473h-2.778v-6.26041c0-1.46336-.8804-2.21852-2.1285-2.21852-1.3578 0-2.3477.78254-2.3477 2.66853v5.8104h-2.7937v-10.76006h2.7742v1.20512c.6456-.96644 1.7646-1.5064 3.2045-1.5064 2.3007 0 4.0692 1.59248 4.0692 4.45661z"/><path d="m38.5679 15.8193v-15.279279l2.7741-.430402v9.684041l3.7014-4.73442h3.3141l-4.304 5.31746 4.4527 5.4426h-3.228l-3.9127-4.8831v4.8831z"/><path d="m52.9432 10.4391c-.0023-1.12693.3299-2.22924.9545-3.16725.6247-.93801 1.5137-1.66952 2.5545-2.10187 1.0407-.43235 2.1863-.54608 3.2918-.32678 1.1054.21929 2.1209.76174 2.9178 1.55863s1.3393 1.81237 1.5586 2.91781c.2193 1.10546.1056 2.25106-.3268 3.29186-.4323 1.0407-1.1638 1.9297-2.1018 2.5544-.9381.6247-2.0404.9569-3.1673.9545-.7483.0079-1.4906-.1337-2.1834-.4164-.6929-.2828-1.3223-.7009-1.8514-1.2301-.5291-.5291-.9473-1.1585-1.2301-1.8514-.2827-.6928-.4243-1.4351-.4164-2.1834zm8.608 0c.0144-.392-.0505-.78292-.1906-1.14936-.1401-.36643-.3527-.70086-.6249-.9833-.2723-.28243-.5987-.50708-.9598-.66053-.3611-.15344-.7493-.23252-1.1416-.23252-.3924 0-.7806.07908-1.1417.23252-.3611.15345-.6875.3781-.9598.66053-.2722.28244-.4848.61687-.6249.9833-.1401.36644-.205.75736-.1906 1.14936-.0144.3921.0505.783.1906 1.1494.1401.3665.3527.7009.6249.9833.2723.2825.5987.5071.9598.6606.3611.1534.7493.2325 1.1417.2325.3923 0 .7805-.0791 1.1416-.2325.3611-.1535.6875-.3781.9598-.6606.2722-.2824.4848-.6168.6249-.9833.1401-.3664.205-.7573.1906-1.1494z"/><path d="m66.673 15.8193v-8.0915h-1.5651v-2.66849h1.5651v-.81776c0-2.6411 1.4086-4.1748996 4.4097-4.1748996.2817 0 .5595.0234764.8608.0430406v2.691969c-.2583-.02739-.493-.02739-.7082-.02739-1.1426 0-1.7882.39127-1.7882 1.48293v.81776h2.4964v2.66849h-2.4964v8.07585z"/><path d="m88.0364 12.9785v2.8407h-9.3123v-15.064073h9.2106v2.840653h-6.2604v3.20845h5.7009v2.79761h-5.6813v3.37666z"/><path d="m100.048 9.21467v6.60473h-2.7737v-6.26041c0-1.46336-.8843-2.21852-2.1325-2.21852-1.3538 0-2.3476.78254-2.3476 2.66853v5.8104h-2.8015v-10.76006h2.7741v1.20512c.6456-.96644 1.7646-1.5064 3.2084-1.5064 2.289 0 4.0728 1.59248 4.0728 4.45661z"/><path d="m112.898 5.70494v9.89926c0 3.228-2.023 5.0357-5.318 5.0357-2.042 0-3.912-.7826-5.012-2.152l2.258-1.4204c.342.3724.763.664 1.232.8535s.974.2722 1.479.2421c1.636 0 2.649-.7825 2.649-2.5589v-1.2717c-.602.8608-1.592 1.5299-3.251 1.5299-2.497 0-5.087-1.7646-5.087-5.4426 0-3.59582 2.496-5.66174 6.499-5.66174 1.839 0 3.69.45387 4.551.94688zm-2.712 6.34646v-4.47226c-.613-.1529-1.242-.23301-1.874-.23867-2.258 0-3.701 1.09948-3.701 3.07933 0 1.9133 1.424 2.9189 2.989 2.9189.502.0032.997-.1116 1.447-.3352.449-.2237.839-.5498 1.139-.9521z"/><path d="m115.265 12.2039v-11.663879l2.774-.430402v12.094281c0 .9469.54 1.1386 1.565 1.1386.296.0061.591-.0082.885-.043v2.5393c-.479.0587-.962.0874-1.444.0861-2.79 0-3.78-1.1816-3.78-3.721z"/><path d="m132.501 5.70494v10.11446h-2.774v-1.2286c-.603.8608-1.593 1.5299-3.252 1.5299-2.496 0-5.086-1.7647-5.086-5.5718 0-3.68187 2.496-5.79084 6.499-5.79084 1.858 0 3.732.45387 4.613.94688zm-2.774 6.60866v-4.73446c-.613-.1529-1.243-.23301-1.874-.23867-2.258 0-3.702 1.14252-3.702 3.20843 0 2.0659 1.42 3.0324 2.97 3.0324.503.0079 1.001-.1027 1.454-.3229s.847-.5439 1.152-.9448z"/><path d="m145.088 9.21467v6.60473h-2.774v-6.26041c0-1.46336-.881-2.21852-2.129-2.21852-1.357 0-2.347.78254-2.347 2.66853v5.8104h-2.778v-10.76006h2.778v1.20512c.645-.96644 1.764-1.5064 3.204-1.5064 2.262 0 4.046 1.59248 4.046 4.45661z"/><path d="m155.226.540021 2.774-.430402v15.709681h-2.774v-1.2286c-.603.8608-1.593 1.5299-3.248 1.5299-2.496 0-5.086-1.7647-5.086-5.5718 0-3.68188 2.496-5.79084 6.499-5.79084.619-.00066 1.237.04248 1.85.12912zm0 11.773479v-4.73446c-.612-.15313-1.24-.23325-1.871-.23867-2.261 0-3.701 1.14252-3.701 3.20843 0 2.0659 1.42 3.0324 2.97 3.0324.503.0079 1-.1027 1.452-.3229.452-.2203.846-.544 1.15-.9448z"/></g></svg>