<svg fill="none" height="49" viewBox="0 0 65 49" width="65" xmlns="http://www.w3.org/2000/svg"><g fill="#fff"><path d="m.717773 26.0401v-25.535705h30.717527l.1243.124362v25.287043l-.1243.1243zm6.646747-21.32148-.80089-1.4766-.72627 1.46914-1.63661.27028c-.17162.1484 1.11594 1.00567 1.14496 1.21958l-.23297 1.68055 1.53297-.79924 1.5338.71716-.31173-1.60676c.03233-.16582 1.28673-1.16818 1.14081-1.2942zm12.42128-1.47825c-.1931-.04229-.1326.02653-.184.10612-.2604.40293-.3648.94681-.6484 1.33979l-1.6532.29516c-.0315.13845.0448.1683.1252.24706.3333.32335.7719.61435 1.072.99241l-.286 1.66149 1.5338-.79924 1.533.71716-.2322-1.68221 1.1442-1.21875-1.7287-.17991-.6773-1.47908zm-6.5497 4.72576c-.1393-.02901-.1683.03648-.2363.13514-.1285.18655-.5074 1.27596-.6077 1.34063l-1.6424.26531 1.1458 1.21959-.233 1.6814 1.5479-.8134 1.5189.7305-.2977-1.6201c.0813-.1998 1.2511-1.14245 1.1276-1.2809l-1.5761-.20727-.7462-1.45173zm13.1824 0c-.194-.04311-.1327.02819-.1841.10695-.1815.27692-.4377 1.19886-.6467 1.34063l-1.6548.29432 1.2237 1.21047-.228 1.6905 1.4642-.81 1.6026.7263-.3184-1.6798 1.1475-1.22037-1.6598-.20645-.7462-1.45172zm-20.22961 5.14027c-.19318-.0422-.13266.0266-.18406.1062-.16665.2578-.51237 1.237-.64668 1.3406l-1.65485.2943 1.14413 1.2188-.1484 1.6822 1.44923-.8001 1.5338.7172-.23297-1.6814 1.14579-1.2196-1.65816-.2081zm13.59691 0c-.1931-.0422-.1326.0266-.184.1062-.1667.2578-.5124 1.237-.6467 1.3406l-1.6549.2943c-.0522.194.0506.1401.1062.189.3789.3367.7412.684 1.0919 1.0497l-.2861 1.6614 1.533-.7992 1.5338.7172-.233-1.6814 1.1458-1.2196-1.659-.2073-.747-1.4517zm-4.9736 6.7993-1.6565-.2089-.8291-1.4492-.6973 1.5006-1.6241.2413c-.17333.1467 1.0968 1.0513 1.1433 1.2196l-.2314 1.6813 1.5338-.7395 1.533.7404-.3109-1.6905c.0323-.165 1.2876-1.169 1.1408-1.2942zm13.514 0-1.6565-.2089-.8291-1.4492-.6972 1.5006-1.6242.2413c-.1741.1467 1.0944 1.0479 1.145 1.2204l-.233 1.6805 1.5338-.7395 1.533.7404-.3126-1.6897c.0323-.1642 1.2884-1.1698 1.1416-1.295z"/><path d="m16.8792 41.47c.1144.1667-.8937 1.1259-1.0703 1.2776-3.769 3.2194-10.75239 2.7087-13.74952-1.3414-2.546938-3.4415-2.1382012-8.6208 1.10268-11.4712 3.70019-3.2533 10.69514-3.0717 13.71714 1.0272l-3.4349 3.1191c-1.188-1.6607-3.3942-2.4417-5.32101-1.5886-2.93412 1.2992-2.87609 6.4876.19898 7.6234 2.00883.7421 3.82783-.0713 5.12123-1.6357l3.4341 2.9896z"/><path d="m61.1595 34.0822c-1.9707-3.0618-6.9154-2.4251-7.3573 1.4741-.5413 4.7722 4.5575 6.5149 7.354 2.959h.17l3.3959 3.0709c-1.4924 1.9185-3.7044 2.9267-6.0929 3.1911-5.8484.6484-10.861-3.1878-10.4034-9.3255.6053-8.1109 11.7722-10.3793 16.4897-4.4778l-3.5551 3.1082z"/><path d="m24.0149 32.2581v2.6945l.1244.1244h6.757v4.1454h-6.8814v5.2232h-5.4719v-16.4158h13.2238l.1244.1243v3.9796l-.1244.1244z"/><path d="m47.6438 28.0298v4.3112h-4.8087v12.1046h-5.4719v-12.1046h-4.8087v-4.1039c0-.0291-.1468-.0921.0414-.2073z"/><path d="m64.5572 4.56689h-3.9796v21.39031h3.9796z"/><path d="m50.9602 25.9571h-3.8967v-17.65949h3.7723l.1244.12436z"/><path d="m53.8618 25.9571v-14.1773h3.8552l.1244.1243v13.9286l-.1244.1244z"/><path d="m44.2448 13.521h-3.8967v12.4362h3.8967z"/><path d="m37.7779 19.4902c.0415.0299-.0829.107-.0829.1244v6.3425h-3.8967v-6.4669z"/><path d="m62.1528.67086-6.1767 9.61484-6.9618-6.79679-5.8832 8.21369-3.0278.1227-4.8899 3.9c-.4187.01-.2404-.1898-.0448-.378 1.4086-1.3572 3.3785-2.5221 4.851-3.8544l2.964-.063 5.9055-8.43761 7.1276 6.79764 5.8567-9.19203z"/><path d="m8.34521 46.7671c.15587-.0348.16085.0523.23463.1385.10779.1244.68234 1.2403.75861 1.1881l.6583-1.2752.25535-.0514v1.824h-.1658v-1.4094c-.21806-.044-.12935.0448-.17412.1194-.08623.1434-.53807 1.038-.61352 1.0396l-.78763-1.159v1.4094h-.16582z"/><path d="m50.3799 46.767c.1683-.194.8539 1.1798.9128 1.3266.1476.0994.6517-1.4037.9941-1.3266v1.824h-.1658v-1.4094l-.7877 1.159-.7876-1.159v1.4094h-.1658z"/><path d="m52.867 46.7672c.0979.0091.1783-.0456.2546.0522.2222.2835.5007.9253.6583 1.2743.1011.0763.6781-1.0836.7594-1.1872.0721-.0929.0821-.1717.2346-.1385v1.824h-.1658v-1.2851c0-.034.2139-.1451-.0406-.1235l-.6177 1.1084-.1699.0515c-.17-.3325-.3632-.7429-.5622-1.053-.053-.0829.0092-.1467-.1857-.1069v1.4094c-.0539.0066-.1658-.1103-.1658-.1244v-1.6996z"/><path d="m5.85792 46.8914c-.00331-.0232-.12519-.0937-.0829-.1235.07627.0058.16333-.0241.23463.0166.07876.0456.70637 1.4102.84234 1.3091.03483-.1915.61021-1.2702.67819-1.3091.06799-.039.15836-.0108.23463-.0166.04146.029-.0829.1061-.0829.1235v1.6996l-.16914-.2868-.03731-1.1226-.66492 1.1615c-.16582.0382-.11441-.0729-.17245-.1567-.18406-.2661-.31256-.5687-.49247-.8398-.06301-.0954.02072-.2148-.20479-.1642.09369.3681.22551 1.1342-.08291 1.4086-.05223-.5331.07048-1.1831 0-1.6996z"/><path d="m41.4258 46.767c.1476-.0216.1816-.005.2868.0862.2828.2446.6426.8913.9336 1.2171.0489.0556-.0066.1584.1899.1061v-1.285c0-.0175-.1244-.0946-.083-.1236h.2488v1.6988l-.1658.0837-1.2437-1.4517v1.4924h-.1658v-1.824z"/><path d="m17.4237 46.7671.7039.9949c.0266-.1402.6169-1.2163.7462-1.0779-.2288.6617-.9004 1.1409-.7462 1.9061-.2951.0489-.1243-.4875-.2031-.7495-.0157-.0539-.5082-.9476-.5563-.9775-.092-.058-.7304-.0572-.8158.1111v1.6167h-.1658v-1.741h-.6625v-.0829z"/><path d="m48.2523 48.3141c-.9111-.9319.6873-2.2684 1.4659-1.2586.7785 1.0098-.6749 2.0686-1.4659 1.2586zm.1642-.0813c.7686.7014 1.8522-.5049 1.0571-1.1806-.8192-.6956-1.7287.5671-1.0571 1.1806z"/><path d="m63.8109 48.1766v-1.4095h.1658v1.824c-.165.0415-.16-.0688-.2329-.1401-.4022-.3921-.6733-.97-1.0936-1.3522v1.4923h-.1658v-1.824c.1343-.029.1691.0456.2512.1219.3739.3466.65.9667 1.0753 1.2876z"/><path d="m13.0713 46.7671c.6832-.0622 1.746-.0672 1.7419.8705-.0042.9377-1.0322 1.0181-1.7419.9534zm.1658 1.6581c.4311.0075 1.004.0738 1.2619-.354.4908-.8158-.5597-1.5214-1.2619-1.0969z"/><path d="m10.9439 48.3141c-.96426-.965.7088-2.2302 1.4658-1.2585.7279.9352-.6218 2.1026-1.4658 1.2585zm.616-1.4492c-.854.1045-.9593 1.3738-.0846 1.5421 1.2287.2371 1.2395-1.6839.0846-1.5421z"/><path d="m4.33658 46.714c1.32736-.0639 1.3912 1.8463.06715 1.8812-1.2287.0323-1.29254-1.8224-.06715-1.8812zm.00829.1534c-1.05874.0837-.93438 1.7253.22219 1.5545.94018-.1385.76773-1.6333-.22219-1.5545z"/><path d="m60.357 46.961c.8175-.7984 2.1838.3416 1.4659 1.2585-.8316 1.0612-2.4317-.3142-1.4659-1.2585zm.6169-.0962c-.9344.0995-.9394 1.4036-.0846 1.5421 1.2378.2015 1.2171-1.6623.0846-1.5421z"/><path d="m38.4409 46.7672c.7479-.0166 1.7146-.1493 1.7486.8697.0298.9153-1.0978 1.1491-1.7486.8299zm.1658.2072v1.3266c.3507.2868 1.1699.1202 1.3465-.3118.4584-1.125-1.2403-1.3564-1.3465-1.0148z"/><path d="m27.1655 46.767c.5845.034 1.4542-.2205 1.4178.6235-.0183.4253-.3068.4501-.3317.5903-.0282.1591.3574.4037.3234.6102-.1435.1484-.4154-.4884-.4975-.5381-.1774-.107-.5314-.0141-.7462-.0423-.0737.0738.1625.6732-.1649.5812v-1.824zm.1658 1.0778c1.402.252 1.509-1.2055.078-.9593z"/><path d="m34.7103 46.767c.9767-.2122 2.0147.3657.9966 1.2014l.412.6218c-.3009.034-.4087-.4552-.5795-.5389-.1874-.092-.4577-.024-.6641-.0415-.0398.0415.0995.5365-.1658.5812v-1.824zm.1658 1.0779c1.4675.213 1.378-1.1367 0-.9958z"/><path d="m37.359 46.7695.7503 1.8207c-.1609.1923-.2968-.4535-.3449-.4834h-1.0098c-.2106.0688-.1692.5182-.4685.4834l.7562-1.6888.3175-.1319zm-.0796.2463c-.2156-.039-.1277.0306-.1716.1177-.0481.0953-.3557.7652-.3242.7934h.9111l-.4162-.9111z"/><path d="m44.9089 47.6799c.1882-.2537.2147.4825.1252.6641-.267.5414-1.9426.2106-1.5628-.9833.2122-.6674 1.0935-.844 1.6009-.3864l-.6956-.1193c-.2985.0132-.7196.339-.781.6359-.1998.97 1.5637 1.4392 1.3125.1882z"/><path d="m58.9195 47.0149c-.2744-.1658-.9783-.2653-1.0628.1368-.1111.5273 1.1482.3043 1.1516.8979.0041.6956-.8888.5771-1.3324.3739-.0638-.3349.3598-.0215.548-.0024.2115.0215.5912-.0208.6177-.2886.0539-.5322-1.1624-.2653-1.1599-.9103.0025-.7901 1.5172-.4568 1.237-.2073z"/><path d="m21.5278 46.7672c.102-.1352.1501.0016.1658.1227.0655.5082-.2014 1.6258.6973 1.5346.1194-.0124.4635-.2064.4635-.2902v-1.368h.1658v1.368c0 .5845-1.4924.6243-1.4924-.1658v-1.2022z"/><path d="m57.3444 46.8507c-.1443.2885-.4203-.0547-.7669.0141-.3051.0605-.4452.3474-.1907.5704.2131.1866.626.0995.8763.3665.5099.5422-.4924 1.0562-1.1209.6234-.0323-.0224-.189-.1484-.0829-.1658.2993.141 1.1168.325 1.1947-.136.0697-.4095-1.1333-.3117-1.159-.8978-.0274-.631.8465-.539 1.2486-.3748z"/><path d="m31.9743 46.8507c-.0937.2861-.3391.0174-.5489.0017-.4518-.0332-.737.3656-.3582.6152.2819.1865 1.3465.2064.8631.8722-.4228.582-1.4127.0223-1.2817-.0796.291.1011 1.2403.3598 1.2278-.1385-.0124-.4983-1.1557-.2918-1.1532-.8987.0025-.5853.8705-.5588 1.2519-.3723z"/><path d="m25.2586 46.7671v1.2851c0 .3217.7246.509.9742.2686.0141-.0141.1865-.3316.1865-.3515v-1.2022h.1658v1.2851c0 .2064-.4709.5364-.7064.5447-.2943.0108-.7859-.2371-.7859-.5447v-1.2851z"/><path d="m30.3159 46.7671-1.0413.1608c-.2396.9228.3473.5895.9592.7097l-.9178.078-.0779.7097h1.1607c.0066.0538-.1103.1658-.1244.1658h-1.2021v-1.824z"/><path d="m21.1962 46.7671c.0182.1459-.1874.0788-.2894.0829-.262.0108-.5273-.0075-.7893 0v.747c.0282.0282.6426-.0191.7893 0 .1211.0158.257.063.1227.1658h-.912l-.0821.7893-.1658-.0837v-1.6997h1.3266z"/><path d="m3.20522 48.2601c-1.37793 1.3199-2.392731-1.5006-.69145-1.5479.16167-.0041.8896.1426.56792.3847-.67156-.6641-1.64159.1974-1.20632.9601.30179.5306.8722.3474 1.33068.2031z"/><path d="m47.7259 47.0988c-1.7519-1.0239-1.9409 1.9906-.0423 1.159l.0423.1658c-.8042.4602-1.8141-.1285-1.5363-1.0802.1824-.626 1.2958-.9477 1.5363-.2455z"/><path d="m34.3786 46.7671v.0821l-.6633.0008v1.7411h-.1658v-1.6167l-.1368-.1111-.5256-.0141-.0009-.0821z"/><path d="m24.8439 46.7671v.0821l-.6633.0008v1.6167l-.1243.1227-.1227-.1227c.0008-.0298.0812-.0572.0812-.0829v-1.4094l-.1376-.1111-.5256-.0141v-.0821h1.4915z"/><path d="m59.6654 46.7671v1.6996l-.1244.1227-.1227-.1227c.0009-.0298.0813-.0572.0813-.0829v-1.4923c0-.0175-.1244-.0946-.0829-.1236h.2487z"/><path d="m55.6033 46.7671h-.1658v1.824h.1658z"/><path d="m40.8455 46.7671h-.1658v1.824h.1658z"/><path d="m15.3924 46.7671h-.1658v1.824h.1658z"/></g></svg>