<svg fill="none" height="29" viewBox="0 0 111 29" width="111" xmlns="http://www.w3.org/2000/svg"><g fill="#fff"><path d="m12.1297.352051-12.0672 7.000579v14.00117l12.0672 7.0006 12.0674-7.0006v-14.00117zm6.955 18.034649-6.9527 4.0335-6.95277-4.0335v-8.0669l6.95277-4.0335 6.9527 4.0335z"/><path d="m37.4368 21.3682c-1.1983 0-2.2718-.2756-3.2171-.83-.9465-.5533-1.6934-1.352-2.2406-2.3981-.5473-1.0462-.8204-2.3052-.8204-3.7781s.2764-2.7521.8259-3.8016c.5508-1.04841 1.2998-1.84816 2.2496-2.39812.9488-.54997 2.0167-.82439 3.2039-.82439.7714 0 1.4915.11089 2.1537.33043.6633.21954 1.2529.53876 1.7702.95768.5171.41891.9375.93079 1.264 1.5356.3256.6049.5364 1.2926.6344 2.0644h-2.6921c-.0613-.3909-.1794-.7404-.3557-1.0507-.1771-.308-.4001-.5712-.6699-.7885-.2708-.2173-.5786-.382-.9207-.4951-.3445-.11313-.719-.16913-1.1272-.16913-.7177 0-1.3498.18033-1.8983.54103-.5473.3606-.9755.886-1.282 1.5771-.3076.6899-.4616 1.5323-.4616 2.5213s.155 1.8481.4649 2.5359c.3111.6877.737 1.2063 1.282 1.558.5452.3517 1.1738.5276 1.8839.5276.3957 0 .7636-.0538 1.1036-.1613.34-.1064.6466-.2632.9174-.4682.2698-.2039.4973-.4548.68-.7516.1829-.2968.3111-.6373.3836-1.0215h2.6921c-.0791.6407-.2686 1.25-.5695 1.8246-.301.5735-.7023 1.0832-1.2052 1.5256-.5017.4436-1.0925.7919-1.7702 1.0506-.679.2566-1.4381.3854-2.2764.3854v.0033z"/><path d="m47.3114 15.219v5.9601h-2.6097v-13.66299h2.5373v5.19839h.1282c.2361-.5926.6085-1.0608 1.1135-1.4035.5039-.3416 1.1472-.5141 1.9252-.5141.7056 0 1.3243.1523 1.8515.4581.5296.3058.941.746 1.2319 1.3206.2921.5735.437 1.269.437 2.0822v6.519h-2.6197v-6.0788c0-.6608-.1672-1.175-.5016-1.5457-.3345-.3696-.807-.5545-1.4145-.5545-.4082 0-.7672.0885-1.077.2666-.3109.1781-.5551.4301-.7345.7561-.1796.3282-.2688.7247-.2688 1.1974v.0022z"/><path d="m58.5647 21.3819c-.6511 0-1.2331-.1166-1.7469-.3484-.5138-.233-.9187-.5769-1.2141-1.0316-.2954-.4548-.4426-1.0193-.4426-1.6914 0-.5734.1049-1.0517.3157-1.4314.2105-.3798.496-.6855.8583-.9208.3623-.2352.7713-.4132 1.2318-.532.4592-.1187.942-.2027 1.4459-.252.5964-.0616 1.0768-.1176 1.4424-.1691.3656-.0516.6309-.1345.7981-.2476s.2508-.28.2508-.4995v-.046c0-.4592-.1404-.8154-.4191-1.0686-.2797-.2531-.6789-.3808-1.1961-.3808-.5474 0-.9822.1199-1.3055.3629-.322.2408-.5371.5332-.6476.8748l-2.4279-.2665c.1516-.6228.4282-1.1538.826-1.5906.398-.4368.8986-.7706 1.5006-1.0002.602-.2297 1.2863-.345 2.0532-.345.5295 0 1.0458.0627 1.5475.1882.5016.1243.9541.3237 1.36.597.4035.2721.7278.6317.9663 1.0775.2397.4469.3612.9902.3612 1.6331v6.8853h-2.4993v-1.4215h-.0724c-.1594.3047-.3702.5813-.6388.8266-.2675.2453-.5963.438-.9853.5825-.3891.1445-.8429.2161-1.36.2161h-.0035zm.7099-1.8706c.4504 0 .8429-.0896 1.1773-.27.3344-.1803.5964-.4211.7849-.7235.1882-.3025.283-.6374.283-1.0036v-1.147c-.0846.0616-.2106.1165-.3735.1658-.1649.0493-.3499.094-.5573.1332-.2063.0392-.4115.074-.6121.1053-.2007.0303-.3801.0549-.5384.0729-.3466.0492-.6521.1287-.9174.2374-.2653.1109-.4738.2599-.6253.4492-.1517.1893-.2285.4278-.2285.7157 0 .4155.1505.7303.4514.9454.301.2139.6856.3203 1.1538.3203h.0011z"/><path d="m65.8374 21.18v-10.251h2.6098v10.251z"/><path d="m72.7736 15.2191v5.9601h-2.6095v-10.2523h2.5639v1.7877h.1102c.2308-.587.5977-1.0529 1.0993-1.399.5017-.3462 1.1325-.5175 1.8939-.5175.7056 0 1.3222.1523 1.8472.4581.5262.3047.9341.7471 1.2239 1.3239.2888.578.4337 1.2702.4337 2.0767v6.5189h-2.6097v-6.0787c0-.6541-.1683-1.1683-.506-1.5401-.3367-.3719-.8016-.5601-1.3924-.5601-.4013 0-.7568.0885-1.0634.2666-.3078.1781-.5485.4301-.7258.7561-.1771.3281-.2642.7247-.2642 1.1974v.0022z"/><path d="m83.6603 6.84399v14.33611h-2.6095v-14.33611z"/><path d="m85.376 21.18v-10.251h2.6095v10.251z"/><path d="m92.3107 15.2191v5.9601h-2.6095v-10.2523h2.5639v1.7877h.1105c.2305-.587.5974-1.0529 1.099-1.399.5017-.3462 1.1325-.5175 1.8941-.5175.7056 0 1.322.1523 1.8482.4581.5262.3047.9341.7471 1.2229 1.3239.2886.578.4336 1.2702.4336 2.0767v6.5189h-2.6096v-6.0787c0-.6541-.1685-1.1683-.5062-1.5401-.3367-.3719-.8014-.5601-1.3922-.5601-.4013 0-.757.0885-1.0636.2666-.3076.1781-.5485.4301-.7256.7561-.1773.3281-.2655.7247-.2655 1.1974z"/><path d="m106.968 21.1802h3.094l-4.074-5.8122 3.863-4.4401h-3.028l-3.461 4.0077h-.162v-7.41949h-2.611v13.66409h2.611v-3.3469l.818-.9118 2.95 4.2576z"/><path d="m68.4691 6.84399h-2.6097v2.62214h2.6097z"/><path d="m88.0075 6.84399h-2.6096v2.62214h2.6096z"/></g></svg>