<svg fill="none" height="21" viewBox="0 0 110 21" width="110" xmlns="http://www.w3.org/2000/svg"><path d="m22.2009 6.01415c-3.996 0-7.1184 3.03349-7.1184 7.09445 0 4.0609 3.0435 7.0684 7.1184 7.0684s7.1713-3.0594 7.1713-7.0944c0-4.00902-3.0434-7.06845-7.1713-7.06845zm.027 11.23625c-2.2756 0-3.9432-1.7674-3.9432-4.1408 0-2.4005 1.6406-4.16681 3.9162-4.16681 2.3026 0 3.9691 1.79331 3.9691 4.16681 0 2.3734-1.6665 4.1408-3.9421 4.1408zm8.017-8.14986h1.9849v10.81386h3.1753v-13.63664h-5.1602zm-23.15347-.15877c1.66752 0 2.99057 1.02848 3.49277 2.55823h3.361c-.6091-3.27016-3.308-5.48585-6.82682-5.48585-3.99604 0-7.11838 3.03349-7.11838 7.09545 0 4.0619 3.04346 7.0684 7.11838 7.0684 3.43992 0 6.19182-2.2157 6.80082-5.5128h-3.335c-.4763 1.5298-1.79931 2.5852-3.4668 2.5852-2.30258 0-3.91619-1.7674-3.91619-4.1408.00102-2.4005 1.58865-4.16783 3.89022-4.16783zm83.48547 2.84873-2.3285-.3425c-1.1111-.1577-1.9051-.5272-1.9051-1.3979 0-.94956 1.0325-1.42386 2.4344-1.42386 1.5348 0 2.5142.65904 2.7258 1.74046h3.0696c-.3444-2.74296-2.4614-4.35157-5.7156-4.35157-3.361 0-5.5836 1.71447-5.5836 4.14087 0 2.3205 1.4557 3.6665 4.3924 4.0879l2.3285.3425c1.1384.1577 1.7733.6071 1.7733 1.4508 0 1.0814-1.1111 1.5297-2.6459 1.5297-1.8793 0-2.9376-.7648-3.0964-1.9251h-3.1224c.2916 2.664 2.3816 4.5362 6.1918 4.5362 3.4669 0 5.7684-1.5826 5.7684-4.2996 0-2.4263-1.6666-3.6925-4.2867-4.0879zm-56.7594-11.130376c-1.1643 0-2.0378.843746-2.0378 2.004016s.8726 2.00401 2.0378 2.00401c1.1642 0 2.038-.84374 2.038-2.00401s-.8738-2.004016-2.038-2.004016zm46.5986 10.286676c0-2.95362-1.7991-4.93167-5.6097-4.93167-3.5986 0-5.6096 1.8203-6.0069 4.61617h3.1491c.1588-1.08143 1.0056-1.9781 2.805-1.9781 1.6147 0 2.4084.71193 2.4084 1.5827 0 1.1343-1.456 1.4238-3.2551 1.6086-2.4344.2635-5.451 1.1073-5.451 4.2726 0 2.4533 1.8262 4.035 4.7371 4.035 2.2754 0 3.7043-.9496 4.4194-2.4534.1059 1.345 1.1114 2.2157 2.5142 2.2157h1.8523v-2.8218h-1.5618v-6.1458zm-3.1224 3.4289c0 1.8203-1.5877 3.1652-3.5198 3.1652-1.1909 0-2.1964-.5012-2.1964-1.5556 0-1.345 1.6143-1.7145 3.0963-1.8722 1.4289-.1318 2.2226-.4484 2.6199-1.0554zm-16.8558-8.36155c-1.7734 0-3.2551.73889-4.3134 1.97805v-7.46388h-3.1753v19.38608h3.1222v-1.7933c1.0583 1.2921 2.5673 2.0569 4.3665 2.0569 3.8102 0 6.695-3.0065 6.695-7.0684 0-4.06196-2.9376-7.09545-6.695-7.09545zm-.4762 11.23625c-2.2757 0-3.9431-1.7674-3.9431-4.1408 0-2.3735 1.6935-4.16681 3.9689-4.16681 2.3027 0 3.9161 1.76741 3.9161 4.16681 0 2.3734-1.6665 4.1408-3.9419 4.1408zm-14.6074-11.23625c-2.0638 0-3.4138.84374-4.2075 2.03095v-1.76734h-3.1495v13.63564h3.1753v-7.4109c0-2.0839 1.323-3.56073 3.2812-3.56073 1.8262 0 2.9634 1.29213 2.9634 3.16533v7.8073h3.1753v-8.044c.0012-3.42988-1.7713-5.85625-5.2382-5.85625zm64.6457 6.64715c0-3.90325-2.858-6.64617-6.695-6.64617-4.0749 0-7.0653 3.05946-7.0653 7.09447 0 4.2466 3.202 7.0684 7.1183 7.0684 3.308 0 5.901-1.952 6.562-4.7209h-3.308c-.476 1.2132-1.64 1.8991-3.202 1.8991-2.038 0-3.5729-1.2661-3.9165-3.4818h10.5055v-1.2131zm-10.3207-1.0555c.5037-1.89916 1.9317-2.82178 3.5727-2.82178 1.799 0 3.175 1.02845 3.493 2.82178z" fill="#fff"/></svg>