<svg fill="none" height="10" viewBox="0 0 203 10" width="203" xmlns="http://www.w3.org/2000/svg"><g fill="#fff"><path d="m0 .961426v8.027184h5.94101v-1.48525h-3.9254v-1.94507h3.67725v-1.44997h-3.67725v-1.69692h3.85363v-1.449974z"/><path d="m17.0786.961914v4.561426c0 2.65198-1.8387 3.6067-4.031 3.6067-2.3337 0-4.031-1.0608-4.031-3.57135v-4.596776h2.0155v4.632146c-.0064.25546.0416.50936.1408.74485.0992.2355.2473.44721.4346.62109.1872.17388.4093.30596.6515.38747.2422.0815.499.11058.7533.0853.2698.02682.5423-.00539.7985-.0944.2562-.08902.49-.2327.6851-.42109s.3469-.41697.4449-.66988c.0979-.25292.1397-.52412.1223-.79479v-4.490696z"/><path d="m22.4181 4.2506h1.0608c.5658 0 1.0962-.24752 1.0962-.91935 0-.60112-.389-.91936-1.1669-.91936h-.9901zm1.5912-3.288469c.3296-.031821.6622.004318.9773.106179.315.10186.6058.26729.8544.48603.2486.21875.4496.48617.5907.78572.1411.29956.2193.62487.2296.95583.0022.43194-.1291.85402-.3759 1.20848-.2469.35445-.5972.62397-1.0031.77166.8486.42433 1.0608 1.4144 2.1923 3.74815h-2.1923c-.8487-1.73263-1.1669-3.28847-2.2631-3.28847h-.5657v3.28847h-2.0155v-8.062049z"/><path d="m34.0521 2.51778c-.3364-.02491-.6742.02121-.9915.13534-.3174.11414-.6072.29375-.8506.52717s-.435.51544-.5624.82772c-.1273.31229-.1876.64787-.1768.98495-.0167.33863.0395.67691.1648.99195s.3168.5995.5615.83416.537.41405.857.52603.6603.15394.998.12306c.3345.02427.6704-.02254.9855-.13738.3151-.11483.6024-.29508.8429-.52888.2405-.23381.4287-.51587.5524-.82765.1236-.31178.1799-.64621.1651-.98129.0148-.33508-.0415-.6695-.1651-.98128-.1237-.31178-.3119-.59384-.5524-.82765-.2405-.2338-.5278-.41405-.8429-.52888s-.651-.16165-.9855-.13737zm0 6.57693c-.578.04264-1.1587-.03151-1.7074-.21803-.5487-.18653-1.0542-.48161-1.4865-.86766-.4323-.38606-.7824-.85518-1.0295-1.37941-.2471-.52424-.3861-1.09285-.4088-1.67196.0223-.57924.1611-1.14806.408-1.67248.247-.52443.5971-.99372 1.0295-1.37986.4323-.38614.938-.68121 1.4869-.86759s1.1297-.260256 1.7078-.217215c.5762-.042812 1.1551.031453 1.7019.218325.5467.18686 1.05.48247 1.4795.869.4295.38654.7763.85601 1.0195 1.38014.2433.52412.3779 1.09206.3958 1.66959-.0184.57737-.1534 1.14504-.3968 1.66891s-.5903.99312-1.0196 1.37955c-.4294.38643-.9325.68207-1.479.86914s-1.1252.26181-1.7013.21955z"/><path d="m43.7753 4.28568h.9193c.9194 0 1.2376-.31824 1.2376-.91936 0-.7072-.3889-.91935-1.4851-.91935h-.7072zm1.5912-3.323834c.3346-.028334.6715.01255.9896.120104.3182.10756.6108.27948.8596.50506s.4484.49997.5865.80609c.1382.30613.2118.63741.2162.97322-.0005.33852-.0711.67328-.2074.98317-.1362.30989-.3352.5882-.5843.8174-.2492.22921-.5431.40433-.8632.51435-.3202.11002-.6596.15255-.997.12491h-1.5912v3.21774h-2.0155v-8.062044z"/><path d="m57.0354 8.98861h-5.9763v-8.027184h5.8704v1.449974h-3.8548v1.69692h3.6772v1.44997h-3.6772v1.94507h3.9607z"/><path d="m63.7183 2.87132-1.1669 3.14702h2.4752zm4.7382 6.11725h-2.1569l-.6719-1.59119h-3.6067l-.6011 1.59119h-2.1216l3.2531-8.062056h2.3338z"/><path d="m79.1354 8.98861h-1.6628l-4.4545-5.1625v5.1625h-2.0157v-8.027184h1.8381l4.2793 4.915574v-4.915574h2.0156z"/><path d="m94.9417 8.31703c-.962.53623-2.0457.81628-3.147.81328-3.1471 0-4.7029-2.05089-4.7029-4.13706 0-2.157 1.7326-4.172506 4.8443-4.172506 1.023-.022336 2.0343.221346 2.9348.707196v1.80335c-.84-.52421-1.8037-.81698-2.7934-.84863-.355-.04495-.7156-.01643-1.0591.08379-.3436.10023-.6629.27001-.9382.4988-.2752.2288-.5004.51174-.6617.83123-.1613.3195-.2552.66874-.2758 1.02605.0139.35465.1005.70267.2544 1.02247.154.3198.372.60456.6405.83664.2686.23207.5819.4065.9207.51248.3387.10598.6956.14124 1.0485.1036 1.0369-.04433 2.046-.34833 2.9349-.88411z"/><path d="m104.099 8.9891h-5.9393v-8.027186h5.8343v1.449976h-3.819v1.69691h3.678v1.44998h-3.678v1.94507h3.924z"/><path d="m115.379 8.9891h-1.662l-4.456-5.16251v5.16251h-2.015v-8.027186h1.839l4.278 4.915576v-4.915576h2.016z"/><path d="m126.093 2.41189h-2.935v6.57721h-2.016v-6.57721h-2.898v-1.449976h7.849z"/><path d="m130.902 4.2506h1.061c.566 0 1.096-.24752 1.096-.91935 0-.60112-.389-.91936-1.167-.91936h-.99zm1.591-3.288469c.33-.031821.662.004318.977.106179.316.10186.606.26729.855.48603.248.21875.45.48617.591.78572.141.29956.219.62487.229.95583.002.43194-.129.85402-.376 1.20848-.247.35445-.597.62397-1.003.77166.849.42433 1.061 1.4144 2.192 3.74815h-2.192c-.848-1.73263-1.167-3.28847-2.263-3.28847h-.566v3.28847h-2.015v-8.062049z"/><path d="m142.076 2.87157-1.167 3.14702h2.475zm4.703 6.11722h-2.157l-.672-1.59119h-3.607l-.601 1.59119h-2.121l3.253-8.062032h2.333z"/><path d="m155.442 8.9891h-6.117v-8.027186h1.98v6.541936h4.137z"/><path d="m165.059 7.50352h1.131c1.097 0 1.521-.28288 1.521-.99009 0-.60111-.53-.91935-1.238-.91935h-1.414zm0-3.3592h1.061c.127.01847.256.00944.38-.02648.123-.03591.237-.09786.334-.18167s.175-.18752.229-.30412c.054-.11659.082-.24336.082-.37171 0-.42433-.283-.84864-1.025-.84864h-1.061zm1.485-3.182406c1.91 0 2.652 1.131516 2.652 2.015516-.011.34229-.121.67412-.315.95615s-.465.50243-.781.63504c.484.08237.924.33343 1.241.70878.317.37534.491.85076.492 1.34212 0 .91936-.496 2.36911-2.865 2.36911h-3.925v-8.026716z"/><path d="m176.481 2.87156-1.167 3.14703h2.475zm4.703 6.11726h-2.157l-.672-1.5912h-3.571l-.601 1.5912h-2.122l3.253-8.062062h2.334z"/><path d="m191.862 8.9891h-1.662l-4.455-5.16251v5.16251h-2.016v-8.027186h1.839l4.314 4.915576v-4.915576h1.98z"/><path d="m199.428 4.71093 3.571 4.27817h-2.51l-3.182-3.78308v3.78308h-2.016v-8.027186h2.016v3.641976l2.546-3.641976h2.192z"/></g></svg>