<svg fill="none" height="36" viewBox="0 0 43 36" width="43" xmlns="http://www.w3.org/2000/svg" xmlns:xlink="http://www.w3.org/1999/xlink"><clipPath id="a"><path d="m.224609 0h42.5496v35.29h-42.5496z"/></clipPath><g clip-path="url(#a)" fill="#fff"><path d="m.224609 13.3843h5.682331v.7272c0 8.6484 6.94406 15.5925 15.59246 15.5925s15.5925-6.9441 15.5925-15.5925v-.7272h5.6823v21.9057h-42.549591z"/><path d="m21.3724 0c-7.794 0-14.10726 6.31322-14.10726 14.1073 0 7.794 6.44026 14.1072 14.10726 14.1072s14.1072-6.3132 14.1072-14.1072c0-7.79408-6.3088-14.1073-14.1072-14.1073zm9.5947 7.98681.3154-.94633.3155.94633h1.0427l-.8193.66155.3154.94633-.8543-.63089-.8543.63089.3154-.94633-.8192-.66155zm-9.7831-5.68233.3154-.94633.3155.94633h1.0427l-.8543.63088.3154.94633-.8193-.50383-.8543.50383.3155-.94633-.8544-.63088h1.0734zm5.0164 10.00652-.5345 1.2618h-10.0065v1.2617h9.3756l-.5345 1.2618h-8.6483c.8543 2.6199 3.2508 4.5432 6.2168 4.5432 1.989 0 3.7897-.9463 4.9551-2.3044v1.8006c-1.3582 1.1698-3.0625 1.8006-4.9551 1.8006-3.5663 0-6.6287-2.5235-7.575-5.8093h-2.2081l.5345-1.2618h1.4852v-1.2618h-1.989l.6309-1.3888h1.6736c.8543-3.37785 3.8816-5.80938 7.5749-5.80938 2.1161 0 4.1052.85432 5.494 2.30448l-.5345 1.3581c-1.1698-1.3581-2.9354-2.30443-4.9551-2.30443-2.9353 0-5.3669 1.89265-6.2168 4.54323h10.2256zm-10.7294-8.42931.3154-1.04271.3155 1.04271h1.0734l-.8544.63088.3155.94632-.8543-.63088-.8193.63088.3154-.94632-.8543-.63088h1.0427zm-4.1051 4.10512.3154-.94633.3155.94633h.9463l-.7273.66155.3155.94633-.8544-.63089-.8192.63089.3154-.94633-.8543-.66155h1.0427zm-2.08106 7.29019.31544-.9463-.75793-.6309h.94632l.31543-.9463.3155.9463h1.0733l-.8543.6309.3155.9463-.8544-.6309-.81924.6309zm3.25076 5.6824-.8543-.6309-.8193.6309.3155-1.0428-.8543-.5345h1.0427l.3154-1.0427.3155 1.0427h.9463l-.7273.5345.3155 1.0428zm4.1008 4.1007-.8543-.6309-.8193.6309.3154-.9463-.8543-.6309h1.0427l.3155-.9463.3154.9463h1.0734l-.8543.6309.3154.9463zm5.6823 1.4852-.8193-.5345-.8543.5345.3155-.9463-.8544-.6309h1.0734l.3155-.9463.3154.9463h1.0427l-.8543.6309.3154.9463zm5.586-1.4852-.7273-.6309-.8543.6309.3154-.9463-.8193-.6309h.9464l.4118-.9463.3154.9463h.9464l-.8544.6309.3155.9463zm-.3155-20.54753.3155.94632-.7273-.63088-.8543.63088.3154-.94632-.8193-.63088h.9464l.4118-1.04271.3154 1.04271h.9464l-.8544.63088zm4.5476 16.44683-.8543-.6309-.8543.6309.3154-1.0428-.8192-.5345h1.0427l.3154-1.0427.3155 1.0427h1.0427l-.8193.5345zm.6309-6.3133-.8543.6309.3154-.9463-.8543-.6309h1.0734l.3154-.9463.3155.9463h1.0427l-.8543.6309.3461.9463-.8543-.6309z"/></g></svg>