<svg fill="none" height="27" viewBox="0 0 189 27" width="189" xmlns="http://www.w3.org/2000/svg"><g fill="#fff"><path d="m25.8341.964164c-.4941-.173443-1.7866-.443412-2.2642-.443412h-4.8944v.594238l.9536.14026c.1657.10105.2109.36197.2365.54295.1838 1.31817.1928 5.68896.0226 7.01316-.1476 1.14473-1.1614.44341-1.3633 1.26084h5.497c.244 0 1.538-.43133 1.8333-.57008 3.4934-1.62886 3.8188-7.19565-.0211-8.537956zm-.8436 7.979916c-.8632.59876-3.0656 1.08142-3.2946-.29862l-.0105-7.00713c.0226-.34688.4128-.42833.7155-.48262 4.2557-.772205 5.6793 5.6422 2.5896 7.78837z"/><path d="m154.518 7.01034c-.188-1.82342-2.432-1.78119-2.564-2.08736 1.538-.38459 2.439-1.52479 1.791-3.11746-.363-.892858-1.734-1.200532-2.62-1.284991-1.389-.129706-2.957.096525-4.368 0-.747.775221.904.416265.979 1.120601-.146 2.27437.196 4.77498.006 7.01919-.023.27298-.023.54748-.191.77974l-1.02.18551v.44643h5.195c.089 0 1.07-.34237 1.233-.42079 1.045-.50073 1.681-1.46296 1.559-2.64087zm-4.974-5.51853c.738-.77069 2.139-.21416 2.443.71188.619 1.8747-.711 2.72382-2.443 2.64539zm3.022 6.1203c-.065 2.32867-3.022 2.32113-3.022 1.3408v-3.65589c1.636.10859 3.076.35593 3.022 2.31509z"/><path d="m82.9741 9.40544c-.4278-.38459-2.591-3.48546-2.5639-3.87458 1.4175-.6802 2.3515-2.07378 1.5456-3.6212-1.0711-2.057192-5.3343-1.196006-7.2595-1.387548v.592728c.8104-.06486 1.1389.19003 1.2142.96374.2124 2.16126-.1733 4.6694-.0121 6.87139-.1039.53692-.7351.70734-1.2021.67567v.44646h4.2165v-.44797c-.6598.13574-1.3543-.25941-1.3543-.96977v-2.61222c1.5305-.2775 1.8137 1.34231 2.4977 2.37543 1.0213 1.54591 1.6872 1.97123 3.6772 1.80383.1355-.58218-.3766-.47209-.7593-.81596zm-5.4156-3.95904c.1446-1.13718-.1973-2.73287 0-3.80671.1763-.963741 2.0246-.47961 2.4947.36348 1.0454 1.86867-.3269 3.87458-2.4947 3.44323z"/><path d="m120.476 8.95605c-.351-.39967-2.033-2.8128-2.087-3.17024-.078-.50978.529-.54597.889-.85667 1.143-.98335 1.121-3.03903-.199-3.8414-.462-.280522-1.45-.515802-1.988-.567081-1.413-.132722-3.01.099542-4.444 0l.009.588201c.626-.00302 1.081.16892 1.187.84007.205 1.29555.132 5.01931.015 6.41289-.081.96676-.304 1.33778-1.362 1.26237v.44791h4.218v-.4464c-.384.11462-1.205-.29259-1.205-.67266v-2.91084c1.565-.21266 2.023 1.96218 2.886 3.03451.913 1.13119 1.694 1.22009 3.137 1.14319.286-.27899-.841-1.0165-1.056-1.26385zm-4.967-3.50959v-3.95452c0-.722427 2.269-.44341 2.639.96526.502 1.90034-.654 3.31352-2.639 2.98926z"/><path d="m48.6925 9.76737c-.3525-.40118-.9506-.75108-1.3784-1.288-.7035-.87929-1.2398-2.00139-1.8318-2.96061 2.0608-.56106 2.5941-3.68907.5528-4.577408-1.1117-.482626-4.4982-.567085-5.7575-.426822-.5921.064853-.7623.340854-.1386.59876.4097.17042.6221-.02866.8165.5339.3223.92755.2455 5.08869.1657 6.26811-.0708 1.03312-.0588 1.8566-1.3634 1.70879v.44791h4.2165v-.44791c-.3178.16892-1.2036-.26695-1.2036-.52184v-3.06015c.2169.01358.461-.03921.6719.00453 1.0213.21718 1.6977 3.35425 3.2448 3.94848.6734.25939 1.398.24739 2.1075.22619.0106-.2081.0452-.28652-.1024-.45393zm-5.9218-4.32101v-4.17924c3.626-.983346 3.6817 4.84587 0 4.17924z"/><path d="m189 10.0722h-2.787c-1.232-1.13566-2.175-3.22-3.326-4.31345-.145-.13725-.324-.25187-.514-.3122v3.65589c0 .46001.841.58066 1.207.52335v.44641h-4.218c.166-.83402 1.044-.09801 1.19-1.12812.199-1.39358.187-5.7357.022-7.16247-.079-.69679-.625-.6621-1.212-.66662v-.594238h3.99l.154.450954-1.133.520334v3.50658c.104.11914 1.012-.62742 1.135-.74204.348-.32879 2.112-2.24572 2.255-2.54133.412-.852135-1.034-.24282-.678-1.194498h3.614v.594238c-.35-.01961-.66.03167-.989.14327-1.236.41929-2.675 2.26231-3.531 3.2155 0 .26544 2.834 3.84743 3.238 4.25767.447.45397.89.87325 1.581.89738v.44339z"/><path d="m177.705.520752-.009.588198c-.607-.13272-1.196.42833-1.196.97883v8.13372l-.645-.0316-6.281-7.28015v5.14751c0 .09351.25 1.07384.314 1.17942.243.39062.778.41023 1.192.3876v.44792h-3.615c.262-.84457 1.105-.11913 1.319-1.30458.259-1.4343.318-4.32704.193-5.79-.093-1.08289-.377-1.986308-1.662-1.86263v-.594238h2.485l5.948 6.716038v-5.14901c0-.60932-.915-1.12814-1.506-.97279v-.594238z"/><path d="m140.355 7.68473-.525 2.38747h-7.305v-.44792c.673.0362 1.265-.08898 1.363-.81292.175-1.28047.158-5.72666-.021-7.01316-.025-.18098-.071-.4419-.236-.54295l-.954-.14026v-.594238h6.701c.421.129706.153 1.818898.226 2.239688-.65.16439-.6-.69981-.925-1.09948-.481-.5882-2.264-.6425-2.991-.39365v3.58199c.636-.08295 2.072.23378 2.477-.30616.267-.35594.015-.89739.685-.73902v2.83542l-.465-.08747c-.139-1.41017-1.684-.85666-2.697-.9562v3.35726c0 .80991 2.272.67719 2.864.45096.286-.1101.562-.36499.75-.60027.347-.43587.375-1.22768 1.053-1.11909z"/><path d="m110.688 7.68473-.525 2.38747h-7.305v-.44792c.673.0362 1.265-.08898 1.363-.81292.175-1.28047.158-5.72666-.021-7.01316-.025-.18098-.071-.4419-.236-.54295l-.954-.14026v-.594238h6.701c.421.129706.153 1.818898.226 2.239688-.65.16439-.598-.69981-.925-1.09948-.481-.5882-2.264-.6425-2.991-.39365v3.58199c.636-.08295 2.072.23378 2.477-.30616.267-.35594.015-.89739.685-.73902v2.83542l-.465-.08747c-.139-1.41017-1.684-.85666-2.697-.9562v3.35726c0 .80991 2.272.67719 2.864.45096.286-.1101.562-.36499.75-.60027.347-.43587.375-1.22768 1.053-1.11909z"/><path d="m92.9756 8.09949c-.0528.63344-.3691 1.31666-.3571 1.97271h-7.5306v-.44792c1.4115.17345 1.4281-.55049 1.5124-1.7103.0934-1.2865.1612-5.17164-.1642-6.2666-.2304-.775216-1.6751-.33633-.9716-1.126628h6.7021l.1491 2.238178-.5799-.02112c-.2034-1.748006-2.097-1.764596-3.4859-1.4705v3.58199h2.1843c.1943 0 .574-.77974.5453-1.02558l.5845-.0196v2.83542l-.5845-.0196c.0287-.24584-.351-1.02407-.5453-1.02407h-2.1843v3.35726c0 .80991 2.4314.65607 3.0189.45397.6357-.21869.8526-1.0301 1.1614-1.53234.2471-.4057.586-.25639.5454.22473z"/><path d="m16.866 7.68473-.4504 2.38747h-7.52913c-.01657-.65756.82703-.32274 1.20213-.67264.2395-.22321.2832-.72243.3088-1.03764.122-1.45995.1748-4.86699-.0196-6.26057-.1039-.74505-.38711-1.09345-1.19004-.98486v-.595738h6.77594l.1506 2.239688-.583-.02112c-.0753-1.66053-2.3289-2.048141-3.4828-1.24728v3.35726h2.1828c.0331 0 .3992-.36347.4489-.45548.2245-.42682-.2034-.71187.6809-.5897v2.83542l-.592-.00905c.122-.28354-.342-1.03462-.5378-1.03462h-2.1828v3.20795c0 1.0301 2.8968 1.00748 3.6154.15082.4565-.54446.3751-1.48558 1.2021-1.26991z"/><path d="m37.9505 7.68473-.4504 2.38747h-7.38v-.44792c.9415.04827 1.2775-.18249 1.3633-1.11154.1221-1.34683.1883-5.32246-.0165-6.56523-.1115-.67718-.5318-.92302-1.1961-.83102v-.595738h6.7774l.1491 2.238178c-.6628.1282-.5634-.49168-.833-.88833-.5634-.82499-2.0759-.876271-2.9782-.61384-.0784.04826-.2531.32577-.2531.38308v3.20946h2.1828c.363 0 .5363-1.30912 1.1298-1.04518v2.83542c-.5935.26394-.7668-1.04367-1.1298-1.04367h-2.1828v2.76001c0 .11161.25.9004.36.98637 1.5878.53541 3.5838.29712 3.8746-1.63791z"/><path d="m7.01696 2.60358c0 .33935-.41427.43889-.54081.20964-.13257-1.79928-2.05628-1.859613-3.46329-1.54591v3.73131h2.18282c.33593 0 .72309-.68775.69597-1.02558l.5845-.01961v2.83543l-.5845-.01961c.02862-.24584-.34949-1.02407-.54533-1.02407h-2.33346v3.35726c0 .27299 1.04546.66211 1.35579.52184v.44792h-4.36865v-.44641l1.01985-.18551c.20036-.28052.17023-.60781.19283-.92905.11147-1.64244.19583-5.15807-.02109-6.71303-.02561-.18098-.07081-.4419-.236513-.54295l-.95357057-.14026v-.594238h6.70060357c.25459.078427.31485 1.714828.31485 2.082828z"/><path d="m58.4511 8.78575-3.1108-8.418807-.7938.407216-3.3654 8.305691c-.2501.42984-.7005.57764-1.1826.54597v.44638h3.3142c.0196-.64396-1.0078-.36795-1.0605-.97124-.0136-.15383.589-2.14165.7004-2.17181l2.9255.07842.7578 2.3709c-.0558.23528-1.0349.15384-.9144.69373h4.0658v-.44638c-.6402.05128-1.1087-.25036-1.3362-.84007zm-5.2891-2.59411 1.279-3.28337 1.1298 3.28337z"/><path d="m164.906 9.39785c-.917-.65305-2.645-7.09762-3.389-8.578678-.083-.164394-.122-.354428-.318-.435871-.33.025639-.532.20964-.695.478101-1.303 2.141658-1.895 6.020758-3.248 8.123198-.316.49017-.634.67719-1.238.64099v.44641h3.164v-.44641l-.912-.24886.631-2.41765 3.007.07089c.211.88079 1.522 2.66651-.167 2.59562v.44641h4.067v-.44641c-.327.0181-.629-.03318-.902-.22774zm-5.724-3.20645c.42-1.0663.653-2.38749 1.354-3.28185l1.054 3.28185z"/><path d="m131.322.520752-.009.588198c-.619-.02865-1.091.26695-1.375.80086l-3.312 8.21069c-.162.3755-.706.3635-.848-.003l-3.162-8.20769c-.281-.53391-.762-.82801-1.377-.80086l-.007-.588198h3.99c.208.05882.266.399674.226.597248-.299-.02715-1.054.0739-1.03.49318l2.312 6.07355 2.289-5.92122c.057-.65154-.663-.66813-1.162-.64551-.06-.167409.065-.597248.226-.597248z"/><path d="m98.1141 10.3677c-.5951.0543-2.3757-.0966-2.7869-.51887-.1914-.19606-.4625-1.76309-.4595-2.0949.0015-.24583.0874-.52636.3856-.51429.1025.00452.6132 1.28499.8286 1.56401 1.3166 1.70125 3.8128 1.1221 3.281-1.16283-.3585-1.53837-3.9273-1.74801-4.1849-4.06009-.2606-2.35582 1.52-3.369334 3.6878-3.206448 2.0412.155346 1.5272.815938 1.7322 2.533788-.6853.11462-.6491-.70584-.9881-1.18244-1.2081-1.7057761-3.7329-.35593-2.7552 1.53687.3766.73148 2.2325 1.39961 2.9782 1.97273 2.4031 1.84604 1.1001 4.87757-1.7188 5.13247z"/><path d="m68.6717 7.68473-.4519 2.38747h-7.0772v-.44792c.9415.04827 1.2774-.18249 1.3618-1.11154.1958-2.1311-.1552-4.55479-.0106-6.71906-.1852-.990893-1.8468-.43135-1.1253-1.272928h4.1412v.594238c-1.1102-.07391-1.2307.31823-1.3362 1.29102-.1551 1.4328-.1461 4.20639-.0241 5.65728.0316.36951.11 1.15076.4595 1.33476.7909.41928 2.3545.21115 2.9255-.52787.4097-.5324.3223-1.40112 1.1373-1.18545z"/><path d="m12.7686 14.2444c-.3736-.0392-.6086-.5942-.9837-.6968-.9265-.2549-1.1449 2.4478-1.3196 3.0089.0783.4298 1.303.0724 1.6164.2911-.2652.6425-1.2157.4841-1.8047.5248-.63576 3.3-.64931 7.627-4.06741 9.4007h-.90386c-.50013-.3213-.74868-.7677-.3073-1.276.53931-.6228 1.18556.5505 1.96589.1599.34648-.1734.58148-1.4403.68091-1.8641.48507-2.0467.74417-4.3346.97465-6.422-.10093-.1025-1.22623.2172-1.05299-.2217.23802-.5475 1.02889-.2292 1.28197-.5218.1868-.2142.47001-1.5308.7954-2.0466.52574-.8326 1.78664-1.8491 2.81704-1.8491 1.5365.003 1.0289 1.5896.3073 1.5127z"/><path d="m53.9497 13.4902-.0091.5882c-.8647-.0271-1.0997.3726-1.419 1.0573-1.1419 2.4403-1.621 5.606-2.6273 8.1398-.1325.095-.3705.101-.5212.0513-.3449-.1162-2.1677-5.9228-2.576-6.701l-2.5609 6.7251c-.4052-.0091-.4655-.1237-.6026-.4585-.9716-2.3498-1.3497-5.6648-2.4088-7.9105-.2545-.543-.6553-.8537-1.2623-.9125l-.0196-.5792h4.0673l-.009.5882c-.3495.0121-1.0078.0573-1.0379.5189l1.651 5.7583 2.2717-6.6995.5137-.0256 2.7824 6.7251 1.5139-5.4552c.101-.6983-.4745-.8114-1.0514-.822l-.0091-.5882z"/><path d="m88.0586 21.8489c-.3465-.3967-1.9583-2.7359-2.0126-3.0934-.0783-.5097.5273-.5459.8888-.8566 1.1434-.9834 1.1193-3.0391-.2003-3.8414-.461-.2806-1.4507-.5158-1.9885-.5671-1.4115-.1327-3.0099.0995-4.4425 0l.009.5882c.6267-.003 1.0802.1689 1.1871.8401.2049 1.2955.1326 5.0193.0151 6.4128-.0814.9668-.3043 1.3378-1.3633 1.2624v.448h4.218v-.4465c-.3827.1146-1.2037-.2926-1.2037-.6726v-2.9109c1.5637-.2126 2.0232 1.9622 2.8863 3.0345.9114 1.1312 1.6933 1.2202 3.1364 1.1433.2787-.273-.9053-1.0814-1.1298-1.3408zm-4.8929-3.4327v-3.9545c0-.7225 2.2672-.4434 2.6393.9652.5016 1.9004-.6538 3.3136-2.6393 2.9893z"/><path d="m73.0393 13.3801c-5.9082.8024-5.4804 10.6088 1.4477 9.9421 6.3421-.6108 5.8103-10.9284-1.4477-9.9421zm.7276 9.3509c-3.522-.4238-3.7977-8.0945-.583-8.7581 4.6278-.9532 5.0646 9.2965.583 8.7581z"/><path d="m99.8818 22.5968v.4449h-2.7854l-3.6892-4.5533-.3013.1508v2.9848c0 .7104.6944 1.1055 1.3558.9698v.4479h-4.218v-.4479c.8089.0724 1.1388-.1886 1.2141-.9608.1461-1.4901.1778-5.4265-.0226-6.8653-.0256-.181-.0708-.4419-.2365-.543l-.9535-.1402v-.5943h4.0643l-.0075.5882c-.6357-.0799-1.1961.3514-1.1961.9789v2.9108c.3118.0302.5302-.2006.7547-.371.4459-.3379 2.6829-2.653 2.7974-3.0511.1567-.5505-.4429-.4706-.8421-.4585-.0602-.1674.0648-.5973.226-.5973h3.5386v.5943c-2.121-.0076-3.1951 2.1748-4.6624 3.3618 1.1358 1.2985 2.0457 2.852 3.2298 4.1053.4956.5233.9385 1.0557 1.7339 1.0452z"/><path d="m29.4031 13.4902-.0091.5882c-.6357-.0799-1.196.3514-1.196.9789v8.1337l-.7503-.0784-6.1778-7.2334v5.2969c0 .0784.2289.9697.2892 1.0572.2245.3258.8436.3952 1.2187.3605v.4479h-3.6154c.1928-.6998 1.1057-.3393 1.3226-1.3001-.0361-1.7329.3043-3.4628.1898-5.1972-.0783-1.1855-.0858-2.6289-1.6631-2.4599v-.5943h2.4841c.452 0 4.9788 6.1656 5.9489 6.7161v-4.9997c0-.7466-.7908-1.2654-1.5049-1.1221v-.5943z"/><path d="m38.7381 20.6542-.5257 2.3875h-7.3047v-.4479c.6734.0362 1.2654-.089 1.3633-.813.1733-1.2804.1582-5.7266-.0211-7.0131-.0256-.181-.0708-.4419-.2365-.543l-.9535-.1402v-.5943h6.7006c.473.1448.0196 1.8099.3766 2.2382l-.5785-.0241c-.3405-1.7329-2.0231-1.7767-3.4874-1.4675v3.582c.6357-.083 2.0714.2338 2.4766-.3062.2666-.3559.0135-.8974.6854-.739v2.8354l-.4655-.0874c-.1386-1.4102-1.6842-.8567-2.6965-.9563v3.3573c0 .8099 2.2717.6772 2.8637.451.2863-.1101.5619-.365.7502-.6003.3465-.4359.3751-1.2277 1.053-1.1191z"/><path d="m67.0576 14.3167c-.6462.3937-2.698 4.0239-2.8321 4.8052-.1084.644-.0934 2.4855.1477 3.0662.1988.475.9098.4132 1.3241.4057v.4479h-4.5193v-.4479c1.7505.3981 1.5049-2.3936 1.3197-3.4704-.0919-.5324-1.8996-3.7645-2.3094-4.2788-.3706-.469-.7758-.822-1.4206-.7571-.0602-.1674.0663-.5973.2275-.5973h3.8399l-.0105.5867c-.3149-.0226-.9084.095-.8693.5053l1.3046 2.4418.702.9441 1.7143-3.3859c.0392-.4148-.7396-.5098-1.0258-.5038l-.0091-.5882h3.2388c.6433.5943-.4067.5732-.8225.8265z"/><path d="m5.55734 16.9744c-.84662-.8114-2.36811-.5188-3.31113-.0241-3.43768 1.7993-2.949594 8.2152 1.60284 5.9152 1.81525-.917 3.3036-4.3617 1.70829-5.8911zm-3.02943 5.6211c-1.590794-.2669-.74871-5.2003.78183-5.5004.49712-.098.85113.2911 1.01985.7209.45193 1.1523-.08435 5.0661-1.80168 4.7795z"/></g></svg>