<svg fill="none" height="11" viewBox="0 0 227 11" width="227" xmlns="http://www.w3.org/2000/svg"><g fill="#fff"><path d="m.480469 9.7927v-9.109839h2.200101v9.109839z"/><path d="m10.5417 9.7927-3.66551-5.95852h-.03867l.05027 5.95852h-2.13437v-9.109839h2.50943l3.65395 5.943049h.0387l-.0542-5.943049h2.1383v9.109839z"/><path d="m18.9204 2.56205v7.23065h-2.1924v-7.23065h-2.5752v-1.879189h7.3466v1.879189z"/><path d="m22.624 9.7927v-9.109839h6.1247v1.852129h-4.0019v1.72839h3.7815v1.7632h-3.7815v1.89079h4.2262v1.87533z"/><path d="m35.5696 9.7927-1.9797-3.59599h-.7501v3.59599h-2.146v-9.109839h3.48c.4292 0 .8584.0464 1.2798.135333.3983.0812.7772.235866 1.1214.456266.3209.21653.5877.5104.7733.85066.2088.40213.3132.85453.2977 1.3108.0155.5568-.1624 1.10199-.5026 1.54666-.3596.43693-.843.75013-1.3882.90093l2.3857 3.90919zm-.0928-6.30265c.0078-.1856-.0386-.36733-.1353-.522-.0851-.13146-.2088-.23586-.348-.30546-.1508-.07734-.3132-.1276-.4794-.1508-.1702-.0232-.3403-.03867-.5104-.03867h-1.1639v2.12279h1.0479c.1856 0 .3712-.01546.5568-.04253.1778-.02707.3518-.0812.5142-.1624.1547-.07733.2861-.18946.3867-.33253.1005-.17013.1469-.3712.1314-.5684z"/><path d="m45.1589 9.7927-3.6694-5.95852h-.0387l.0541 5.95852h-2.1382v-9.109839h2.5094l3.654 5.943049h.0386l-.0502-5.943049h2.1343v9.109839z"/><path d="m55.9467 9.7927-.7076-1.79026h-3.5264l-.6689 1.79026h-2.3934l3.8241-9.109839h2.1343l3.7816 9.109839zm-2.4437-6.68931-1.16 3.12812h2.2929z"/><path d="m62.4081 2.56205v7.23065h-2.2001v-7.23065h-2.5713v-1.879189h7.3466v1.879189z"/><path d="m66.0933 9.7927v-9.109839h2.2155v9.109839z"/><path d="m79.8465 5.19914c0 .67666-.1276 1.34946-.3867 1.97586-.2358.57999-.5877 1.10973-1.0362 1.54666-.4524.42146-.9821.7424-1.5621.95506-1.276.46398-2.6796.46398-3.9556 0-.5838-.21653-1.1174-.55293-1.5698-.98213-.4485-.43693-.8004-.9628-1.0363-1.54666-.259-.6264-.3905-1.29919-.3866-1.97586-.0039-.67666.1276-1.34946.3866-1.97586.2359-.5684.5878-1.07879 1.0363-1.49639.4562-.40987.9898-.7192 1.5698-.9164 1.2799-.448531 2.6757-.448531 3.9556 0 .5838.204933 1.1213.52973 1.5775.9512.4447.42146.8004.93186 1.0363 1.49639.2552.6264.3789 1.29533.3712 1.96813zm-2.3548 0c.0039-.37893-.0618-.754-.1933-1.10586-.116-.3248-.2977-.6264-.5336-.8816-.232-.24747-.5143-.44467-.8236-.58-.3364-.14307-.696-.21653-1.0594-.21267-.7076-.01546-1.3882.26294-1.8792.77333-.2397.25134-.4215.55294-.5336.8816-.1237.35573-.1895.7308-.1856 1.10586-.0039.39054.0619.7772.1933 1.14067.116.32866.2978.63413.5336.89319.2243.25907.5027.464.8159.6032.6766.28227 1.4345.28227 2.1111 0 .3132-.13533.5916-.3364.8236-.58386.2398-.25907.4254-.56067.5452-.8932.1315-.36733.1934-.754.1856-1.14066z"/><path d="m87.236 9.7927-3.6694-5.95852h-.0387l.0542 5.95852h-2.1383v-9.109839h2.5095l3.6539 5.943049h.0387l-.0503-5.943049h2.1344v9.109839z"/><path d="m98.0233 9.7927-.7075-1.79026h-3.5264l-.6689 1.79026h-2.3934l3.824-9.109839h2.1344l3.7815 9.109839zm-2.4437-6.68931-1.1599 3.12812h2.289z"/><path d="m101.465 9.79269v-9.109829h2.215v7.191969h3.523v1.93333z"/><path d="m120.098 9.7927.051-6.44571h-.039l-2.366 6.44571h-1.547l-2.301-6.44571h-.038l.05 6.44571h-2.073v-9.109839h3.132l2.073 5.842509h.05l1.976-5.842509h3.178v9.109839z"/><path d="m133.786 5.19914c0 .67666-.127 1.34946-.386 1.97586-.236.57999-.588 1.10973-1.036 1.54666-.453.42146-.983.7424-1.563.95506-1.276.46398-2.679.46398-3.955 0-.584-.21653-1.118-.55293-1.57-.98213-.449-.43693-.8-.96666-1.036-1.54666-.259-.6264-.391-1.29919-.387-1.97586-.004-.67666.128-1.34946.387-1.97586.236-.56453.587-1.07493 1.036-1.49639.456-.40987.99-.7192 1.57-.9164 1.28-.448531 2.676-.448531 3.955 0 .584.204933 1.122.52973 1.578.9512.445.42146.8.93186 1.036 1.49639.255.6264.379 1.29533.371 1.96813zm-2.354 0c.004-.37893-.062-.754-.194-1.10586-.116-.3248-.297-.6264-.533-.8816-.232-.24747-.515-.44467-.824-.58-.336-.14307-.696-.21653-1.059-.21267-.708-.01546-1.388.26294-1.879.77333-.24.25907-.418.56454-.53.90094-.128.35573-.19.73079-.186 1.10586-.004.39053.062.77719.194 1.14066.116.32867.297.63413.533.8932.228.25133.507.44853.816.58386.677.28227 1.434.28227 2.111 0 .313-.13533.592-.3364.824-.58386.236-.25907.421-.56067.537-.8932.136-.36347.201-.75013.197-1.14066z"/><path d="m141.175 9.7927-3.669-5.95852h-.039l.054 5.95852h-2.138v-9.109839h2.509l3.654 5.943049h.039l-.05-5.943049h2.134v9.109839z"/><path d="m145.745 9.7927v-9.109839h6.109v1.852129h-4.002v1.72839h3.782v1.7632h-3.782v1.89079h4.234v1.87533z"/><path d="m157.651 2.56205v7.23065h-2.2v-7.23065h-2.572v-1.879189h7.347v1.879189z"/><path d="m166.772 9.7927-.708-1.79026h-3.526l-.669 1.79026h-2.393l3.824-9.109839h2.134l3.782 9.109839zm-2.444-6.68931-1.16 3.12812h2.297z"/><path d="m175.089 9.7927-1.976-3.59599h-.75v3.59599h-2.15v-9.109839h3.48c.43 0 .859.0464 1.28.135333.398.0812.777.235866 1.118.456266.324.21653.587.5104.773.85066.209.40213.313.85453.298 1.3108.015.5568-.163 1.10199-.503 1.54666-.36.43693-.847.75013-1.392.90093l2.382 3.89758zm-.089-6.30265c.008-.18173-.038-.36346-.135-.522-.089-.13146-.209-.23586-.348-.30546-.151-.07734-.313-.1276-.48-.1508-.17-.0232-.34-.03867-.51-.03867h-1.16v2.12279h1.048c.186 0 .371-.01546.553-.04253s.356-.0812.518-.1624c.34-.16626.545-.522.514-.90093z"/><path d="m183.07 5.93377v3.86666h-2.2v-3.86666l-3.418-5.250909h2.664l1.933 3.371719 1.933-3.371719h2.572z"/><path d="m193.03 2.56205v1.8792h3.522v1.81346h-3.522v3.53799h-2.177v-9.109839h5.997v1.879189z"/><path d="m205.832 7.8555c-.17.43693-.437.83133-.773 1.16-.36.33253-.781.58773-1.241.75013-1.048.35957-2.189.35957-3.237 0-.456-.1624-.87-.4176-1.221-.75013-.337-.32867-.604-.72307-.774-1.16-.185-.4756-.274-.98599-.27-1.49639v-5.676249h2.188v5.513849c0 .23973.031.47946.097.7076.062.21653.162.42146.297.59933.14.174.321.30933.526.39826.244.10827.507.15853.774.15467.266.00386.529-.05027.773-.15467.209-.09666.39-.23973.534-.4176.139-.17786.239-.3828.297-.59933.058-.232.089-.46786.089-.7076v-5.494509h2.2v5.676249c.012.5104-.077 1.02079-.259 1.49639z"/><path d="m213.883 9.7927-3.666-5.95852h-.039l.051 5.95852h-2.135v-9.109839h2.51l3.654 5.943049h.038l-.054-5.943049h2.138v9.109839z"/><path d="m226.944 5.21071c.019.71533-.131 1.42293-.445 2.06866-.274.5568-.672 1.044-1.16 1.4268-.491.37506-1.047.65346-1.643.82359-.603.174-1.226.26294-1.852.26294h-3.406v-9.109839h3.294c.642 0 1.28.077333 1.902.224266.6.139203 1.168.390533 1.674.746263.499.36347.905.84293 1.184 1.39586.321.6728.475 1.4152.452 2.16146zm-2.289 0c.015-.4408-.073-.87773-.251-1.27986-.155-.32093-.383-.59933-.669-.80813-.286-.20493-.611-.35187-.951-.43307-.36-.08506-.731-.1276-1.102-.1276h-1.095v5.32825h1.044c.383 0 .766-.05413 1.137-.14693.348-.08507.677-.23587.967-.44467.286-.21653.518-.49879.669-.82359.178-.39827.263-.83133.251-1.2644z"/></g></svg>