<svg fill="none" height="26" viewBox="0 0 124 26" width="124" xmlns="http://www.w3.org/2000/svg"><g fill="#fff"><path d="m12.8681.111816h-7.21382v.613751h2.29489v11.928133c0 3.5579-.99623 4.5987-3.22886 4.5987-.39395.0423-.78861-.0735-1.09719-.322s-.50583-.6095-.54837-1.0034c-.01329-.0974-.01329-.1961 0-.2935 0-1.2987-.07116-2.0992-1.26308-2.0992-1.191918 0-1.325342 1.2097-1.325342 1.5744 0 1.6455.729382 2.8997 4.011612 2.8997 3.91377 0 6.03076-1.3164 6.03076-5.6749v-11.616828h2.4105z"/><path d="m13.8291 15.2333c-.1861-.0066-.3716.0255-.5446.0944s-.3299.1731-.4605.3058c-.1331.1309-.238.2875-.3084.4604-.0703.1728-.1046.3582-.1008.5448-.0028.1824.0321.3635.1025.5319s.1748.3204.3067.4465c.2679.2638.6292.4109 1.0051.4092.3814.0025.7486-.1443 1.023-.4092.1318-.1261.2363-.2781.3067-.4465s.1053-.3495.1024-.5319c.0024-.1823-.0312-.3632-.0988-.5324-.0675-.1693-.1678-.3236-.295-.4541s-.2789-.2346-.4463-.3065c-.1675-.0719-.3475-.1101-.5297-.1124z"/><path d="m29.8396 15.2331c-.1818-.0047-.3628.0266-.5324.0921-.1697.0655-.3247.1639-.4562.2896-.1314.1257-.2367.2761-.3098.4426-.073.1666-.1124.3459-.1159.5278v.0533c0 .1854.0397.3687.1164.5374.0767.1688.1887.3192.3283.4411.269.2621.6296.4089 1.0052.4091.1879.0041.3747-.0301.549-.1004.1743-.0704.3325-.1754.465-.3087.1364-.1235.245-.2747.3187-.4433.0736-.1687.1105-.3511.1082-.5352.0049-.1875-.0298-.3739-.1018-.5471-.0721-.1732-.1798-.3293-.3162-.458-.1295-.1293-.2836-.2313-.4532-.3001-.1696-.0687-.3512-.1028-.5342-.1002"/><path d="m24.8496.111816h-7.116v.613751h2.0725v13.618133c.0542.5556-.0094 1.1163-.1868 1.6456-.0812.19-.2029.36-.3565.4983-.1536.1382-.3355.2414-.5329.3022-.4329.1457-.8864.2207-1.3432.2224v.5693h7.5607v-.5693c-.4907.0032-.9792-.0657-1.4499-.2046-.1967-.0624-.3778-.1662-.5312-.3042-.1534-.1381-.2755-.3073-.3583-.4963-.1464-.3515-.2103-.7319-.1868-1.1119v-4.6609h1.8858c5.4615 0 7.0003-2.15262 7.0003-5.07906 0-2.92643-.9251-5.043424-6.4577-5.043424zm-.9785 9.428634h-1.4321v-8.734829h1.2987c4.2162-.01779 5.2124 1.698929 5.2124 4.509729s-1.6544 4.28736-5.0078 4.28736"/><path d="m53.8565 15.9448c-.1163-.3862-.1674-.789-.1512-1.192v-14.027274h1.8768v-.569276h-4.5097l-5.3726 13.29795c-.0083.0221-.0228.0413-.0417.0555s-.0415.0227-.065.0245c-.0276.0011-.0549-.0059-.0786-.0201-.0237-.0143-.0428-.0351-.0548-.0599 0 0-5.6483-13.137841-5.7106-13.29795h-4.9722v.551486h2.1792v14.747764c-.0199.3168-.121.6231-.2935.8895-.2035.2661-.4825.4645-.8006.5693-.3409.0789-.691.1118-1.0407.0979v.5692h4.9278v-.5692c-.3017.0037-.6021-.0414-.8895-.1335-.3516-.08-.6654-.2777-.8895-.5604-.1749-.2658-.279-.572-.3024-.8894l-.0534-1.2275v-11.64352h.2936s6.431 14.84562 6.431 15.01462h.6226l6.0664-14.89009h.1601v11.99929c.0078.4142-.0431.8275-.1512 1.2275-.0664.1781-.1674.3413-.2972.4802-.1297.139-.2857.2508-.4589.3292-.4029.142-.827.2142-1.2542.2135v.5693h6.8936v-.5693c-.4373-.001-.8709-.0793-1.2809-.2313-.1851-.0829-.3496-.2055-.4818-.3593-.1322-.1537-.2289-.3348-.2831-.5302"/><path d="m63.1514 4.78174c-3.6825 0-6.0308 2.42832-6.0308 6.67116 0 6.2265 4.8655 6.6268 5.9062 6.6268 2.0814 0 6.0308-1.2898 6.0308-6.7424 0-4.28735-2.5262-6.55556-5.9329-6.55556m0 12.52406c-2.7752 0-3.2022-1.3698-3.2022-5.7906 0-3.42455.2135-5.99518 3.2022-5.99518 3.211 0 3.2288 2.66848 3.2288 5.75498 0 4.4475-.7649 5.9952-3.2288 5.9952"/><path d="m78.7084 4.96851c-2.2059 0-2.8819 1.29866-3.5046 2.61511h-.169s-.3202-1.91241-.4358-2.48169h-4.2963v.64933h2.3127v8.65474c.0317.6065-.0653 1.2127-.2846 1.779-.2313.4359-.765.6493-1.6367.6493h-.3825v.765h7.116v-.765h-.338c-.9429 0-1.3432-.2045-1.5922-.6137-.2516-.5698-.3527-1.1946-.2936-1.8146v-4.5097c0-1.50324 1.1386-3.22886 2.5084-3.22886s1.3965 2.19705 3.0243 1.31645c.8895-.48033.7294-2.99759-2.0103-2.99759"/><path d="m107.154 16.2917c-.765 0-1.014-.4269-1.058-1.1296v-6.82243c.046-.46728-.01-.93895-.164-1.38267-.153-.44372-.401-.84897-.726-1.18796-.667-.65823-1.93-1.00513-3.771-1.00513-1.376-.10179-2.7495.23448-3.9229.96065-.3459.20897-.6317.50398-.8297.85627-.198.3523-.3013.74988-.2999 1.15399-.0225.16233-.006.32768.0481.48236.0542.15468.1444.29424.2632.40713.2178.1856.4967.28385.7827.27574.7116 0 1.103-.36469 1.2631-1.28976.019-.5378.2161-1.05405.5604-1.46767.2309-.20893.5028-.36745.798-.46547.296-.09801.609-.13337.919-.1038.349-.04014.702.00438 1.031.12979.328.12541.621.32802.854.5907.357.53898.532 1.17803.499 1.82346v2.0903c-2.286.2046-7.6857.6315-7.4455 4.7321.0829.8286.4769 1.595 1.1025 2.1447.6256.5496 1.4363.8417 2.2687.8173.8043-.0243 1.5933-.2211 2.3143-.5772.722-.356 1.358-.8629 1.866-1.4864.11.5561.415 1.0546.861 1.4053.445.3507 1.001.5306 1.568.5071 1.663 0 2.668-.8183 2.775-2.8375h-.436c-.107.8895-.649 1.3521-1.103 1.3521m-3.745-1.3165c.009.0132.014.0286.014.0445 0 .0158-.005.0313-.014.0445v.0533c-.738.8257-1.748 1.3591-2.846 1.5033-.257.0095-.514-.0318-.7546-.1214-.2411-.0897-.4621-.2259-.6505-.4011-.1883-.1751-.3403-.3857-.4472-.6196s-.1667-.4866-.1759-.7437c-.0088-.0976-.0088-.1958 0-.2935 0-2.3216 3.2022-3.4868 4.9452-3.4868z"/><path d="m121.795 16.2027c-.327-.5626-.482-1.2091-.444-1.859v-5.64832c.036-.72355-.107-1.44486-.418-2.09921-.29-.5296-.725-.96493-1.255-1.25418-.586-.2861-1.233-.42646-1.885-.40917-.836-.0208-1.66.1943-2.379.62065s-1.304 1.04669-1.686 1.78988h-.276l-.445-2.25932h-3.851v.64933h1.948v8.61034c.015.4903-.033.9805-.143 1.4587-.045.1835-.136.3528-.263.4926-.127.1397-.287.2456-.466.308-.345.1252-.71.1855-1.076.1779v.7916h6.173v-.8005c-.237.0125-.473-.0282-.691-.119-.219-.0908-.414-.2295-.572-.4058-.28-.549-.4-1.1653-.347-1.779v-3.2822c-.119-1.20651.042-2.42415.471-3.55801.25-.4336.613-.79149 1.05-1.03576.437-.24428.932-.36586 1.432-.35185.343-.03483.688.0307.995.18861.306.1579.56.4014.731.70088.302.942.444 1.92841.418 2.91753v4.0739c.046.503.046 1.0091 0 1.5121-.018.1795-.076.3527-.17.5067s-.221.2848-.373.3828c-.302.1691-.642.2579-.987.258v.8005h5.95v-.7916c-.747-.0534-1.236-.2313-1.458-.5782"/><path d="m93.8833 4.2749c-.199.08255-.3724.21678-.5022.3888-.1298.17201-.2113.37558-.2361.58965-.0978.50701-.2935.80944-.5514.88949-.2947.07726-.6063.05856-.8895-.05337-1.1251-.95426-2.5745-1.43846-4.0472-1.35203-1.2298-.09586-2.4475.2997-3.3862 1.10001-.9387.8003-1.5218 1.94007-1.6217 3.16956v.56038c0 2.66851 1.0229 3.90491 3.2556 4.37631.1423 0 .1423.1779 0 .1957-1.8769.3469-3.558.8895-3.558 2.7129-.0017.4256.1293.841.3749 1.1886.2455.3476.5933.6099.9949.7505 1.1897.4093 2.4424.6051 3.7003.5782.992-.0094 1.9838.0351 2.9709.1334.5772.0522 1.133.2446 1.6189.5604.2104.1733.376.3948.4828.6456s.1517.5236.1309.7954c-.0089.4271-.1402.8427-.3783 1.1975-.238.3547-.5729.6337-.9648.8039-1.0496.5149-2.2122.7566-3.3801.7027-1.0793.0782-2.1581-.1598-3.1043-.685-.2783-.1935-.49-.4683-.6062-.7867s-.1313-.6649-.0431-.9922c.0852-.2549.0668-.533-.0514-.7744-.1182-.2413-.3266-.4265-.5802-.5154h-.1334c-.2049-.0261-.413.005-.6014.0897-.1883.0848-.3496.22-.466.3906-.2051.3461-.3012.746-.2757 1.1475.0227.5763.2385 1.1282.6128 1.567.3743.4389.8853.7391 1.4508.8524 1.1124.3546 2.275.5258 3.4423.507 1.3464.0628 2.6889-.1869 3.9227-.7294.732-.3075 1.358-.8226 1.8006-1.4817.4426-.6592.6824-1.4335.69-2.2275.0347-.7669-.1705-1.5255-.5871-2.1703-1.2453-1.7079-3.0065-1.4766-6.9736-1.6723-1.9035 0-2.2771-.338-2.2771-.8895 0-.8895.7027-1.2008 3.4423-1.6189 2.7397-.418 5.2569-1.4143 5.2569-4.71427.0083-.80696-.1618-1.60578-.4981-2.33937.5122.14217 1.0534.14217 1.5655 0 .2366-.06371.4575-.1756.6488-.32866s.349-.344.4631-.56084c.1211-.16557.2032-.35639.2402-.55817.0369-.20178.0278-.40931-.0267-.60706-.2313-.73828-.6761-1.00513-1.3521-.80055m-6.1375 9.09952c-1.6188 0-2.5884-.5871-2.5884-3.87819 0-2.32158.8094-4.0472 2.5884-4.0472 2.0281 0 2.5796 1.57441 2.5796 3.99383 0 3.43346-1.0941 3.93156-2.5796 3.93156z"/></g></svg>