<svg xmlns="http://www.w3.org/2000/svg" width="128" height="43" viewBox="0 0 128 43" fill="none">
  <path d="M0 0.130371V42.3521H42.2218V0.130371H0ZM21.1081 36.7661C12.5397 36.7661 5.586 29.8125 5.586 21.244C5.586 12.6755 12.5397 5.71637 21.1081 5.71637C29.6766 5.71637 36.6358 12.6645 36.6358 21.2385C36.6358 29.8125 29.6821 36.7661 21.1081 36.7661Z" fill="white"/>
  <path d="M18.6746 15.8283V26.1215H19.7292V26.6543H16.1425V26.1215H17.3839V16.3391H17.3564L14.4233 26.841H14.0498L10.985 15.9656H10.9575V26.1215H12.1988V26.6543H9.50195V26.1215H10.4467V15.8283H9.50195V15.301H12.1439L14.643 24.3364L17.1532 15.301H19.7292V15.8283H18.6746Z" fill="white"/>
  <path d="M26.5623 26.1213L23.9973 15.1086H23.1075L20.2128 26.1213H19.7295V26.6541H21.9979V26.1213H20.7676L21.6354 22.7489H24.3378L25.1178 26.1213H23.8874V26.6541H27.507V26.1213H26.5623ZM21.7892 22.2051L23.08 17.3167L24.2225 22.2051H21.7892ZM28.4023 17.5968C28.3639 16.339 29.2757 15.4821 30.1051 15.4821C31.2146 15.4821 32.0989 16.4488 32.3241 18.2669H32.6976V15.7678C32.0439 15.3723 30.9344 15.0977 30.2314 15.0977C28.8418 15.0977 27.3862 16.0534 27.4521 18.2339C27.5784 22.1612 32.1483 21.0626 32.2417 24.133C32.2911 25.6655 31.4013 26.4289 30.4071 26.4289C28.8802 26.4289 28.0453 25.2315 27.886 23.2267H27.5125V26.1213C28.254 26.5662 29.5338 26.8079 30.3467 26.8079C32.0055 26.8079 33.2798 25.9621 33.2084 23.5453C33.0711 19.2666 28.4902 20.442 28.4023 17.5968Z" fill="white"/>
  <path d="M55.7173 31.4491C54.1904 31.4491 53.7125 33.031 53.7125 34.0526C53.7125 35.0743 54.1904 36.6561 55.7173 36.6561C57.2443 36.6561 57.7221 35.0743 57.7221 34.0526C57.7221 33.031 57.2443 31.4491 55.7173 31.4491ZM55.7173 36.4035C54.7067 36.4035 54.6957 35.1182 54.6957 34.0526C54.6957 32.9871 54.7067 31.7183 55.7173 31.7183C56.728 31.7183 56.7389 32.9926 56.7389 34.0526C56.7389 35.1127 56.728 36.4035 55.7173 36.4035ZM60.1499 29.1752C59.5017 29.1752 58.7932 29.4608 58.7932 30.5593V31.5645H58.0627V31.8171H58.7932V36.2826H58.0627V36.5298H60.3641V36.2771H59.672V31.8171H60.4959V31.5645H59.672V30.4385C59.672 29.8343 59.7324 29.4278 60.1993 29.4278C60.5343 29.4278 60.6552 29.6695 60.6552 30.1034C60.6552 30.4275 60.776 30.5813 61.0616 30.5813C61.2813 30.5813 61.4351 30.4275 61.4351 30.1584C61.4351 29.3674 60.6662 29.1752 60.1499 29.1752ZM64.0716 30.7735C64.0716 29.9771 64.7527 29.4278 65.3459 29.4278C66.1478 29.4278 66.763 30.043 66.8838 31.1965H67.1584L67.109 29.6091C66.6421 29.3564 65.9556 29.1862 65.4502 29.1862C64.4506 29.1862 63.374 29.7904 63.374 31.18C63.374 33.6791 66.6916 32.9816 66.6916 34.9314C66.6916 35.9036 66.0379 36.3925 65.3184 36.3925C64.2144 36.3925 63.5443 35.629 63.4784 34.3547H63.2147L63.2752 36.2002C63.8024 36.4804 64.6813 36.6342 65.2635 36.6342C66.4609 36.6342 67.4001 36.0959 67.4001 34.5579C67.4001 31.8336 64.0716 32.5861 64.0716 30.7735ZM69.4708 36.2826V31.5645H67.8505V31.8171H68.5975V36.2826H67.8505V36.5353H70.2068V36.2826H69.4708ZM69.0314 29.3894C68.7293 29.3894 68.4986 29.6091 68.4986 29.9936C68.4986 30.3506 68.7513 30.6033 69.0314 30.6033C69.3115 30.6033 69.5697 30.3616 69.5697 29.9936C69.5697 29.6256 69.317 29.3894 69.0314 29.3894ZM74.6943 36.2771V32.8827C74.6943 31.8666 74.2659 31.4546 73.4255 31.4546C72.717 31.4546 72.2007 31.8391 71.937 32.5257H71.9205V31.5645H70.3002V31.8281H71.0472V36.2826H70.3002V36.5353H72.5961V36.2826H71.9205V33.6517C71.9205 32.7069 72.3215 31.8171 73.1234 31.8171C73.7276 31.8171 73.81 32.3719 73.81 32.9321V36.2826H73.1344V36.5298H75.3699V36.2771H74.6943ZM79.0719 31.8171C79.374 31.8171 79.0829 32.4872 79.5388 32.4872C79.7365 32.4872 79.8519 32.295 79.8519 32.0423C79.8519 31.6524 79.5663 31.4546 79.3026 31.4546C79.0115 31.4546 78.8193 31.6359 78.6655 31.8666C78.3744 31.5535 77.9405 31.4491 77.4846 31.4491C76.7541 31.4491 76.0785 32.0313 76.0785 32.9816C76.0785 33.4265 76.1389 33.6901 76.3696 34.0526C75.9521 34.2339 75.6006 34.6019 75.6006 35.1951C75.6006 35.7883 75.9357 36.2222 76.4629 36.3595V36.3705C76.0455 36.4639 75.6226 36.755 75.6226 37.3427C75.6226 38.5401 76.8969 38.7598 77.6329 38.7598C78.5666 38.7598 79.6981 38.3039 79.6981 36.9363C79.6981 35.8158 79.0719 35.3873 78.1986 35.3873H76.7101C76.2268 35.3873 75.9302 35.3159 75.9302 34.9424C75.9302 34.6019 76.3146 34.3053 76.5728 34.3053C76.8639 34.5085 77.2154 34.6184 77.5724 34.6184C78.3854 34.6184 79.028 33.9922 79.028 32.998C79.0335 32.696 78.9621 32.3939 78.8138 32.1192C78.8138 31.9984 78.9676 31.8171 79.0719 31.8171ZM78.0888 36.3815C78.9017 36.3815 79.3466 36.5243 79.3466 37.1999C79.3466 37.9194 78.649 38.4852 77.7482 38.4852C76.8474 38.4852 76.2487 38.2105 76.2487 37.3921C76.2487 36.4529 76.8859 36.3815 78.0888 36.3815ZM77.545 34.3547C76.9243 34.3547 76.8969 33.4759 76.8969 32.9376C76.8969 32.3115 76.9463 31.7073 77.5724 31.7073C78.1986 31.7073 78.2041 32.4927 78.2041 33.0694C78.2041 33.6077 78.1492 34.3547 77.545 34.3547ZM83.6473 35.6015V32.9211C83.6473 32.0808 83.3507 31.4491 82.016 31.4491C81.3294 31.4491 80.3572 31.6743 80.3572 32.6465C80.3572 32.9486 80.5275 33.02 80.7527 33.02C81.0218 33.02 81.1756 32.8552 81.1756 32.4927C81.1756 31.8556 81.5821 31.7073 82.016 31.7073C82.5817 31.7073 82.763 32.1632 82.763 32.8552V33.2837C81.6809 33.6791 80.1155 33.6901 80.1155 35.2061C80.1155 36.1288 80.4286 36.6561 81.3184 36.6561C81.8842 36.6561 82.3785 36.4804 82.7135 35.8762C82.8563 36.4804 83.1914 36.5353 83.6638 36.5353H84.3229V36.2826C83.8395 36.2826 83.6473 36.3705 83.6473 35.6015ZM82.763 34.7392C82.763 35.4313 82.4279 36.3101 81.6809 36.3101C81.2141 36.3101 81.0932 35.7938 81.0932 35.1786C81.0932 34.1845 81.4777 33.9647 81.994 33.8L82.763 33.5693V34.7392ZM87.2999 31.4491C86.7287 31.4491 86.3167 31.6359 86.0421 32.262H86.0311V31.5645H84.4327V31.8281H85.1523V38.5071H84.3833V38.7598H86.7726V38.5071H86.0311V35.9586H86.0421C86.2343 36.4419 86.6682 36.6561 87.1571 36.6561C88.5028 36.6561 89.0685 35.4203 89.0685 34.0526C89.0685 32.1906 88.2117 31.4491 87.2999 31.4491ZM87.0253 36.3376C86.1519 36.3376 86.0036 35.2885 86.0036 34.4096V33.5803C86.0036 32.0808 86.6298 31.7677 87.0253 31.7677C87.8272 31.7677 88.0963 32.7619 88.0963 34.0526C88.0963 35.5027 87.7118 36.3376 87.0253 36.3376ZM91.683 31.4491C90.1506 31.4491 89.6782 33.031 89.6782 34.0526C89.6782 35.0743 90.1506 36.6561 91.683 36.6561C93.2154 36.6561 93.6823 35.0743 93.6823 34.0526C93.6823 33.031 93.2099 31.4491 91.683 31.4491ZM91.683 36.4035C90.6669 36.4035 90.6559 35.1182 90.6559 34.0526C90.6559 32.9871 90.6669 31.7183 91.683 31.7183C92.6991 31.7183 92.7046 32.9926 92.7046 34.0526C92.7046 35.1127 92.6936 36.4035 91.683 36.4035ZM96.8516 31.4546C96.1924 31.4546 95.8519 32.0808 95.6651 32.6685H95.6487V31.5645H94.0283V31.8171H94.7753V36.2826H94.0283V36.5353H96.3627V36.2826H95.6487V34.0032C95.6487 32.9102 96.132 31.8666 96.6099 31.8666C96.7307 31.8666 96.8186 31.9599 96.8186 32.1027V32.5751C96.8186 32.8882 96.9944 32.9926 97.225 32.9926C97.5271 32.9926 97.67 32.6959 97.67 32.3664C97.67 31.7787 97.3569 31.4546 96.8516 31.4546ZM99.9329 36.3431C98.8234 36.3431 98.7795 35.3379 98.7795 33.9208V33.7395H101.658C101.658 32.3829 100.982 31.4656 99.8066 31.4656C98.5488 31.4656 97.8018 32.6905 97.8018 34.0526C97.8018 35.4148 98.3181 36.6561 99.6638 36.6561C100.625 36.6561 101.152 36.2991 101.526 35.1237L101.273 35.0578C101.037 35.7444 100.674 36.3431 99.9329 36.3431ZM99.7132 31.7183C100.587 31.7183 100.625 32.7289 100.625 33.4539H98.785C98.785 32.8278 98.9717 31.7183 99.7132 31.7183ZM61.1825 19.6565V19.4038H59.2491L57.7111 24.0506L57.3651 25.1656L57.041 24.0725L55.4921 19.4038H53.5093V19.6565H54.3222V26.3904H53.5093V26.6431H55.5361V26.3904H54.6023V19.8322H54.6243L56.9202 26.7639H57.1015L59.4029 19.8322H59.4193V26.3904H58.4581V26.6431H61.1825V26.3904H60.3915V19.6565H61.1825ZM63.6212 21.5624C62.0942 21.5624 61.6164 23.1388 61.6164 24.1659C61.6164 25.193 62.0942 26.7639 63.6212 26.7639C65.1481 26.7639 65.626 25.1875 65.626 24.1659C65.626 23.1443 65.1536 21.5624 63.6212 21.5624ZM63.6212 26.5113C62.6106 26.5113 62.5996 25.226 62.5996 24.1659C62.5996 23.1058 62.6106 21.8261 63.6212 21.8261C64.6318 21.8261 64.6428 23.1003 64.6428 24.1659C64.6428 25.2315 64.6373 26.5113 63.6212 26.5113ZM70.3606 26.3904V22.9905C70.3606 21.9744 69.9377 21.5624 69.0973 21.5624C68.3888 21.5624 67.8725 21.9469 67.6088 22.6335H67.5869V21.6723H65.972V21.9359H66.719V26.3904H65.9665V26.6431H68.268V26.3904H67.5869V23.754C67.5869 22.8147 67.9933 21.9249 68.7897 21.9249C69.3994 21.9249 69.4818 22.4797 69.4818 23.0399V26.3904H68.8007V26.6431H71.0362V26.3904H70.3606ZM73.5189 26.4508C72.4039 26.4508 72.3654 25.4457 72.3654 24.0286V23.8473H75.2381C75.2381 22.4907 74.5625 21.5734 73.3871 21.5734C72.1293 21.5734 71.3823 22.7982 71.3823 24.1604C71.3823 25.5226 71.8986 26.7639 73.2443 26.7639C74.2055 26.7639 74.7328 26.4069 75.1063 25.2315L74.8536 25.1601C74.6174 25.8521 74.2549 26.4508 73.5189 26.4508ZM73.2937 21.8261C74.167 21.8261 74.2055 22.8367 74.2055 23.5672H72.3654C72.3654 22.9356 72.5577 21.8261 73.2937 21.8261ZM78.1052 25.7313C77.9624 26.0554 77.7977 26.341 77.4846 26.341C77.144 26.341 77.0616 26.0554 77.0616 25.4567V21.9249H78.0228V21.6832H77.0616V20.3376H76.1883V21.6832H75.4907V21.9249H76.1883V25.4567C76.1883 26.1048 76.2597 26.7035 77.1605 26.7035C77.8306 26.7035 78.1437 26.3575 78.3359 25.8247L78.1052 25.7313Z" fill="white"/>
  <path d="M81.8565 25.7149V23.029C81.8565 22.1887 81.5653 21.5625 80.2251 21.5625C79.5386 21.5625 78.5664 21.7822 78.5664 22.7544C78.5664 23.062 78.7421 23.1279 78.9618 23.1279C79.2365 23.1279 79.3848 22.9686 79.3848 22.6061C79.3848 21.969 79.7912 21.8152 80.2251 21.8152C80.7964 21.8152 80.9776 22.271 80.9776 22.9686V23.3915C79.8956 23.787 78.3247 23.798 78.3247 25.314C78.3247 26.2367 78.6378 26.764 79.5276 26.764C80.0988 26.764 80.5932 26.5882 80.9282 25.9841C81.0655 26.5937 81.4006 26.6432 81.8784 26.6432H82.532V26.3905C82.0487 26.3905 81.8565 26.4784 81.8565 25.7149ZM80.9776 24.8526C80.9776 25.5392 80.6426 26.418 79.8956 26.418C79.4287 26.418 79.3079 25.9017 79.3079 25.2865C79.3079 24.2923 79.6924 24.0726 80.2087 23.9078L80.9776 23.6772V24.8526ZM86.1023 21.914C86.1023 21.914 86.0803 21.8811 86.0638 21.8646C85.9265 21.6669 85.7013 21.5625 85.4157 21.5625C84.7621 21.5625 84.416 22.1887 84.2348 22.7764H84.2128V21.6724H82.5925V21.925H83.345V26.3905H82.598V26.6432H84.9323V26.3905H84.2128V24.1111C84.2128 23.018 84.7016 21.9744 85.174 21.9744C85.2948 21.9744 85.3882 22.0678 85.3882 22.2106V22.683C85.3882 22.9961 85.5585 23.1004 85.7947 23.1004C86.0968 23.1004 86.2396 22.8093 86.2396 22.4743C86.2396 22.2491 86.1901 22.0623 86.1023 21.914Z" fill="white"/>
  <path d="M89.041 21.6725V21.9197H89.8703L88.9805 24.6715C88.8597 25.023 88.7663 25.4185 88.7663 25.4185H88.7389C88.7389 25.4185 88.6784 25.034 88.5576 24.6495L87.7063 21.9142H88.4972V21.6725H86.064V21.9142H86.7121L88.305 26.6433L88.1402 27.2585C87.9095 28.1703 87.5854 28.5767 87.3218 28.5767C87.0581 28.5767 87.0252 28.3131 87.0252 28.0494C87.0252 27.7858 86.9648 27.5221 86.6517 27.5221C86.399 27.5221 86.2617 27.7363 86.2617 28.0879C86.2617 28.5273 86.5418 28.9392 87.0581 28.9392C88.1896 28.9392 88.3324 27.3848 88.5851 26.6433L90.167 21.9197H90.7821L90.7931 21.6725H89.041ZM96.9009 26.3907L94.8082 19.2832H94.583L92.5617 26.3907H91.8312V26.6433H93.8086V26.3907H92.8748L93.5229 24.0728H95.1597L95.8189 26.3907H94.9181V26.6433H97.6918V26.3907H96.9009ZM93.5834 23.8091L94.1107 21.9581L94.3194 21.0573H94.3743L94.572 21.9581L95.0883 23.8091H93.5834ZM101.443 26.3907V21.6835H99.79V21.9252H100.564V24.5671C100.564 25.5063 100.164 26.3961 99.3616 26.3961C98.7684 26.3961 98.675 25.8414 98.675 25.2866V21.6835H97.1151V21.9252H97.8017V25.3361C97.8017 26.3467 98.2191 26.7642 99.0705 26.7642C99.7681 26.7642 100.284 26.3797 100.559 25.6931H100.57V26.6433H102.185V26.3907H101.443ZM104.92 25.7315C104.777 26.0556 104.613 26.3412 104.299 26.3412C103.953 26.3412 103.877 26.0556 103.877 25.4569V21.9252H104.838V21.6835H103.877V20.3378H103.003V21.6835H102.306V21.9252H103.003V25.4569C103.003 26.105 103.075 26.7037 103.975 26.7037C104.646 26.7037 104.959 26.3577 105.151 25.8249L104.92 25.7315Z" fill="white"/>
  <path d="M109.468 26.3904V22.9905C109.468 21.9744 109.045 21.5624 108.204 21.5624C107.496 21.5624 106.98 21.9469 106.716 22.6335H106.694V19.4038H105.079V19.6565H105.826V26.3904H105.079V26.6431H107.375V26.3904H106.694V23.754C106.694 22.8147 107.1 21.9249 107.902 21.9249C108.506 21.9249 108.589 22.4797 108.589 23.0399V26.3904H107.913V26.6376H110.149V26.3904H109.468ZM112.494 21.5624C110.967 21.5624 110.489 23.1388 110.489 24.1604C110.489 25.182 110.967 26.7639 112.494 26.7639C114.021 26.7639 114.499 25.182 114.499 24.1604C114.499 23.1388 114.021 21.5624 112.494 21.5624ZM112.494 26.5113C111.483 26.5113 111.473 25.226 111.473 24.1604C111.473 23.0948 111.483 21.8261 112.494 21.8261C113.505 21.8261 113.516 23.1003 113.516 24.1604C113.516 25.2205 113.505 26.5113 112.494 26.5113ZM117.663 21.5624C117.004 21.5624 116.663 22.1886 116.482 22.7763H116.46V21.6723H114.839V21.9249H115.586V26.3904H114.839V26.6431H117.179V26.3904H116.46V24.111C116.46 23.018 116.949 21.9744 117.421 21.9744C117.542 21.9744 117.635 22.0677 117.635 22.2105V22.6829C117.635 22.996 117.806 23.1003 118.042 23.1003C118.344 23.1003 118.487 22.8092 118.487 22.4742C118.487 21.8865 118.168 21.5624 117.663 21.5624ZM120.173 26.3904V21.6723H118.553V21.9249H119.305V26.3904H118.553V26.6431H120.914V26.3904H120.173ZM119.739 19.4972C119.437 19.4972 119.201 19.7169 119.201 20.1014C119.201 20.4584 119.453 20.7111 119.739 20.7111C120.025 20.7111 120.277 20.4694 120.277 20.1014C120.277 19.7334 120.025 19.4972 119.739 19.4972ZM123.655 25.7313C123.518 26.0554 123.353 26.3355 123.04 26.3355C122.694 26.3355 122.612 26.0554 122.612 25.4567V21.9249H123.573V21.6832H122.612V20.3376H121.744V21.6832H121.046V21.9249H121.744V25.4567C121.744 26.1048 121.815 26.7035 122.716 26.7035C123.386 26.7035 123.699 26.3575 123.891 25.8247L123.655 25.7313Z" fill="white"/>
  <path d="M125.347 27.2585C125.116 28.1648 124.792 28.5767 124.529 28.5767C124.265 28.5767 124.238 28.3131 124.238 28.0494C124.238 27.7858 124.177 27.5221 123.864 27.5221C123.611 27.5221 123.469 27.7363 123.469 28.0879C123.469 28.5218 123.754 28.9392 124.265 28.9392C125.397 28.9392 125.539 27.3793 125.792 26.6433L127.368 21.9197H127.989L128 21.678H126.248V21.9197H127.077L126.187 24.6715C126.067 25.0285 125.973 25.4185 125.973 25.4185H125.946C125.946 25.4185 125.885 25.034 125.765 24.6495L124.913 21.9197H125.704V21.678H123.276V21.9197H123.924L125.512 26.6433L125.353 27.264L125.347 27.2585Z" fill="white"/>
</svg>