<svg fill="none" height="43" viewBox="0 0 128 43" width="128" xmlns="http://www.w3.org/2000/svg"><g fill="#fff"><path d="m0 .130371v42.221729h42.2218v-42.221729zm21.1081 36.635729c-8.5684 0-15.5221-6.9536-15.5221-15.5221s6.9537-15.52763 15.5221-15.52763c8.5685 0 15.5277 6.94813 15.5277 15.52213s-6.9537 15.5276-15.5277 15.5276z"/><path d="m18.6746 15.8283v10.2932h1.0546v.5328h-3.5867v-.5328h1.2414v-9.7824h-.0275l-2.9331 10.5019h-.3735l-3.0648-10.8754h-.0275v10.1559h1.2413v.5328h-2.69685v-.5328h.94475v-10.2932h-.94475v-.5273h2.64195l2.4991 9.0354 2.5102-9.0354h2.576v.5273z"/><path d="m26.5623 26.1213-2.565-11.0127h-.8898l-2.8947 11.0127h-.4833v.5328h2.2684v-.5328h-1.2303l.8678-3.3724h2.7024l.78 3.3724h-1.2304v.5328h3.6196v-.5328zm-4.7731-3.9162 1.2908-4.8884 1.1425 4.8884zm6.6131-4.6083c-.0384-1.2578.8734-2.1147 1.7028-2.1147 1.1095 0 1.9938.9667 2.219 2.7848h.3735v-2.4991c-.6537-.3955-1.7632-.6701-2.4662-.6701-1.3896 0-2.8452.9557-2.7793 3.1362.1263 3.9273 4.6962 2.8287 4.7896 5.8991.0494 1.5325-.8404 2.2959-1.8346 2.2959-1.5269 0-2.3618-1.1974-2.5211-3.2022h-.3735v2.8946c.7415.4449 2.0213.6866 2.8342.6866 1.6588 0 2.9331-.8458 2.8617-3.2626-.1373-4.2787-4.7182-3.1033-4.8061-5.9485z"/><path d="m55.7173 31.4491c-1.5269 0-2.0048 1.5819-2.0048 2.6035 0 1.0217.4779 2.6035 2.0048 2.6035 1.527 0 2.0048-1.5818 2.0048-2.6035 0-1.0216-.4778-2.6035-2.0048-2.6035zm0 4.9544c-1.0106 0-1.0216-1.2853-1.0216-2.3509 0-1.0655.011-2.3343 1.0216-2.3343 1.0107 0 1.0216 1.2743 1.0216 2.3343 0 1.0601-.0109 2.3509-1.0216 2.3509zm4.4326-7.2283c-.6482 0-1.3567.2856-1.3567 1.3841v1.0052h-.7305v.2526h.7305v4.4655h-.7305v.2472h2.3014v-.2527h-.6921v-4.46h.8239v-.2526h-.8239v-1.126c0-.6042.0604-1.0107.5273-1.0107.335 0 .4559.2417.4559.6756 0 .3241.1208.4779.4064.4779.2197 0 .3735-.1538.3735-.4229 0-.791-.7689-.9832-1.2852-.9832zm3.9217 1.5983c0-.7964.6811-1.3457 1.2743-1.3457.8019 0 1.4171.6152 1.5379 1.7687h.2746l-.0494-1.5874c-.4669-.2527-1.1534-.4229-1.6588-.4229-.9996 0-2.0762.6042-2.0762 1.9938 0 2.4991 3.3176 1.8016 3.3176 3.7514 0 .9722-.6537 1.4611-1.3732 1.4611-1.104 0-1.7741-.7635-1.84-2.0378h-.2637l.0605 1.8455c.5272.2802 1.4061.434 1.9883.434 1.1974 0 2.1366-.5383 2.1366-2.0763 0-2.7243-3.3285-1.9718-3.3285-3.7844zm5.3992 5.5091v-4.7181h-1.6203v.2526h.747v4.4655h-.747v.2527h2.3563v-.2527zm-.4394-6.8932c-.3021 0-.5328.2197-.5328.6042 0 .357.2527.6097.5328.6097s.5383-.2417.5383-.6097-.2527-.6042-.5383-.6042zm5.6629 6.8877v-3.3944c0-1.0161-.4284-1.4281-1.2688-1.4281-.7085 0-1.2248.3845-1.4885 1.0711h-.0165v-.9612h-1.6203v.2636h.747v4.4545h-.747v.2527h2.2959v-.2527h-.6756v-2.6309c0-.9448.401-1.8346 1.2029-1.8346.6042 0 .6866.5548.6866 1.115v3.3505h-.6756v.2472h2.2355v-.2527zm4.3776-4.46c.3021 0 .011.6701.4669.6701.1977 0 .3131-.1922.3131-.4449 0-.3899-.2856-.5877-.5493-.5877-.2911 0-.4833.1813-.6371.412-.2911-.3131-.725-.4175-1.1809-.4175-.7305 0-1.4061.5822-1.4061 1.5325 0 .4449.0604.7085.2911 1.071-.4175.1813-.769.5493-.769 1.1425s.3351 1.0271.8623 1.1644v.011c-.4174.0934-.8403.3845-.8403.9722 0 1.1974 1.2743 1.4171 2.0103 1.4171.9337 0 2.0652-.4559 2.0652-1.8235 0-1.1205-.6262-1.549-1.4995-1.549h-1.4885c-.4833 0-.7799-.0714-.7799-.4449 0-.3405.3844-.6371.6426-.6371.2911.2032.6426.3131.9996.3131.813 0 1.4556-.6262 1.4556-1.6204.0055-.302-.0659-.6041-.2142-.8788 0-.1208.1538-.3021.2581-.3021zm-.9831 4.5644c.8129 0 1.2578.1428 1.2578.8184 0 .7195-.6976 1.2853-1.5984 1.2853s-1.4995-.2747-1.4995-1.0931c0-.9392.6372-1.0106 1.8401-1.0106zm-.5438-2.0268c-.6207 0-.6481-.8788-.6481-1.4171 0-.6261.0494-1.2303.6755-1.2303.6262 0 .6317.7854.6317 1.3621 0 .5383-.0549 1.2853-.6591 1.2853zm6.1023 1.2468v-2.6804c0-.8403-.2966-1.472-1.6313-1.472-.6866 0-1.6588.2252-1.6588 1.1974 0 .3021.1703.3735.3955.3735.2691 0 .4229-.1648.4229-.5273 0-.6371.4065-.7854.8404-.7854.5657 0 .747.4559.747 1.1479v.4285c-1.0821.3954-2.6475.4064-2.6475 1.9224 0 .9227.3131 1.45 1.2029 1.45.5658 0 1.0601-.1757 1.3951-.7799.1428.6042.4779.6591.9503.6591h.6591v-.2527c-.4834 0-.6756.0879-.6756-.6811zm-.8843-.8623c0 .6921-.3351 1.5709-1.0821 1.5709-.4668 0-.5877-.5163-.5877-1.1315 0-.9941.3845-1.2139.9008-1.3786l.769-.2307zm4.5369-3.2901c-.5712 0-.9832.1868-1.2578.8129h-.011v-.6975h-1.5984v.2636h.7196v6.679h-.769v.2527h2.3893v-.2527h-.7415v-2.5485h.011c.1922.4833.6261.6975 1.115.6975 1.3457 0 1.9114-1.2358 1.9114-2.6035 0-1.862-.8568-2.6035-1.7686-2.6035zm-.2746 4.8885c-.8734 0-1.0217-1.0491-1.0217-1.928v-.8293c0-1.4995.6262-1.8126 1.0217-1.8126.8019 0 1.071.9942 1.071 2.2849 0 1.4501-.3845 2.285-1.071 2.285zm4.6577-4.8885c-1.5324 0-2.0048 1.5819-2.0048 2.6035 0 1.0217.4724 2.6035 2.0048 2.6035s1.9993-1.5818 1.9993-2.6035c0-1.0216-.4724-2.6035-1.9993-2.6035zm0 4.9544c-1.0161 0-1.0271-1.2853-1.0271-2.3509 0-1.0655.011-2.3343 1.0271-2.3343s1.0216 1.2743 1.0216 2.3343c0 1.0601-.011 2.3509-1.0216 2.3509zm5.1686-4.9489c-.6592 0-.9997.6262-1.1865 1.2139h-.0164v-1.104h-1.6204v.2526h.747v4.4655h-.747v.2527h2.3344v-.2527h-.714v-2.2794c0-1.093.4833-2.1366.9612-2.1366.1208 0 .2087.0933.2087.2361v.4724c0 .3131.1758.4175.4064.4175.3021 0 .445-.2967.445-.6262 0-.5877-.3131-.9118-.8184-.9118zm3.0813 4.8885c-1.1095 0-1.1534-1.0052-1.1534-2.4223v-.1813h2.8785c0-1.3566-.676-2.2739-1.8514-2.2739-1.2578 0-2.0048 1.2249-2.0048 2.587 0 1.3622.5163 2.6035 1.862 2.6035.9612 0 1.4882-.357 1.8622-1.5324l-.253-.0659c-.236.6866-.599 1.2853-1.3401 1.2853zm-.2197-4.6248c.8738 0 .9118 1.0106.9118 1.7356h-1.84c0-.6261.1867-1.7356.9282-1.7356zm-38.5307-12.0618v-.2527h-1.9334l-1.538 4.6468-.346 1.115-.3241-1.0931-1.5489-4.6687h-1.9828v.2527h.8129v6.7339h-.8129v.2527h2.0268v-.2527h-.9338v-6.5582h.022l2.2959 6.9317h.1813l2.3014-6.9317h.0164v6.5582h-.9612v.2527h2.7244v-.2527h-.791v-6.7339zm2.4387 1.9059c-1.527 0-2.0048 1.5764-2.0048 2.6035s.4778 2.598 2.0048 2.598c1.5269 0 2.0048-1.5764 2.0048-2.598s-.4724-2.6035-2.0048-2.6035zm0 4.9489c-1.0106 0-1.0216-1.2853-1.0216-2.3454s.011-2.3398 1.0216-2.3398 1.0216 1.2742 1.0216 2.3398-.0055 2.3454-1.0216 2.3454zm6.7394-.1209v-3.3999c0-1.0161-.4229-1.4281-1.2633-1.4281-.7085 0-1.2248.3845-1.4885 1.0711h-.0219v-.9612h-1.6149v.2636h.747v4.4545h-.7525v.2527h2.3015v-.2527h-.6811v-2.6364c0-.9393.4064-1.8291 1.2028-1.8291.6097 0 .6921.5548.6921 1.115v3.3505h-.6811v.2527h2.2355v-.2527zm3.1583.0604c-1.115 0-1.1535-1.0051-1.1535-2.4222v-.1813h2.8727c0-1.3566-.6756-2.2739-1.851-2.2739-1.2578 0-2.0048 1.2248-2.0048 2.587s.5163 2.6035 1.862 2.6035c.9612 0 1.4885-.357 1.862-1.5324l-.2527-.0714c-.2362.692-.5987 1.2907-1.3347 1.2907zm-.2252-4.6247c.8733 0 .9118 1.0106.9118 1.7411h-1.8401c0-.6316.1923-1.7411.9283-1.7411zm4.8115 3.9052c-.1428.3241-.3075.6097-.6206.6097-.3406 0-.423-.2856-.423-.8843v-3.5318h.9612v-.2417h-.9612v-1.3456h-.8733v1.3456h-.6976v.2417h.6976v3.5318c0 .6481.0714 1.2468.9722 1.2468.6701 0 .9832-.346 1.1754-.8788z"/><path d="m81.8565 25.7149v-2.6859c0-.8403-.2912-1.4665-1.6314-1.4665-.6865 0-1.6587.2197-1.6587 1.1919 0 .3076.1757.3735.3954.3735.2747 0 .423-.1593.423-.5218 0-.6371.4064-.7909.8403-.7909.5713 0 .7525.4558.7525 1.1534v.4229c-1.082.3955-2.6529.4065-2.6529 1.9225 0 .9227.3131 1.45 1.2029 1.45.5712 0 1.0656-.1758 1.4006-.7799.1373.6096.4724.6591.9502.6591h.6536v-.2527c-.4833 0-.6755.0879-.6755-.6756zm-.8789-.8623c0 .6866-.335 1.5654-1.082 1.5654-.4669 0-.5877-.5163-.5877-1.1315 0-.9942.3845-1.2139.9008-1.3787l.7689-.2306zm5.1247-2.9386s-.022-.0329-.0385-.0494c-.1373-.1977-.3625-.3021-.6481-.3021-.6536 0-.9997.6262-1.1809 1.2139h-.022v-1.104h-1.6203v.2526h.7525v4.4655h-.747v.2527h2.3343v-.2527h-.7195v-2.2794c0-1.0931.4888-2.1367.9612-2.1367.1208 0 .2142.0934.2142.2362v.4724c0 .3131.1703.4174.4065.4174.3021 0 .4449-.2911.4449-.6261 0-.2252-.0495-.412-.1373-.5603z"/><path d="m89.041 21.6725v.2472h.8293l-.8898 2.7518c-.1208.3515-.2142.747-.2142.747h-.0274s-.0605-.3845-.1813-.769l-.8513-2.7353h.7909v-.2417h-2.4332v.2417h.6481l1.5929 4.7291-.1648.6152c-.2307.9118-.5548 1.3182-.8184 1.3182-.2637 0-.2966-.2636-.2966-.5273 0-.2636-.0604-.5273-.3735-.5273-.2527 0-.39.2142-.39.5658 0 .4394.2801.8513.7964.8513 1.1315 0 1.2743-1.5544 1.527-2.2959l1.5819-4.7236h.6151l.011-.2472zm7.8599 4.7182-2.0927-7.1075h-.2252l-2.0213 7.1075h-.7305v.2526h1.9774v-.2526h-.9338l.6481-2.3179h1.6368l.6592 2.3179h-.9008v.2526h2.7737v-.2526zm-3.3175-2.5816.5273-1.851.2087-.9008h.0549l.1977.9008.5163 1.851zm7.8596 2.5816v-4.7072h-1.653v.2417h.774v2.6419c0 .9392-.4 1.829-1.2024 1.829-.5932 0-.6866-.5547-.6866-1.1095v-3.6031h-1.5599v.2417h.6866v3.4109c0 1.0106.4174 1.4281 1.2688 1.4281.6976 0 1.2135-.3845 1.4885-1.0711h.011v.9502h1.615v-.2526zm3.477-.6592c-.143.3241-.307.6097-.621.6097-.346 0-.422-.2856-.422-.8843v-3.5317h.961v-.2417h-.961v-1.3457h-.874v1.3457h-.697v.2417h.697v3.5317c0 .6481.072 1.2468.972 1.2468.671 0 .984-.346 1.176-.8788z"/><path d="m109.468 26.3904v-3.3999c0-1.0161-.423-1.4281-1.264-1.4281-.708 0-1.224.3845-1.488 1.0711h-.022v-3.2297h-1.615v.2527h.747v6.7339h-.747v.2527h2.296v-.2527h-.681v-2.6364c0-.9393.406-1.8291 1.208-1.8291.604 0 .687.5548.687 1.115v3.3505h-.676v.2472h2.236v-.2472zm3.026-4.828c-1.527 0-2.005 1.5764-2.005 2.598s.478 2.6035 2.005 2.6035 2.005-1.5819 2.005-2.6035-.478-2.598-2.005-2.598zm0 4.9489c-1.011 0-1.021-1.2853-1.021-2.3509s.01-2.3343 1.021-2.3343 1.022 1.2742 1.022 2.3343-.011 2.3509-1.022 2.3509zm5.169-4.9489c-.659 0-1 .6262-1.181 1.2139h-.022v-1.104h-1.621v.2526h.747v4.4655h-.747v.2527h2.34v-.2527h-.719v-2.2794c0-1.093.489-2.1366.961-2.1366.121 0 .214.0933.214.2361v.4724c0 .3131.171.4174.407.4174.302 0 .445-.2911.445-.6261 0-.5877-.319-.9118-.824-.9118zm2.51 4.828v-4.7181h-1.62v.2526h.752v4.4655h-.752v.2527h2.361v-.2527zm-.434-6.8932c-.302 0-.538.2197-.538.6042 0 .357.252.6097.538.6097s.538-.2417.538-.6097-.252-.6042-.538-.6042zm3.916 6.2341c-.137.3241-.302.6042-.615.6042-.346 0-.428-.2801-.428-.8788v-3.5318h.961v-.2417h-.961v-1.3456h-.868v1.3456h-.698v.2417h.698v3.5318c0 .6481.071 1.2468.972 1.2468.67 0 .983-.346 1.175-.8788z"/><path d="m125.347 27.2585c-.231.9063-.555 1.3182-.818 1.3182-.264 0-.291-.2636-.291-.5273 0-.2636-.061-.5273-.374-.5273-.253 0-.395.2142-.395.5658 0 .4339.285.8513.796.8513 1.132 0 1.274-1.5599 1.527-2.2959l1.576-4.7236h.621l.011-.2417h-1.752v.2417h.829l-.89 2.7518c-.12.357-.214.747-.214.747h-.027s-.061-.3845-.181-.769l-.852-2.7298h.791v-.2417h-2.428v.2417h.648l1.588 4.7236-.159.6207z"/></g></svg>