<svg xmlns="http://www.w3.org/2000/svg" width="159" height="17" viewBox="0 0 159 17" fill="none">
  <path d="M81.1194 4.11227C81.281 4.32519 81.4231 4.55218 81.544 4.79051H81.5771C81.5771 4.79051 81.5495 4.36592 81.5495 3.72077V1.67505H82.713V6.72043H81.6543L79.8732 4.32181C79.6922 4.08797 79.5317 3.83891 79.3935 3.57741H79.3549C79.3962 3.95458 79.4146 4.33391 79.4101 4.71331V6.72043H78.2466V1.67505H79.3494L81.1194 4.11227Z" fill="white"/>
  <path d="M86.9424 5.66724H85.0345L84.6761 6.72043H83.4575L85.2882 1.67505H86.7274L88.5691 6.72043H87.3174L86.9424 5.66724ZM85.3599 4.71331H86.6006L86.391 4.1619C86.2227 3.69282 86.09 3.21174 85.994 2.72272H85.9609C85.8524 3.20621 85.7162 3.68305 85.5529 4.15087L85.3599 4.71331Z" fill="white"/>
  <path d="M89.6993 6.72043V2.68413H88.3208V1.67505H92.2523V2.68413H90.8463V6.72043H89.6993Z" fill="white"/>
  <path d="M94.1437 1.67505V6.72043H93.0078V1.67505H94.1437Z" fill="white"/>
  <path d="M95.1533 4.20053C95.1533 2.50219 96.0521 1.57031 97.5464 1.57031C99.0407 1.57031 99.9451 2.50219 99.9451 4.20053C99.9451 5.89887 99.0352 6.81972 97.5464 6.81972C96.0576 6.81972 95.1533 5.88784 95.1533 4.20053ZM96.3609 4.20053C96.3609 5.19307 96.7469 5.80513 97.5464 5.80513C98.346 5.80513 98.732 5.19307 98.732 4.20053C98.732 3.208 98.3405 2.59042 97.5464 2.59042C96.7524 2.59042 96.3609 3.21351 96.3609 4.21707V4.20053Z" fill="white"/>
  <path d="M103.826 4.11227C103.985 4.32599 104.125 4.5529 104.245 4.79051H104.284C104.284 4.79051 104.284 4.36592 104.284 3.72077V1.67505H105.447V6.72043H104.383L102.602 4.32181C102.421 4.08797 102.26 3.83891 102.122 3.57741H102.089C102.13 3.95458 102.149 4.33391 102.144 4.71331V6.72043H100.948V1.67505H102.051L103.826 4.11227Z" fill="white"/>
  <path d="M109.649 5.66724H107.741L107.383 6.72043H106.164L107.989 1.67505H109.428L111.27 6.72043H110.018L109.649 5.66724ZM108.066 4.71331H109.307L109.103 4.1619C108.935 3.69282 108.802 3.21174 108.706 2.72272H108.673C108.564 3.20665 108.426 3.68357 108.259 4.15087L108.066 4.71331Z" fill="white"/>
  <path d="M113.178 1.67505V5.70584H115.147V6.72043H112.009V1.67505H113.178Z" fill="white"/>
  <path d="M120.666 4.1619C120.817 4.16758 120.965 4.20291 121.102 4.26586C121.239 4.32882 121.362 4.41816 121.465 4.52878C121.567 4.6394 121.647 4.76913 121.699 4.91055C121.751 5.05197 121.775 5.2023 121.769 5.35294C121.769 6.18005 121.218 6.73146 119.988 6.73146H117.926V1.67505H120.027C121.047 1.67505 121.593 2.14375 121.593 2.94329C121.613 3.21631 121.531 3.48721 121.363 3.70328C121.195 3.91934 120.953 4.06513 120.683 4.11227L120.666 4.1619ZM119.767 3.79246C120.164 3.79246 120.418 3.63806 120.418 3.24105C120.418 2.84403 120.17 2.68964 119.745 2.68964H119.1V3.79246H119.767ZM119.1 5.74444H119.922C120.363 5.74444 120.611 5.60659 120.611 5.19303C120.611 4.77948 120.38 4.64163 119.922 4.64163H119.1V5.74444Z" fill="white"/>
  <path d="M126.854 1.67505V5.03312C126.854 6.3951 125.894 6.81969 124.769 6.81969C123.644 6.81969 122.69 6.3951 122.69 5.03312V1.67505H123.854V4.71331C123.854 5.43014 124.041 5.86024 124.769 5.86024C125.497 5.86024 125.696 5.43014 125.696 4.70228V1.67505H126.854Z" fill="white"/>
  <path d="M130.834 6.72044C130.683 6.57377 130.587 6.37872 130.564 6.16903L130.377 5.4136C130.277 4.98901 130.079 4.91182 129.693 4.91182H129.197V6.69286H128.033V1.67505H130.018C131.121 1.67505 131.849 2.08309 131.849 3.21348C131.864 3.37001 131.847 3.52798 131.799 3.67776C131.751 3.82754 131.673 3.96599 131.57 4.08466C131.467 4.20333 131.341 4.29973 131.199 4.368C131.057 4.43626 130.903 4.47496 130.746 4.48172C130.958 4.49126 131.161 4.57478 131.318 4.7178C131.475 4.86081 131.577 5.0543 131.606 5.26472L131.865 6.20762C131.906 6.41392 132.004 6.60481 132.147 6.75903L130.834 6.72044ZM129.18 3.96339H129.952C130.415 3.96339 130.674 3.78143 130.674 3.3017C130.674 2.82198 130.432 2.64001 129.952 2.64001H129.208L129.18 3.96339Z" fill="white"/>
  <path d="M136.398 6.72043H133.013V1.67505H136.398V2.68413H134.193V3.68769H136.15V4.65265H134.193V5.70584H136.398V6.72043Z" fill="white"/>
  <path d="M140.396 5.66724H138.488L138.124 6.72043H136.911L138.736 1.67505H140.175L142.011 6.72043H140.765L140.396 5.66724ZM138.813 4.71331H140.054L139.877 4.1619C139.709 3.69282 139.576 3.21174 139.48 2.72272H139.447C139.338 3.20665 139.2 3.68357 139.034 4.15087L138.813 4.71331Z" fill="white"/>
  <path d="M146.699 1.67505V5.03312C146.699 6.3951 145.739 6.81969 144.614 6.81969C143.49 6.81969 142.536 6.3951 142.536 5.03312V1.67505H143.699V4.71331C143.699 5.43014 143.887 5.86024 144.614 5.86024C145.342 5.86024 145.541 5.43014 145.541 4.70228V1.67505H146.699Z" fill="white"/>
  <path d="M151.937 2.17124C152.173 2.14808 152.411 2.17592 152.635 2.25287C152.86 2.32982 153.065 2.45409 153.237 2.61724C153.409 2.7804 153.544 2.97863 153.633 3.19851C153.721 3.41838 153.762 3.65477 153.751 3.89163C153.761 4.58683 153.496 5.25772 153.012 5.75704C152.528 6.25637 151.866 6.54333 151.171 6.55494C150.935 6.57801 150.697 6.5503 150.473 6.47367C150.25 6.39704 150.045 6.27328 149.873 6.11073C149.701 5.94819 149.566 5.75065 149.477 5.53144C149.388 5.31224 149.347 5.07647 149.356 4.84006C149.349 4.14518 149.616 3.47537 150.099 2.9758C150.582 2.47623 151.242 2.18716 151.937 2.17124ZM151.937 2.33115C151.435 2.33115 151.016 3.05349 150.746 3.98537C150.614 4.44143 150.536 4.91158 150.514 5.38595C150.514 5.93736 150.652 6.41157 151.132 6.41157C151.612 6.41157 152.058 5.68371 152.317 4.75734C152.46 4.30143 152.542 3.82861 152.56 3.35125C152.56 2.79433 152.439 2.33115 151.959 2.33115H151.937Z" fill="white"/>
  <path d="M156.249 2.25367H157.269L157.175 2.47975H156.205L155.273 6.28998C154.898 7.81186 154.17 8.37981 153.018 8.4129C153.569 8.17028 153.861 7.31008 154.209 5.76614L154.964 2.50732H154.413L154.44 2.41909L154.992 2.23713L155.085 1.90628C155.482 0.638043 156.188 0.0314941 157.263 0.0314941C157.953 0.0314941 158.427 0.312712 158.427 0.792438C158.421 0.891116 158.396 0.987658 158.352 1.07618C158.308 1.1647 158.247 1.24334 158.171 1.30732C158.096 1.37129 158.008 1.41926 157.914 1.44829C157.819 1.47732 157.72 1.48681 157.622 1.47618C157.525 1.4846 157.428 1.47112 157.337 1.43675C157.247 1.40238 157.165 1.34801 157.098 1.27768C157.258 1.25573 157.403 1.17422 157.506 1.04947C157.608 0.924727 157.659 0.765956 157.649 0.604959C157.649 0.329255 157.523 0.163832 157.263 0.163832C156.828 0.163832 156.596 0.571874 156.359 1.73535L156.249 2.25367Z" fill="white"/>
  <path d="M81.6267 15.1291H78.2466V10.0837H81.6267V11.0983H79.4211V12.1019H81.3731V13.0669H79.4211V14.12H81.6267V15.1291Z" fill="white"/>
  <path d="M86.8872 14.0871C86.6816 14.4733 86.3658 14.7896 85.9799 14.9958C85.594 15.202 85.1555 15.2888 84.7202 15.2451C83.3472 15.2451 82.4043 14.2967 82.4043 12.6149C82.4043 10.9331 83.3307 9.99568 84.8691 9.99568C85.3037 9.96071 85.7382 10.064 86.1105 10.2908C86.4829 10.5176 86.774 10.8562 86.9424 11.2584L85.8396 11.8098C85.801 11.5811 85.6809 11.3741 85.5015 11.2271C85.322 11.0801 85.0954 11.003 84.8636 11.0103C84.1026 11.0103 83.6394 11.6168 83.6394 12.6314C83.6394 13.646 84.0475 14.2084 84.8801 14.2084C85.1089 14.2122 85.3332 14.1447 85.5219 14.0152C85.7106 13.8858 85.8544 13.7009 85.9333 13.4861L86.8872 14.0871Z" fill="white"/>
  <path d="M87.4219 12.6146C87.4219 10.9163 88.3207 9.98438 89.8095 9.98438C91.2983 9.98438 92.2081 10.9163 92.2081 12.6146C92.2081 14.3129 91.3038 15.2338 89.8095 15.2338C88.3152 15.2338 87.4219 14.3019 87.4219 12.6146ZM88.6295 12.6146C88.6295 13.6071 89.0154 14.2137 89.8095 14.2137C90.6035 14.2137 91.0005 13.6071 91.0005 12.6146C91.0005 11.6221 90.609 11.0045 89.8095 11.0045C89.0099 11.0045 88.6295 11.6276 88.6295 12.6311V12.6146Z" fill="white"/>
  <path d="M96.096 12.5265C96.2548 12.7402 96.395 12.9671 96.5151 13.2047H96.5482C96.5482 13.2047 96.5482 12.7746 96.5482 12.135V10.0837H97.7117V15.1291H96.6475L94.8664 12.7305C94.6839 12.4977 94.5233 12.2485 94.3867 11.9861H94.3536C94.3906 12.3654 94.4071 12.7464 94.4032 13.1275V15.1291H93.2397V10.0837H94.3426L96.096 12.5265Z" fill="white"/>
  <path d="M98.6982 12.6146C98.6982 10.9163 99.597 9.98438 101.086 9.98438C102.575 9.98438 103.484 10.9163 103.484 12.6146C103.484 14.3129 102.58 15.2338 101.086 15.2338C99.5915 15.2338 98.6982 14.3019 98.6982 12.6146ZM99.9058 12.6146C99.9058 13.6071 100.292 14.2137 101.086 14.2137C101.88 14.2137 102.277 13.6071 102.277 12.6146C102.277 11.6221 101.885 11.0045 101.086 11.0045C100.286 11.0045 99.9058 11.6276 99.9058 12.6311V12.6146Z" fill="white"/>
  <path d="M106.721 13.9657L106.027 12.8077C105.872 12.5661 105.743 12.3093 105.641 12.0412H105.608C105.646 12.3244 105.663 12.6102 105.657 12.8959V15.1291H104.494V10.0837H105.69L106.639 11.7931C106.785 12.0232 106.906 12.2692 106.997 12.5265H107.03C107.129 12.2714 107.251 12.026 107.394 11.7931L108.354 10.0837H109.517V15.1291H108.359V12.8959C108.354 12.6104 108.369 12.3248 108.403 12.0412H108.37C108.269 12.3086 108.141 12.5653 107.99 12.8077L107.289 13.9657H106.721Z" fill="white"/>
  <path d="M111.987 10.0837V15.1291H110.824V10.0837H111.987Z" fill="white"/>
  <path d="M117.474 14.087C117.268 14.4732 116.952 14.7895 116.566 14.9957C116.18 15.2019 115.742 15.2887 115.306 15.245C113.939 15.245 112.996 14.2966 112.996 12.6148C112.996 10.933 113.922 9.99558 115.461 9.99558C115.894 9.96589 116.325 10.0728 116.694 10.3014C117.063 10.5299 117.351 10.8685 117.518 11.2693L116.415 11.8207C116.376 11.592 116.256 11.385 116.077 11.238C115.897 11.091 115.671 11.014 115.439 11.0212C114.672 11.0212 114.209 11.6277 114.209 12.6423C114.209 13.6569 114.623 14.2194 115.455 14.2194C115.684 14.2231 115.908 14.1556 116.097 14.0262C116.286 13.8967 116.43 13.7118 116.509 13.497L117.474 14.087Z" fill="white"/>
  <path d="M123.016 15.1291C122.869 14.9926 122.776 14.8092 122.751 14.6108L122.563 13.8554C122.459 13.4253 122.26 13.3481 121.874 13.3481H121.378V15.1291H120.214V10.0837H122.199C123.33 10.0837 124.036 10.4973 124.036 11.6277C124.05 11.7841 124.032 11.9417 123.984 12.0912C123.936 12.2406 123.858 12.3787 123.755 12.4972C123.652 12.6157 123.526 12.7121 123.385 12.7807C123.243 12.8492 123.09 12.8884 122.933 12.8959C123.135 12.909 123.328 12.9885 123.48 13.1221C123.633 13.2557 123.737 13.4359 123.776 13.6348L124.03 14.5722C124.074 14.7776 124.171 14.9678 124.311 15.1236L123.016 15.1291ZM121.361 12.3721H122.106C122.569 12.3721 122.828 12.1956 122.828 11.7159C122.828 11.2362 122.585 11.0542 122.106 11.0542H121.361V12.3721Z" fill="white"/>
  <path d="M128.579 15.1291H125.199V10.0837H128.579V11.0983H126.373V12.1019H128.298V13.0669H126.346V14.12H128.551L128.579 15.1291Z" fill="white"/>
  <path d="M130.256 13.5356C130.287 13.7631 130.4 13.9716 130.573 14.1218C130.747 14.2721 130.969 14.3538 131.199 14.3517C131.585 14.3517 131.866 14.1918 131.866 13.8499C131.866 13.5081 131.69 13.3702 131.028 13.1662C129.87 12.7968 129.374 12.3611 129.374 11.512C129.374 10.3761 130.267 9.99561 131.149 9.99561C132.186 9.99561 132.958 10.3485 133.057 11.308L131.905 11.6002C131.893 11.4183 131.81 11.2483 131.674 11.1274C131.537 11.0064 131.359 10.9445 131.177 10.9551C130.851 10.9551 130.592 11.1039 130.592 11.4293C130.592 11.7546 130.868 11.9145 131.458 12.0965C132.517 12.4273 133.057 12.7912 133.057 13.7507C133.057 14.8535 132.169 15.2505 131.1 15.2505C130.03 15.2505 129.445 14.9252 129.181 14.0154L130.256 13.5356Z" fill="white"/>
  <path d="M137.457 15.1291H134.077V10.0837H137.457V11.0983H135.251V12.1019H137.203V13.0669H135.251V14.12H137.457V15.1291Z" fill="white"/>
  <path d="M141.455 14.0869H139.547L139.188 15.1401H137.97L139.795 10.0947H141.234L143.076 15.1401H141.824L141.455 14.0869ZM139.878 13.1109H141.118L140.914 12.5595C140.745 12.0911 140.614 11.6098 140.523 11.1203H140.484C140.376 11.6058 140.24 12.0845 140.076 12.554L139.878 13.1109Z" fill="white"/>
  <path d="M146.621 15.1291C146.475 14.9926 146.382 14.8092 146.357 14.6108L146.164 13.8554C146.065 13.4253 145.866 13.3481 145.48 13.3481H144.984V15.1291H143.82V10.0837H145.805C146.936 10.0837 147.642 10.4973 147.642 11.6277C147.656 11.7841 147.638 11.9417 147.59 12.0912C147.542 12.2406 147.464 12.3787 147.361 12.4972C147.258 12.6157 147.132 12.7121 146.991 12.7807C146.849 12.8492 146.696 12.8884 146.539 12.8959C146.741 12.9083 146.933 12.9877 147.085 13.1216C147.236 13.2554 147.339 13.436 147.377 13.6348L147.636 14.5722C147.677 14.7785 147.774 14.9694 147.917 15.1236L146.621 15.1291ZM144.967 12.3721H145.712C146.175 12.3721 146.434 12.1956 146.434 11.7159C146.434 11.2362 146.191 11.0542 145.712 11.0542H144.967V12.3721Z" fill="white"/>
  <path d="M152.886 14.087C152.68 14.4732 152.364 14.7895 151.978 14.9957C151.592 15.2019 151.154 15.2887 150.719 15.245C149.351 15.245 148.408 14.2966 148.408 12.6148C148.408 10.933 149.335 9.99558 150.873 9.99558C151.306 9.96589 151.737 10.0728 152.106 10.3014C152.475 10.5299 152.763 10.8685 152.93 11.2693L151.827 11.8207C151.788 11.592 151.668 11.385 151.489 11.238C151.309 11.091 151.083 11.014 150.851 11.0212C150.084 11.0212 149.621 11.6277 149.621 12.6423C149.621 13.6569 150.035 14.2194 150.867 14.2194C151.096 14.2231 151.321 14.1556 151.509 14.0262C151.698 13.8967 151.842 13.7118 151.921 13.497L152.886 14.087Z" fill="white"/>
  <path d="M153.734 15.1291V10.0837H154.898V12.0633H156.833V10.0837H157.997V15.1291H156.833V13.0779H154.898V15.1291H153.734Z" fill="white"/>
  <path d="M26.0175 7.78446V7.74586C30.1089 7.78446 31.8018 6.18537 31.8018 4.64694C31.8018 2.93206 30.3516 1.59766 26.431 1.59766H10.9916C10.5339 1.59766 10.1149 2.01673 10.9916 2.18766C12.2819 2.53505 13.4619 4.66349 13.4619 9.32289V11.1315H13.4233L9.8557 4.11208C8.75289 1.90644 9.60757 2.41925 9.60757 1.86785C9.60757 1.59766 9.28224 1.59766 9.17196 1.59766H1.61215C1.38607 1.59766 0.818118 1.59766 0.818118 1.88439C0.818118 2.17112 1.17653 2.15458 1.40813 2.15458C1.68565 2.19761 1.9504 2.30085 2.18378 2.45708C2.41716 2.6133 2.61352 2.81871 2.75908 3.05889V9.43868C2.75908 11.3796 2.39515 14.3131 0.492787 14.6715C0.360449 14.7101 0.206055 14.7267 0.206055 14.9362C0.206055 15.1458 0.41559 15.2064 0.608583 15.2064H6.5638C7.1152 15.2064 7.1538 14.7267 6.4866 14.655C4.83237 14.4234 3.31048 12.6369 3.31048 7.19445V3.886L3.36563 3.8474L9.13336 14.5943C9.41458 15.1072 9.62411 15.9288 9.79505 15.9288C10.0541 15.8643 10.2918 15.7332 10.4843 15.5483C11.7071 14.4969 13.1946 13.8008 14.7853 13.5356C14.9728 13.5356 15.5628 13.497 15.5628 13.2269C15.5628 12.714 14.5151 13.1883 14.0188 12.2398V8.98653C14.0188 3.52207 15.5242 2.36963 16.4175 2.17112H16.5002C17.3714 2.29243 17.4155 3.01478 17.4155 7.10071V9.70336C17.4155 14.3848 17.3604 14.666 16.0646 14.666C15.8771 14.666 15.5132 14.666 15.5132 14.9693C15.5132 15.2726 15.8385 15.2174 16.0094 15.2174H26.6847C30.4508 15.2174 32.1602 13.464 32.1602 11.2363C32.1602 9.30634 30.8699 7.51978 26.0175 7.78446ZM23.0289 4.74068C23.0289 2.26486 23.1998 2.15458 24.4735 2.15458C25.7473 2.15458 25.9789 2.4744 25.9789 4.09554V5.9593C25.9789 7.02351 25.6536 7.53632 23.9607 7.53632H23.0289V4.74068ZM25.9789 9.70336V12.5597C25.9789 14.4234 25.6205 14.655 24.4956 14.655C23.0895 14.655 23.0289 14.5558 23.0289 12.0082V8.08773H23.9221C25.7694 8.08773 25.9954 8.4682 25.9789 9.70336Z" fill="white"/>
  <path d="M46.8989 10.0285L46.4798 10.6406C45.5094 12.1404 43.5298 14.6383 41.5723 14.6383C40.6018 14.6383 40.1993 14.3681 40.1993 12.4327V8.02139H40.7507C42.0851 8.02139 43.1493 8.64999 43.1879 10.591C43.1879 11.5614 43.7393 11.4291 43.7393 10.817V4.91145C43.7393 4.41518 43.2817 4.2277 43.1879 5.04378C42.9619 6.9682 42.0851 7.48101 40.7507 7.48101H40.1993V4.33798C40.2765 2.45768 40.5412 2.13235 41.5888 2.13235C43.6235 2.13235 45.4928 4.62471 46.2152 6.31754C46.2703 6.46642 46.4633 7.00128 46.6894 7.00128C46.9154 7.00128 46.9375 6.76969 46.8438 6.12454L45.8347 0.897193C45.7575 0.268588 45.5259 0.268588 45.2447 0.610461C44.787 1.12327 44.1805 1.5258 41.7984 1.59748H33.1799C33.0089 1.59748 32.6836 1.59748 32.6836 1.84562C32.6836 2.09375 33.0475 2.1544 33.235 2.1544C34.5308 2.1544 34.586 2.41908 34.586 7.11708V9.71973C34.586 14.4012 34.5308 14.6824 33.235 14.6824C33.0475 14.6824 32.6836 14.6824 32.6836 14.9857C32.6836 15.2889 33.0089 15.2338 33.1799 15.2338H41.7984C45.0737 15.2338 45.2998 15.7852 45.7023 16.298C45.8733 16.5241 46.138 16.5627 46.2538 15.9727L47.4889 9.84655C47.4889 9.60944 47.1856 9.36131 46.8989 10.0285Z" fill="white"/>
  <path d="M65.2665 14.6384C64.0313 14.6384 62.129 10.966 62.0738 9.32831C62.0738 8.8541 62.0132 8.8927 61.3294 9.00298C60.5328 9.22982 59.698 9.29108 58.8768 9.18297C58.0555 9.07485 57.2651 8.79967 56.5542 8.37437V8.34129C59.1624 8.16484 63.4965 8.51222 63.4965 4.80125C63.4965 1.41009 59.791 1.58102 57.3703 1.58102H47.6876C47.5332 1.58102 47.2134 1.58102 47.2134 1.86776C47.2134 2.15449 47.4781 2.13795 47.6655 2.13795C48.8676 2.13795 48.9613 2.47982 48.9613 7.10062V9.70327C48.9613 14.313 48.8676 14.6659 47.6655 14.6659C47.4781 14.6659 47.2134 14.7045 47.2134 14.9306C47.2134 15.1567 47.5332 15.2173 47.6876 15.2173H55.8484C56.0028 15.2173 56.3282 15.2173 56.3282 14.9306C56.3282 14.6439 56.0635 14.6384 55.8705 14.6384C54.6684 14.6384 54.5747 14.2965 54.5747 9.6757V8.52877H55.887L58.1919 14.6384C58.3022 15.0354 58.3629 15.1898 58.7985 15.1898H65.2279C65.4044 15.1898 65.647 15.1898 65.647 14.9416C65.647 14.6935 65.4374 14.6384 65.2665 14.6384ZM54.5747 7.97184V5.2148C54.5747 2.20411 54.9 2.17103 56.1186 2.17103C57.3372 2.17103 57.7177 2.24823 57.7177 4.6634C57.7177 7.61343 57.2986 7.97184 56.0635 7.97184H54.5747Z" fill="white"/>
  <path d="M71.718 1.59766H70.5049V15.1623H71.718V1.59766Z" fill="white"/>
</svg>