<svg fill="none" height="17" viewBox="0 0 159 17" width="159" xmlns="http://www.w3.org/2000/svg"><g fill="#fff"><path d="m81.1194 4.11227c.1616.21292.3037.43991.4246.67824h.0331s-.0276-.42459-.0276-1.06974v-2.04572h1.1635v5.04538h-1.0587l-1.7811-2.39862c-.181-.23384-.3415-.4829-.4797-.7444h-.0386c.0413.37717.0597.7565.0552 1.1359v2.00712h-1.1635v-5.04538h1.1028z"/><path d="m86.9424 5.66724h-1.9079l-.3584 1.05319h-1.2186l1.8307-5.04538h1.4392l1.8417 5.04538h-1.2517zm-1.5825-.95393h1.2407l-.2096-.55141c-.1683-.46908-.301-.95016-.397-1.43918h-.0331c-.1085.48349-.2447.96033-.408 1.42815z"/><path d="m89.6993 6.72043v-4.0363h-1.3785v-1.00908h3.9315v1.00908h-1.406v4.0363z"/><path d="m94.1437 1.67505v5.04538h-1.1359v-5.04538z"/><path d="m95.1533 4.20053c0-1.69834.8988-2.63022 2.3931-2.63022s2.3987.93188 2.3987 2.63022-.9099 2.61919-2.3987 2.61919-2.3931-.93188-2.3931-2.61919zm1.2076 0c0 .99254.386 1.6046 1.1855 1.6046.7996 0 1.1856-.61206 1.1856-1.6046 0-.99253-.3915-1.61011-1.1856-1.61011-.794 0-1.1855.62309-1.1855 1.62665z"/><path d="m103.826 4.11227c.159.21372.299.44063.419.67824h.039s0-.42459 0-1.06974v-2.04572h1.163v5.04538h-1.064l-1.781-2.39862c-.181-.23384-.342-.4829-.48-.7444h-.033c.041.37717.06.7565.055 1.1359v2.00712h-1.196v-5.04538h1.103z"/><path d="m109.649 5.66724h-1.908l-.358 1.05319h-1.219l1.825-5.04538h1.439l1.842 5.04538h-1.252zm-1.583-.95393h1.241l-.204-.55141c-.168-.46908-.301-.95016-.397-1.43918h-.033c-.109.48393-.247.96085-.414 1.42815z"/><path d="m113.178 1.67505v4.03079h1.969v1.01459h-3.138v-5.04538z"/><path d="m120.666 4.1619c.151.00568.299.04101.436.10396.137.06296.26.1523.363.26292.102.11062.182.24035.234.38177s.076.29175.07.44239c0 .82711-.551 1.37852-1.781 1.37852h-2.062v-5.05641h2.101c1.02 0 1.566.4687 1.566 1.26824.02.27302-.062.54392-.23.75999-.168.21606-.41.36185-.68.40899zm-.899-.36944c.397 0 .651-.1544.651-.55141 0-.39702-.248-.55141-.673-.55141h-.645v1.10282zm-.667 1.95198h.822c.441 0 .689-.13785.689-.55141 0-.41355-.231-.5514-.689-.5514h-.822z"/><path d="m126.854 1.67505v3.35807c0 1.36198-.96 1.78657-2.085 1.78657s-2.079-.42459-2.079-1.78657v-3.35807h1.164v3.03826c0 .71683.187 1.14693.915 1.14693s.927-.4301.927-1.15796v-3.02723z"/><path d="m130.834 6.72044c-.151-.14667-.247-.34172-.27-.55141l-.187-.75543c-.1-.42459-.298-.50178-.684-.50178h-.496v1.78104h-1.164v-5.01781h1.985c1.103 0 1.831.40804 1.831 1.53843.015.15653-.002.3145-.05.46428s-.126.28823-.229.4069-.229.21507-.371.28334c-.142.06826-.296.10696-.453.11372.212.00954.415.09306.572.23608.157.14301.259.3365.288.54692l.259.9429c.041.2063.139.39719.282.55141zm-1.654-2.75705h.772c.463 0 .722-.18196.722-.66169 0-.47972-.242-.66169-.722-.66169h-.744z"/><path d="m136.398 6.72043h-3.385v-5.04538h3.385v1.00908h-2.205v1.00356h1.957v.96496h-1.957v1.05319h2.205z"/><path d="m140.396 5.66724h-1.908l-.364 1.05319h-1.213l1.825-5.04538h1.439l1.836 5.04538h-1.246zm-1.583-.95393h1.241l-.177-.55141c-.168-.46908-.301-.95016-.397-1.43918h-.033c-.109.48393-.247.96085-.413 1.42815z"/><path d="m146.699 1.67505v3.35807c0 1.36198-.96 1.78657-2.085 1.78657-1.124 0-2.078-.42459-2.078-1.78657v-3.35807h1.163v3.03826c0 .71683.188 1.14693.915 1.14693.728 0 .927-.4301.927-1.15796v-3.02723z"/><path d="m151.937 2.17124c.236-.02316.474.00468.698.08163.225.07695.43.20122.602.36437.172.16316.307.36139.396.58127.088.21987.129.45626.118.69312.01.6952-.255 1.36609-.739 1.86541-.484.49933-1.146.78629-1.841.7979-.236.02307-.474-.00464-.698-.08127-.223-.07663-.428-.20039-.6-.36294-.172-.16254-.307-.36008-.396-.57929-.089-.2192-.13-.45497-.121-.69138-.007-.69488.26-1.36469.743-1.86426s1.143-.78864 1.838-.80456zm0 .15991c-.502 0-.921.72234-1.191 1.65422-.132.45606-.21.92621-.232 1.40058 0 .55141.138 1.02562.618 1.02562s.926-.72786 1.185-1.65423c.143-.45591.225-.92873.243-1.40609 0-.55692-.121-1.0201-.601-1.0201z"/><path d="m156.249 2.25367h1.02l-.094.22608h-.97l-.932 3.81023c-.375 1.52188-1.103 2.08983-2.255 2.12292.551-.24262.843-1.10282 1.191-2.64676l.755-3.25882h-.551l.027-.08823.552-.18196.093-.33085c.397-1.268237 1.103-1.8747859 2.178-1.8747859.69 0 1.164.2812179 1.164.7609439-.006.098678-.031.19522-.075.283742-.044.08852-.105.16716-.181.23114-.075.06397-.163.11194-.257.14097-.095.02903-.194.03852-.292.02789-.097.00842-.194-.00506-.285-.03943-.09-.03437-.172-.08874-.239-.15907.16-.02195.305-.10346.408-.22821.102-.124743.153-.283514.143-.444511 0-.275704-.126-.441127-.386-.441127-.435 0-.667.408042-.904 1.571518z"/><path d="m81.6267 15.1291h-3.3801v-5.0454h3.3801v1.0146h-2.2056v1.0036h1.952v.965h-1.952v1.0531h2.2056z"/><path d="m86.8872 14.0871c-.2056.3862-.5214.7025-.9073.9087s-.8244.293-1.2597.2493c-1.373 0-2.3159-.9484-2.3159-2.6302s.9264-2.61922 2.4648-2.61922c.4346-.03497.8691.06832 1.2414.29512.3724.2268.6635.5654.8319.9676l-1.1028.5514c-.0386-.2287-.1587-.4357-.3381-.5827-.1795-.147-.4061-.2241-.6379-.2168-.761 0-1.2242.6065-1.2242 1.6211s.4081 1.577 1.2407 1.577c.2288.0038.4531-.0637.6418-.1932.1887-.1294.3325-.3143.4114-.5291z"/><path d="m87.4219 12.6146c0-1.6983.8988-2.63022 2.3876-2.63022s2.3986.93192 2.3986 2.63022-.9043 2.6192-2.3986 2.6192-2.3876-.9319-2.3876-2.6192zm1.2076 0c0 .9925.3859 1.5991 1.18 1.5991.794 0 1.191-.6066 1.191-1.5991s-.3915-1.6101-1.191-1.6101c-.7996 0-1.18.6231-1.18 1.6266z"/><path d="m96.096 12.5265c.1588.2137.299.4406.4191.6782h.0331s0-.4301 0-1.0697v-2.0513h1.1635v5.0454h-1.0642l-1.7811-2.3986c-.1825-.2328-.3431-.482-.4797-.7444h-.0331c.037.3793.0535.7603.0496 1.1414v2.0016h-1.1635v-5.0454h1.1029z"/><path d="m98.6982 12.6146c0-1.6983.8988-2.63022 2.3878-2.63022s2.398.93192 2.398 2.63022-.904 2.6192-2.398 2.6192c-1.4945 0-2.3878-.9319-2.3878-2.6192zm1.2076 0c0 .9925.3862 1.5991 1.1802 1.5991s1.191-.6066 1.191-1.5991-.392-1.6101-1.191-1.6101c-.8 0-1.1802.6231-1.1802 1.6266z"/><path d="m106.721 13.9657-.694-1.158c-.155-.2416-.284-.4984-.386-.7665h-.033c.038.2832.055.569.049.8547v2.2332h-1.163v-5.0454h1.196l.949 1.7094c.146.2301.267.4761.358.7334h.033c.099-.2551.221-.5005.364-.7334l.96-1.7094h1.163v5.0454h-1.158v-2.2332c-.005-.2855.01-.5711.044-.8547h-.033c-.101.2674-.229.5241-.38.7665l-.701 1.158z"/><path d="m111.987 10.0837v5.0454h-1.163v-5.0454z"/><path d="m117.474 14.087c-.206.3862-.522.7025-.908.9087s-.824.293-1.26.2493c-1.367 0-2.31-.9484-2.31-2.6302s.926-2.61922 2.465-2.61922c.433-.02969.864.07722 1.233.30582.369.2285.657.5671.824.9679l-1.103.5514c-.039-.2287-.159-.4357-.338-.5827-.18-.147-.406-.224-.638-.2168-.767 0-1.23.6065-1.23 1.6211s.414 1.5771 1.246 1.5771c.229.0037.453-.0638.642-.1932.189-.1295.333-.3144.412-.5292z"/><path d="m123.016 15.1291c-.147-.1365-.24-.3199-.265-.5183l-.188-.7554c-.104-.4301-.303-.5073-.689-.5073h-.496v1.781h-1.164v-5.0454h1.985c1.131 0 1.837.4136 1.837 1.544.014.1564-.004.314-.052.4635-.048.1494-.126.2875-.229.406s-.229.2149-.37.2835c-.142.0685-.295.1077-.452.1152.202.0131.395.0926.547.2262.153.1336.257.3138.296.5127l.254.9374c.044.2054.141.3956.281.5514zm-1.655-2.757h.745c.463 0 .722-.1765.722-.6562s-.243-.6617-.722-.6617h-.745z"/><path d="m128.579 15.1291h-3.38v-5.0454h3.38v1.0146h-2.206v1.0036h1.925v.965h-1.952v1.0531h2.205z"/><path d="m130.256 13.5356c.031.2275.144.436.317.5862.174.1503.396.232.626.2299.386 0 .667-.1599.667-.5018 0-.3418-.176-.4797-.838-.6837-1.158-.3694-1.654-.8051-1.654-1.6542 0-1.1359.893-1.51639 1.775-1.51639 1.037 0 1.809.35289 1.908 1.31239l-1.152.2922c-.012-.1819-.095-.3519-.231-.4728-.137-.121-.315-.1829-.497-.1723-.326 0-.585.1488-.585.4742 0 .3253.276.4852.866.6672 1.059.3308 1.599.6947 1.599 1.6542 0 1.1028-.888 1.4998-1.957 1.4998-1.07 0-1.655-.3253-1.919-1.2351z"/><path d="m137.457 15.1291h-3.38v-5.0454h3.38v1.0146h-2.206v1.0036h1.952v.965h-1.952v1.0531h2.206z"/><path d="m141.455 14.0869h-1.908l-.359 1.0532h-1.218l1.825-5.0454h1.439l1.842 5.0454h-1.252zm-1.577-.976h1.24l-.204-.5514c-.169-.4684-.3-.9497-.391-1.4392h-.039c-.108.4855-.244.9642-.408 1.4337z"/><path d="m146.621 15.1291c-.146-.1365-.239-.3199-.264-.5183l-.193-.7554c-.099-.4301-.298-.5073-.684-.5073h-.496v1.781h-1.164v-5.0454h1.985c1.131 0 1.837.4136 1.837 1.544.014.1564-.004.314-.052.4635-.048.1494-.126.2875-.229.406s-.229.2149-.37.2835c-.142.0685-.295.1077-.452.1152.202.0124.394.0918.546.2257.151.1338.254.3144.292.5132l.259.9374c.041.2063.138.3972.281.5514zm-1.654-2.757h.745c.463 0 .722-.1765.722-.6562s-.243-.6617-.722-.6617h-.745z"/><path d="m152.886 14.087c-.206.3862-.522.7025-.908.9087s-.824.293-1.259.2493c-1.368 0-2.311-.9484-2.311-2.6302s.927-2.61922 2.465-2.61922c.433-.02969.864.07722 1.233.30582.369.2285.657.5671.824.9679l-1.103.5514c-.039-.2287-.159-.4357-.338-.5827-.18-.147-.406-.224-.638-.2168-.767 0-1.23.6065-1.23 1.6211s.414 1.5771 1.246 1.5771c.229.0037.454-.0638.642-.1932.189-.1295.333-.3144.412-.5292z"/><path d="m153.734 15.1291v-5.0454h1.164v1.9796h1.935v-1.9796h1.164v5.0454h-1.164v-2.0512h-1.935v2.0512z"/><path d="m26.0175 7.78446v-.0386c4.0914.0386 5.7843-1.56049 5.7843-3.09892 0-1.71488-1.4502-3.04928-5.3708-3.04928h-15.4394c-.4577 0-.8767.41907 0 .59 1.2903.34739 2.4703 2.47583 2.4703 7.13523v1.80861h-.0386l-3.5676-7.01942c-1.10281-2.20564-.24813-1.69283-.24813-2.24423 0-.27019-.32533-.27019-.43561-.27019h-7.55981c-.22608 0-.794032 0-.794032.28673s.358412.27019.590012.27019c.27752.04303.54227.14627.77565.3025.23338.15622.42974.36163.5753.60181v6.37979c0 1.94092-.36393 4.87442-2.266293 5.23282-.132338.0386-.286732.0552-.286732.2647 0 .2096.209535.2702.402528.2702h5.955217c.5514 0 .59-.4797-.0772-.5514-1.65423-.2316-3.17612-2.0181-3.17612-7.46055v-3.30845l.05515-.0386 5.76773 10.7469c.28122.5129.49075 1.3345.66169 1.3345.25905-.0645.49675-.1956.68925-.3805 1.2228-1.0514 2.7103-1.7475 4.301-2.0127.1875 0 .7775-.0386.7775-.3087 0-.5129-1.0477-.0386-1.544-.9871v-3.25327c0-5.46446 1.5054-6.6169 2.3987-6.81541h.0827c.8712.12131.9153.84366.9153 4.92959v2.60265c0 4.68144-.0551 4.96264-1.3509 4.96264-.1875 0-.5514 0-.5514.3033s.3253.2481.4962.2481h10.6753c3.7661 0 5.4755-1.7534 5.4755-3.9811 0-1.92996-1.2903-3.71652-6.1427-3.45184zm-2.9886-3.04378c0-2.47582.1709-2.5861 1.4446-2.5861 1.2738 0 1.5054.31982 1.5054 1.94096v1.86376c0 1.06421-.3253 1.57702-2.0182 1.57702h-.9318zm2.95 4.96268v2.85634c0 1.8637-.3584 2.0953-1.4833 2.0953-1.4061 0-1.4667-.0992-1.4667-2.6468v-3.92047h.8932c1.8473 0 2.0733.38047 2.0568 1.61563z"/><path d="m46.8989 10.0285-.4191.6121c-.9704 1.4998-2.95 3.9977-4.9075 3.9977-.9705 0-1.373-.2702-1.373-2.2056v-4.41131h.5514c1.3344 0 2.3986.6286 2.4372 2.56961 0 .9704.5514.8381.5514.226v-5.90555c0-.49627-.4576-.68375-.5514.13233-.226 1.92442-1.1028 2.43723-2.4372 2.43723h-.5514v-3.14303c.0772-1.8803.3419-2.20563 1.3895-2.20563 2.0347 0 3.904 2.49236 4.6264 4.18519.0551.14888.2481.68374.4742.68374.226 0 .2481-.23159.1544-.87674l-1.0091-5.227347c-.0772-.628605-.3088-.628605-.59-.286732-.4577.512809-1.0642.915339-3.4463.987019h-8.6185c-.171 0-.4963 0-.4963.24814 0 .24813.3639.30878.5514.30878 1.2958 0 1.351.26468 1.351 4.96268v2.60265c0 4.68147-.0552 4.96267-1.351 4.96267-.1875 0-.5514 0-.5514.3033 0 .3032.3253.2481.4963.2481h8.6185c3.2753 0 3.5014.5514 3.9039 1.0642.171.2261.4357.2647.5515-.3253l1.2351-6.12615c0-.23711-.3033-.48524-.59.18195z"/><path d="m65.2665 14.6384c-1.2352 0-3.1375-3.6724-3.1927-5.31009 0-.47421-.0606-.43561-.7444-.32533-.7966.22684-1.6314.2881-2.4526.17999-.8213-.10812-1.6117-.3833-2.3226-.8086v-.03308c2.6082-.17645 6.9423.17093 6.9423-3.54004 0-3.39116-3.7055-3.22023-6.1262-3.22023h-9.6827c-.1544 0-.4742 0-.4742.28674 0 .28673.2647.27019.4521.27019 1.2021 0 1.2958.34187 1.2958 4.96267v2.60265c0 4.60973-.0937 4.96263-1.2958 4.96263-.1874 0-.4521.0386-.4521.2647s.3198.2867.4742.2867h8.1608c.1544 0 .4798 0 .4798-.2867s-.2647-.2922-.4577-.2922c-1.2021 0-1.2958-.3419-1.2958-4.9627v-1.14693h1.3123l2.3049 6.10963c.1103.397.171.5514.6066.5514h6.4294c.1765 0 .4191 0 .4191-.2482 0-.2481-.2096-.3032-.3805-.3032zm-10.6918-6.66656v-2.75704c0-3.01069.3253-3.04377 1.5439-3.04377s1.5991.0772 1.5991 2.49237c0 2.95003-.4191 3.30844-1.6542 3.30844z"/><path d="m71.718 1.59766h-1.2131v13.56464h1.2131z"/></g></svg>