<svg fill="none" height="19" viewBox="0 0 63 19" width="63" xmlns="http://www.w3.org/2000/svg"><g fill="#fff"><path d="m.428711.233128v18.243872h18.507689v-18.247752zm12.338489 12.163872h-6.16926v-6.08388h6.16926z"/><path d="m40.5325 12.3931v6.0838h-6.1692v-6.08c2.0486 0 4.1167 0 6.1692-.0038z"/><path d="m34.3633 12.3968c-2.0525 0-4.1205 0-6.1731-.0039v6.0839h-6.1692v-18.24389h6.1692v6.07999h6.1731c-.0194 2.02149 0 4.0624 0 6.0839z"/><path d="m40.5326.23291v6.07999c0 .30652-5.5368 0-6.1692 0 .0155-2.02149-.0156-4.0585 0-6.07999z"/><path d="m49.7869 6.3129c-2.0525-.01552-4.1206.01164-6.1692 0v-6.07999h6.1692c.0116 2.02149-.0194 4.0585 0 6.07999z"/><path d="m55.9554 12.3971c-2.0526-.0155-4.1206-.0155-6.1693 0 0-2.0215.0156-4.06238 0-6.08387 2.0487.0194 4.1167.0194 6.1693 0-.0194 2.02149 0 4.06237 0 6.08387z"/><path d="m62.1249.23291v6.07999c-2.0526.01164-4.1206-.01552-6.1693 0 .0155-2.02149-.0116-4.0585 0-6.07999z"/><path d="m49.7869 12.3972v6.0799h-6.1692v-6.0838c2.0486-.0078 4.1167.0194 6.1692.0039z"/><path d="m62.1248 12.3933v6.0838h-6.1692v-6.0799c2.0525.0155 4.1205-.0117 6.1692-.0039z"/></g></svg>