<svg fill="none" height="61" viewBox="0 0 175 61" width="175" xmlns="http://www.w3.org/2000/svg"><path d="m5.00942 20.5682c-.96141-.0511-1.46336.6042-1.51857 1.6379l-.0636 1.1611.08497.0043c.04249-.3276.08497-.3744.40833-.336l1.90985.0977h.02544.02977l.02112.0043h.02544.02137l.02111.0043h.01705l.02112.0043.01704.0044.01705.0043.01272.0043.01704.0084.01272.0043.01272.0084.0084.0084.01272.0127.00865.0087.00839.0127.00865.0127.0084.0128.00433.017.00432.0127.0084.0211.00432.0171.00433.0211v.0211l.00432.0211v.0257l.00433.0211v.0171.0127.0127.0128.017.0127l.0809.0043.06818-1.2165c.06818-1.3181-.75687-1.7008-1.33133-1.7308zm1.16138 1.8676v.0171.017l-.00432.0168v.0171.017l-.00433.0127v.0171l-.00432.0127-.00433.0084v.0127l-.00432.0127-.00433.0084-.00432.0087-.00433.0084-.00432.0086-.00433.0084-.00432.0043-.0084.0084-.00432.0044-.0084.0043-.00432.0043-.0084.0043-.00865.0044-.00865.0043h-.00839l-.01272.0043h-.00789-.01272-.0084-.01272-.01272-.01272l-2.1864-.115c-.08522-.0043-.16613-.0084-.15748-.2086.02977-.5444.15748-.7785.35312-.9741.28494-.285.63806-.3702.99958-.3488 1.25043.0641 1.19522 1.1232 1.17817 1.3997z" fill="#fff" stroke="#fff" stroke-miterlimit="10.433" stroke-width=".0023"/><path d="m11.9686 27.957.7912-9.7962c-.0725-3.837-1.3443-4.2028-1.3443-4.2028l4.9898-3.0072c4.7343 2.7309 7.542-.8507 7.542-.8507 4.1982 4.0197 7.7503.9273 7.7503.9273l5.2022 2.969c-1.6717 1.8078-1.4079 3.1307-1.4079 3.1307l.4294 10.7022-11.8339-8.7071z" stroke="#efd764" stroke-miterlimit="10.433" stroke-width=".0065"/><path d="m24.0705 39.4208.0043-.0044.0087-.0167.0211-.0257.0298-.0341.0384-.0468.0425-.0512.0595-.0595.0636-.0682.0766-.0766.085-.0809.0936-.0893.1063-.0936.1191-.0979.1277-.1021.1404-.1063.1532-.1063.1659-.1148.1742-.115.1913-.1147.2-.1193.217-.1191.2298-.1191.2424-.119.2595-.1148.2682-.119.2892-.1148.2977-.115.319-.1106.3318-.1064.3444-.102.3659-.102.3785-.0936s2.8543-.098 5.3727-4.0156l-10.8725-7.6946-10.6852 7.5801c2.6713 3.939 5.5385 4.0199 5.5385 4.0199 4.3896 1.5015 5.2019 2.969 5.2019 2.969z" stroke="#efd764" stroke-miterlimit="10.433" stroke-width=".0046"/><path d="m15.8271 32.2278h3.0713" stroke="#fff" stroke-miterlimit="10.433" stroke-width=".0043"/><path d="m18.7959 34.146h.247v-.804" stroke="#fff" stroke-miterlimit="10.433" stroke-width=".4693"/><path d="m17.0562 34.1461h.2976v-.1786" stroke="#fff" stroke-miterlimit="10.433" stroke-width=".4693"/><path d="m16.4995 33.1636v1.4931" stroke="#fff" stroke-miterlimit="10.433" stroke-width=".0043"/><path d="m19.2978 32.3936v-.0171l.0043-.0127.0043-.0168.0043-.017.0044-.0127.0086-.0128.0084-.0297.0127-.0255.0127-.0257.0171-.0254.0127-.0211.0171-.0211.017-.0214.0171-.0171.017-.0211.0211-.017.0171-.0127.017-.0171.017-.0127.0171-.0127.017-.0127.0171-.0084.017-.0128.0171-.0084.017-.0086.0127-.0084.0128-.0043.0127-.0043.0086-.0044.0128-.0043.0043-.0043.0084-.0043h.0043.0043c-.5152-.0601-.4131.4546-.4131.4546z" fill="#fff"/><path d="m20.7144 32.2363h6.6357" stroke="#fff" stroke-miterlimit="10.433" stroke-width=".0032"/><path d="m27.9497 32.1257h.0087.0043.0084.0043.0084.0043.0043l.0044-.0043h.0084.0043l.0043-.0043h.0043l.0087-.0043h.0043l.0084-.0043.0087-.0084.0084-.0044.0086-.0084.0084-.0043.0087-.0084.0084-.0084.0043-.0043.0086-.0087.0044-.0084.0086-.0083.0043-.0087.0043-.0043.0044-.0084.0043-.0087.0043-.0043.0043-.0043v-.0084l.0044-.0043v-.0044h.0043v-.0043-.0041h.0043v-.0043c-.1379.0257-.2058.1577-.2058.1577z" fill="#fff"/><path d="m31.1064 32.9426c.2679.5233 0 1.2677 0 1.2677" stroke="#fff" stroke-miterlimit="10.433" stroke-width=".0043"/><path d="m31.1278 31.1218c.2127.4465-.0765 1.1143-.0765 1.1143" stroke="#fff" stroke-miterlimit="10.433" stroke-width=".0043"/><path d="m29.5241 30.3518-.0382.0298-.0384.0297-.0381.0298-.0339.0341-.0341.0382-.034.034-.0298.0382-.0341.0425-.0257.0384-.0298.0468-.0297.0425-.0255.0468-.0257.0468-.0211.0512-.0214.0511-.0211.0511-.0211.0512-.0211.0552-.017.0552-.0171.0595-.017.0552-.0128.0596-.017.0638-.0127.0595-.0087.0639-.0127.0636-.0086.0639-.0087.0681-.0084.0636-.0086.0682-.0044.0725-.0043.068c-.0425.7444 0 1.3399.1448 1.8716.1786.6595.6464.9487.6464.9487" stroke="#fff" stroke-miterlimit="10.433" stroke-width=".0043"/><path d="m16.4644 15.6681.0297-.0043.0341-.0084.0298-.0043.0297-.0084.0298-.0087.0298-.004.0552-.0214.0554-.0171.0509-.0254.0512-.0214.0468-.0297.0425-.0255.0424-.0297.0425-.0298.0384-.0298.0341-.0297.0339-.0301.0341-.0338.0297-.0298.0255-.0341.0257-.0297.0254-.0298.0214-.0297.0214-.0255.0167-.03.0171-.0255.0127-.0211.013-.0213.0127-.0214.0084-.0171.0043-.0124.0084-.013v-.0041l.0043-.0043v-.0043l5.13-1.1825.1788.2" stroke="#fff" stroke-miterlimit="10.433" stroke-width=".5864"/><path d="m14.9038 14.9065.1575.4467-.0257-.4892z" fill="#fff"/><path d="m14.9038 14.9065.1575.4467-.0257-.4892z" stroke="#fff" stroke-miterlimit="10.433" stroke-width=".3517"/><path d="m31.3955 15.5322.0338.0087.0341.0043.0341.0043.0339.0044.0341.0043h.034.0298l.0341-.0043h.0298l.0297-.0044.0298-.0043.0298-.0084.0297-.0043.0298-.0084.0552-.0171.0552-.0257.0511-.0211.0512-.0297.0468-.0298.0468-.0298.0425-.0297.0425-.0341.0425-.0382.0338-.0341.0384-.0341.0298-.0381.0341-.0341.0254-.0341.0257-.0298.0255-.0341.0211-.0297.017-.0257.0171-.0255.017-.0211.0043-.0086.0044-.0084.0043-.0087.0043-.0084.0043-.0043.0044-.0086v-.0044h.0043v-.0043l.3572.0807c-.5361 1.0255-1.5527.5787-1.5527.5787z" fill="#fff"/><path d="m24.6704 14.3283.4933-.4465.5361.0893" stroke="#fff" stroke-miterlimit="10.433" stroke-width=".7823"/><path d="m23.577 15.4636-.0425 1.7186c-.0214.3574.3786.4467.3786.4467" stroke="#fff" stroke-miterlimit="10.433" stroke-width=".0072"/><path d="m16.3631 16.9016-.0086 4.228 2.1526-.017z" stroke="#fff" stroke-miterlimit="10.433" stroke-width=".5"/><path d="m16.1459 17.0759.0043 4.0327h-2.2757z" stroke="#fff" stroke-miterlimit="10.433" stroke-width=".5"/><path d="m15.4185 21.8742-.0127-.0127-.017-.0087-.0171-.0084-.0127-.0086-.0298-.0211-.0297-.0211-.0255-.0212-.0211-.0211-.0214-.0257-.0211-.0211-.0211-.0211-.017-.0257-.0171-.0211-.0127-.0211-.0127-.0257-.0127-.0211-.0128-.0212-.0091-.0221-.0084-.0211-.0084-.0214-.0087-.0173-.0043-.0211-.0086-.017-.0044-.0171-.0043-.0127-.0038-.017v-.0128l-.0043-.0086v-.0127-.0087l-.0044-.0043v-.0043-.0041l3.2031.0086c-.115.5234-.7147.9017-.7147.9017.404-.4254.3445-.7655.3445-.7655h-2.5054c-.1061.1317.0554.4042.0554.4042z" fill="#fff"/><path d="m31.4423 17.1694-.0129 4.0495h-2.1394z" stroke="#fff" stroke-miterlimit="10.433" stroke-width=".5"/><path d="m31.6294 17.1484.017 4.0624h2.25z" stroke="#fff" stroke-miterlimit="10.433" stroke-width=".5"/><path d="m16.3032 17.0974.0128-.0043h.017.0127l.0127-.0043.0128-.0044.017-.0043.0127-.0043.0128-.0043.0127-.0084.0127-.0044.0086-.0084.0128-.0086.0127-.0084.0086-.0087.0128-.0084.0086-.0127.0084-.0084.0087-.0127.0083-.0127.0087-.0084.0084-.0127.0043-.0127.0084-.0128.0043-.017.0087-.0127.0043-.0128v-.017l.0043-.0127.0044-.0171v-.0127l.0043-.017v-.0171c0-.1702-.132-.3063-.2849-.3063-.1575 0-.2852.1361-.2852.3063-.0006.17.1272.3104.2846.3104z" fill="#fff"/><path d="m31.506 17.1825h.017.0127l.0171-.0044h.0127l.0127-.0043.0127-.0043.0128-.0043.0127-.0044.0127-.0086.0127-.0084.0127-.0043.0128-.0087.0084-.0084.0129-.0086.0084-.0128.0127-.0086.0084-.0084.0084-.0127.0087-.0127.0084-.0128.0086-.0127.0044-.0127.0084-.0127.0043-.0127.0043-.0128.0043-.017.0044-.0127.0043-.0128v-.017l.0043-.017v-.0128-.017c0-.1702-.1234-.3063-.2849-.3063-.1532 0-.2809.1361-.2809.3063 0 .1704.1277.3066.2809.3066z" fill="#fff"/><path d="m24.0153 40.2897.8594-.0211.851-.0674.8342-.1053.8258-.1476.8088-.1852.7922-.2277.7795-.261.7582-.2992.7416-.3371.7205-.3663.6996-.4046.6785-.434.6571-.4678.632-.4972.6065-.5223.5816-.5563.5521-.5816.5266-.6065.4971-.632.4636-.6531.438-.6785.4002-.7037.3707-.7204.333-.7416.2992-.7584.2654-.7752.2233-.7963.1896-.809.1432-.8215.1094-.8383.0633-.8512.0212-.8594c0-9.2356-7.4871-16.72257-16.7227-16.72257-9.2399 0-16.72691 7.48697-16.72691 16.72257 0 9.2355 7.48731 16.7268 16.72721 16.7268z" stroke="#fff" stroke-miterlimit="10.433" stroke-width="2"/><path d="m24.0154 45.814 1.1443-.0298 1.1273-.0849 1.1143-.1405 1.0975-.1956 1.0762-.2509 1.0548-.2976 1.0337-.3488 1.0122-.3999.9826-.4465.9614-.4892.9316-.5358.9017-.5786.8718-.621.8424-.6594.8039-.7017.7742-.736.7358-.7741.7019-.8083.6594-.838.621-.8719.5785-.9016.5361-.936.4892-.957.4465-.9869.3999-1.008.3488-1.0336.2977-1.0591.2508-1.0762.1957-1.0932.1404-1.1143.085-1.1316.0298-1.1443c.0005-12.2854-9.9617-22.24754-22.2464-22.24754-12.2891 0-22.25124 9.96214-22.25124 22.24674 0 12.289 9.96214 22.2511 22.25124 22.2511z" stroke="#fff" stroke-miterlimit="10.433" stroke-width="2"/><g fill="#fff"><path d="m16.097 17.1636-2.2225 3.9453h2.2757l-.0041-3.9217c-.017-.0066-.033-.015-.0491-.0236z"/><path d="m29.511 21.4447h.0043v.0087l.0043.0043.0044.0127.0043.0084.0043.0128.0043.017.0087.0127.0084.0214.0086.017.0128.0212.0084.0211.0127.0211.0127.0211.017.0257.0128.0257.017.0254.0168.0255.0211.0257.0171.0254.0211.0257.0254.0298.0211.0257.0257.0254.0255.0298.0297.0257.0255.0254.0297.0255.0341.0256.0341.0255.0341.0257s-.0682-.3023.0382-.4679h2.5013s-.0384.2552-.4594.7953c0 0 .6253-.2893.7444-.9571l-3.3308-.017z"/><path d="m31.4421 17.3041c-.0216-.0033-.0425-.0084-.0631-.015l-2.089 3.9303h2.1396z"/><path d="m31.6846 17.2678-.0214.0084-.0168.0043-.0165.0067.0165 3.9237h2.25l-2.2039-3.9492z"/><path d="m11.9688 27.957 12.1189-8.8348 11.8339 8.7074-.4295-10.7022s-.2638-1.323 1.4079-3.1308l-5.2022-2.9689s-3.5518 3.0923-7.7503-.9274c0 0-2.8074 3.5816-7.542.8508l-4.9895 3.0068s1.2718.3659 1.3443 4.2029zm3.9093-11.166c0-.1172.0473-.2238.1237-.3012l-.0344-.0008c-1.2079-.6253-1.2804-1.7058-1.2804-1.7058l.6424-.1361c.9614 1.5016 1.9653.0552 1.9653.0552l5.3596-1.1272.8551.7571.3615-2.48.0211.0636.3318 2.4161.9357-.7317 5.3513 1.1698s.9868 1.459 1.9653-.0381l.638.1404s-.0806 1.0805-1.2931 1.6971l-.0323.0006c.0824.0778.1343.1875.1343.3101v.0211l-.0043.0211v.0214l-.0044.0211-.0043.0211-.0086.0211-.0044.0211-.0083.0171-.0087.0214-.0086.017-.0128.017-.0086.0171-.0127.017-.0036.0049 2.2709 4.0916s-2.1737 3.7177-5.0875.1489l2.1811-4.2072c-.07-.0766-.1137-.1794-.1137-.2933 0-.1186.0483-.2259.1256-.3033l-.1043.0013s-.9527-.2127-1.1911-1.1357h-5.4441l.2254 1.8503s-.0682.6678-.7147.6042c0 0-.536.0639-.7273-.5955l.0809-1.8801h-.0084l-5.4576.0211c-.2468.923-1.1868 1.0634-1.1868 1.0634l-.0774-.001c.0684.0758.1114.1761.1114.2867v.0257l-.0043.0211v.0214l-.0043.0211-.0043.0171-.0084.0211-.0044.0214-.0086.0168-.0084.0213-.0084.0173-.0127.0171-.0084.0168-.0127.017-.0023.0031 2.1503 4.2336c-2.9436 3.539-5.0875-.1957-5.0875-.1957l2.2785-4.0321c-.057-.072-.0921-.1628-.0921-.2641z"/><path d="m16.4949 17.1653-.017.013-.0171.0084-.0211.0043-.017.0084-.0214.0043-.0211.0044-.0178.0033-.0079 3.9184 2.1526-.0171-2.0101-3.9481z"/><path d="m7.61705 30.3306.57014 1.1229-.07225.0384c-.19565-.3444-.28927-.3106-.55309-.1445l-1.91851.9698.08497.187c.21269.4213.34015.4893.79962.3615l.04681.0937-.6635.3063-1.09728-2.165.64214-.3532.04681.0893c-.38289.298-.39561.4425-.18292.8635l.08929.2086 1.961-.9955c.27654-.132.32768-.217.17452-.5444z"/><path d="m7.61705 30.3306.57014 1.1229-.07225.0384c-.19565-.3444-.28927-.3106-.55309-.1445l-1.91851.9698.08497.187c.21269.4213.34015.4893.79962.3615l.04681.0937-.6635.3063-1.09728-2.165.64214-.3532.04681.0893c-.38289.298-.39561.4425-.18292.8635l.08929.2086 1.961-.9955c.27654-.132.32768-.217.17452-.5444z" stroke="#fff" stroke-miterlimit="10.433" stroke-width=".0023"/><path d="m7.34914 29.7734-.00433-.017-.00865-.0127-.00432-.0171-.00433-.0127-.00839-.0127-.00433-.0128-.00839-.0127-.00433-.0127-.00432-.0127-.0084-.0127-.00432-.0087-.00433-.0127-.0084-.0087-.00432-.0084-.01272-.017-.01272-.017-.01272-.0128-.01272-.0127-.01272-.0127-.01272-.0087-.01272-.0083-.01272-.0087-.01705-.0043-.01272-.0043-.01705-.0044-.01704-.0043h-.01705-.01679l-.01704.0043h-.01705l-.02112.0044-.02111.0043-.02112.0043-.02137.0043-.02544.0084-.02569.0084-.02544.0043-.02545.0084-.02976.0084-1.77375.5786c-.30198.0979-.32335.1658-.2511.4765l-.07658.0254-.37017-1.1357.08091-.0254c.12339.302.19131.3317.4849.2424l.79122-.2595-.41673-1.242-.79121.2595c-.28927.098-.31038.1659-.23813.4765l-.07658.0298-.37016-1.14.07657-.0257c.12746.3022.19565.3361.48491.2384l1.82056-.587c.26815-.0849.33607-.1531.25085-.4765l.07657-.0297.37017 1.14-.07658.0254c-.12746-.3401-.2254-.3233-.53171-.2254l-.79961.2595.42537 1.2591.84235-.2722c.25085-.1064.31471-.1746.22973-.502l.08091-.0257.36584 1.14z"/><path d="m7.34914 29.7734-.00433-.017-.00865-.0128-.00432-.017-.00433-.0127-.00839-.0127-.00433-.0128-.00839-.0127-.00433-.0127-.00432-.0127-.0084-.0127-.00432-.0087-.00433-.0127-.0084-.0087-.00432-.0084-.01272-.017-.01272-.0171-.01272-.0127-.01272-.0127-.01272-.0127-.01272-.0087-.01272-.0084-.01272-.0086-.01705-.0043-.01272-.0044-.01705-.0043-.01704-.0043h-.01705-.01679l-.01704.0043h-.01705l-.02112.0043-.02111.0044-.02112.0043-.02137.0043-.02544.0084-.02569.0084-.02544.0043-.02545.0084-.02976.0084-1.77375.5785c-.30198.098-.32335.1659-.2511.4766l-.07658.0254-.37017-1.1357.08091-.0254c.12339.302.19131.3317.4849.2384l.79122-.2552-.41673-1.242-.79121.2595c-.28927.0979-.31038.1658-.23813.4765l-.07658.0297-.37016-1.14.07657-.0257c.12746.3023.19565.3361.48491.2384l1.82056-.5869c.26815-.0896.33607-.1532.25085-.4765l.07657-.0298.37017 1.14-.07658.0255c-.12746-.3402-.2254-.3234-.53171-.2254l-.79961.2595.42537 1.259.84235-.2722c.25085-.1063.31471-.1745.22973-.5019l.08091-.0257.36584 1.14z" stroke="#fff" stroke-miterlimit="10.433" stroke-width=".0023"/><path d="m6.17949 24.4776.36151 2.2928-.08065.0127c-.05953-.2679-.11066-.3615-.43402-.2893l-1.88874.302c-.34015.0298-.3488.1361-.32768.4083l-.08065.0127-.35719-2.2543.60422-.1106.01705.1063c-.37017.1231-.41698.2468-.34447.719l.09362.5698c.01272.0937.02137.1405.16588.1191l.94437-.1488-.10635-.6551c-.05953-.3786-.16587-.404-.47651-.404l-.01704-.098.98685-.1575.01705.098c-.33175.1063-.38289.1786-.33175.5317l.09769.6551 1.05072-.1659c.17452-.0257.18292-.0297.0809-.6635-.08497-.5317-.24678-.723-.70599-.8423l-.01704-.1191z"/><path d="m6.17949 24.4776.36151 2.2928-.08065.0127c-.05953-.2679-.11066-.3615-.43402-.2893l-1.88874.302c-.34015.0298-.3488.1361-.32768.4083l-.08065.0127-.35719-2.2543.60422-.1106.01705.1063c-.37017.1231-.41698.2468-.34447.719l.09362.5698c.01272.0937.02137.1405.16588.1191l.94437-.1488-.10635-.6551c-.05953-.3786-.16587-.404-.47651-.404l-.01704-.098.98685-.1575.01705.098c-.33175.1063-.38289.1786-.33175.5317l.09769.6551 1.05072-.1659c.17452-.0257.18292-.0297.0809-.6635-.08497-.5317-.24678-.723-.70599-.8423l-.01704-.1191z" stroke="#fff" stroke-miterlimit="10.433" stroke-width=".0023"/><path d="m6.9538 18.2883-.48083 2.2716-.11067.017c.03816-.2765.02112-.3785-.30199-.4467l-1.86737-.3956c-.33607-.0682-.38288.0254-.45946.2892l-.08065-.017.47193-2.2373.60423.1148-.02112.102c-.38721-.0127-.47651.0809-.57853.5487l-.11906.5702c-.01705.0849-.02977.1404.11474.1699l.93597.1959.13611-.651c.08065-.3742-.01272-.4381-.30224-.5488l.01705-.0936.97846.2043-.02112.0977c-.34447-.0211-.41698.0298-.4933.3785l-.14476.6679 1.04232.1999c.17453.0341.1786.0341.31063-.5912.11067-.5274.02545-.7615-.35744-1.038l.02111-.1191z"/><path d="m6.9538 18.2883-.48083 2.2716-.11067.0127c.03816-.2722.02112-.3742-.30199-.4424l-1.86737-.3956c-.33607-.0682-.38288.0254-.45946.2892l-.08065-.017.47193-2.2373.60423.1148-.02112.102c-.38721-.0127-.47651.0809-.57853.5487l-.11906.5702c-.01705.0849-.02977.1404.11474.1699l.93597.1959.13611-.651c.08065-.3742-.01272-.4381-.30224-.5488l.01705-.0936.97846.2043-.02112.0977c-.34447-.0211-.41698.0298-.4933.3785l-.14476.6679 1.04232.1999c.17453.0341.1786.0341.31063-.5912.11067-.5274.02545-.7615-.35744-1.038l.02111-.1191z" stroke="#fff" stroke-miterlimit="10.433" stroke-width=".0023"/><path d="m12.5047 9.98503-.9017.87207-.0595-.0595c.2722-.2849.2127-.3615.0087-.5742l-1.4932-1.54399-.18721.14043c-.3404.32742-.37017.46786-.11067.86779l-.07225.07657-.49356-.54443 1.74829-1.68876.5274.51034-.0766.06818c-.3915-.27654-.5317-.25085-.8762.0809l-.1999.18292 1.5654 1.56105c.1999.2084.2979.2338.5658-.00839z"/><path d="m12.5047 9.98503-.9017.87207-.0595-.0595c.2722-.2849.2127-.3615.0087-.5742l-1.4932-1.54399-.18721.14043c-.3404.32742-.37017.46786-.11067.86779l-.07225.07657-.49356-.54443 1.74829-1.68876.5274.51034-.0766.06818c-.3915-.27654-.5317-.25085-.8762.0809l-.1999.18292 1.5654 1.56105c.1999.2084.2979.2338.5658-.00839z" stroke="#fff" stroke-miterlimit="10.433" stroke-width=".0023"/><path d="m14.3634 5.39952-.0211.01705-.0171.01704-.0211.01272-.017.01272-.0127.01705-.0171.01272-.0127.01272-.0127.01272-.0128.01705-.0127.01272-.0086.01272-.0127.01272-.0087.01272-.0043.01704-.0087.01272-.0043.01272-.0043.01705-.0043.01679v.01272.01705.01704.01705l.0043.02111.0043.01705.0043.02111.0044.02137.0083.02112.0087.02112.0043.01272.0084.01272.0043.01272.0044.01272.0084.01272.0043.01272.0084.01272.0043.01704 1.0718 1.58243c.2214.25517.3234.23405.5615.08955l.0468.06792-.9995.67648-.0469-.06818c.2723-.19997.2809-.28494.0809-.57853l-1.0804-1.60354-.0044.0084.4638 2.63745-.0511.03816-2.2034-1.34836-.0084.00432.9614 1.42062c.2508.37017.3785.39561.6464.23406l.0468.0636-.8423.5658-.0425-.06818c.2679-.20836.3361-.23813.0341-.68894l-.9741-1.44631c-.1914-.28087-.285-.2595-.5572-.09362l-.0468-.06793.706-.47651 2.0416 1.24635-.4294-2.33547.7103-.48058z"/><path d="m14.3634 5.39952-.0211.01705-.0171.01704-.0211.01272-.017.01272-.0127.01705-.0171.01272-.0127.01272-.0127.01272-.0128.01705-.0127.01272-.0086.01272-.0127.01272-.0087.01272-.0043.01704-.0087.01272-.0043.01272-.0043.01705-.0043.01679v.01272.01705.01704.01705l.0043.02111.0043.01705.0043.02111.0044.02137.0083.02112.0087.02112.0043.01272.0084.01272.0043.01272.0044.01272.0084.01272.0043.01272.0084.01272.0043.01704 1.0718 1.58243c.2214.25517.3234.23405.5615.08955l.0468.06792-.9995.67648-.0469-.06818c.2723-.19997.2809-.28494.0809-.57853l-1.0804-1.60354-.0044.0084.4638 2.63745-.0511.03816-2.2034-1.34836-.0084.00432.9614 1.42062c.2508.37017.3785.39561.6464.23406l.0468.0636-.8423.5658-.0425-.06818c.2679-.20836.3361-.23813.0341-.68894l-.9741-1.44631c-.1914-.28087-.285-.2595-.5572-.09362l-.0468-.06793.706-.47651 2.0416 1.24635-.4294-2.33547.7103-.48058z" stroke="#fff" stroke-miterlimit="10.433" stroke-width=".0023"/><path d="m20.7359 3.26424-.0255.00865-.0214.0084-.0211.00839-.0213.00865-.0212.0084-.0211.01272-.017.00865-.0171.00839-.017.00865-.0168.01272-.0127.01272-.0127.00865-.0128.01272-.0127.01705-.0127.01272-.0084.01705-.0094.01679-.0043.01704-.0087.02112-.0041.01704-.0043.02544v.00865.01272l-.0043.01272v.01273.01272.01704l.0043.01272v.01272.01705.01679l.0043.01272v.01704l.0044.01705.0043.02112.0043.01704.0043.01705v.02111l.0087.02137.0043.02112.0043.02111.0044.02112.0086.02137.5869 2.18639-.0722.01704-2.4416-1.78238h-.0084l.4381 1.62083c.115.42945.2297.49763.5361.42945l.0043.07657-.9742.26382-.0086-.07657c.3106-.10635.3829-.19132.2595-.64213l-.4933-1.83352c-.2254-.16155-.2977-.16588-.4635-.11907l-.0224-.07988.7103-.19132 2.1309 1.56945h.0087l-.3745-1.39085c-.1318-.47651-.2552-.47651-.5445-.42105l-.0211-.08064.9742-.26383z"/><path d="m20.7359 3.26424-.0255.00865-.0214.0084-.0211.00839-.0213.00865-.0212.0084-.0211.01272-.017.00865-.0171.00839-.017.00865-.0168.01272-.0127.01272-.0127.00865-.0128.01272-.0127.01705-.0127.01272-.0084.01705-.0094.01679-.0043.01704-.0087.02112-.0041.01704-.0043.02544v.00865.01272l-.0043.01272v.01273.01272.01704l.0043.01272v.01272.01705.01679l.0043.01272v.01704l.0044.01705.0043.02112.0043.01704.0043.01705v.02111l.0087.02137.0043.02112.0043.02111.0044.02112.0086.02137.5869 2.18639-.0722.01704-2.4416-1.78238h-.0084l.4381 1.62083c.115.42945.2297.49763.5361.42538l.0043.0809-.9742.26382-.0086-.07658c.3106-.10634.3829-.19131.2595-.64213l-.4933-1.83352c-.2254-.16155-.2977-.16587-.4635-.11906l-.0224-.08014.7103-.19132 2.1309 1.56945h.0087l-.3745-1.39085c-.1318-.47651-.2552-.47651-.5445-.42105l-.0211-.08064.9742-.26383z" stroke="#fff" stroke-miterlimit="10.433" stroke-width=".0023"/><path d="m23.0797 5.75706-1.2506.13611.0086-.08091c.387-.05953.3913-.16154.3572-.4765l-.2338-2.13958-.2297.0257c-.4722.05113-.5786.1445-.6211.62101l-.102.01272-.0552-.73168 2.4118-.26382.1064.72735-.1026.00865c-.1404-.45946-.2722-.52332-.74-.47218l-.2298.02544.2338 2.18639c.0341.28926.0937.36584.4552.34014z"/><path d="m23.0797 5.75706-1.2506.13611.0086-.08091c.387-.05953.3913-.16154.3572-.4765l-.2338-2.13958-.2297.0257c-.4722.05113-.5786.1445-.6211.62101l-.102.01272-.0552-.73168 2.4118-.26382.1064.72735-.1026.00865c-.1404-.45946-.2722-.52332-.74-.47218l-.2298.02544.2338 2.18639c.0341.28926.0937.36584.4552.34014z" stroke="#fff" stroke-miterlimit="10.433" stroke-width=".0023"/><path d="m29.2985 5.49351.0044-.01705v-.01704l.0043-.02977v-.02976l.0043-.02977v-.02544-.0257l-.0043-.02544v-.02137l-.0043-.02111-.0044-.02112-.0043-.01705-.0043-.02111-.0087-.01705-.0084-.01272-.0086-.01704-.0087-.01272-.0127-.01272-.0127-.01272-.0127-.01272-.0127-.0084-.0171-.01272-.017-.0084-.0168-.00865-.0171-.01272-.0211-.00839-.0214-.00865-.0211-.0084-.0257-.00432-.0213-.00865-.0298-.0084-.0257-.00865-.0298-.00839-.6042-.16181-.2297.91028c-.0807.3147-.0127.38695.2808.4765l-.0211.07658-1.1654-.29766.0211-.0809c.3149.06386.3829.01272.4722-.32742l.4594-1.80783c.085-.32768-.0086-.37856-.2638-.46379l.0168-.08064 2.2162.5658-.1405.59964-.1063-.02544c.0341-.38695-.0552-.4849-.519-.59989l-.5699-.14883c-.102-.02544-.1361-.01705-.1702.11066l-.2338.923.6042.15748c.3402.08497.4381.02544.5572-.28087l.0977.02544-.2465.97006z"/><path d="m29.2985 5.49351.0044-.01705v-.01704l.0043-.02977v-.02976l.0043-.02977v-.02544-.0257l-.0043-.02544v-.02137l-.0043-.02111-.0044-.02112-.0043-.01705-.0043-.02111-.0087-.01705-.0084-.01272-.0086-.01704-.0087-.01272-.0127-.01272-.0127-.01272-.0127-.01272-.0127-.0084-.0171-.01272-.017-.0084-.0168-.00865-.0171-.01272-.0211-.00839-.0214-.00865-.0211-.0084-.0257-.00432-.0213-.00865-.0298-.0084-.0257-.00865-.0298-.00839-.6042-.16181-.2297.91028c-.0807.3147-.0127.38695.2808.4765l-.0211.07658-1.1654-.29766.0211-.0809c.3149.06386.3829.01272.4722-.32742l.4594-1.80783c.085-.32768-.0086-.37856-.2638-.46379l.0168-.08064 2.2162.5658-.1405.59964-.1063-.02544c.0341-.38695-.0552-.4849-.519-.59989l-.5699-.14883c-.102-.02544-.1361-.01705-.1702.11066l-.2338.923.6042.15748c.3402.08497.4381.02544.5572-.28087l.0977.02544-.2465.97006z" stroke="#fff" stroke-miterlimit="10.433" stroke-width=".0023"/><path d="m32.0292 7.6756-1.1356-.54011.034-.07251c.3659.15316.4168.06818.5572-.21701l.923-1.94393-.2127-.10202c-.4254-.20429-.5658-.1786-.8507.20403l-.0977-.04248.3404-.65078 2.1904 1.04206-.2892.67215-.0936-.04249c.1233-.46786.0468-.59125-.3827-.79121l-.2083-.10202-.9444 1.98642c-.1234.26383-.115.36152.2084.52739z"/><path d="m32.0292 7.6756-1.1356-.54011.034-.07251c.3659.15316.4168.06818.5572-.21701l.923-1.94393-.2127-.10202c-.4254-.20429-.5658-.1786-.8507.20403l-.0977-.04248.3404-.65078 2.1904 1.04206-.2892.67215-.0936-.04249c.1233-.46786.0468-.59125-.3827-.79121l-.2083-.10202-.9444 1.98642c-.1234.26383-.115.36152.2084.52739z" stroke="#fff" stroke-miterlimit="10.433" stroke-width=".0023"/><path d="m32.6328 7.85437.017.0084.0127.00865.0128.00839.0127.00865.0127.0084.0127.00432.0127.00865.0128.00433.0127.00432.0086.00865.0127.00433.0128.00432.0084.00433.0127.00432.017.0084.0211.00432.0171.00433h.017l.0171.00432.017-.00432h.0171l.0127-.00433.017-.00432.0128-.00433.017-.00839.0127-.00865.0127-.0084.0128-.00865.017-.01272.0127-.01272.0128-.01704.0127-.01705.017-.01704.0127-.01705.0128-.02137.017-.02112.0171-.02111.017-.02112.0127-.02569 1.0548-1.53994c.1786-.26357.1532-.33175-.0977-.53171l.0468-.06793.9912.67622-.0468.06386c-.2852-.16155-.3572-.14476-.5317.10634l-.4722.69326 1.0761.73601.4722-.69327c.1786-.25949.1532-.33175-.0936-.53171l.0468-.06818.9869.67647-.0468.06818c-.285-.16587-.3575-.1445-.5318.10634l-1.0761 1.5781c-.1616.2338-.1745.32768.0936.53171l-.0468.06819-.9869-.67215.0469-.07225c.3063.19131.3744.12338.5571-.14044l.4722-.69352-1.0762-.736-.5019.72735c-.1575.23813-.1702.32743.0979.53579l-.0468.06818-.9912-.67622z"/><path d="m32.6328 7.85437.017.0084.0127.00865.0128.00839.0127.00865.0127.0084.0127.00432.0127.00865.0128.00433.0127.00432.0086.00865.0127.00433.0128.00432.0084.00433.0127.00432.017.0084.0211.00432.0171.00433h.017l.0171.00432.017-.00432h.0171l.0127-.00433.017-.00432.0128-.00433.017-.00839.0127-.00865.0127-.0084.0128-.00865.017-.01272.0127-.01272.0128-.01704.0127-.01705.017-.01704.0127-.01705.0128-.02137.017-.02112.0171-.02111.017-.02112.0127-.02569 1.0548-1.53994c.1786-.26357.1532-.33175-.0977-.53171l.0468-.06793.9912.67622-.0468.06386c-.2852-.16155-.3572-.14476-.5317.10634l-.4722.68894 1.0761.74007.4722-.69326c.1786-.2595.1532-.33175-.0936-.53172l.0468-.06818.9869.67647-.0468.06819c-.285-.16588-.3575-.14451-.5318.10634l-1.0761 1.5781c-.1616.2338-.1745.32767.0936.53171l-.0468.06818-.9869-.67215.0469-.07225c.3063.19132.3744.12339.5571-.14043l.4722-.69759-1.0762-.73168-.5019.72735c-.1575.23813-.1702.32743.0979.53579l-.0468.06818-.9912-.67622z" stroke="#fff" stroke-miterlimit="10.433" stroke-width=".0023"/><path d="m36.8833 11.3677-1.6929-1.58672.0552-.05953c.2127.17453.3107.21269.5358-.02976l1.3059-1.39111c.2338-.25085.1786-.34014-.0043-.54036l.0554-.05954 1.6675 1.56105-.4127.45947-.0809-.07226c.217-.32335.1829-.45081-.1659-.77849l-.4254-.3956c-.0638-.0636-.102-.09795-.1999.00839l-.6551.69759.4808.45514c.2809.2595.3829.21269.6254.02112l.0765.06818-.6846.73163-.0722-.0681c.1956-.2893.1913-.3743-.0639-.62537l-.4808-.45946-.7274.77853c-.1234.1317-.1275.1317.3402.5698.3956.3702.638.4254 1.0761.2384l.085.0807z"/><path d="m36.8833 11.3677-1.6929-1.58672.0552-.05953c.2127.17453.3107.21269.5358-.02976l1.3059-1.39111c.2338-.25085.1786-.34014-.0043-.54036l.0554-.05954 1.6675 1.56105-.4127.45947-.0809-.07226c.217-.32335.1829-.45081-.1659-.77849l-.4254-.3956c-.0638-.0636-.102-.09795-.1999.00839l-.6551.69759.4808.45514c.2809.2595.3829.21269.6254.02112l.0765.06818-.6846.73163-.0722-.0681c.1956-.2893.1913-.3743-.0639-.62537l-.4808-.45946-.7274.77853c-.1234.1317-.1275.1317.3402.5698.3956.3702.638.4254 1.0761.2384l.085.0807z" stroke="#fff" stroke-miterlimit="10.433" stroke-width=".0023"/><path d="m38.5545 13.5627-.7274-1.021.0639-.0511c.2425.3106.3318.2638.5869.0809l1.7567-1.2507-.1361-.1872c-.2765-.387-.4083-.4338-.8467-.2381l-.0595-.085.6083-.404 1.4122 1.978-.5828.4465-.0595-.085c.3317-.3488.3274-.4933.0508-.8761l-.1318-.1914-1.7951 1.2762c-.2384.1702-.2722.2594-.0725.5614z"/><path d="m38.5545 13.5627-.7274-1.021.0639-.0511c.2425.3106.3318.2638.5869.0809l1.7567-1.2507-.1361-.1872c-.2765-.387-.4083-.4338-.8467-.2381l-.0595-.085.6083-.404 1.4122 1.978-.5828.4465-.0595-.085c.3317-.3488.3274-.4933.0508-.8761l-.1318-.1914-1.7951 1.2762c-.2384.1702-.2722.2594-.0725.5614z" stroke="#fff" stroke-miterlimit="10.433" stroke-width=".0023"/><path d="m41.1794 18.7564-.736-2.2034.0765-.0254c.1021.2551.17.336.4849.2297l1.8122-.604c.3277-.1063.319-.2127.2511-.4765l.0766-.0254.723 2.1693-.5785.204-.0341-.102c.3445-.1829.3745-.3104.2213-.7614l-.1829-.5528c-.0297-.085-.0425-.1362-.1829-.0896l-.9062.3022.2083.6297c.1234.3658.2339.3742.5361.319l.0341.0936-.9487.3191-.0298-.0936c.3107-.1575.3445-.2384.2338-.5786l-.1999-.6337-1.0123.3401c-.1659.0552-.1702.0553.0297.6635.1745.5104.3615.6722.8337.7147l.0382.1147z"/><path d="m41.1794 18.7564-.736-2.2034.0765-.0254c.1021.2551.17.336.4849.2297l1.8122-.604c.3277-.1063.319-.2127.2511-.4765l.0766-.0254.723 2.1693-.5785.204-.0341-.102c.3445-.1829.3745-.3104.2213-.7614l-.1829-.5528c-.0297-.085-.0425-.1362-.1829-.0896l-.9062.3022.2083.6297c.1234.3658.2339.3742.5361.319l.0341.0936-.9487.3191-.0298-.0936c.3107-.1575.3445-.2384.2338-.5786l-.1999-.6337-1.0123.3401c-.1659.0552-.1702.0553.0297.6635.1745.5104.3615.6722.8337.7147l.0382.1147z" stroke="#fff" stroke-miterlimit="10.433" stroke-width=".0023"/><path d="m43.8252 23.8309-.0044-.1064c.3532-.0809.7358-.3615.7274-.8123-.0043-.217-.1404-.434-.4083-.4297-.6465.0127-.706 1.4506-1.5865 1.4677-.3659.0043-.7872-.2809-.7956-.8932-.0043-.3275.1361-.5404.1321-.6722 0-.0893-.0766-.132-.1448-.132v-.0936l.9103-.1446v.0977c-.2.0893-.7528.3147-.7444.8976.0084.3445.2552.5106.489.5063.2424-.0044.3869-.0766.7487-.7147.2213-.3996.404-.6762.8294-.6848.4892-.0084.7401.3785.7444.7657.0086.2595-.1361.4933-.1361.5997.0043.1234.102.1404.1531.1488v.0893z"/><path d="m43.8252 23.8309-.0044-.1064c.3532-.0809.7358-.3615.7274-.8123-.0043-.217-.1404-.434-.4083-.4297-.6465.0127-.706 1.4506-1.5865 1.4677-.3659.0043-.7872-.2809-.7956-.8932-.0043-.3275.1361-.5404.1321-.6722 0-.0893-.0766-.132-.1448-.132v-.0936l.9103-.1446v.0977c-.2.0893-.7528.3147-.7444.8976.0084.3445.2552.5106.489.5063.2424-.0044.3869-.0766.7487-.7147.2213-.3996.404-.6762.8294-.6848.4892-.0084.7401.3785.7444.7657.0086.2595-.1361.4933-.1361.5997.0043.1234.102.1404.1531.1488v.0893z" stroke="#fff" stroke-miterlimit="10.433" stroke-width=".0023"/><path d="m44.2294 27.2596v-.0298-.0297-.0257-.0255-.0254l-.0043-.0257-.0043-.0211-.0043-.0211-.0044-.0212-.0043-.017-.0043-.017-.0087-.0171-.0086-.0168-.0084-.017-.0127-.0127-.0127-.0128-.013-.0127-.0168-.0127-.0127-.0127-.0211-.0084-.0171-.0087-.0214-.0127-.0254-.0086-.0211-.0044-.0298-.0084-.0254-.0086-.0298-.0087h-.017l-.0171-.0043-.017-.0043-.0168-.0043h-.0171l-.0211-.0044-.017-.0043h-.0211l-.0214-.0043-.0168-.0043-1.1186-.1445c-.3402-.0425-1.1401-.1448-.9955-1.2507.1361-1.0591.9654-.9528 1.2249-.9189l1.3314.1745c.3147.0384.3701-.0168.434-.3358l.0806.0084-.1574 1.2081-.0807-.0086c.0171-.3401-.0298-.3997-.3317-.4381l-1.3655-.1786c-.2765-.0338-.8678-.1107-.9654.634-.0425.3317.0595.5912.2467.7401.085.0679.2211.1318.5658.1745l1.1528.1488c.4594.0596.5444-.0341.5996-.3277l.0807.0087-.1275.9912z"/><path d="m44.2294 27.2596v-.0298-.0297-.0257-.0255-.0254l-.0043-.0257-.0043-.0211-.0043-.0211-.0044-.0212-.0043-.017-.0043-.017-.0087-.0171-.0086-.0168-.0084-.017-.0127-.0127-.0127-.0128-.013-.0127-.0168-.0127-.0127-.0127-.0211-.0084-.0171-.0087-.0214-.0127-.0254-.0086-.0211-.0044-.0298-.0084-.0254-.0086-.0298-.0087h-.017l-.0171-.0043-.017-.0043-.0168-.0043h-.0171l-.0211-.0044-.017-.0043h-.0211l-.0214-.0043-.0168-.0043-1.1186-.1445c-.3402-.0425-1.1401-.1448-.9955-1.2507.1361-1.0591.9654-.9528 1.2249-.9189l1.3314.1745c.3147.0384.3701-.0168.434-.3358l.0806.0084-.1574 1.2081-.0807-.0086c.0171-.3401-.0298-.3997-.3317-.4381l-1.3655-.1786c-.2765-.0338-.8678-.1107-.9654.634-.0425.3317.0595.5912.2467.7401.085.0679.2211.1318.5658.1745l1.1528.1488c.4594.0596.5444-.0341.5996-.3277l.0807.0087-.1275.9912z" stroke="#fff" stroke-miterlimit="10.433" stroke-width=".0023"/><path d="m42.1024 33.1509.0087-.0254.0086-.0298.0084-.0298.0043-.0127.0044-.017v-.0128l.0043-.017v-.017-.0171-.017-.0212l-.0043-.017v-.0211l-.0044-.0211-.0043-.0214-.0043-.0211-.0084-.0255-.0087-.0257-.0086-.0297-.0127-.0255-.0128-.0297-.0127-.0298-.0127-.0341-.0168-.0338-.0086-.0171-.0087-.017-.0127-.0211-.0087-.0171-.0127-.0211-.0086-.0168-.0128-.0213-.0127-.0212-.0127-.0211-.0127-.0211-.5913-.9996-.7528-.3658c-.2765-.1361-.3701-.1191-.5403.2254l-.0766-.0341.5783-1.1825.0765.0341c-.1786.3829-.0979.4381.2.5829l.6722.3274.9911-.1445c.7699-.1107.8124-.1616.9103-.3277l.0766.0341-.5317 1.0805-.0723-.0341c.0809-.1789.1234-.2809.0128-.3318-.0425-.0211-.1318-.0254-.2-.017l-1.1357.1531.604.9826c.0297.0468.0595.0979.1147.1233.1191.0596.2-.0849.2595-.2042l.0723.034-.4127.8465z"/><path d="m42.1024 33.1509.0087-.0298.0086-.0256.0084-.0298.0043-.0127.0044-.0171v-.0127l.0043-.017v-.0171-.017-.0171-.0211l-.0043-.017v-.0212l-.0044-.0211-.0043-.0213-.0043-.0255-.0084-.0211-.0087-.0257-.0086-.0298-.0127-.0254-.0128-.0298-.0127-.0297-.0127-.0341-.0168-.0339-.0086-.017-.0087-.0171-.0127-.0211-.0087-.017-.0127-.0211-.0086-.0168-.0128-.0214-.0127-.0211-.0127-.0211-.0127-.0211-.5913-.9996-.7528-.3658c-.2765-.1362-.3701-.1191-.5403.2254l-.0766-.0341.5783-1.1825.0765.0341c-.1786.3829-.0979.4381.2.5828l.6722.3274.9911-.1445c.7699-.1106.8124-.1615.9103-.3276l.0766.034-.5317 1.0805-.0723-.0341c.0809-.1788.1234-.2808.0128-.3317-.0425-.0211-.1318-.0255-.2-.0171l-1.1357.1532.604.9825c.0297.0468.0595.098.1147.1234.1191.0595.2-.085.2595-.2043l.0723.0341-.4127.8464z" stroke="#fff" stroke-miterlimit="10.433" stroke-width=".0023"/><path d="m7.49364 16.7825c-.11906.3106-.20404.3574-.51467.2511l-.74008-.2639c.05953-.0936.0893-.1702.12339-.2681.15315-.4254.17452-.7103.07225-.9441-.04249-.0893-.1445-.3277-.45946-.4424-.51468-.183-.91028.2424-1.11025.7998l-.38289 1.0718.07658.0257c.13179-.2852.19997-.3106.50628-.1872l1.7567.6297c.27222.0806.36152.1147.26789.4635l.10635-.0043.404-1.1316zm-1.31428-.2763-.0084.0297-.01272.0298-.01272.0298-.01272.0297-.01272.0298-.01272.0298-.01272.0297-1.05478-.3785c-.13611-.0468-.11907-.0937-.07658-.217.06385-.1786.28087-.7656.85914-.5572.61669.2213.42537.7614.37017.9103z"/><path d="m9.13127 13.6691c-.10202.1616-.1702.1913-.51467.1659l-2.66266-.2127-.03841.0723 1.43767 1.7907c.14476.183.34879.4509.38696.5659.03409.1106.00865.1785-.01705.2381l.06818.0381.40401-.7484-.06793-.0382c-.04681.0807-.14044.2552-.30224.17-.04249-.0212-.0893-.0596-.12339-.1064l-.35312-.4126.53604-.9955.44649.0424c.06386.0044.19997.0255.26382.0553.13611.0765.0893.204.01705.3444l.06818.0382.52332-.9698zm-1.80351 1.4758-.80826-.9995 1.28044.1234z"/><path d="m10.7438 11.7929.4381-.5488-.0636-.0511c-.115.1361-.2425.1702-.3916.1745l-1.4038.0382c.10227-.2.36151-.706-.0977-1.0548-.52739-.40402-1.02934.102-1.2634.404l-.72303.9443.06386.0469c.20836-.2171.27629-.2468.54876-.0298l1.48016 1.1313c.23838.1789.29766.2468.10202.5361l.06385.0511.72738-.9443-.0639-.0512c-.22538.2638-.31468.2468-.54441.0723l-.67216-.519.12339-.1959zm-1.70584-.2254-.02112.0384-.02111.0381-.02163.0341-.02569.0339-.02112.0341-.02112.0297-.02569.0341-.02112.0298-.02111.0297-.02112.0255-.83803-.6424c-.10202-.0766-.10202-.1275.03816-.3063.10635-.1404.45947-.5785.91461-.2297l.02111.017.02138.0171.02111.017.01705.017.01704.0212.01705.017.01704.0211.01272.0171.01272.017.01272.0211.00865.0211.01273.0171.00864.0214.00433.017.0084.0211.00432.0211.0084.0171.00432.0211.00433.0382.00432.0424-.00432.0382v.0425l-.00865.0384-.0084.0425-.00865.0382-.01272.0381-.01679.0425-.01705.0382-.01704.0381-.01705.0382z"/><path d="m26.0572 2.91977-.0636-.00839h-.0682-.0682l-.0636.00432-.0638.00407-.0682.01272-.0639.01272-.0638.01272-.0636.02137-.0636.02112-.0595.02112-.0639.02976-.0598.03028-.0552.03409-.0555.03816-.0552.03816-.0552.04249-.0511.04706-.0468.04681-.0468.05521-.0468.05521-.0425.0552-.0384.06386-.0382.0636-.0338.06818-.0301.07225-.0297.07658-.0255.07658-.0211.0809-.017.08497-.0171.08498-.0127.09362c-.0936.9146.4381 1.53128 1.2507 1.61219.7785.08064 1.459-.41698 1.5526-1.33132.0977-.98228-.5487-1.54808-1.2509-1.62059zm.7742 1.39111-.0043.0893-.0084.08929c-.0937.94004-.5702 1.27612-1.0464 1.22931-.4763-.04682-.8721-.47219-.7785-1.41655.102-.9782.6126-1.27611 1.0507-1.2293l.0382.00432.0424.0084.0382.00839.0425.01272.0381.01272.0382.01705.0425.01704.0382.02112.034.02112.0382.02569.0338.02977.0385.02976.0297.03409.0341.03409.0298.03817.0298.04248.0297.04249.0257.04681.0211.05114.0257.05088.0211.05546.0171.05953.017.05953.0128.06386.0127.06818.0086.07225.0043.07225.0044.07658.0043.08065z"/></g><path d="m26.8186 4.48931.0084-.0893.0044-.0893.0043-.0809-.0043-.08065-.0044-.07657-.0043-.07225-.0086-.07226-.0128-.06818-.0127-.06385-.017-.05954-.0171-.05953-.0211-.05546-.0257-.05088-.0211-.05114-.0257-.04681-.0292-.04248-.0298-.04249-.0298-.03816-.0341-.03409-.0297-.03409-.0385-.02977-.0338-.02976-.0382-.0257-.034-.02112-.0382-.02111-.0425-.01705-.0382-.01704-.0381-.01272-.0425-.01272-.0382-.0084-.0424-.00839-.0382-.00433c-.4381-.04681-.9487.2511-1.0507 1.2293-.0936.94437.302 1.36974.7785 1.41655s.9517-.28977 1.0453-1.22981z" stroke="#fff" stroke-miterlimit="10.433" stroke-width=".0023"/><path d="m42.0425 13.7159-.5401-1.0594-.0725.0384c.1107.2849.102.3572-.1786.502l-1.6633.8464c-.285.1447-.3743.1702-.5529-.1318l-.0722.0382.5401 1.0634.0725-.0384c-.1404-.3147-.085-.387.1702-.519l.7571-.387.115.2127-.7146 1.5142.3147.6167.0725-.0381c-.0725-.1616-.0511-.285.0084-.4254l.5699-1.2845c.1361.1786.4849.6294.9996.3702.5909-.302.3485-.9785.1742-1.3186zm-.4297.9952-.0257.0127-.0254.0127-.0255.0084-.0256.0087-.0214.0084-.0255.0043-.0254.0084-.0211.0043-.0211.0044h-.0257-.0211l-.0214.0043-.0211-.0043h-.0211-.0212l-.0213-.0044-.0168-.0043-.0211-.0043-.0385-.0127-.0381-.0171-.0341-.017-.0341-.0212-.0341-.0211-.0341-.0257-.0297-.0254-.0341-.0298-.0255-.0297-.0297-.0298-.0257-.0341-.0298-.0341-.0257-.0341-.0211-.0341-.0257-.0381-.0211-.0341-.0211-.0341-.0212-.0382-.017-.0341-.0211-.0341-.0168-.0297-.0171-.0341-.0168-.0298.9444-.4808c.1107-.0552.1572-.0341.2595.1659.0796.158.3221.6683-.1842.9278z" fill="#fff"/><path d="m40.5923 14.0988.0168.0298.017.034.0168.0298.0211.0341.0171.0341.0211.0382.0211.034.0211.0341.0257.0382.0211.0341.0257.0341.0298.0341.0257.0341.0298.0297.0254.0298.0341.0298.0298.0254.034.0257.0341.0211.0341.0211.0341.0171.0382.017.0384.0127.0211.0044.0168.0043.0214.0043h.0211.0211l.0211.0043.0214-.0043h.0211.0257l.0211-.0043.0211-.0043.0255-.0084.0254-.0044.0214-.0084.0257-.0086.0254-.0084.0255-.0127.0257-.0127c.5062-.2595.2638-.7699.1829-.9274-.102-.1999-.1488-.2213-.2595-.1658z" stroke="#fff" stroke-miterlimit="10.433" stroke-width=".0023"/><path d="m44.3311 19.9344-2.2289-.5361c-.2041-.0509-.5358-.1274-.6551-.2083-.0937-.0639-.1148-.1362-.1318-.2l-.0809.0127.1404.838.0809-.0127c-.0127-.0893-.0468-.2849.1318-.319.0468-.0043.1063-.0043.1659.0084l.5317.1106.1829 1.1144-.3786.2424c-.0552.0341-.1872.115-.2508.1234-.1618.0298-.1872-.1107-.2127-.2679l-.0806.0127.1786 1.0805.0809-.0127c-.0171-.187.0211-.2552.3063-.4424l2.2332-1.4591zm-1.5995.7189-.1616-.9825 1.2464.2976z" fill="#fff"/><path d="m44.131 27.6805c-.1191.2809-.1743.3318-.4806.2382l-1.7824-.5358c-.3104-.0936-.3913-.1321-.3147-.4722l-.0766-.0257-.3404 1.14.0766.0257c.1147-.3233.2043-.3445.4849-.2595l.8082.2425-.0595.234-1.5654.5997-.1999.6635.0809.0254c.0595-.1659.1615-.2425.3019-.302l1.2975-.536c-.0213.2213-.0849.7871.4679.9571.6337.1872.9273-.4679 1.0337-.8337l.3444-1.1357zm-.3829 1.0039c-.0512.17-.2254.706-.7742.5404l-.0298-.0086-.0257-.0084-.0254-.0087-.0214-.0127-.0254-.0084-.0211-.0127-.0212-.0127-.017-.0128-.0211-.0127-.0168-.0127-.017-.0127-.0168-.0171-.0128-.0127-.0127-.017-.017-.0171-.0127-.017-.0084-.0171-.0128-.017-.0211-.0341-.0127-.0382-.017-.0381-.0084-.0384-.0087-.0382-.0084-.0425-.0043-.0384v-.0425-.0425-.0425l.0043-.0425.0043-.0424.0044-.0425.0086-.0425.0043-.0384.0084-.0425.0087-.0382.0127-.0425.0084-.0384.0087-.0381.0127-.0341.0086-.0341.0084-.0341 1.0166.302c-.0015-.0005.1346.0844.0708.3014z" fill="#fff" stroke="#fff" stroke-miterlimit="10.433" stroke-width=".0023"/><path d="m42.6592 28.0806-.0084.0341-.0087.034-.0127.0341-.0086.0382-.0084.0384-.0128.0425-.0086.0382-.0084.0424-.0043.0385-.0087.0425-.0043.0424-.0043.0425-.0044.0425v.0425.0425.0425l.0044.0384.0084.0425.0086.0381.0084.0384.0171.0382.0127.0382.0211.0341.0127.017.0084.0171.0127.017.0171.017.0127.0171.0127.0127.0168.0171.017.0127.0168.0127.0212.0127.017.0127.0211.0128.0211.0127.0255.0084.0213.0127.0255.0086.0257.0084.0297.0087c.5488.1659.7231-.3702.7742-.5404.0639-.217-.0722-.3022-.0722-.3022z" stroke="#fff" stroke-miterlimit="10.433" stroke-width=".0023"/><path d="m18.2685 6.69716-2.1225.94436-.0338-.07225c.2424-.12771.319-.20429.1488-.48923l-.7785-1.74397c-.102-.32742-.2084-.31063-.4679-.22108l-.0297-.07251 2.0843-.93164.2639.55715-.098.04249c-.2127-.32335-.3445-.34014-.7825-.1445l-.5318.23405c-.0809.03816-.1277.05953-.0681.19132l.3869.87186.6083-.2679c.3488-.15748.3488-.26789.2638-.5658l.0937-.04249.404.91028-.0893.04248c-.1873-.29358-.2723-.32335-.5997-.17885l-.6083.2595.434.97846c.0723.15747.0766.16155.6592-.09795.4933-.22108.6381-.42537.6338-.89755l.1063-.05114z" fill="#fff"/><path d="m18.2685 6.69716-2.1225.94436-.0338-.07225c.2424-.12771.319-.20429.1488-.48923l-.7785-1.74397c-.102-.33175-.2084-.31063-.4679-.22108l-.0297-.07251 2.0843-.93164.2639.55715-.098.04249c-.2127-.32335-.3445-.34014-.7825-.1445l-.5318.23405c-.0809.03816-.1277.05953-.0681.19132l.3869.87186.6083-.2679c.3488-.15748.3488-.26789.2638-.5658l.0937-.04249.404.91028-.0893.04248c-.1873-.29358-.2723-.32335-.5997-.17885l-.6083.2595.434.97846c.0723.15747.0766.16155.6592-.09795.4933-.22108.6381-.42537.6338-.89755l.1063-.05114z" fill="#fff" stroke="#fff" stroke-miterlimit="10.433" stroke-width=".0023"/><path d="m19.1064 43.581.0212.0043.0213.0043.0255.0044.0211.0043.017.0043h.0212l.0213.0043h.0168l.0214.0044h.017.0171l.017-.0044h.0171.017l.0127-.0043.0168-.0043.0127-.0087.0171-.0043.0127-.0086.0127-.0084.0128-.0128.0127-.0086.0086-.0127.0043-.0087.0084-.0084.0044-.0084.0043-.0043.0043-.0084.0043-.0127.0087-.0084.0043-.0087.0043-.0083.0044-.0128.0043-.0127.0043-.0084.0043-.0127v-.0127l.0044-.013.0043-.0127.0043-.0127.0043-.0171.4254-1.9014c.0171-.0893.0425-.2-.0977-.2298-.0511-.0127-.0511-.0127-.3106.0298l.017-.0595.8424-.2127.0298.017-.5615 2.5182c-.0468.1999.0254.2679.3401.336l-.0127.0636-1.1571-.2595z" fill="#fff"/><path d="m19.1064 43.581.0212.0043.0213.0043.0255.0044.0211.0043.017.0043h.0212l.0213.0043h.0168l.0214.0044h.017.0171l.017-.0044h.0171.017l.0127-.0043.0168-.0043.0127-.0087.0171-.0043.0127-.0086.0127-.0084.0128-.0128.0127-.0086.0086-.0127.0043-.0087.0084-.0084.0044-.0084.0043-.0043.0043-.0084.0043-.0127.0087-.0084.0043-.0087.0043-.0083.0044-.0128.0043-.0127.0043-.0084.0043-.0127v-.0127l.0044-.013.0043-.0127.0043-.0127.0043-.0171.4254-1.9014c.0171-.0893.0425-.2-.0977-.2298-.0511-.0127-.0511-.0127-.3106.0298l.017-.0595.8424-.2127.0298.017-.5615 2.5182c-.0468.1999.0254.2679.3401.336l-.0127.0636-1.1571-.2595z" fill="#fff" stroke="#fff" stroke-miterlimit="10.433" stroke-width=".0023"/><path d="m23.769 41.5009-1.1059 2.7435-.2809-.0168 1.0294-2.5013-.9317-.0636c-.2808-.0214-.3658.0977-.523.3103l-.0682-.0381.2127-.4297.0849-.1829 1.5865.1106z" fill="#fff"/><path d="m23.769 41.5009-1.1059 2.7435-.2809-.0168 1.0294-2.5013-.9317-.0636c-.2808-.0214-.3658.0977-.523.3103l-.0682-.0381.2127-.4297.0849-.1829 1.5865.1106z" fill="#fff" stroke="#fff" stroke-miterlimit="10.433" stroke-width=".0023"/><path d="m29.3706 41.8666c-.1659-.7019-.6762-1.0848-1.1912-.9614-.5487.1234-.7784.6551-.6464 1.2123.0766.3445.3869.7869.9484.6551.2086-.0468.4127-.1743.5615-.3742l.0087.0086v.0127.0171.0211.0298l-.0044.0297-.0043.0341v.0382l-.0084.0425-.0043.0468-.0087.0468-.0127.0511-.0127.0511-.0127.0553-.0171.0552-.0211.0595-.0211.0552-.0257.0595-.0257.0639-.0298.0595-.0381.0596-.0341.0595-.0425.0595-.0468.0595-.0511.0596-.0512.0552-.0595.0552-.0639.0511-.0341.0257-.034.0255-.0341.0254-.0382.0257-.0382.0211-.0381.0257-.0425.0211-.0425.0211-.0425.0171-.0468.0211.0338.0809c1.051-.3142 1.4764-1.2499 1.2721-2.1391zm-.3956.4465c-.0723.0936-.2295.2084-.3699.2425-.4424.102-.6511-.3659-.7233-.6849-.0809-.3445-.0766-.7571.2765-.838l.0255-.0043.0257-.0044.0254-.0043h.0257.0211.0257.0211l.0211.0043.0255.0044.0211.0084.017.0043.0212.0086.0211.0084.017.0084.0214.0127.0168.0087.017.0127.0211.0127.0298.0298.0341.0298.0298.0341.0297.0341.0257.0384.0255.0381.0257.0425.0211.0382.0211.0425.0211.0424.0171.0469.017.0424.0171.0425.0127.0425.017.0425.0127.0384.0084.0382.0128.0381.0084.0341.0086.0341.0043.0298.0084.0298.0043.0256.0382.1616c.0224.0773.0183.1282-.0244.1834z" fill="#fff"/><path d="m28.9626 41.9685-.0043-.0257-.0084-.0298-.0043-.0298-.0087-.0341-.0083-.0341-.0128-.0381-.0084-.0382-.0127-.0384-.017-.0425-.0127-.0425-.0171-.0424-.017-.0425-.0171-.0468-.0211-.0425-.0211-.0425-.0211-.0382-.0257-.0425-.0255-.0381-.0257-.0384-.0297-.0341-.0298-.0341-.0341-.0298-.0298-.0298-.0211-.0127-.017-.0127-.0168-.0086-.0214-.0128-.017-.0084-.0211-.0084-.0212-.0086-.017-.0043-.0211-.0084-.0255-.0044-.0211-.0043h-.0211-.0257-.0211-.0257l-.0254.0043-.0257.0044-.0255.0043c-.3531.0809-.3574.4935-.2765.838.0722.319.2809.7869.7233.6849.1404-.0341.2976-.1488.3699-.2425.0425-.0552.0468-.1063.0257-.1829z" stroke="#fff" stroke-miterlimit="10.433" stroke-width=".0023"/><path d="m25.2487 43.5724.0043.0297.0044.0298.0043.0298.0084.0297.0043.0298.0084.0254.0127.0298.0084.0255.0127.0256.0128.0255.0127.0254.0127.0257.017.0211.0171.0214.017.0211.0168.0211.0211.0171.0214.0211.0211.017.0211.0128.0212.017.0257.0127.0254.0084.0257.0128.0254.0083.0298.0084.0254.0044.0298.0043.0298.0043h.0297.0341.0298c.2722-.0214.4595-.217.4381-.519-.0255-.3147-.217-.4297-.7358-.7444-.1312.1239-.3226.3071-.2928.6984z" stroke="#fff" stroke-miterlimit="10.433" stroke-width=".0023"/><path d="m26.546 43.5301c-.0254-.2893-.1361-.5274-.7444-.8976.2254-.1404.5529-.3488.5234-.7444-.0257-.3233-.3147-.5869-.7999-.5487-.3702.0297-.7826.2936-.7487.7273v.0341l.0043.0298.0043.0298.0084.0297.0043.0257.0087.0257.0084.0255.013.0254.0084.0257.0127.0254.0127.0211.0127.0212.0127.0257.0168.0211.0171.0211.017.0211.0211.0214.0171.0211.0211.0211.0211.0211.0257.0171.0211.0213.0255.0255.0297.0211.0255.0211.0297.0214.0298.0254.03.0214.0339.0254.0297.0255.0341.0257.0382.0254c-.3615.319-.5274.4679-.4977.8424.0255.336.3361.6635.8722.621.711-.0547.8174-.5437.8003-.7691zm-1.4122-1.6379c-.017-.204.1064-.4424.4254-.4679.3317-.0254.5019.1914.519.4297v.0341.0341.0341.0298l-.0043.0298-.0044.0297-.0043.0298-.0086.0254-.0084.0257-.0087.0255-.0084.0257-.0127.0254-.0084.0211-.0127.0214-.0127.0211-.013.0211-.0171.0171-.0127.0211-.0127.017-.017.0171-.0171.017-.0127.0171-.0171.017-.017.0127-.0298.0298-.0341.0257-.0297.0254-.0298.0211c-.1613-.0849-.5612-.2976-.591-.6337zm.7063 2.2462h-.0298-.0341-.0298l-.0297-.0043-.0298-.0044-.0254-.0043-.0298-.0084-.0254-.0084-.0257-.0127-.0255-.0084-.0257-.0127-.0211-.0171-.0211-.0127-.0211-.017-.0214-.0211-.0211-.0171-.0168-.0211-.0171-.0211-.017-.0214-.017-.0211-.0128-.0257-.0127-.0254-.0127-.0255-.0127-.0257-.0084-.0254-.0127-.0298-.0084-.0254-.0044-.0298-.0084-.0298-.0043-.0297-.0043-.0298-.0043-.0298c-.0298-.3912.1618-.5742.2936-.6975.519.3147.7103.4294.7357.7444.0204.3012-.1666.4968-.4388.5182z" fill="#fff" stroke="#fff" stroke-miterlimit="10.433" stroke-width=".0023"/><path d="m25.7253 42.5257.0298-.0211.0298-.0254.0341-.0257.0297-.0298.0171-.0127.017-.017.0127-.0171.0171-.017.017-.0171.0128-.017.0127-.0211.017-.0171.013-.0211.0127-.0211.0127-.0214.0084-.0211.0128-.0254.0084-.0257.0086-.0255.0084-.0257.0086-.0254.0044-.0298.0043-.0297.0043-.0298v-.0298-.0341-.0341-.034c-.017-.2384-.1872-.4552-.519-.4297-.319.0257-.4424.2638-.4253.4678.0295.3361.4294.5488.5909.6337z" stroke="#fff" stroke-miterlimit="10.433" stroke-width=".0023"/><path d="m13.0197 30.4454.1488-.5956-.5147-.3274.6083-.0384.1532-.5956.2254.5702.6167-.0382-.4722.3913.2256.5699-.519-.3275z" fill="#fff"/><path d="m14.8873 28.9398.1531-.5953-.5233-.3277.6126-.0384.1532-.5953.2254.5698.6126-.0425-.4722.3957.2297.5701-.519-.3277z" fill="#fff"/><path d="m16.7715 27.6551.1489-.5955-.519-.3277.6126-.0425.1531-.5913.2254.5702.6124-.0428-.4722.3916.2257.5698-.519-.3274z" fill="#fff"/><path d="m18.5621 26.3746.1532-.5956-.519-.3274.6126-.0384.1488-.5956.2298.5702.6126-.0382-.4722.3913.2254.5701-.519-.3277z" fill="#fff"/><path d="m20.2679 25.1029.1532-.5956-.5188-.3274.6124-.0425.1532-.5915.2254.5701.6126-.0425-.4722.3913.2254.5699-.519-.3274z" fill="#fff"/><path d="m21.974 23.8268.1531-.5956-.5187-.3231.6124-.0428.1488-.5955.2297.5701.6126-.0384-.4721.3915.2254.5699-.519-.3274z" fill="#fff"/><path d="m23.5939 22.6485.1531-.5915-.519-.3317.6124-.0382.1531-.5955.2255.5698.6126-.0381-.4722.3912.2257.5702-.519-.3274z" fill="#fff"/><path d="m25.2867 23.8821.1488-.5956-.519-.3274.6126-.0425.1532-.5956.2254.5702.6126-.0384-.4722.3956.2295.5658-.5231-.3275z" fill="#fff"/><path d="m27.061 25.107.1529-.5955-.5147-.3275.6083-.0384.1532-.5956.2254.5702.6126-.0428-.4722.3956.2297.5658-.519-.3231z" fill="#fff"/><path d="m28.7711 26.6046.1532-.5956-.519-.3274.6126-.0382.1486-.5958.23.5701.6123-.0381-.4765.3869.23.5742-.519-.3317z" fill="#fff"/><path d="m30.5489 27.8294.1532-.5953-.519-.3277.6124-.0381.1491-.5956.2254.5699.6167-.0382-.4722.3913.2256.5699-.519-.3274z" fill="#fff"/><path d="m32.3273 29.0545.1531-.5955-.519-.3277.6129-.0382.1488-.5955.2295.5701.6126-.0428-.4722.3959.2254.5699-.5187-.3277z" fill="#fff"/><path d="m34.2198 30.6328.1488-.5955-.519-.3277.6126-.0425.1532-.5953.2254.5742.6124-.0425-.472.3913.2298.5698-.519-.3274z" fill="#fff"/><path d="m30.9786 33.4104-.0043-.0382-.0043-.0341-.0044-.0381-.0086-.0341-.0043-.0339-.0084-.0381-.0087-.0341-.0084-.0341-.0127-.0298-.0087-.0341-.0127-.0297-.0127-.0341-.0127-.0298-.0127-.0297-.0128-.0298-.0127-.0298-.0168-.0257-.017-.0297-.0171-.0255-.017-.0257-.017-.0254-.0168-.0255-.0214-.0211-.0171-.0257-.0211-.0211-.0211-.0214-.017-.0167-.0214-.0212-.0211-.017-.0255-.0168-.0211-.017.0425-.0257c.2468-.2127.3999-.5956.3786-1.021-.0257-.6126-.4127-1.0805-.8592-1.038-.4508.0382-.7869.5699-.7573 1.1825.017.404.1872.7401.4297.9146l-.0425.0384c-.2425.217-.3956.604-.3702 1.0251.0341.6123.4254 1.0718.8721 1.025.4465-.0468.7785-.5829.7444-1.1952v-.0387z" fill="#fff"/><path d="m24.0153 24.8518-10.6852 7.5801c2.6713 3.939 5.5385 4.0199 5.5385 4.0199 4.3898 1.5015 5.2022 2.969 5.2022 2.969l.0043-.0044.0086-.0167.0212-.0257.0297-.0341.0384-.0468.0425-.0512.0596-.0595.0636-.0682.0765-.0766.085-.0809.0936-.0893.1064-.0936.119-.0979.1278-.1021.1404-.1063.1531-.1063.1659-.1148.1743-.115.1913-.1147.2-.1193.217-.1191.2297-.1191.2425-.119.2595-.1148.2681-.119.2893-.1148.2976-.115.3191-.1106.3317-.1064.3445-.102.3658-.102.3786-.0936s2.8542-.098 5.3726-4.0156zm6.1338 10.2641-.0979-.0043-.0893-.0084-.0893-.0127-.0809-.0171-.0807-.0211-.0809-.0257-.0725-.0341-.0679-.0341-.0682-.0381-.0638-.0425-.0596-.0468-.0595-.0512-.0552-.0552-.0511-.0595-.0469-.0595-.0468-.0682-.0425-.0679-.0384-.0725-.0381-.0723-.0339-.0766-.0341-.0809-.0297-.0849-.0255-.085-.0257-.0896-.0254-.0893-.0214-.0936-.017-.0936-.0168-.098-.013-.0979-.0127-.102-.0127-.102-.0087-.1021s-.404-.0468-.4806.3445c0 0-.1106-.3317-.3999-.3445l-7.4084.0112-.0143.0143-.0297.0257-.0298.0254-.0298.0214-.0297.0211-.0341.0211-.0341.0171-.0341.017-.0341.0127-.0382.0128-.034.0127-.0385.0084-.0381.0086-.0425.0043-.0382.0044h-.0381c-.2102 0-.4-.0863-.5404-.2257h-.0127v1.6504l-1.3443-.0171.0043-1.34.5358.0044.0127.3147h.2766l.0043-.6254h-1.8888v.6254h.3023l-.0087-.3147h.5317v1.3399h-1.3356v-1.6717h-.5829s-.736-.4678-.0043-1.0593l3.4394-.0036-.0003.0003c.1433-.185.3628-.3028.6104-.3028.2442 0 .4625.1173.6052.3012l7.2387-.0076c.3829.0127.4679-.2809.4679-.2809.0895.3361.5019.2679.5019.2679l.0128.0127c.0511-1.1697.3531-1.9907 1.4931-1.995 1.2166-.0044 1.459 1.038 1.459 2.4415 0 1.4036-.1951 2.6382-1.4458 2.6339z" fill="#fff"/><path d="m146.423 20.6133h-3.68l.103-.5416 1.131-.2576-.792-7.967-.265-.1717-2.447 8.2982c-.141.2594-.93.1752-1.03-.177l-2.832-8.1212-.703 8.2369 1.057.0841.17.6169h-3.155c-.24-.9657.94-.5959 1.05-.7045.268-.2612.554-6.537.894-7.4448.107-1.0165-.668-.7904-1.418-.7886v-.701h3.242l2.54 7.3606 2.105-7.3606h3.329v.701l-1.235.0771-.174.5275c.477 2.3519.498 4.8019.931 7.1556.18.9761 1.297-.0035 1.179 1.1777z" fill="#fff"/><path d="m92.2762 35.417.17.6186h-3.3298c-.1613-.8587.6151-.5275 1.0515-.9639v-3.5926h-4.7318v3.8555l1.0567.0841.17.6169h-3.505c-.1332-.7395.4521-.7553 1.0515-.701v-8.2369h-1.0515v-.701h3.505v.701h-1.2267v3.6803h4.7318v-3.4174l-1.0515-.2646v-.6993h3.3298v.701h-1.0516v8.2369z" fill="#fff"/><path d="m164.827 11.6736-1.054.2647v8.675l-1.137-.177-5.347-7.8847v7.0978c.461.4924 1.388-.0105 1.227.9639h-2.979c-.132-.7624.48-.7466 1.053-.701l-.165-8.1616-.888-.0771v-.6992l2.378.163 4.982 7.5481v-6.7472l-1.051-.2647v-.6992h2.979v.6992z" fill="#fff"/><path d="m165.342 35.0804c-.782-.7694-1.218-2.8023-2.268-3.5139 2.41-.8447 2.536-4.7756-.264-5.1699-1.502-.2121-3.441.156-4.995 0l.012.6887.94.1683.101 8.0809c-.573-.0456-1.185-.0614-1.053.701h3.505l-.17-.6169-1.057-.0841v-3.5051c.521.0596 1.167-.0911 1.662.0035.984.1893 1.715 3.3982 2.544 4.1167l1.928.0841c.17-.7395-.529-.6028-.885-.9533zm-5.249-3.952v-4.0308c1.577-.2681 3.447-.2173 3.472 1.8384.024 2.245-1.66 2.3554-3.472 2.1924z" fill="#fff"/><path d="m121.704 35.0804c-.781-.7694-1.218-2.8023-2.267-3.5139 2.409-.8447 2.535-4.7756-.265-5.1699-1.502-.2121-3.44.156-4.995 0l.012.6887.94.1683.101 8.0809c-.573-.0456-1.184-.0614-1.053.701h3.505l-.17-.6169-1.057-.0841v-3.5051c.521.0596 1.168-.0911 1.662.0035.985.1893 1.716 3.3982 2.545 4.1167l1.927.0841c.17-.7395-.529-.6028-.885-.9533zm-5.249-3.952v-4.0308c1.578-.2681 3.448-.2173 3.472 1.8384.025 2.245-1.659 2.3554-3.472 2.1924z" fill="#fff"/><path d="m123.983 19.6582c-.782-.7693-1.218-2.8023-2.268-3.5138 2.41-.8447 2.536-4.7756-.265-5.1699-1.502-.2121-3.44.1559-4.994 0l.012.6887.939.1682.102 8.081c-.573-.0456-1.185-.0614-1.053.701h3.505l-.17-.6169-1.057-.0841v-3.5051c.52.0596 1.167-.0911 1.661.0035.985.1893 1.716 3.3982 2.545 4.1167l1.928.0841c.17-.7396-.53-.6029-.885-.9534zm-5.249-3.9519v-4.0308c1.577-.2682 3.447-.2173 3.472 1.8384.024 2.245-1.66 2.3554-3.472 2.1924z" fill="#fff"/><path d="m87.7248 11.579c-.3786-.2033-1.6614-.6046-2.0259-.6046h-4.6442l.1647.7991.8886.0771-.1017 7.9057-.9393.1682-.0123.6888h4.4689c.6888 0 2.3028-.8623 2.8076-1.3985 1.8033-1.9173 1.9365-6.2723-.6064-7.6358zm-4.3918 8.3333v-8.2369c2.811-.2699 4.7475.5292 4.914 3.5839.1858 3.3946-1.4581 5.1086-4.914 4.653z" fill="#fff"/><path d="m56.9993 26.4386c-3.994.6747-4.5197 8.0073-.9253 9.4286 2.5429 1.0077 5.382-.5959 5.8376-3.2913.5941-3.5278-.8482-6.8243-4.9123-6.1373zm3.2106 7.2414c-.6028 1.6369-2.5797 2.5412-3.98 1.2426-1.8243-1.6912-1.6123-7.9653 1.6036-7.967 2.9845-.0035 3.123 4.7003 2.3764 6.7244z" fill="#fff"/><path d="m139.938 35.4203-.719-.1911-3.044-8.661-1.386-.1822-3.065 8.8432-.719.1911-.178.6151h2.979l-.17-.6186-.88-.0842.631-1.9365 3.917.0175.533 1.919c-.573-.0473-1.183-.056-1.052.7028h3.33zm-6.307-2.7147c.475-1.537.83-3.3263 1.414-4.8072.072-.184.065-.4241.336-.4504l1.579 5.2576z" fill="#fff"/><path d="m115.752 19.9981-.718-.191-3.044-8.661-1.386-.1822-3.066 8.8432-.718.191-.179.6152h2.979l-.17-.6187-.879-.0841.631-1.9365 3.916.0175.533 1.919c-.573-.0473-1.183-.0561-1.051.7028h3.329zm-6.307-2.7146c.475-1.537.831-3.3263 1.414-4.8072.072-.184.065-.4241.337-.4504l1.579 5.2576z" fill="#fff"/><path d="m155.88 27.3887c-.147 2.9635 1.075 8.7503-3.41 8.8362-4.962.0946-3.577-5.5853-3.759-8.8362l-.863-.312-.022-.68h3.329l-.021.68-1.041.3032c.321 2.0014-.951 7.3291 1.62 8.0108 4.425 1.1724 3.086-5.545 3.309-8.0108l-1.225-.2944-.013-.6888h2.98l-.021.68z" fill="#fff"/><path d="m61.5946 11.9663c-.1472 2.9635 1.0743 8.7504-3.4104 8.8362-4.9614.0947-3.5769-5.5853-3.7591-8.8362l-.8623-.312-.0228-.6799h3.3298l-.021.6799-1.041.3032c.3207 2.0014-.9516 7.3291 1.6193 8.0108 4.4252 1.1725 3.0862-5.545 3.3088-8.0108l-1.225-.2944-.0123-.6887h2.9793l-.021.6799z" fill="#fff"/><path d="m154.135 20.6133h-7.01v-.5223l1.034-.198-.145-8.1423-.889-.0771v-.6992h6.484l.176 2.1012-.675-.0245-.377-1.3757h-3.33v3.6803l2.272-.0088.168-.9411.54-.1016v2.9793h-.523l-.185-1.218-2.272-.0088v3.8556h3.856c.061-.4312.322-1.7666.962-1.5756.55.1648-.13 1.8262-.086 2.2766z" fill="#fff"/><path d="m100.858 36.0356h-7.0099v-.5222l1.034-.1981-.1454-8.1422-.8886-.0771v-.6993h6.4839l.176 2.1013-.675-.0245-.3768-1.3758h-3.3298v3.6803l2.2713-.0087.1682-.9411.5398-.1017v2.9793h-.5222l-.1858-1.218-2.2713-.0087v3.8555h3.8556c.061-.4311.322-1.7665.962-1.5755.55.1647-.13 1.8261-.086 2.2765z" fill="#fff"/><path d="m97.7034 20.6133h-7.01v-.5223l1.0339-.198-.1454-8.1423-.8885-.0771v-.6992h6.4843l.1752 2.1012-.6747-.0245-.3768-1.3757h-3.3298v3.6803l2.2713-.0088.1682-.9411.5398-.1016v2.9793h-.5222l-.1858-1.218-2.2713-.0088v3.8556h3.8556c.0613-.4312.3225-1.7666.9621-1.5756.5503.1648-.1297 1.8262-.0859 2.2766z" fill="#fff"/><path d="m104.275 10.9745c-1.552-.2191-3.562.1612-5.1695 0l.0122.6887.9393.1683.11 7.9792-.9581.2612-.1034.5415h4.0305v-.5223l-1.752-.177v-2.8075c1.572.1086 3.878-.1455 4.656-1.7403.836-1.7139.379-4.0904-1.765-4.3918zm-2.891 5.4328v-4.7318c1.8-.2751 3.634-.2751 3.692 2.0119.063 2.4237-1.575 2.9478-3.692 2.7199z" fill="#fff"/><path d="m130.3 36.0356h-7.01v-.5222l1.034-.1981-.145-8.1422-.889-.0771v-.6993h6.484l.176 2.1013-.675-.0245-.377-1.3758h-3.33v3.6803l2.272-.0087.168-.9411.54-.1017v2.9793h-.523l-.185-1.218-2.272-.0087v3.8555h3.856c.061-.4311.322-1.7665.962-1.5755.55.1647-.13 1.8261-.086 2.2765z" fill="#fff"/><path d="m173.763 14.4812-.719-.1034-.496-2.6271-2.29-.0753v8.2369h1.929v.701h-4.908v-.701c.117-.1245 1.517.2436 1.752-.2629v-7.974h-2.453l-.361 2.7918-.689.0122.173-3.505h7.887z" fill="#fff"/><path d="m133.455 14.4812-.719-.1034-.496-2.6271-2.29-.0753v8.2369h1.929v.701h-4.909v-.701c.118-.1245 1.518.2436 1.753-.2629v-7.974h-2.454l-.361 2.7918-.688.0122.173-3.505h7.887z" fill="#fff"/><path d="m82.1057 29.9035-.7185-.1034-.496-2.627-2.2905-.0754v8.2369h1.9295v.701h-4.9088v-.701c.1174-.1244 1.5177.2436 1.7525-.2629v-7.974h-2.4535l-.3611 2.7918-.6887.0123.1735-3.5051h7.8864z" fill="#fff"/><path d="m113.126 29.9035-.719-.1034-.496-2.627-2.29-.0754v8.2369h1.929v.701h-4.909v-.701c.118-.1244 1.518.2436 1.753-.2629v-7.974h-2.454l-.361 2.7918-.688.0123.173-3.5051h7.886z" fill="#fff"/><path d="m70.0153 28.4998-.8693-.0088-.184-1.3933h-3.5051v3.8556h2.4536l.1875-1.2145.6887-.0123v2.9793l-.6799-.021-.1963-1.0305h-2.4536v3.6803h2.1048l-.0017.701h-4.3813v-.701h1.0515v-8.2369h-1.2268v-.701h6.8349z" fill="#fff"/><path d="m73.331 17.909c.1349 3.1055-4.2394 3.2439-6.2793 2.3361l-.0175-2.2625h.878l.2156 1.7122c1.5667.8903 4.4584.4294 3.7346-1.8962-.5047-1.6229-4.7914-1.5423-4.7949-4.4585-.0018-2.6726 3.7714-2.6866 5.559-1.9978l.0157 2.2625-.6747-.0281-.4153-1.6859c-1.1286-.6572-3.321-.4189-3.2387 1.246.1017 2.0961 4.9053 2.1592 5.0175 4.7722z" fill="#fff"/><path d="m147.112 33.3313c.135 3.1055-4.239 3.244-6.279 2.3362l-.018-2.2625h.878l.216 1.7122c1.567.8903 4.458.4293 3.735-1.8963-.505-1.6228-4.792-1.5422-4.795-4.4584-.002-2.6726 3.771-2.6866 5.559-1.9979l.015 2.2625-.674-.028-.416-1.6859c-1.128-.6572-3.321-.4189-3.238 1.246.101 2.096 4.905 2.1591 5.017 4.7721z" fill="#fff"/><path d="m174.639 26.3967-.01.6888c-.225.0263-.474-.0053-.686.0999-.261.1297-2.676 4.6669-2.769 5.1226-.185.9113.055 2.082-.04 3.0266l1.232.0841.17.6169h-4.206l.103-.5415 1.301-.1595c-.114-.9744.171-2.2818-.037-3.2054-.061-.2698-2.561-4.5863-2.757-4.7791-.496-.4925-1.093.1262-.888-.9534h3.329v.701l-.874.0018 2.275 4.5548 2.101-4.2954-1.048-.2629v-.6993z" fill="#fff"/><path d="m64.4948 20.7746c-1.1374 0-1.0182-1.5562.0403-1.7157 1.0165-.1525 1.225 1.7157-.0403 1.7157z" fill="#fff"/><path d="m75.5358 20.7746c-1.1373 0-1.0182-1.5562.0403-1.7157 1.0165-.1525 1.2251 1.7157-.0403 1.7157z" fill="#fff"/></svg>