<svg xmlns="http://www.w3.org/2000/svg" width="175" height="61" viewBox="0 0 175 61" fill="none">
  <path d="M5.00942 20.5682C4.04801 20.5171 3.54606 21.1724 3.49085 22.2061L3.42725 23.3672L3.51222 23.3715C3.55471 23.0439 3.59719 22.9971 3.92055 23.0355L5.8304 23.1332H5.85584H5.88561L5.90673 23.1375H5.93217H5.95354L5.97465 23.1418H5.9917L6.01282 23.1461L6.02986 23.1505L6.04691 23.1548L6.05963 23.1591L6.07667 23.1675L6.08939 23.1718L6.10211 23.1802L6.11051 23.1886L6.12323 23.2013L6.13188 23.21L6.14027 23.2227L6.14892 23.2354L6.15732 23.2482L6.16165 23.2652L6.16597 23.2779L6.17437 23.299L6.17869 23.3161L6.18302 23.3372V23.3583L6.18734 23.3794V23.4051L6.19167 23.4262V23.4433V23.456V23.4687V23.4815V23.4985V23.5112L6.27257 23.5155L6.34075 22.299C6.40893 20.9809 5.58388 20.5982 5.00942 20.5682ZM6.1708 22.4358V22.4529V22.4699L6.16648 22.4867V22.5038V22.5208L6.16215 22.5335V22.5506L6.15783 22.5633L6.1535 22.5717V22.5844L6.14918 22.5971L6.14485 22.6055L6.14053 22.6142L6.1362 22.6226L6.13188 22.6312L6.12755 22.6396L6.12323 22.6439L6.11483 22.6523L6.11051 22.6567L6.10211 22.661L6.09779 22.6653L6.08939 22.6696L6.08074 22.674L6.07209 22.6783H6.0637L6.05098 22.6826H6.04309H6.03037H6.02197H6.00925H5.99653H5.98381L3.79741 22.5676C3.71219 22.5633 3.63128 22.5592 3.63993 22.359C3.6697 21.8146 3.79741 21.5805 3.99305 21.3849C4.27799 21.0999 4.63111 21.0147 4.99263 21.0361C6.24306 21.1002 6.18785 22.1593 6.1708 22.4358Z" fill="white" stroke="white" stroke-width="0.0023" stroke-miterlimit="10.433"/>
  <path d="M11.9686 27.957L12.7598 18.1608C12.6873 14.3238 11.4155 13.958 11.4155 13.958L16.4053 10.9508C21.1396 13.6817 23.9473 10.1001 23.9473 10.1001C28.1455 14.1198 31.6976 11.0274 31.6976 11.0274L36.8998 13.9964C35.2281 15.8042 35.4919 17.1271 35.4919 17.1271L35.9213 27.8293L24.0874 19.1222L11.9686 27.957Z" stroke="#EFD764" stroke-width="0.0065" stroke-miterlimit="10.433"/>
  <path d="M24.0705 39.4208L24.0748 39.4164L24.0835 39.3997L24.1046 39.374L24.1344 39.3399L24.1728 39.2931L24.2153 39.2419L24.2748 39.1824L24.3384 39.1142L24.415 39.0376L24.5 38.9567L24.5936 38.8674L24.6999 38.7738L24.819 38.6759L24.9467 38.5738L25.0871 38.4675L25.2403 38.3612L25.4062 38.2464L25.5804 38.1314L25.7717 38.0167L25.9717 37.8974L26.1887 37.7783L26.4185 37.6592L26.6609 37.5402L26.9204 37.4254L27.1886 37.3064L27.4778 37.1916L27.7755 37.0766L28.0945 36.966L28.4263 36.8596L28.7707 36.7576L29.1366 36.6556L29.5151 36.562C29.5151 36.562 32.3694 36.464 34.8878 32.5464L24.0153 24.8518L13.3301 32.4319C16.0014 36.3709 18.8686 36.4518 18.8686 36.4518C23.2582 37.9533 24.0705 39.4208 24.0705 39.4208Z" stroke="#EFD764" stroke-width="0.0046" stroke-miterlimit="10.433"/>
  <path d="M15.8271 32.2278H18.8984" stroke="white" stroke-width="0.0043" stroke-miterlimit="10.433"/>
  <path d="M18.7959 34.146H19.0429V33.342" stroke="white" stroke-width="0.4693" stroke-miterlimit="10.433"/>
  <path d="M17.0562 34.1461H17.3538V33.9675" stroke="white" stroke-width="0.4693" stroke-miterlimit="10.433"/>
  <path d="M16.4995 33.1636V34.6567" stroke="white" stroke-width="0.0043" stroke-miterlimit="10.433"/>
  <path d="M19.2978 32.3936V32.3765L19.3021 32.3638L19.3064 32.347L19.3107 32.33L19.3151 32.3173L19.3237 32.3045L19.3321 32.2748L19.3448 32.2493L19.3575 32.2236L19.3746 32.1982L19.3873 32.1771L19.4044 32.156L19.4214 32.1346L19.4385 32.1175L19.4555 32.0964L19.4766 32.0794L19.4937 32.0667L19.5107 32.0496L19.5277 32.0369L19.5448 32.0242L19.5618 32.0115L19.5789 32.0031L19.5959 31.9903L19.613 31.9819L19.63 31.9733L19.6427 31.9649L19.6555 31.9606L19.6682 31.9563L19.6768 31.9519L19.6896 31.9476L19.6939 31.9433L19.7023 31.939H19.7066H19.7109C19.1957 31.8789 19.2978 32.3936 19.2978 32.3936Z" fill="white"/>
  <path d="M20.7144 32.2363H27.3501" stroke="white" stroke-width="0.0032" stroke-miterlimit="10.433"/>
  <path d="M27.9497 32.1257H27.9584H27.9627H27.9711H27.9754H27.9838H27.9881H27.9924L27.9968 32.1214H28.0052H28.0095L28.0138 32.1171H28.0181L28.0268 32.1128H28.0311L28.0395 32.1085L28.0482 32.1001L28.0566 32.0957L28.0652 32.0873L28.0736 32.083L28.0823 32.0746L28.0907 32.0662L28.095 32.0619L28.1036 32.0532L28.108 32.0448L28.1166 32.0365L28.1209 32.0278L28.1252 32.0235L28.1296 32.0151L28.1339 32.0064L28.1382 32.0021L28.1425 31.9978V31.9894L28.1469 31.9851V31.9807H28.1512V31.9764V31.9723H28.1555V31.968C28.0176 31.9937 27.9497 32.1257 27.9497 32.1257Z" fill="white"/>
  <path d="M31.1064 32.9426C31.3743 33.4659 31.1064 34.2103 31.1064 34.2103" stroke="white" stroke-width="0.0043" stroke-miterlimit="10.433"/>
  <path d="M31.1278 31.1218C31.3405 31.5683 31.0513 32.2361 31.0513 32.2361" stroke="white" stroke-width="0.0043" stroke-miterlimit="10.433"/>
  <path d="M29.5241 30.3518L29.4859 30.3816L29.4475 30.4113L29.4094 30.4411L29.3755 30.4752L29.3414 30.5134L29.3074 30.5474L29.2776 30.5856L29.2435 30.6281L29.2178 30.6665L29.188 30.7133L29.1583 30.7558L29.1328 30.8026L29.1071 30.8494L29.086 30.9006L29.0646 30.9517L29.0435 31.0028L29.0224 31.054L29.0013 31.1092L28.9843 31.1644L28.9672 31.2239L28.9502 31.2791L28.9374 31.3387L28.9204 31.4025L28.9077 31.462L28.899 31.5259L28.8863 31.5895L28.8777 31.6534L28.869 31.7215L28.8606 31.7851L28.852 31.8533L28.8476 31.9258L28.8433 31.9938C28.8008 32.7382 28.8433 33.3337 28.9881 33.8654C29.1667 34.5249 29.6345 34.8141 29.6345 34.8141" stroke="white" stroke-width="0.0043" stroke-miterlimit="10.433"/>
  <path d="M16.4644 15.6681L16.4941 15.6638L16.5282 15.6554L16.558 15.6511L16.5877 15.6427L16.6175 15.634L16.6473 15.63L16.7025 15.6086L16.7579 15.5915L16.8088 15.5661L16.86 15.5447L16.9068 15.515L16.9493 15.4895L16.9917 15.4598L17.0342 15.43L17.0726 15.4002L17.1067 15.3705L17.1406 15.3404L17.1747 15.3066L17.2044 15.2768L17.2299 15.2427L17.2556 15.213L17.281 15.1832L17.3024 15.1535L17.3238 15.128L17.3405 15.098L17.3576 15.0725L17.3703 15.0514L17.3833 15.0301L17.396 15.0087L17.4044 14.9916L17.4087 14.9792L17.4171 14.9662V14.9621L17.4214 14.9578V14.9535L22.5514 13.771L22.7302 13.971" stroke="white" stroke-width="0.5864" stroke-miterlimit="10.433"/>
  <path d="M14.9038 14.9065L15.0613 15.3532L15.0356 14.864L14.9038 14.9065Z" fill="white"/>
  <path d="M14.9038 14.9065L15.0613 15.3532L15.0356 14.864L14.9038 14.9065Z" stroke="white" stroke-width="0.3517" stroke-miterlimit="10.433"/>
  <path d="M31.3955 15.5322L31.4293 15.5409L31.4634 15.5452L31.4975 15.5495L31.5314 15.5539L31.5655 15.5582H31.5995H31.6293L31.6634 15.5539H31.6932L31.7229 15.5495L31.7527 15.5452L31.7825 15.5368L31.8122 15.5325L31.842 15.5241L31.8972 15.507L31.9524 15.4813L32.0035 15.4602L32.0547 15.4305L32.1015 15.4007L32.1483 15.3709L32.1908 15.3412L32.2333 15.3071L32.2758 15.2689L32.3096 15.2348L32.348 15.2007L32.3778 15.1626L32.4119 15.1285L32.4373 15.0944L32.463 15.0646L32.4885 15.0305L32.5096 15.0008L32.5266 14.9751L32.5437 14.9496L32.5607 14.9285L32.565 14.9199L32.5694 14.9115L32.5737 14.9028L32.578 14.8944L32.5823 14.8901L32.5867 14.8815V14.8771H32.591V14.8728L32.9482 14.9535C32.4121 15.979 31.3955 15.5322 31.3955 15.5322Z" fill="white"/>
  <path d="M24.6704 14.3283L25.1637 13.8818L25.6998 13.9711" stroke="white" stroke-width="0.7823" stroke-miterlimit="10.433"/>
  <path d="M23.577 15.4636L23.5345 17.1822C23.5131 17.5396 23.9131 17.6289 23.9131 17.6289" stroke="white" stroke-width="0.0072" stroke-miterlimit="10.433"/>
  <path d="M16.3631 16.9016L16.3545 21.1296L18.5071 21.1126L16.3631 16.9016Z" stroke="white" stroke-width="0.5" stroke-miterlimit="10.433"/>
  <path d="M16.1459 17.0759L16.1502 21.1086H13.8745L16.1459 17.0759Z" stroke="white" stroke-width="0.5" stroke-miterlimit="10.433"/>
  <path d="M15.4185 21.8742L15.4058 21.8615L15.3888 21.8528L15.3717 21.8444L15.359 21.8358L15.3292 21.8147L15.2995 21.7936L15.274 21.7724L15.2529 21.7513L15.2315 21.7256L15.2104 21.7045L15.1893 21.6834L15.1723 21.6577L15.1552 21.6366L15.1425 21.6155L15.1298 21.5898L15.1171 21.5687L15.1043 21.5475L15.0952 21.5254L15.0868 21.5043L15.0784 21.4829L15.0697 21.4656L15.0654 21.4445L15.0568 21.4275L15.0524 21.4104L15.0481 21.3977L15.0443 21.3807V21.3679L15.04 21.3593V21.3466V21.3379L15.0356 21.3336V21.3293V21.3252L18.2387 21.3338C18.1237 21.8572 17.524 22.2355 17.524 22.2355C17.928 21.8101 17.8685 21.47 17.8685 21.47H15.3631C15.257 21.6017 15.4185 21.8742 15.4185 21.8742Z" fill="white"/>
  <path d="M31.4423 17.1694L31.4294 21.2189H29.29L31.4423 17.1694Z" stroke="white" stroke-width="0.5" stroke-miterlimit="10.433"/>
  <path d="M31.6294 17.1484L31.6464 21.2108H33.8964L31.6294 17.1484Z" stroke="white" stroke-width="0.5" stroke-miterlimit="10.433"/>
  <path d="M16.3032 17.0974L16.316 17.0931H16.333H16.3457L16.3584 17.0888L16.3712 17.0844L16.3882 17.0801L16.4009 17.0758L16.4137 17.0715L16.4264 17.0631L16.4391 17.0587L16.4477 17.0503L16.4605 17.0417L16.4732 17.0333L16.4818 17.0246L16.4946 17.0162L16.5032 17.0035L16.5116 16.9951L16.5203 16.9824L16.5286 16.9697L16.5373 16.9613L16.5457 16.9486L16.55 16.9359L16.5584 16.9231L16.5627 16.9061L16.5714 16.8934L16.5757 16.8806V16.8636L16.58 16.8509L16.5844 16.8338V16.8211L16.5887 16.8041V16.787C16.5887 16.6168 16.4567 16.4807 16.3038 16.4807C16.1463 16.4807 16.0186 16.6168 16.0186 16.787C16.018 16.957 16.1458 17.0974 16.3032 17.0974Z" fill="white"/>
  <path d="M31.506 17.1825H31.523H31.5357L31.5528 17.1781H31.5655L31.5782 17.1738L31.5909 17.1695L31.6037 17.1652L31.6164 17.1608L31.6291 17.1522L31.6418 17.1438L31.6545 17.1395L31.6673 17.1308L31.6757 17.1224L31.6886 17.1138L31.697 17.101L31.7097 17.0924L31.7181 17.084L31.7265 17.0713L31.7352 17.0586L31.7436 17.0458L31.7522 17.0331L31.7566 17.0204L31.765 17.0077L31.7693 16.995L31.7736 16.9822L31.7779 16.9652L31.7823 16.9525L31.7866 16.9397V16.9227L31.7909 16.9057V16.8929V16.8759C31.7909 16.7057 31.6675 16.5696 31.506 16.5696C31.3528 16.5696 31.2251 16.7057 31.2251 16.8759C31.2251 17.0463 31.3528 17.1825 31.506 17.1825Z" fill="white"/>
  <path d="M24.0153 40.2897L24.8747 40.2686L25.7257 40.2012L26.5599 40.0959L27.3857 39.9483L28.1945 39.7631L28.9867 39.5354L29.7662 39.2744L30.5244 38.9752L31.266 38.6381L31.9865 38.2718L32.6861 37.8672L33.3646 37.4332L34.0217 36.9654L34.6537 36.4682L35.2602 35.9459L35.8418 35.3896L36.3939 34.808L36.9205 34.2015L37.4176 33.5695L37.8812 32.9164L38.3192 32.2379L38.7194 31.5342L39.0901 30.8138L39.4231 30.0722L39.7223 29.3138L39.9877 28.5386L40.211 27.7423L40.4006 26.9333L40.5438 26.1118L40.6532 25.2735L40.7165 24.4223L40.7377 23.5629C40.7377 14.3273 33.2506 6.84033 24.015 6.84033C14.7751 6.84033 7.28809 14.3273 7.28809 23.5629C7.28809 32.7984 14.7754 40.2897 24.0153 40.2897Z" stroke="white" stroke-width="2" stroke-miterlimit="10.433"/>
  <path d="M24.0154 45.814L25.1597 45.7842L26.287 45.6993L27.4013 45.5588L28.4988 45.3632L29.575 45.1123L30.6298 44.8147L31.6635 44.4659L32.6757 44.066L33.6583 43.6195L34.6197 43.1303L35.5513 42.5945L36.453 42.0159L37.3248 41.3949L38.1672 40.7355L38.9711 40.0338L39.7453 39.2978L40.4811 38.5237L41.183 37.7154L41.8424 36.8774L42.4634 36.0055L43.0419 35.1039L43.578 34.1679L44.0672 33.2109L44.5137 32.224L44.9136 31.216L45.2624 30.1824L45.5601 29.1233L45.8109 28.0471L46.0066 26.9539L46.147 25.8396L46.232 24.708L46.2618 23.5637C46.2623 11.2783 36.3001 1.31616 24.0154 1.31616C11.7263 1.31616 1.76416 11.2783 1.76416 23.5629C1.76416 35.8519 11.7263 45.814 24.0154 45.814Z" stroke="white" stroke-width="2" stroke-miterlimit="10.433"/>
  <path d="M16.097 17.1636L13.8745 21.1089H16.1502L16.1461 17.1872C16.1291 17.1806 16.1131 17.1722 16.097 17.1636Z" fill="white"/>
  <path d="M29.511 21.4447H29.5153V21.4534L29.5196 21.4577L29.524 21.4704L29.5283 21.4788L29.5326 21.4916L29.5369 21.5086L29.5456 21.5213L29.554 21.5427L29.5626 21.5597L29.5754 21.5809L29.5838 21.602L29.5965 21.6231L29.6092 21.6442L29.6262 21.6699L29.639 21.6956L29.656 21.721L29.6728 21.7465L29.6939 21.7722L29.711 21.7976L29.7321 21.8233L29.7575 21.8531L29.7786 21.8788L29.8043 21.9042L29.8298 21.934L29.8595 21.9597L29.885 21.9851L29.9147 22.0106L29.9488 22.0362L29.9829 22.0617L30.017 22.0874C30.017 22.0874 29.9488 21.7851 30.0552 21.6195H32.5565C32.5565 21.6195 32.5181 21.8747 32.0971 22.4148C32.0971 22.4148 32.7224 22.1255 32.8415 21.4577L29.5107 21.4407L29.511 21.4447Z" fill="white"/>
  <path d="M31.4421 17.3041C31.4205 17.3008 31.3996 17.2957 31.379 17.2891L29.29 21.2194H31.4296L31.4421 17.3041Z" fill="white"/>
  <path d="M31.6846 17.2678L31.6632 17.2762L31.6464 17.2805L31.6299 17.2872L31.6464 21.2109H33.8964L31.6925 17.2617L31.6846 17.2678Z" fill="white"/>
  <path d="M11.9688 27.957L24.0877 19.1222L35.9216 27.8296L35.4921 17.1274C35.4921 17.1274 35.2283 15.8044 36.9 13.9966L31.6978 11.0277C31.6978 11.0277 28.146 14.12 23.9475 10.1003C23.9475 10.1003 21.1401 13.6819 16.4055 10.9511L11.416 13.9579C11.416 13.9579 12.6878 14.3238 12.7603 18.1608L11.9688 27.957ZM15.8781 16.791C15.8781 16.6738 15.9254 16.5672 16.0018 16.4898L15.9674 16.489C14.7595 15.8637 14.687 14.7832 14.687 14.7832L15.3294 14.6471C16.2908 16.1487 17.2947 14.7023 17.2947 14.7023L22.6543 13.5751L23.5094 14.3322L23.8709 11.8522L23.892 11.9158L24.2238 14.3319L25.1595 13.6002L30.5108 14.77C30.5108 14.77 31.4976 16.229 32.4761 14.7319L33.1141 14.8723C33.1141 14.8723 33.0335 15.9528 31.821 16.5694L31.7887 16.57C31.8711 16.6478 31.923 16.7575 31.923 16.8801V16.9012L31.9187 16.9223V16.9437L31.9143 16.9648L31.91 16.9859L31.9014 17.007L31.897 17.0281L31.8887 17.0452L31.88 17.0666L31.8714 17.0836L31.8586 17.1006L31.85 17.1177L31.8373 17.1347L31.8337 17.1396L34.1046 21.2312C34.1046 21.2312 31.9309 24.9489 29.0171 21.3801L31.1982 17.1729C31.1282 17.0963 31.0845 16.9935 31.0845 16.8796C31.0845 16.761 31.1328 16.6537 31.2101 16.5763L31.1058 16.5776C31.1058 16.5776 30.1531 16.3649 29.9147 15.4419H24.4706L24.696 17.2922C24.696 17.2922 24.6278 17.96 23.9813 17.8964C23.9813 17.8964 23.4453 17.9603 23.254 17.3009L23.3349 15.4208H23.3265L17.8689 15.4419C17.6221 16.3649 16.6821 16.5053 16.6821 16.5053L16.6047 16.5043C16.6731 16.5801 16.7161 16.6804 16.7161 16.791V16.8167L16.7118 16.8378V16.8592L16.7075 16.8803L16.7032 16.8974L16.6948 16.9185L16.6904 16.9399L16.6818 16.9567L16.6734 16.978L16.665 16.9953L16.6523 17.0124L16.6439 17.0292L16.6312 17.0462L16.6289 17.0493L18.7792 21.2829C15.8356 24.8219 13.6917 21.0872 13.6917 21.0872L15.9702 17.0551C15.9132 16.9831 15.8781 16.8923 15.8781 16.791Z" fill="white"/>
  <path d="M16.4949 17.1653L16.4779 17.1783L16.4608 17.1867L16.4397 17.191L16.4227 17.1994L16.4013 17.2037L16.3802 17.2081L16.3624 17.2114L16.3545 21.1298L18.5071 21.1127L16.497 17.1646L16.4949 17.1653Z" fill="white"/>
  <path d="M7.61705 30.3306L8.18719 31.4535L8.11494 31.4919C7.91929 31.1475 7.82567 31.1813 7.56185 31.3474L5.64334 32.3172L5.72831 32.5042C5.941 32.9255 6.06846 32.9935 6.52793 32.8657L6.57474 32.9594L5.91124 33.2657L4.81396 31.1007L5.4561 30.7475L5.50291 30.8368C5.12002 31.1348 5.1073 31.2793 5.31999 31.7003L5.40928 31.9089L7.37028 30.9134C7.64682 30.7814 7.69796 30.6964 7.5448 30.369L7.61705 30.3306Z" fill="white"/>
  <path d="M7.61705 30.3306L8.18719 31.4535L8.11494 31.4919C7.91929 31.1475 7.82567 31.1813 7.56185 31.3474L5.64334 32.3172L5.72831 32.5042C5.941 32.9255 6.06846 32.9935 6.52793 32.8657L6.57474 32.9594L5.91124 33.2657L4.81396 31.1007L5.4561 30.7475L5.50291 30.8368C5.12002 31.1348 5.1073 31.2793 5.31999 31.7003L5.40928 31.9089L7.37028 30.9134C7.64682 30.7814 7.69796 30.6964 7.5448 30.369L7.61705 30.3306Z" fill="white" stroke="white" stroke-width="0.0023" stroke-miterlimit="10.433"/>
  <path d="M7.34914 29.7734L7.34481 29.7564L7.33616 29.7437L7.33184 29.7266L7.32751 29.7139L7.31912 29.7012L7.31479 29.6884L7.3064 29.6757L7.30207 29.663L7.29775 29.6503L7.28935 29.6376L7.28503 29.6289L7.2807 29.6162L7.2723 29.6075L7.26798 29.5991L7.25526 29.5821L7.24254 29.5651L7.22982 29.5523L7.2171 29.5396L7.20438 29.5269L7.19166 29.5182L7.17894 29.5099L7.16622 29.5012L7.14917 29.4969L7.13645 29.4926L7.1194 29.4882L7.10236 29.4839H7.08531H7.06852L7.05148 29.4882H7.03443L7.01331 29.4926L6.9922 29.4969L6.97108 29.5012L6.94971 29.5055L6.92427 29.5139L6.89858 29.5223L6.87314 29.5266L6.84769 29.535L6.81793 29.5434L5.04418 30.122C4.7422 30.2199 4.72083 30.2878 4.79308 30.5985L4.7165 30.6239L4.34633 29.4882L4.42724 29.4628C4.55063 29.7648 4.61855 29.7945 4.91214 29.7052L5.70336 29.4457L5.28663 28.2037L4.49542 28.4632C4.20615 28.5612 4.18504 28.6291 4.25729 28.9397L4.18071 28.9695L3.81055 27.8295L3.88712 27.8038C4.01458 28.106 4.08277 28.1399 4.37203 28.0422L6.19259 27.4552C6.46074 27.3703 6.52866 27.3021 6.44344 26.9787L6.52001 26.949L6.89018 28.089L6.8136 28.1144C6.68614 27.7743 6.5882 27.7911 6.28189 27.889L5.48228 28.1485L5.90765 29.4076L6.75 29.1354C7.00085 29.029 7.06471 28.9608 6.97973 28.6334L7.06064 28.6077L7.42648 29.7477L7.34914 29.7734Z" fill="white"/>
  <path d="M7.34914 29.7734L7.34481 29.7564L7.33616 29.7436L7.33184 29.7266L7.32751 29.7139L7.31912 29.7012L7.31479 29.6884L7.3064 29.6757L7.30207 29.663L7.29775 29.6503L7.28935 29.6376L7.28503 29.6289L7.2807 29.6162L7.2723 29.6075L7.26798 29.5991L7.25526 29.5821L7.24254 29.565L7.22982 29.5523L7.2171 29.5396L7.20438 29.5269L7.19166 29.5182L7.17894 29.5098L7.16622 29.5012L7.14917 29.4969L7.13645 29.4925L7.1194 29.4882L7.10236 29.4839H7.08531H7.06852L7.05148 29.4882H7.03443L7.01331 29.4925L6.9922 29.4969L6.97108 29.5012L6.94971 29.5055L6.92427 29.5139L6.89858 29.5223L6.87314 29.5266L6.84769 29.535L6.81793 29.5434L5.04418 30.1219C4.7422 30.2199 4.72083 30.2878 4.79308 30.5985L4.7165 30.6239L4.34633 29.4882L4.42724 29.4628C4.55063 29.7648 4.61855 29.7945 4.91214 29.7012L5.70336 29.446L5.28663 28.204L4.49542 28.4635C4.20615 28.5614 4.18504 28.6293 4.25729 28.94L4.18071 28.9697L3.81055 27.8297L3.88712 27.804C4.01458 28.1063 4.08277 28.1401 4.37203 28.0424L6.19259 27.4555C6.46074 27.3659 6.52866 27.3023 6.44344 26.979L6.52001 26.9492L6.89018 28.0892L6.8136 28.1147C6.68614 27.7745 6.5882 27.7913 6.28189 27.8893L5.48228 28.1488L5.90765 29.4078L6.75 29.1356C7.00085 29.0293 7.06471 28.9611 6.97973 28.6337L7.06064 28.608L7.42648 29.748L7.34914 29.7734Z" fill="white" stroke="white" stroke-width="0.0023" stroke-miterlimit="10.433"/>
  <path d="M6.17949 24.4776L6.541 26.7704L6.46035 26.7831C6.40082 26.5152 6.34969 26.4216 6.02633 26.4938L4.13759 26.7958C3.79744 26.8256 3.78879 26.9319 3.80991 27.2041L3.72926 27.2168L3.37207 24.9625L3.97629 24.8519L3.99334 24.9582C3.62317 25.0813 3.57636 25.205 3.64887 25.6772L3.74249 26.247C3.75521 26.3407 3.76386 26.3875 3.90837 26.3661L4.85274 26.2173L4.74639 25.5622C4.68686 25.1836 4.58052 25.1582 4.26988 25.1582L4.25284 25.0602L5.23969 24.9027L5.25674 25.0007C4.92499 25.107 4.87385 25.1793 4.92499 25.5324L5.02268 26.1875L6.0734 26.0216C6.24792 25.9959 6.25632 25.9919 6.1543 25.3581C6.06933 24.8264 5.90752 24.6351 5.44831 24.5158L5.43127 24.3967L6.17949 24.4776Z" fill="white"/>
  <path d="M6.17949 24.4776L6.541 26.7704L6.46035 26.7831C6.40082 26.5152 6.34969 26.4216 6.02633 26.4938L4.13759 26.7958C3.79744 26.8256 3.78879 26.9319 3.80991 27.2041L3.72926 27.2168L3.37207 24.9625L3.97629 24.8519L3.99334 24.9582C3.62317 25.0813 3.57636 25.205 3.64887 25.6772L3.74249 26.247C3.75521 26.3407 3.76386 26.3875 3.90837 26.3661L4.85274 26.2173L4.74639 25.5622C4.68686 25.1836 4.58052 25.1582 4.26988 25.1582L4.25284 25.0602L5.23969 24.9027L5.25674 25.0007C4.92499 25.107 4.87385 25.1793 4.92499 25.5324L5.02268 26.1875L6.0734 26.0216C6.24792 25.9959 6.25632 25.9919 6.1543 25.3581C6.06933 24.8264 5.90752 24.6351 5.44831 24.5158L5.43127 24.3967L6.17949 24.4776Z" fill="white" stroke="white" stroke-width="0.0023" stroke-miterlimit="10.433"/>
  <path d="M6.9538 18.2883L6.47297 20.5599L6.3623 20.5769C6.40046 20.3004 6.38342 20.1984 6.06031 20.1302L4.19294 19.7346C3.85687 19.6664 3.81006 19.76 3.73348 20.0238L3.65283 20.0068L4.12476 17.7695L4.72899 17.8843L4.70787 17.9863C4.32066 17.9736 4.23136 18.0672 4.12934 18.535L4.01028 19.1052C3.99323 19.1901 3.98051 19.2456 4.12502 19.2751L5.06099 19.471L5.1971 18.82C5.27775 18.4458 5.18438 18.3819 4.89486 18.2712L4.91191 18.1776L5.89037 18.3819L5.86925 18.4796C5.52478 18.4585 5.45227 18.5094 5.37595 18.8581L5.23119 19.526L6.27351 19.7259C6.44804 19.76 6.45211 19.76 6.58414 19.1347C6.69481 18.6073 6.60959 18.3732 6.2267 18.0967L6.24781 17.9776L6.9538 18.2883Z" fill="white"/>
  <path d="M6.9538 18.2883L6.47297 20.5599L6.3623 20.5726C6.40046 20.3004 6.38342 20.1984 6.06031 20.1302L4.19294 19.7346C3.85687 19.6664 3.81006 19.76 3.73348 20.0238L3.65283 20.0068L4.12476 17.7695L4.72899 17.8843L4.70787 17.9863C4.32066 17.9736 4.23136 18.0672 4.12934 18.535L4.01028 19.1052C3.99323 19.1901 3.98051 19.2456 4.12502 19.2751L5.06099 19.471L5.1971 18.82C5.27775 18.4458 5.18438 18.3819 4.89486 18.2712L4.91191 18.1776L5.89037 18.3819L5.86925 18.4796C5.52478 18.4585 5.45227 18.5094 5.37595 18.8581L5.23119 19.526L6.27351 19.7259C6.44804 19.76 6.45211 19.76 6.58414 19.1347C6.69481 18.6073 6.60959 18.3732 6.2267 18.0967L6.24781 17.9776L6.9538 18.2883Z" fill="white" stroke="white" stroke-width="0.0023" stroke-miterlimit="10.433"/>
  <path d="M12.5047 9.98503L11.603 10.8571L11.5435 10.7976C11.8157 10.5127 11.7562 10.4361 11.5522 10.2234L10.059 8.67941L9.87179 8.81984C9.53139 9.14726 9.50162 9.2877 9.76112 9.68763L9.68887 9.7642L9.19531 9.21977L10.9436 7.53101L11.471 8.04135L11.3944 8.10953C11.0029 7.83299 10.8627 7.85868 10.5182 8.19043L10.3183 8.37335L11.8837 9.9344C12.0836 10.1428 12.1816 10.1682 12.4495 9.92601L12.5047 9.98503Z" fill="white"/>
  <path d="M12.5047 9.98503L11.603 10.8571L11.5435 10.7976C11.8157 10.5127 11.7562 10.4361 11.5522 10.2234L10.059 8.67941L9.87179 8.81984C9.53139 9.14726 9.50162 9.2877 9.76112 9.68763L9.68887 9.7642L9.19531 9.21977L10.9436 7.53101L11.471 8.04135L11.3944 8.10953C11.0029 7.83299 10.8627 7.85868 10.5182 8.19043L10.3183 8.37335L11.8837 9.9344C12.0836 10.1428 12.1816 10.1682 12.4495 9.92601L12.5047 9.98503Z" fill="white" stroke="white" stroke-width="0.0023" stroke-miterlimit="10.433"/>
  <path d="M14.3634 5.39952L14.3423 5.41657L14.3252 5.43361L14.3041 5.44633L14.2871 5.45905L14.2744 5.4761L14.2573 5.48882L14.2446 5.50154L14.2319 5.51426L14.2191 5.53131L14.2064 5.54403L14.1978 5.55675L14.1851 5.56947L14.1764 5.58219L14.1721 5.59923L14.1634 5.61195L14.1591 5.62467L14.1548 5.64172L14.1505 5.65851V5.67123V5.68828V5.70532V5.72237L14.1548 5.74348L14.1591 5.76053L14.1634 5.78164L14.1678 5.80301L14.1761 5.82413L14.1848 5.84525L14.1891 5.85797L14.1975 5.87069L14.2018 5.88341L14.2062 5.89613L14.2146 5.90885L14.2189 5.92157L14.2273 5.93429L14.2316 5.95133L15.3034 7.53376C15.5248 7.78893 15.6268 7.76781 15.8649 7.62331L15.9117 7.69123L14.9122 8.36771L14.8653 8.29953C15.1376 8.09956 15.1462 8.01459 14.9462 7.721L13.8658 6.11746L13.8614 6.12586L14.3252 8.76331L14.2741 8.80147L12.0707 7.45311L12.0623 7.45743L13.0237 8.87805C13.2745 9.24822 13.4022 9.27366 13.6701 9.11211L13.7169 9.17571L12.8746 9.74151L12.8321 9.67333C13.1 9.46497 13.1682 9.4352 12.8662 8.98439L11.8921 7.53808C11.7007 7.25721 11.6071 7.27858 11.3349 7.44446L11.2881 7.37653L11.9941 6.90002L14.0357 8.14637L13.6063 5.8109L14.3166 5.33032L14.3634 5.39952Z" fill="white"/>
  <path d="M14.3634 5.39952L14.3423 5.41657L14.3252 5.43361L14.3041 5.44633L14.2871 5.45905L14.2744 5.4761L14.2573 5.48882L14.2446 5.50154L14.2319 5.51426L14.2191 5.53131L14.2064 5.54403L14.1978 5.55675L14.1851 5.56947L14.1764 5.58219L14.1721 5.59923L14.1634 5.61195L14.1591 5.62467L14.1548 5.64172L14.1505 5.65851V5.67123V5.68828V5.70532V5.72237L14.1548 5.74348L14.1591 5.76053L14.1634 5.78164L14.1678 5.80301L14.1761 5.82413L14.1848 5.84525L14.1891 5.85797L14.1975 5.87069L14.2018 5.88341L14.2062 5.89613L14.2146 5.90885L14.2189 5.92157L14.2273 5.93429L14.2316 5.95133L15.3034 7.53376C15.5248 7.78893 15.6268 7.76781 15.8649 7.62331L15.9117 7.69123L14.9122 8.36771L14.8653 8.29953C15.1376 8.09956 15.1462 8.01459 14.9462 7.721L13.8658 6.11746L13.8614 6.12586L14.3252 8.76331L14.2741 8.80147L12.0707 7.45311L12.0623 7.45743L13.0237 8.87805C13.2745 9.24822 13.4022 9.27366 13.6701 9.11211L13.7169 9.17571L12.8746 9.74151L12.8321 9.67333C13.1 9.46497 13.1682 9.4352 12.8662 8.98439L11.8921 7.53808C11.7007 7.25721 11.6071 7.27858 11.3349 7.44446L11.2881 7.37653L11.9941 6.90002L14.0357 8.14637L13.6063 5.8109L14.3166 5.33032L14.3634 5.39952Z" fill="white" stroke="white" stroke-width="0.0023" stroke-miterlimit="10.433"/>
  <path d="M20.7359 3.26424L20.7104 3.27289L20.689 3.28129L20.6679 3.28968L20.6466 3.29833L20.6254 3.30673L20.6043 3.31945L20.5873 3.3281L20.5702 3.33649L20.5532 3.34514L20.5364 3.35786L20.5237 3.37058L20.511 3.37923L20.4982 3.39195L20.4855 3.409L20.4728 3.42172L20.4644 3.43877L20.455 3.45556L20.4507 3.4726L20.442 3.49372L20.4379 3.51076L20.4336 3.5362V3.54485V3.55757L20.4293 3.57029V3.58302V3.59574V3.61278L20.4336 3.6255V3.63822V3.65527V3.67206L20.4379 3.68478V3.70182L20.4423 3.71887L20.4466 3.73999L20.4509 3.75703L20.4552 3.77408V3.79519L20.4639 3.81656L20.4682 3.83768L20.4725 3.85879L20.4769 3.87991L20.4855 3.90128L21.0724 6.08767L21.0002 6.10471L18.5586 4.32233H18.5502L18.9883 5.94316C19.1033 6.37261 19.218 6.44079 19.5244 6.37261L19.5287 6.44918L18.5545 6.713L18.5459 6.63643C18.8565 6.53008 18.9288 6.44511 18.8054 5.9943L18.3121 4.16078C18.0867 3.99923 18.0144 3.9949 17.8486 4.04171L17.8262 3.96183L18.5365 3.77051L20.6674 5.33996H20.6761L20.3016 3.94911C20.1698 3.4726 20.0464 3.4726 19.7571 3.52806L19.736 3.44742L20.7102 3.18359L20.7359 3.26424Z" fill="white"/>
  <path d="M20.7359 3.26424L20.7104 3.27289L20.689 3.28129L20.6679 3.28968L20.6466 3.29833L20.6254 3.30673L20.6043 3.31945L20.5873 3.3281L20.5702 3.33649L20.5532 3.34514L20.5364 3.35786L20.5237 3.37058L20.511 3.37923L20.4982 3.39195L20.4855 3.409L20.4728 3.42172L20.4644 3.43877L20.455 3.45556L20.4507 3.4726L20.442 3.49372L20.4379 3.51076L20.4336 3.5362V3.54485V3.55757L20.4293 3.57029V3.58302V3.59574V3.61278L20.4336 3.6255V3.63822V3.65527V3.67206L20.4379 3.68478V3.70182L20.4423 3.71887L20.4466 3.73999L20.4509 3.75703L20.4552 3.77408V3.79519L20.4639 3.81656L20.4682 3.83768L20.4725 3.85879L20.4769 3.87991L20.4855 3.90128L21.0724 6.08767L21.0002 6.10471L18.5586 4.32233H18.5502L18.9883 5.94316C19.1033 6.37261 19.218 6.44079 19.5244 6.36854L19.5287 6.44944L18.5545 6.71326L18.5459 6.63668C18.8565 6.53034 18.9288 6.44537 18.8054 5.99455L18.3121 4.16103C18.0867 3.99948 18.0144 3.99516 17.8486 4.04197L17.8262 3.96183L18.5365 3.77051L20.6674 5.33996H20.6761L20.3016 3.94911C20.1698 3.4726 20.0464 3.4726 19.7571 3.52806L19.736 3.44742L20.7102 3.18359L20.7359 3.26424Z" fill="white" stroke="white" stroke-width="0.0023" stroke-miterlimit="10.433"/>
  <path d="M23.0797 5.75706L21.8291 5.89317L21.8377 5.81226C22.2247 5.75273 22.229 5.65072 22.1949 5.33576L21.9611 3.19618L21.7314 3.22188C21.2592 3.27301 21.1528 3.36638 21.1103 3.84289L21.0083 3.85561L20.9531 3.12393L23.3649 2.86011L23.4713 3.58746L23.3687 3.59611C23.2283 3.13665 23.0965 3.07279 22.6287 3.12393L22.3989 3.14937L22.6327 5.33576C22.6668 5.62502 22.7264 5.7016 23.0879 5.6759L23.0797 5.75706Z" fill="white"/>
  <path d="M23.0797 5.75706L21.8291 5.89317L21.8377 5.81226C22.2247 5.75273 22.229 5.65072 22.1949 5.33576L21.9611 3.19618L21.7314 3.22188C21.2592 3.27301 21.1528 3.36638 21.1103 3.84289L21.0083 3.85561L20.9531 3.12393L23.3649 2.86011L23.4713 3.58746L23.3687 3.59611C23.2283 3.13665 23.0965 3.07279 22.6287 3.12393L22.3989 3.14937L22.6327 5.33576C22.6668 5.62502 22.7264 5.7016 23.0879 5.6759L23.0797 5.75706Z" fill="white" stroke="white" stroke-width="0.0023" stroke-miterlimit="10.433"/>
  <path d="M29.2985 5.49351L29.3029 5.47646V5.45942L29.3072 5.42965V5.39989L29.3115 5.37012V5.34468V5.31898L29.3072 5.29354V5.27217L29.3029 5.25106L29.2985 5.22994L29.2942 5.21289L29.2899 5.19178L29.2812 5.17473L29.2728 5.16201L29.2642 5.14497L29.2555 5.13225L29.2428 5.11953L29.2301 5.10681L29.2174 5.09409L29.2047 5.08569L29.1876 5.07297L29.1706 5.06457L29.1538 5.05592L29.1367 5.0432L29.1156 5.03481L29.0942 5.02616L29.0731 5.01776L29.0474 5.01344L29.0261 5.00479L28.9963 4.99639L28.9706 4.98774L28.9408 4.97935L28.3366 4.81754L28.1069 5.72782C28.0262 6.04252 28.0942 6.11477 28.3877 6.20432L28.3666 6.2809L27.2012 5.98324L27.2223 5.90234C27.5372 5.9662 27.6052 5.91506 27.6945 5.57492L28.1539 3.76709C28.2389 3.43941 28.1453 3.38853 27.8901 3.3033L27.9069 3.22266L30.1231 3.78846L29.9826 4.3881L29.8763 4.36266C29.9104 3.97571 29.8211 3.87776 29.3573 3.76277L28.7874 3.61394C28.6854 3.5885 28.6513 3.59689 28.6172 3.7246L28.3834 4.6476L28.9876 4.80508C29.3278 4.89005 29.4257 4.83052 29.5448 4.52421L29.6425 4.54965L29.396 5.51971L29.2985 5.49351Z" fill="white"/>
  <path d="M29.2985 5.49351L29.3029 5.47646V5.45942L29.3072 5.42965V5.39989L29.3115 5.37012V5.34468V5.31898L29.3072 5.29354V5.27217L29.3029 5.25106L29.2985 5.22994L29.2942 5.21289L29.2899 5.19178L29.2812 5.17473L29.2728 5.16201L29.2642 5.14497L29.2555 5.13225L29.2428 5.11953L29.2301 5.10681L29.2174 5.09409L29.2047 5.08569L29.1876 5.07297L29.1706 5.06457L29.1538 5.05592L29.1367 5.0432L29.1156 5.03481L29.0942 5.02616L29.0731 5.01776L29.0474 5.01344L29.0261 5.00479L28.9963 4.99639L28.9706 4.98774L28.9408 4.97935L28.3366 4.81754L28.1069 5.72782C28.0262 6.04252 28.0942 6.11477 28.3877 6.20432L28.3666 6.2809L27.2012 5.98324L27.2223 5.90234C27.5372 5.9662 27.6052 5.91506 27.6945 5.57492L28.1539 3.76709C28.2389 3.43941 28.1453 3.38853 27.8901 3.3033L27.9069 3.22266L30.1231 3.78846L29.9826 4.3881L29.8763 4.36266C29.9104 3.97571 29.8211 3.87776 29.3573 3.76277L28.7874 3.61394C28.6854 3.5885 28.6513 3.59689 28.6172 3.7246L28.3834 4.6476L28.9876 4.80508C29.3278 4.89005 29.4257 4.83052 29.5448 4.52421L29.6425 4.54965L29.396 5.51971L29.2985 5.49351Z" fill="white" stroke="white" stroke-width="0.0023" stroke-miterlimit="10.433"/>
  <path d="M32.0292 7.6756L30.8936 7.13549L30.9276 7.06298C31.2935 7.21614 31.3444 7.13116 31.4848 6.84597L32.4078 4.90204L32.1951 4.80002C31.7697 4.59573 31.6293 4.62142 31.3444 5.00405L31.2467 4.96157L31.5871 4.31079L33.7775 5.35285L33.4883 6.025L33.3947 5.98251C33.518 5.51465 33.4415 5.39126 33.012 5.1913L32.8037 5.08928L31.8593 7.0757C31.7359 7.33953 31.7443 7.43722 32.0677 7.60309L32.0292 7.6756Z" fill="white"/>
  <path d="M32.0292 7.6756L30.8936 7.13549L30.9276 7.06298C31.2935 7.21614 31.3444 7.13116 31.4848 6.84597L32.4078 4.90204L32.1951 4.80002C31.7697 4.59573 31.6293 4.62142 31.3444 5.00405L31.2467 4.96157L31.5871 4.31079L33.7775 5.35285L33.4883 6.025L33.3947 5.98251C33.518 5.51465 33.4415 5.39126 33.012 5.1913L32.8037 5.08928L31.8593 7.0757C31.7359 7.33953 31.7443 7.43722 32.0677 7.60309L32.0292 7.6756Z" fill="white" stroke="white" stroke-width="0.0023" stroke-miterlimit="10.433"/>
  <path d="M32.6328 7.85437L32.6498 7.86277L32.6625 7.87142L32.6753 7.87981L32.688 7.88846L32.7007 7.89686L32.7134 7.90118L32.7261 7.90983L32.7389 7.91416L32.7516 7.91848L32.7602 7.92713L32.7729 7.93146L32.7857 7.93578L32.7941 7.94011L32.8068 7.94443L32.8238 7.95283L32.8449 7.95715L32.862 7.96148H32.879L32.8961 7.9658L32.9131 7.96148H32.9302L32.9429 7.95715L32.9599 7.95283L32.9727 7.9485L32.9897 7.94011L33.0024 7.93146L33.0151 7.92306L33.0279 7.91441L33.0449 7.90169L33.0576 7.88897L33.0704 7.87193L33.0831 7.85488L33.1001 7.83784L33.1128 7.82079L33.1256 7.79942L33.1426 7.7783L33.1597 7.75719L33.1767 7.73607L33.1894 7.71038L34.2442 6.17044C34.4228 5.90687 34.3974 5.83869 34.1465 5.63873L34.1933 5.5708L35.1845 6.24702L35.1377 6.31088C34.8525 6.14933 34.7805 6.16612 34.606 6.41722L34.1338 7.11048L35.2099 7.84649L35.6821 7.15322C35.8607 6.89373 35.8353 6.82147 35.5885 6.62151L35.6353 6.55333L36.6222 7.2298L36.5754 7.29798C36.2904 7.13211 36.2179 7.15348 36.0436 7.40432L34.9675 8.98242C34.8059 9.21622 34.793 9.3101 35.0611 9.51413L35.0143 9.58232L34.0274 8.91017L34.0743 8.83792C34.3806 9.02923 34.4487 8.9613 34.6314 8.69748L35.1036 8.00396L34.0274 7.26796L33.5255 7.99531C33.368 8.23344 33.3553 8.32274 33.6234 8.5311L33.5766 8.59928L32.5854 7.92306L32.6328 7.85437Z" fill="white"/>
  <path d="M32.6328 7.85437L32.6498 7.86277L32.6625 7.87142L32.6753 7.87981L32.688 7.88846L32.7007 7.89686L32.7134 7.90118L32.7261 7.90983L32.7389 7.91416L32.7516 7.91848L32.7602 7.92713L32.7729 7.93146L32.7857 7.93578L32.7941 7.94011L32.8068 7.94443L32.8238 7.95283L32.8449 7.95715L32.862 7.96148H32.879L32.8961 7.9658L32.9131 7.96148H32.9302L32.9429 7.95715L32.9599 7.95283L32.9727 7.9485L32.9897 7.94011L33.0024 7.93146L33.0151 7.92306L33.0279 7.91441L33.0449 7.90169L33.0576 7.88897L33.0704 7.87193L33.0831 7.85488L33.1001 7.83784L33.1128 7.82079L33.1256 7.79942L33.1426 7.7783L33.1597 7.75719L33.1767 7.73607L33.1894 7.71038L34.2442 6.17044C34.4228 5.90687 34.3974 5.83869 34.1465 5.63873L34.1933 5.5708L35.1845 6.24702L35.1377 6.31088C34.8525 6.14933 34.7805 6.16612 34.606 6.41722L34.1338 7.10616L35.2099 7.84623L35.6821 7.15297C35.8607 6.89347 35.8353 6.82122 35.5885 6.62125L35.6353 6.55307L36.6222 7.22954L36.5754 7.29773C36.2904 7.13185 36.2179 7.15322 36.0436 7.40407L34.9675 8.98217C34.8059 9.21597 34.793 9.30984 35.0611 9.51388L35.0143 9.58206L34.0274 8.90991L34.0743 8.83766C34.3806 9.02898 34.4487 8.96105 34.6314 8.69723L35.1036 7.99964L34.0274 7.26796L33.5255 7.99531C33.368 8.23344 33.3553 8.32274 33.6234 8.5311L33.5766 8.59928L32.5854 7.92306L32.6328 7.85437Z" fill="white" stroke="white" stroke-width="0.0023" stroke-miterlimit="10.433"/>
  <path d="M36.8833 11.3677L35.1904 9.78098L35.2456 9.72145C35.4583 9.89598 35.5563 9.93414 35.7814 9.69169L37.0873 8.30058C37.3211 8.04973 37.2659 7.96044 37.083 7.76022L37.1384 7.70068L38.8059 9.26173L38.3932 9.7212L38.3123 9.64894C38.5293 9.32559 38.4952 9.19813 38.1464 8.87045L37.721 8.47485C37.6572 8.41125 37.619 8.3769 37.5211 8.48324L36.866 9.18083L37.3468 9.63597C37.6277 9.89547 37.7297 9.84866 37.9722 9.65709L38.0487 9.72527L37.3641 10.4569L37.2919 10.3888C37.4875 10.0995 37.4832 10.0145 37.228 9.76343L36.7472 9.30397L36.0198 10.0825C35.8964 10.2142 35.8923 10.2142 36.36 10.6523C36.7556 11.0225 36.998 11.0777 37.4361 10.8907L37.5211 10.9714L36.8833 11.3677Z" fill="white"/>
  <path d="M36.8833 11.3677L35.1904 9.78098L35.2456 9.72145C35.4583 9.89598 35.5563 9.93414 35.7814 9.69169L37.0873 8.30058C37.3211 8.04973 37.2659 7.96044 37.083 7.76022L37.1384 7.70068L38.8059 9.26173L38.3932 9.7212L38.3123 9.64894C38.5293 9.32559 38.4952 9.19813 38.1464 8.87045L37.721 8.47485C37.6572 8.41125 37.619 8.3769 37.5211 8.48324L36.866 9.18083L37.3468 9.63597C37.6277 9.89547 37.7297 9.84866 37.9722 9.65709L38.0487 9.72527L37.3641 10.4569L37.2919 10.3888C37.4875 10.0995 37.4832 10.0145 37.228 9.76343L36.7472 9.30397L36.0198 10.0825C35.8964 10.2142 35.8923 10.2142 36.36 10.6523C36.7556 11.0225 36.998 11.0777 37.4361 10.8907L37.5211 10.9714L36.8833 11.3677Z" fill="white" stroke="white" stroke-width="0.0023" stroke-miterlimit="10.433"/>
  <path d="M38.5545 13.5627L37.8271 12.5417L37.891 12.4906C38.1335 12.8012 38.2228 12.7544 38.4779 12.5715L40.2346 11.3208L40.0985 11.1336C39.822 10.7466 39.6902 10.6998 39.2518 10.8955L39.1923 10.8105L39.8006 10.4065L41.2128 12.3845L40.63 12.831L40.5705 12.746C40.9022 12.3972 40.8979 12.2527 40.6213 11.8699L40.4895 11.6785L38.6944 12.9547C38.456 13.1249 38.4222 13.2141 38.6219 13.5161L38.5545 13.5627Z" fill="white"/>
  <path d="M38.5545 13.5627L37.8271 12.5417L37.891 12.4906C38.1335 12.8012 38.2228 12.7544 38.4779 12.5715L40.2346 11.3208L40.0985 11.1336C39.822 10.7466 39.6902 10.6998 39.2518 10.8955L39.1923 10.8105L39.8006 10.4065L41.2128 12.3845L40.63 12.831L40.5705 12.746C40.9022 12.3972 40.8979 12.2527 40.6213 11.8699L40.4895 11.6785L38.6944 12.9547C38.456 13.1249 38.4222 13.2141 38.6219 13.5161L38.5545 13.5627Z" fill="white" stroke="white" stroke-width="0.0023" stroke-miterlimit="10.433"/>
  <path d="M41.1794 18.7564L40.4434 16.553L40.5199 16.5276C40.622 16.7827 40.6899 16.8636 41.0048 16.7573L42.817 16.1533C43.1447 16.047 43.136 15.9406 43.0681 15.6768L43.1447 15.6514L43.8677 17.8207L43.2892 18.0247L43.2551 17.9227C43.5996 17.7398 43.6296 17.6123 43.4764 17.1613L43.2935 16.6085C43.2638 16.5235 43.251 16.4723 43.1106 16.5189L42.2044 16.8211L42.4127 17.4508C42.5361 17.8166 42.6466 17.825 42.9488 17.7698L42.9829 17.8634L42.0342 18.1825L42.0044 18.0889C42.3151 17.9314 42.3489 17.8505 42.2382 17.5103L42.0383 16.8766L41.026 17.2167C40.8601 17.2719 40.8558 17.272 41.0557 17.8802C41.2302 18.3906 41.4172 18.5524 41.8894 18.5949L41.9276 18.7096L41.1794 18.7564Z" fill="white"/>
  <path d="M41.1794 18.7564L40.4434 16.553L40.5199 16.5276C40.622 16.7827 40.6899 16.8636 41.0048 16.7573L42.817 16.1533C43.1447 16.047 43.136 15.9406 43.0681 15.6768L43.1447 15.6514L43.8677 17.8207L43.2892 18.0247L43.2551 17.9227C43.5996 17.7398 43.6296 17.6123 43.4764 17.1613L43.2935 16.6085C43.2638 16.5235 43.251 16.4723 43.1106 16.5189L42.2044 16.8211L42.4127 17.4508C42.5361 17.8166 42.6466 17.825 42.9488 17.7698L42.9829 17.8634L42.0342 18.1825L42.0044 18.0889C42.3151 17.9314 42.3489 17.8505 42.2382 17.5103L42.0383 16.8766L41.026 17.2167C40.8601 17.2719 40.8558 17.272 41.0557 17.8802C41.2302 18.3906 41.4172 18.5524 41.8894 18.5949L41.9276 18.7096L41.1794 18.7564Z" fill="white" stroke="white" stroke-width="0.0023" stroke-miterlimit="10.433"/>
  <path d="M43.8252 23.8309L43.8208 23.7245C44.174 23.6436 44.5566 23.363 44.5482 22.9122C44.5439 22.6952 44.4078 22.4782 44.1399 22.4825C43.4934 22.4952 43.4339 23.9331 42.5534 23.9502C42.1875 23.9545 41.7662 23.6693 41.7578 23.057C41.7535 22.7295 41.8939 22.5166 41.8899 22.3848C41.8899 22.2955 41.8133 22.2528 41.7451 22.2528V22.1592L42.6554 22.0146V22.1123C42.4554 22.2016 41.9026 22.427 41.911 23.0099C41.9194 23.3544 42.1662 23.5205 42.4 23.5162C42.6424 23.5118 42.7869 23.4396 43.1487 22.8015C43.37 22.4019 43.5527 22.1253 43.9781 22.1167C44.4673 22.1083 44.7182 22.4952 44.7225 22.8824C44.7311 23.1419 44.5864 23.3757 44.5864 23.4821C44.5907 23.6055 44.6884 23.6225 44.7395 23.6309V23.7202L43.8252 23.8309Z" fill="white"/>
  <path d="M43.8252 23.8309L43.8208 23.7245C44.174 23.6436 44.5566 23.363 44.5482 22.9122C44.5439 22.6952 44.4078 22.4782 44.1399 22.4825C43.4934 22.4952 43.4339 23.9331 42.5534 23.9502C42.1875 23.9545 41.7662 23.6693 41.7578 23.057C41.7535 22.7295 41.8939 22.5166 41.8899 22.3848C41.8899 22.2955 41.8133 22.2528 41.7451 22.2528V22.1592L42.6554 22.0146V22.1123C42.4554 22.2016 41.9026 22.427 41.911 23.0099C41.9194 23.3544 42.1662 23.5205 42.4 23.5162C42.6424 23.5118 42.7869 23.4396 43.1487 22.8015C43.37 22.4019 43.5527 22.1253 43.9781 22.1167C44.4673 22.1083 44.7182 22.4952 44.7225 22.8824C44.7311 23.1419 44.5864 23.3757 44.5864 23.4821C44.5907 23.6055 44.6884 23.6225 44.7395 23.6309V23.7202L43.8252 23.8309Z" fill="white" stroke="white" stroke-width="0.0023" stroke-miterlimit="10.433"/>
  <path d="M44.2294 27.2596V27.2298V27.2001V27.1744V27.1489V27.1235L44.2251 27.0978L44.2208 27.0767L44.2165 27.0556L44.2121 27.0344L44.2078 27.0174L44.2035 27.0004L44.1948 26.9833L44.1862 26.9665L44.1778 26.9495L44.1651 26.9368L44.1524 26.924L44.1394 26.9113L44.1226 26.8986L44.1099 26.8859L44.0888 26.8775L44.0717 26.8688L44.0503 26.8561L44.0249 26.8475L44.0038 26.8431L43.974 26.8347L43.9486 26.8261L43.9188 26.8174H43.9018L43.8847 26.8131L43.8677 26.8088L43.8509 26.8045H43.8338L43.8127 26.8001L43.7957 26.7958H43.7746L43.7532 26.7915L43.7364 26.7872L42.6178 26.6427C42.2776 26.6002 41.4777 26.4979 41.6223 25.392C41.7584 24.3329 42.5877 24.4392 42.8472 24.4731L44.1786 24.6476C44.4933 24.686 44.5487 24.6308 44.6126 24.3118L44.6932 24.3202L44.5358 25.5283L44.4551 25.5197C44.4722 25.1796 44.4253 25.12 44.1234 25.0816L42.7579 24.903C42.4814 24.8692 41.8901 24.7923 41.7925 25.537C41.75 25.8687 41.852 26.1282 42.0392 26.2771C42.1242 26.345 42.2603 26.4089 42.605 26.4516L43.7578 26.6004C44.2172 26.66 44.3022 26.5663 44.3574 26.2727L44.4381 26.2814L44.3106 27.2726L44.2294 27.2596Z" fill="white"/>
  <path d="M44.2294 27.2596V27.2298V27.2001V27.1744V27.1489V27.1235L44.2251 27.0978L44.2208 27.0767L44.2165 27.0556L44.2121 27.0344L44.2078 27.0174L44.2035 27.0004L44.1948 26.9833L44.1862 26.9665L44.1778 26.9495L44.1651 26.9368L44.1524 26.924L44.1394 26.9113L44.1226 26.8986L44.1099 26.8859L44.0888 26.8775L44.0717 26.8688L44.0503 26.8561L44.0249 26.8475L44.0038 26.8431L43.974 26.8347L43.9486 26.8261L43.9188 26.8174H43.9018L43.8847 26.8131L43.8677 26.8088L43.8509 26.8045H43.8338L43.8127 26.8001L43.7957 26.7958H43.7746L43.7532 26.7915L43.7364 26.7872L42.6178 26.6427C42.2776 26.6002 41.4777 26.4979 41.6223 25.392C41.7584 24.3329 42.5877 24.4392 42.8472 24.4731L44.1786 24.6476C44.4933 24.686 44.5487 24.6308 44.6126 24.3118L44.6932 24.3202L44.5358 25.5283L44.4551 25.5197C44.4722 25.1796 44.4253 25.12 44.1234 25.0816L42.7579 24.903C42.4814 24.8692 41.8901 24.7923 41.7925 25.537C41.75 25.8687 41.852 26.1282 42.0392 26.2771C42.1242 26.345 42.2603 26.4089 42.605 26.4516L43.7578 26.6004C44.2172 26.66 44.3022 26.5663 44.3574 26.2727L44.4381 26.2814L44.3106 27.2726L44.2294 27.2596Z" fill="white" stroke="white" stroke-width="0.0023" stroke-miterlimit="10.433"/>
  <path d="M42.1024 33.1509L42.1111 33.1255L42.1197 33.0957L42.1281 33.0659L42.1324 33.0532L42.1368 33.0362V33.0234L42.1411 33.0064V32.9894V32.9723V32.9553V32.9341L42.1368 32.9171V32.896L42.1324 32.8749L42.1281 32.8535L42.1238 32.8324L42.1154 32.8069L42.1067 32.7812L42.0981 32.7515L42.0854 32.726L42.0726 32.6963L42.0599 32.6665L42.0472 32.6324L42.0304 32.5986L42.0218 32.5815L42.0131 32.5645L42.0004 32.5434L41.9917 32.5263L41.979 32.5052L41.9704 32.4884L41.9576 32.4671L41.9449 32.4459L41.9322 32.4248L41.9195 32.4037L41.3282 31.4041L40.5754 31.0383C40.2989 30.9022 40.2053 30.9192 40.0351 31.2637L39.9585 31.2296L40.5368 30.0471L40.6133 30.0812C40.4347 30.4641 40.5154 30.5193 40.8133 30.6641L41.4855 30.9915L42.4766 30.847C43.2465 30.7363 43.289 30.6854 43.3869 30.5193L43.4635 30.5534L42.9318 31.6339L42.8595 31.5998C42.9404 31.4209 42.9829 31.3189 42.8723 31.268C42.8298 31.2469 42.7405 31.2426 42.6723 31.251L41.5366 31.4041L42.1406 32.3867C42.1703 32.4335 42.2001 32.4846 42.2553 32.51C42.3744 32.5696 42.4553 32.4251 42.5148 32.3058L42.5871 32.3398L42.1744 33.1863L42.1024 33.1509Z" fill="white"/>
  <path d="M42.1024 33.1509L42.1111 33.1211L42.1197 33.0955L42.1281 33.0657L42.1324 33.053L42.1368 33.0359V33.0232L42.1411 33.0062V32.9891V32.9721V32.955V32.9339L42.1368 32.9169V32.8957L42.1324 32.8746L42.1281 32.8533L42.1238 32.8278L42.1154 32.8067L42.1067 32.781L42.0981 32.7512L42.0854 32.7258L42.0726 32.696L42.0599 32.6663L42.0472 32.6322L42.0304 32.5983L42.0218 32.5813L42.0131 32.5642L42.0004 32.5431L41.9917 32.5261L41.979 32.505L41.9704 32.4882L41.9576 32.4668L41.9449 32.4457L41.9322 32.4246L41.9195 32.4035L41.3282 31.4039L40.5754 31.0381C40.2989 30.9019 40.2053 30.919 40.0351 31.2635L39.9585 31.2294L40.5368 30.0469L40.6133 30.081C40.4347 30.4639 40.5154 30.5191 40.8133 30.6638L41.4855 30.9912L42.4766 30.8467C43.2465 30.7361 43.289 30.6852 43.3869 30.5191L43.4635 30.5531L42.9318 31.6336L42.8595 31.5995C42.9404 31.4207 42.9829 31.3187 42.8723 31.2678C42.8298 31.2467 42.7405 31.2423 42.6723 31.2507L41.5366 31.4039L42.1406 32.3864C42.1703 32.4332 42.2001 32.4844 42.2553 32.5098C42.3744 32.5693 42.4553 32.4248 42.5148 32.3055L42.5871 32.3396L42.1744 33.186L42.1024 33.1509Z" fill="white" stroke="white" stroke-width="0.0023" stroke-miterlimit="10.433"/>
  <path d="M7.49364 16.7825C7.37458 17.0931 7.2896 17.1399 6.97897 17.0336L6.23889 16.7697C6.29842 16.6761 6.32819 16.5995 6.36228 16.5016C6.51543 16.0762 6.5368 15.7913 6.43453 15.5575C6.39204 15.4682 6.29003 15.2298 5.97507 15.1151C5.46039 14.9321 5.06479 15.3575 4.86482 15.9149L4.48193 16.9867L4.55851 17.0124C4.6903 16.7272 4.75848 16.7018 5.06479 16.8252L6.82149 17.4549C7.09371 17.5355 7.18301 17.5696 7.08938 17.9184L7.19573 17.9141L7.59973 16.7825H7.49364ZM6.17936 16.5062L6.17096 16.5359L6.15824 16.5657L6.14552 16.5955L6.1328 16.6252L6.12008 16.655L6.10736 16.6848L6.09464 16.7145L5.03986 16.336C4.90375 16.2892 4.92079 16.2423 4.96328 16.119C5.02713 15.9404 5.24415 15.3534 5.82242 15.5618C6.43911 15.7831 6.24779 16.3232 6.19259 16.4721L6.17936 16.5062Z" fill="white"/>
  <path d="M9.13127 13.6691C9.02925 13.8307 8.96107 13.8604 8.6166 13.835L5.95394 13.6223L5.91553 13.6946L7.3532 15.4853C7.49796 15.6683 7.70199 15.9362 7.74016 16.0512C7.77425 16.1618 7.74881 16.2297 7.72311 16.2893L7.79129 16.3274L8.1953 15.579L8.12737 15.5408C8.08056 15.6215 7.98693 15.796 7.82513 15.7108C7.78264 15.6896 7.73583 15.6512 7.70174 15.6044L7.34862 15.1918L7.88466 14.1963L8.33115 14.2387C8.39501 14.2431 8.53112 14.2642 8.59497 14.294C8.73108 14.3705 8.68427 14.498 8.61202 14.6384L8.6802 14.6766L9.20352 13.7068L9.13127 13.6691ZM7.32776 15.1449L6.5195 14.1454L7.79994 14.2688L7.32776 15.1449Z" fill="white"/>
  <path d="M10.7438 11.7929L11.1819 11.2441L11.1183 11.193C11.0033 11.3291 10.8758 11.3632 10.7267 11.3675L9.3229 11.4057C9.42517 11.2057 9.68441 10.6997 9.2252 10.3509C8.69781 9.94688 8.19586 10.4529 7.9618 10.7549L7.23877 11.6992L7.30263 11.7461C7.51099 11.529 7.57892 11.4993 7.85139 11.7163L9.33155 12.8476C9.56993 13.0265 9.62921 13.0944 9.43357 13.3837L9.49742 13.4348L10.2248 12.4905L10.1609 12.4393C9.93552 12.7031 9.84622 12.6861 9.61649 12.5116L8.94433 11.9926L9.06772 11.7967L10.7438 11.7929ZM9.03796 11.5675L9.01684 11.6059L8.99573 11.644L8.9741 11.6781L8.94841 11.712L8.92729 11.7461L8.90617 11.7758L8.88048 11.8099L8.85936 11.8397L8.83825 11.8694L8.81713 11.8949L7.9791 11.2525C7.87708 11.1759 7.87708 11.125 8.01726 10.9462C8.12361 10.8058 8.47673 10.3677 8.93187 10.7165L8.95298 10.7335L8.97436 10.7506L8.99547 10.7676L9.01252 10.7846L9.02956 10.8058L9.04661 10.8228L9.06365 10.8439L9.07637 10.861L9.08909 10.878L9.10181 10.8991L9.11046 10.9202L9.12319 10.9373L9.13183 10.9587L9.13616 10.9757L9.14456 10.9968L9.14888 11.0179L9.15728 11.035L9.1616 11.0561L9.16593 11.0943L9.17025 11.1367L9.16593 11.1749V11.2174L9.15728 11.2558L9.14888 11.2983L9.14023 11.3365L9.12751 11.3746L9.11072 11.4171L9.09367 11.4553L9.07663 11.4934L9.05958 11.5316L9.03796 11.5675Z" fill="white"/>
  <path d="M26.0572 2.91977L25.9936 2.91138H25.9254H25.8572L25.7936 2.9157L25.7298 2.91977L25.6616 2.93249L25.5977 2.94521L25.5339 2.95793L25.4703 2.9793L25.4067 3.00042L25.3472 3.02154L25.2833 3.0513L25.2235 3.08158L25.1683 3.11567L25.1128 3.15383L25.0576 3.19199L25.0024 3.23448L24.9513 3.28154L24.9045 3.32835L24.8577 3.38356L24.8109 3.43877L24.7684 3.49397L24.73 3.55783L24.6918 3.62143L24.658 3.68961L24.6279 3.76186L24.5982 3.83844L24.5727 3.91502L24.5516 3.99592L24.5346 4.08089L24.5175 4.16587L24.5048 4.25949C24.4112 5.17409 24.9429 5.79077 25.7555 5.87168C26.534 5.95232 27.2145 5.4547 27.3081 4.54036C27.4058 3.55808 26.7594 2.99228 26.0572 2.91977ZM26.8314 4.31088L26.8271 4.40018L26.8187 4.48947C26.725 5.42951 26.2485 5.76559 25.7723 5.71878C25.296 5.67196 24.9002 5.24659 24.9938 4.30223C25.0958 3.32403 25.6064 3.02612 26.0445 3.07293L26.0827 3.07725L26.1251 3.08565L26.1633 3.09404L26.2058 3.10676L26.2439 3.11948L26.2821 3.13653L26.3246 3.15357L26.3628 3.17469L26.3968 3.19581L26.435 3.2215L26.4688 3.25127L26.5073 3.28103L26.537 3.31512L26.5711 3.34921L26.6009 3.38738L26.6307 3.42986L26.6604 3.47235L26.6861 3.51916L26.7072 3.5703L26.7329 3.62118L26.754 3.67664L26.7711 3.73617L26.7881 3.7957L26.8009 3.85956L26.8136 3.92774L26.8222 3.99999L26.8265 4.07224L26.8309 4.14882L26.8352 4.22947L26.8314 4.31088Z" fill="white"/>
  <path d="M26.8186 4.48931L26.827 4.40001L26.8314 4.31071L26.8357 4.22981L26.8314 4.14916L26.827 4.07259L26.8227 4.00034L26.8141 3.92808L26.8013 3.8599L26.7886 3.79605L26.7716 3.73651L26.7545 3.67698L26.7334 3.62152L26.7077 3.57064L26.6866 3.5195L26.6609 3.47269L26.6317 3.43021L26.6019 3.38772L26.5721 3.34956L26.538 3.31547L26.5083 3.28138L26.4698 3.25161L26.436 3.22185L26.3978 3.19615L26.3638 3.17503L26.3256 3.15392L26.2831 3.13687L26.2449 3.11983L26.2068 3.10711L26.1643 3.09439L26.1261 3.08599L26.0837 3.0776L26.0455 3.07327C25.6074 3.02646 25.0968 3.32437 24.9948 4.30257C24.9012 5.24694 25.2968 5.67231 25.7733 5.71912C26.2498 5.76593 26.725 5.42935 26.8186 4.48931Z" stroke="white" stroke-width="0.0023" stroke-miterlimit="10.433"/>
  <path d="M42.0425 13.7159L41.5024 12.6565L41.4299 12.6949C41.5406 12.9798 41.5319 13.0521 41.2513 13.1969L39.588 14.0433C39.303 14.188 39.2137 14.2135 39.0351 13.9115L38.9629 13.9497L39.503 15.0131L39.5755 14.9747C39.4351 14.66 39.4905 14.5877 39.7457 14.4557L40.5028 14.0687L40.6178 14.2814L39.9032 15.7956L40.2179 16.4123L40.2904 16.3742C40.2179 16.2126 40.2393 16.0892 40.2988 15.9488L40.8687 14.6643C41.0048 14.8429 41.3536 15.2937 41.8683 15.0345C42.4592 14.7325 42.2168 14.056 42.0425 13.7159ZM41.6128 14.7111L41.5871 14.7238L41.5617 14.7365L41.5362 14.7449L41.5106 14.7536L41.4892 14.762L41.4637 14.7663L41.4383 14.7747L41.4172 14.779L41.3961 14.7834H41.3704H41.3493L41.3279 14.7877L41.3068 14.7834H41.2857H41.2645L41.2432 14.779L41.2264 14.7747L41.2053 14.7704L41.1668 14.7577L41.1287 14.7406L41.0946 14.7236L41.0605 14.7024L41.0264 14.6813L40.9923 14.6556L40.9626 14.6302L40.9285 14.6004L40.903 14.5707L40.8733 14.5409L40.8476 14.5068L40.8178 14.4727L40.7921 14.4386L40.771 14.4045L40.7453 14.3664L40.7242 14.3323L40.7031 14.2982L40.6819 14.26L40.6649 14.2259L40.6438 14.1918L40.627 14.1621L40.6099 14.128L40.5931 14.0982L41.5375 13.6174C41.6482 13.5622 41.6947 13.5833 41.797 13.7833C41.8766 13.9413 42.1191 14.4516 41.6128 14.7111Z" fill="white"/>
  <path d="M40.5923 14.0988L40.6091 14.1286L40.6261 14.1626L40.6429 14.1924L40.664 14.2265L40.6811 14.2606L40.7022 14.2988L40.7233 14.3328L40.7444 14.3669L40.7701 14.4051L40.7912 14.4392L40.8169 14.4733L40.8467 14.5074L40.8724 14.5415L40.9022 14.5712L40.9276 14.601L40.9617 14.6308L40.9915 14.6562L41.0255 14.6819L41.0596 14.703L41.0937 14.7241L41.1278 14.7412L41.166 14.7582L41.2044 14.7709L41.2255 14.7753L41.2423 14.7796L41.2637 14.7839H41.2848H41.3059L41.327 14.7882L41.3484 14.7839H41.3695H41.3952L41.4163 14.7796L41.4374 14.7753L41.4629 14.7669L41.4883 14.7625L41.5097 14.7541L41.5354 14.7455L41.5608 14.7371L41.5863 14.7244L41.612 14.7117C42.1182 14.4522 41.8758 13.9418 41.7949 13.7843C41.6929 13.5844 41.6461 13.563 41.5354 13.6185L40.5923 14.0988Z" stroke="white" stroke-width="0.0023" stroke-miterlimit="10.433"/>
  <path d="M44.3311 19.9344L42.1022 19.3983C41.8981 19.3474 41.5664 19.2709 41.4471 19.19C41.3534 19.1261 41.3323 19.0538 41.3153 18.99L41.2344 19.0027L41.3748 19.8407L41.4557 19.828C41.443 19.7387 41.4089 19.5431 41.5875 19.509C41.6343 19.5047 41.6938 19.5047 41.7534 19.5174L42.2851 19.628L42.468 20.7424L42.0894 20.9848C42.0342 21.0189 41.9022 21.0998 41.8386 21.1082C41.6768 21.138 41.6514 20.9975 41.6259 20.8403L41.5453 20.853L41.7239 21.9335L41.8048 21.9208C41.7877 21.7338 41.8259 21.6656 42.1111 21.4784L44.3443 20.0193L44.3311 19.9344ZM42.7316 20.6533L42.57 19.6708L43.8164 19.9684L42.7316 20.6533Z" fill="white"/>
  <path d="M44.131 27.6805C44.0119 27.9614 43.9567 28.0123 43.6504 27.9187L41.868 27.3829C41.5576 27.2893 41.4767 27.2508 41.5533 26.9107L41.4767 26.885L41.1363 28.025L41.2129 28.0507C41.3276 27.7274 41.4172 27.7062 41.6978 27.7912L42.506 28.0337L42.4465 28.2677L40.8811 28.8674L40.6812 29.5309L40.7621 29.5563C40.8216 29.3904 40.9236 29.3138 41.064 29.2543L42.3615 28.7183C42.3402 28.9396 42.2766 29.5054 42.8294 29.6754C43.4631 29.8626 43.7567 29.2075 43.8631 28.8417L44.2075 27.706L44.131 27.6805ZM43.7481 28.6844C43.6969 28.8544 43.5227 29.3904 42.9739 29.2248L42.9441 29.2162L42.9184 29.2078L42.893 29.1991L42.8716 29.1864L42.8462 29.178L42.8251 29.1653L42.8039 29.1526L42.7869 29.1398L42.7658 29.1271L42.749 29.1144L42.732 29.1017L42.7152 29.0846L42.7024 29.0719L42.6897 29.0549L42.6727 29.0378L42.66 29.0208L42.6516 29.0037L42.6388 28.9867L42.6177 28.9526L42.605 28.9144L42.588 28.8763L42.5796 28.8379L42.5709 28.7997L42.5625 28.7572L42.5582 28.7188V28.6763V28.6338V28.5913L42.5625 28.5488L42.5668 28.5064L42.5712 28.4639L42.5798 28.4214L42.5841 28.383L42.5925 28.3405L42.6012 28.3023L42.6139 28.2598L42.6223 28.2214L42.631 28.1833L42.6437 28.1492L42.6523 28.1151L42.6607 28.081L43.6773 28.383C43.6758 28.3825 43.8119 28.4674 43.7481 28.6844Z" fill="white" stroke="white" stroke-width="0.0023" stroke-miterlimit="10.433"/>
  <path d="M42.6592 28.0806L42.6508 28.1147L42.6421 28.1487L42.6294 28.1828L42.6208 28.221L42.6124 28.2594L42.5996 28.3019L42.591 28.3401L42.5826 28.3825L42.5783 28.421L42.5696 28.4635L42.5653 28.5059L42.561 28.5484L42.5566 28.5909V28.6334V28.6759V28.7184L42.561 28.7568L42.5694 28.7993L42.578 28.8374L42.5864 28.8758L42.6035 28.914L42.6162 28.9522L42.6373 28.9863L42.65 29.0033L42.6584 29.0204L42.6711 29.0374L42.6882 29.0544L42.7009 29.0715L42.7136 29.0842L42.7304 29.1013L42.7474 29.114L42.7642 29.1267L42.7854 29.1394L42.8024 29.1521L42.8235 29.1649L42.8446 29.1776L42.8701 29.186L42.8914 29.1987L42.9169 29.2073L42.9426 29.2157L42.9723 29.2244C43.5211 29.3903 43.6954 28.8542 43.7465 28.684C43.8104 28.467 43.6743 28.3818 43.6743 28.3818L42.6592 28.0806Z" stroke="white" stroke-width="0.0023" stroke-miterlimit="10.433"/>
  <path d="M18.2685 6.69716L16.146 7.64152L16.1122 7.56927C16.3546 7.44156 16.4312 7.36498 16.261 7.08004L15.4825 5.33607C15.3805 5.00865 15.2741 5.02544 15.0146 5.11499L14.9849 5.04248L17.0692 4.11084L17.3331 4.66799L17.2351 4.71048C17.0224 4.38713 16.8906 4.37034 16.4526 4.56598L15.9208 4.80003C15.8399 4.83819 15.7931 4.85956 15.8527 4.99135L16.2396 5.86321L16.8479 5.59531C17.1967 5.43783 17.1967 5.32742 17.1117 5.02951L17.2054 4.98702L17.6094 5.8973L17.5201 5.93978C17.3328 5.6462 17.2478 5.61643 16.9204 5.76093L16.3121 6.02043L16.7461 6.99889C16.8184 7.15636 16.8227 7.16044 17.4053 6.90094C17.8986 6.67986 18.0434 6.47557 18.0391 6.00339L18.1454 5.95225L18.2685 6.69716Z" fill="white"/>
  <path d="M18.2685 6.69716L16.146 7.64152L16.1122 7.56927C16.3546 7.44156 16.4312 7.36498 16.261 7.08004L15.4825 5.33607C15.3805 5.00432 15.2741 5.02544 15.0146 5.11499L14.9849 5.04248L17.0692 4.11084L17.3331 4.66799L17.2351 4.71048C17.0224 4.38713 16.8906 4.37034 16.4526 4.56598L15.9208 4.80003C15.8399 4.83819 15.7931 4.85956 15.8527 4.99135L16.2396 5.86321L16.8479 5.59531C17.1967 5.43783 17.1967 5.32742 17.1117 5.02951L17.2054 4.98702L17.6094 5.8973L17.5201 5.93978C17.3328 5.6462 17.2478 5.61643 16.9204 5.76093L16.3121 6.02043L16.7461 6.99889C16.8184 7.15636 16.8227 7.16044 17.4053 6.90094C17.8986 6.67986 18.0434 6.47557 18.0391 6.00339L18.1454 5.95225L18.2685 6.69716Z" fill="white" stroke="white" stroke-width="0.0023" stroke-miterlimit="10.433"/>
  <path d="M19.1064 43.581L19.1276 43.5853L19.1489 43.5896L19.1744 43.594L19.1955 43.5983L19.2125 43.6026H19.2337L19.255 43.6069H19.2718L19.2932 43.6113H19.3102H19.3273L19.3443 43.6069H19.3614H19.3784L19.3911 43.6026L19.4079 43.5983L19.4206 43.5896L19.4377 43.5853L19.4504 43.5767L19.4631 43.5683L19.4759 43.5555L19.4886 43.5469L19.4972 43.5342L19.5015 43.5255L19.5099 43.5171L19.5143 43.5087L19.5186 43.5044L19.5229 43.496L19.5272 43.4833L19.5359 43.4749L19.5402 43.4662L19.5445 43.4579L19.5489 43.4451L19.5532 43.4324L19.5575 43.424L19.5618 43.4113V43.3986L19.5662 43.3856L19.5705 43.3729L19.5748 43.3602L19.5791 43.3431L20.0045 41.4417C20.0216 41.3524 20.047 41.2417 19.9068 41.2119C19.8557 41.1992 19.8557 41.1992 19.5962 41.2417L19.6132 41.1822L20.4556 40.9695L20.4854 40.9865L19.9239 43.5047C19.8771 43.7046 19.9493 43.7726 20.264 43.8407L20.2513 43.9043L19.0942 43.6448L19.1064 43.581Z" fill="white"/>
  <path d="M19.1064 43.581L19.1276 43.5853L19.1489 43.5896L19.1744 43.594L19.1955 43.5983L19.2125 43.6026H19.2337L19.255 43.6069H19.2718L19.2932 43.6113H19.3102H19.3273L19.3443 43.6069H19.3614H19.3784L19.3911 43.6026L19.4079 43.5983L19.4206 43.5896L19.4377 43.5853L19.4504 43.5767L19.4631 43.5683L19.4759 43.5555L19.4886 43.5469L19.4972 43.5342L19.5015 43.5255L19.5099 43.5171L19.5143 43.5087L19.5186 43.5044L19.5229 43.496L19.5272 43.4833L19.5359 43.4749L19.5402 43.4662L19.5445 43.4579L19.5489 43.4451L19.5532 43.4324L19.5575 43.424L19.5618 43.4113V43.3986L19.5662 43.3856L19.5705 43.3729L19.5748 43.3602L19.5791 43.3431L20.0045 41.4417C20.0216 41.3524 20.047 41.2417 19.9068 41.2119C19.8557 41.1992 19.8557 41.1992 19.5962 41.2417L19.6132 41.1822L20.4556 40.9695L20.4854 40.9865L19.9239 43.5047C19.8771 43.7046 19.9493 43.7726 20.264 43.8407L20.2513 43.9043L19.0942 43.6448L19.1064 43.581Z" fill="white" stroke="white" stroke-width="0.0023" stroke-miterlimit="10.433"/>
  <path d="M23.769 41.5009L22.6631 44.2444L22.3822 44.2276L23.4116 41.7263L22.4799 41.6627C22.1991 41.6413 22.1141 41.7604 21.9569 41.973L21.8887 41.9349L22.1014 41.5052L22.1863 41.3223L23.7728 41.4329L23.769 41.5009Z" fill="white"/>
  <path d="M23.769 41.5009L22.6631 44.2444L22.3822 44.2276L23.4116 41.7263L22.4799 41.6627C22.1991 41.6413 22.1141 41.7604 21.9569 41.973L21.8887 41.9349L22.1014 41.5052L22.1863 41.3223L23.7728 41.4329L23.769 41.5009Z" fill="white" stroke="white" stroke-width="0.0023" stroke-miterlimit="10.433"/>
  <path d="M29.3706 41.8666C29.2047 41.1647 28.6944 40.7818 28.1794 40.9052C27.6307 41.0286 27.401 41.5603 27.533 42.1175C27.6096 42.462 27.9199 42.9044 28.4814 42.7726C28.69 42.7258 28.8941 42.5983 29.0429 42.3984L29.0516 42.407V42.4197V42.4368V42.4579V42.4877L29.0472 42.5174L29.0429 42.5515V42.5897L29.0345 42.6322L29.0302 42.679L29.0215 42.7258L29.0088 42.7769L28.9961 42.828L28.9834 42.8833L28.9663 42.9385L28.9452 42.998L28.9241 43.0532L28.8984 43.1127L28.8727 43.1766L28.8429 43.2361L28.8048 43.2957L28.7707 43.3552L28.7282 43.4147L28.6814 43.4742L28.6303 43.5338L28.5791 43.589L28.5196 43.6442L28.4557 43.6953L28.4216 43.721L28.3876 43.7465L28.3535 43.7719L28.3153 43.7976L28.2771 43.8187L28.239 43.8444L28.1965 43.8655L28.154 43.8866L28.1115 43.9037L28.0647 43.9248L28.0985 44.0057C29.1495 43.6915 29.5749 42.7558 29.3706 41.8666ZM28.975 42.3131C28.9027 42.4067 28.7455 42.5215 28.6051 42.5556C28.1627 42.6576 27.954 42.1897 27.8818 41.8707C27.8009 41.5262 27.8052 41.1136 28.1583 41.0327L28.1838 41.0284L28.2095 41.024L28.2349 41.0197H28.2606H28.2817H28.3074H28.3285L28.3496 41.024L28.3751 41.0284L28.3962 41.0368L28.4132 41.0411L28.4344 41.0497L28.4555 41.0581L28.4725 41.0665L28.4939 41.0792L28.5107 41.0879L28.5277 41.1006L28.5488 41.1133L28.5786 41.1431L28.6127 41.1729L28.6425 41.207L28.6722 41.2411L28.6979 41.2795L28.7234 41.3176L28.7491 41.3601L28.7702 41.3983L28.7913 41.4408L28.8124 41.4832L28.8295 41.5301L28.8465 41.5725L28.8636 41.615L28.8763 41.6575L28.8933 41.7L28.906 41.7384L28.9144 41.7766L28.9272 41.8147L28.9356 41.8488L28.9442 41.8829L28.9485 41.9127L28.9569 41.9425L28.9612 41.9681L28.9994 42.1297C29.0218 42.207 29.0177 42.2579 28.975 42.3131Z" fill="white"/>
  <path d="M28.9626 41.9685L28.9583 41.9428L28.9499 41.913L28.9456 41.8832L28.9369 41.8491L28.9286 41.815L28.9158 41.7769L28.9074 41.7387L28.8947 41.7003L28.8777 41.6578L28.865 41.6153L28.8479 41.5729L28.8309 41.5304L28.8138 41.4836L28.7927 41.4411L28.7716 41.3986L28.7505 41.3604L28.7248 41.3179L28.6993 41.2798L28.6736 41.2414L28.6439 41.2073L28.6141 41.1732L28.58 41.1434L28.5502 41.1136L28.5291 41.1009L28.5121 41.0882L28.4953 41.0796L28.4739 41.0668L28.4569 41.0584L28.4358 41.05L28.4146 41.0414L28.3976 41.0371L28.3765 41.0287L28.351 41.0243L28.3299 41.02H28.3088H28.2831H28.262H28.2363L28.2109 41.0243L28.1852 41.0287L28.1597 41.033C27.8066 41.1139 27.8023 41.5265 27.8832 41.871C27.9554 42.19 28.1641 42.6579 28.6065 42.5559C28.7469 42.5218 28.9041 42.4071 28.9764 42.3134C29.0189 42.2582 29.0232 42.2071 29.0021 42.1305L28.9626 41.9685Z" stroke="white" stroke-width="0.0023" stroke-miterlimit="10.433"/>
  <path d="M25.2487 43.5724L25.253 43.6021L25.2574 43.6319L25.2617 43.6617L25.2701 43.6914L25.2744 43.7212L25.2828 43.7466L25.2955 43.7764L25.3039 43.8019L25.3166 43.8275L25.3294 43.853L25.3421 43.8784L25.3548 43.9041L25.3718 43.9252L25.3889 43.9466L25.4059 43.9677L25.4227 43.9888L25.4438 44.0059L25.4652 44.027L25.4863 44.044L25.5074 44.0568L25.5286 44.0738L25.5543 44.0865L25.5797 44.0949L25.6054 44.1077L25.6308 44.116L25.6606 44.1244L25.686 44.1288L25.7158 44.1331L25.7456 44.1374H25.7753H25.8094H25.8392C26.1114 44.116 26.2987 43.9204 26.2773 43.6184C26.2518 43.3037 26.0603 43.1887 25.5415 42.874C25.4103 42.9979 25.2189 43.1811 25.2487 43.5724Z" stroke="white" stroke-width="0.0023" stroke-miterlimit="10.433"/>
  <path d="M26.546 43.5301C26.5206 43.2408 26.4099 43.0027 25.8016 42.6325C26.027 42.4921 26.3545 42.2837 26.325 41.8881C26.2993 41.5648 26.0103 41.3012 25.5251 41.3394C25.1549 41.3691 24.7425 41.633 24.7764 42.0667V42.1008L24.7807 42.1306L24.785 42.1604L24.7934 42.1901L24.7977 42.2158L24.8064 42.2415L24.8148 42.267L24.8278 42.2924L24.8362 42.3181L24.8489 42.3435L24.8616 42.3646L24.8743 42.3858L24.887 42.4115L24.9038 42.4326L24.9209 42.4537L24.9379 42.4748L24.959 42.4962L24.9761 42.5173L24.9972 42.5384L25.0183 42.5595L25.044 42.5766L25.0651 42.5979L25.0906 42.6234L25.1203 42.6445L25.1458 42.6656L25.1755 42.687L25.2053 42.7124L25.2353 42.7338L25.2692 42.7592L25.2989 42.7847L25.333 42.8104L25.3712 42.8358C25.0097 43.1548 24.8438 43.3037 24.8735 43.6782C24.899 44.0142 25.2096 44.3417 25.7457 44.2992C26.4567 44.2445 26.5631 43.7555 26.546 43.5301ZM25.1338 41.8922C25.1168 41.6882 25.2402 41.4498 25.5592 41.4243C25.8909 41.3989 26.0611 41.6157 26.0782 41.854V41.8881V41.9222V41.9563V41.9861L26.0739 42.0159L26.0695 42.0456L26.0652 42.0754L26.0566 42.1008L26.0482 42.1265L26.0395 42.152L26.0311 42.1777L26.0184 42.2031L26.01 42.2242L25.9973 42.2456L25.9846 42.2667L25.9716 42.2878L25.9545 42.3049L25.9418 42.326L25.9291 42.343L25.9121 42.3601L25.895 42.3771L25.8823 42.3942L25.8652 42.4112L25.8482 42.4239L25.8184 42.4537L25.7843 42.4794L25.7546 42.5048L25.7248 42.5259C25.5635 42.441 25.1636 42.2283 25.1338 41.8922ZM25.8401 44.1384H25.8103H25.7762H25.7464L25.7167 44.1341L25.6869 44.1297L25.6615 44.1254L25.6317 44.117L25.6063 44.1086L25.5806 44.0959L25.5551 44.0875L25.5294 44.0748L25.5083 44.0577L25.4872 44.045L25.4661 44.028L25.4447 44.0069L25.4236 43.9898L25.4068 43.9687L25.3897 43.9476L25.3727 43.9262L25.3557 43.9051L25.3429 43.8794L25.3302 43.854L25.3175 43.8285L25.3048 43.8028L25.2964 43.7774L25.2837 43.7476L25.2753 43.7222L25.2709 43.6924L25.2625 43.6626L25.2582 43.6329L25.2539 43.6031L25.2496 43.5733C25.2198 43.1821 25.4114 42.9991 25.5432 42.8758C26.0622 43.1905 26.2535 43.3052 26.2789 43.6202C26.2993 43.9214 26.1123 44.117 25.8401 44.1384Z" fill="white" stroke="white" stroke-width="0.0023" stroke-miterlimit="10.433"/>
  <path d="M25.7253 42.5257L25.7551 42.5046L25.7849 42.4792L25.819 42.4535L25.8487 42.4237L25.8658 42.411L25.8828 42.394L25.8955 42.3769L25.9126 42.3599L25.9296 42.3428L25.9424 42.3258L25.9551 42.3047L25.9721 42.2876L25.9851 42.2665L25.9978 42.2454L26.0105 42.224L26.0189 42.2029L26.0317 42.1775L26.0401 42.1518L26.0487 42.1263L26.0571 42.1006L26.0657 42.0752L26.0701 42.0454L26.0744 42.0157L26.0787 41.9859V41.9561V41.922V41.8879V41.8539C26.0617 41.6155 25.8915 41.3987 25.5597 41.4242C25.2407 41.4499 25.1173 41.688 25.1344 41.892C25.1639 42.2281 25.5638 42.4408 25.7253 42.5257Z" stroke="white" stroke-width="0.0023" stroke-miterlimit="10.433"/>
  <path d="M13.0197 30.4454L13.1685 29.8498L12.6538 29.5224L13.2621 29.484L13.4153 28.8884L13.6407 29.4586L14.2574 29.4204L13.7852 29.8117L14.0108 30.3816L13.4918 30.0541L13.0197 30.4454Z" fill="white"/>
  <path d="M14.8873 28.9398L15.0404 28.3445L14.5171 28.0168L15.1297 27.9784L15.2829 27.3831L15.5083 27.9529L16.1209 27.9104L15.6487 28.3061L15.8784 28.8762L15.3594 28.5485L14.8873 28.9398Z" fill="white"/>
  <path d="M16.7715 27.6551L16.9204 27.0596L16.4014 26.7319L17.014 26.6894L17.1671 26.0981L17.3925 26.6683L18.0049 26.6255L17.5327 27.0171L17.7584 27.5869L17.2394 27.2595L16.7715 27.6551Z" fill="white"/>
  <path d="M18.5621 26.3746L18.7153 25.779L18.1963 25.4516L18.8089 25.4132L18.9577 24.8176L19.1875 25.3878L19.8001 25.3496L19.3279 25.7409L19.5533 26.311L19.0343 25.9833L18.5621 26.3746Z" fill="white"/>
  <path d="M20.2679 25.1029L20.4211 24.5073L19.9023 24.1799L20.5147 24.1374L20.6679 23.5459L20.8933 24.116L21.5059 24.0735L21.0337 24.4648L21.2591 25.0347L20.7401 24.7073L20.2679 25.1029Z" fill="white"/>
  <path d="M21.974 23.8268L22.1271 23.2312L21.6084 22.9081L22.2208 22.8653L22.3696 22.2698L22.5993 22.8399L23.2119 22.8015L22.7398 23.193L22.9652 23.7629L22.4462 23.4355L21.974 23.8268Z" fill="white"/>
  <path d="M23.5939 22.6485L23.747 22.057L23.228 21.7253L23.8404 21.6871L23.9935 21.0916L24.219 21.6614L24.8316 21.6233L24.3594 22.0145L24.5851 22.5847L24.0661 22.2573L23.5939 22.6485Z" fill="white"/>
  <path d="M25.2867 23.8821L25.4355 23.2865L24.9165 22.9591L25.5291 22.9166L25.6823 22.321L25.9077 22.8912L26.5203 22.8528L26.0481 23.2484L26.2776 23.8142L25.7545 23.4867L25.2867 23.8821Z" fill="white"/>
  <path d="M27.061 25.107L27.2139 24.5115L26.6992 24.184L27.3075 24.1456L27.4607 23.55L27.6861 24.1202L28.2987 24.0774L27.8265 24.473L28.0562 25.0388L27.5372 24.7157L27.061 25.107Z" fill="white"/>
  <path d="M28.7711 26.6046L28.9243 26.009L28.4053 25.6816L29.0179 25.6434L29.1665 25.0476L29.3965 25.6177L30.0088 25.5796L29.5323 25.9665L29.7623 26.5407L29.2433 26.209L28.7711 26.6046Z" fill="white"/>
  <path d="M30.5489 27.8294L30.7021 27.2341L30.1831 26.9064L30.7955 26.8683L30.9446 26.2727L31.17 26.8426L31.7867 26.8044L31.3145 27.1957L31.5401 27.7656L31.0211 27.4382L30.5489 27.8294Z" fill="white"/>
  <path d="M32.3273 29.0545L32.4804 28.459L31.9614 28.1313L32.5743 28.0931L32.7231 27.4976L32.9526 28.0677L33.5652 28.0249L33.093 28.4208L33.3184 28.9907L32.7997 28.663L32.3273 29.0545Z" fill="white"/>
  <path d="M34.2198 30.6328L34.3686 30.0373L33.8496 29.7096L34.4622 29.6671L34.6154 29.0718L34.8408 29.646L35.4532 29.6035L34.9812 29.9948L35.211 30.5646L34.692 30.2372L34.2198 30.6328Z" fill="white"/>
  <path d="M30.9786 33.4104L30.9743 33.3722L30.97 33.3381L30.9656 33.3L30.957 33.2659L30.9527 33.232L30.9443 33.1939L30.9356 33.1598L30.9272 33.1257L30.9145 33.0959L30.9058 33.0618L30.8931 33.0321L30.8804 32.998L30.8677 32.9682L30.855 32.9385L30.8422 32.9087L30.8295 32.8789L30.8127 32.8532L30.7957 32.8235L30.7786 32.798L30.7616 32.7723L30.7446 32.7469L30.7278 32.7214L30.7064 32.7003L30.6893 32.6746L30.6682 32.6535L30.6471 32.6321L30.6301 32.6154L30.6087 32.5942L30.5876 32.5772L30.5621 32.5604L30.541 32.5434L30.5835 32.5177C30.8303 32.305 30.9834 31.9221 30.9621 31.4967C30.9364 30.8841 30.5494 30.4162 30.1029 30.4587C29.6521 30.4969 29.316 31.0286 29.3456 31.6412C29.3626 32.0452 29.5328 32.3813 29.7753 32.5558L29.7328 32.5942C29.4903 32.8112 29.3372 33.1982 29.3626 33.6193C29.3967 34.2316 29.788 34.6911 30.2347 34.6443C30.6812 34.5975 31.0132 34.0614 30.9791 33.4491V33.4104H30.9786Z" fill="white"/>
  <path d="M24.0153 24.8518L13.3301 32.4319C16.0014 36.3709 18.8686 36.4518 18.8686 36.4518C23.2584 37.9533 24.0708 39.4208 24.0708 39.4208L24.0751 39.4164L24.0837 39.3997L24.1049 39.374L24.1346 39.3399L24.173 39.2931L24.2155 39.2419L24.2751 39.1824L24.3387 39.1142L24.4152 39.0376L24.5002 38.9567L24.5938 38.8674L24.7002 38.7738L24.8192 38.6759L24.947 38.5738L25.0874 38.4675L25.2405 38.3612L25.4064 38.2464L25.5807 38.1314L25.772 38.0167L25.972 37.8974L26.189 37.7783L26.4187 37.6592L26.6612 37.5402L26.9207 37.4254L27.1888 37.3064L27.4781 37.1916L27.7757 37.0766L28.0948 36.966L28.4265 36.8596L28.771 36.7576L29.1368 36.6556L29.5154 36.562C29.5154 36.562 32.3696 36.464 34.888 32.5464L24.0153 24.8518ZM30.1491 35.1159L30.0512 35.1116L29.9619 35.1032L29.8726 35.0905L29.7917 35.0734L29.711 35.0523L29.6301 35.0266L29.5576 34.9925L29.4897 34.9584L29.4215 34.9203L29.3577 34.8778L29.2981 34.831L29.2386 34.7798L29.1834 34.7246L29.1323 34.6651L29.0854 34.6056L29.0386 34.5374L28.9961 34.4695L28.9577 34.397L28.9196 34.3247L28.8857 34.2481L28.8516 34.1672L28.8219 34.0823L28.7964 33.9973L28.7707 33.9077L28.7453 33.8184L28.7239 33.7248L28.7069 33.6312L28.6901 33.5332L28.6771 33.4353L28.6644 33.3333L28.6517 33.2313L28.643 33.1292C28.643 33.1292 28.239 33.0824 28.1624 33.4737C28.1624 33.4737 28.0518 33.142 27.7625 33.1292L20.3541 33.1404L20.3398 33.1547L20.3101 33.1804L20.2803 33.2058L20.2505 33.2272L20.2208 33.2483L20.1867 33.2694L20.1526 33.2865L20.1185 33.3035L20.0844 33.3162L20.0462 33.329L20.0122 33.3417L19.9737 33.3501L19.9356 33.3587L19.8931 33.363L19.8549 33.3674H19.8168C19.6066 33.3674 19.4168 33.2811 19.2764 33.1417H19.2637V34.7921L17.9194 34.775L17.9237 33.435L18.4595 33.4394L18.4722 33.7541H18.7488L18.7531 33.1287H16.8643V33.7541H17.1666L17.1579 33.4394H17.6896V34.7793H16.354V33.1076H15.7711C15.7711 33.1076 15.0351 32.6398 15.7668 32.0483L19.2062 32.0447L19.2059 32.045C19.3492 31.86 19.5687 31.7422 19.8163 31.7422C20.0605 31.7422 20.2788 31.8595 20.4215 32.0434L27.6602 32.0358C28.0431 32.0485 28.1281 31.7549 28.1281 31.7549C28.2176 32.091 28.63 32.0228 28.63 32.0228L28.6428 32.0355C28.6939 30.8658 28.9959 30.0448 30.1359 30.0405C31.3525 30.0361 31.5949 31.0785 31.5949 32.482C31.5949 33.8856 31.3998 35.1202 30.1491 35.1159Z" fill="white"/>
  <path d="M146.423 20.6133H142.743L142.846 20.0717L143.977 19.8141L143.185 11.8471L142.92 11.6754L140.473 19.9736C140.332 20.233 139.543 20.1488 139.443 19.7966L136.611 11.6754L135.908 19.9123L136.965 19.9964L137.135 20.6133H133.98C133.74 19.6476 134.92 20.0174 135.03 19.9088C135.298 19.6476 135.584 13.3718 135.924 12.464C136.031 11.4475 135.256 11.6736 134.506 11.6754V10.9744H137.748L140.288 18.335L142.393 10.9744H145.722V11.6754L144.487 11.7525L144.313 12.28C144.79 14.6319 144.811 17.0819 145.244 19.4356C145.424 20.4117 146.541 19.4321 146.423 20.6133Z" fill="white"/>
  <path d="M92.2762 35.417L92.4462 36.0356H89.1164C88.9551 35.1769 89.7315 35.5081 90.1679 35.0717V31.4791H85.4361V35.3346L86.4928 35.4187L86.6628 36.0356H83.1578C83.0246 35.2961 83.6099 35.2803 84.2093 35.3346V27.0977H83.1578V26.3967H86.6628V27.0977H85.4361V30.778H90.1679V27.3606L89.1164 27.096V26.3967H92.4462V27.0977H91.3946V35.3346L92.2762 35.417Z" fill="white"/>
  <path d="M164.827 11.6736L163.773 11.9383V20.6133L162.636 20.4363L157.289 12.5516V19.6494C157.75 20.1418 158.677 19.6389 158.516 20.6133H155.537C155.405 19.8509 156.017 19.8667 156.59 19.9123L156.425 11.7507L155.537 11.6736V10.9744L157.915 11.1374L162.897 18.6855V11.9383L161.846 11.6736V10.9744H164.825V11.6736H164.827Z" fill="white"/>
  <path d="M165.342 35.0804C164.56 34.311 164.124 32.2781 163.074 31.5665C165.484 30.7218 165.61 26.7909 162.81 26.3966C161.308 26.1845 159.369 26.5526 157.815 26.3966L157.827 27.0853L158.767 27.2536L158.868 35.3345C158.295 35.2889 157.683 35.2731 157.815 36.0355H161.32L161.15 35.4186L160.093 35.3345V31.8294C160.614 31.889 161.26 31.7383 161.755 31.8329C162.739 32.0222 163.47 35.2311 164.299 35.9496L166.227 36.0337C166.397 35.2942 165.698 35.4309 165.342 35.0804ZM160.093 31.1284V27.0976C161.67 26.8295 163.54 26.8803 163.565 28.936C163.589 31.181 161.905 31.2914 160.093 31.1284Z" fill="white"/>
  <path d="M121.704 35.0804C120.923 34.311 120.486 32.2781 119.437 31.5665C121.846 30.7218 121.972 26.7909 119.172 26.3966C117.67 26.1845 115.732 26.5526 114.177 26.3966L114.189 27.0853L115.129 27.2536L115.23 35.3345C114.657 35.2889 114.046 35.2731 114.177 36.0355H117.682L117.512 35.4186L116.455 35.3345V31.8294C116.976 31.889 117.623 31.7383 118.117 31.8329C119.102 32.0222 119.833 35.2311 120.662 35.9496L122.589 36.0337C122.759 35.2942 122.06 35.4309 121.704 35.0804ZM116.455 31.1284V27.0976C118.033 26.8295 119.903 26.8803 119.927 28.936C119.952 31.181 118.268 31.2914 116.455 31.1284Z" fill="white"/>
  <path d="M123.983 19.6582C123.201 18.8889 122.765 16.8559 121.715 16.1444C124.125 15.2997 124.251 11.3688 121.45 10.9745C119.948 10.7624 118.01 11.1304 116.456 10.9745L116.468 11.6632L117.407 11.8314L117.509 19.9124C116.936 19.8668 116.324 19.851 116.456 20.6134H119.961L119.791 19.9965L118.734 19.9124V16.4073C119.254 16.4669 119.901 16.3162 120.395 16.4108C121.38 16.6001 122.111 19.809 122.94 20.5275L124.868 20.6116C125.038 19.872 124.338 20.0087 123.983 19.6582ZM118.734 15.7063V11.6755C120.311 11.4073 122.181 11.4582 122.206 13.5139C122.23 15.7589 120.546 15.8693 118.734 15.7063Z" fill="white"/>
  <path d="M87.7248 11.579C87.3462 11.3757 86.0634 10.9744 85.6989 10.9744H81.0547L81.2194 11.7735L82.108 11.8506L82.0063 19.7563L81.067 19.9245L81.0547 20.6133H85.5236C86.2124 20.6133 87.8264 19.751 88.3312 19.2148C90.1345 17.2975 90.2677 12.9425 87.7248 11.579ZM83.333 19.9123V11.6754C86.144 11.4055 88.0805 12.2046 88.247 15.2593C88.4328 18.6539 86.7889 20.3679 83.333 19.9123Z" fill="white"/>
  <path d="M56.9993 26.4386C53.0053 27.1133 52.4796 34.4459 56.074 35.8672C58.6169 36.8749 61.456 35.2713 61.9116 32.5759C62.5057 29.0481 61.0634 25.7516 56.9993 26.4386ZM60.2099 33.68C59.6071 35.3169 57.6302 36.2212 56.2299 34.9226C54.4056 33.2314 54.6176 26.9573 57.8335 26.9556C60.818 26.9521 60.9565 31.6559 60.2099 33.68Z" fill="white"/>
  <path d="M139.938 35.4203L139.219 35.2292L136.175 26.5682L134.789 26.386L131.724 35.2292L131.005 35.4203L130.827 36.0354H133.806L133.636 35.4168L132.756 35.3326L133.387 33.3961L137.304 33.4136L137.837 35.3326C137.264 35.2853 136.654 35.2766 136.785 36.0354H140.115L139.938 35.4203ZM133.631 32.7056C134.106 31.1686 134.461 29.3793 135.045 27.8984C135.117 27.7144 135.11 27.4743 135.381 27.448L136.96 32.7056H133.631Z" fill="white"/>
  <path d="M115.752 19.9981L115.034 19.8071L111.99 11.1461L110.604 10.9639L107.538 19.8071L106.82 19.9981L106.641 20.6133H109.62L109.45 19.9946L108.571 19.9105L109.202 17.974L113.118 17.9915L113.651 19.9105C113.078 19.8632 112.468 19.8544 112.6 20.6133H115.929L115.752 19.9981ZM109.445 17.2835C109.92 15.7465 110.276 13.9572 110.859 12.4763C110.931 12.2923 110.924 12.0522 111.196 12.0259L112.775 17.2835H109.445Z" fill="white"/>
  <path d="M155.88 27.3887C155.733 30.3522 156.955 36.139 152.47 36.2249C147.508 36.3195 148.893 30.6396 148.711 27.3887L147.848 27.0767L147.826 26.3967H151.155L151.134 27.0767L150.093 27.3799C150.414 29.3813 149.142 34.709 151.713 35.3907C156.138 36.5631 154.799 29.8457 155.022 27.3799L153.797 27.0855L153.784 26.3967H156.764L156.743 27.0767L155.88 27.3887Z" fill="white"/>
  <path d="M61.5946 11.9663C61.4474 14.9298 62.6689 20.7167 58.1842 20.8025C53.2228 20.8972 54.6073 15.2172 54.4251 11.9663L53.5628 11.6543L53.54 10.9744H56.8698L56.8488 11.6543L55.8078 11.9575C56.1285 13.9589 54.8562 19.2866 57.4271 19.9683C61.8523 21.1408 60.5133 14.4233 60.7359 11.9575L59.5109 11.6631L59.4986 10.9744H62.4779L62.4569 11.6543L61.5946 11.9663Z" fill="white"/>
  <path d="M154.135 20.6133H147.125V20.091L148.159 19.893L148.014 11.7507L147.125 11.6736V10.9744H153.609L153.785 13.0756L153.11 13.0511L152.733 11.6754H149.403V15.3557L151.675 15.3469L151.843 14.4058L152.383 14.3042V17.2835H151.86L151.675 16.0655L149.403 16.0567V19.9123H153.259C153.32 19.4811 153.581 18.1457 154.221 18.3367C154.771 18.5015 154.091 20.1629 154.135 20.6133Z" fill="white"/>
  <path d="M100.858 36.0356H93.8481V35.5134L94.8821 35.3153L94.7367 27.1731L93.8481 27.096V26.3967H100.332L100.508 28.498L99.833 28.4735L99.4562 27.0977H96.1264V30.778L98.3977 30.7693L98.5659 29.8282L99.1057 29.7265V32.7058H98.5835L98.3977 31.4878L96.1264 31.4791V35.3346H99.982C100.043 34.9035 100.304 33.5681 100.944 33.7591C101.494 33.9238 100.814 35.5852 100.858 36.0356Z" fill="white"/>
  <path d="M97.7034 20.6133H90.6934V20.091L91.7273 19.893L91.5819 11.7507L90.6934 11.6736V10.9744H97.1777L97.3529 13.0756L96.6782 13.0511L96.3014 11.6754H92.9716V15.3557L95.2429 15.3469L95.4111 14.4058L95.9509 14.3042V17.2835H95.4287L95.2429 16.0655L92.9716 16.0567V19.9123H96.8272C96.8885 19.4811 97.1497 18.1457 97.7893 18.3367C98.3396 18.5015 97.6596 20.1629 97.7034 20.6133Z" fill="white"/>
  <path d="M104.275 10.9745C102.723 10.7554 100.713 11.1357 99.1055 10.9745L99.1177 11.6632L100.057 11.8315L100.167 19.8107L99.2089 20.0719L99.1055 20.6134H103.136V20.0911L101.384 19.9141V17.1066C102.956 17.2152 105.262 16.9611 106.04 15.3663C106.876 13.6524 106.419 11.2759 104.275 10.9745ZM101.384 16.4073V11.6755C103.184 11.4004 105.018 11.4004 105.076 13.6874C105.139 16.1111 103.501 16.6352 101.384 16.4073Z" fill="white"/>
  <path d="M130.3 36.0356H123.29V35.5134L124.324 35.3153L124.179 27.1731L123.29 27.096V26.3967H129.774L129.95 28.498L129.275 28.4735L128.898 27.0977H125.568V30.778L127.84 30.7693L128.008 29.8282L128.548 29.7265V32.7058H128.025L127.84 31.4878L125.568 31.4791V35.3346H129.424C129.485 34.9035 129.746 33.5681 130.386 33.7591C130.936 33.9238 130.256 35.5852 130.3 36.0356Z" fill="white"/>
  <path d="M173.763 14.4812L173.044 14.3778L172.548 11.7507L170.258 11.6754V19.9123H172.187V20.6133H167.279V19.9123C167.396 19.7878 168.796 20.1559 169.031 19.6494V11.6754H166.578L166.217 14.4672L165.528 14.4794L165.701 10.9744H173.588L173.763 14.4812Z" fill="white"/>
  <path d="M133.455 14.4812L132.736 14.3778L132.24 11.7507L129.95 11.6754V19.9123H131.879V20.6133H126.97V19.9123C127.088 19.7878 128.488 20.1559 128.723 19.6494V11.6754H126.269L125.908 14.4672L125.22 14.4794L125.393 10.9744H133.28L133.455 14.4812Z" fill="white"/>
  <path d="M82.1057 29.9035L81.3872 29.8001L80.8912 27.1731L78.6007 27.0977V35.3346H80.5302V36.0356H75.6214V35.3346C75.7388 35.2102 77.1391 35.5782 77.3739 35.0717V27.0977H74.9204L74.5593 29.8895L73.8706 29.9018L74.0441 26.3967H81.9305L82.1057 29.9035Z" fill="white"/>
  <path d="M113.126 29.9035L112.407 29.8001L111.911 27.1731L109.621 27.0977V35.3346H111.55V36.0356H106.641V35.3346C106.759 35.2102 108.159 35.5782 108.394 35.0717V27.0977H105.94L105.579 29.8895L104.891 29.9018L105.064 26.3967H112.95L113.126 29.9035Z" fill="white"/>
  <path d="M70.0153 28.4998L69.146 28.491L68.962 27.0977H65.4569V30.9533H67.9105L68.098 29.7388L68.7867 29.7265V32.7058L68.1068 32.6848L67.9105 31.6543H65.4569V35.3346H67.5617L67.56 36.0356H63.1787V35.3346H64.2302V27.0977H63.0034V26.3967H69.8383L70.0153 28.4998Z" fill="white"/>
  <path d="M73.331 17.909C73.4659 21.0145 69.0916 21.1529 67.0517 20.2451L67.0342 17.9826H67.9122L68.1278 19.6948C69.6945 20.5851 72.5862 20.1242 71.8624 17.7986C71.3577 16.1757 67.071 16.2563 67.0675 13.3401C67.0657 10.6675 70.8389 10.6535 72.6265 11.3423L72.6422 13.6048L71.9675 13.5767L71.5522 11.8908C70.4236 11.2336 68.2312 11.4719 68.3135 13.1368C68.4152 15.2329 73.2188 15.296 73.331 17.909Z" fill="white"/>
  <path d="M147.112 33.3313C147.247 36.4368 142.873 36.5753 140.833 35.6675L140.815 33.405H141.693L141.909 35.1172C143.476 36.0075 146.367 35.5465 145.644 33.2209C145.139 31.5981 140.852 31.6787 140.849 28.7625C140.847 26.0899 144.62 26.0759 146.408 26.7646L146.423 29.0271L145.749 28.9991L145.333 27.3132C144.205 26.656 142.012 26.8943 142.095 28.5592C142.196 30.6552 147 30.7183 147.112 33.3313Z" fill="white"/>
  <path d="M174.639 26.3967L174.629 27.0855C174.404 27.1118 174.155 27.0802 173.943 27.1854C173.682 27.3151 171.267 31.8523 171.174 32.308C170.989 33.2193 171.229 34.39 171.134 35.3346L172.366 35.4187L172.536 36.0356H168.33L168.433 35.4941L169.734 35.3346C169.62 34.3602 169.905 33.0528 169.697 32.1292C169.636 31.8594 167.136 27.5429 166.94 27.3501C166.444 26.8576 165.847 27.4763 166.052 26.3967H169.381V27.0977L168.507 27.0995L170.782 31.6543L172.883 27.3589L171.835 27.096V26.3967H174.639Z" fill="white"/>
  <path d="M64.4948 20.7746C63.3574 20.7746 63.4766 19.2184 64.5351 19.0589C65.5516 18.9064 65.7601 20.7746 64.4948 20.7746Z" fill="white"/>
  <path d="M75.5358 20.7746C74.3985 20.7746 74.5176 19.2184 75.5761 19.0589C76.5926 18.9064 76.8012 20.7746 75.5358 20.7746Z" fill="white"/>
</svg>