<?xml version="1.0" encoding="UTF-8"?>
<svg xmlns="http://www.w3.org/2000/svg" xmlns:xlink="http://www.w3.org/1999/xlink" width="0" height="0">
<defs>
<symbol id="ai-icon" width="16" height="16" viewBox="0 0 16 16" fill="none" xmlns="http://www.w3.org/2000/svg">
<style>
	@keyframes llama-bounce {
		0%, 100% { transform: translateY(0); }
		50% { transform: translateY(-1px); }
	}
	@keyframes star-blink {
		0%, 100% { opacity: 1; }
		50% { opacity: 0.4; }
	}
	@keyframes star-spin {
		0% { transform: rotate(0deg); }
		50% { transform: rotate(360deg); }
		100% { transform: rotate(0deg); }
	}
	.ai-icon-body {
		animation: llama-bounce 2s ease-in-out;
		animation-play-state: var(--animate-enabled, paused);
		transform-origin: center;
	}
	.ai-icon-star-1 {
		animation: var(--star-1-animation, star-blink 2s ease-in-out);
		animation-play-state: var(--animate-enabled, paused);
		transform-origin: 12.5px 2px;
	}
	.ai-icon-star-2 {
		animation: var(--star-2-animation, star-blink 2s ease-in-out 0.7s);
		animation-play-state: var(--animate-enabled, paused);
		transform-origin: 14.8px 5.1px;
	}
</style>
<g clip-path="url(#clip0_759_139)">
<path class="ai-icon-body" d="M13.6125 11.7313C13.4946 11.6869 13.254 11.6774 13.1111 11.6457C11.783 11.3522 10.7291 10.6179 10.231 9.40744C9.96804 8.76907 9.89581 8.10375 9.73776 7.44233C9.35096 5.82532 8.55191 4.04208 6.95336 3.1805C6.8706 3.13585 6.59093 3.03422 6.5501 2.99246C6.47019 2.91058 6.41926 2.56887 6.37865 2.44338C6.12554 1.65914 5.61296 1.09278 4.80205 0.773284C4.61041 0.697988 4.13712 0.502753 4.19573 0.868125L5.20421 2.95749L4.61129 2.94741C4.30967 2.51805 4.20891 1.9019 3.86448 1.50794C3.67569 1.29172 3.17211 0.832328 2.93217 0.674124C2.62462 0.471277 2.56711 0.802292 2.59762 1.0288C2.65536 1.45568 3.04523 2.0813 3.38197 2.37158C3.62454 2.5806 4.00321 2.77274 4.21505 2.96921C4.23349 2.98629 4.24622 2.98793 4.23832 3.01921C3.49898 3.17617 3.1372 3.83224 2.61431 4.26426C2.3432 4.4881 1.99218 4.69485 1.6629 4.83331C1.27413 4.99665 0.392754 5.19847 0.146232 5.48998C-0.0803133 5.75784 -0.0618735 6.10326 0.330849 6.18781C-0.169658 6.762 0.0641315 7.53532 0.934532 7.50385C1.42428 7.48615 1.90745 7.28927 2.42705 7.31931C3.62739 7.38864 4.71117 8.43702 5.90712 7.43246C6.05486 7.30841 6.22762 6.98418 6.44517 7.17448C6.61442 7.32281 6.46997 7.46394 6.35714 7.58675C6.03137 7.94143 5.45096 8.2241 4.95176 8.26545C4.82159 8.27614 4.67758 8.25742 4.54565 8.26545C4.73115 9.19122 4.57199 10.1386 4.61063 11.0744C4.67495 12.6306 5.12694 14.8039 6.60256 15.7294C6.83767 15.8767 7.24071 16.0936 7.51665 15.9563C9.55402 14.5915 11.6419 13.2897 13.6562 11.8967C13.7221 11.8334 13.6973 11.7634 13.6125 11.7313ZM4.83915 5.30174C4.19552 5.3326 4.10178 4.43934 4.71556 4.341C5.46018 4.22147 5.55062 5.26759 4.83915 5.30174Z" fill="currentColor"/>
<path class="ai-icon-star-1" d="M15.0916 2.34181C15.0306 2.43665 14.657 2.5031 14.5224 2.54877C13.5071 2.89254 13.1847 3.43237 12.9283 4.38756C12.8249 4.53486 12.6591 4.54803 12.5487 4.39908C12.3847 3.93825 12.2653 3.43772 11.9 3.07317C11.5268 2.7006 10.9589 2.56071 10.4571 2.40929C10.3144 2.33955 10.3028 2.15871 10.4431 2.0791C11.2748 1.86905 11.9132 1.63576 12.2765 0.855435C12.381 0.630987 12.4376 0.318899 12.5458 0.120372C12.5801 0.05742 12.6293 0.0127772 12.7065 0.00207941C12.7952 -0.0100585 12.8734 0.0319098 12.9186 0.10268C12.9976 0.226733 13.0786 0.582229 13.1504 0.74928C13.4441 1.43353 13.8177 1.70694 14.5509 1.94661C14.7268 2.00401 15.2765 2.05482 15.0916 2.34181Z" fill="currentColor"/>
<path class="ai-icon-star-2" d="M15.6389 5.755C15.4156 5.87103 15.2892 5.95537 15.1531 6.16357C15.1008 6.2438 14.9573 6.57914 14.8921 6.59786C14.8536 6.60897 14.7895 6.60815 14.7535 6.59169C14.7167 6.57482 14.46 6.06153 14.3261 5.94303C14.1953 5.827 13.7284 5.64452 13.6983 5.60584C13.6665 5.56449 13.6693 5.46965 13.7056 5.43447C13.7402 5.40053 13.9622 5.32626 14.0265 5.29314C14.2205 5.19295 14.3637 5.1012 14.4864 4.9216C14.5858 4.77574 14.741 4.23323 14.9696 4.53771C15.1928 4.8354 15.1379 5.01273 15.5372 5.24006C15.6373 5.29705 15.9534 5.40176 15.9883 5.47562C16.0645 5.63691 15.7554 5.69451 15.6389 5.755Z" fill="currentColor"/>
</g>
<defs>
<clipPath id="clip0_759_139">
<rect width="16" height="16" fill="currentColor"/>
</clipPath>
</defs>
</symbol>
</defs>
</svg>