<svg xmlns="http://www.w3.org/2000/svg" width="17" height="16" viewBox="0 0 17 16" fill="none">
  <g clip-path="url(#clip0_94_3362)">
    <path d="M14.4697 11.7313C14.3518 11.6869 14.1112 11.6774 13.9683 11.6457C12.6402 11.3522 11.5863 10.6179 11.0882 9.40744C10.8252 8.76907 10.753 8.10375 10.5949 7.44233C10.2081 5.82532 9.40909 4.04208 7.81053 3.1805C7.72777 3.13585 7.4481 3.03422 7.40727 2.99246C7.32737 2.91058 7.27644 2.56887 7.23583 2.44338C6.98272 1.65914 6.47014 1.09278 5.65923 0.773284C5.46759 0.697988 4.9943 0.502753 5.05291 0.868125L6.06139 2.95749L5.46847 2.94741C5.16684 2.51805 5.06608 1.9019 4.72166 1.50794C4.53287 1.29172 4.02929 0.832328 3.78935 0.674124C3.4818 0.471277 3.42429 0.802292 3.4548 1.0288C3.51253 1.45568 3.9024 2.0813 4.23915 2.37158C4.48172 2.5806 4.86039 2.77274 5.07223 2.96921C5.09067 2.98629 5.1034 2.98793 5.0955 3.01921C4.35615 3.17617 3.99438 3.83224 3.47148 4.26426C3.20038 4.4881 2.84936 4.69485 2.52008 4.83331C2.13131 4.99665 1.24993 5.19847 1.00341 5.48998C0.776864 5.75784 0.795304 6.10326 1.18803 6.18781C0.687519 6.762 0.921309 7.53532 1.79171 7.50385C2.28146 7.48615 2.76463 7.28927 3.28423 7.31931C4.48457 7.38864 5.56835 8.43702 6.7643 7.43246C6.91203 7.30841 7.0848 6.98418 7.30234 7.17448C7.47159 7.32281 7.32715 7.46394 7.21431 7.58675C6.88855 7.94143 6.30813 8.2241 5.80894 8.26545C5.67877 8.27614 5.53476 8.25742 5.40283 8.26545C5.58832 9.19122 5.42917 10.1386 5.46781 11.0744C5.53213 12.6306 5.98412 14.8039 7.45974 15.7294C7.69485 15.8767 8.09789 16.0936 8.37382 15.9563C10.4112 14.5915 12.4991 13.2897 14.5134 11.8967C14.5792 11.8334 14.5544 11.7634 14.4697 11.7313ZM5.69633 5.30174C5.05269 5.3326 4.95896 4.43934 5.57274 4.341C6.31735 4.22147 6.4078 5.26759 5.69633 5.30174Z" fill="black"/>
    <path d="M15.9491 2.34181C15.888 2.43665 15.5144 2.5031 15.3798 2.54877C14.3645 2.89254 14.0421 3.43237 13.7857 4.38756C13.6823 4.53486 13.5165 4.54803 13.4061 4.39908C13.2421 3.93825 13.1227 3.43772 12.7574 3.07317C12.3843 2.7006 11.8164 2.56071 11.3145 2.40929C11.1718 2.33955 11.1602 2.15871 11.3005 2.0791C12.1322 1.86905 12.7706 1.63576 13.1339 0.855435C13.2384 0.630987 13.295 0.318899 13.4033 0.120372C13.4375 0.05742 13.4867 0.0127772 13.564 0.00207941C13.6526 -0.0100585 13.7308 0.0319098 13.776 0.10268C13.855 0.226733 13.936 0.582229 14.0078 0.74928C14.3015 1.43353 14.6752 1.70694 15.4084 1.94661C15.5842 2.00401 16.1339 2.05482 15.9491 2.34181Z" fill="black"/>
    <path d="M16.4958 5.755C16.2726 5.87103 16.1461 5.95537 16.01 6.16357C15.9578 6.2438 15.8142 6.57914 15.749 6.59786C15.7106 6.60897 15.6465 6.60815 15.6105 6.59169C15.5736 6.57482 15.317 6.06153 15.1831 5.94303C15.0522 5.827 14.5853 5.64452 14.5552 5.60584C14.5234 5.56449 14.5263 5.46965 14.5625 5.43447C14.5972 5.40053 14.8191 5.32626 14.8834 5.29314C15.0775 5.19295 15.2206 5.1012 15.3433 4.9216C15.4428 4.77574 15.598 4.23323 15.8265 4.53771C16.0497 4.8354 15.9949 5.01273 16.3942 5.24006C16.4943 5.29705 16.8104 5.40176 16.8453 5.47562C16.9215 5.63691 16.6124 5.69451 16.4958 5.755Z" fill="black"/>
  </g>
  <defs>
    <clipPath id="clip0_94_3362">
      <rect width="16" height="16" fill="black" transform="translate(0.857178)"/>
    </clipPath>
  </defs>
</svg>