<?xml version="1.0" encoding="UTF-8"?>
<svg xmlns="http://www.w3.org/2000/svg" xmlns:xlink="http://www.w3.org/1999/xlink" width="0" height="0">
<defs>
<symbol id="dlnews-logo" viewBox="0 0 40 40" fill="none" xmlns="http://www.w3.org/2000/svg">
 	<path
		fill-rule="evenodd"
		clip-rule="evenodd"
		d="M29.3657 3.98376H9.32277C5.22866 3.98376 1.86694 7.34549 1.86694 11.4396V31.3552C1.86694 33.1884 2.59933 34.8396 3.82301 36.1816C6.02473 38.5652 10.0551 37.0368 10.0551 33.7388V29.158C10.0551 28.7896 9.87319 28.4848 9.62754 28.3028C8.71321 27.6295 8.09907 26.2875 8.09907 24.7591C8.09907 23.0486 8.89516 21.5839 9.99145 20.9697C10.2963 20.7878 10.4782 20.5421 10.601 20.1737C10.8467 19.1957 11.2106 18.2813 11.7019 17.4261C11.0923 17.3669 10.5419 16.9985 10.2371 16.5117C9.01343 14.6785 7.36669 12.8452 6.08386 9.91112C5.83822 9.42436 5.90191 8.81025 6.26584 8.32352C6.26584 8.26438 6.32498 8.26438 6.38867 8.20069C6.69344 7.89592 7.18473 7.95505 7.48951 8.25983C9.44559 10.0931 11.8293 10.6435 13.1121 12.4131C13.2349 12.1674 13.3577 11.9855 13.4806 11.8035C14.0901 11.0711 15.009 10.6435 15.9234 10.7663C16.351 10.8255 16.7786 10.5844 17.0242 10.2159C17.3927 9.66548 17.9386 9.23788 18.5527 9.0559C19.7764 8.68743 20.9955 9.17872 21.6688 10.2159C21.9144 10.5844 22.342 10.7663 22.7696 10.7663C23.1381 10.7072 23.502 10.7663 23.8705 10.8891C24.4209 11.0711 24.8485 11.3759 25.217 11.8035C25.3398 11.9855 25.5218 12.172 25.5855 12.4131C26.8091 10.7618 28.9471 10.3979 30.8395 8.5646C31.2671 8.25983 31.8175 8.19614 32.3043 8.50547C32.4271 8.5646 32.4864 8.62829 32.5499 8.75112C32.7955 9.05589 32.8547 9.48352 32.6727 9.85199L32.6138 9.97481C31.3307 12.9089 29.7434 14.7422 28.5195 16.5754C28.2147 17.1258 27.6643 17.4306 27.0548 17.4898C27.6051 18.345 27.9691 19.2639 28.1558 20.2374C28.2147 20.6058 28.4603 20.8469 28.7651 21.0334C29.7434 21.5839 30.4755 22.7439 30.5986 24.2087C30.5986 24.3906 30.6575 24.5771 30.6575 24.8182C30.6575 26.4695 29.9251 27.8752 28.8835 28.4848C28.8243 28.5438 28.7607 28.5438 28.7015 28.6076V28.9124C28.7015 28.9124 28.7015 32.0876 28.8835 33.4932C29.3111 37.9556 32.9775 37.2824 32.9775 37.2824C36.2756 36.732 36.8898 33.616 36.8898 31.478V11.4396C36.8898 7.34549 33.5279 3.98376 29.3747 3.98376H29.3657Z"
		fill="var(--dlnews)"
	/>
	<path
		fill-rule="evenodd"
		clip-rule="evenodd"
		d="M25.2035 20.1145C25.2035 20.1539 25.2035 20.1539 25.2035 20.1145L25.0806 20.2373C24.1663 20.9697 22.8198 20.9697 21.8418 20.2373V20.2964C21.8418 20.5421 21.7826 20.724 21.719 20.9697C21.4141 21.5793 20.7409 22.0069 19.9448 22.1297H19.5764C18.2935 22.1297 17.2564 21.2745 17.2564 20.2964C16.2783 21.0289 14.9955 21.0289 14.0175 20.2964C13.8946 20.1736 13.7718 20.0508 13.649 19.928C13.467 20.2328 13.3442 20.5375 13.3442 20.8423C13.3442 21.1471 13.4034 21.4519 13.5899 21.7567C14.0175 22.5527 14.2631 23.4671 14.2631 24.386C14.2631 25.364 14.0175 26.3421 13.467 27.1336C13.0986 27.8069 13.1623 28.5983 13.649 29.1487C14.9318 30.6773 17.0107 32.0194 18.9668 32.1422H19.4535C21.4687 32.1422 23.0609 31.0411 24.3437 29.5127C24.5257 29.2671 24.7122 29.0259 24.8941 28.8395C25.2626 28.2891 25.3217 27.5567 24.9533 27.0062C24.5257 26.2102 24.28 25.2958 24.28 24.3769C24.28 23.3989 24.5257 22.4845 25.0124 21.6293C25.3172 21.1426 25.3809 20.5921 25.1944 20.1008L25.2035 20.1145ZM22.0874 24.3314C22.1465 24.5134 22.1466 24.6999 21.9646 24.8818C21.9646 24.8818 20.8046 27.0199 19.2761 27.0199C17.7477 27.0199 16.5877 24.8818 16.5877 24.8818C16.4057 24.6999 16.4057 24.4542 16.5877 24.2723C16.7105 24.1495 16.8333 24.0903 16.9561 24.1495C16.9561 24.1495 17.8705 24.4542 19.3398 24.4542C20.8091 24.4542 21.6007 24.1495 21.6007 24.1495C21.8463 24.0903 22.0283 24.2086 22.0874 24.3314Z"
		fill="var(--dlnews)"
	/>
</symbol>
</defs>
</svg>