<svg xmlns="http://www.w3.org/2000/svg" width="189" height="27" viewBox="0 0 189 27" fill="none">
  <path d="M25.8341 0.964164C25.34 0.790721 24.0475 0.520752 23.5699 0.520752H18.6755V1.11499L19.6291 1.25525C19.7948 1.3563 19.84 1.61722 19.8656 1.7982C20.0494 3.11637 20.0584 7.48716 19.8882 8.81136C19.7406 9.95609 18.7268 9.25477 18.5249 10.0722H24.0219C24.2659 10.0722 25.5599 9.64087 25.8552 9.50212C29.3486 7.87326 29.674 2.30647 25.8341 0.964164ZM24.9905 8.94408C24.1273 9.54284 21.9249 10.0255 21.6959 8.64546L21.6854 1.63833C21.708 1.29145 22.0982 1.21 22.4009 1.15571C26.6566 0.383505 28.0802 6.79791 24.9905 8.94408Z" fill="white"/>
  <path d="M154.518 7.01034C154.33 5.18692 152.086 5.22915 151.954 4.92298C153.492 4.53839 154.393 3.39819 153.745 1.80552C153.382 0.912662 152.011 0.604988 151.125 0.520529C149.736 0.390823 148.168 0.617054 146.757 0.520529C146.01 1.29575 147.661 0.936794 147.736 1.64113C147.59 3.9155 147.932 6.41611 147.742 8.66032C147.719 8.9333 147.719 9.2078 147.551 9.44006L146.531 9.62557V10.072H151.726C151.815 10.072 152.796 9.72963 152.959 9.65121C154.004 9.15048 154.64 8.18825 154.518 7.01034ZM149.544 1.49181C150.282 0.72112 151.683 1.27765 151.987 2.20369C152.606 4.07839 151.276 4.92751 149.544 4.84908V1.49181ZM152.566 7.61211C152.501 9.94078 149.544 9.93324 149.544 8.95291V5.29702C151.18 5.40561 152.62 5.65295 152.566 7.61211Z" fill="white"/>
  <path d="M82.9741 9.40544C82.5463 9.02085 80.3831 5.91998 80.4102 5.53086C81.8277 4.85066 82.7617 3.45708 81.9558 1.90966C80.8847 -0.147532 76.6215 0.713654 74.6963 0.522112V1.11484C75.5067 1.04998 75.8352 1.30487 75.9105 2.07858C76.1229 4.23984 75.7372 6.74798 75.8984 8.94997C75.7945 9.48689 75.1633 9.65731 74.6963 9.62564V10.0721H78.9128V9.62413C78.253 9.75987 77.5585 9.36472 77.5585 8.65436V6.04214C79.089 5.76464 79.3722 7.38445 80.0562 8.41757C81.0775 9.96348 81.7434 10.3888 83.7334 10.2214C83.8689 9.63922 83.3568 9.74931 82.9741 9.40544ZM77.5585 5.4464C77.7031 4.30922 77.3612 2.71353 77.5585 1.63969C77.7348 0.675949 79.5831 1.16008 80.0532 2.00317C81.0986 3.87184 79.7263 5.87775 77.5585 5.4464Z" fill="white"/>
  <path d="M120.476 8.95605C120.125 8.55638 118.443 6.14325 118.389 5.78581C118.311 5.27603 118.918 5.23984 119.278 4.92914C120.421 3.94579 120.399 1.89011 119.079 1.08774C118.617 0.807218 117.629 0.571938 117.091 0.520659C115.678 0.387937 114.081 0.620201 112.647 0.520659L112.656 1.10886C113.282 1.10584 113.737 1.27778 113.843 1.94893C114.048 3.24448 113.975 6.96824 113.858 8.36182C113.777 9.32858 113.554 9.6996 112.496 9.62419V10.0721H116.714V9.6257C116.33 9.74032 115.509 9.33311 115.509 8.95304V6.0422C117.074 5.82954 117.532 8.00438 118.395 9.07671C119.308 10.2079 120.089 10.2968 121.532 10.2199C121.818 9.94091 120.691 9.2034 120.476 8.95605ZM115.509 5.44646V1.49194C115.509 0.769513 117.778 1.04853 118.148 2.4572C118.65 4.35754 117.494 5.77072 115.509 5.44646Z" fill="white"/>
  <path d="M48.6925 9.76737C48.34 9.36619 47.7419 9.01629 47.3141 8.47937C46.6106 7.60008 46.0743 6.47798 45.4823 5.51876C47.5431 4.9577 48.0764 1.82969 46.0351 0.941352C44.9234 0.458726 41.5369 0.374267 40.2776 0.51453C39.6855 0.579383 39.5153 0.855384 40.139 1.11329C40.5487 1.28371 40.7611 1.08463 40.9555 1.64719C41.2778 2.57474 41.201 6.73588 41.1212 7.9153C41.0504 8.94842 41.0624 9.7719 39.7578 9.62409V10.072H43.9743V9.62409C43.6565 9.79301 42.7707 9.35714 42.7707 9.10225V6.0421C42.9876 6.05568 43.2317 6.00289 43.4426 6.04663C44.4639 6.26381 45.1403 9.40088 46.6874 9.99511C47.3608 10.2545 48.0854 10.2425 48.7949 10.2213C48.8055 10.0132 48.8401 9.93478 48.6925 9.76737ZM42.7707 5.44636V1.26712C46.3967 0.283774 46.4524 6.11299 42.7707 5.44636Z" fill="white"/>
  <path d="M189 10.0722H186.213C184.981 8.93654 184.038 6.8522 182.887 5.75875C182.742 5.6215 182.563 5.50688 182.373 5.44655V9.10244C182.373 9.56245 183.214 9.6831 183.58 9.62579V10.0722H179.362C179.528 9.23818 180.406 9.97419 180.552 8.94408C180.751 7.5505 180.739 3.20838 180.574 1.78161C180.495 1.08482 179.949 1.11951 179.362 1.11499V0.520752H183.352L183.506 0.971706L182.373 1.49204V4.99862C182.477 5.11776 183.385 4.3712 183.508 4.25658C183.856 3.92779 185.62 2.01086 185.763 1.71525C186.175 0.863115 184.729 1.47243 185.085 0.520752H188.699V1.11499C188.349 1.09538 188.039 1.14666 187.71 1.25826C186.474 1.67755 185.035 3.52057 184.179 4.47376C184.179 4.7392 187.013 8.32119 187.417 8.73143C187.864 9.1854 188.307 9.60468 188.998 9.62881V10.0722H189Z" fill="white"/>
  <path d="M177.705 0.520752L177.696 1.10895C177.089 0.97623 176.5 1.53728 176.5 2.08778V10.2215L175.855 10.1899L169.574 2.90975V8.05726C169.574 8.15077 169.824 9.1311 169.888 9.23668C170.131 9.6273 170.666 9.64691 171.08 9.62428V10.0722H167.465C167.727 9.22763 168.57 9.95307 168.784 8.76762C169.043 7.33332 169.102 4.44058 168.977 2.97762C168.884 1.89473 168.6 0.991312 167.315 1.11499V0.520752H169.8L175.748 7.23679V2.08778C175.748 1.47846 174.833 0.95964 174.242 1.11499V0.520752H177.705Z" fill="white"/>
  <path d="M140.355 7.68473L139.83 10.0722H132.525V9.62428C133.198 9.66048 133.79 9.5353 133.888 8.81136C134.063 7.53089 134.046 3.0847 133.867 1.7982C133.842 1.61722 133.796 1.3563 133.631 1.25525L132.677 1.11499V0.520752H139.378C139.799 0.650458 139.531 2.33965 139.604 2.76044C138.954 2.92483 139.004 2.06063 138.679 1.66096C138.198 1.07276 136.415 1.01846 135.688 1.26731V4.8493C136.324 4.76635 137.76 5.08308 138.165 4.54314C138.432 4.1872 138.18 3.64575 138.85 3.80412V6.63954L138.385 6.55207C138.246 5.1419 136.701 5.69541 135.688 5.59587V8.95313C135.688 9.76304 137.96 9.63032 138.552 9.40409C138.838 9.29399 139.114 9.0391 139.302 8.80382C139.649 8.36795 139.677 7.57614 140.355 7.68473Z" fill="white"/>
  <path d="M110.688 7.68473L110.163 10.0722H102.858V9.62428C103.531 9.66048 104.123 9.5353 104.221 8.81136C104.396 7.53089 104.379 3.0847 104.2 1.7982C104.175 1.61722 104.129 1.3563 103.964 1.25525L103.01 1.11499V0.520752H109.711C110.132 0.650458 109.864 2.33965 109.937 2.76044C109.287 2.92483 109.339 2.06063 109.012 1.66096C108.531 1.07276 106.748 1.01846 106.021 1.26731V4.8493C106.657 4.76635 108.093 5.08308 108.498 4.54314C108.765 4.1872 108.513 3.64575 109.183 3.80412V6.63954L108.718 6.55207C108.579 5.1419 107.034 5.69541 106.021 5.59587V8.95313C106.021 9.76304 108.293 9.63032 108.885 9.40409C109.171 9.29399 109.447 9.0391 109.635 8.80382C109.982 8.36795 110.01 7.57614 110.688 7.68473Z" fill="white"/>
  <path d="M92.9756 8.09949C92.9228 8.73293 92.6065 9.41615 92.6185 10.0722H85.0879V9.62428C86.4994 9.79773 86.516 9.07379 86.6003 7.91398C86.6937 6.62748 86.7615 2.74234 86.4361 1.64738C86.2057 0.872164 84.761 1.31105 85.4645 0.520752H92.1666L92.3157 2.75893L91.7358 2.73781C91.5324 0.989804 89.6388 0.973214 88.2499 1.26731V4.8493H90.4342C90.6285 4.8493 91.0082 4.06956 90.9795 3.82372L91.564 3.80412V6.63954L90.9795 6.61994C91.0082 6.3741 90.6285 5.59587 90.4342 5.59587H88.2499V8.95313C88.2499 9.76304 90.6813 9.6092 91.2688 9.4071C91.9045 9.18841 92.1214 8.377 92.4302 7.87476C92.6773 7.46906 93.0162 7.61837 92.9756 8.09949Z" fill="white"/>
  <path d="M16.866 7.68473L16.4156 10.0722H8.88647C8.8699 9.41464 9.7135 9.74946 10.0886 9.39956C10.3281 9.17635 10.3718 8.67713 10.3974 8.36192C10.5194 6.90197 10.5722 3.49493 10.3778 2.10135C10.2739 1.3563 9.99069 1.0079 9.18776 1.11649V0.520752H15.9637L16.1143 2.76044L15.5313 2.73932C15.456 1.07879 13.2024 0.691179 12.0485 1.49204V4.8493H14.2313C14.2644 4.8493 14.6305 4.48583 14.6802 4.39382C14.9047 3.967 14.4768 3.68195 15.3611 3.80412V6.63954L14.7691 6.63049C14.8911 6.34695 14.4271 5.59587 14.2313 5.59587H12.0485V8.80382C12.0485 9.83392 14.9453 9.8113 15.6639 8.95464C16.1204 8.41018 16.039 7.46906 16.866 7.68473Z" fill="white"/>
  <path d="M37.9505 7.68473L37.5001 10.0722H30.1201V9.62428C31.0616 9.67255 31.3976 9.44179 31.4834 8.51274C31.6055 7.16591 31.6717 3.19028 31.4669 1.94751C31.3554 1.27033 30.9351 1.02449 30.2708 1.11649V0.520752H37.0482L37.1973 2.75893C36.5345 2.88713 36.6339 2.26725 36.3643 1.8706C35.8009 1.04561 34.2884 0.994329 33.3861 1.25676C33.3077 1.30502 33.133 1.58253 33.133 1.63984V4.8493H35.3158C35.6788 4.8493 35.8521 3.54018 36.4456 3.80412V6.63954C35.8521 6.90348 35.6788 5.59587 35.3158 5.59587H33.133V8.35588C33.133 8.46749 33.383 9.25628 33.493 9.34225C35.0808 9.87766 37.0768 9.63937 37.3676 7.70434L37.9505 7.68473Z" fill="white"/>
  <path d="M7.01696 2.60358C7.01696 2.94293 6.60269 3.04247 6.47615 2.81322C6.34358 1.01394 4.41987 0.953607 3.01286 1.26731V4.99862H5.19568C5.53161 4.99862 5.91877 4.31087 5.89165 3.97304L6.47615 3.95343V6.78886L5.89165 6.76925C5.92027 6.52341 5.54216 5.74518 5.34632 5.74518H3.01286V9.10244C3.01286 9.37543 4.05832 9.76455 4.36865 9.62428V10.0722H0V9.62579L1.01985 9.44028C1.22021 9.15976 1.19008 8.83247 1.21268 8.51123C1.32415 6.86879 1.40851 3.35316 1.19159 1.7982C1.16598 1.61722 1.12078 1.3563 0.955077 1.25525L0.00150643 1.11499V0.520752H6.70211C6.9567 0.599179 7.01696 2.23558 7.01696 2.60358Z" fill="white"/>
  <path d="M58.4511 8.78575L55.3403 0.366943L54.5465 0.774159L51.1811 9.07985C50.931 9.50969 50.4806 9.65749 49.9985 9.62582V10.0722H53.3127C53.3323 9.42824 52.3049 9.70425 52.2522 9.10096C52.2386 8.94713 52.8412 6.95931 52.9526 6.92915L55.8781 7.00757L56.6359 9.37847C56.5801 9.61375 55.601 9.53231 55.7215 10.0722H59.7873V9.62582C59.1471 9.6771 58.6786 9.37546 58.4511 8.78575ZM53.162 6.19164L54.441 2.90827L55.5708 6.19164H53.162Z" fill="white"/>
  <path d="M164.906 9.39785C163.989 8.7448 162.261 2.30023 161.517 0.819172C161.434 0.654778 161.395 0.464744 161.199 0.383301C160.869 0.40894 160.667 0.592941 160.504 0.861402C159.201 3.00306 158.609 6.88216 157.256 8.9846C156.94 9.47477 156.622 9.66179 156.018 9.62559V10.072H159.182V9.62559L158.27 9.37673L158.901 6.95908L161.908 7.02997C162.119 7.91076 163.43 9.69648 161.741 9.62559V10.072H165.808V9.62559C165.481 9.64369 165.179 9.59241 164.906 9.39785ZM159.182 6.1914C159.602 5.1251 159.835 3.80391 160.536 2.90955L161.59 6.1914H159.182Z" fill="white"/>
  <path d="M131.322 0.520752L131.313 1.10895C130.694 1.0803 130.222 1.3759 129.938 1.90981L126.626 10.1205C126.464 10.496 125.92 10.484 125.778 10.1175L122.616 1.90981C122.335 1.3759 121.854 1.0818 121.239 1.10895L121.232 0.520752H125.222C125.43 0.579572 125.488 0.920426 125.448 1.118C125.149 1.09085 124.394 1.1919 124.418 1.61118L126.73 7.68473L129.019 1.76351C129.076 1.11197 128.356 1.09538 127.857 1.118C127.797 0.950591 127.922 0.520752 128.083 0.520752H131.322Z" fill="white"/>
  <path d="M98.1141 10.3677C97.519 10.422 95.7384 10.2711 95.3272 9.84883C95.1358 9.65277 94.8647 8.08574 94.8677 7.75393C94.8692 7.5081 94.9551 7.22757 95.2533 7.23964C95.3558 7.24416 95.8665 8.52463 96.0819 8.80365C97.3985 10.5049 99.8947 9.92575 99.3629 7.64082C99.0044 6.10245 95.4356 5.89281 95.178 3.58073C94.9174 1.22491 96.698 0.211396 98.8658 0.374282C100.907 0.529628 100.393 1.19022 100.598 2.90807C99.9127 3.02269 99.9489 2.20223 99.6099 1.72563C98.4018 0.0198539 95.877 1.3697 96.8547 3.2625C97.2313 3.99398 99.0872 4.66211 99.8329 5.23523C102.236 7.08127 100.933 10.1128 98.1141 10.3677Z" fill="white"/>
  <path d="M68.6717 7.68473L68.2198 10.0722H61.1426V9.62428C62.0841 9.67255 62.42 9.44179 62.5044 8.51274C62.7002 6.38164 62.3492 3.95795 62.4938 1.79368C62.3086 0.802787 60.647 1.36233 61.3685 0.520752H65.5097V1.11499C64.3995 1.04108 64.279 1.43322 64.1735 2.40601C64.0184 3.83881 64.0274 6.6124 64.1494 8.06329C64.181 8.4328 64.2594 9.21405 64.6089 9.39805C65.3998 9.81733 66.9634 9.6092 67.5344 8.87018C67.9441 8.33778 67.8567 7.46906 68.6717 7.68473Z" fill="white"/>
  <path d="M12.7686 14.2444C12.395 14.2052 12.16 13.6502 11.7849 13.5476C10.8584 13.2927 10.64 15.9954 10.4653 16.5565C10.5436 16.9863 11.7683 16.6289 12.0817 16.8476C11.8165 17.4901 10.866 17.3317 10.277 17.3724C9.64124 20.6724 9.62769 24.9994 6.20959 26.7731H5.30573C4.8056 26.4518 4.55705 26.0054 4.99843 25.4971C5.53774 24.8743 6.18399 26.0476 6.96432 25.657C7.3108 25.4836 7.5458 24.2167 7.64523 23.7929C8.1303 21.7462 8.3894 19.4583 8.61988 17.3709C8.51895 17.2684 7.39365 17.5881 7.56689 17.1492C7.80491 16.6017 8.59578 16.92 8.84886 16.6274C9.03566 16.4132 9.31887 15.0966 9.64426 14.5808C10.17 13.7482 11.4309 12.7317 12.4613 12.7317C13.9978 12.7347 13.4902 14.3213 12.7686 14.2444Z" fill="white"/>
  <path d="M53.9497 13.4902L53.9406 14.0784C53.0759 14.0513 52.8409 14.451 52.5216 15.1357C51.3797 17.576 50.9006 20.7417 49.8943 23.2755C49.7618 23.3705 49.5238 23.3765 49.3731 23.3268C49.0282 23.2106 47.2054 17.404 46.7971 16.6258L44.2362 23.3509C43.831 23.3418 43.7707 23.2272 43.6336 22.8924C42.662 20.5426 42.2839 17.2276 41.2248 14.9819C40.9703 14.4389 40.5695 14.1282 39.9625 14.0694L39.9429 13.4902H44.0102L44.0012 14.0784C43.6517 14.0905 42.9934 14.1357 42.9633 14.5973L44.6143 20.3556L46.886 13.6561L47.3997 13.6305L50.1821 20.3556L51.696 14.9004C51.797 14.2021 51.2215 14.089 50.6446 14.0784L50.6355 13.4902H53.9497Z" fill="white"/>
  <path d="M88.0586 21.8489C87.7121 21.4522 86.1003 19.113 86.046 18.7555C85.9677 18.2458 86.5733 18.2096 86.9348 17.8989C88.0782 16.9155 88.0541 14.8598 86.7345 14.0575C86.2735 13.7769 85.2838 13.5417 84.746 13.4904C83.3345 13.3577 81.7361 13.5899 80.3035 13.4904L80.3125 14.0786C80.9392 14.0756 81.3927 14.2475 81.4996 14.9187C81.7045 16.2142 81.6322 19.938 81.5147 21.3315C81.4333 22.2983 81.2104 22.6693 80.1514 22.5939V23.0419H84.3694V22.5954C83.9867 22.71 83.1657 22.3028 83.1657 21.9228V19.0119C84.7294 18.7993 85.1889 20.9741 86.052 22.0464C86.9634 23.1776 87.7453 23.2666 89.1884 23.1897C89.4671 22.9167 88.2831 22.1083 88.0586 21.8489ZM83.1657 18.4162V14.4617C83.1657 13.7392 85.4329 14.0183 85.805 15.4269C86.3066 17.3273 85.1512 18.7405 83.1657 18.4162Z" fill="white"/>
  <path d="M73.0393 13.3801C67.1311 14.1825 67.5589 23.9889 74.487 23.3222C80.8291 22.7114 80.2973 12.3938 73.0393 13.3801ZM73.7669 22.731C70.2449 22.3072 69.9692 14.6365 73.1839 13.9729C77.8117 13.0197 78.2485 23.2694 73.7669 22.731Z" fill="white"/>
  <path d="M99.8818 22.5968V23.0417H97.0964L93.4072 18.4884L93.1059 18.6392V21.624C93.1059 22.3344 93.8003 22.7295 94.4617 22.5938V23.0417H90.2437V22.5938C91.0526 22.6662 91.3825 22.4052 91.4578 21.633C91.6039 20.1429 91.6356 16.2065 91.4352 14.7677C91.4096 14.5867 91.3644 14.3258 91.1987 14.2247L90.2452 14.0845V13.4902H94.3095L94.302 14.0784C93.6663 13.9985 93.1059 14.4298 93.1059 15.0573V17.9681C93.4177 17.9983 93.6361 17.7675 93.8606 17.5971C94.3065 17.2592 96.5435 14.9441 96.658 14.546C96.8147 13.9955 96.2151 14.0754 95.8159 14.0875C95.7557 13.9201 95.8807 13.4902 96.0419 13.4902H99.5805V14.0845C97.4595 14.0769 96.3854 16.2593 94.9181 17.4463C96.0539 18.7448 96.9638 20.2983 98.1479 21.5516C98.6435 22.0749 99.0864 22.6073 99.8818 22.5968Z" fill="white"/>
  <path d="M29.4031 13.4902L29.394 14.0784C28.7583 13.9985 28.198 14.4298 28.198 15.0573V23.191L27.4477 23.1126L21.2699 15.8792V21.1761C21.2699 21.2545 21.4988 22.1458 21.5591 22.2333C21.7836 22.5591 22.4027 22.6285 22.7778 22.5938V23.0417H19.1624C19.3552 22.3419 20.2681 22.7024 20.485 21.7416C20.4489 20.0087 20.7893 18.2788 20.6748 16.5444C20.5965 15.3589 20.589 13.9155 19.0117 14.0845V13.4902H21.4958C21.9478 13.4902 26.4746 19.6558 27.4447 20.2063V15.2066C27.4447 14.46 26.6539 13.9412 25.9398 14.0845V13.4902H29.4031Z" fill="white"/>
  <path d="M38.7381 20.6542L38.2124 23.0417H30.9077V22.5938C31.5811 22.63 32.1731 22.5048 32.271 21.7808C32.4443 20.5004 32.4292 16.0542 32.2499 14.7677C32.2243 14.5867 32.1791 14.3258 32.0134 14.2247L31.0599 14.0845V13.4902H37.7605C38.2335 13.635 37.7801 15.3001 38.1371 15.7284L37.5586 15.7043C37.2181 13.9714 35.5355 13.9276 34.0712 14.2368V17.8188C34.7069 17.7358 36.1426 18.0526 36.5478 17.5126C36.8144 17.1567 36.5613 16.6152 37.2332 16.7736V19.609L36.7677 19.5216C36.6291 18.1114 35.0835 18.6649 34.0712 18.5653V21.9226C34.0712 22.7325 36.3429 22.5998 36.9349 22.3736C37.2212 22.2635 37.4968 22.0086 37.6851 21.7733C38.0316 21.3374 38.0602 20.5456 38.7381 20.6542Z" fill="white"/>
  <path d="M67.0576 14.3167C66.4114 14.7104 64.3596 18.3406 64.2255 19.1219C64.1171 19.7659 64.1321 21.6074 64.3732 22.1881C64.572 22.6631 65.283 22.6013 65.6973 22.5938V23.0417H61.178V22.5938C62.9285 22.9919 62.6829 20.2002 62.4977 19.1234C62.4058 18.591 60.5981 15.3589 60.1883 14.8446C59.8177 14.3756 59.4125 14.0226 58.7677 14.0875C58.7075 13.9201 58.834 13.4902 58.9952 13.4902H62.8351L62.8246 14.0769C62.5097 14.0543 61.9162 14.1719 61.9553 14.5822L63.2599 17.024L63.9619 17.9681L65.6762 14.5822C65.7154 14.1674 64.9366 14.0724 64.6504 14.0784L64.6413 13.4902H67.8801C68.5234 14.0845 67.4734 14.0634 67.0576 14.3167Z" fill="white"/>
  <path d="M5.55734 16.9744C4.71072 16.163 3.18923 16.4556 2.24621 16.9503C-1.19147 18.7496 -0.703384 25.1655 3.84905 22.8655C5.6643 21.9485 7.15265 18.5038 5.55734 16.9744ZM2.52791 22.5955C0.937116 22.3286 1.7792 17.3952 3.30974 17.0951C3.80686 16.9971 4.16087 17.3862 4.32959 17.816C4.78152 18.9683 4.24524 22.8821 2.52791 22.5955Z" fill="white"/>
</svg>