<?xml version="1.0" encoding="UTF-8"?>
<svg xmlns="http://www.w3.org/2000/svg" xmlns:xlink="http://www.w3.org/1999/xlink" width="24px" height="24px" viewBox="0 0 24 33" version="1.1">
<g id="surface1">
<path style=" stroke:none;fill-rule:nonzero;fill:rgb(9.411765%,50.196081%,21.960784%);fill-opacity:1;" d="M 15.75 0 L 24 8.25 L 19.875 9 L 15.75 8.25 L 15 4.125 Z M 15.75 0 "/>
<path style=" stroke:none;fill-rule:nonzero;fill:rgb(20.392157%,65.882355%,32.549021%);fill-opacity:1;" d="M 15.75 8.25 L 15.75 0 L 2.25 0 C 1.007812 0 0 1.007812 0 2.25 L 0 30.75 C 0 31.992188 1.007812 33 2.25 33 L 21.75 33 C 22.992188 33 24 31.992188 24 30.75 L 24 8.25 Z M 15.75 8.25 "/>
<path style=" stroke:none;fill-rule:nonzero;fill:rgb(100%,100%,100%);fill-opacity:1;" d="M 4.5 12.75 L 4.5 23.625 L 19.5 23.625 L 19.5 12.75 Z M 11.0625 21.75 L 6.375 21.75 L 6.375 19.125 L 11.0625 19.125 Z M 11.0625 17.25 L 6.375 17.25 L 6.375 14.625 L 11.0625 14.625 Z M 17.625 21.75 L 12.9375 21.75 L 12.9375 19.125 L 17.625 19.125 Z M 17.625 17.25 L 12.9375 17.25 L 12.9375 14.625 L 17.625 14.625 Z M 17.625 17.25 "/>
</g>
</svg>
