<svg width="64" height="77" viewBox="0 0 64 77" fill="none" xmlns="http://www.w3.org/2000/svg">
<g clip-path="url(#clip0_94_3907)">
<path d="M52.2937 9.88269H11.7063C5.24075 9.88269 0 15.1756 0 21.7056V54.1563C0 60.6863 5.24075 65.9792 11.7063 65.9792H16.0857L15.6623 74.7978C15.5754 76.6132 17.6617 77.6735 19.0529 76.5193L31.7589 65.9792H52.2949C58.7605 65.9792 64.0012 60.6863 64.0012 54.1563V21.7056C64.0012 15.1756 58.7605 9.88269 52.2949 9.88269H52.2937Z" fill="#FBEDCB"/>
<path d="M54.8302 18.6136C54.4754 17.8931 53.6323 17.1887 53.3545 16.6437C53.171 16.2841 53.1477 15.6885 52.9544 15.1941C52.498 14.0226 51.4641 12.8264 50.3261 12.2876C49.7424 12.0107 48.9104 11.9489 48.4527 11.708C48.1199 11.5325 47.6378 10.8281 47.2781 10.5463C45.0853 8.81744 42.5537 9.20671 39.9425 9.18076C38.8718 8.34042 38.3359 7.68298 36.8847 7.57299C36.0159 7.50749 34.9208 7.81521 34.1939 7.6941C33.5014 7.57917 32.8834 6.84634 31.7345 6.83275C30.2135 6.81545 29.1857 7.86711 27.7638 7.82633C27.9853 8.81867 28.9324 13.3726 28.3451 13.9732C27.743 14.5898 27.442 13.5048 27.2401 13.296C26.5463 12.578 25.795 13.4616 25.2432 13.5098C24.9654 13.5345 24.7513 13.3565 24.4564 13.4344C23.7908 13.6136 23.5448 14.8457 23.0541 15.2423C22.4533 15.7268 21.7424 15.4759 21.1037 16.2384C20.7121 16.7055 20.5115 17.7992 19.7736 16.9366L21.6347 5.65133L21.4023 5.35474L16.7574 15.9257C16.487 16.2433 16.0722 16.1432 15.9119 15.77V15.4574L18.4631 9.55768C17.0621 9.99762 16.1456 10.9912 15.4286 12.2381C15.1153 12.7843 14.7776 13.8558 14.4852 14.2512C14.2135 14.617 13.3509 14.8444 12.9312 15.2411C12.4344 15.7119 12.1016 16.6351 12.0135 17.316C11.9498 17.8066 12.0746 18.5209 11.8886 18.9201C11.7467 19.2253 11.0187 19.4725 10.7005 19.821C9.84765 20.7577 9.80116 22.1257 9.90027 23.3343C9.94309 23.8521 10.2869 24.7975 10.26 25.1831C10.2355 25.5378 9.8244 26.1248 9.7155 26.4881C9.33618 27.7523 9.80972 28.841 10.2637 30.0126C8.97277 31.4622 9.07188 33.1045 9.46711 34.8927C9.53563 35.2005 9.79381 35.5106 9.77546 35.8085C9.75466 36.1335 9.23707 36.6772 9.12572 37.1382C8.73171 38.7694 9.62128 39.1785 9.66289 40.1461C9.68491 40.659 9.24808 41.1026 9.17466 41.6377C9.08412 42.2989 9.14774 43.1528 9.35086 43.7868C9.51116 44.2873 10.0459 44.8508 10.0312 45.3303C10.0177 45.7331 9.27133 46.9801 9.10492 47.6227C8.73783 49.0438 8.7672 50.4168 9.07922 51.8479C9.11103 51.9949 9.17099 52.1655 9.23952 52.3459H8.98867V55.4045L9.18568 57.4695L8.98867 59.4505L9.39491 60.8457V61.4562L9.77668 61.4611C10.074 61.5501 10.725 61.8838 11.086 62.0568C15.1006 61.9653 19.1643 62.2459 23.1802 62.084C24.1799 62.0432 24.2496 61.9629 25.2603 62.0765C25.7277 62.1297 26.5255 61.7145 26.9722 61.7009C27.3148 61.6897 27.6476 61.8455 28.0648 61.8331C28.257 61.8269 28.4686 61.775 28.6754 61.7108L44.8002 61.9245V57.5869L45.4084 54.7668L45.2114 53.8536L46.6663 52.3447H45.9101C46.3836 51.6304 46.7176 50.8296 46.851 49.9695C42.6332 51.4722 37.992 52.3298 33.565 51.209C33.2995 51.2201 32.9153 52.2161 32.3499 51.7008C31.8935 51.2843 32.6118 50.7641 32.7231 50.3439C33.0939 48.945 32.1505 48.8301 32.044 48.1701C31.9254 47.4336 32.3683 46.9331 31.8923 45.8604C31.4335 44.8273 30.3799 44.705 30.1022 44.2082C29.8685 43.7917 29.7767 42.7746 29.5356 42.1852C29.0939 41.1051 28.3671 40.3648 27.36 39.81C27.0603 39.6456 26.4387 39.6864 26.3151 39.2514C26.2098 38.8844 26.5928 37.9773 26.528 37.3137C26.4436 36.4548 25.6971 35.5712 25.6751 35.0732C25.6543 34.5776 26.2086 33.7484 26.282 33.0848C26.3469 32.5077 26.1217 31.6908 26.2209 31.2978C26.3004 30.9827 27.3417 30.6441 27.7014 30.3166C28.1064 29.9471 28.706 28.6359 29.1734 28.5852C29.505 28.5494 30.6895 29.2155 31.283 29.2958C33.1257 29.5492 33.5161 28.9263 34.9489 28.6137C35.7785 28.4332 36.0746 29.066 36.7745 29.433C37.8281 29.9854 39.2426 30.3153 40.4258 30.1905C40.9116 30.1399 41.5099 29.784 41.8844 29.821C42.2845 29.8606 43.0664 30.6601 43.5473 30.8727C44.9263 31.4782 46.5402 31.1606 47.836 30.5069C48.2215 30.3116 48.9667 29.6678 49.264 29.5998C49.9321 29.4453 50.2918 29.8284 51.2181 29.4738C52.8259 28.8571 52.4845 27.8574 53.2102 27.0368C53.483 26.7278 54.1046 26.587 54.4399 26.1779C55.8997 24.3996 55.8054 20.5995 54.8278 18.6148L54.8302 18.6136Z" fill="url(#paint0_linear_94_3907)"/>
<path d="M48.3231 10.0482C49.4096 10.959 49.1502 10.6785 50.4008 11.2247C51.8703 11.8673 53.1294 13.1192 53.7926 14.5959C54.0349 15.1347 54.101 15.8478 54.3347 16.2729C54.5684 16.698 55.1704 17.2072 55.4714 17.72C57.089 20.4759 57.0291 25.0681 54.6259 27.3493C53.8024 28.1316 54.0386 27.9747 53.4414 28.8719C53.2481 29.1623 52.6216 29.7789 52.5445 29.947C52.268 30.5501 53.1649 33.2305 53.4806 33.9423C55.1337 37.6757 58.7287 39.6628 57.439 44.4009C56.9018 46.372 55.2683 48.1107 53.2726 48.5964C52.706 48.7348 52.1566 48.6421 51.7186 48.7571C51.3258 48.8609 50.5317 49.5603 49.8905 49.7531C49.2493 49.9459 48.5225 49.9607 47.8507 50.1028C47.6868 51.1211 47.2548 52.1987 46.6651 53.0453C46.4999 53.2813 45.7865 53.9202 45.7535 54.0994C45.658 54.6048 45.893 55.1684 45.8795 55.7047C45.8538 56.7329 45.1857 57.9032 45.1441 58.5619C45.1257 58.851 45.5711 59.9076 45.6176 60.4205C45.6543 60.837 45.707 61.6724 45.2665 61.8911C44.569 62.2384 44.58 61.3906 44.5311 60.9618C44.4528 60.2747 44.4736 60.1622 44.2863 59.4788C43.9034 58.0774 44.2288 58.4457 44.5935 57.2494C44.6522 57.0567 44.6241 56.9108 44.6534 56.7601C44.6963 56.5389 44.755 56.4598 44.7758 56.1422C44.8076 55.6553 44.8529 54.9558 44.6534 54.5356C44.6914 54.2551 44.5849 53.9696 44.7171 53.6718C44.8113 53.4593 45.4255 53.0045 45.6299 52.74C46.2551 51.9293 46.6969 50.9889 46.8559 49.9632C42.6381 51.4659 37.997 52.3236 33.5699 51.2027C33.3044 51.2138 32.9202 52.2099 32.3549 51.6945C31.8985 51.2781 32.6167 50.7578 32.7281 50.3376C33.0988 48.9387 32.1554 48.8238 32.049 48.1639C31.9303 47.4273 32.3732 46.9268 31.8972 45.8542C31.4212 44.7815 30.3848 44.6987 30.1071 44.2019C29.8734 43.7854 29.7816 42.7684 29.5405 42.1789C29.0988 41.0988 28.372 40.3586 27.365 39.8037C27.0652 39.6393 26.4436 39.6801 26.32 39.2451C26.2148 38.8781 26.5978 37.971 26.5329 37.3074C26.4485 36.4485 25.7021 35.5649 25.68 35.0669C25.658 34.5689 26.2135 33.7421 26.287 33.0785C26.3518 32.5014 26.1267 31.6845 26.2258 31.2915C26.3053 30.9764 27.3466 30.6378 27.7063 30.3103C28.1114 29.9408 28.7109 28.6296 29.1784 28.579C29.51 28.5431 30.6944 29.2092 31.2879 29.2896C33.1306 29.5429 33.521 28.92 34.9538 28.6074C35.7834 28.427 36.0796 29.0597 36.7795 29.4267C37.833 29.9791 39.2475 30.3091 40.4307 30.1843C40.9165 30.1336 41.5149 29.7777 41.8893 29.8148C42.2894 29.8543 43.0713 30.6539 43.5522 30.8664C44.9312 31.472 46.5451 31.1544 47.841 30.5006C48.2264 30.3054 48.9716 29.6615 49.2689 29.5936C49.937 29.4391 50.2967 29.8234 51.223 29.4675C52.8309 28.8508 52.4895 27.8511 53.2151 27.0305C53.4879 26.7216 54.1095 26.5807 54.4448 26.1716C55.9046 24.3933 55.8104 20.5933 54.8327 18.6086C54.4778 17.8881 53.6348 17.1837 53.357 16.6387C53.1735 16.2791 53.1502 15.6834 52.9569 15.1891C52.5005 14.0176 51.4665 12.8213 50.3286 12.2825C49.7449 12.0057 48.9128 11.9439 48.4552 11.7029C48.1224 11.5275 47.6403 10.823 47.2805 10.5413C45.0878 8.81241 42.5562 9.20168 39.945 9.17573C38.8743 8.33539 38.3383 7.67794 36.8871 7.56796C36.0184 7.50246 34.9232 7.81017 34.1964 7.68907C33.4696 7.56796 32.8859 6.84131 31.7369 6.82772C30.216 6.81042 29.1881 7.86208 27.7663 7.8213C27.9878 8.81364 28.9349 13.3676 28.3475 13.9681C27.7602 14.5687 27.4445 13.4998 27.2426 13.2909C26.5488 12.5729 25.7975 13.4565 25.2457 13.5047C24.9679 13.5294 24.7538 13.3503 24.4589 13.4293C23.7932 13.6085 23.5473 14.8406 23.0566 15.2373C22.4558 15.7217 21.7449 15.4709 21.1062 16.2334C20.7146 16.7005 20.5139 17.7942 19.7761 16.9316L21.6372 5.6463L21.4047 5.3497L16.7599 15.9207C16.4895 16.2383 16.0747 16.1382 15.9144 15.765V15.4523L18.4656 9.55265C17.0646 9.99259 16.1481 10.9862 15.431 12.2331C15.1178 12.7793 14.7801 13.8507 14.4876 14.2462C14.216 14.612 13.3533 14.8394 12.9336 15.2361C12.4368 15.7069 12.104 16.6301 12.0159 17.311C11.9523 17.8016 12.0771 18.5159 11.8911 18.915C11.7492 19.2203 11.0211 19.4674 10.703 19.8159C9.85012 20.7527 9.80363 22.1207 9.90274 23.3293C9.94557 23.8471 10.2894 24.7925 10.2625 25.1781C10.238 25.5327 9.82687 26.1197 9.71797 26.4831C9.33865 27.7473 9.81219 28.836 10.2662 30.0075C8.97524 31.4571 9.07435 33.0995 9.46958 34.8877C9.5381 35.1954 9.79628 35.5056 9.77793 35.8034C9.75713 36.1284 9.23954 36.6722 9.12819 37.1332C8.73419 38.7644 9.62375 39.1735 9.66536 40.1411C9.68738 40.6539 9.25055 41.0976 9.17713 41.6327C9.08659 42.2938 9.15022 43.1478 9.35334 43.7817C9.51363 44.2822 10.0483 44.8458 10.0337 45.3252C10.0202 45.7281 9.2738 46.975 9.10739 47.6176C8.7403 49.0388 8.76967 50.4118 9.08169 51.8428C9.19549 52.3631 9.647 53.1886 9.66536 53.6113C9.69962 54.375 9.26156 54.8656 9.41207 56.0198C9.44633 56.2855 9.48181 56.4993 9.53443 56.7613C9.56013 56.8874 9.71797 57.048 9.74979 57.2186C9.8954 57.9934 9.32764 58.7114 9.40473 59.663C9.4549 60.2858 10.0961 60.816 9.77915 61.4573C9.62987 61.4128 9.35089 61.5018 9.13186 61.4338C8.5482 61.2522 8.37077 59.2378 8.44419 58.6879C8.49191 58.3283 8.79414 57.8562 8.78802 57.5633C8.77579 56.9924 8.27166 56.1335 8.3047 55.2153C8.32183 54.7507 8.673 53.8893 8.64731 53.6298C8.62651 53.416 8.21904 52.5015 8.12605 52.0677C7.78221 50.4748 7.71247 49.0648 8.1028 47.4694C8.23862 46.917 8.90794 45.633 8.92507 45.3203C8.93731 45.0806 8.27411 43.9337 8.20314 43.3406C8.1444 42.8537 8.14563 42.0022 8.20314 41.514C8.26065 41.0259 8.63874 40.4636 8.6571 40.2437C8.66811 40.1089 8.00613 38.6841 8.06242 37.6645C8.10525 36.8786 8.66444 35.9715 8.66811 35.6959C8.67423 35.2659 8.24352 34.098 8.20558 33.453C8.15664 32.6311 8.28512 31.5486 8.58491 30.7775C8.6987 30.4846 9.1392 29.9186 9.14899 29.8654C9.17102 29.753 8.56777 28.1885 8.54942 27.6595C8.51149 26.6153 9.12819 25.8108 9.17836 25.0619C9.21017 24.5688 8.95566 23.9559 8.92629 23.4554C8.84431 22.007 8.8125 20.7354 9.68004 19.5243C9.95903 19.135 10.8131 18.5221 10.9147 18.2996C11.2304 17.6137 11.0187 16.436 11.6403 15.3251C12.3169 14.1127 13.2554 14.135 13.7021 13.5764C13.8905 13.3404 13.9211 12.8942 14.0789 12.5977C14.528 11.7561 15.2242 10.5858 15.8997 9.92586C16.8345 9.01137 17.9676 8.66905 19.1374 8.1908C20.3108 5.96266 21.1037 3.30075 22.2772 1.10474C22.8816 -0.0260099 23.3735 0.463366 24.1554 1.15541C25.6225 2.45423 26.6039 4.57857 27.2903 6.39272C28.2019 7.22194 29.0193 6.36553 30.041 6.10478C31.0627 5.84402 32.0502 5.72909 33.1282 6.05782C34.3775 6.43968 33.893 6.59662 35.4115 6.58426C36.5286 6.57561 38.1242 6.86603 39.064 6.44338C40.7929 5.66607 42.829 3.36996 43.896 1.80791C44.6387 0.721647 45.0511 -1.20125 46.2919 1.04172C47.5326 3.28469 47.5889 6.65718 47.2377 9.22393C47.2842 9.36481 48.1114 9.87148 48.3243 10.0494L48.3231 10.0482ZM27.5204 12.2714C27.2194 9.11147 26.3555 5.42756 24.3916 2.88923C24.2374 2.69027 23.4616 1.65467 23.2402 1.89071L21.0389 14.9902C21.3839 14.6763 22.1878 14.6948 22.4729 14.4612C22.9391 14.0769 22.9832 13.0438 23.9731 12.5803C24.5776 12.2974 24.706 12.5495 25.1111 12.4951C25.2995 12.4704 25.4904 12.2603 25.6874 12.2096C26.3995 12.0279 26.8143 12.044 27.5216 12.2702L27.5204 12.2714ZM42.8168 8.19327C43.9719 8.12901 45.1 8.41819 46.1719 8.80499L46.3457 8.60726C46.5757 6.36306 46.5586 3.95573 45.5687 1.89195L44.1836 5.80571L42.8168 8.19327ZM43.9168 3.62206L41.7168 5.78594C41.1955 6.16039 40.6914 6.57314 40.164 6.93647C39.9755 7.06623 39.3221 7.24171 39.3907 7.51235C40.9679 9.05339 41.9676 7.92016 42.8376 6.42238C43.2989 5.62899 43.8324 4.51925 43.9168 3.62083V3.62206ZM51.5032 30.4376C50.9208 30.8528 49.9138 30.4883 49.5185 30.5834C49.2909 30.6378 48.3598 31.3397 47.9829 31.5152C46.3604 32.2678 44.6363 32.4717 42.9783 31.6969C42.6198 31.5288 42.019 31.0011 41.7486 30.9517C41.3839 30.885 40.9459 31.1507 40.5531 31.1778C38.6797 31.3076 36.7281 30.8108 35.2744 29.5923C33.4365 30.4722 31.272 30.6316 29.4145 29.7246C28.8211 30.4907 28.2704 31.3682 27.2989 31.6919C27.2316 32.2691 27.3307 32.8561 27.2499 33.4344C27.1875 33.8805 26.7091 34.7295 26.6895 34.968C26.6834 35.0447 27.2524 36.0667 27.338 36.3707C27.5864 37.258 27.5277 37.9339 27.4139 38.8287C28.8773 39.2451 30.0337 40.6144 30.5549 42.0195C30.692 42.389 30.8743 43.4691 30.9869 43.6223C31.064 43.7261 31.5461 43.9535 31.7492 44.15C32.569 44.9422 33.0193 45.5032 33.138 46.7007C33.1808 47.127 33.0511 47.6436 33.0878 47.9254C33.1135 48.1231 33.5809 48.5952 33.6825 48.9943C33.7926 49.4293 33.7278 49.7951 33.8195 50.2153C37.5051 51.178 41.5834 50.6948 45.1453 49.4652C44.4087 48.9016 43.5889 48.4728 42.8853 47.8562C42.6577 47.6572 42.2943 47.1073 42.2074 47.0504C41.855 46.8243 41.1686 47.6362 40.8798 46.9058C40.6901 46.2261 41.6592 46.1508 42.0508 45.9073C42.4424 45.6639 43.2903 44.6814 43.6868 45.1918C44.0318 45.6688 43.5057 46.0989 43.0811 46.2682C42.7862 46.7835 44.892 48.1725 45.3081 48.3752C47.562 49.4701 50.4864 49.2254 51.9266 46.9837C52.6375 45.8752 53.2016 43.6421 52.7012 42.3927C52.4491 41.7649 51.179 41.4547 51.6231 40.7763C52.06 40.3363 52.5812 40.8801 52.9336 41.1767L53.9003 40.5674L54.1915 40.7689C54.5427 41.2632 53.8036 41.6586 53.718 42.1196C53.6201 42.6448 53.8501 43.2714 53.8416 43.8485C53.8232 45.1152 53.3705 46.6599 52.6131 47.6757C55.5522 47.1678 57.1771 44.2859 56.6192 41.4016C56.2435 39.4614 54.5929 37.8252 53.587 36.1841C52.4931 34.4008 51.7859 32.5261 51.5081 30.4339L51.5032 30.4376Z" fill="#0F0C09"/>
<path d="M27.5203 12.2715C26.8131 12.0441 26.3983 12.0293 25.6861 12.2109C25.4879 12.2616 25.297 12.4717 25.1098 12.4964C24.7048 12.5508 24.5763 12.2987 23.9718 12.5817C22.9819 13.0439 22.9379 14.0782 22.4717 14.4626C22.1866 14.6974 21.3827 14.6788 21.0376 14.9915L23.2389 1.89204C23.4616 1.656 24.2374 2.69284 24.3903 2.89056C26.3542 5.42889 27.2193 9.1128 27.5191 12.2727L27.5203 12.2715Z" fill="#FAEBCA"/>
<path d="M42.8168 8.19329L44.1835 5.80573L45.5687 1.89197C46.5598 3.95575 46.5769 6.36308 46.3457 8.60729L46.1719 8.80501C45.1 8.41821 43.9719 8.12903 42.8168 8.19329Z" fill="#FAEBCA"/>
<path d="M43.9167 3.62207C43.8323 4.52049 43.2976 5.63024 42.8375 6.42362C41.9675 7.92141 40.9678 9.05463 39.3906 7.51359C39.3233 7.24295 39.9755 7.06747 40.1639 6.93771C40.6913 6.57315 41.1954 6.1604 41.7167 5.78719L43.9167 3.62331V3.62207Z" fill="#FDE0A9"/>
<path d="M44.7745 56.1435H44.5298C44.4478 55.5911 44.5824 55.0597 44.6522 54.537C44.8516 54.9572 44.8063 55.6566 44.7745 56.1435Z" fill="#FDE5B3"/>
<path d="M51.5032 30.4376C51.781 32.5298 52.4895 34.4046 53.5821 36.1878C54.5892 37.8289 56.2398 39.4651 56.6143 41.4053C57.1722 44.2897 55.546 47.1716 52.6081 47.6795C53.3656 46.6637 53.8183 45.1177 53.8367 43.8522C53.8452 43.2751 53.6152 42.6485 53.7131 42.1233C53.7987 41.6624 54.5378 41.2669 54.1866 40.7726L53.8954 40.5712L52.9287 41.1804C52.5763 40.8838 52.0551 40.3401 51.6182 40.78C51.1741 41.4585 52.4442 41.7687 52.6962 42.3964C53.1979 43.6458 52.6338 45.8789 51.9217 46.9874C50.4827 49.2292 47.5571 49.4739 45.3032 48.3789C44.8871 48.1775 42.7813 46.7885 43.0762 46.2719C43.5008 46.1014 44.0281 45.6713 43.6819 45.1955C43.2854 44.6851 42.4534 45.6565 42.0459 45.9111C41.6384 46.1656 40.6852 46.2299 40.8749 46.9096C41.1637 47.6399 41.8489 46.828 42.2025 47.0542C42.2894 47.1098 42.654 47.6597 42.8804 47.8599C43.584 48.4766 44.4038 48.9054 45.1404 49.4689C41.5785 50.6985 37.5014 51.1817 33.8146 50.219C33.7216 49.8001 33.7877 49.4343 33.6776 48.9981C33.5772 48.5989 33.1086 48.1256 33.0829 47.9291C33.0462 47.6473 33.1759 47.1308 33.1331 46.7044C33.0144 45.5069 32.5641 44.9459 31.7443 44.1538C31.5411 43.9573 31.059 43.7299 30.982 43.6261C30.8694 43.4728 30.6871 42.3927 30.55 42.0232C30.0288 40.6181 28.8724 39.2489 27.409 38.8324C27.5228 37.9377 27.5815 37.2617 27.3331 36.3744C27.2475 36.0704 26.6785 35.0484 26.6846 34.9718C26.7054 34.7333 27.1826 33.8843 27.245 33.4382C27.327 32.8598 27.2267 32.2728 27.294 31.6957C28.2655 31.3719 28.8174 30.4945 29.4096 29.7283C31.2683 30.6341 33.4316 30.476 35.2695 29.5961C36.7232 30.8146 38.6748 31.3114 40.5482 31.1816C40.941 31.1544 41.3802 30.8887 41.7437 30.9554C42.0141 31.0049 42.6149 31.5326 42.9734 31.7006C44.6302 32.4755 46.3542 32.2716 47.978 31.519C48.3549 31.3447 49.286 30.6428 49.5136 30.5872C49.9101 30.492 50.9171 30.8566 51.4983 30.4414L51.5032 30.4376ZM34.2258 32.5756C33.7999 32.6201 33.3227 32.7362 32.9067 32.8499C32.4625 32.9698 31.1398 33.3628 31.0676 33.8423C30.9049 34.9298 32.1395 34.1104 32.5653 33.9869C34.1267 33.5321 35.6011 33.3356 37.2163 33.6853C37.762 33.804 39.1716 34.6616 39.3735 33.9337C39.5485 33.3072 38.6026 33.0761 38.194 32.9438C36.9263 32.5348 35.5522 32.4372 34.2258 32.5743V32.5756Z" fill="#FAEBCA"/>
<path d="M34.2258 32.5756C35.5522 32.4384 36.9251 32.5348 38.194 32.9451C38.6027 33.0773 39.5485 33.3084 39.3736 33.935C39.1704 34.6629 37.7608 33.8052 37.2163 33.6866C35.6011 33.3369 34.1279 33.5334 32.5654 33.9881C32.1408 34.1117 30.9049 34.931 31.0676 33.8435C31.1398 33.3641 32.4626 32.9711 32.9067 32.8512C33.3228 32.7387 33.8 32.6213 34.2258 32.5769V32.5756Z" fill="#120F0B"/>
</g>
<defs>
<linearGradient id="paint0_linear_94_3907" x1="32.197" y1="62.1309" x2="32.197" y2="5.35227" gradientUnits="userSpaceOnUse">
<stop stop-color="#FDE0A9" stop-opacity="0.03"/>
<stop offset="0.05" stop-color="#FDE0A9" stop-opacity="0.21"/>
<stop offset="0.09" stop-color="#FDE0A9" stop-opacity="0.38"/>
<stop offset="0.14" stop-color="#FDE0A9" stop-opacity="0.53"/>
<stop offset="0.19" stop-color="#FDE0A9" stop-opacity="0.66"/>
<stop offset="0.25" stop-color="#FDE0A9" stop-opacity="0.77"/>
<stop offset="0.32" stop-color="#FDE0A9" stop-opacity="0.85"/>
<stop offset="0.4" stop-color="#FDE0A9" stop-opacity="0.92"/>
<stop offset="0.49" stop-color="#FDE0A9" stop-opacity="0.97"/>
<stop offset="0.63" stop-color="#FDE0A9" stop-opacity="0.99"/>
<stop offset="1" stop-color="#FDE0A9"/>
</linearGradient>
<clipPath id="clip0_94_3907">
<rect width="64" height="77" fill="white"/>
</clipPath>
</defs>
</svg>
