<?xml version="1.0" encoding="UTF-8"?>
<svg xmlns="http://www.w3.org/2000/svg" xmlns:xlink="http://www.w3.org/1999/xlink" width="0" height="0">
<defs>
<symbol id="arrow-up-right" viewBox="0 0 24 24" fill="none" stroke="currentColor" stroke-width="2" stroke-linecap="round" stroke-linejoin="round"><line x1="7" y1="17" x2="17" y2="7"></line><polyline points="7 7 17 7 17 17"></polyline></symbol>
<symbol id="download-cloud" viewBox="0 0 24 24" fill="none" stroke="currentColor" stroke-width="2" stroke-linecap="round" stroke-linejoin="round"><polyline points="8 17 12 21 16 17"></polyline><line x1="12" y1="12" x2="12" y2="21"></line><path d="M20.88 18.09A5 5 0 0 0 18 9h-1.26A8 8 0 1 0 3 16.29"></path></symbol>
<symbol id="chevron-left" viewBox="0 0 24 24" fill="none" stroke="currentColor" stroke-width="2" stroke-linecap="round" stroke-linejoin="round"><polyline points="15 18 9 12 15 6"></polyline></symbol>
<symbol id="chevron-right" viewBox="0 0 24 24" fill="none" stroke="currentColor" stroke-width="2" stroke-linecap="round" stroke-linejoin="round"><polyline points="9 18 15 12 9 6"></polyline></symbol>
<symbol id="chevron-up" viewBox="0 0 24 24" fill="none" stroke="currentColor" stroke-width="2" stroke-linecap="round" stroke-linejoin="round"><polyline points="18 15 12 9 6 15"></polyline></symbol>
<symbol id="chevron-down" viewBox="0 0 24 24" fill="none" stroke="currentColor" stroke-width="2" stroke-linecap="round" stroke-linejoin="round"><polyline points="6 9 12 15 18 9"></polyline></symbol>
<symbol id="chevrons-up" viewBox="0 0 24 24" fill="none" stroke="currentColor" stroke-width="2" stroke-linecap="round" stroke-linejoin="round"><polyline points="17 11 12 6 7 11"></polyline><polyline points="17 18 12 13 7 18"></polyline></symbol>
<symbol id="external-link" viewBox="0 0 24 24" fill="none" stroke="currentColor" stroke-width="2" stroke-linecap="round" stroke-linejoin="round"><path d="M18 13v6a2 2 0 0 1-2 2H5a2 2 0 0 1-2-2V8a2 2 0 0 1 2-2h6"></path><polyline points="15 3 21 3 21 9"></polyline><line x1="10" y1="14" x2="21" y2="3"></line></symbol>
<symbol id="clock" viewBox="0 0 24 24" fill="none" stroke="currentColor" stroke-width="2" stroke-linecap="round" stroke-linejoin="round"><circle cx="12" cy="12" r="10"></circle><polyline points="12 6 12 12 16 14"></polyline></symbol>
<symbol id="folder-plus" viewBox="0 0 24 24" fill="none" stroke="currentColor" stroke-width="2" stroke-linecap="round" stroke-linejoin="round"><path d="M22 19a2 2 0 0 1-2 2H4a2 2 0 0 1-2-2V5a2 2 0 0 1 2-2h5l2 3h9a2 2 0 0 1 2 2z"></path><line x1="12" y1="11" x2="12" y2="17"></line><line x1="9" y1="14" x2="15" y2="14"></line></symbol>
<symbol id="trash-2" viewBox="0 0 24 24" fill="none" stroke="currentColor" stroke-width="2" stroke-linecap="round" stroke-linejoin="round"><polyline points="3 6 5 6 21 6"></polyline><path d="M19 6v14a2 2 0 0 1-2 2H7a2 2 0 0 1-2-2V6m3 0V4a2 2 0 0 1 2-2h4a2 2 0 0 1 2 2v2"></path><line x1="10" y1="11" x2="10" y2="17"></line><line x1="14" y1="11" x2="14" y2="17"></line></symbol>
<symbol id="github" viewBox="0 0 24 24" fill="none" stroke="currentColor" stroke-width="2" stroke-linecap="round" stroke-linejoin="round"><path d="M9 19c-5 1.5-5-2.5-7-3m14 6v-3.87a3.37 3.37 0 0 0-.94-2.61c3.14-.35 6.44-1.54 6.44-7A5.44 5.44 0 0 0 20 4.77 5.07 5.07 0 0 0 19.91 1S18.73.65 16 2.48a13.38 13.38 0 0 0-7 0C6.27.65 5.09 1 5.09 1A5.07 5.07 0 0 0 5 4.77a5.44 5.44 0 0 0-1.5 3.78c0 5.42 3.3 6.61 6.44 7A3.37 3.37 0 0 0 9 18.13V22"></path></symbol>
<symbol id="copy" viewBox="0 0 24 24" fill="none" stroke="currentColor" stroke-width="2" stroke-linecap="round" stroke-linejoin="round"><rect x="9" y="9" width="13" height="13" rx="2" ry="2"></rect><path d="M5 15H4a2 2 0 0 1-2-2V4a2 2 0 0 1 2-2h9a2 2 0 0 1 2 2v1"></path></symbol>
<symbol id="search" viewBox="0 0 24 24" fill="none" stroke="currentColor" stroke-width="2" stroke-linecap="round" stroke-linejoin="round"><circle cx="11" cy="11" r="8"></circle><line x1="21" y1="21" x2="16.65" y2="16.65"></line></symbol>
<symbol id="arrow-left" viewBox="0 0 24 24" fill="none" stroke="currentColor" stroke-width="2" stroke-linecap="round" stroke-linejoin="round"><line x1="19" y1="12" x2="5" y2="12"></line><polyline points="12 19 5 12 12 5"></polyline></symbol>
<symbol id="arrow-right" viewBox="0 0 24 24" fill="none" stroke="currentColor" stroke-width="2" stroke-linecap="round" stroke-linejoin="round"><line x1="5" y1="12" x2="19" y2="12"></line><polyline points="12 5 19 12 12 19"></polyline></symbol>
<symbol id="flag" viewBox="0 0 24 24" fill="none" stroke="currentColor" stroke-width="2" stroke-linecap="round" stroke-linejoin="round"><path d="M4 15s1-1 4-1 5 2 8 2 4-1 4-1V3s-1 1-4 1-5-2-8-2-4 1-4 1z"></path><line x1="4" y1="22" x2="4" y2="15"></line></symbol>
<symbol id="check-circle" viewBox="0 0 24 24" fill="none" stroke="currentColor" stroke-width="2" stroke-linecap="round" stroke-linejoin="round"><path d="M22 11.08V12a10 10 0 1 1-5.93-9.14"></path><polyline points="22 4 12 14.01 9 11.01"></polyline></symbol>
<symbol id="help-circle" viewBox="0 0 24 24" fill="none" stroke="currentColor" stroke-width="2" stroke-linecap="round" stroke-linejoin="round"><circle cx="12" cy="12" r="10"></circle><path d="M9.09 9a3 3 0 0 1 5.83 1c0 2-3 3-3 3"></path><line x1="12" y1="17" x2="12.01" y2="17"></line></symbol>
<symbol id="alert-triangle" viewBox="0 0 24 24" fill="none" stroke="currentColor" stroke-width="2" stroke-linecap="round" stroke-linejoin="round"><path d="M10.29 3.86L1.82 18a2 2 0 0 0 1.71 3h16.94a2 2 0 0 0 1.71-3L13.71 3.86a2 2 0 0 0-3.42 0z"></path><line x1="12" y1="9" x2="12" y2="13"></line><line x1="12" y1="17" x2="12.01" y2="17"></line></symbol>
<symbol id="x" viewBox="0 0 24 24" fill="none" stroke="currentColor" stroke-width="2" stroke-linecap="round" stroke-linejoin="round"><line x1="18" y1="6" x2="6" y2="18"></line><line x1="6" y1="6" x2="18" y2="18"></line></symbol>
<symbol id="bookmark" viewBox="0 0 24 24" fill="var(--fill-icon)" stroke="currentColor" stroke-width="2" stroke-linecap="round" stroke-linejoin="round"><path d="M19 21l-7-5-7 5V5a2 2 0 0 1 2-2h10a2 2 0 0 1 2 2z"></path></symbol>
<symbol id="settings" viewBox="0 0 24 24" fill="none" stroke="currentColor" stroke-width="2" stroke-linecap="round" stroke-linejoin="round"><circle cx="12" cy="12" r="3"></circle><path d="M19.4 15a1.65 1.65 0 0 0 .33 1.82l.06.06a2 2 0 0 1 0 2.83 2 2 0 0 1-2.83 0l-.06-.06a1.65 1.65 0 0 0-1.82-.33 1.65 1.65 0 0 0-1 1.51V21a2 2 0 0 1-2 2 2 2 0 0 1-2-2v-.09A1.65 1.65 0 0 0 9 19.4a1.65 1.65 0 0 0-1.82.33l-.06.06a2 2 0 0 1-2.83 0 2 2 0 0 1 0-2.83l.06-.06a1.65 1.65 0 0 0 .33-1.82 1.65 1.65 0 0 0-1.51-1H3a2 2 0 0 1-2-2 2 2 0 0 1 2-2h.09A1.65 1.65 0 0 0 4.6 9a1.65 1.65 0 0 0-.33-1.82l-.06-.06a2 2 0 0 1 0-2.83 2 2 0 0 1 2.83 0l.06.06a1.65 1.65 0 0 0 1.82.33H9a1.65 1.65 0 0 0 1-1.51V3a2 2 0 0 1 2-2 2 2 0 0 1 2 2v.09a1.65 1.65 0 0 0 1 1.51 1.65 1.65 0 0 0 1.82-.33l.06-.06a2 2 0 0 1 2.83 0 2 2 0 0 1 0 2.83l-.06.06a1.65 1.65 0 0 0-.33 1.82V9a1.65 1.65 0 0 0 1.51 1H21a2 2 0 0 1 2 2 2 2 0 0 1-2 2h-.09a1.65 1.65 0 0 0-1.51 1z"></path></symbol>
<symbol id="bar-chart-2" viewBox="0 0 24 24" fill="none" stroke="currentColor" stroke-width="2" stroke-linecap="round" stroke-linejoin="round"><line x1="18" y1="20" x2="18" y2="10"></line><line x1="12" y1="20" x2="12" y2="4"></line><line x1="6" y1="20" x2="6" y2="14"></line></symbol>
<symbol id="activity" viewBox="0 0 24 24" fill="none" stroke="currentColor" stroke-width="2" stroke-linecap="round" stroke-linejoin="round"><polyline points="22 12 18 12 15 21 9 3 6 12 2 12"></polyline></symbol>
<symbol id="trending-up" viewBox="0 0 24 24" fill="none" stroke="currentColor" stroke-width="2" stroke-linecap="round" stroke-linejoin="round"><polyline points="23 6 13.5 15.5 8.5 10.5 1 18"></polyline><polyline points="17 6 23 6 23 12"></polyline></symbol>
<symbol id="users" viewBox="0 0 24 24" fill="none" stroke="currentColor" stroke-width="2" stroke-linecap="round" stroke-linejoin="round"><path d="M17 21v-2a4 4 0 0 0-4-4H5a4 4 0 0 0-4 4v2"></path><circle cx="9" cy="7" r="4"></circle><path d="M23 21v-2a4 4 0 0 0-3-3.87"></path><path d="M16 3.13a4 4 0 0 1 0 7.75"></path></symbol>
<symbol id="plus" viewBox="0 0 24 24" fill="none" stroke="currentColor" stroke-width="2" stroke-linecap="round" stroke-linejoin="round"><line x1="12" y1="5" x2="12" y2="19"></line><line x1="5" y1="12" x2="19" y2="12"></line></symbol>
<symbol id="repeat" viewBox="0 0 24 24" fill="none" stroke="currentColor" stroke-width="2" stroke-linecap="round" stroke-linejoin="round"><polyline points="17 1 21 5 17 9"></polyline><path d="M3 11V9a4 4 0 0 1 4-4h14"></path><polyline points="7 23 3 19 7 15"></polyline><path d="M21 13v2a4 4 0 0 1-4 4H3"></path></symbol>
<symbol id="link" viewBox="0 0 24 24" fill="none" stroke="currentColor" stroke-width="2" stroke-linecap="round" stroke-linejoin="round"><path d="M10 13a5 5 0 0 0 7.54.54l3-3a5 5 0 0 0-7.07-7.07l-1.72 1.71"></path><path d="M14 11a5 5 0 0 0-7.54-.54l-3 3a5 5 0 0 0 7.07 7.07l1.71-1.71"></path></symbol>
<symbol id="map" viewBox="0 0 24 24" fill="none" stroke="currentColor" stroke-width="2" stroke-linecap="round" stroke-linejoin="round"><polygon points="1 6 1 22 8 18 16 22 23 18 23 2 16 6 8 2 1 6"></polygon><line x1="8" y1="2" x2="8" y2="18"></line><line x1="16" y1="6" x2="16" y2="22"></line></symbol>
<symbol id="percent" viewBox="0 0 24 24" fill="none" stroke="currentColor" stroke-width="2" stroke-linecap="round" stroke-linejoin="round"><line x1="19" y1="5" x2="5" y2="19"></line><circle cx="6.5" cy="6.5" r="2.5"></circle><circle cx="17.5" cy="17.5" r="2.5"></circle></symbol>
<symbol id="sun" viewBox="0 0 24 24" fill="none" stroke="currentColor" stroke-width="2" stroke-linecap="round" stroke-linejoin="round"><circle cx="12" cy="12" r="5"></circle><line x1="12" y1="1" x2="12" y2="3"></line><line x1="12" y1="21" x2="12" y2="23"></line><line x1="4.22" y1="4.22" x2="5.64" y2="5.64"></line><line x1="18.36" y1="18.36" x2="19.78" y2="19.78"></line><line x1="1" y1="12" x2="3" y2="12"></line><line x1="21" y1="12" x2="23" y2="12"></line><line x1="4.22" y1="19.78" x2="5.64" y2="18.36"></line><line x1="18.36" y1="5.64" x2="19.78" y2="4.22"></line></symbol>
<symbol id="moon" viewBox="0 0 24 24" fill="none" stroke="currentColor" stroke-width="2" stroke-linecap="round" stroke-linejoin="round"><path d="M21 12.79A9 9 0 1 1 11.21 3 7 7 0 0 0 21 12.79z"></path></symbol>
<symbol id="mail" viewBox="0 0 24 24" fill="none" stroke="currentColor" stroke-width="2" stroke-linecap="round" stroke-linejoin="round"><path d="M4 4h16c1.1 0 2 .9 2 2v12c0 1.1-.9 2-2 2H4c-1.1 0-2-.9-2-2V6c0-1.1.9-2 2-2z"></path><polyline points="22,6 12,13 2,6"></polyline></symbol>
<symbol id="calendar" viewBox="0 0 24 24" fill="none" stroke="currentColor" stroke-width="2" stroke-linecap="round" stroke-linejoin="round"><rect x="3" y="4" width="18" height="18" rx="2" ry="2"></rect><line x1="16" y1="2" x2="16" y2="6"></line><line x1="8" y1="2" x2="8" y2="6"></line><line x1="3" y1="10" x2="21" y2="10"></line></symbol>
<symbol id="menu" viewBox="0 0 24 24" fill="none" stroke="currentColor" stroke-width="2" stroke-linecap="round" stroke-linejoin="round"><line x1="3" y1="12" x2="21" y2="12"></line><line x1="3" y1="6" x2="21" y2="6"></line><line x1="3" y1="18" x2="21" y2="18"></line></symbol>
<symbol id="code" viewBox="0 0 24 24" fill="none" stroke="currentColor" stroke-width="2" stroke-linecap="round" stroke-linejoin="round"><polyline points="16 18 22 12 16 6"></polyline><polyline points="8 6 2 12 8 18"></polyline></symbol>
<symbol id="align-left" viewBox="0 0 24 24" fill="none" stroke="currentColor" stroke-width="2" stroke-linecap="round" stroke-linejoin="round"><line x1="17" y1="10" x2="3" y2="10"></line><line x1="21" y1="6" x2="3" y2="6"></line><line x1="21" y1="14" x2="3" y2="14"></line><line x1="17" y1="18" x2="3" y2="18"></line></symbol>
<symbol id="bar-chart" viewBox="0 0 24 24" fill="none" stroke="currentColor" stroke-width="2" stroke-linecap="round" stroke-linejoin="round"><line x1="12" y1="20" x2="12" y2="10"></line><line x1="18" y1="20" x2="18" y2="4"></line><line x1="6" y1="20" x2="6" y2="16"></line></symbol>
<symbol id="eye" viewBox="0 0 24 24" fill="none" stroke="currentColor" stroke-width="2" stroke-linecap="round" stroke-linejoin="round"><path d="M1 12s4-8 11-8 11 8 11 8-4 8-11 8-11-8-11-8z"></path><circle cx="12" cy="12" r="3"></circle></symbol>
<symbol id="file-plus" viewBox="0 0 24 24" fill="none" stroke="currentColor" stroke-width="2" stroke-linecap="round" stroke-linejoin="round"><path d="M14 2H6a2 2 0 0 0-2 2v16a2 2 0 0 0 2 2h12a2 2 0 0 0 2-2V8z"></path><polyline points="14 2 14 8 20 8"></polyline><line x1="12" y1="18" x2="12" y2="12"></line><line x1="9" y1="15" x2="15" y2="15"></line></symbol>
<symbol id="file-text" viewBox="0 0 24 24" fill="none" stroke="currentColor" stroke-width="2" stroke-linecap="round" stroke-linejoin="round"><path d="M14 2H6a2 2 0 0 0-2 2v16a2 2 0 0 0 2 2h12a2 2 0 0 0 2-2V8z"></path><polyline points="14 2 14 8 20 8"></polyline><line x1="16" y1="13" x2="8" y2="13"></line><line x1="16" y1="17" x2="8" y2="17"></line><polyline points="10 9 9 9 8 9"></polyline></symbol>
<symbol id="layers" viewBox="0 0 24 24" fill="none" stroke="currentColor" stroke-width="2" stroke-linecap="round" stroke-linejoin="round"><polygon points="12 2 2 7 12 12 22 7 12 2"></polygon><polyline points="2 17 12 22 22 17"></polyline><polyline points="2 12 12 17 22 12"></polyline></symbol>
<symbol id="pie-chart" viewBox="0 0 24 24" fill="none" stroke="currentColor" stroke-width="2" stroke-linecap="round" stroke-linejoin="round"><path d="M21.21 15.89A10 10 0 1 1 8 2.83"></path><path d="M22 12A10 10 0 0 0 12 2v10z"></path></symbol>
<symbol id="package" viewBox="0 0 24 24" fill="none" stroke="currentColor" stroke-width="2" stroke-linecap="round" stroke-linejoin="round"><path d="M11 21.73a2 2 0 0 0 2 0l7-4A2 2 0 0 0 21 16V8a2 2 0 0 0-1-1.73l-7-4a2 2 0 0 0-2 0l-7 4A2 2 0 0 0 3 8v8a2 2 0 0 0 1 1.73z"/><path d="M12 22V12"/><polyline points="3.29 7 12 12 20.71 7"/><path d="m7.5 4.27 9 5.15"/></symbol>
<symbol id="dollar-sign" viewBox="0 0 24 24" fill="none" stroke="currentColor" stroke-width="2" stroke-linecap="round" stroke-linejoin="round"><line x1="12" y1="1" x2="12" y2="23"></line><path d="M17 5H9.5a3.5 3.5 0 0 0 0 7h5a3.5 3.5 0 0 1 0 7H6"></path></symbol>
<symbol id="check" viewBox="0 0 24 24" fill="none" stroke="currentColor" stroke-width="2" stroke-linecap="round" stroke-linejoin="round"><path d="M20 6 9 17l-5-5" /></symbol>
<symbol id="card" viewBox="0 0 24 24" fill="none" stroke="currentColor" stroke-width="2" stroke-linecap="round" stroke-linejoin="round"><rect width="20" height="14" x="2" y="5" rx="2" /><line x1="2" x2="22" y1="10" y2="10" /></symbol>
<symbol id="circle-help" viewBox="0 0 24 24" fill="none" stroke="currentColor" stroke-width="2" stroke-linecap="round" stroke-linejoin="round"><circle cx="12" cy="12" r="10"/><path d="M9.09 9a3 3 0 0 1 5.83 1c0 2-3 3-3 3"/><path d="M12 17h.01"/></symbol>
<symbol id="wallet" viewBox="0 0 24 24" fill="none" stroke="currentColor" stroke-width="2" stroke-linecap="round" stroke-linejoin="round"><path d="M19 7V4a1 1 0 0 0-1-1H5a2 2 0 0 0 0 4h15a1 1 0 0 1 1 1v4h-3a2 2 0 0 0 0 4h3a1 1 0 0 0 1-1v-2a1 1 0 0 0-1-1"/><path d="M3 5v14a2 2 0 0 0 2 2h15a1 1 0 0 0 1-1v-4"/></symbol>
<symbol id="key" viewBox="0 0 24 24" fill="none" stroke="currentColor" stroke-width="2" stroke-linecap="round" stroke-linejoin="round"><path d="M21 2l-2 2m-7.61 7.61a5.5 5.5 0 1 1-7.778 7.778 5.5 5.5 0 0 1 7.777-7.777zm0 0L15.5 7.5m0 0l3 3L22 7l-3-3m-3.5 3.5L19 4" /></symbol>
<symbol id="credit-card" viewBox="0 0 24 24" fill="none" stroke="currentColor" stroke-width="2" stroke-linecap="round" stroke-linejoin="round"><rect x="1" y="4" width="22" height="16" rx="2" ry="2"></rect><line x1="1" y1="10" x2="23" y2="10"></line></symbol>
<symbol id="star" viewBox="0 0 24 24" fill="inherit" stroke="currentColor" stroke-width="2" stroke-linecap="round" stroke-linejoin="round"><polygon points="12 2 15.09 8.26 22 9.27 17 14.14 18.18 21.02 12 17.77 5.82 21.02 7 14.14 2 9.27 8.91 8.26 12 2"></polygon></symbol>
<symbol id="plug" viewBox="0 0 24 24" fill="none" stroke="currentColor" stroke-width="2" stroke-linecap="round" stroke-linejoin="round"><path d="M12 22v-5"></path><path d="M9 8V2"></path><path d="M15 8V2"></path><path d="M18 8v4a6 6 0 0 1-6 6v0a6 6 0 0 1-6-6V8"></path></symbol>
<symbol id="download-paper" viewBox="0 0 24 24" fill="none" stroke="currentColor" stroke-width="2" stroke-linecap="round" stroke-linejoin="round"><path d="M6 22a2 2 0 0 1-2-2V4a2 2 0 0 1 2-2h8a2.4 2.4 0 0 1 1.704.706l3.588 3.588A2.4 2.4 0 0 1 20 8v12a2 2 0 0 1-2 2z"/><path d="M14 2v5a1 1 0 0 0 1 1h5"/><path d="M12 18v-6"/><path d="m9 15 3 3 3-3"/></symbol>
<symbol id="arrow-up-right-2" viewBox="0 0 24 24" fill="none">
  <path d="M7 7H17V17" stroke="currentColor" stroke-width="2" stroke-linecap="round" stroke-linejoin="round" />
  <path d="M7 17L17 7" stroke="currentColor" stroke-width="2" stroke-linecap="round" stroke-linejoin="round" />
</symbol>
<symbol id="cliff-unlock" viewBox="0 0 24 24" fill="none" stroke="currentColor" stroke-width="2" stroke-linecap="round" stroke-linejoin="round">
	<path d="M 4 18 H 13 V 6 H 20"/>
</symbol>
<symbol id="linear-unlock" viewBox="0 0 24 24" fill="none" stroke="currentColor" stroke-width="2" stroke-linecap="round" stroke-linejoin="round">
	<path d="M 5 18 L 19 6 V 18 Z"/>
</symbol>
<symbol id="calendar-plus" viewBox="0 0 24 24" fill="none" stroke="currentColor" stroke-width="2" stroke-linecap="round" stroke-linejoin="round">
<path d="M16 19h6"></path><path d="M16 2v4"></path><path d="M19 16v6"></path><path d="M21 12.598V6a2 2 0 0 0-2-2H5a2 2 0 0 0-2 2v14a2 2 0 0 0 2 2h8.5"></path><path d="M3 10h18"></path><path d="M8 2v4"></path>
</symbol>
<symbol id="pencil" viewBox="0 0 24 24" fill="none" stroke="currentColor" stroke-width="2" stroke-linecap="round" stroke-linejoin="round"><path d="M21.174 6.812a1 1 0 0 0-3.986-3.987L3.842 16.174a2 2 0 0 0-.5.83l-1.321 4.352a.5.5 0 0 0 .623.622l4.353-1.32a2 2 0 0 0 .83-.497z"/><path d="m15 5 4 4"/></symbol>
<symbol id="sparkles" viewBox="0 0 12 12" fill="none">
  <g clip-path="url(#clip0_133_12595)">
    <path d="M4.9685 7.75C4.92386 7.57697 4.83367 7.41905 4.70731 7.29269C4.58095 7.16633 4.42304 7.07614 4.25 7.0315L1.1825 6.2405C1.13017 6.22565 1.08411 6.19413 1.05131 6.15072C1.01851 6.10732 1.00076 6.0544 1.00076 6C1.00076 5.9456 1.01851 5.89268 1.05131 5.84928C1.08411 5.80588 1.13017 5.77436 1.1825 5.7595L4.25 4.968C4.42298 4.92341 4.58085 4.83329 4.7072 4.70702C4.83356 4.58075 4.92378 4.42295 4.9685 4.25L5.7595 1.1825C5.7742 1.12996 5.80569 1.08367 5.84916 1.0507C5.89263 1.01773 5.94569 0.999878 6.00025 0.999878C6.05481 0.999878 6.10787 1.01773 6.15134 1.0507C6.19481 1.08367 6.2263 1.12996 6.241 1.1825L7.0315 4.25C7.07614 4.42304 7.16633 4.58095 7.29269 4.70731C7.41905 4.83367 7.57696 4.92386 7.75 4.9685L10.8175 5.759C10.8703 5.77355 10.9168 5.80501 10.9499 5.84854C10.9831 5.89207 11.001 5.94528 11.001 6C11.001 6.05472 10.9831 6.10793 10.9499 6.15146C10.9168 6.195 10.8703 6.22645 10.8175 6.241L7.75 7.0315C7.57696 7.07614 7.41905 7.16633 7.29269 7.29269C7.16633 7.41905 7.07614 7.57697 7.0315 7.75L6.2405 10.8175C6.2258 10.87 6.19431 10.9163 6.15084 10.9493C6.10737 10.9823 6.05431 11.0001 5.99975 11.0001C5.94519 11.0001 5.89213 10.9823 5.84866 10.9493C5.80519 10.9163 5.7737 10.87 5.759 10.8175L4.9685 7.75Z" stroke="currentColor" stroke-linecap="round" stroke-linejoin="round"/>
    <path d="M10 1.5V3.5" stroke="currentColor" stroke-linecap="round" stroke-linejoin="round"/>
    <path d="M11 2.5H9" stroke="currentColor" stroke-linecap="round" stroke-linejoin="round"/>
    <path d="M2 8.5V9.5" stroke="currentColor" stroke-linecap="round" stroke-linejoin="round"/>
    <path d="M2.5 9H1.5" stroke="currentColor" stroke-linecap="round" stroke-linejoin="round"/>
  </g>
  <defs>
    <clipPath id="clip0_133_12595">
      <rect width="12" height="12" fill="currentColor"/>
    </clipPath>
  </defs>
</symbol>
<symbol id="chat" viewBox="0 0 17 16" fill="none">
  <path d="M14.5 10C14.5 10.3536 14.3595 10.6928 14.1095 10.9428C13.8594 11.1929 13.5203 11.3333 13.1667 11.3333H5.16667L2.5 14V3.33333C2.5 2.97971 2.64048 2.64057 2.89052 2.39052C3.14057 2.14048 3.47971 2 3.83333 2H13.1667C13.5203 2 13.8594 2.14048 14.1095 2.39052C14.3595 2.64057 14.5 2.97971 14.5 3.33333V10Z" stroke="currentColor" stroke-width="2" stroke-linecap="round" stroke-linejoin="round"/>
  <path d="M8.5 4.66663V8.66663" stroke="currentColor" stroke-width="2" stroke-linecap="round" stroke-linejoin="round"/>
  <path d="M6.5 6.66663H10.5" stroke="currentColor" stroke-width="2" stroke-linecap="round" stroke-linejoin="round"/>
</symbol>
<symbol id="earth" viewBox="0 0 24 24" fill="none" stroke="currentColor" stroke-width="2" stroke-linecap="round" stroke-linejoin="round"><path d="M21.54 15H17a2 2 0 0 0-2 2v4.54"/><path d="M7 3.34V5a3 3 0 0 0 3 3a2 2 0 0 1 2 2c0 1.1.9 2 2 2a2 2 0 0 0 2-2c0-1.1.9-2 2-2h3.17"/><path d="M11 21.95V18a2 2 0 0 0-2-2a2 2 0 0 1-2-2v-1a2 2 0 0 0-2-2H2.05"/><circle cx="12" cy="12" r="10"/></symbol>
<symbol id="twitter" viewBox="0 0 12 12" fill="none">
  <path d="M6.95136 5.23471L10.6741 1.00256H9.79192L6.55948 4.67727L3.97773 1.00256H1L4.9041 6.55938L1 10.9974H1.88222L5.29576 7.11681L8.02227 10.9974H11L6.95114 5.23471H6.95136ZM5.74304 6.60833L5.34748 6.055L2.20009 1.65207H3.55512L6.0951 5.20538L6.49067 5.75871L9.79233 10.3775H8.4373L5.74304 6.60855V6.60833Z" fill="currentColor"/>
</symbol>
<symbol id="file-text" viewBox="0 0 24 24" fill="none" stroke="currentColor" stroke-width="2" stroke-linecap="round" stroke-linejoin="round"><path d="M15 2H6a2 2 0 0 0-2 2v16a2 2 0 0 0 2 2h12a2 2 0 0 0 2-2V7Z"/><path d="M14 2v4a2 2 0 0 0 2 2h4"/><path d="M10 9H8"/><path d="M16 13H8"/><path d="M16 17H8"/></symbol>
<symbol id="flame" viewBox="0 0 24 24" fill="none" stroke="currentColor" stroke-width="2" stroke-linecap="round" stroke-linejoin="round"><path d="M8.5 14.5A2.5 2.5 0 0 0 11 12c0-1.38-.5-2-1-3-1.072-2.143-.224-4.054 2-6 .5 2.5 2 4.9 4 6.5 2 1.6 3 3.5 3 5.5a7 7 0 1 1-14 0c0-1.153.433-2.294 1-3a2.5 2.5 0 0 0 2.5 2.5z"/></symbol>
<symbol id="house" viewBox="0 0 24 24" fill="none" stroke="currentColor" stroke-width="2" stroke-linecap="round" stroke-linejoin="round"><path d="M15 21v-8a1 1 0 0 0-1-1h-4a1 1 0 0 0-1 1v8"/><path d="M3 10a2 2 0 0 1 .709-1.528l7-5.999a2 2 0 0 1 2.582 0l7 5.999A2 2 0 0 1 21 10v9a2 2 0 0 1-2 2H5a2 2 0 0 1-2-2z"/></symbol>
<symbol id="pencil-ruler" viewBox="0 0 24 24" fill="none" stroke="currentColor" stroke-width="2" stroke-linecap="round" stroke-linejoin="round"><path d="M13 7 8.7 2.7a2.41 2.41 0 0 0-3.4 0L2.7 5.3a2.41 2.41 0 0 0 0 3.4L7 13"/><path d="m8 6 2-2"/><path d="m18 16 2-2"/><path d="m17 11 4.3 4.3c.94.94.94 2.46 0 3.4l-2.6 2.6c-.94.94-2.46.94-3.4 0L11 17"/><path d="M21.174 6.812a1 1 0 0 0-3.986-3.987L3.842 16.174a2 2 0 0 0-.5.83l-1.321 4.352a.5.5 0 0 0 .623.622l4.353-1.32a2 2 0 0 0 .83-.497z"/><path d="m15 5 4 4"/></symbol>
<symbol id="blocks" viewBox="0 0 24 24" fill="none" stroke="currentColor" stroke-width="2" stroke-linecap="round" stroke-linejoin="round"><path d="M10 22V7a1 1 0 0 0-1-1H4a2 2 0 0 0-2 2v12a2 2 0 0 0 2 2h12a2 2 0 0 0 2-2v-5a1 1 0 0 0-1-1H2"/><rect x="14" y="2" width="8" height="8" rx="1"/></symbol>
<symbol id="banknote" viewBox="0 0 24 24" fill="none" stroke="currentColor" stroke-width="2" stroke-linecap="round" stroke-linejoin="round" class="lucide lucide-banknote-icon lucide-banknote"><rect width="20" height="12" x="2" y="6" rx="2"/><circle cx="12" cy="12" r="2"/><path d="M6 12h.01M18 12h.01"/></symbol>
<symbol id="pin" viewBox="0 0 24 24" fill="var(--icon-fill)" stroke="currentColor" stroke-width="2" stroke-linecap="round" stroke-linejoin="round"><path d="M12 17v5"/><path d="M9 10.76a2 2 0 0 1-1.11 1.79l-1.78.9A2 2 0 0 0 5 15.24V16a1 1 0 0 0 1 1h12a1 1 0 0 0 1-1v-.76a2 2 0 0 0-1.11-1.79l-1.78-.9A2 2 0 0 1 15 10.76V7a1 1 0 0 1 1-1 2 2 0 0 0 0-4H8a2 2 0 0 0 0 4 1 1 0 0 1 1 1z"/></symbol>
<symbol id="chevrons-left" viewBox="0 0 24 24" fill="none" stroke="currentColor" stroke-width="2" stroke-linecap="round" stroke-linejoin="round"><path d="m11 17-5-5 5-5"/><path d="m18 17-5-5 5-5"/></symbol>
<symbol id="chevrons-right" viewBox="0 0 24 24" fill="none" stroke="currentColor" stroke-width="2" stroke-linecap="round" stroke-linejoin="round"><path d="m6 17 5-5-5-5"/><path d="m13 17 5-5-5-5"/></symbol>
<symbol id="tag" viewBox="0 0 24 24" fill="none" stroke="currentColor" stroke-width="2" stroke-linecap="round" stroke-linejoin="round"><path d="M12.586 2.586A2 2 0 0 0 11.172 2H4a2 2 0 0 0-2 2v7.172a2 2 0 0 0 .586 1.414l8.704 8.704a2.426 2.426 0 0 0 3.42 0l6.58-6.58a2.426 2.426 0 0 0 0-3.42z"/><circle cx="7.5" cy="7.5" r=".5" fill="currentColor"/></symbol>
<symbol id="file-lock-2" viewBox="0 0 24 24" fill="none" stroke="currentColor" stroke-width="2" stroke-linecap="round" stroke-linejoin="round"><path d="M4 22h14a2 2 0 0 0 2-2V7l-5-5H6a2 2 0 0 0-2 2v1"/><path d="M14 2v4a2 2 0 0 0 2 2h4"/><rect width="8" height="5" x="2" y="13" rx="1"/><path d="M8 13v-2a2 2 0 1 0-4 0v2"/></symbol>
<symbol id="arrow-up" viewBox="0 0 24 24" fill="none" stroke="currentColor" stroke-width="2" stroke-linecap="round" stroke-linejoin="round"><path d="m5 12 7-7 7 7"/><path d="M12 19V5"/></symbol>
<symbol id="message-square-plus" viewBox="0 0 24 24" fill="none" stroke="currentColor" stroke-width="2" stroke-linecap="round" stroke-linejoin="round"><path d="M21 15a2 2 0 0 1-2 2H7l-4 4V5a2 2 0 0 1 2-2h14a2 2 0 0 1 2 2z"/><path d="M12 7v6"/><path d="M9 10h6"/></symbol>
<symbol id="arrow-right-to-line" viewBox="0 0 24 24" fill="none" stroke="currentColor" stroke-width="2" stroke-linecap="round" stroke-linejoin="round"><path d="M17 12H3"/><path d="m11 18 6-6-6-6"/><path d="M21 5v14"/></symbol>
<symbol id="ellipsis" viewBox="0 0 24 24" fill="none" stroke="currentColor" stroke-width="2" stroke-linecap="round" stroke-linejoin="round"><circle cx="12" cy="12" r="1"/><circle cx="19" cy="12" r="1"/><circle cx="5" cy="12" r="1"/></symbol>
<symbol id="ethereum" viewBox="0 0 24 24">
  <path fill="#3C3C3B" d="M12 16.969v5.016l6.141 -8.672z"/>
  <path fill="#343434" d="m12 1.922 6.141 10.219 -6.141 3.656 -6.188 -3.656"/>
  <path fill="#8C8C8C" d="M12 1.922v7.406l-6.188 2.813m0 1.172 6.188 3.656v5.016"/>
  <path fill="#141414" d="M12 9.328v6.469l6.141 -3.656"/>
  <path fill="#393939" d="m5.813 12.141 6.188 -2.813v6.469"/>
</symbol>
<symbol id="thumbs-up" viewBox="0 0 24 24" fill="none" stroke="currentColor" stroke-width="2" stroke-linecap="round" stroke-linejoin="round"><path d="M7 10v12"/><path d="M15 5.88 14 10h5.83a2 2 0 0 1 1.92 2.56l-2.33 8A2 2 0 0 1 17.5 22H4a2 2 0 0 1-2-2v-8a2 2 0 0 1 2-2h2.76a2 2 0 0 0 1.79-1.11L12 2a3.13 3.13 0 0 1 3 3.88Z"/></symbol>
<symbol id="thumbs-down" viewBox="0 0 24 24" fill="none" stroke="currentColor" stroke-width="2" stroke-linecap="round" stroke-linejoin="round"><path d="M17 14V2"/><path d="M9 18.12 10 14H4.17a2 2 0 0 1-1.92-2.56l2.33-8A2 2 0 0 1 6.5 2H20a2 2 0 0 1 2 2v8a2 2 0 0 1-2 2h-2.76a2 2 0 0 0-1.79 1.11L12 22a3.13 3.13 0 0 1-3-3.88Z"/></symbol>
<symbol id="chain" viewBox="0 0 24 24" fill="none" stroke="currentColor" stroke-width="2" stroke-linecap="round" stroke-linejoin="round"><path d="M10 13a5 5 0 0 0 7.54.54l3-3a5 5 0 0 0-7.07-7.07l-1.72 1.71"/><path d="M14 11a5 5 0 0 0-7.54-.54l-3 3a5 5 0 0 0 7.07 7.07l1.71-1.71"/></symbol>
<symbol id="protocol" viewBox="0 0 24 24" fill="none" stroke="currentColor" stroke-width="2" stroke-linecap="round" stroke-linejoin="round"><rect x="2" y="3" width="20" height="14" rx="2" ry="2"/><line x1="8" y1="21" x2="16" y2="21"/><line x1="12" y1="17" x2="12" y2="21"/></symbol>
<symbol id="clipboard" viewBox="0 0 24 24" fill="none" stroke="currentColor" stroke-width="2" stroke-linecap="round" stroke-linejoin="round"><rect width="8" height="4" x="8" y="2" rx="1" ry="1"/><path d="M16 4h2a2 2 0 0 1 2 2v14a2 2 0 0 1-2 2H6a2 2 0 0 1-2-2V6a2 2 0 0 1 2-2h2"/></symbol>
<symbol id="message-square-warning" viewBox="0 0 24 24" fill="none" stroke="currentColor" stroke-width="2" stroke-linecap="round" stroke-linejoin="round"><path d="M22 17a2 2 0 0 1-2 2H6.828a2 2 0 0 0-1.414.586l-2.202 2.202A.71.71 0 0 1 2 21.286V5a2 2 0 0 1 2-2h16a2 2 0 0 1 2 2z"/><path d="M12 15h.01"/><path d="M12 7v4"/></symbol>
<symbol id="minus" viewBox="0 0 24 24" fill="none" stroke="currentColor" stroke-width="2" stroke-linecap="round" stroke-linejoin="round"><path d="M5 12h14"/></symbol>
<symbol id="layout-grid" viewBox="0 0 24 24" fill="none" stroke="currentColor" stroke-width="2" stroke-linecap="round" stroke-linejoin="round"><rect width="7" height="7" x="3" y="3" rx="1"/><rect width="7" height="7" x="14" y="3" rx="1"/><rect width="7" height="7" x="14" y="14" rx="1"/><rect width="7" height="7" x="3" y="14" rx="1"/></symbol>
<symbol id="arrow-down" viewBox="0 0 24 24" fill="none" stroke="currentColor" stroke-width="2" stroke-linecap="round" stroke-linejoin="round"><path d="M12 5v14"/><path d="m19 12-7 7-7-7"/></symbol>
<symbol id="user" viewBox="0 0 24 24" fill="none" stroke="currentColor" stroke-width="2" stroke-linecap="round" stroke-linejoin="round"><path d="M19 21v-2a4 4 0 0 0-4-4H9a4 4 0 0 0-4 4v2"/><circle cx="12" cy="7" r="4"/></symbol>
<symbol id="share" viewBox="0 0 24 24" fill="none" stroke="currentColor" stroke-width="2" stroke-linecap="round" stroke-linejoin="round"><path d="M12 2v13"/><path d="m16 6-4-4-4 4"/><path d="M4 12v8a2 2 0 0 0 2 2h12a2 2 0 0 0 2-2v-8"/></symbol>
<symbol id="pause" viewBox="0 0 24 24" fill="none" stroke="currentColor" stroke-width="2" stroke-linecap="round" stroke-linejoin="round">
    <path d="M10 4H5v16h5V4zm9 0h-5v16h5V4z" fill="#000000"/>
</symbol>
<symbol id="panel-left-close" viewBox="0 0 24 24" fill="none" stroke="currentColor" stroke-width="2" stroke-linecap="round" stroke-linejoin="round"><rect width="18" height="18" x="3" y="3" rx="2"/><path d="M9 3v18"/><path d="m16 15-3-3 3-3"/></symbol>
<symbol id="panel-left-open" viewBox="0 0 24 24" fill="none" stroke="currentColor" stroke-width="2" stroke-linecap="round" stroke-linejoin="round"><rect width="18" height="18" x="3" y="3" rx="2"/><path d="M9 3v18"/><path d="m14 9 3 3-3 3"/></symbol>
<symbol id="globe" viewBox="0 0 24 24" fill="none" stroke="currentColor" stroke-width="2" stroke-linecap="round" stroke-linejoin="round"><circle cx="12" cy="12" r="10"/><path d="M12 2a14.5 14.5 0 0 0 0 20 14.5 14.5 0 0 0 0-20"/><path d="M2 12h20"/></symbol>
<symbol id="headset" viewBox="0 0 24 24" fill="none" stroke="currentColor" stroke-width="2" stroke-linecap="round" stroke-linejoin="round"><path d="M3 11h3a2 2 0 0 1 2 2v3a2 2 0 0 1-2 2H5a2 2 0 0 1-2-2v-5Zm0 0a9 9 0 1 1 18 0m0 0v5a2 2 0 0 1-2 2h-1a2 2 0 0 1-2-2v-3a2 2 0 0 1 2-2h3Z"/><path d="M21 16v2a4 4 0 0 1-4 4h-5"/></symbol>
<symbol id="sheets" viewBox="0 0 24 24" fill="none" stroke="currentColor" stroke-width="2" stroke-linecap="round" stroke-linejoin="round"><rect width="18" height="18" x="3" y="3" rx="2" ry="2"/><line x1="3" x2="21" y1="9" y2="9"/><line x1="3" x2="21" y1="15" y2="15"/><line x1="9" x2="9" y1="9" y2="21"/><line x1="15" x2="15" y1="9" y2="21"/></symbol>
<symbol id="eye-off" viewBox="0 0 24 24" fill="none" stroke="currentColor" stroke-width="2" stroke-linecap="round" stroke-linejoin="round"><path d="M10.733 5.076a10.744 10.744 0 0 1 11.205 6.575 1 1 0 0 1 0 .696 10.747 10.747 0 0 1-1.444 2.49"/><path d="M14.084 14.158a3 3 0 0 1-4.242-4.242"/><path d="M17.479 17.499a10.75 10.75 0 0 1-15.417-5.151 1 1 0 0 1 0-.696 10.75 10.75 0 0 1 4.446-5.143"/><path d="m2 2 20 20"/></symbol>
<symbol id="image-plus" viewBox="0 0 16 16" fill="none">
  <g clip-path="url(#clip0_2786_6953)">
    <path d="M14.6673 8.00016C14.6673 11.1429 14.6673 12.7142 13.691 13.6905C12.7147 14.6668 11.1433 14.6668 8.00065 14.6668C4.85795 14.6668 3.28661 14.6668 2.3103 13.6905C1.33398 12.7142 1.33398 11.1429 1.33398 8.00016C1.33398 4.85747 1.33398 3.28612 2.3103 2.30981C3.28661 1.3335 4.85795 1.3335 8.00065 1.3335" stroke="currentColor" stroke-linecap="round"/>
    <path d="M1.33398 8.33326L2.50171 7.31151C3.10922 6.77994 4.02484 6.81043 4.59564 7.38124L7.45546 10.2411C7.91361 10.6992 8.63481 10.7617 9.16492 10.3891L9.36372 10.2494C10.1265 9.71331 11.1586 9.77542 11.8516 10.3991L14.0007 12.3333" stroke="currentColor" stroke-linecap="round"/>
    <path d="M10 3.66683H12.3333M12.3333 3.66683H14.6667M12.3333 3.66683V6.00016M12.3333 3.66683V1.3335" stroke="currentColor" stroke-linecap="round"/>
  </g>
  <defs>
    <clipPath id="clip0_2786_6953">
      <rect width="16" height="16" fill="currentColor"/>
    </clipPath>
  </defs>
</symbol>
<symbol id="graduation-cap" viewBox="0 0 24 24" fill="none" stroke="currentColor" stroke-width="2" stroke-linecap="round" stroke-linejoin="round"><path d="M21.42 10.922a1 1 0 0 0-.019-1.838L12.83 5.18a2 2 0 0 0-1.66 0L2.6 9.08a1 1 0 0 0 0 1.832l8.57 3.908a2 2 0 0 0 1.66 0z"/><path d="M22 10v6"/><path d="M6 12.5V16a6 3 0 0 0 12 0v-3.5"/></symbol>
<symbol id="circle-x" viewBox="0 0 24 24" fill="none" stroke="currentColor" stroke-width="2" stroke-linecap="round" stroke-linejoin="round"><circle cx="12" cy="12" r="10"/><path d="m15 9-6 6"/><path d="m9 9 6 6"/></symbol>
<symbol id="landmark" viewBox="0 0 24 24" fill="none" stroke="currentColor" stroke-width="2" stroke-linecap="round" stroke-linejoin="round"><path d="M10 18v-7"/><path d="M11.12 2.198a2 2 0 0 1 1.76.006l7.866 3.847c.476.233.31.949-.22.949H3.474c-.53 0-.695-.716-.22-.949z"/><path d="M14 18v-7"/><path d="M18 18v-7"/><path d="M3 22h18"/><path d="M6 18v-7"/></symbol>
<symbol id="expand" viewBox="0 0 24 24" fill="none" stroke="currentColor" stroke-width="2" stroke-linecap="round" stroke-linejoin="round"><path d="m15 15 6 6"/><path d="m15 9 6-6"/><path d="M21 16v5h-5"/><path d="M21 8V3h-5"/><path d="M3 16v5h5"/><path d="m3 21 6-6"/><path d="M3 8V3h5"/><path d="M9 9 3 3"/></symbol>
<symbol id="shrink" viewBox="0 0 24 24" fill="none" stroke="currentColor" stroke-width="2" stroke-linecap="round" stroke-linejoin="round"><path d="m15 15 6 6m-6-6v4.8m0-4.8h4.8"/><path d="M9 19.8V15m0 0H4.2M9 15l-6 6"/><path d="M15 4.2V9m0 0h4.8M15 9l6-6"/><path d="M9 4.2V9m0 0H4.2M9 9 3 3"/></symbol>
<symbol id="key-filled" viewBox="0 0 24 24" fill="none"><path d="M18.9771 5.02291L19.5074 4.49258V4.49258L18.9771 5.02291ZM18.9771 14.7904L19.5074 15.3207V15.3207L18.9771 14.7904ZM7.14558 12.6684L6.61525 12.138L6.61525 12.138L7.14558 12.6684ZM3.43349 16.3804L3.96382 16.9108L3.96382 16.9108L3.43349 16.3804ZM7.61956 20.5665L7.08923 20.0362L7.08923 20.0362L7.61956 20.5665ZM11.3319 16.8541L10.8016 16.3238V16.3238L11.3319 16.8541ZM3.00906 17.5904L2.26365 17.6732V17.6732L3.00906 17.5904ZM3.24113 19.679L2.49572 19.7618L2.49572 19.7618L3.24113 19.679ZM4.32101 20.7589L4.23819 21.5043H4.23819L4.32101 20.7589ZM6.4096 20.9909L6.49242 20.2455H6.49242L6.4096 20.9909ZM3.52408 20.2677L4.05441 19.7374L4.05441 19.7374L3.52408 20.2677ZM3.73229 20.4759L3.20196 21.0062L3.20196 21.0063L3.73229 20.4759ZM7.40432 11.6311L6.67789 11.8177H6.67789L7.40432 11.6311ZM12.3689 16.5957L12.1823 17.3221V17.3221L12.3689 16.5957ZM7.63832 17.063C7.34382 16.7717 6.86895 16.7743 6.57767 17.0688C6.2864 17.3633 6.28901 17.8382 6.58351 18.1294L7.11091 17.5962L7.63832 17.063ZM12.5858 11.4142L13.1161 10.8839C12.628 10.3957 12.628 9.60427 13.1161 9.11612L12.5858 8.58579L12.0555 8.05546C10.9815 9.1294 10.9815 10.8706 12.0555 11.9445L12.5858 11.4142ZM15.4142 11.4142L14.8839 10.8839C14.3957 11.372 13.6043 11.372 13.1161 10.8839L12.5858 11.4142L12.0555 11.9445C13.1294 13.0185 14.8706 13.0185 15.9445 11.9445L15.4142 11.4142ZM15.4142 8.58579L14.8839 9.11612C15.372 9.60427 15.372 10.3957 14.8839 10.8839L15.4142 11.4142L15.9445 11.9445C17.0185 10.8706 17.0185 9.1294 15.9445 8.05546L15.4142 8.58579ZM15.4142 8.58579L15.9445 8.05546C14.8706 6.98151 13.1294 6.98151 12.0555 8.05546L12.5858 8.58579L13.1161 9.11612C13.6043 8.62796 14.3957 8.62796 14.8839 9.11612L15.4142 8.58579ZM18.9771 5.02291L18.4468 5.55324C20.8511 7.95756 20.8511 11.8557 18.4468 14.2601L18.9771 14.7904L19.5074 15.3207C22.4975 12.3306 22.4975 7.48269 19.5074 4.49258L18.9771 5.02291ZM18.9771 5.02291L19.5074 4.49258C16.5173 1.50247 11.6694 1.50247 8.67928 4.49258L9.20961 5.02291L9.73994 5.55324C12.1443 3.14892 16.0424 3.14892 18.4468 5.55324L18.9771 5.02291ZM7.14558 12.6684L6.61525 12.138L2.90316 15.8501L3.43349 16.3804L3.96382 16.9108L7.67591 13.1987L7.14558 12.6684ZM7.61956 20.5665L8.14989 21.0968L9.39029 19.8564L8.85996 19.3261L8.32963 18.7958L7.08923 20.0362L7.61956 20.5665ZM8.85996 19.3261L9.39029 19.8564L11.8623 17.3845L11.3319 16.8541L10.8016 16.3238L8.32963 18.7958L8.85996 19.3261ZM3.00906 17.5904L2.26365 17.6732L2.49572 19.7618L3.24113 19.679L3.98654 19.5962L3.75447 17.5076L3.00906 17.5904ZM4.32101 20.7589L4.23819 21.5043L6.32678 21.7364L6.4096 20.9909L6.49242 20.2455L4.40384 20.0135L4.32101 20.7589ZM3.52408 20.2677L2.99375 20.798L3.20196 21.0062L3.73229 20.4759L4.26263 19.9456L4.05441 19.7374L3.52408 20.2677ZM4.32101 20.7589L4.40384 20.0135C4.35042 20.0075 4.30062 19.9836 4.26262 19.9456L3.73229 20.4759L3.20196 21.0063C3.48081 21.2851 3.84626 21.4607 4.23819 21.5043L4.32101 20.7589ZM3.24113 19.679L2.49572 19.7618C2.53926 20.1537 2.7149 20.5192 2.99375 20.798L3.52408 20.2677L4.05441 19.7374C4.01641 19.6994 3.99248 19.6496 3.98654 19.5962L3.24113 19.679ZM7.61956 20.5665L7.08923 20.0362C6.93242 20.193 6.71283 20.27 6.49242 20.2455L6.4096 20.9909L6.32678 21.7364C7.00007 21.8112 7.67087 21.5759 8.14989 21.0968L7.61956 20.5665ZM3.43349 16.3804L2.90316 15.8501C2.42414 16.3291 2.18884 16.9999 2.26365 17.6732L3.00906 17.5904L3.75447 17.5076C3.72999 17.2872 3.80701 17.0676 3.96382 16.9108L3.43349 16.3804ZM7.40432 11.6311L8.13075 11.4446C7.60655 9.4033 8.14412 7.14906 9.73994 5.55324L9.20961 5.02291L8.67928 4.49258C6.69321 6.47865 6.02725 9.28401 6.67789 11.8177L7.40432 11.6311ZM18.9771 14.7904L18.4468 14.2601C16.8509 15.8559 14.5967 16.3934 12.5554 15.8693L12.3689 16.5957L12.1823 17.3221C14.716 17.9728 17.5214 17.3068 19.5074 15.3207L18.9771 14.7904ZM11.3319 16.8541L11.8623 17.3845C11.9181 17.3287 12.0324 17.2836 12.1823 17.3221L12.3689 16.5957L12.5554 15.8693C11.9675 15.7183 11.2845 15.8409 10.8016 16.3238L11.3319 16.8541ZM7.14558 12.6684L7.67591 13.1987C8.15857 12.716 8.28182 12.0329 8.13075 11.4446L7.40432 11.6311L6.67789 11.8177C6.7163 11.9672 6.67127 12.082 6.61525 12.138L7.14558 12.6684ZM8.85996 19.3261L9.38736 18.7929L7.63832 17.063L7.11091 17.5962L6.58351 18.1294L8.33255 19.8593L8.85996 19.3261Z" fill="currentColor"/></symbol>
<symbol id="alert-warning" viewBox="0 0 24 24" fill="none"><g transform="scale(0.857143)"><path d="M6.19667 12.5551C9.60143 6.51836 11.3038 3.5 13.9997 3.5C16.6955 3.5 18.3979 6.51836 21.8027 12.5551L22.2269 13.3073C25.0563 18.3238 26.4709 20.832 25.1924 22.666C23.9138 24.5 20.7505 24.5 14.4239 24.5H13.5754C7.24883 24.5 4.08554 24.5 2.80697 22.666C1.52841 20.832 2.94307 18.3238 5.7724 13.3073L6.19667 12.5551Z" stroke="currentColor" stroke-width="1.5"/><path d="M14 9.33301V15.1663" stroke="currentColor" stroke-width="1.5" stroke-linecap="round"/><circle cx="13.9997" cy="18.6667" r="0.666667" fill="currentColor" stroke="currentColor"/></g></symbol>
<symbol id="sign-out" viewBox="0 0 24 24" fill="none"><g transform="scale(1.5)"><path d="M6 4.66732C6.00807 3.2173 6.07237 2.43203 6.58463 1.91977C7.17041 1.33398 8.11322 1.33398 9.99884 1.33398L10.6655 1.33398C12.5511 1.33398 13.4939 1.33398 14.0797 1.91977C14.6655 2.50556 14.6655 3.44837 14.6655 5.33398L14.6655 10.6673C14.6655 12.5529 14.6655 13.4957 14.0797 14.0815C13.4939 14.6673 12.5511 14.6673 10.6655 14.6673L9.99884 14.6673C8.11322 14.6673 7.17041 14.6673 6.58463 14.0815C6.07237 13.5693 6.00807 12.784 6 11.334" stroke="currentColor" stroke-linecap="round"/><path d="M10 8L1.33333 8M1.33333 8L3.66667 6M1.33333 8L3.66667 10" stroke="currentColor" stroke-linecap="round" stroke-linejoin="round"/></g></symbol>
<symbol id="gear-settings" viewBox="0 0 24 24" fill="none"><g transform="scale(0.857143)"><circle cx="14" cy="14" r="3.5" stroke="currentColor" stroke-width="1.5"/><path d="M16.0592 2.5116C15.6304 2.33398 15.0868 2.33398 13.9996 2.33398C12.9124 2.33398 12.3688 2.33398 11.94 2.5116C11.3683 2.74842 10.914 3.20266 10.6772 3.77439C10.5691 4.03538 10.5268 4.3389 10.5102 4.78164C10.4859 5.43228 10.1522 6.03453 9.58836 6.36007C9.0245 6.68561 8.33611 6.67345 7.76049 6.3692C7.36878 6.16217 7.08477 6.04704 6.80468 6.01017C6.19114 5.9294 5.57064 6.09566 5.07968 6.47238C4.71146 6.75493 4.43966 7.2257 3.89606 8.16724C3.35247 9.10878 3.08067 9.57955 3.02009 10.0397C2.93931 10.6533 3.10557 11.2738 3.4823 11.7647C3.65425 11.9888 3.89591 12.1772 4.27098 12.4128C4.82236 12.7593 5.17713 13.3495 5.1771 14.0007C5.17706 14.6518 4.8223 15.2419 4.27097 15.5883C3.89585 15.824 3.65415 16.0124 3.48218 16.2365C3.10546 16.7275 2.9392 17.348 3.01997 17.9615C3.08055 18.4217 3.35235 18.8924 3.89595 19.834C4.43955 20.7755 4.71135 21.2463 5.07957 21.5288C5.57052 21.9056 6.19103 22.0718 6.80457 21.9911C7.08464 21.9542 7.36863 21.8391 7.76031 21.6321C8.33598 21.3278 9.02441 21.3156 9.58831 21.6412C10.1522 21.9668 10.4859 22.569 10.5102 23.2197C10.5268 23.6624 10.5691 23.9659 10.6772 24.2269C10.914 24.7986 11.3683 25.2529 11.94 25.4897C12.3688 25.6673 12.9124 25.6673 13.9996 25.6673C15.0868 25.6673 15.6304 25.6673 16.0592 25.4897C16.6309 25.2529 17.0851 24.7986 17.322 24.2269C17.4301 23.9659 17.4724 23.6624 17.4889 23.2196C17.5133 22.569 17.8469 21.9668 18.4107 21.6412C18.9746 21.3156 19.6631 21.3277 20.2388 21.632C20.6304 21.839 20.9144 21.9541 21.1945 21.991C21.808 22.0717 22.4285 21.9055 22.9195 21.5288C23.2877 21.2462 23.5595 20.7754 24.1031 19.8339C24.6467 18.8924 24.9185 18.4216 24.9791 17.9614C25.0598 17.3479 24.8936 16.7274 24.5169 16.2364C24.3449 16.0123 24.1032 15.8239 23.7281 15.5883C23.1768 15.2418 22.822 14.6517 22.8221 14.0005C22.8221 13.3495 23.1768 12.7594 23.7281 12.413C24.1033 12.1773 24.345 11.9889 24.517 11.7648C24.8937 11.2738 25.06 10.6533 24.9792 10.0398C24.9186 9.57963 24.6468 9.10886 24.1032 8.16732C23.5596 7.22578 23.2878 6.75501 22.9196 6.47246C22.4286 6.09574 21.8081 5.92948 21.1946 6.01025C20.9145 6.04712 20.6305 6.16223 20.2389 6.36925C19.6632 6.67351 18.9747 6.68567 18.4108 6.36011C17.847 6.03454 17.5133 5.43226 17.4889 4.78158C17.4724 4.33887 17.4301 4.03537 17.322 3.77439C17.0851 3.20266 16.6309 2.74842 16.0592 2.5116Z" stroke="currentColor" stroke-width="1.5"/></g></symbol>
<symbol id="mail-rounded" viewBox="0 0 24 24" fill="none"><g transform="scale(1.2)"><path d="M1.66797 10.0007C1.66797 6.85795 1.66797 5.28661 2.64428 4.3103C3.62059 3.33398 5.19194 3.33398 8.33464 3.33398H11.668C14.8107 3.33398 16.382 3.33398 17.3583 4.3103C18.3346 5.28661 18.3346 6.85795 18.3346 10.0007C18.3346 13.1433 18.3346 14.7147 17.3583 15.691C16.382 16.6673 14.8107 16.6673 11.668 16.6673H8.33463C5.19194 16.6673 3.62059 16.6673 2.64428 15.691C1.66797 14.7147 1.66797 13.1433 1.66797 10.0007Z" stroke="currentColor" stroke-width="1.25"/><path d="M5 6.66602L6.79908 8.16525C8.32961 9.44069 9.09488 10.0784 10 10.0784C10.9051 10.0784 11.6704 9.44069 13.2009 8.16525L15 6.66602" stroke="currentColor" stroke-width="1.25" stroke-linecap="round"/></g></symbol>
<symbol id="receipt" viewBox="0 0 24 24" fill="none"><g transform="scale(0.857143)"><path d="M25.668 7.00065V9.82398C25.668 11.6673 24.5013 12.834 22.658 12.834H18.668V4.67898C18.668 3.38398 19.7296 2.33398 21.0246 2.33398C22.2963 2.34565 23.463 2.85898 24.303 3.69898C25.143 4.55065 25.668 5.71732 25.668 7.00065Z" stroke="currentColor" stroke-width="1.5" stroke-miterlimit="10" stroke-linecap="round" stroke-linejoin="round"/><path d="M2.33203 8.16732V24.5007C2.33203 25.469 3.42867 26.0173 4.19867 25.434L6.1937 23.9407C6.66036 23.5907 7.3137 23.6373 7.7337 24.0573L9.67034 26.0057C10.1253 26.4607 10.8721 26.4607 11.3271 26.0057L13.287 24.0457C13.6954 23.6373 14.3487 23.5907 14.8037 23.9407L16.7987 25.434C17.5687 26.0056 18.6654 25.4573 18.6654 24.5007V4.66732C18.6654 3.38398 19.7154 2.33398 20.9987 2.33398H8.16536H6.9987C3.4987 2.33398 2.33203 4.42232 2.33203 7.00065V8.16732Z" stroke="currentColor" stroke-width="1.5" stroke-miterlimit="10" stroke-linecap="round" stroke-linejoin="round"/><path d="M7 10.5H14" stroke="currentColor" stroke-width="1.5" stroke-linecap="round" stroke-linejoin="round"/><path d="M7.875 15.166H13.125" stroke="currentColor" stroke-width="1.5" stroke-linecap="round" stroke-linejoin="round"/></g></symbol>
<symbol id="circle-external-link" viewBox="0 0 24 24" fill="none"><g transform="scale(1.5)"><circle cx="7.9987" cy="8.00065" r="6.66667" stroke="currentColor"/><path d="M6 10L10 6M10 6H7M10 6V9" stroke="currentColor" stroke-linecap="round" stroke-linejoin="round"/></g></symbol>
<symbol id="cli" viewBox="0 0 24 24" fill="none"><g transform="scale(0.857143)"><path d="M2.33203 14.0007C2.33203 8.50093 2.33203 5.75107 4.04058 4.04253C5.74912 2.33398 8.49898 2.33398 13.9987 2.33398C19.4984 2.33398 22.2483 2.33398 23.9568 4.04253C25.6654 5.75107 25.6654 8.50093 25.6654 14.0007C25.6654 19.5004 25.6654 22.2502 23.9568 23.9588C22.2483 25.6673 19.4984 25.6673 13.9987 25.6673C8.49898 25.6673 5.74912 25.6673 4.04058 23.9588C2.33203 22.2502 2.33203 19.5004 2.33203 14.0007Z" stroke="currentColor" stroke-width="1.5"/><path d="M19.832 17.5H16.9154H13.9987" stroke="currentColor" stroke-width="1.5" stroke-linecap="round"/><path d="M8.16797 11.666L8.44144 11.8939C9.93673 13.14 10.6844 13.763 10.6844 14.5827C10.6844 15.4023 9.93673 16.0254 8.44144 17.2715L8.16797 17.4993" stroke="currentColor" stroke-width="1.5" stroke-linecap="round"/></g></symbol>
<symbol id="checkmark" viewBox="0 0 24 24" fill="none">
  <g transform="scale(1.2)">
    <path
      d="M4.16675 10.834L7.50008 14.1673L15.8334 5.83398"
      stroke="currentColor"
      stroke-width="1.25"
      stroke-linecap="round"
      stroke-linejoin="round"
    />
  </g>
</symbol>
<symbol id="box" viewBox="0 0 24 24" fill="none"><path d="M15.5777 3.38197L17.5777 4.43152C19.7294 5.56066 20.8052 6.12523 21.4026 7.13974C22 8.15425 22 9.41667 22 11.9415V12.0585C22 14.5833 22 15.8458 21.4026 16.8603C20.8052 17.8748 19.7294 18.4393 17.5777 19.5685L15.5777 20.618C13.8221 21.5393 12.9443 22 12 22C11.0557 22 10.1779 21.5393 8.42229 20.618L6.42229 19.5685C4.27063 18.4393 3.19479 17.8748 2.5974 16.8603C2 15.8458 2 14.5833 2 12.0585V11.9415C2 9.41667 2 8.15425 2.5974 7.13974C3.19479 6.12523 4.27063 5.56066 6.42229 4.43152L8.42229 3.38197C10.1779 2.46066 11.0557 2 12 2C12.9443 2 13.8221 2.46066 15.5777 3.38197Z" stroke="currentColor" stroke-width="1.5" stroke-linecap="round"/><path d="M21 7.5L17 9.5M12 12L3 7.5M12 12V21.5M12 12C12 12 14.7426 10.6287 16.5 9.75C16.6953 9.65237 17 9.5 17 9.5M17 9.5V13M17 9.5L7.5 4.5" stroke="currentColor" stroke-width="1.5" stroke-linecap="round"/></symbol>
</defs>
</svg>
