<?xml version="1.0" encoding="UTF-8"?>
<svg xmlns="http://www.w3.org/2000/svg" xmlns:xlink="http://www.w3.org/1999/xlink" width="0" height="0">
<defs>
<symbol id="defillama-research-logo" viewBox="67 47 995 343" fill="none" xmlns="http://www.w3.org/2000/svg">
<path fill-rule="evenodd" clip-rule="evenodd" d="M110.769 226.13C108.359 227.902 105.257 228.345 102.462 227.381L94.3078 224.542C91.0514 223.421 89.3078 219.827 90.4104 216.519C91.0258 214.669 92.4617 213.211 94.3078 212.559L102.462 209.72C107.257 208.053 112.487 210.658 114.128 215.529C115.436 219.436 114.077 223.734 110.769 226.13Z" fill="#0DFF81"/>
<path fill-rule="evenodd" clip-rule="evenodd" d="M108.976 295.602C107.669 293.283 108.284 290.34 110.412 288.777L129.413 274.867C132.772 272.393 137.464 273.174 139.9 276.587C140.053 276.795 140.182 277.003 140.31 277.238C142.387 280.885 141.156 285.521 137.566 287.631C137.335 287.761 137.105 287.891 136.874 287.996L115.515 297.764C113.105 298.858 110.284 297.92 108.976 295.602Z" fill="white"/>
<path fill-rule="evenodd" clip-rule="evenodd" d="M140.31 162.522C139.233 164.371 137.438 165.674 135.387 166.142C133.31 166.611 131.13 166.142 129.412 164.892L110.412 150.956C108.13 149.263 107.617 146.007 109.284 143.689C110.72 141.683 113.335 140.98 115.54 141.996L136.899 151.738C140.669 153.457 142.387 157.937 140.694 161.792C140.592 162.027 140.464 162.287 140.335 162.496" fill="white"/>
<path d="M159.538 324.515L157.385 389.4H97.3846C80.6155 389.4 67 375.569 67 358.534V344.728C98.923 344.78 130.461 337.878 159.538 324.515Z" fill="url(#paint0_linear_11_93)"/>
<path fill-rule="evenodd" clip-rule="evenodd" d="M321.101 295.601C319.793 297.919 316.972 298.857 314.563 297.763L293.203 287.995C289.434 286.302 287.742 281.821 289.408 277.992C289.511 277.732 289.639 277.471 289.793 277.237C291.844 273.59 296.434 272.34 300.024 274.45C300.255 274.58 300.46 274.71 300.665 274.866L319.665 288.776C321.793 290.339 322.408 293.282 321.101 295.601Z" fill="white"/>
<path fill-rule="evenodd" clip-rule="evenodd" d="M319.668 150.984L300.668 164.92C297.284 167.368 292.566 166.561 290.156 163.122C290.027 162.94 289.899 162.758 289.797 162.549C287.72 158.929 288.899 154.292 292.463 152.182C292.694 152.052 292.95 151.922 293.207 151.792L314.566 142.05C317.155 140.878 320.181 142.05 321.36 144.654C322.36 146.895 321.668 149.551 319.694 151.01" fill="white"/>
<path fill-rule="evenodd" clip-rule="evenodd" d="M342.567 218.552C342.567 221.261 340.874 223.683 338.362 224.543L330.182 227.382C325.387 229.049 320.156 226.418 318.541 221.547C316.9 216.676 319.49 211.362 324.285 209.721C326.208 209.07 328.285 209.07 330.182 209.721L338.362 212.561C340.874 213.446 342.567 215.843 342.567 218.552Z" fill="#B3D2FF"/>
<path d="M140.949 156.402C141.564 158.459 141.334 160.673 140.308 162.549C139.231 164.398 137.436 165.701 135.385 166.17C133.308 166.638 131.128 166.17 129.411 164.919L110.411 150.984C108.128 149.291 107.616 146.035 109.282 143.716C110.718 141.711 113.334 141.007 115.539 142.023L136.898 151.765C138.821 152.651 140.308 154.344 140.949 156.402ZM140.949 283.411C140.282 285.469 138.821 287.136 136.872 288.022L115.513 297.79C112.949 299.04 109.898 297.946 108.667 295.341C107.564 293.023 108.308 290.262 110.385 288.803L129.385 274.894C132.744 272.419 137.436 273.2 139.872 276.613C140.026 276.821 140.154 277.029 140.282 277.264C141.308 279.139 141.539 281.353 140.923 283.411M102.462 227.408L94.308 224.569C91.0515 223.449 89.308 219.854 90.4105 216.546C91.0259 214.697 92.4618 213.238 94.308 212.587L102.462 209.748C107.257 208.081 112.487 210.711 114.103 215.582C115.718 220.453 113.154 225.767 108.359 227.408C106.436 228.059 104.359 228.059 102.462 227.408ZM197.052 47.0003H149.923C149.923 93.5219 112.795 131.239 67.0003 131.265V344.727C98.9233 344.78 130.462 337.877 159.539 324.514L163.205 214.176C156.718 210.92 152.077 202.272 152.077 192.165C152.077 180.782 157.923 171.327 165.641 169.191C166.693 162.341 169.077 155.776 172.667 149.864C169.257 149.447 166.205 147.441 164.436 144.446C157.462 134.026 148.052 123.347 140.847 106.077C139.488 103.055 139.872 99.513 141.821 96.83C143.334 94.8243 146.154 94.4597 148.103 95.9704C148.308 96.1267 148.487 96.3091 148.667 96.4914C159.821 107.223 173.231 110.427 180.641 120.716C181.18 119.44 181.898 118.241 182.769 117.173C187.077 111.495 194.616 109.489 201.128 112.276C203.616 103.733 212.462 98.8618 220.846 101.388C226 102.951 230.026 107.041 231.564 112.276C234.923 110.74 238.744 110.557 242.231 111.755C250.821 95.1369 261.41 79.6905 273.769 65.7288C250.026 53.3821 223.744 46.9482 197.052 47.0003Z" fill="url(#paint1_linear_11_93)"/>
<path fill-rule="evenodd" clip-rule="evenodd" d="M110.769 226.13C108.359 227.902 105.257 228.345 102.462 227.381L94.3078 224.542C91.0514 223.421 89.3078 219.827 90.4104 216.519C91.0258 214.669 92.4617 213.211 94.3078 212.559L102.462 209.72C107.257 208.053 112.487 210.658 114.128 215.529C115.436 219.436 114.077 223.734 110.769 226.13Z" fill="#B3D2FF"/>
<path d="M338.358 224.543L330.179 227.382C325.384 229.049 320.153 226.418 318.538 221.547C316.897 216.676 319.486 211.363 324.281 209.722C326.204 209.07 328.281 209.07 330.179 209.722L338.358 212.561C341.615 213.681 343.358 217.275 342.256 220.583C341.64 222.433 340.204 223.892 338.358 224.543ZM321.102 295.601C319.794 297.92 316.974 298.857 314.564 297.763L293.205 287.995C289.435 286.302 287.743 281.822 289.409 277.993C289.512 277.733 289.64 277.472 289.794 277.238C291.846 273.591 296.435 272.341 300.025 274.451C300.256 274.581 300.461 274.711 300.666 274.867L319.666 288.777C321.794 290.34 322.409 293.283 321.102 295.601ZM289.128 156.401C289.794 154.344 291.256 152.677 293.205 151.791L314.564 142.049C317.153 140.877 320.179 142.049 321.358 144.654C322.358 146.894 321.666 149.551 319.691 151.01L300.692 164.945C297.307 167.394 292.589 166.586 290.179 163.148C290.051 162.966 289.923 162.783 289.82 162.575C288.743 160.699 288.487 158.459 289.128 156.401ZM288.281 74.2463C283.589 71.1728 278.769 68.3336 273.769 65.7288C261.41 79.6903 250.82 95.1367 242.23 111.755C245.256 112.745 247.948 114.621 249.923 117.173C250.769 118.267 251.487 119.439 252.051 120.716C258.999 111.052 271.23 108.864 281.948 98.4969C284.102 96.2308 287.538 95.8921 290.076 97.6894C290.64 98.0541 291.102 98.549 291.487 99.096C292.923 100.945 293.205 103.472 292.23 105.608L291.923 106.337C284.743 123.268 275.384 134.052 268.461 144.445C266.64 147.467 263.563 149.473 260.102 149.863C263.666 155.776 265.999 162.34 266.999 169.191C273.948 171.118 279.358 178.933 280.384 188.779C280.512 189.899 280.564 191.045 280.564 192.165C280.564 201.673 276.461 209.904 270.538 213.525C270.179 213.785 269.82 213.993 269.435 214.176V215.817L274.564 370.176C330.409 340.742 365.461 282.135 365.461 218.213C365.512 160.022 336.435 105.764 288.281 74.2463Z" fill="url(#paint2_linear_11_93)"/>
<path d="M248.362 208.498C250.233 211.936 250.028 216.156 247.797 219.36C240.489 230.196 230.259 238.427 217.233 238.427H214.464C203.207 237.437 191.387 229.961 184.079 220.975C181.387 217.615 181.003 212.926 183.131 209.175C186.003 204.33 187.515 198.756 187.515 193.104C187.515 187.79 186.233 182.554 183.772 177.866C181.926 174.453 182.156 170.286 184.336 167.108C184.9 167.863 185.541 168.567 186.259 169.166C191.566 173.411 199.002 173.516 204.438 169.426C204.438 175.339 210.31 180.132 217.515 180.132C218.182 180.184 218.823 180.184 219.489 180.132C225.797 179.35 230.618 174.922 230.618 169.556C236.131 173.75 243.72 173.568 249.054 169.166L249.772 168.514C250.746 171.432 250.387 174.61 248.823 177.241C246.002 182.059 244.49 187.582 244.515 193.208C244.515 198.574 245.849 203.861 248.362 208.576M291.413 99.0968C291.028 98.5498 290.566 98.0549 290.002 97.6902C287.489 95.945 284.105 96.2836 281.977 98.4977C271.259 108.917 258.9 111.053 252.079 120.717C251.515 119.44 250.797 118.268 249.951 117.174C247.977 114.621 245.284 112.746 242.259 111.756C238.772 110.558 234.951 110.74 231.592 112.277C229.105 103.733 220.259 98.8623 211.874 101.389C206.72 102.952 202.695 107.041 201.156 112.277C194.643 109.49 187.105 111.496 182.797 117.174C181.925 118.242 181.207 119.44 180.669 120.717C173.259 110.428 159.849 107.224 148.695 96.492C147.028 94.6165 144.207 94.4602 142.361 96.1534C142.131 96.3617 141.925 96.5962 141.746 96.8306C139.797 99.5135 139.413 103.056 140.772 106.078C147.977 123.347 157.387 133.975 164.361 144.446C166.156 147.468 169.233 149.473 172.695 149.864C169.105 155.777 166.721 162.341 165.669 169.192C157.977 171.328 152.105 180.783 152.105 192.166C152.105 202.273 156.746 210.92 163.233 214.176L159.566 324.515L157.413 389.4H197.054C223.72 389.452 250.028 383.018 273.772 370.672L274.669 370.177L269.566 215.817V214.176C269.951 213.994 270.31 213.786 270.669 213.525C276.592 209.905 280.695 201.673 280.695 192.166C280.695 191.046 280.643 189.9 280.515 188.78C279.49 178.934 274.079 171.119 267.131 169.192C266.105 162.341 263.72 155.751 260.105 149.864C263.566 149.473 266.643 147.468 268.464 144.446C275.387 134.027 284.746 123.269 291.925 106.338L292.233 105.609C293.207 103.473 292.926 100.946 291.49 99.0968" fill="url(#paint3_linear_11_93)"/>
<path d="M149.923 47C149.923 93.5217 112.795 131.239 67.0003 131.265V77.8669C67.0003 60.8315 80.6158 47 97.3849 47H149.923Z" fill="url(#paint4_linear_11_93)"/>
<path fill-rule="evenodd" clip-rule="evenodd" d="M231.564 196.02L223.026 203.991C222.282 204.694 221.769 205.606 221.513 206.596C220.949 208.888 219.846 213.394 218.949 217.666C218.667 218.864 217.59 219.672 216.385 219.646C215.179 219.672 214.102 218.864 213.82 217.666L211.102 206.596C210.872 205.606 210.333 204.694 209.59 203.991L201.051 196.02C200.026 195.031 199.974 193.39 200.949 192.348C201.513 191.749 202.333 191.436 203.128 191.54L215.949 193.311H216.641L217.641 193.181L229.461 191.54C230.538 191.436 231.564 192.009 232.026 192.999C232.487 194.041 232.256 195.239 231.436 196.02M244.256 193.103C244.333 187.503 245.923 182.007 248.82 177.24C250.308 174.635 250.615 171.483 249.641 168.618L249.051 169.165C243.692 173.437 236.179 173.515 230.743 169.321C230.743 174.687 225.923 179.115 219.615 179.897C218.949 179.949 218.308 179.949 217.641 179.897C210.436 179.897 204.564 175.104 204.564 169.191C199.128 173.385 191.615 173.307 186.256 169.035C185.538 168.436 184.897 167.732 184.333 166.977C182.154 170.155 181.923 174.323 183.769 177.735C186.256 182.476 187.538 187.737 187.513 193.103C187.513 198.703 186.051 204.2 183.256 209.018C181.128 212.769 181.513 217.458 184.205 220.818C191.564 229.805 203.333 237.28 214.59 238.27H217.359C230.385 238.27 240.615 230.039 247.923 219.203C250.051 215.999 250.205 211.858 248.359 208.497C245.846 203.783 244.513 198.495 244.513 193.129" fill="#B3D2FF"/>
<path fill-rule="evenodd" clip-rule="evenodd" d="M231.566 196.02L223.027 203.99C222.283 204.694 221.771 205.605 221.514 206.595C220.95 208.887 219.848 213.394 218.95 217.665C218.668 218.864 217.591 219.671 216.386 219.645C215.181 219.671 214.104 218.864 213.822 217.665L211.104 206.595C210.873 205.605 210.335 204.694 209.591 203.99L201.053 196.02C200.027 195.03 199.976 193.389 200.95 192.347C201.514 191.748 202.335 191.435 203.13 191.539L215.95 193.311H216.642L217.642 193.18L229.463 191.539C230.54 191.435 231.566 192.008 232.027 192.998C232.489 194.04 232.258 195.238 231.437 196.02" fill="#003580"/>
<path d="M506.18 160.818C506.18 168.375 505.061 174.99 502.765 180.663C500.508 186.336 497.308 191.046 493.206 194.835C489.103 198.603 484.118 201.45 478.327 203.354C472.497 205.258 466.079 206.2 458.993 206.2C457.383 206.2 455.558 206.141 453.536 206.043C451.514 205.945 449.434 205.788 447.314 205.552C445.194 205.316 443.035 204.983 440.876 204.551C438.697 204.119 436.714 203.569 434.928 202.902C430.001 201.116 427.568 197.897 427.568 193.264V125.801C427.568 123.897 428.058 122.444 429.059 121.424C430.06 120.364 431.493 119.52 433.397 118.852C437.264 117.616 441.366 116.831 445.724 116.438C450.062 116.045 454.027 115.869 457.619 115.869C464.901 115.869 471.516 116.772 477.464 118.558C483.411 120.344 488.514 123.131 492.774 126.841C497.033 130.59 500.331 135.242 502.686 140.876C505.042 146.489 506.219 153.124 506.219 160.779H506.161L506.18 160.818ZM483.234 161.113C483.234 151.966 480.977 145.115 476.521 140.62C472.026 136.126 466.197 133.907 459.013 133.907C457.325 133.907 455.695 133.966 454.184 134.065C452.673 134.163 451.161 134.339 449.65 134.634V187.356C450.886 187.631 452.358 187.847 454.105 188.004C455.852 188.141 457.521 188.2 459.13 188.2C466.491 188.2 472.36 185.943 476.698 181.487C481.036 176.992 483.215 170.24 483.215 161.152H483.234V161.113Z" fill="currentColor"/>
<path d="M537.92 178.956C539.254 182.921 541.551 185.728 544.868 187.396C548.185 189.065 551.993 189.889 556.351 189.889C560.316 189.889 564.045 189.359 567.559 188.24C571.053 187.161 573.899 185.963 576.078 184.629C577.491 185.571 578.669 186.807 579.611 188.319C580.553 189.83 581.024 191.499 581.024 193.265C581.024 195.444 580.357 197.309 579.042 198.938C577.707 200.547 575.882 201.882 573.585 202.981C571.269 204.061 568.54 204.885 565.361 205.396C562.2 205.906 558.726 206.161 554.957 206.161C549.402 206.161 544.24 205.396 539.529 203.825C534.818 202.255 530.736 199.959 527.36 196.877C523.944 193.795 521.275 189.948 519.351 185.335C517.408 180.722 516.446 175.285 516.446 169.024C516.446 162.762 517.427 157.737 519.351 153.301C521.275 148.865 523.885 145.175 527.144 142.25C530.402 139.326 534.151 137.167 538.352 135.812C542.552 134.458 546.87 133.751 551.326 133.751C556.155 133.751 560.552 134.497 564.575 135.95C568.599 137.402 572.034 139.463 574.939 142.113C577.805 144.763 580.062 147.943 581.652 151.594C583.242 155.244 584.067 159.288 584.067 163.646C584.067 166.668 583.281 168.926 581.652 170.437C580.043 171.948 577.785 172.95 574.861 173.421L538.018 178.956H537.92ZM551.385 149.768C547.341 149.768 543.946 151.024 541.257 153.517C538.567 156.03 536.978 159.641 536.506 164.372L563.574 159.995C563.398 157.541 562.298 155.225 560.316 153.046C558.333 150.867 555.37 149.788 551.385 149.788H551.365L551.385 149.768Z" fill="currentColor"/>
<path d="M617.415 140.856H641.5C641.971 141.798 642.481 142.976 642.991 144.389C643.502 145.803 643.757 147.373 643.757 149.061C643.757 152.084 643.07 154.262 641.696 155.578C640.322 156.893 638.575 157.56 636.396 157.56H618.397V203.884C617.455 204.158 616.14 204.414 614.432 204.649C612.744 204.885 610.84 205.002 608.759 205.002C604.5 205.002 601.418 204.315 599.553 202.941C597.649 201.587 596.707 198.898 596.707 194.933V134.693C596.707 130.06 597.473 126.056 599.043 122.641C600.613 119.225 602.753 116.477 605.481 114.357C608.229 112.238 611.429 110.648 615.119 109.607C618.809 108.547 622.754 108.037 627.014 108.037C633.727 108.037 638.712 108.901 641.971 110.648C645.229 112.395 646.878 115.26 646.878 119.206C646.878 120.992 646.525 122.582 645.798 123.956C645.072 125.33 644.267 126.39 643.306 127.136C641.519 126.566 639.596 126.076 637.554 125.722C635.533 125.33 633.216 125.153 630.684 125.153C626.346 125.153 623.049 125.919 620.752 127.489C618.495 129.059 617.337 131.67 617.337 135.36V140.738L617.415 140.797V140.856ZM655.672 116.34C655.672 113.14 656.771 110.392 659.008 108.116C661.246 105.858 664.132 104.7 667.724 104.7C671.316 104.7 674.201 105.819 676.439 108.116C678.676 110.373 679.776 113.121 679.776 116.34C679.776 119.559 678.676 122.444 676.439 124.702C674.201 126.959 671.316 128.117 667.724 128.117C664.132 128.117 661.246 126.998 659.008 124.702C656.771 122.444 655.672 119.657 655.672 116.34ZM678.5 203.903C677.557 204.178 676.242 204.433 674.535 204.669C672.847 204.904 670.943 205.022 668.862 205.022C664.603 205.022 661.56 204.335 659.715 202.961C657.87 201.587 656.947 198.918 656.947 194.953V136.714C657.89 136.44 659.205 136.145 660.912 135.87C662.6 135.596 664.505 135.439 666.585 135.439C670.845 135.439 673.887 136.165 675.712 137.559C677.558 138.972 678.48 141.661 678.48 145.626V203.864H678.5V203.903Z" fill="currentColor"/>
<path d="M700.268 201.136C698.148 199.016 697.088 196.17 697.088 192.578V117.911C698.148 117.734 699.62 117.479 701.544 117.184C703.468 116.909 705.391 116.752 707.295 116.752C711.555 116.752 714.597 117.479 716.501 118.872C718.405 120.286 719.328 123.073 719.328 127.234V186.336H753.324C753.894 187.278 754.424 188.515 754.973 190.026C755.484 191.537 755.739 193.206 755.739 194.973C755.739 198.093 755.052 200.429 753.678 202C752.304 203.57 750.439 204.335 748.083 204.335H708.826C705.234 204.335 702.388 203.275 700.268 201.156V201.136Z" fill="currentColor"/>
<path d="M780.235 205.022C775.976 205.022 772.933 204.335 771.108 202.961C769.263 201.607 768.34 198.918 768.34 194.953V111.767C769.283 111.492 770.617 111.198 772.384 110.923C774.131 110.648 776.054 110.491 778.135 110.491C782.296 110.491 785.319 111.217 787.203 112.611C789.088 114.005 790.05 116.713 790.05 120.678V203.864C788.99 204.139 787.635 204.394 785.947 204.63C784.259 204.865 782.355 204.983 780.275 204.983H780.216L780.235 205.022Z" fill="currentColor"/>
<path d="M834.234 133.751C839.16 133.751 843.616 134.242 847.62 135.243C851.644 136.244 855.06 137.775 857.906 139.856C860.752 141.936 862.931 144.567 864.501 147.786C866.071 150.985 866.837 154.793 866.837 159.111V191.145C866.837 193.599 866.189 195.562 864.913 197.014C863.637 198.467 862.087 199.723 860.3 200.763C857.376 202.549 853.784 203.943 849.524 204.866C845.265 205.808 840.456 206.279 835.058 206.279C825.322 206.279 817.569 204.414 811.818 200.685C806.067 196.975 803.181 191.283 803.181 183.608C803.181 177.091 805.105 172.125 809.011 168.729C812.878 165.314 818.825 163.194 826.853 162.35L845.697 160.368V158.797C845.697 155.774 844.46 153.576 842.007 152.124C839.553 150.71 836 150.004 831.368 150.004C827.776 150.004 824.262 150.435 820.808 151.28C817.353 152.124 814.271 153.125 811.523 154.263C810.404 153.517 809.423 152.339 808.638 150.808C807.853 149.238 807.441 147.57 807.441 145.783C807.441 141.622 809.619 138.658 813.957 136.852C816.705 135.832 819.885 135.027 823.516 134.517C827.148 134.006 830.72 133.751 834.214 133.751H834.273H834.234ZM835.078 190.282C837.158 190.282 839.2 190.085 841.241 189.634C843.263 189.202 844.813 188.652 845.854 187.985V174.952L834.234 175.953C831.211 176.227 828.777 176.934 826.932 178.014C825.087 179.093 824.164 180.722 824.164 182.921C824.164 185.119 825.008 186.964 826.736 188.299C828.424 189.634 831.23 190.282 835.097 190.282H835.078Z" fill="currentColor"/>
<path d="M985.727 203.904C984.667 204.179 983.313 204.434 981.625 204.669C979.937 204.905 978.033 205.023 975.952 205.023C971.693 205.023 968.65 204.336 966.825 202.962C964.98 201.607 964.057 198.918 964.057 194.953V159.798C964.057 156.677 963.213 154.381 961.486 152.928C959.759 151.476 957.462 150.73 954.537 150.73C952.633 150.73 950.867 151.064 949.238 151.731C947.569 152.398 946.077 153.242 944.782 154.263C944.88 154.734 944.939 155.205 944.978 155.676C945.017 156.147 945.057 156.618 945.057 157.089V203.865C943.997 204.139 942.642 204.394 940.954 204.63C939.266 204.866 937.362 204.983 935.282 204.983C931.022 204.983 927.98 204.296 926.154 202.922C924.309 201.568 923.387 198.879 923.387 194.914V159.759C923.387 156.638 922.445 154.341 920.541 152.889C918.637 151.436 916.34 150.691 913.592 150.691C911.61 150.691 909.823 151.005 908.214 151.613C906.604 152.222 905.289 152.81 904.249 153.38V203.825C903.307 204.1 901.992 204.355 900.284 204.591C898.596 204.826 896.692 204.944 894.611 204.944C890.352 204.944 887.27 204.257 885.405 202.883C883.501 201.529 882.559 198.84 882.559 194.875V151.083C882.559 148.63 883.07 146.647 884.129 145.136C885.15 143.624 886.642 142.211 888.507 140.876C891.628 138.697 895.475 136.951 900.048 135.655C904.622 134.34 909.431 133.673 914.436 133.673C918.401 133.673 922.15 134.203 925.683 135.321C929.216 136.401 932.455 138.089 935.399 140.346C938.246 138.442 941.445 136.892 945.037 135.596C948.629 134.32 952.889 133.673 957.776 133.673C961.466 133.673 964.98 134.144 968.336 135.027C971.693 135.93 974.637 137.382 977.189 139.404C979.721 141.426 981.802 144.076 983.352 147.334C984.922 150.592 985.688 154.538 985.688 159.19V203.825H985.747L985.727 203.904Z" fill="currentColor"/>
<path d="M1029.2 133.751C1034.13 133.751 1038.59 134.242 1042.59 135.243C1046.62 136.244 1050.03 137.775 1052.88 139.856C1055.72 141.936 1057.9 144.567 1059.47 147.786C1061.04 150.985 1061.81 154.793 1061.81 159.111V191.145C1061.81 193.599 1061.16 195.562 1059.88 197.014C1058.61 198.467 1057.06 199.723 1055.27 200.763C1052.35 202.549 1048.75 203.943 1044.5 204.866C1040.24 205.808 1035.43 206.279 1030.03 206.279C1020.29 206.279 1012.54 204.414 1006.79 200.685C1001.04 196.975 998.152 191.283 998.152 183.608C998.152 177.091 1000.08 172.125 1003.96 168.729C1007.83 165.314 1013.78 163.194 1021.8 162.35L1040.65 160.368V158.797C1040.65 155.774 1039.41 153.576 1036.96 152.124C1034.5 150.71 1030.95 150.004 1026.32 150.004C1022.73 150.004 1019.21 150.435 1015.76 151.28C1012.3 152.124 1009.22 153.125 1006.47 154.263C1005.36 153.517 1004.37 152.339 1003.57 150.808C1002.78 149.238 1002.37 147.57 1002.37 145.783C1002.37 141.622 1004.55 138.658 1008.89 136.852C1011.64 135.832 1014.82 135.027 1018.45 134.517C1022.08 134.006 1025.65 133.751 1029.15 133.751H1029.2ZM1030.05 190.282C1032.13 190.282 1034.17 190.085 1036.21 189.634C1038.23 189.202 1039.78 188.652 1040.82 187.985V174.952L1029.2 175.953C1026.18 176.227 1023.75 176.934 1021.9 178.014C1020.06 179.093 1019.14 180.722 1019.14 182.921C1019.14 185.119 1019.98 186.964 1021.71 188.299C1023.39 189.634 1026.2 190.282 1030.07 190.282H1030.05Z" fill="currentColor"/>
<path d="M461.076 314.24V268.415H482.006C487.119 268.415 491.062 269.65 493.836 272.12C496.609 274.59 497.996 278.035 497.996 282.455C497.996 285.315 497.367 287.785 496.111 289.865C494.854 291.945 493.034 293.549 490.651 294.675C488.311 295.802 485.429 296.365 482.006 296.365L482.526 295.26H485.191C487.011 295.26 488.592 295.715 489.936 296.625C491.322 297.492 492.514 298.835 493.511 300.655L500.921 314.24H489.806L481.876 299.615C481.442 298.835 480.944 298.229 480.381 297.795C479.817 297.319 479.167 296.994 478.431 296.82C477.737 296.604 476.957 296.495 476.091 296.495H471.151V314.24H461.076ZM471.151 289.215H480.186C482.872 289.215 484.887 288.674 486.231 287.59C487.617 286.507 488.311 284.882 488.311 282.715C488.311 280.592 487.617 278.989 486.231 277.905C484.887 276.822 482.872 276.28 480.186 276.28H471.151V289.215Z" fill="url(#paint5_linear_11_93)"/>
<path d="M522.585 314.24V268.415H553.98V276.28H532.205V287.005H552.55V294.935H532.205V306.375H553.98V314.24H522.585Z" fill="url(#paint6_linear_11_93)"/>
<path d="M593.935 314.955C591.552 314.955 589.234 314.739 586.98 314.305C584.77 313.915 582.712 313.352 580.805 312.615C578.899 311.835 577.23 310.925 575.8 309.885L578.725 301.955C580.112 302.909 581.607 303.732 583.21 304.425C584.814 305.119 586.525 305.66 588.345 306.05C590.165 306.397 592.029 306.57 593.935 306.57C597.099 306.57 599.352 306.094 600.695 305.14C602.039 304.144 602.71 302.909 602.71 301.435C602.71 300.612 602.494 299.897 602.06 299.29C601.67 298.684 600.999 298.164 600.045 297.73C599.135 297.254 597.879 296.864 596.275 296.56L588.93 295C584.77 294.134 581.672 292.66 579.635 290.58C577.642 288.457 576.645 285.684 576.645 282.26C576.645 279.314 577.425 276.757 578.985 274.59C580.589 272.424 582.777 270.734 585.55 269.52C588.367 268.307 591.595 267.7 595.235 267.7C597.359 267.7 599.395 267.917 601.345 268.35C603.295 268.74 605.094 269.325 606.74 270.105C608.387 270.885 609.817 271.817 611.03 272.9L608.105 280.31C606.372 278.924 604.422 277.884 602.255 277.19C600.089 276.454 597.727 276.085 595.17 276.085C593.35 276.085 591.79 276.324 590.49 276.8C589.234 277.277 588.259 277.949 587.565 278.815C586.915 279.682 586.59 280.679 586.59 281.805C586.59 283.062 587.045 284.08 587.955 284.86C588.865 285.64 590.447 286.269 592.7 286.745L600.045 288.305C604.292 289.215 607.455 290.689 609.535 292.725C611.615 294.719 612.655 297.362 612.655 300.655C612.655 303.515 611.875 306.029 610.315 308.195C608.799 310.319 606.632 311.987 603.815 313.2C601.042 314.37 597.749 314.955 593.935 314.955Z" fill="url(#paint7_linear_11_93)"/>
<path d="M635.446 314.24V268.415H666.841V276.28H645.066V287.005H665.411V294.935H645.066V306.375H666.841V314.24H635.446Z" fill="url(#paint8_linear_11_93)"/>
<path d="M685.025 314.24L706.085 268.415H714.21L735.27 314.24H725.13L719.67 301.5L723.7 304.295H696.595L700.625 301.5L695.23 314.24H685.025ZM710.05 279.14L701.73 298.965L699.975 296.43H720.32L718.565 298.965L710.18 279.14H710.05Z" fill="url(#paint9_linear_11_93)"/>
<path d="M755.48 314.24V268.415H776.41C781.523 268.415 785.467 269.65 788.24 272.12C791.013 274.59 792.4 278.035 792.4 282.455C792.4 285.315 791.772 287.785 790.515 289.865C789.258 291.945 787.438 293.549 785.055 294.675C782.715 295.802 779.833 296.365 776.41 296.365L776.93 295.26H779.595C781.415 295.26 782.997 295.715 784.34 296.625C785.727 297.492 786.918 298.835 787.915 300.655L795.325 314.24H784.21L776.28 299.615C775.847 298.835 775.348 298.229 774.785 297.795C774.222 297.319 773.572 296.994 772.835 296.82C772.142 296.604 771.362 296.495 770.495 296.495H765.555V314.24H755.48ZM765.555 289.215H774.59C777.277 289.215 779.292 288.674 780.635 287.59C782.022 286.507 782.715 284.882 782.715 282.715C782.715 280.592 782.022 278.989 780.635 277.905C779.292 276.822 777.277 276.28 774.59 276.28H765.555V289.215Z" fill="url(#paint10_linear_11_93)"/>
<path d="M838.902 314.955C833.962 314.955 829.737 313.98 826.227 312.03C822.716 310.08 820.008 307.35 818.102 303.84C816.238 300.287 815.307 296.105 815.307 291.295C815.307 286.485 816.238 282.325 818.102 278.815C820.008 275.305 822.716 272.575 826.227 270.625C829.737 268.675 833.962 267.7 838.902 267.7C841.935 267.7 844.838 268.177 847.612 269.13C850.385 270.084 852.66 271.384 854.437 273.03L851.316 281.025C849.366 279.509 847.395 278.404 845.402 277.71C843.452 276.974 841.393 276.605 839.227 276.605C834.893 276.605 831.6 277.884 829.346 280.44C827.093 282.954 825.967 286.572 825.967 291.295C825.967 296.019 827.093 299.659 829.346 302.215C831.6 304.772 834.893 306.05 839.227 306.05C841.393 306.05 843.452 305.704 845.402 305.01C847.395 304.274 849.366 303.147 851.316 301.63L854.437 309.625C852.66 311.272 850.385 312.572 847.612 313.525C844.838 314.479 841.935 314.955 838.902 314.955Z" fill="url(#paint11_linear_11_93)"/>
<path d="M877.292 314.24V268.415H887.367V286.81H908.687V268.415H918.762V314.24H908.687V295.195H887.367V314.24H877.292Z" fill="url(#paint12_linear_11_93)"/>
<path d="M427.461 251.7H434.461V291.7V331.7H427.461V251.7Z" fill="url(#paint13_linear_11_93)"/>
<defs>
<linearGradient id="paint0_linear_11_93" x1="121.769" y1="412.844" x2="115.21" y2="360.252" gradientUnits="userSpaceOnUse">
<stop offset="0.29" stop-color="#3A8BFF"/>
<stop offset="1" stop-color="#00398A"/>
</linearGradient>
<linearGradient id="paint1_linear_11_93" x1="203.539" y1="11.7315" x2="75.1047" y2="337.424" gradientUnits="userSpaceOnUse">
<stop offset="0.29" stop-color="#0062EE"/>
<stop offset="1" stop-color="#00398A"/>
</linearGradient>
<linearGradient id="paint2_linear_11_93" x1="266.846" y1="387.237" x2="310.492" y2="141.683" gradientUnits="userSpaceOnUse">
<stop offset="0.29" stop-color="#0062EE"/>
<stop offset="1" stop-color="#00398A"/>
</linearGradient>
<linearGradient id="paint3_linear_11_93" x1="216.387" y1="470.331" x2="216.387" y2="242.074" gradientUnits="userSpaceOnUse">
<stop offset="0.29" stop-color="#B3D2FF"/>
<stop offset="1" stop-color="white"/>
</linearGradient>
<linearGradient id="paint4_linear_11_93" x1="156.128" y1="119.231" x2="77.2419" y2="70.9577" gradientUnits="userSpaceOnUse">
<stop offset="0.29" stop-color="#3A8BFF"/>
<stop offset="1" stop-color="#00398A"/>
</linearGradient>
<linearGradient id="paint5_linear_11_93" x1="1058.46" y1="291.7" x2="427.461" y2="291.7" gradientUnits="userSpaceOnUse">
<stop stop-color="#81B5FF"/>
<stop offset="1" stop-color="#0162EE"/>
</linearGradient>
<linearGradient id="paint6_linear_11_93" x1="1058.46" y1="291.7" x2="427.461" y2="291.7" gradientUnits="userSpaceOnUse">
<stop stop-color="#81B5FF"/>
<stop offset="1" stop-color="#0162EE"/>
</linearGradient>
<linearGradient id="paint7_linear_11_93" x1="1058.46" y1="291.7" x2="427.461" y2="291.7" gradientUnits="userSpaceOnUse">
<stop stop-color="#81B5FF"/>
<stop offset="1" stop-color="#0162EE"/>
</linearGradient>
<linearGradient id="paint8_linear_11_93" x1="1058.46" y1="291.7" x2="427.461" y2="291.7" gradientUnits="userSpaceOnUse">
<stop stop-color="#81B5FF"/>
<stop offset="1" stop-color="#0162EE"/>
</linearGradient>
<linearGradient id="paint9_linear_11_93" x1="1058.46" y1="291.7" x2="427.461" y2="291.7" gradientUnits="userSpaceOnUse">
<stop stop-color="#81B5FF"/>
<stop offset="1" stop-color="#0162EE"/>
</linearGradient>
<linearGradient id="paint10_linear_11_93" x1="1058.46" y1="291.7" x2="427.461" y2="291.7" gradientUnits="userSpaceOnUse">
<stop stop-color="#81B5FF"/>
<stop offset="1" stop-color="#0162EE"/>
</linearGradient>
<linearGradient id="paint11_linear_11_93" x1="1058.46" y1="291.7" x2="427.461" y2="291.7" gradientUnits="userSpaceOnUse">
<stop stop-color="#81B5FF"/>
<stop offset="1" stop-color="#0162EE"/>
</linearGradient>
<linearGradient id="paint12_linear_11_93" x1="1058.46" y1="291.7" x2="427.461" y2="291.7" gradientUnits="userSpaceOnUse">
<stop stop-color="#81B5FF"/>
<stop offset="1" stop-color="#0162EE"/>
</linearGradient>
<linearGradient id="paint13_linear_11_93" x1="1058.46" y1="291.7" x2="427.461" y2="291.7" gradientUnits="userSpaceOnUse">
<stop stop-color="#81B5FF"/>
<stop offset="1" stop-color="#0162EE"/>
</linearGradient>
</defs>
</symbol>
</defs>
</svg>
