<svg height="24" viewBox="0 0 24 33" width="24" xmlns="http://www.w3.org/2000/svg"><path d="m15.75 0 8.25 8.25-4.125.75-4.125-.75-.75-4.125zm0 0" fill="#188038"/><path d="m15.75 8.25v-8.25h-13.5c-1.242188 0-2.25 1.007812-2.25 2.25v28.5c0 1.242188 1.007812 2.25 2.25 2.25h19.5c1.242188 0 2.25-1.007812 2.25-2.25v-22.5zm0 0" fill="#34a853"/><path d="m4.5 12.75v10.875h15v-10.875zm6.5625 9h-4.6875v-2.625h4.6875zm0-4.5h-4.6875v-2.625h4.6875zm6.5625 4.5h-4.6875v-2.625h4.6875zm0-4.5h-4.6875v-2.625h4.6875zm0 0" fill="#fff"/></svg>