<svg xmlns="http://www.w3.org/2000/svg" width="25" height="28" viewBox="0 0 25 28" fill="none">
  <g clip-path="url(#clip0_4838_3844)">
    <path d="M10.92 0C12.7451 -8.03603e-08 14.5523 0.361923 16.2385 1.06543C17.9247 1.769 19.4569 2.80057 20.7474 4.10059C22.038 5.40061 23.0621 6.94402 23.7605 8.64258C24.4589 10.3411 24.8182 12.1616 24.8182 14C24.8182 15.8384 24.4589 17.6589 23.7605 19.3574C23.0621 21.056 22.038 22.5994 20.7474 23.8994C19.4569 25.1994 17.9247 26.231 16.2385 26.9346C14.5523 27.6381 12.7451 28 10.92 28H2.97818C1.33338 28 1.59895e-08 26.6569 0 25V3C1.27916e-07 1.34315 1.33338 0 2.97818 0H10.92Z" fill="url(#paint0_linear_4838_3844)"/>
    <path d="M6.92873 0C6.9412 0.165059 6.94909 0.331724 6.94909 0.5C6.94909 4.08985 4.06011 7 0.496364 7C0.329286 7 0.163883 6.99108 0 6.97852V3C1.27916e-07 1.34315 1.33338 0 2.97818 0H6.92873Z" fill="url(#paint1_linear_4838_3844)"/>
    <path d="M17.9571 1.92773C18.9727 2.52856 19.9108 3.25803 20.7472 4.10059C22.0378 5.40061 23.0619 6.94402 23.7603 8.64258C24.4587 10.3411 24.818 12.1616 24.818 14C24.818 15.8384 24.4587 17.6589 23.7603 19.3574C23.0619 21.056 22.0378 22.5994 20.7472 23.8994C19.4567 25.1994 17.9245 26.231 16.2383 26.9346C16.1175 26.9849 15.9957 27.0322 15.8738 27.0791C13.9871 23.8253 12.9053 20.04 12.9053 16C12.9053 10.6477 14.8029 5.74191 17.9571 1.92773Z" fill="url(#paint2_linear_4838_3844)"/>
    <path fill-rule="evenodd" clip-rule="evenodd" d="M11.7703 8.68485C12.1742 8.49177 12.6442 8.49177 13.0482 8.68485C13.2227 8.76832 13.3898 8.91051 13.7236 9.19495C13.8565 9.30827 13.9236 9.36509 13.9946 9.41268C14.1573 9.5217 14.3401 9.5978 14.5323 9.63573C14.616 9.65225 14.7031 9.65918 14.8771 9.67306C15.3146 9.70797 15.5335 9.72503 15.716 9.78948C16.1381 9.93858 16.4698 10.2711 16.6189 10.6933C16.6834 10.8758 16.7013 11.0946 16.7362 11.5322C16.7501 11.7061 16.757 11.7932 16.7735 11.877C16.8115 12.0692 16.8875 12.2519 16.9966 12.4146C17.0442 12.4856 17.101 12.5527 17.2143 12.6857C17.4988 13.0195 17.641 13.1865 17.7244 13.3611C17.9175 13.765 17.9175 14.235 17.7244 14.639C17.6409 14.8135 17.4987 14.9806 17.2143 15.3144C17.1012 15.4471 17.0441 15.5137 16.9966 15.5846C16.8875 15.7473 16.8115 15.9309 16.7735 16.1231C16.757 16.2069 16.7501 16.294 16.7362 16.4679C16.7013 16.9054 16.6834 17.1243 16.6189 17.3068C16.4698 17.7288 16.138 18.0606 15.716 18.2097C15.5335 18.2742 15.3146 18.2921 14.8771 18.327C14.7031 18.3409 14.6161 18.3478 14.5323 18.3643C14.3401 18.4023 14.1574 18.4784 13.9946 18.5874C13.9236 18.635 13.8565 18.691 13.7236 18.8042C13.3896 19.0889 13.2228 19.2317 13.0482 19.3152C12.6442 19.5083 12.1742 19.5083 11.7703 19.3152C11.5957 19.2317 11.4289 19.0889 11.0949 18.8042C10.9619 18.691 10.8948 18.635 10.8238 18.5874C10.6611 18.4783 10.4784 18.4023 10.2862 18.3643C10.2024 18.3478 10.1153 18.3409 9.94136 18.327C9.5038 18.2921 9.28497 18.2742 9.10244 18.2097C8.68033 18.0606 8.34776 17.7289 8.19866 17.3068C8.1342 17.1243 8.11715 16.9054 8.08224 16.4679C8.06836 16.294 8.06142 16.2069 8.04491 16.1231C8.00696 15.9309 7.93095 15.7473 7.82186 15.5846C7.77432 15.5137 7.71723 15.4471 7.60413 15.3144C7.3197 14.9806 7.1775 14.8135 7.09403 14.639C6.90095 14.235 6.90095 13.765 7.09403 13.3611C7.17748 13.1865 7.31968 13.0195 7.60413 12.6857C7.71745 12.5527 7.77426 12.4856 7.82186 12.4146C7.93091 12.2519 8.00697 12.0692 8.04491 11.877C8.06144 11.7932 8.06836 11.7061 8.08224 11.5322C8.11714 11.0948 8.13424 10.8758 8.19866 10.6933C8.34777 10.2711 8.68027 9.93859 9.10244 9.78948C9.28495 9.72504 9.50388 9.70797 9.94136 9.67306C10.1153 9.65918 10.2024 9.65225 10.2862 9.63573C10.4783 9.5978 10.6611 9.5217 10.8238 9.41268C10.8948 9.36509 10.9619 9.30827 11.0949 9.19495C11.4286 8.91051 11.5957 8.76832 11.7703 8.68485ZM14.8815 12.3009C14.6683 12.0877 14.3225 12.0877 14.1093 12.3009L11.5143 14.8941L10.7083 14.0889C10.4951 13.8759 10.1501 13.8759 9.93691 14.0889C9.72396 14.3021 9.72383 14.648 9.93691 14.8612L11.1286 16.0529C11.3418 16.266 11.6876 16.2659 11.9009 16.0529L14.8815 13.0723C15.0943 12.8591 15.0943 12.514 14.8815 12.3009Z" fill="url(#paint3_radial_4838_3844)"/>
    <rect width="1.57745" height="3.43921" transform="matrix(-0.73647 -0.67647 -0.671099 0.741368 7.72656 20.603)" fill="white"/>
    <path d="M5.125 24.6484L2.80151 22.5142L-2.49588 28.3663C-3.08054 29.0122 -3.03437 30.0135 -2.39276 30.6029C-1.75115 31.1922 -0.757053 31.1464 -0.172391 30.5005L5.125 24.6484Z" fill="#EAF3FF"/>
    <path d="M5.51347 24.2199C5.88411 23.8104 5.85484 23.1756 5.4481 22.802L4.59755 22.0208C4.19081 21.6472 3.56062 21.6762 3.18998 22.0857L2.40019 22.9582L4.72368 25.0924L5.51347 24.2199Z" fill="#C0DAFF"/>
    <path d="M20.3503 14.0005C20.3503 9.58221 16.7946 6.00049 12.4084 6.00049C8.0223 6.00049 4.46663 9.58221 4.46663 14.0005C4.46663 18.4188 8.0223 22.0005 12.4084 22.0005V23.5005C7.1999 23.5005 2.97754 19.2472 2.97754 14.0005C2.97754 8.75378 7.1999 4.50049 12.4084 4.50049C17.617 4.50049 21.8394 8.75378 21.8394 14.0005C21.8394 19.2472 17.617 23.5005 12.4084 23.5005V22.0005C16.7946 22.0005 20.3503 18.4188 20.3503 14.0005Z" fill="#EAF3FF"/>
    <ellipse cx="12.4086" cy="14.0005" rx="7.94182" ry="8" fill="white" fill-opacity="0.15"/>
  </g>
  <defs>
    <linearGradient id="paint0_linear_4838_3844" x1="16.3885" y1="-3.31686" x2="8.08164" y2="26.2925" gradientUnits="userSpaceOnUse">
      <stop offset="0.29" stop-color="#0062EE"/>
      <stop offset="1" stop-color="#00398A"/>
    </linearGradient>
    <linearGradient id="paint1_linear_4838_3844" x1="7.46909" y1="6.00031" x2="0.889914" y2="1.93892" gradientUnits="userSpaceOnUse">
      <stop offset="0.29" stop-color="#3A8BFF"/>
      <stop offset="1" stop-color="#81B5FF"/>
    </linearGradient>
    <linearGradient id="paint2_linear_4838_3844" x1="15.2848" y1="28.4886" x2="18.3919" y2="8.03363" gradientUnits="userSpaceOnUse">
      <stop offset="0.29" stop-color="#0062EE"/>
      <stop offset="1" stop-color="#00398A"/>
    </linearGradient>
    <radialGradient id="paint3_radial_4838_3844" cx="0" cy="0" r="1" gradientUnits="userSpaceOnUse" gradientTransform="translate(12.4092 8.54004) rotate(90) scale(10.92)">
      <stop offset="0.341346" stop-color="white"/>
      <stop offset="0.6875" stop-color="#BFDAFF"/>
      <stop offset="1" stop-color="#5DA0FF"/>
    </radialGradient>
    <clipPath id="clip0_4838_3844">
      <path d="M0 3C0 1.34315 1.34315 0 3 0H24.8182V28H3C1.34315 28 0 26.6569 0 25V3Z" fill="white"/>
    </clipPath>
  </defs>
</svg>