<svg fill="none" height="44" viewBox="0 0 44 44" width="44" xmlns="http://www.w3.org/2000/svg"><path clip-rule="evenodd" d="m15 32.6c0 .8.6 1.4 1.3 1.4 3.1 0 5.7-2.3 6.3-5.3h3.8c3.5 0 6.4-2.9 6.6-6.4.1-1.8-.6-3.5-1.8-4.8-1.2-1.3-2.9-2-4.6-2l-5.7 0v-5.1c0-.6-.4-1.2-1-1.3-.6-.2-1.2.1-1.5.6l-2.7 4.3c-.6.7-.8 1.7-.4 2.7.4 1 1.3 1.6 2.3 1.6l2 0 7 0c1 0 2 .4 2.7 1.2.7.8 1.1 1.8 1 2.8-.1 2-1.8 3.7-3.9 3.7l-5 0c-.7 0-1.3.6-1.3 1.4 0 1.6-1 3-2.4 3.6v-6.2c0-.7.5-1.2 1.2-1.2h3.3c.4.6 1.1 1 1.9 1 1.3 0 2.3-1.1 2.3-2.4s-1-2.4-2.3-2.4c-.8 0-1.4.4-1.9 1h-3.3c-2.2 0-3.9 1.8-3.9 4z" fill="#fff" fill-rule="evenodd"/></svg>
