<svg fill="none" height="44" viewBox="0 0 44 44" width="44" xmlns="http://www.w3.org/2000/svg" xmlns:xlink="http://www.w3.org/1999/xlink"><linearGradient id="a" gradientUnits="userSpaceOnUse" x1="18.8743" x2="24.7618" y1=".521978" y2="43.4768"><stop offset="0" stop-color="#0131a9"/><stop offset=".39" stop-color="#161d77"/><stop offset="1" stop-color="#151c6c"/></linearGradient><linearGradient id="b" gradientUnits="userSpaceOnUse" x1="33.8364" x2="9.79972" y1="11.2822" y2="32.7173"><stop offset="0" stop-color="#7f0ee6"/><stop offset=".59" stop-color="#390fdb"/><stop offset="1" stop-color="#28158b"/></linearGradient><linearGradient id="c" gradientUnits="userSpaceOnUse" x1="33.1455" x2="13.7683" y1="15.1804" y2="31.9014"><stop offset="0" stop-color="#fdfcfc"/><stop offset=".59" stop-color="#f3f5fd"/><stop offset="1" stop-color="#c1c9fb"/></linearGradient><linearGradient id="d" gradientUnits="userSpaceOnUse" x1="29.3554" x2="14.2374" y1="22.2818" y2="36.0188"><stop offset="0" stop-color="#d8ccf8"/><stop offset="1" stop-color="#9899fa"/></linearGradient><clipPath id="e"><path d="m.000061.181641h43.6364v43.6364h-43.6364z"/></clipPath><g clip-path="url(#e)"><path d="m41.6823 17.2821-15.1467-15.14677c-2.6053-2.605326-6.8294-2.605326-9.4347 0l-15.14674 15.14677c-2.605332 2.6053-2.605331 6.8293 0 9.4347l15.14674 15.1467c2.6053 2.6053 6.8294 2.6053 9.4347 0l15.1467-15.1467c2.6053-2.6054 2.6053-6.8294 0-9.4347z" fill="url(#a)"/><path d="m40.4604 18.7218-15.3641-15.36413c-1.8104-1.81043-4.7457-1.81043-6.5561 0l-15.36417 15.36413c-1.81043 1.8104-1.81043 4.7457 0 6.5562l15.36417 15.3641c1.8104 1.8104 4.7457 1.8104 6.5561 0l15.3641-15.3641c1.8105-1.8105 1.8105-4.7458 0-6.5562z" fill="url(#b)"/><path d="m29.5076 34.0429c.4768.1162.888-.2775.8583-.7539-.0293-.4673-.4794-.811-.7514-1.1514-.3487-.4362-.4756-.7801-.5014-1.3433h-.0232c-.0385-.0243-.023-.0881-.0237-.1273-.0046-.3866.0123-.7753.0014-1.1614-.0023-.0828-.0406-.175-.0424-.2546-.0007-.035.0208-.3.0879-.2434.0037.0135-.0044.0399 0 .0464.0411.0588.4142.0764.4987.0692.1802-.0156.374-.1056.4237-.2952.1092-.4167-.3527-.6337-.5736-.9-.4242-.5122-.6927-1.8847-.8261-2.5638-.0209-.1063-.0188-.2367-.0562-.3476 1.0147.3014 1.7698-.3978.9751-1.3118-.4114-.4731-.7832-.6757-1.0328-1.3107-.0922-.2346-.123-.4634-.1504-.7078l.0471-.0253c.4244.0968.7005-.239.5773-.646-.0812-.2682-.3302-.3879-.4979-.5926-.2854-.3483-.3339-.8655-.4525-1.2878.2796-.007.6304-.0494.6481-.3986.0209-.4147-.4801-.5477-.762-.7173-.2613-.1573-.4212-.316-.6008-.5594-.2573-.3483-.4731-.7381-.5794-1.1609.1954-.2388.4513-.4393.6685-.6674.8254-.8673 1.605-2.1531 1.8953-3.3255.3901-1.5749-.0647-2.70516-1.6751-1.4429-.8451.6625-1.8301 1.9923-2.458 2.9019-.2251.3263-.4267.669-.6518.9955-.0747.0025-.2882-.5627-.3197-.6544-.3933-1.1372-.5632-2.3427-.9386-3.4933-.1441-.4414-.4671-1.47998-1.1259-1.16-.5184.25176-.3615 1.3164-.2923 1.7893.0777.5332.2104 1.0982.3905 1.6047.0907.2555.2167.4999.3021.7537-.7103-.2726-1.4345-.5249-2.1809-.6845-.6136-.1313-1.8851-.3847-2.216.3367-.1399.3046-.0365.7567.3128.8594l-.0406.0915c-.8414.174-1.6744.3854-2.5265.5074-.4991.0717-1.0483.1328-1.5505.1669-.6332.0429-1.5869-.0374-2.1364.1605-.7645.2757-.9836 1.1403-1.1764 1.8167-.1524.5341-.3866 1.2286.2518 1.5226.6332.2917 1.5943-.0229 2.0862-.4838.0824-.077.352-.4457.3987-.4599.138-.0415.2731.0527.2773.1963.0081.297-.4397.7555-.6669.9224-.6084.4469-1.4275.523-2.1559.4081.12.4903.4574.9217.8604 1.2162.8193.5988 1.9262.3923 2.8838.5271.9358.1318 2.5185.6307 3.24 1.25.1591-.0348.3413-.0234.4979-.0475.7762-.1191 1.6067-.2861 2.2847-.7084 1.7502-1.0899 2.1155-3.4823 2.2071-5.3806.01-.2042-.0093-.4116-.0007-.6158l.1555.4822c.3819 1.7918.5861 3.6933.5868 5.5276.0385.0239.0232.088.0237.1272.0018.1585-.0005.3176-.0005.4761v.1857c.0385.0241.0232.0879.0237.1271.007.5611.036 1.1792-.0237 1.7292-.0392.3629-.01.7332-.0222 1.1031-.0495 1.499-.2991 3.0796-.6574 4.5401-.6277 2.5582-1.3862 4.6667-1.4551 7.3742-.0144.5634-.0089 1.1527 0 1.7171.009.5761.0294 1.155.0698 1.7284.0309.4369.0947.8734.1158 1.3113 1.8134-.059 2.7074-.7855 3.9451-1.9605 1.3073-1.2412 2.5784-2.5184 3.8746-3.7709-.2341-.2861-.2995-.6193-.348-.9746-.0785.014-.0432-.1366-.0518-.1919-.0062-.0403-.0353-.0793-.0392-.1232-.0172-.1979.01-.3937.0216-.59.0424-.0181.0724.0183.0926.0234zm-9.5601-17.8438c-.0025.277-.1923.7239-.3935.9172-.4381.4212-1.3665.3446-1.5788-.2675-.1271-.174-.1278-.4177-.1664-.6226-.0399-.0617-.6109-.0065-.7262-.0278-.1198-.0223-.1604-.2091-.0755-.2947.0859-.0861.5869-.0513.7361-.0527h2.1579c.0156.0007.0311-.0014.0464-.0002zm6.5791-.9973c-.101.0926-.417.3865-.514.4374-.1543.0807-.355-.078-.3761-.2233-.011-.0756.4431-.9787.5176-1.1202.2643-.5026 1.0475-1.9097 1.535-2.1313.1204-.0546.2399-.0638.3494.0276.1383.1155.136.3722.123.5376-.064.811-1.0495 1.9355-1.6349 2.4722z" fill="url(#c)"/><path d="m16.784 38.9235c.2285.236.4636.4715.6922.6894 1.4432 1.3762 2.4162 2.0862 4.537 2.0173-.0213-.4379-.0849-.8743-.1158-1.3112-.0403-.5734-.0608-1.1524-.0698-1.7285v-1.7171c.0687-2.7074.8274-4.816 1.4551-7.374.3583-1.4604.608-3.0411.6574-4.5403.0123-.3699-.017-.7402.0223-1.1031v-2.0419c-.0386-.0242-.0233-.088-.0237-.1274-.0019-.1585.0004-.3177.0004-.4759-.0009-1.8343-.2048-3.7359-.5868-5.5274l-.1554-.4822c-.0089.2042.0106.4116.0007.6158-.0917 1.8983-.4569 4.2906-2.2072 5.3805-.678.4223-1.5085.5894-2.2849.7084-.1566.0239-.3388.0128-.498.0474.1912.1643.5138.7335.6143.9752.2376.5725.3011 1.2025.0394 1.7784-.1325.2919-.3743.5216-.4954.8272-.1279.3225-.1169.7172.307.75.0494.3851.0438.7908-.1274 1.1467-.2743.5701-1.0361 1.0495-.7901 1.7619.0529.1534.1453.1937.291.2471.0462.3309.0359.6581-.1365.9518-.2429.4142-.7996.6755-.8736 1.1799-.0418.2854.1805.7064.5219.6377.1037.62.2371 1.1813.0176 1.7929-.3288.9161-1.6136 1.7406-1.4776 2.7416.0371.2738.3487.4919.6221.4339.003.0346.0223.0726.0239.1054.0097.1807-.0265.5227-.045.7156-.0158.1638-.0469.3582-.0706.4854-.0141.0768-.068.1626-.0452.2459l.2007.1938z" fill="url(#d)"/><path d="m29.0899 30.7942c-.0385-.0242-.0232-.0882-.0237-.1274-.0049-.3866.0121-.7753.0014-1.1614-.0023-.0828-.0406-.1749-.0425-.2545-.0007-.0351.0207-.3003.088-.2434.0037.0134-.0044.0399 0 .0464-.0803-.0095-.0327.025-.0302.0647.0095.149.0065.2968.007.4458.0016.4095-.0012.8202 0 1.2298z" fill="#f5f9fe"/><path d="m29.5072 34.0424c-.0812-.0028-.0641-.0144-.0696.0568-.0204.2604.0113.5674.0464.8249-.0787.0139-.0432-.1364-.0518-.1919-.0062-.0404-.0352-.0793-.0392-.1232-.0171-.1977.01-.3935.0214-.5898.0427-.0181.0726.0183.0928.0232z" fill="#ebf0fd"/><path d="m29.1127 30.7943h-.0232c-.0012-.4096.0016-.8203 0-1.2298.0385.0241.0232.0879.0237.1273.0044.3641-.0167.7414-.0005 1.1025z" fill="#ebf0fd"/><path d="m28.0385 12.1919c.1383.1153.136.372.123.5376-.064.811-1.0495 1.9355-1.6349 2.4722-.101.0926-.417.3863-.514.4371-.1543.0808-.355-.0779-.3761-.223-.011-.0758.4432-.9787.5176-1.1202.2643-.5026 1.0472-1.91 1.535-2.1313.1204-.0548.2399-.0638.3494.0276z" fill="#3510e9"/><path d="m17.9748 16.8486c-.068-.1961-.0685-.4411-.1267-.6052-.0179-.0503-.0615-.0371-.0608-.0782.0011-.071.1039-.2912.1759-.2912h1.9607c.0037.0891-.0049.1794-.0007.2685.0014.0297.0241.0531.0239.0564-.0026.277-.1924.7242-.3935.9175-.4381.4211-1.3665.3443-1.5788-.2678z" fill="#2f0ec5"/><path d="m17.7427 15.8506c.6998-.0065 1.4642-.0339 2.158 0 .0153.0007.0311-.0012.0464 0v.3483c0-.003-.0225-.0267-.0239-.0564-.0042-.0891.0044-.1796.0007-.2685h-1.9607c-.0722 0-.1748.2202-.1759.2912-.0007.0411.0429.0279.0608.0782.0582.1641.0587.4089.1267.6052-.1272-.1738-.1279-.4174-.1664-.6223-.0399-.0618-.6112-.0065-.7263-.0279-.1197-.0223-.1603-.209-.0754-.2944.0858-.0864.5866-.0516.736-.0529z" fill="#2d11b4"/><path d="m19.9011 15.8506c-.6938-.0339-1.4581-.0065-2.1579 0z" fill="#fefefe"/><path d="m23.9622 23.8563v-1.8563c.0386.0241.0233.0879.0237.1274.007.5611.036 1.179-.0237 1.7289z" fill="#f3f6fe"/><path d="m21.8271 38.5906v-1.7171c-.0144.5634-.0089 1.1528 0 1.7171z" fill="#9a9bfb"/><path d="m23.9618 21.8142c-.0385-.0241-.0232-.0879-.0237-.1274-.0018-.1584.0005-.3176.0005-.4759.0385.0242.0232.088.0237.1274.0018.1585-.0005.3177-.0005.4759z" fill="#f3f6fe"/></g></svg>