<svg width="57" height="65" viewBox="0 0 57 65" fill="none" xmlns="http://www.w3.org/2000/svg">
<g clip-path="url(#clip0_4832_2913)">
<path d="M25.0052 0C29.1843 -1.84013e-07 33.3227 0.82875 37.1837 2.43968C41.0449 4.05074 44.5533 6.41289 47.5085 9.38974C50.4638 12.3666 52.8087 15.9008 54.4081 19.7902C56.0073 23.6795 56.83 27.8482 56.83 32.0579C56.83 36.2677 56.0073 40.4364 54.4081 44.3257C52.8087 48.2151 50.4638 51.7493 47.5085 54.7262C44.5533 57.703 41.0449 60.0652 37.1837 61.6762C33.3227 63.2872 29.1843 64.1159 25.0052 64.1159H6.8196C3.05324 64.1159 3.66136e-08 61.0403 0 57.2463V6.86956C2.92909e-07 3.07561 3.05324 0 6.8196 0H25.0052Z" fill="url(#paint0_linear_4832_2913)"/>
<path d="M15.8658 0C15.8943 0.377962 15.9124 0.759599 15.9124 1.14493C15.9124 9.36516 9.29705 16.029 1.1366 16.029C0.754017 16.029 0.375268 16.0085 0 15.9798V6.86956C2.92909e-07 3.07561 3.05324 0 6.8196 0H15.8658Z" fill="url(#paint1_linear_4832_2913)"/>
<path d="M41.1198 4.41431C43.4453 5.7901 45.5934 7.46049 47.5087 9.38982C50.4639 12.3667 52.8089 15.9009 54.4082 19.7903C56.0074 23.6796 56.8302 27.8483 56.8302 32.058C56.8302 36.2678 56.0074 40.4364 54.4082 44.3257C52.8089 48.2152 50.4639 51.7494 47.5087 54.7262C44.5535 57.7031 41.045 60.0652 37.1838 61.6763C36.9074 61.7916 36.6284 61.8999 36.3492 62.0073C32.029 54.5565 29.5518 45.8888 29.5518 36.6377C29.5518 24.3817 33.897 13.1482 41.1198 4.41431Z" fill="url(#paint2_linear_4832_2913)"/>
<path fill-rule="evenodd" clip-rule="evenodd" d="M26.9516 19.8289C27.8766 19.3868 28.9528 19.3868 29.8778 19.8289C30.2775 20.02 30.6601 20.3456 31.4244 20.997C31.7289 21.2564 31.8825 21.3865 32.0451 21.4955C32.4176 21.7452 32.8362 21.9194 33.2762 22.0063C33.468 22.0441 33.6674 22.06 34.0658 22.0918C35.0675 22.1717 35.5688 22.2108 35.9867 22.3583C36.9534 22.6998 37.7128 23.4613 38.0542 24.4279C38.2019 24.8458 38.2429 25.3469 38.3229 26.3489C38.3546 26.7472 38.3705 26.9466 38.4083 27.1384C38.4952 27.5785 38.6694 27.9969 38.9191 28.3696C39.0281 28.5322 39.1582 28.6858 39.4177 28.9902C40.069 29.7545 40.3946 30.1371 40.5857 30.5368C41.0278 31.4618 41.0278 32.538 40.5857 33.463C40.3946 33.8627 40.069 34.2453 39.4177 35.0096C39.1587 35.3135 39.028 35.466 38.9191 35.6282C38.6693 36.0009 38.4952 36.4212 38.4083 36.8614C38.3705 37.0532 38.3546 37.2527 38.3229 37.651C38.2429 38.6528 38.2019 39.154 38.0542 39.5719C37.7127 40.5383 36.9531 41.298 35.9867 41.6395C35.5688 41.7871 35.0677 41.8281 34.0658 41.9081C33.6674 41.9399 33.468 41.9557 33.2762 41.9935C32.8361 42.0804 32.4177 42.2546 32.0451 42.5043C31.8825 42.6133 31.7287 42.7415 31.4244 43.0008C30.6596 43.6526 30.2776 43.9797 29.8778 44.1709C28.9528 44.613 27.8766 44.613 26.9516 44.1709C26.5518 43.9798 26.1698 43.6526 25.405 43.0008C25.1007 42.7415 24.9469 42.6133 24.7844 42.5043C24.4117 42.2546 23.9933 42.0804 23.5532 41.9935C23.3614 41.9557 23.162 41.9399 22.7637 41.9081C21.7617 41.8281 21.2606 41.7871 20.8427 41.6395C19.8761 41.298 19.1146 40.5386 18.7731 39.5719C18.6256 39.154 18.5865 38.6527 18.5066 37.651C18.4748 37.2527 18.4589 37.0532 18.4211 36.8614C18.3342 36.4212 18.1601 36.0009 17.9103 35.6282C17.8015 35.466 17.6708 35.3135 17.4118 35.0096C16.7605 34.2453 16.4348 33.8627 16.2437 33.463C15.8016 32.538 15.8016 31.4618 16.2437 30.5368C16.4348 30.1371 16.7604 29.7545 17.4118 28.9902C17.6712 28.6858 17.8013 28.5322 17.9103 28.3696C18.16 27.9969 18.3342 27.5785 18.4211 27.1384C18.4589 26.9466 18.4748 26.7472 18.5066 26.3489C18.5865 25.3473 18.6256 24.8458 18.7731 24.4279C19.1146 23.4612 19.876 22.6998 20.8427 22.3583C21.2606 22.2108 21.7619 22.1717 22.7637 22.0918C23.162 22.06 23.3614 22.0441 23.5532 22.0063C23.9932 21.9194 24.4118 21.7452 24.7844 21.4955C24.947 21.3865 25.1005 21.2564 25.405 20.997C26.1693 20.3456 26.5519 20.02 26.9516 19.8289ZM34.0759 28.1091C33.5877 27.621 32.7958 27.6209 32.3076 28.1091L26.3655 34.0471L24.5198 32.2034C24.0316 31.7156 23.2416 31.7155 22.7535 32.2034C22.2659 32.6917 22.2656 33.4837 22.7535 33.9718L25.4824 36.7006C25.9704 37.1887 26.7624 37.1883 27.2507 36.7006L34.0759 29.8754C34.5632 29.3874 34.5632 28.5972 34.0759 28.1091Z" fill="url(#paint3_radial_4832_2913)"/>
<rect width="3.61213" height="7.8753" transform="matrix(-0.73647 -0.67647 -0.671099 0.741368 17.6914 47.1775)" fill="white"/>
<path d="M11.7334 56.4404L6.41295 51.5534L-5.7173 64.9538C-7.05609 66.4328 -6.95037 68.7257 -5.48117 70.0752C-4.01197 71.4247 -1.73564 71.3198 -0.396851 69.8408L11.7334 56.4404Z" fill="#EAF3FF"/>
<path d="M13.4881 54.5021C13.8587 54.0927 13.8295 53.4579 13.4227 53.0843L9.5752 49.5502C9.16846 49.1766 8.53827 49.2057 8.16763 49.6151L5.49351 52.5692L10.814 57.4562L13.4881 54.5021Z" fill="#C0DAFF"/>
<path d="M46.6008 32.0581C46.6008 21.9408 38.4589 13.7392 28.4152 13.7392C18.3716 13.7392 10.2296 21.9408 10.2296 32.0581C10.2296 42.1753 18.3716 50.3769 28.4152 50.3769V53.8117C16.4884 53.8117 6.81982 44.0722 6.81982 32.0581C6.81982 20.0439 16.4884 10.3044 28.4152 10.3044C40.342 10.3044 50.0106 20.0439 50.0106 32.0581C50.0106 44.0722 40.342 53.8117 28.4152 53.8117V50.3769C38.4589 50.3769 46.6008 42.1753 46.6008 32.0581Z" fill="#EAF3FF"/>
<ellipse cx="28.4151" cy="32.0581" rx="18.1856" ry="18.3188" fill="white" fill-opacity="0.15"/>
</g>
<defs>
<linearGradient id="paint0_linear_4832_2913" x1="37.5273" y1="-7.59512" x2="18.5058" y2="60.206" gradientUnits="userSpaceOnUse">
<stop offset="0.29" stop-color="#0062EE"/>
<stop offset="1" stop-color="#00398A"/>
</linearGradient>
<linearGradient id="paint1_linear_4832_2913" x1="17.1031" y1="13.7398" x2="2.03777" y2="4.43985" gradientUnits="userSpaceOnUse">
<stop offset="0.29" stop-color="#3A8BFF"/>
<stop offset="1" stop-color="#81B5FF"/>
</linearGradient>
<linearGradient id="paint2_linear_4832_2913" x1="35.0006" y1="65.2348" x2="42.1154" y2="18.3959" gradientUnits="userSpaceOnUse">
<stop offset="0.29" stop-color="#0062EE"/>
<stop offset="1" stop-color="#00398A"/>
</linearGradient>
<radialGradient id="paint3_radial_4832_2913" cx="0" cy="0" r="1" gradientUnits="userSpaceOnUse" gradientTransform="translate(28.4147 19.4973) rotate(90) scale(25.0052)">
<stop offset="0.341346" stop-color="white"/>
<stop offset="0.6875" stop-color="#BFDAFF"/>
<stop offset="1" stop-color="#5DA0FF"/>
</radialGradient>
<clipPath id="clip0_4832_2913">
<path d="M0 3C0 1.34314 1.34315 0 3 0H56.83V64.1159H3C1.34315 64.1159 0 62.7728 0 61.1159V3Z" fill="white"/>
</clipPath>
</defs>
</svg>
