<svg fill="none" height="44" viewBox="0 0 44 44" width="44" xmlns="http://www.w3.org/2000/svg"><path clip-rule="evenodd" d="m15 32.6129c0 .7639.606 1.3871 1.3486 1.3871 3.0951-.0032 5.6868-2.2565 6.3082-5.2545h3.7756c3.496 0 6.4357-2.8606 6.5631-6.3796.0652-1.8154-.5749-3.5382-1.7993-4.8422-1.2243-1.304-2.8713-2.0264-4.6364-2.0264l-5.6711-.0064v-5.1043c0-.61685-.3915-1.16021-.9695-1.3328-.5749-.1694-1.1933.07031-1.5134.59129l-2.6569 4.31161c-.6246.7256-.8017 1.7452-.4475 2.6593.3791.9684 1.2741 1.6045 2.2871 1.6172l1.9546.032 7.0199.0064c1.0254 0 1.9795.4155 2.6941 1.1762.7085.7607 1.0815 1.7611 1.0442 2.819-.0746 2.0424-1.8086 3.7044-3.8689 3.7044l-4.9813.0064c-.7489 0-1.3486.6233-1.3486 1.3871 0 1.6397-1.0006 3.0429-2.4052 3.6021v-6.2165c0-.6808.5407-1.237 1.2026-1.237h3.3095c.4195.6106 1.1093 1.0101 1.8893 1.0101 1.2741 0 2.312-1.0676 2.312-2.378s-1.0379-2.378-2.312-2.378c-.7644 0-1.4419.3836-1.8645.9717h-3.3343c-2.1504 0-3.8999 1.7994-3.8999 4.0112z" fill="#fff" fill-rule="evenodd"/></svg>