<svg height="500" viewBox="0 0 486 500" width="486" xmlns="http://www.w3.org/2000/svg" xmlns:xlink="http://www.w3.org/1999/xlink"><radialGradient id="a" cx="-746.7" cy="781.4" gradientTransform="matrix(-28.3 -29.8 -23.1 22 -2596.4 -38900.3)" gradientUnits="userSpaceOnUse" r="13.9"><stop offset=".06" stop-color="#379539"/><stop offset=".42" stop-color="#297c2d"/><stop offset=".7" stop-color="#15561c"/></radialGradient><radialGradient id="b" cx="-773.2" cy="771.2" gradientTransform="matrix(-12 -11.6 -9 9.3 -2155.1 -15858.9)" gradientUnits="userSpaceOnUse" r="13.9"><stop offset="0" stop-color="#073b10" stop-opacity=".7"/><stop offset=".99" stop-color="#084a13" stop-opacity="0"/></radialGradient><linearGradient id="c" gradientTransform="matrix(1 0 0 -1 0 502)" gradientUnits="userSpaceOnUse" x1="69.4" x2="260.8" y1="210.3" y2="210.3"><stop offset="0" stop-color="#52d17c"/><stop offset=".33" stop-color="#4aa647"/></linearGradient><linearGradient id="d" gradientTransform="matrix(1 0 0 -1 0 502)" gradientUnits="userSpaceOnUse" x1="194.4" x2="194.4" y1="335.3" y2="161.7"><stop offset="0" stop-color="#29852f" stop-opacity=".3"/><stop offset=".5" stop-color="#4aa647" stop-opacity="0"/></linearGradient><linearGradient id="e" gradientTransform="matrix(1 0 0 -1 0 502)" gradientUnits="userSpaceOnUse" x1="80.5" x2="311.5" y1="297.2" y2="497.5"><stop offset="0" stop-color="#66d052"/><stop offset="1" stop-color="#85e972"/></linearGradient><radialGradient id="f" cx="-824.1" cy="811" gradientTransform="matrix(-9 0 0 19.1 -7120.4 -15378.7)" gradientUnits="userSpaceOnUse" r="13.9"><stop offset=".29" stop-color="#4eb43b"/><stop offset="1" stop-color="#72cc61" stop-opacity="0"/></radialGradient><linearGradient id="g" gradientTransform="matrix(1 0 0 -1 0 502)" gradientUnits="userSpaceOnUse" x1="182.1" x2="69.4" y1="377" y2="377"><stop offset=".18" stop-color="#c0e075" stop-opacity="0"/><stop offset="1" stop-color="#d1eb95"/></linearGradient><radialGradient id="h" cx="-769.1" cy="808.9" gradientTransform="matrix(-16.9 -13.7 13.6 -16.9 -23523.4 3309.7)" gradientUnits="userSpaceOnUse" r="13.9"><stop offset=".44" stop-color="#79e96d"/><stop offset="1" stop-color="#d0eb76"/></radialGradient><radialGradient id="i" cx="-675.6" cy="793.3" gradientTransform="matrix(16 16 45.5 -45.5 -25315.8 47178.2)" gradientUnits="userSpaceOnUse" r="13.9"><stop offset="0" stop-color="#20a85e"/><stop offset=".94" stop-color="#09442a"/></radialGradient><radialGradient id="j" cx="-657.6" cy="854" gradientTransform="matrix(0 11.2 12.9 0 -10902.8 7734.8)" gradientUnits="userSpaceOnUse" r="13.9"><stop offset=".58" stop-color="#33a662" stop-opacity="0"/><stop offset=".97" stop-color="#98f0b0" stop-opacity=".3"/></radialGradient><path d="m69.4 159.7c0-34.5 28-62.5 62.5-62.5h354.1v361.1c0 23-18.7 41.7-41.7 41.7h-291.6c-46 0-83.3-37.3-83.3-83.3zm0 0" fill="url(#a)"/><path d="m69.4 159.7c0-34.5 28-62.5 62.5-62.5h354.1v361.1c0 23-18.7 41.7-41.7 41.7h-291.6c-46 0-83.3-37.3-83.3-83.3zm0 0" fill="url(#b)"/><path d="m69.4 229.2c0-34.5 28-62.5 62.5-62.5h187.5c-23 0-41.7 18.7-41.7 41.7v83.3c0 23-18.6 41.7-41.7 41.7h-83.3c-46 0-83.3 37.3-83.3 83.3v-187.5zm0 0" fill="url(#c)"/><path d="m69.4 229.2c0-34.5 28-62.5 62.5-62.5h187.5c-23 0-41.7 18.7-41.7 41.7v83.3c0 23-18.6 41.7-41.7 41.7h-83.3c-46 0-83.3 37.3-83.3 83.3v-187.5zm0 0" fill="url(#d)"/><path d="m69.4 83.3c0-46 37.3-83.3 83.3-83.3h166.6v166.7h-166.6c-46 0-83.3 37.3-83.3 83.3zm0 0" fill="url(#e)"/><path d="m69.4 83.3c0-46 37.3-83.3 83.3-83.3h166.6v166.7h-166.6c-46 0-83.3 37.3-83.3 83.3zm0 0" fill="url(#f)"/><path d="m69.4 83.3c0-46 37.3-83.3 83.3-83.3h166.6v166.7h-166.6c-46 0-83.3 37.3-83.3 83.3zm0 0" fill="url(#g)"/><path d="m319.4 0h125c23 0 41.7 18.7 41.7 41.7v83.4c0 23-18.7 41.7-41.7 41.7h-125c-23 0-41.7-18.7-41.7-41.7v-83.4c0-23 18.7-41.7 41.7-41.7zm0 0" fill="url(#h)"/><path d="m45.1 236.1h131.9c24.9 0 45.1 20.2 45.1 45.1v132c0 24.9-20.2 45.1-45.1 45.1h-131.9c-24.9 0-45.1-20.2-45.1-45.1v-132c0-24.9 20.2-45.1 45.1-45.1zm0 0" fill="url(#i)"/><path d="m45.1 236.1h131.9c24.9 0 45.1 20.2 45.1 45.1v132c0 24.9-20.2 45.1-45.1 45.1h-131.9c-24.9 0-45.1-20.2-45.1-45.1v-132c0-24.9 20.2-45.1 45.1-45.1zm0 0" fill="url(#j)"/><path d="m169.5 410.7h-34.2l-21.5-40.5c-.8-1.4-1.4-2.5-1.8-3.4-.4-.9-.7-1.9-1.2-3h-.3c-.5 1.4-1 2.6-1.5 3.4-.5.9-1 2-1.7 3.3l-22.3 40.1h-32.3l38.8-63.6-36.1-63.4h33.8l19.1 36.1c.8 1.5 1.4 2.8 1.9 3.9.6 1.1 1.2 2.3 1.8 3.8h.4c.8-1.7 1.5-3.1 1.9-4.1.5-1 1.2-2.3 2.1-4l19.8-35.8h32.2l-36.6 62.4 37.7 64.5zm0 0" fill="#fff"/></svg>
