<svg height="500" viewBox="0 0 486 500" width="486" xmlns="http://www.w3.org/2000/svg" xmlns:xlink="http://www.w3.org/1999/xlink"><radialGradient id="a" cx="-746.659973" cy="781.440002" gradientTransform="matrix(-28.325952 -29.807629 -23.119165 21.979859 -2596.389893 -38900.308594)" gradientUnits="userSpaceOnUse" r="13.89"><stop offset=".06" stop-color="#379539"/><stop offset=".42" stop-color="#297c2d"/><stop offset=".7" stop-color="#15561c"/></radialGradient><radialGradient id="b" cx="-773.190002" cy="771.25" gradientTransform="matrix(-11.97612 -11.581371 -8.958526 9.268059 -2155.120117 -15858.879883)" gradientUnits="userSpaceOnUse" r="13.89"><stop offset="0" stop-color="#073b10" stop-opacity=".698039"/><stop offset=".99" stop-color="#084a13" stop-opacity="0"/></radialGradient><linearGradient id="c" gradientTransform="matrix(1 0 0 -1 0 502)" gradientUnits="userSpaceOnUse" x1="69.43" x2="260.839996" y1="210.330002" y2="210.330002"><stop offset="0" stop-color="#52d17c"/><stop offset=".33" stop-color="#4aa647"/></linearGradient><linearGradient id="d" gradientTransform="matrix(1 0 0 -1 0 502)" gradientUnits="userSpaceOnUse" x1="194.399994" x2="194.399994" y1="335.329987" y2="161.679993"><stop offset="0" stop-color="#29852f" stop-opacity=".301961"/><stop offset=".5" stop-color="#4aa647" stop-opacity="0"/></linearGradient><linearGradient id="e" gradientTransform="matrix(1 0 0 -1 0 502)" gradientUnits="userSpaceOnUse" x1="80.489998" x2="311.450012" y1="297.220001" y2="497.540009"><stop offset="0" stop-color="#66d052"/><stop offset="1" stop-color="#85e972"/></linearGradient><radialGradient id="f" cx="-824.109985" cy="810.98999" gradientTransform="matrix(-9.02 -0 -0 19.09 -7120.399902 -15378.69043)" gradientUnits="userSpaceOnUse" r="13.89"><stop offset=".29" stop-color="#4eb43b"/><stop offset="1" stop-color="#72cc61" stop-opacity="0"/></radialGradient><linearGradient id="g" gradientTransform="matrix(1 0 0 -1 0 502)" gradientUnits="userSpaceOnUse" x1="182.110001" x2="69.43" y1="377" y2="377"><stop offset=".18" stop-color="#c0e075" stop-opacity="0"/><stop offset="1" stop-color="#d1eb95"/></linearGradient><radialGradient id="h" cx="-769.140015" cy="808.900024" gradientTransform="matrix(-16.907703 -13.681816 13.641123 -16.863449 -23523.369141 3309.709961)" gradientUnits="userSpaceOnUse" r="13.89"><stop offset=".44" stop-color="#79e96d"/><stop offset="1" stop-color="#d0eb76"/></radialGradient><radialGradient id="i" cx="-675.640015" cy="793.280029" gradientTransform="matrix(15.991965 15.997547 45.541533 -45.54797 -25315.849609 47178.179688)" gradientUnits="userSpaceOnUse" r="13.89"><stop offset="0" stop-color="#20a85e"/><stop offset=".94" stop-color="#09442a"/></radialGradient><radialGradient id="j" cx="-657.619995" cy="853.98999" gradientTransform="matrix(0 11.2 12.9 -0 -10902.849609 7734.799805)" gradientUnits="userSpaceOnUse" r="13.89"><stop offset=".58" stop-color="#33a662" stop-opacity="0"/><stop offset=".97" stop-color="#98f0b0" stop-opacity=".301961"/></radialGradient><path d="m69.429688 159.71875c0-34.519531 27.980468-62.5 62.492187-62.5h354.089844v361.109375c0 23.011719-18.652344 41.671875-41.660157 41.671875h-291.613281c-46.007812 0-83.308593-37.308594-83.308593-83.328125zm0 0" fill="url(#a)"/><path d="m69.429688 159.71875c0-34.519531 27.980468-62.5 62.492187-62.5h354.089844v361.109375c0 23.011719-18.652344 41.671875-41.660157 41.671875h-291.613281c-46.007812 0-83.308593-37.308594-83.308593-83.328125zm0 0" fill="url(#b)"/><path d="m69.429688 229.171875c0-34.523437 27.980468-62.5 62.492187-62.5h187.457031c-23.007812 0-41.660156 18.65625-41.660156 41.667969v83.332031c0 23.007813-18.648438 41.667969-41.660156 41.667969h-83.308594c-46.011719 0-83.308594 37.308594-83.308594 83.332031v-187.5zm0 0" fill="url(#c)"/><path d="m69.429688 229.171875c0-34.523437 27.980468-62.5 62.492187-62.5h187.457031c-23.007812 0-41.660156 18.65625-41.660156 41.667969v83.332031c0 23.007813-18.648438 41.667969-41.660156 41.667969h-83.308594c-46.011719 0-83.308594 37.308594-83.308594 83.332031v-187.5zm0 0" fill="url(#d)"/><path d="m69.429688 83.328125c0-46.019531 37.300781-83.328125 83.308593-83.328125h166.632813v166.671875h-166.632813c-46.007812 0-83.308593 37.308594-83.308593 83.328125zm0 0" fill="url(#e)"/><path d="m69.429688 83.328125c0-46.019531 37.300781-83.328125 83.308593-83.328125h166.632813v166.671875h-166.632813c-46.007812 0-83.308593 37.308594-83.308593 83.328125zm0 0" fill="url(#f)"/><path d="m69.429688 83.328125c0-46.019531 37.300781-83.328125 83.308593-83.328125h166.632813v166.671875h-166.632813c-46.007812 0-83.308593 37.308594-83.308593 83.328125zm0 0" fill="url(#g)"/><path d="m319.371094 0h124.96875c23.007812 0 41.660156 18.652344 41.660156 41.660156v83.351563c0 23.007812-18.652344 41.660156-41.660156 41.660156h-124.96875c-23.007813 0-41.660156-18.652344-41.660156-41.660156v-83.351563c0-23.007812 18.652343-41.660156 41.660156-41.660156zm0 0" fill="url(#h)"/><path d="m45.128906 236.109375h131.910156c24.925782 0 45.132813 20.207031 45.132813 45.128906v131.960938c0 24.925781-20.207031 45.128906-45.132813 45.128906h-131.910156c-24.921875 0-45.128906-20.203125-45.128906-45.128906v-131.960938c0-24.921875 20.207031-45.128906 45.128906-45.128906zm0 0" fill="url(#i)"/><path d="m45.128906 236.109375h131.910156c24.925782 0 45.132813 20.207031 45.132813 45.128906v131.960938c0 24.925781-20.207031 45.128906-45.132813 45.128906h-131.910156c-24.921875 0-45.128906-20.203125-45.128906-45.128906v-131.960938c0-24.921875 20.207031-45.128906 45.128906-45.128906zm0 0" fill="url(#j)"/><path d="m169.480469 410.710938h-34.25l-21.5-40.472657c-.769531-1.417969-1.359375-2.539062-1.769531-3.367187-.351563-.882813-.742188-1.890625-1.152344-3.011719h-.347656c-.53125 1.421875-1.03125 2.570313-1.5 3.449219-.472657.890625-1.03125 1.980468-1.679688 3.28125l-22.300781 40.109375h-32.300781l38.761718-63.578125-36.101562-63.402344h33.800781l19.109375 36.132812c.769531 1.476563 1.421875 2.777344 1.949219 3.898438.589843 1.058594 1.179687 2.328125 1.769531 3.808594h.351562c.820313-1.707032 1.46875-3.070313 1.949219-4.070313.53125-1 1.242188-2.328125 2.121094-3.976562l19.820313-35.773438h32.210937l-36.632813 62.433594 37.699219 64.546875zm0 0" fill="#fff"/></svg>