<?xml version="1.0" encoding="UTF-8"?>
<svg xmlns="http://www.w3.org/2000/svg" xmlns:xlink="http://www.w3.org/1999/xlink" width="0" height="0">
<defs>
<symbol id="dlnews-logo" viewBox="0 0 164 40" fill="none" xmlns="http://www.w3.org/2000/svg">
  <path
		d="M61.1907 12.031C60.5312 11.194 59.6577 10.5935 58.5752 10.2205C57.4924 9.84748 56.1687 9.66553 54.5993 9.66553C53.1162 9.66553 51.7379 9.69282 50.4688 9.74286C49.5134 9.78379 48.5947 9.82928 47.7122 9.88841C47.2344 9.92026 46.866 10.316 46.866 10.7937C46.866 14.2191 46.866 27.02 46.866 30.4409C46.866 30.9184 47.2344 31.3143 47.7122 31.346C48.5947 31.4006 49.5134 31.4508 50.4688 31.4917C51.7379 31.5417 53.1116 31.5689 54.5993 31.5689C56.164 31.5689 57.4924 31.3826 58.5752 31.0139C59.6577 30.6409 60.5265 30.0406 61.1907 29.2036C61.8503 28.3664 62.3281 27.2429 62.6282 25.8327C62.9284 24.4225 63.0785 22.6848 63.0785 20.6195C63.0785 18.5543 62.9284 16.8211 62.6282 15.4064C62.3281 13.9962 61.8503 12.868 61.1907 12.0356V12.031ZM59.3485 25.6098C59.0301 26.8153 58.4887 27.675 57.7243 28.1937C56.9603 28.7075 55.9184 28.967 54.5993 28.967C53.28 28.967 52.12 28.9534 51.0555 28.9215C50.9829 28.9215 50.91 28.9215 50.8372 28.9168C50.346 28.9032 49.9593 28.4985 49.9593 28.0071V13.1819C49.9593 12.686 50.355 12.2812 50.8462 12.2721H51.1646C52.1745 12.2448 53.3209 12.2357 54.5993 12.2357C55.8775 12.2357 56.9603 12.4996 57.7243 13.0227C58.4887 13.5504 59.0301 14.4147 59.3485 15.6202C59.6667 16.8256 59.8261 18.4906 59.8261 20.615C59.8261 22.7394 59.6667 24.4043 59.3485 25.6098Z"
		fill="var(--dlnews)"
	/>
	<path
		d="M72.5129 28.7212C71.8305 28.7212 71.3257 28.5621 70.9982 28.2436C70.6661 27.9252 70.5021 27.4339 70.5021 26.7743V10.8528C70.5021 10.3524 70.0928 9.94299 69.5923 9.94299H68.3505C67.8503 9.94299 67.4407 10.3524 67.4407 10.8528V27.2383C67.4407 28.412 67.782 29.39 68.4596 30.1633C69.1421 30.9367 70.2658 31.3233 71.8305 31.3233C73.2544 31.3233 74.6782 31.3143 76.0975 31.2914C77.2119 31.2734 78.3083 31.2325 79.3955 31.1686C79.8959 31.1367 80.278 30.7001 80.2417 30.1996L80.2008 29.5764C80.1688 29.0988 79.7731 28.7258 79.291 28.7258H72.5037L72.5129 28.7212Z"
		fill="var(--dlnews)"
	/>
	<path
		d="M96.7046 22.0388C96.7046 22.6165 96.7182 23.1988 96.7501 23.7856C96.7818 24.3724 96.8274 24.9775 96.891 25.5961H96.5179C96.2723 24.9775 96.0131 24.3815 95.7449 23.8038C95.4763 23.2261 95.2171 22.703 94.9715 22.2253L89.2487 11.3668C89.0031 10.8937 88.7483 10.5389 88.489 10.2978C88.2298 10.0613 87.8568 9.94299 87.3609 9.94299H84.7953C83.6397 9.94299 83.062 10.5116 83.062 11.6443V30.377C83.062 30.8774 83.4716 31.287 83.9718 31.287H86.6375C87.138 31.287 87.5473 30.8774 87.5473 30.377V18.7908C87.5473 18.2358 87.5247 17.6717 87.4837 17.1031C87.4428 16.5345 87.3929 15.975 87.329 15.4154H87.6701C87.8341 15.9522 88.0341 16.5072 88.2754 17.0849C88.5119 17.6626 88.7529 18.1903 89.0031 18.6634L94.9123 29.8632C95.1396 30.3361 95.3855 30.6954 95.6537 30.932C95.9222 31.1686 96.3133 31.287 96.8274 31.287H100.217C100.717 31.287 101.126 30.8774 101.126 30.377V10.8528C101.126 10.3524 100.717 9.94299 100.217 9.94299H97.5824C97.0776 9.94299 96.6726 10.3524 96.6726 10.8573L96.6999 22.0388H96.7046Z"
		fill="var(--dlnews)"
	/>
	<path
		d="M118.54 23.9722C119.263 23.2807 119.614 22.2345 119.591 20.8334C119.591 19.1002 119.027 17.7992 117.903 16.9212C116.779 16.0433 114.928 15.6066 112.349 15.6066C110.47 15.6066 108.955 15.8659 107.8 16.3799C106.644 16.8939 105.798 17.74 105.262 18.9182C104.725 20.0919 104.456 21.684 104.456 23.681C104.456 25.5189 104.72 27.02 105.243 28.1981C105.771 29.3718 106.626 30.2452 107.809 30.8139C108.996 31.3826 110.556 31.6645 112.494 31.6645C113.236 31.6645 114.009 31.6282 114.814 31.5553C115.619 31.4825 116.402 31.3643 117.166 31.2006C117.658 31.0958 118.113 30.964 118.531 30.8093C118.949 30.6546 119.163 30.2452 119.1 29.8223L118.927 28.7076C118.831 28.08 118.394 27.7524 117.908 27.7979C117.148 27.8752 116.388 27.9298 115.633 27.9662C114.592 28.0162 113.718 28.0437 113.018 28.0437C112.049 28.0437 111.289 27.9116 110.743 27.6432C110.197 27.3748 109.81 26.8972 109.583 26.2057L109.574 26.183C109.387 25.6053 109.842 25.0139 110.447 25.0139H114.778C116.552 25.0139 117.798 24.6682 118.522 23.9767L118.54 23.9722ZM113.527 22.4392H110.256C109.715 22.4392 109.287 21.9615 109.351 21.4247C109.396 21.0517 109.456 20.7287 109.538 20.4603C109.724 19.8189 110.052 19.3868 110.529 19.1593C111.002 18.9319 111.662 18.8182 112.508 18.8182C113.454 18.8182 114.132 18.9592 114.532 19.2367C114.933 19.5142 115.146 20.0145 115.165 20.7378C115.165 21.2746 115.064 21.6931 114.869 21.9888C114.673 22.289 114.223 22.4392 113.522 22.4392H113.527Z"
		fill="var(--dlnews)"
	/>
	<path
		d="M139.729 25.9054C139.647 26.3375 139.579 26.756 139.529 27.1564C139.479 27.5567 139.411 27.9752 139.329 28.4073H138.956C138.892 27.9752 138.824 27.5521 138.738 27.1382C138.656 26.7242 138.583 26.3148 138.519 25.9008L136.881 17.426C136.818 16.9939 136.641 16.6482 136.34 16.3889C136.04 16.1296 135.685 16.0022 135.271 16.0022H132.301C131.868 16.0022 131.505 16.1296 131.218 16.3889C130.931 16.6482 130.754 16.9802 130.69 17.3942L129.021 25.9008C128.957 26.3148 128.893 26.7333 128.821 27.1518C128.748 27.5749 128.68 27.9934 128.621 28.4029H128.22C128.179 27.9888 128.129 27.5749 128.066 27.1518C128.002 26.7288 127.929 26.3102 127.847 25.9008L125.896 16.7209C125.805 16.3024 125.436 16.0022 125.004 16.0022H122.315C121.715 16.0022 121.283 16.5708 121.438 17.1485L124.904 30.0768C124.986 30.4498 125.172 30.7409 125.459 30.9592C125.746 31.1775 126.087 31.2823 126.478 31.2823H129.912C130.326 31.2823 130.686 31.1549 130.995 30.8957C131.304 30.6364 131.491 30.3043 131.55 29.8904L133.219 21.2927C133.283 20.8605 133.343 20.4329 133.406 20.0099C133.47 19.5868 133.529 19.1592 133.592 18.7271H133.965C134.048 19.1592 134.111 19.5868 134.152 20.0099C134.193 20.4329 134.243 20.8605 134.307 21.2927L135.976 29.8904C136.04 30.3043 136.222 30.6364 136.531 30.8957C136.841 31.1549 137.2 31.2823 137.614 31.2823H141.08C141.472 31.2823 141.813 31.1732 142.099 30.9592C142.386 30.7409 142.572 30.4498 142.654 30.0768L146.121 17.1485C146.275 16.5708 145.838 16.0022 145.242 16.0022H142.554C142.126 16.0022 141.753 16.3024 141.663 16.7209L139.711 25.9008L139.729 25.9054Z"
		fill="var(--dlnews)"
	/>
	<path
		d="M161.351 23.9721C160.732 23.3216 159.781 22.8348 158.503 22.5028L154.513 21.5429C153.79 21.3564 153.276 21.1881 152.967 21.0334C152.657 20.8788 152.503 20.574 152.503 20.1191C152.503 19.7279 152.589 19.4549 152.767 19.3003C152.939 19.1456 153.244 19.0501 153.681 19.0046C154.113 18.9637 154.732 18.9545 155.537 18.9727C156.483 18.9727 157.461 18.9773 158.462 18.9864C159.181 18.9955 159.899 19.0046 160.618 19.0182C161.087 19.0273 161.487 18.6771 161.537 18.2085L161.664 17.044C161.719 16.5618 161.382 16.116 160.9 16.0432C160.486 15.9795 160.036 15.9249 159.558 15.8794C158.735 15.7975 157.889 15.7293 157.02 15.6793C156.151 15.6292 155.35 15.6019 154.609 15.6019C153.021 15.6019 151.747 15.7475 150.788 16.0341C149.828 16.3252 149.137 16.7801 148.713 17.4124C148.29 18.0402 148.081 18.8818 148.081 19.9326C148.081 20.756 148.19 21.4702 148.404 22.0661C148.622 22.6665 148.995 23.1715 149.532 23.5809C150.069 23.9949 150.82 24.336 151.788 24.5999L155.655 25.5597C156.419 25.7462 156.974 25.9191 157.325 26.0874C157.675 26.2512 157.852 26.5605 157.852 27.0154C157.852 27.3884 157.748 27.6659 157.543 27.8524C157.338 28.0389 156.956 28.1571 156.397 28.2073C155.842 28.2572 155.036 28.2845 153.986 28.2845H151.943C151.261 28.2845 150.633 28.2799 150.055 28.2709C149.846 28.2709 149.65 28.2619 149.469 28.2572C148.995 28.2436 148.595 28.5983 148.541 29.0669L148.418 30.2042C148.363 30.691 148.713 31.1323 149.2 31.2052C150.369 31.3732 151.461 31.4824 152.471 31.5326C153.726 31.5962 154.677 31.6235 155.319 31.6235C156.947 31.6235 158.276 31.496 159.308 31.2368C160.341 30.9776 161.091 30.509 161.564 29.8312C162.037 29.1487 162.274 28.1707 162.274 26.8926C162.274 25.6143 161.965 24.6181 161.346 23.9675L161.351 23.9721Z"
		fill="var(--dlnews)"
	/>
	<path
		fill-rule="evenodd"
		clip-rule="evenodd"
		d="M29.3657 3.98376H9.32277C5.22866 3.98376 1.86694 7.34549 1.86694 11.4396V31.3552C1.86694 33.1884 2.59933 34.8396 3.82301 36.1816C6.02473 38.5652 10.0551 37.0368 10.0551 33.7388V29.158C10.0551 28.7896 9.87319 28.4848 9.62754 28.3028C8.71321 27.6295 8.09907 26.2875 8.09907 24.7591C8.09907 23.0486 8.89516 21.5839 9.99145 20.9697C10.2963 20.7878 10.4782 20.5421 10.601 20.1737C10.8467 19.1957 11.2106 18.2813 11.7019 17.4261C11.0923 17.3669 10.5419 16.9985 10.2371 16.5117C9.01343 14.6785 7.36669 12.8452 6.08386 9.91112C5.83822 9.42436 5.90191 8.81025 6.26584 8.32352C6.26584 8.26438 6.32498 8.26438 6.38867 8.20069C6.69344 7.89592 7.18473 7.95505 7.48951 8.25983C9.44559 10.0931 11.8293 10.6435 13.1121 12.4131C13.2349 12.1674 13.3577 11.9855 13.4806 11.8035C14.0901 11.0711 15.009 10.6435 15.9234 10.7663C16.351 10.8255 16.7786 10.5844 17.0242 10.2159C17.3927 9.66548 17.9386 9.23788 18.5527 9.0559C19.7764 8.68743 20.9955 9.17872 21.6688 10.2159C21.9144 10.5844 22.342 10.7663 22.7696 10.7663C23.1381 10.7072 23.502 10.7663 23.8705 10.8891C24.4209 11.0711 24.8485 11.3759 25.217 11.8035C25.3398 11.9855 25.5218 12.172 25.5855 12.4131C26.8091 10.7618 28.9471 10.3979 30.8395 8.5646C31.2671 8.25983 31.8175 8.19614 32.3043 8.50547C32.4271 8.5646 32.4864 8.62829 32.5499 8.75112C32.7955 9.05589 32.8547 9.48352 32.6727 9.85199L32.6138 9.97481C31.3307 12.9089 29.7434 14.7422 28.5195 16.5754C28.2147 17.1258 27.6643 17.4306 27.0548 17.4898C27.6051 18.345 27.9691 19.2639 28.1558 20.2374C28.2147 20.6058 28.4603 20.8469 28.7651 21.0334C29.7434 21.5839 30.4755 22.7439 30.5986 24.2087C30.5986 24.3906 30.6575 24.5771 30.6575 24.8182C30.6575 26.4695 29.9251 27.8752 28.8835 28.4848C28.8243 28.5438 28.7607 28.5438 28.7015 28.6076V28.9124C28.7015 28.9124 28.7015 32.0876 28.8835 33.4932C29.3111 37.9556 32.9775 37.2824 32.9775 37.2824C36.2756 36.732 36.8898 33.616 36.8898 31.478V11.4396C36.8898 7.34549 33.5279 3.98376 29.3747 3.98376H29.3657Z"
		fill="var(--dlnews)"
	/>
	<path
		fill-rule="evenodd"
		clip-rule="evenodd"
		d="M25.2035 20.1145C25.2035 20.1539 25.2035 20.1539 25.2035 20.1145L25.0806 20.2373C24.1663 20.9697 22.8198 20.9697 21.8418 20.2373V20.2964C21.8418 20.5421 21.7826 20.724 21.719 20.9697C21.4141 21.5793 20.7409 22.0069 19.9448 22.1297H19.5764C18.2935 22.1297 17.2564 21.2745 17.2564 20.2964C16.2783 21.0289 14.9955 21.0289 14.0175 20.2964C13.8946 20.1736 13.7718 20.0508 13.649 19.928C13.467 20.2328 13.3442 20.5375 13.3442 20.8423C13.3442 21.1471 13.4034 21.4519 13.5899 21.7567C14.0175 22.5527 14.2631 23.4671 14.2631 24.386C14.2631 25.364 14.0175 26.3421 13.467 27.1336C13.0986 27.8069 13.1623 28.5983 13.649 29.1487C14.9318 30.6773 17.0107 32.0194 18.9668 32.1422H19.4535C21.4687 32.1422 23.0609 31.0411 24.3437 29.5127C24.5257 29.2671 24.7122 29.0259 24.8941 28.8395C25.2626 28.2891 25.3217 27.5567 24.9533 27.0062C24.5257 26.2102 24.28 25.2958 24.28 24.3769C24.28 23.3989 24.5257 22.4845 25.0124 21.6293C25.3172 21.1426 25.3809 20.5921 25.1944 20.1008L25.2035 20.1145ZM22.0874 24.3314C22.1465 24.5134 22.1466 24.6999 21.9646 24.8818C21.9646 24.8818 20.8046 27.0199 19.2761 27.0199C17.7477 27.0199 16.5877 24.8818 16.5877 24.8818C16.4057 24.6999 16.4057 24.4542 16.5877 24.2723C16.7105 24.1495 16.8333 24.0903 16.9561 24.1495C16.9561 24.1495 17.8705 24.4542 19.3398 24.4542C20.8091 24.4542 21.6007 24.1495 21.6007 24.1495C21.8463 24.0903 22.0283 24.2086 22.0874 24.3314Z"
		fill="var(--dlnews)"
	/>
</symbol>
</defs>
</svg>