<svg width="388" height="132" viewBox="0 0 388 132" fill="none" xmlns="http://www.w3.org/2000/svg">
<g clip-path="url(#clip0_169_315)">
<path fill-rule="evenodd" clip-rule="evenodd" d="M17.07 68.7699C16.6074 69.1027 16.072 69.3199 15.5083 69.4034C14.9446 69.4869 14.3692 69.4343 13.83 69.2499L10.65 68.1599C10.1699 67.9963 9.75314 67.6865 9.45799 67.274C9.16285 66.8616 9.00415 66.3671 9.00415 65.8599C9.00415 65.3527 9.16285 64.8583 9.45799 64.4458C9.75314 64.0334 10.1699 63.7236 10.65 63.5599L13.83 62.4699C14.6433 62.1918 15.5295 62.2156 16.3267 62.5369C17.1239 62.8582 17.7789 63.4557 18.172 64.22C18.5651 64.9844 18.6701 65.8647 18.4677 66.7001C18.2654 67.5354 17.7693 68.2701 17.07 68.7699Z" fill="#0DFF81"/>
<path fill-rule="evenodd" clip-rule="evenodd" d="M16.37 95.4401C16.1227 95.0115 16.043 94.5064 16.1465 94.0224C16.2499 93.5385 16.5291 93.1101 16.93 92.8201L24.34 87.4801C24.9699 87.0254 25.7547 86.8394 26.5217 86.9632C27.2886 87.087 27.9751 87.5103 28.43 88.1401C28.49 88.2201 28.54 88.3101 28.59 88.3901C28.7834 88.7227 28.9092 89.0903 28.9601 89.4717C29.011 89.8531 28.986 90.2408 28.8866 90.6125C28.7872 90.9842 28.6152 91.3326 28.3807 91.6377C28.1462 91.9427 27.8537 92.1984 27.52 92.3901L27.25 92.5301L18.92 96.2801C18.4677 96.4821 17.9564 96.5091 17.4853 96.3558C17.0142 96.2024 16.6168 95.8797 16.37 95.4501" fill="white"/>
<path fill-rule="evenodd" clip-rule="evenodd" d="M28.59 44.3505C28.3812 44.7004 28.1032 45.0041 27.7731 45.2431C27.443 45.4821 27.0677 45.6513 26.67 45.7405C26.2697 45.8285 25.8553 45.8312 25.4539 45.7485C25.0525 45.6658 24.6729 45.4995 24.34 45.2605L16.93 39.9105C16.5296 39.6192 16.2514 39.1899 16.1493 38.7054C16.0472 38.2209 16.1285 37.7158 16.3773 37.2877C16.6262 36.8597 17.025 36.5392 17.4965 36.3882C17.968 36.2372 18.4788 36.2665 18.93 36.4705L27.26 40.2105C27.6109 40.3664 27.9276 40.59 28.192 40.8685C28.4564 41.147 28.6632 41.4749 28.8007 41.8335C28.9381 42.192 29.0035 42.5741 28.9931 42.958C28.9827 43.3419 28.8967 43.7199 28.74 44.0705C28.74 44.1605 28.65 44.2505 28.6 44.3405" fill="white"/>
<path d="M36.09 106.54L35.25 131.45H11.85C8.708 131.447 5.69544 130.198 3.47371 127.976C1.25198 125.755 0.00264813 122.742 0 119.6L0 114.3C12.4459 114.318 24.7515 111.672 36.09 106.54Z" fill="url(#paint0_linear_169_315)"/>
<path fill-rule="evenodd" clip-rule="evenodd" d="M99.1 95.4404C98.8532 95.87 98.4558 96.1927 97.9847 96.3461C97.5136 96.4994 97.0023 96.4725 96.55 96.2704L88.22 92.5204C87.5145 92.2074 86.9622 91.627 86.6847 90.9069C86.4071 90.1868 86.427 89.3859 86.74 88.6804L86.89 88.3904C87.0806 88.0557 87.3358 87.7623 87.6408 87.527C87.9457 87.2917 88.2944 87.1193 88.6664 87.0197C89.0385 86.9202 89.4267 86.8955 89.8083 86.9471C90.19 86.9988 90.5577 87.1256 90.89 87.3204L91.14 87.4804L98.55 92.8204C98.9509 93.1104 99.2301 93.5388 99.3335 94.0228C99.4369 94.5067 99.3573 95.0118 99.11 95.4404" fill="white"/>
<path fill-rule="evenodd" clip-rule="evenodd" d="M98.5401 39.9205L91.1301 45.2705C90.4948 45.7226 89.706 45.904 88.9372 45.7746C88.1683 45.6452 87.4823 45.2156 87.0301 44.5805L86.8901 44.3605C86.6923 44.0323 86.5614 43.6684 86.5046 43.2896C86.4479 42.9107 86.4665 42.5244 86.5594 42.1528C86.6523 41.7812 86.8177 41.4315 87.046 41.124C87.2744 40.8164 87.5612 40.5569 87.8901 40.3605C87.9813 40.3006 88.0785 40.2504 88.1801 40.2105L96.5101 36.4705C96.9612 36.2665 97.472 36.2372 97.9436 36.3882C98.4151 36.5392 98.8139 36.8597 99.0627 37.2877C99.3116 37.7158 99.3928 38.2209 99.2907 38.7054C99.1887 39.1899 98.9105 39.6192 98.5101 39.9105" fill="white"/>
<path fill-rule="evenodd" clip-rule="evenodd" d="M107.47 65.8597C107.472 66.3666 107.315 66.8612 107.02 67.2739C106.726 67.6865 106.31 67.9964 105.83 68.1598L102.64 69.2497C101.744 69.5418 100.77 69.469 99.9272 69.0472C99.0848 68.6253 98.4426 67.8884 98.14 66.9962C97.8373 66.104 97.8985 65.1285 98.3104 64.2811C98.7222 63.4338 99.4515 62.783 100.34 62.4697C101.086 62.2197 101.894 62.2197 102.64 62.4697L105.83 63.5597C106.309 63.7244 106.725 64.0346 107.019 64.447C107.313 64.8593 107.47 65.3533 107.47 65.8597Z" fill="#B3D2FF"/>
<path d="M28.84 42.0001C28.961 42.3898 29.0013 42.8001 28.9583 43.2059C28.9153 43.6116 28.79 44.0044 28.59 44.3601C28.3812 44.71 28.1032 45.0138 27.7731 45.2528C27.443 45.4917 27.0677 45.661 26.67 45.7501C26.2697 45.8381 25.8553 45.8408 25.4539 45.7581C25.0525 45.6754 24.6729 45.5091 24.34 45.2701L16.93 39.9201C16.5296 39.6289 16.2514 39.1995 16.1493 38.715C16.0472 38.2305 16.1285 37.7254 16.3773 37.2974C16.6262 36.8693 17.025 36.5488 17.4965 36.3978C17.968 36.2469 18.4788 36.2762 18.93 36.4801L27.26 40.2201C27.6332 40.3897 27.9667 40.6358 28.2389 40.9424C28.511 41.249 28.7158 41.6094 28.84 42.0001ZM28.84 90.7601C28.7135 91.1499 28.5066 91.5089 28.2327 91.8138C27.9589 92.1186 27.6241 92.3627 27.25 92.5301L18.92 96.2801C18.4661 96.4978 17.9468 96.5363 17.4657 96.388C16.9847 96.2397 16.5773 95.9154 16.3248 95.4799C16.0723 95.0443 15.9934 94.5296 16.1037 94.0385C16.214 93.5473 16.5055 93.1158 16.92 92.8301L24.33 87.4901C24.9599 87.0354 25.7447 86.8495 26.5117 86.9732C27.2786 87.097 27.9651 87.5203 28.42 88.1501C28.48 88.2301 28.53 88.3201 28.58 88.4001C28.78 88.7558 28.9053 89.1485 28.9483 89.5543C28.9913 89.9601 28.951 90.3704 28.83 90.7601M13.83 69.2601L10.65 68.1701C10.17 68.0064 9.75315 67.6967 9.458 67.2842C9.16285 66.8717 9.00416 66.3773 9.00416 65.8701C9.00416 65.3629 9.16285 64.8684 9.458 64.456C9.75315 64.0435 10.17 63.7338 10.65 63.5701L13.83 62.4801C14.2768 62.3226 14.7503 62.2553 15.2233 62.2822C15.6962 62.3091 16.1591 62.4296 16.5852 62.6366C17.0112 62.8437 17.3919 63.1333 17.7052 63.4886C18.0185 63.8439 18.2582 64.2578 18.4104 64.7064C18.5626 65.155 18.6242 65.6293 18.5918 66.1019C18.5593 66.5745 18.4333 67.0359 18.2212 67.4595C18.0091 67.883 17.7151 68.2603 17.3561 68.5694C16.9971 68.8785 16.5804 69.1132 16.13 69.2601C15.3837 69.5101 14.5763 69.5101 13.83 69.2601ZM50.72 8.88898e-05H32.34C32.3374 8.5773 28.9296 16.8026 22.8655 22.8685C16.8014 28.9345 8.57721 32.3448 0 32.3501L0 114.3C12.4459 114.318 24.7515 111.672 36.09 106.54L37.52 64.1801C34.99 62.9301 33.18 59.6101 33.18 55.7301C33.18 51.3601 35.46 47.7301 38.47 46.9101C38.8803 44.279 39.8118 41.7564 41.21 39.4901C40.552 39.4102 39.921 39.1813 39.3647 38.8209C38.8085 38.4605 38.3418 37.978 38 37.4101C35.28 33.4101 31.61 29.3101 28.8 22.6801C28.541 22.1082 28.4397 21.4775 28.5065 20.8533C28.5733 20.2291 28.8059 19.6342 29.18 19.1301C29.4614 18.7619 29.8775 18.5203 30.3368 18.4585C30.7961 18.3966 31.2612 18.5195 31.63 18.8001C31.708 18.8614 31.7815 18.9283 31.85 19.0001C36.2 23.1201 41.43 24.3501 44.32 28.3001C44.5301 27.8093 44.8096 27.3513 45.15 26.9401C45.9679 25.8796 47.1142 25.1199 48.4096 24.7797C49.705 24.4396 51.0766 24.5382 52.31 25.0601C52.6892 23.7802 53.4719 22.6572 54.5415 21.8586C55.6111 21.06 56.9102 20.6285 58.245 20.6285C59.5798 20.6285 60.8789 21.06 61.9485 21.8586C63.0181 22.6572 63.8008 23.7802 64.18 25.0601C65.4918 24.4711 66.9777 24.3996 68.34 24.8601C71.6898 18.4819 75.8217 12.5461 80.64 7.19009C71.3805 2.44783 61.1232 -0.0170617 50.72 8.88898e-05Z" fill="url(#paint1_linear_169_315)"/>
<path fill-rule="evenodd" clip-rule="evenodd" d="M17.07 68.7699C16.6074 69.1027 16.072 69.3199 15.5083 69.4034C14.9446 69.4869 14.3692 69.4343 13.83 69.2499L10.65 68.1599C10.1699 67.9963 9.75314 67.6865 9.45799 67.274C9.16285 66.8616 9.00415 66.3671 9.00415 65.8599C9.00415 65.3527 9.16285 64.8583 9.45799 64.4458C9.75314 64.0334 10.1699 63.7236 10.65 63.5599L13.83 62.4699C14.6433 62.1918 15.5295 62.2156 16.3267 62.5369C17.1239 62.8582 17.7789 63.4557 18.172 64.22C18.5651 64.9844 18.6701 65.8647 18.4677 66.7001C18.2654 67.5354 17.7693 68.2701 17.07 68.7699Z" fill="#B3D2FF"/>
<path d="M105.83 68.1604L102.64 69.2504C101.744 69.5425 100.77 69.4697 99.9271 69.0478C99.0847 68.626 98.4426 67.8891 98.1399 66.9969C97.8372 66.1047 97.8985 65.1292 98.3103 64.2818C98.7222 63.4345 99.4514 62.7836 100.34 62.4704C101.086 62.2204 101.894 62.2204 102.64 62.4704L105.83 63.5604C106.31 63.7241 106.727 64.0339 107.022 64.4463C107.317 64.8588 107.476 65.3533 107.476 65.8604C107.476 66.3676 107.317 66.8621 107.022 67.2745C106.727 67.687 106.31 67.9968 105.83 68.1604ZM99.1 95.4404C98.8532 95.87 98.4558 96.1928 97.9847 96.3461C97.5136 96.4995 97.0023 96.4725 96.55 96.2704L88.22 92.5204C87.5145 92.2075 86.9622 91.6271 86.6847 90.9069C86.4071 90.1868 86.427 89.3859 86.74 88.6804L86.89 88.3904C87.0806 88.0558 87.3358 87.7623 87.6408 87.527C87.9457 87.2917 88.2944 87.1193 88.6664 87.0198C89.0385 86.9202 89.4267 86.8956 89.8083 86.9472C90.19 86.9988 90.5577 87.1257 90.89 87.3204L91.14 87.4804L98.55 92.8204C98.9509 93.1105 99.2301 93.5389 99.3335 94.0228C99.4369 94.5067 99.3573 95.0118 99.11 95.4404M86.63 42.0004C86.7565 41.6106 86.9633 41.2517 87.2372 40.9468C87.5111 40.6419 87.8459 40.3979 88.22 40.2304L96.55 36.4904C97.0012 36.2865 97.5119 36.2572 97.9835 36.4082C98.455 36.5592 98.8538 36.8797 99.1027 37.3077C99.3515 37.7357 99.4328 38.2409 99.3307 38.7253C99.2286 39.2098 98.9504 39.6392 98.55 39.9304L91.14 45.2804C90.5048 45.7326 89.716 45.9139 88.9471 45.7845C88.1782 45.6551 87.4922 45.2256 87.04 44.5904L86.9 44.3704C86.6919 44.0162 86.5603 43.6223 86.5138 43.214C86.4673 42.8058 86.5069 42.3924 86.63 42.0004ZM86.3 10.4604C84.47 9.28043 82.59 8.19043 80.64 7.19043C75.8217 12.5465 71.6898 18.4822 68.34 24.8604C69.5247 25.2398 70.5692 25.964 71.34 26.9404C71.6712 27.3581 71.9499 27.8149 72.17 28.3004C74.88 24.5904 79.65 23.7504 83.83 19.7704C84.2347 19.3494 84.7765 19.0868 85.3577 19.03C85.9389 18.9732 86.5213 19.1258 87 19.4604C87.2166 19.6031 87.4034 19.7865 87.55 20.0004C87.824 20.35 87.9961 20.7684 88.0472 21.2096C88.0984 21.6507 88.0267 22.0975 87.84 22.5004L87.72 22.7804C84.92 29.2804 81.27 33.4204 78.57 37.4104C78.2214 37.983 77.7464 38.4682 77.1813 38.8287C76.6162 39.1893 75.9761 39.4156 75.31 39.4904C76.697 41.7575 77.6119 44.2812 78 46.9104C80.71 47.6504 82.82 50.6504 83.22 54.4304C83.2682 54.8621 83.2916 55.2961 83.29 55.7304C83.29 59.3804 81.69 62.5404 79.38 63.9304C79.2447 64.027 79.1008 64.1107 78.95 64.1804V64.8104L80.95 124.07C91.6354 118.526 100.593 110.152 106.844 99.8644C113.096 89.5763 116.401 77.7689 116.4 65.7304C116.409 54.7348 113.659 43.9127 108.4 34.2562C103.141 24.5997 95.542 16.4177 86.3 10.4604Z" fill="url(#paint2_linear_169_315)"/>
<path d="M70.73 61.9997C71.0889 62.6452 71.2586 63.3788 71.2197 64.1163C71.1808 64.8539 70.9348 65.5655 70.51 66.1697C67.66 70.3297 63.67 73.4897 58.59 73.4897H57.51C53.12 73.1097 48.51 70.2397 45.66 66.7897C45.1459 66.1614 44.8352 65.3915 44.7691 64.5824C44.703 63.7732 44.8847 62.9631 45.29 62.2597C46.4083 60.3958 46.9993 58.2633 47 56.0897C47.0008 54.0494 46.4994 52.0403 45.54 50.2397C45.1881 49.5992 45.0222 48.8731 45.061 48.1433C45.0999 47.4135 45.342 46.7092 45.76 46.1097C45.9784 46.4013 46.2301 46.6665 46.51 46.8997C47.5172 47.6919 48.7569 48.1308 50.0381 48.1489C51.3193 48.1669 52.5709 47.7631 53.6 46.9997C53.6 49.2697 55.89 51.1097 58.7 51.1097C58.9563 51.1295 59.2137 51.1295 59.47 51.1097C61.93 50.8097 63.81 49.1097 63.81 47.0497C64.8534 47.8305 66.1279 48.2399 67.4308 48.2127C68.7337 48.1855 69.9901 47.7233 71 46.8997L71.28 46.6497C71.4658 47.2014 71.529 47.787 71.4651 48.3656C71.4012 48.9442 71.2117 49.5019 70.91 49.9997C69.8046 51.8529 69.2239 53.9718 69.23 56.1297C69.232 58.1905 69.7475 60.2182 70.73 62.0297M87.52 19.9997C87.3734 19.7857 87.1866 19.6023 86.97 19.4597C86.4949 19.1358 85.9209 18.9894 85.3487 19.0461C84.7765 19.1028 84.2424 19.3589 83.84 19.7697C79.66 23.7697 74.84 24.5897 72.18 28.2997C71.96 27.8141 71.6812 27.3574 71.35 26.9397C70.5793 25.9633 69.5347 25.239 68.35 24.8597C66.9878 24.3992 65.5018 24.4707 64.19 25.0597C63.8108 23.7798 63.0281 22.6568 61.9585 21.8582C60.8889 21.0596 59.5899 20.6281 58.255 20.6281C56.9202 20.6281 55.6211 21.0596 54.5515 21.8582C53.482 22.6568 52.6992 23.7798 52.32 25.0597C51.0866 24.5378 49.715 24.4392 48.4196 24.7794C47.1242 25.1195 45.978 25.8792 45.16 26.9397C44.8196 27.3509 44.5401 27.8089 44.33 28.2997C41.44 24.3497 36.21 23.1197 31.86 18.9997C31.707 18.8279 31.5215 18.6882 31.3142 18.5886C31.1069 18.489 30.8818 18.4315 30.6521 18.4194C30.4224 18.4073 30.1926 18.4409 29.976 18.5182C29.7594 18.5955 29.5602 18.7149 29.39 18.8697C29.2999 18.9465 29.2193 19.0337 29.15 19.1297C28.7759 19.6338 28.5434 20.2287 28.4765 20.8529C28.4097 21.4771 28.5111 22.1078 28.77 22.6797C31.58 29.3097 35.25 33.3897 37.97 37.4097C38.3158 37.9825 38.7888 38.4681 39.3524 38.8288C39.916 39.1895 40.555 39.4156 41.22 39.4897C39.8218 41.756 38.8903 44.2786 38.48 46.9097C35.48 47.7297 33.19 51.3597 33.19 55.7297C33.19 59.6097 35 62.9297 37.53 64.1797L36.1 106.54L35.26 131.45H50.72C61.1233 131.467 71.3805 129.002 80.64 124.26L80.99 124.07L79 64.8097V64.1797C79.1508 64.1099 79.2948 64.0262 79.43 63.9297C81.74 62.5397 83.34 59.3797 83.34 55.7297C83.3416 55.2954 83.3182 54.8613 83.27 54.4297C82.87 50.6497 80.76 47.6497 78.05 46.9097C77.6507 44.2758 76.7184 41.751 75.31 39.4897C75.9761 39.4149 76.6163 39.1885 77.1814 38.828C77.7465 38.4674 78.2215 37.9823 78.57 37.4097C81.27 33.4097 84.92 29.2797 87.72 22.7797L87.84 22.4997C88.0267 22.0967 88.0985 21.65 88.0473 21.2088C87.9961 20.7677 87.824 20.3492 87.55 19.9997" fill="url(#paint3_linear_169_315)"/>
<path d="M32.34 0C32.3374 8.57721 28.9296 16.8025 22.8655 22.8684C16.8014 28.9344 8.57721 32.3447 0 32.35L0 11.85C0.00264813 8.708 1.25198 5.69544 3.47371 3.47371C5.69544 1.25198 8.708 0.00264813 11.85 0L32.34 0Z" fill="url(#paint4_linear_169_315)"/>
<path fill-rule="evenodd" clip-rule="evenodd" d="M64.18 57.21L60.85 60.27C60.5628 60.541 60.3582 60.8877 60.26 61.27C60.04 62.15 59.61 63.88 59.26 65.52C59.2052 65.7419 59.0761 65.9383 58.8942 66.0766C58.7122 66.2149 58.4884 66.2867 58.26 66.28C58.0315 66.2867 57.8077 66.2149 57.6258 66.0766C57.4438 65.9383 57.3147 65.7419 57.26 65.52L56.2 61.27C56.1065 60.8857 55.9012 60.5377 55.61 60.27L52.28 57.21C52.0937 57.0227 51.9892 56.7692 51.9892 56.505C51.9892 56.2409 52.0937 55.9874 52.28 55.8C52.3873 55.6852 52.5202 55.5973 52.6679 55.5434C52.8156 55.4895 52.9739 55.4713 53.13 55.49L58.13 56.17H58.4L58.79 56.12L63.4 55.49C63.604 55.4696 63.8093 55.5124 63.9882 55.6126C64.167 55.7127 64.3108 55.8654 64.4 56.05C64.49 56.2427 64.5162 56.4591 64.4748 56.6677C64.4335 56.8763 64.3267 57.0663 64.17 57.21M69.17 56.09C69.1907 53.9403 69.7919 51.8362 70.91 50C71.1976 49.5035 71.375 48.951 71.4302 48.3799C71.4855 47.8087 71.4172 47.2324 71.23 46.69L71 46.9C69.9841 47.6985 68.7322 48.1375 67.4402 48.1483C66.1482 48.1592 64.8891 47.7413 63.86 46.96C63.86 49 62 50.72 59.52 51C59.2637 51.0198 59.0063 51.0198 58.75 51C55.94 51 53.65 49.16 53.65 46.89C52.6209 47.6713 51.3617 48.0892 50.0697 48.0783C48.7777 48.0675 47.5258 47.6285 46.51 46.83C46.2301 46.5968 45.9784 46.3317 45.76 46.04C45.342 46.6395 45.0999 47.3439 45.061 48.0737C45.0221 48.8034 45.188 49.5296 45.54 50.17C46.5122 51.9909 47.014 54.0259 47 56.09C47.0071 58.239 46.4335 60.3501 45.34 62.2C44.9347 62.9035 44.753 63.7136 44.8191 64.5227C44.8852 65.3318 45.1959 66.1017 45.71 66.73C48.58 70.18 53.17 73.05 57.56 73.43H58.64C63.72 73.43 67.71 70.27 70.56 66.11C70.9652 65.5075 71.1956 64.8045 71.2257 64.0791C71.2557 63.3536 71.0841 62.6339 70.73 62C69.7475 60.1886 69.2319 58.1608 69.23 56.1" fill="#B3D2FF"/>
<path fill-rule="evenodd" clip-rule="evenodd" d="M64.18 57.2096L60.85 60.2696C60.5629 60.5405 60.3583 60.8872 60.26 61.2696C60.04 62.1496 59.61 63.8796 59.26 65.5196C59.2053 65.7415 59.0762 65.9379 58.8943 66.0762C58.7123 66.2144 58.4885 66.2862 58.26 66.2796C58.0316 66.2862 57.8078 66.2144 57.6258 66.0762C57.4439 65.9379 57.3148 65.7415 57.26 65.5196L56.2001 61.2696C56.1066 60.8852 55.9013 60.5372 55.6101 60.2696L52.28 57.2096C52.0938 57.0222 51.9893 56.7688 51.9893 56.5046C51.9893 56.2404 52.0938 55.9869 52.28 55.7996C52.3874 55.6847 52.5203 55.5968 52.668 55.543C52.8157 55.4891 52.974 55.4708 53.1301 55.4896L58.1301 56.1696H58.4001L58.7901 56.1196L63.4001 55.4896C63.604 55.4692 63.8094 55.5119 63.9882 55.6121C64.1671 55.7123 64.3109 55.865 64.4001 56.0496C64.49 56.2423 64.5163 56.4586 64.4749 56.6672C64.4335 56.8758 64.3267 57.0658 64.17 57.2096" fill="#003580"/>
<path d="M171.1 68.9003C171.156 71.5417 170.705 74.1693 169.77 76.6403C168.95 78.7434 167.661 80.6314 166 82.1603C164.331 83.675 162.351 84.808 160.2 85.4803C157.757 86.2432 155.209 86.6145 152.65 86.5803C152.03 86.5803 151.32 86.5803 150.53 86.5803C149.74 86.5803 148.92 86.4803 148.1 86.3903C147.28 86.3003 146.43 86.1603 145.58 86.0003C144.791 85.8484 144.015 85.6344 143.26 85.3603C142.427 85.1502 141.69 84.6642 141.169 83.9813C140.647 83.2985 140.373 82.4592 140.39 81.6003V55.2503C140.369 54.9411 140.41 54.6309 140.509 54.3374C140.609 54.0439 140.765 53.773 140.97 53.5403C141.441 53.0764 142.018 52.7333 142.65 52.5403C144.214 52.0511 145.827 51.7358 147.46 51.6003C149.15 51.4503 150.7 51.3803 152.1 51.3803C154.715 51.3332 157.323 51.6701 159.84 52.3803C162.049 53.0137 164.095 54.1153 165.84 55.6103C167.529 57.1159 168.852 58.9866 169.71 61.0803C170.691 63.5678 171.164 66.2269 171.1 68.9003ZM162.1 69.0103C162.1 65.4403 161.23 62.7703 159.48 61.0103C158.58 60.1317 157.51 59.4461 156.335 58.9956C155.161 58.5451 153.907 58.3391 152.65 58.3903C151.99 58.3903 151.36 58.3903 150.78 58.4403C150.186 58.4776 149.594 58.5544 149.01 58.6703V79.2303C149.583 79.3573 150.165 79.4409 150.75 79.4803C151.43 79.5403 152.08 79.5703 152.75 79.5703C154.012 79.632 155.273 79.43 156.452 78.9772C157.632 78.5244 158.704 77.8307 159.6 76.9403C161.3 75.1903 162.14 72.5503 162.14 69.0003L162.1 69.0103Z" fill="white"/>
<path d="M183.48 76C183.68 76.7059 184.024 77.3626 184.49 77.9289C184.957 78.4951 185.536 78.9586 186.19 79.29C187.58 79.9729 189.112 80.3156 190.66 80.29C193.349 80.2956 195.995 79.6067 198.34 78.29C198.902 78.6639 199.376 79.1552 199.73 79.73C200.09 80.3095 200.28 80.978 200.28 81.66C200.294 82.4696 200.017 83.2573 199.5 83.88C198.919 84.5541 198.194 85.0904 197.38 85.45C196.358 85.9082 195.278 86.2244 194.17 86.39C192.827 86.5983 191.469 86.6986 190.11 86.69C188.074 86.7082 186.049 86.401 184.11 85.78C182.338 85.202 180.709 84.2545 179.33 83C177.965 81.7533 176.899 80.2152 176.21 78.5C175.412 76.4768 175.028 74.3142 175.08 72.14C175.027 70.0372 175.412 67.9463 176.21 66C176.876 64.3924 177.884 62.9488 179.163 61.7695C180.443 60.5901 181.963 59.7031 183.62 59.17C185.235 58.6439 186.922 58.3739 188.62 58.37C190.38 58.3511 192.13 58.6422 193.79 59.23C195.269 59.7568 196.629 60.5727 197.79 61.63C198.918 62.668 199.814 63.9322 200.42 65.34C201.058 66.8204 201.378 68.4181 201.36 70.03C201.398 70.5144 201.334 71.0014 201.172 71.4595C201.01 71.9177 200.754 72.3368 200.42 72.69C199.67 73.3293 198.748 73.7329 197.77 73.85L183.48 76ZM188.73 64.62C187.273 64.5732 185.856 65.097 184.78 66.08C183.66 67.2125 182.997 68.7189 182.92 70.31L193.48 68.6C193.431 68.0254 193.269 67.4661 193.004 66.9541C192.738 66.4421 192.375 65.9874 191.934 65.6159C191.493 65.2445 190.983 64.9636 190.433 64.7892C189.883 64.6149 189.305 64.5506 188.73 64.6V64.62Z" fill="white"/>
<path d="M214.48 61.1098H223.88C224.06 61.4798 224.25 61.9398 224.46 62.4898C224.666 63.0743 224.767 63.6903 224.76 64.3098C224.803 64.7652 224.755 65.2246 224.617 65.6609C224.48 66.0971 224.256 66.5014 223.96 66.8498C223.684 67.1112 223.359 67.3149 223.004 67.4488C222.648 67.5828 222.27 67.6443 221.89 67.6298H214.89V85.6998C214.381 85.837 213.863 85.9373 213.34 85.9998C212.607 86.0961 211.869 86.1429 211.13 86.1398C209.88 86.2399 208.629 85.9611 207.54 85.3398C206.8 84.8065 206.43 83.7665 206.43 82.2198V58.7298C206.396 57.1163 206.706 55.514 207.34 54.0298C207.906 52.7648 208.771 51.6563 209.86 50.7998C210.978 49.9625 212.248 49.3511 213.6 48.9998C215.111 48.5809 216.672 48.3755 218.24 48.3898C220.235 48.2649 222.231 48.6073 224.07 49.3898C224.678 49.6979 225.184 50.1753 225.526 50.7644C225.868 51.3535 226.033 52.0292 226 52.7098C226.013 53.3515 225.869 53.9865 225.58 54.5598C225.339 55.0395 224.998 55.4622 224.58 55.7998C223.844 55.5743 223.096 55.3907 222.34 55.2498C221.455 55.0942 220.558 55.0205 219.66 55.0298C218.308 54.9402 216.96 55.2572 215.79 55.9398C215.331 56.298 214.971 56.7663 214.742 57.3014C214.513 57.8364 214.423 58.4207 214.48 58.9998V61.1098ZM229.4 51.5498C229.39 50.9549 229.5 50.364 229.723 49.8125C229.947 49.261 230.279 48.7601 230.7 48.3398C231.625 47.4823 232.839 47.0059 234.1 47.0059C235.361 47.0059 236.575 47.4823 237.5 48.3398C237.921 48.7601 238.253 49.261 238.477 49.8125C238.7 50.364 238.81 50.9549 238.8 51.5498C238.812 52.1525 238.703 52.7515 238.48 53.3114C238.257 53.8714 237.924 54.3809 237.5 54.8098C236.575 55.6673 235.361 56.1437 234.1 56.1437C232.839 56.1437 231.625 55.6673 230.7 54.8098C230.276 54.3809 229.943 53.8714 229.72 53.3114C229.497 52.7515 229.388 52.1525 229.4 51.5498ZM238.3 85.6998C237.791 85.838 237.273 85.9383 236.75 85.9998C236.017 86.0961 235.279 86.1429 234.54 86.1398C233.3 86.2407 232.058 85.9616 230.98 85.3398C230.26 84.8065 229.9 83.7665 229.9 82.2198V59.4998C230.41 59.3587 230.927 59.2485 231.45 59.1698C232.181 59.0563 232.92 59.0028 233.66 59.0098C234.905 58.8991 236.152 59.19 237.22 59.8398C237.94 60.3865 238.3 61.4365 238.3 62.9898V85.6998Z" fill="white"/>
<path d="M246.78 84.62C246.359 84.1753 246.033 83.6503 245.82 83.0764C245.606 82.5025 245.511 81.8915 245.54 81.28V52.15L247.28 51.88C248.022 51.7694 248.77 51.7126 249.52 51.71C250.774 51.6093 252.028 51.8992 253.11 52.54C253.85 53.09 254.22 54.18 254.22 55.8V78.8H267.48C267.738 79.2552 267.953 79.734 268.12 80.23C268.326 80.8558 268.427 81.5112 268.42 82.17C268.497 83.1473 268.212 84.1188 267.62 84.9C267.348 85.2059 267.011 85.4473 266.634 85.6064C266.257 85.7656 265.849 85.8386 265.44 85.82H250.13C249.52 85.8559 248.908 85.7681 248.333 85.5619C247.757 85.3557 247.229 85.0353 246.78 84.62Z" fill="white"/>
<path d="M278 86.1398C276.759 86.2432 275.517 85.964 274.44 85.3397C273.72 84.8064 273.36 83.7664 273.36 82.2198V49.7797C273.876 49.638 274.4 49.5278 274.93 49.4498C275.671 49.3335 276.42 49.2766 277.17 49.2797C278.407 49.1836 279.644 49.4736 280.71 50.1098C281.45 50.6598 281.81 51.7097 281.81 53.2597V85.6997C281.284 85.8333 280.749 85.9335 280.21 85.9998C279.477 86.096 278.739 86.1428 278 86.1398Z" fill="white"/>
<path d="M299 58.3396C300.757 58.3255 302.509 58.5202 304.22 58.9196C305.657 59.256 307.015 59.8672 308.22 60.7196C309.317 61.5238 310.199 62.5848 310.79 63.8096C311.422 65.1993 311.733 66.7134 311.7 68.2396V80.7296C311.751 81.5462 311.502 82.3534 311 82.9996C310.487 83.5806 309.882 84.0737 309.21 84.4596C307.907 85.2209 306.488 85.7647 305.01 86.0696C303.155 86.4525 301.264 86.6369 299.37 86.6196C295.57 86.6196 292.547 85.8929 290.3 84.4396C289.199 83.7269 288.307 82.735 287.715 81.5649C287.123 80.3948 286.852 79.0886 286.93 77.7796C286.863 76.7088 287.031 75.6363 287.424 74.6377C287.816 73.6391 288.422 72.7386 289.2 71.9996C290.707 70.6662 293.04 69.8396 296.2 69.5196L303.55 68.7396V68.1396C303.579 67.6158 303.461 67.0943 303.208 66.6346C302.955 66.1749 302.578 65.7955 302.12 65.5396C300.831 64.9107 299.402 64.6248 297.97 64.7096C296.581 64.7051 295.197 64.8731 293.85 65.2096C292.615 65.5018 291.405 65.8897 290.23 66.3696C289.728 66.0215 289.325 65.5495 289.06 64.9996C288.743 64.3812 288.581 63.6946 288.59 62.9996C288.581 62.2232 288.824 61.4648 289.282 60.8377C289.74 60.2105 290.388 59.7482 291.13 59.5196C292.335 59.0773 293.586 58.7721 294.86 58.6096C296.232 58.4242 297.615 58.3339 299 58.3396ZM299.33 80.3396C300.136 80.34 300.94 80.2596 301.73 80.0996C302.362 79.9894 302.97 79.773 303.53 79.4596V74.4296L299 74.8096C298.003 74.8679 297.031 75.1408 296.15 75.6096C295.81 75.7957 295.528 76.0731 295.338 76.4106C295.147 76.7481 295.054 77.1322 295.07 77.5196C295.056 77.9242 295.139 78.3263 295.313 78.6919C295.487 79.0574 295.747 79.3756 296.07 79.6196C297.057 80.2277 298.216 80.498 299.37 80.3896L299.33 80.3396Z" fill="white"/>
<path d="M358.11 85.7001C357.584 85.8346 357.049 85.9348 356.51 86.0001C355.777 86.0964 355.039 86.1431 354.3 86.1401C353.06 86.2422 351.817 85.9631 350.74 85.3401C350.02 84.8068 349.66 83.7668 349.66 82.2201V68.5101C349.702 68.0172 349.634 67.5211 349.461 67.0576C349.288 66.5941 349.015 66.1749 348.66 65.8301C347.901 65.2435 346.958 64.949 346 65.0001C345.288 64.9952 344.582 65.1276 343.92 65.3901C343.296 65.6395 342.71 65.9762 342.18 66.3901C342.22 66.5717 342.25 66.7553 342.27 66.9401C342.27 67.1201 342.27 67.3101 342.27 67.4901V85.7001C341.744 85.8336 341.209 85.9338 340.67 86.0001C339.937 86.0964 339.199 86.1431 338.46 86.1401C337.219 86.2435 335.977 85.9643 334.9 85.3401C334.18 84.8068 333.82 83.7668 333.82 82.2201V68.5101C333.861 68.0074 333.781 67.5021 333.588 67.0362C333.395 66.5702 333.094 66.1568 332.71 65.8301C331.927 65.2544 330.971 64.9617 330 65.0001C329.284 64.9908 328.572 65.1128 327.9 65.3601C327.37 65.5555 326.856 65.7895 326.36 66.0601V85.7001C325.851 85.8373 325.333 85.9376 324.81 86.0001C324.077 86.0964 323.339 86.1431 322.6 86.1401C321.35 86.2402 320.099 85.9614 319.01 85.3401C318.27 84.8068 317.9 83.7668 317.9 82.2201V65.1401C317.861 64.3226 318.074 63.5128 318.51 62.8201C318.978 62.1703 319.557 61.6083 320.22 61.1601C321.603 60.2491 323.127 59.5733 324.73 59.1601C326.553 58.6341 328.442 58.3714 330.34 58.3801C331.827 58.3747 333.307 58.5903 334.73 59.0201C336.104 59.4519 337.388 60.1296 338.52 61.0201C339.688 60.2497 340.948 59.6282 342.27 59.1701C343.881 58.6357 345.573 58.382 347.27 58.4201C348.661 58.4162 350.046 58.5944 351.39 58.9501C352.645 59.2778 353.819 59.8598 354.84 60.6601C355.868 61.4951 356.689 62.5559 357.24 63.7601C357.885 65.2092 358.196 66.7847 358.15 68.3701L358.11 85.7001Z" fill="white"/>
<path d="M375.08 58.3397C376.837 58.3245 378.589 58.5192 380.3 58.9197C381.738 59.2541 383.096 59.8655 384.3 60.7197C385.399 61.5209 386.283 62.5827 386.87 63.8097C387.508 65.1975 387.819 66.7129 387.78 68.2397V80.7297C387.82 81.5576 387.557 82.3717 387.04 83.0197C386.525 83.603 385.917 84.0964 385.24 84.4797C383.938 85.2443 382.519 85.7883 381.04 86.0897C379.185 86.4726 377.294 86.657 375.4 86.6397C371.607 86.6397 368.587 85.913 366.34 84.4597C365.243 83.7449 364.356 82.7516 363.769 81.5814C363.182 80.4112 362.917 79.1062 363 77.7997C362.925 76.7278 363.087 75.6527 363.475 74.6504C363.862 73.6481 364.464 72.7432 365.24 71.9997C366.747 70.6664 369.08 69.8397 372.24 69.5197L379.59 68.7397V68.1397C379.619 67.6147 379.5 67.092 379.245 66.632C378.99 66.172 378.611 65.7933 378.15 65.5397C376.862 64.9069 375.433 64.6176 374 64.6997C372.611 64.694 371.227 64.862 369.88 65.1997C368.645 65.4904 367.434 65.8783 366.26 66.3597C365.766 66.0098 365.368 65.5424 365.1 64.9997C364.786 64.3806 364.628 63.6939 364.64 62.9997C364.628 62.2225 364.87 61.4626 365.328 60.8348C365.786 60.207 366.436 59.7454 367.18 59.5197C368.385 59.0775 369.636 58.7722 370.91 58.6097C372.292 58.4226 373.685 58.3324 375.08 58.3397ZM375.41 80.3397C376.219 80.3396 377.027 80.2592 377.82 80.0997C378.449 79.9915 379.055 79.7749 379.61 79.4597V74.4297L375.08 74.8097C374.083 74.868 373.111 75.1409 372.23 75.6097C371.892 75.798 371.614 76.0762 371.425 76.4134C371.236 76.7506 371.144 77.1335 371.16 77.5197C371.147 77.9242 371.23 78.326 371.404 78.6914C371.578 79.0568 371.837 79.3752 372.16 79.6197C373.133 80.2173 374.272 80.4871 375.41 80.3897V80.3397Z" fill="white"/>
</g>
<defs>
<linearGradient id="paint0_linear_169_315" x1="21.35" y1="140.45" x2="18.88" y2="120.25" gradientUnits="userSpaceOnUse">
<stop offset="0.29" stop-color="#3A8BFF"/>
<stop offset="1" stop-color="#81B5FF"/>
</linearGradient>
<linearGradient id="paint1_linear_169_315" x1="53.25" y1="-13.5399" x2="4.51" y2="112.02" gradientUnits="userSpaceOnUse">
<stop offset="0.29" stop-color="#0062EE"/>
<stop offset="1" stop-color="#00398A"/>
</linearGradient>
<linearGradient id="paint2_linear_169_315" x1="77.94" y1="130.62" x2="94.45" y2="36.2604" gradientUnits="userSpaceOnUse">
<stop offset="0.29" stop-color="#0062EE"/>
<stop offset="1" stop-color="#00398A"/>
</linearGradient>
<linearGradient id="paint3_linear_169_315" x1="58.26" y1="162.52" x2="58.26" y2="74.8897" gradientUnits="userSpaceOnUse">
<stop offset="0.29" stop-color="#B3D2FF"/>
<stop offset="1" stop-color="white"/>
</linearGradient>
<linearGradient id="paint4_linear_169_315" x1="34.76" y1="27.73" x2="4.26" y2="8.77" gradientUnits="userSpaceOnUse">
<stop offset="0.29" stop-color="#3A8BFF"/>
<stop offset="1" stop-color="#81B5FF"/>
</linearGradient>
<clipPath id="clip0_169_315">
<rect width="387.79" height="131.45" fill="white"/>
</clipPath>
</defs>
</svg>
