<svg width="137" height="137" viewBox="0 0 137 137" fill="none" xmlns="http://www.w3.org/2000/svg">
<path fill-rule="evenodd" clip-rule="evenodd" d="M27.07 71.7699C26.6074 72.1027 26.072 72.3199 25.5083 72.4034C24.9446 72.4869 24.3692 72.4343 23.83 72.2499L20.65 71.1599C20.1699 70.9963 19.7531 70.6865 19.458 70.274C19.1628 69.8616 19.0042 69.3671 19.0042 68.8599C19.0042 68.3527 19.1628 67.8583 19.458 67.4458C19.7531 67.0334 20.1699 66.7236 20.65 66.5599L23.83 65.4699C24.6433 65.1918 25.5295 65.2156 26.3267 65.5369C27.1239 65.8582 27.7789 66.4557 28.172 67.22C28.5651 67.9844 28.6701 68.8647 28.4677 69.7001C28.2654 70.5354 27.7693 71.2701 27.07 71.7699Z" fill="#0DFF81"/>
<path fill-rule="evenodd" clip-rule="evenodd" d="M26.37 98.4401C26.1227 98.0115 26.043 97.5064 26.1465 97.0224C26.2499 96.5385 26.5291 96.1101 26.93 95.8201L34.34 90.4801C34.9699 90.0254 35.7547 89.8394 36.5217 89.9632C37.2886 90.087 37.9751 90.5103 38.43 91.1401C38.49 91.2201 38.54 91.3101 38.59 91.3901C38.7834 91.7227 38.9092 92.0903 38.9601 92.4717C39.011 92.8531 38.986 93.2408 38.8866 93.6125C38.7872 93.9842 38.6152 94.3326 38.3807 94.6377C38.1462 94.9427 37.8537 95.1984 37.52 95.3901L37.25 95.5301L28.92 99.2801C28.4677 99.4821 27.9564 99.5091 27.4853 99.3558C27.0142 99.2024 26.6168 98.8797 26.37 98.4501" fill="white"/>
<path fill-rule="evenodd" clip-rule="evenodd" d="M38.59 47.3505C38.3812 47.7004 38.1032 48.0041 37.7731 48.2431C37.443 48.4821 37.0677 48.6513 36.67 48.7405C36.2697 48.8285 35.8553 48.8312 35.4539 48.7485C35.0525 48.6658 34.6729 48.4995 34.34 48.2605L26.93 42.9105C26.5296 42.6192 26.2514 42.1899 26.1493 41.7054C26.0472 41.2209 26.1285 40.7158 26.3773 40.2877C26.6262 39.8597 27.025 39.5392 27.4965 39.3882C27.968 39.2372 28.4788 39.2665 28.93 39.4705L37.26 43.2105C37.6109 43.3664 37.9276 43.59 38.192 43.8685C38.4564 44.147 38.6632 44.4749 38.8007 44.8335C38.9381 45.192 39.0035 45.5741 38.9931 45.958C38.9827 46.3419 38.8967 46.7199 38.74 47.0705C38.74 47.1605 38.65 47.2505 38.6 47.3405" fill="white"/>
<path d="M46.09 109.54L45.25 134.45H21.85C18.708 134.447 15.6954 133.198 13.4737 130.976C11.252 128.755 10.0026 125.742 10 122.6L10 117.3C22.4459 117.318 34.7515 114.672 46.09 109.54Z" fill="url(#paint0_linear_169_289)"/>
<path fill-rule="evenodd" clip-rule="evenodd" d="M109.1 98.4404C108.853 98.87 108.456 99.1927 107.985 99.3461C107.514 99.4994 107.002 99.4725 106.55 99.2704L98.22 95.5204C97.5145 95.2074 96.9622 94.627 96.6847 93.9069C96.4071 93.1868 96.427 92.3859 96.74 91.6804L96.89 91.3904C97.0806 91.0557 97.3358 90.7623 97.6408 90.527C97.9457 90.2917 98.2944 90.1193 98.6664 90.0197C99.0385 89.9202 99.4267 89.8955 99.8083 89.9471C100.19 89.9988 100.558 90.1256 100.89 90.3204L101.14 90.4804L108.55 95.8204C108.951 96.1104 109.23 96.5388 109.334 97.0228C109.437 97.5067 109.357 98.0118 109.11 98.4404" fill="white"/>
<path fill-rule="evenodd" clip-rule="evenodd" d="M108.54 42.9205L101.13 48.2705C100.495 48.7226 99.706 48.904 98.9372 48.7746C98.1683 48.6452 97.4823 48.2156 97.0301 47.5805L96.8901 47.3605C96.6923 47.0323 96.5614 46.6684 96.5046 46.2896C96.4479 45.9107 96.4665 45.5244 96.5594 45.1528C96.6523 44.7812 96.8177 44.4315 97.046 44.124C97.2744 43.8164 97.5612 43.5569 97.8901 43.3605C97.9813 43.3006 98.0785 43.2504 98.1801 43.2105L106.51 39.4705C106.961 39.2665 107.472 39.2372 107.944 39.3882C108.415 39.5392 108.814 39.8597 109.063 40.2877C109.312 40.7158 109.393 41.2209 109.291 41.7054C109.189 42.1899 108.91 42.6192 108.51 42.9105" fill="white"/>
<path fill-rule="evenodd" clip-rule="evenodd" d="M117.47 68.8597C117.472 69.3666 117.315 69.8612 117.02 70.2739C116.726 70.6865 116.31 70.9964 115.83 71.1598L112.64 72.2497C111.744 72.5418 110.77 72.469 109.927 72.0472C109.085 71.6253 108.443 70.8884 108.14 69.9962C107.837 69.104 107.899 68.1285 108.31 67.2811C108.722 66.4338 109.451 65.783 110.34 65.4697C111.086 65.2197 111.894 65.2197 112.64 65.4697L115.83 66.5597C116.309 66.7244 116.725 67.0346 117.019 67.447C117.313 67.8593 117.47 68.3533 117.47 68.8597Z" fill="#B3D2FF"/>
<path d="M38.84 45.0001C38.961 45.3898 39.0013 45.8001 38.9583 46.2059C38.9153 46.6116 38.79 47.0044 38.59 47.3601C38.3812 47.71 38.1032 48.0138 37.7731 48.2528C37.443 48.4917 37.0677 48.661 36.67 48.7501C36.2697 48.8381 35.8553 48.8408 35.4539 48.7581C35.0525 48.6754 34.6729 48.5091 34.34 48.2701L26.93 42.9201C26.5296 42.6289 26.2514 42.1995 26.1493 41.715C26.0472 41.2305 26.1285 40.7254 26.3773 40.2974C26.6262 39.8693 27.025 39.5488 27.4965 39.3978C27.968 39.2469 28.4788 39.2762 28.93 39.4801L37.26 43.2201C37.6332 43.3897 37.9667 43.6358 38.2389 43.9424C38.511 44.249 38.7158 44.6094 38.84 45.0001ZM38.84 93.7601C38.7135 94.1499 38.5066 94.5089 38.2327 94.8138C37.9589 95.1186 37.6241 95.3627 37.25 95.5301L28.92 99.2801C28.4661 99.4978 27.9468 99.5363 27.4657 99.388C26.9847 99.2397 26.5773 98.9154 26.3248 98.4799C26.0723 98.0443 25.9934 97.5296 26.1037 97.0385C26.214 96.5473 26.5055 96.1158 26.92 95.8301L34.33 90.4901C34.9599 90.0354 35.7447 89.8495 36.5117 89.9732C37.2786 90.097 37.9651 90.5203 38.42 91.1501C38.48 91.2301 38.53 91.3201 38.58 91.4001C38.78 91.7558 38.9053 92.1485 38.9483 92.5543C38.9913 92.9601 38.951 93.3704 38.83 93.7601M23.83 72.2601L20.65 71.1701C20.17 71.0064 19.7531 70.6967 19.458 70.2842C19.1629 69.8717 19.0042 69.3773 19.0042 68.8701C19.0042 68.3629 19.1629 67.8684 19.458 67.456C19.7531 67.0435 20.17 66.7338 20.65 66.5701L23.83 65.4801C24.2768 65.3226 24.7503 65.2553 25.2233 65.2822C25.6962 65.3091 26.1591 65.4296 26.5852 65.6366C27.0112 65.8437 27.3919 66.1333 27.7052 66.4886C28.0185 66.8439 28.2582 67.2578 28.4104 67.7064C28.5626 68.155 28.6242 68.6293 28.5918 69.1019C28.5593 69.5745 28.4333 70.0359 28.2212 70.4595C28.0091 70.883 27.7151 71.2603 27.3561 71.5694C26.9971 71.8785 26.5804 72.1132 26.13 72.2601C25.3837 72.5101 24.5763 72.5101 23.83 72.2601ZM60.72 3.00009H42.34C42.3374 11.5773 38.9296 19.8026 32.8655 25.8685C26.8014 31.9345 18.5772 35.3448 10 35.3501L10 117.3C22.4459 117.318 34.7515 114.672 46.09 109.54L47.52 67.1801C44.99 65.9301 43.18 62.6101 43.18 58.7301C43.18 54.3601 45.46 50.7301 48.47 49.9101C48.8803 47.279 49.8118 44.7564 51.21 42.4901C50.552 42.4102 49.921 42.1813 49.3647 41.8209C48.8085 41.4605 48.3418 40.978 48 40.4101C45.28 36.4101 41.61 32.3101 38.8 25.6801C38.541 25.1082 38.4397 24.4775 38.5065 23.8533C38.5733 23.2291 38.8059 22.6342 39.18 22.1301C39.4614 21.7619 39.8775 21.5203 40.3368 21.4585C40.7961 21.3966 41.2612 21.5195 41.63 21.8001C41.708 21.8614 41.7815 21.9283 41.85 22.0001C46.2 26.1201 51.43 27.3501 54.32 31.3001C54.5301 30.8093 54.8096 30.3513 55.15 29.9401C55.9679 28.8796 57.1142 28.1199 58.4096 27.7797C59.705 27.4396 61.0766 27.5382 62.31 28.0601C62.6892 26.7802 63.4719 25.6572 64.5415 24.8586C65.6111 24.06 66.9102 23.6285 68.245 23.6285C69.5798 23.6285 70.8789 24.06 71.9485 24.8586C73.0181 25.6572 73.8008 26.7802 74.18 28.0601C75.4918 27.4711 76.9777 27.3996 78.34 27.8601C81.6898 21.4819 85.8217 15.5461 90.64 10.1901C81.3805 5.44783 71.1232 2.98294 60.72 3.00009Z" fill="url(#paint1_linear_169_289)"/>
<path fill-rule="evenodd" clip-rule="evenodd" d="M27.07 71.7699C26.6074 72.1027 26.072 72.3199 25.5083 72.4034C24.9446 72.4869 24.3692 72.4343 23.83 72.2499L20.65 71.1599C20.1699 70.9963 19.7531 70.6865 19.458 70.274C19.1628 69.8616 19.0042 69.3671 19.0042 68.8599C19.0042 68.3527 19.1628 67.8583 19.458 67.4458C19.7531 67.0334 20.1699 66.7236 20.65 66.5599L23.83 65.4699C24.6433 65.1918 25.5295 65.2156 26.3267 65.5369C27.1239 65.8582 27.7789 66.4557 28.172 67.22C28.5651 67.9844 28.6701 68.8647 28.4677 69.7001C28.2654 70.5354 27.7693 71.2701 27.07 71.7699Z" fill="#B3D2FF"/>
<path d="M115.83 71.1604L112.64 72.2504C111.744 72.5425 110.77 72.4697 109.927 72.0478C109.085 71.626 108.443 70.8891 108.14 69.9969C107.837 69.1047 107.898 68.1292 108.31 67.2818C108.722 66.4345 109.451 65.7836 110.34 65.4704C111.086 65.2204 111.894 65.2204 112.64 65.4704L115.83 66.5604C116.31 66.7241 116.727 67.0339 117.022 67.4463C117.317 67.8588 117.476 68.3533 117.476 68.8604C117.476 69.3676 117.317 69.8621 117.022 70.2745C116.727 70.687 116.31 70.9968 115.83 71.1604ZM109.1 98.4404C108.853 98.87 108.456 99.1928 107.985 99.3461C107.514 99.4995 107.002 99.4725 106.55 99.2704L98.22 95.5204C97.5145 95.2075 96.9622 94.6271 96.6847 93.9069C96.4071 93.1868 96.427 92.3859 96.74 91.6804L96.89 91.3904C97.0806 91.0558 97.3358 90.7623 97.6408 90.527C97.9457 90.2917 98.2944 90.1193 98.6664 90.0198C99.0385 89.9202 99.4267 89.8956 99.8083 89.9472C100.19 89.9988 100.558 90.1257 100.89 90.3204L101.14 90.4804L108.55 95.8204C108.951 96.1105 109.23 96.5389 109.334 97.0228C109.437 97.5067 109.357 98.0118 109.11 98.4404M96.63 45.0004C96.7565 44.6106 96.9633 44.2517 97.2372 43.9468C97.5111 43.6419 97.8459 43.3979 98.22 43.2304L106.55 39.4904C107.001 39.2865 107.512 39.2572 107.983 39.4082C108.455 39.5592 108.854 39.8797 109.103 40.3077C109.352 40.7357 109.433 41.2409 109.331 41.7253C109.229 42.2098 108.95 42.6392 108.55 42.9304L101.14 48.2804C100.505 48.7326 99.716 48.9139 98.9471 48.7845C98.1782 48.6551 97.4922 48.2256 97.04 47.5904L96.9 47.3704C96.6919 47.0162 96.5603 46.6223 96.5138 46.214C96.4673 45.8058 96.5069 45.3924 96.63 45.0004ZM96.3 13.4604C94.47 12.2804 92.59 11.1904 90.64 10.1904C85.8217 15.5465 81.6898 21.4822 78.34 27.8604C79.5247 28.2398 80.5692 28.964 81.34 29.9404C81.6712 30.3581 81.9499 30.8149 82.17 31.3004C84.88 27.5904 89.65 26.7504 93.83 22.7704C94.2347 22.3494 94.7765 22.0868 95.3577 22.03C95.9389 21.9732 96.5213 22.1258 97 22.4604C97.2166 22.6031 97.4034 22.7865 97.55 23.0004C97.824 23.35 97.9961 23.7684 98.0472 24.2096C98.0984 24.6507 98.0267 25.0975 97.84 25.5004L97.72 25.7804C94.92 32.2804 91.27 36.4204 88.57 40.4104C88.2214 40.983 87.7464 41.4682 87.1813 41.8287C86.6162 42.1893 85.9761 42.4156 85.31 42.4904C86.697 44.7575 87.6119 47.2812 88 49.9104C90.71 50.6504 92.82 53.6504 93.22 57.4304C93.2682 57.8621 93.2916 58.2961 93.29 58.7304C93.29 62.3804 91.69 65.5404 89.38 66.9304C89.2447 67.027 89.1008 67.1107 88.95 67.1804V67.8104L90.95 127.07C101.635 121.526 110.593 113.152 116.844 102.864C123.096 92.5763 126.401 80.7689 126.4 68.7304C126.409 57.7348 123.659 46.9127 118.4 37.2562C113.141 27.5997 105.542 19.4177 96.3 13.4604Z" fill="url(#paint2_linear_169_289)"/>
<path d="M80.73 64.9997C81.0889 65.6452 81.2586 66.3788 81.2197 67.1163C81.1808 67.8539 80.9348 68.5655 80.51 69.1697C77.66 73.3297 73.67 76.4897 68.59 76.4897H67.51C63.12 76.1097 58.51 73.2397 55.66 69.7897C55.1459 69.1614 54.8352 68.3915 54.7691 67.5824C54.703 66.7732 54.8847 65.9631 55.29 65.2597C56.4083 63.3958 56.9993 61.2633 57 59.0897C57.0008 57.0494 56.4994 55.0403 55.54 53.2397C55.1881 52.5992 55.0222 51.8731 55.061 51.1433C55.0999 50.4135 55.342 49.7092 55.76 49.1097C55.9784 49.4013 56.2301 49.6665 56.51 49.8997C57.5172 50.6919 58.7569 51.1308 60.0381 51.1489C61.3193 51.1669 62.5709 50.7631 63.6 49.9997C63.6 52.2697 65.89 54.1097 68.7 54.1097C68.9563 54.1295 69.2137 54.1295 69.47 54.1097C71.93 53.8097 73.81 52.1097 73.81 50.0497C74.8534 50.8305 76.1279 51.2399 77.4308 51.2127C78.7337 51.1855 79.9901 50.7233 81 49.8997L81.28 49.6497C81.4658 50.2014 81.529 50.787 81.4651 51.3656C81.4012 51.9442 81.2117 52.5019 80.91 52.9997C79.8046 54.8529 79.2239 56.9718 79.23 59.1297C79.232 61.1905 79.7475 63.2182 80.73 65.0297M97.52 22.9997C97.3734 22.7857 97.1866 22.6023 96.97 22.4597C96.4949 22.1358 95.9209 21.9894 95.3487 22.0461C94.7765 22.1028 94.2424 22.3589 93.84 22.7697C89.66 26.7697 84.84 27.5897 82.18 31.2997C81.96 30.8141 81.6812 30.3574 81.35 29.9397C80.5793 28.9633 79.5347 28.239 78.35 27.8597C76.9878 27.3992 75.5018 27.4707 74.19 28.0597C73.8108 26.7798 73.0281 25.6568 71.9585 24.8582C70.8889 24.0596 69.5899 23.6281 68.255 23.6281C66.9202 23.6281 65.6211 24.0596 64.5515 24.8582C63.482 25.6568 62.6992 26.7798 62.32 28.0597C61.0866 27.5378 59.715 27.4392 58.4196 27.7794C57.1242 28.1195 55.978 28.8792 55.16 29.9397C54.8196 30.3509 54.5401 30.8089 54.33 31.2997C51.44 27.3497 46.21 26.1197 41.86 21.9997C41.707 21.8279 41.5215 21.6882 41.3142 21.5886C41.1069 21.489 40.8818 21.4315 40.6521 21.4194C40.4224 21.4073 40.1926 21.4409 39.976 21.5182C39.7594 21.5955 39.5602 21.7149 39.39 21.8697C39.2999 21.9465 39.2193 22.0337 39.15 22.1297C38.7759 22.6338 38.5434 23.2287 38.4765 23.8529C38.4097 24.4771 38.5111 25.1078 38.77 25.6797C41.58 32.3097 45.25 36.3897 47.97 40.4097C48.3158 40.9825 48.7888 41.4681 49.3524 41.8288C49.916 42.1895 50.555 42.4156 51.22 42.4897C49.8218 44.756 48.8903 47.2786 48.48 49.9097C45.48 50.7297 43.19 54.3597 43.19 58.7297C43.19 62.6097 45 65.9297 47.53 67.1797L46.1 109.54L45.26 134.45H60.72C71.1233 134.467 81.3805 132.002 90.64 127.26L90.99 127.07L89 67.8097V67.1797C89.1508 67.1099 89.2948 67.0262 89.43 66.9297C91.74 65.5397 93.34 62.3797 93.34 58.7297C93.3416 58.2954 93.3182 57.8613 93.27 57.4297C92.87 53.6497 90.76 50.6497 88.05 49.9097C87.6507 47.2758 86.7184 44.751 85.31 42.4897C85.9761 42.4149 86.6163 42.1885 87.1814 41.828C87.7465 41.4674 88.2215 40.9823 88.57 40.4097C91.27 36.4097 94.92 32.2797 97.72 25.7797L97.84 25.4997C98.0267 25.0967 98.0985 24.65 98.0473 24.2088C97.9961 23.7677 97.824 23.3492 97.55 22.9997" fill="url(#paint3_linear_169_289)"/>
<path d="M42.34 3C42.3374 11.5772 38.9296 19.8025 32.8655 25.8684C26.8014 31.9344 18.5772 35.3447 10 35.35L10 14.85C10.0026 11.708 11.252 8.69544 13.4737 6.47371C15.6954 4.25198 18.708 3.00265 21.85 3L42.34 3Z" fill="url(#paint4_linear_169_289)"/>
<path fill-rule="evenodd" clip-rule="evenodd" d="M74.18 60.21L70.85 63.27C70.5628 63.541 70.3582 63.8877 70.26 64.27C70.04 65.15 69.61 66.88 69.26 68.52C69.2052 68.7419 69.0761 68.9383 68.8942 69.0766C68.7122 69.2149 68.4884 69.2867 68.26 69.28C68.0315 69.2867 67.8077 69.2149 67.6258 69.0766C67.4438 68.9383 67.3147 68.7419 67.26 68.52L66.2 64.27C66.1065 63.8857 65.9012 63.5377 65.61 63.27L62.28 60.21C62.0937 60.0227 61.9892 59.7692 61.9892 59.505C61.9892 59.2409 62.0937 58.9874 62.28 58.8C62.3873 58.6852 62.5202 58.5973 62.6679 58.5434C62.8156 58.4895 62.9739 58.4713 63.13 58.49L68.13 59.17H68.4L68.79 59.12L73.4 58.49C73.604 58.4696 73.8093 58.5124 73.9882 58.6126C74.167 58.7127 74.3108 58.8654 74.4 59.05C74.49 59.2427 74.5162 59.4591 74.4748 59.6677C74.4335 59.8763 74.3267 60.0663 74.17 60.21M79.17 59.09C79.1907 56.9403 79.7919 54.8362 80.91 53C81.1976 52.5035 81.375 51.951 81.4302 51.3799C81.4855 50.8087 81.4172 50.2324 81.23 49.69L81 49.9C79.9841 50.6985 78.7322 51.1375 77.4402 51.1483C76.1482 51.1592 74.8891 50.7413 73.86 49.96C73.86 52 72 53.72 69.52 54C69.2637 54.0198 69.0063 54.0198 68.75 54C65.94 54 63.65 52.16 63.65 49.89C62.6209 50.6713 61.3617 51.0892 60.0697 51.0783C58.7777 51.0675 57.5258 50.6285 56.51 49.83C56.2301 49.5968 55.9784 49.3317 55.76 49.04C55.342 49.6395 55.0999 50.3439 55.061 51.0737C55.0221 51.8034 55.188 52.5296 55.54 53.17C56.5122 54.9909 57.014 57.0259 57 59.09C57.0071 61.239 56.4335 63.3501 55.34 65.2C54.9347 65.9035 54.753 66.7136 54.8191 67.5227C54.8852 68.3318 55.1959 69.1017 55.71 69.73C58.58 73.18 63.17 76.05 67.56 76.43H68.64C73.72 76.43 77.71 73.27 80.56 69.11C80.9652 68.5075 81.1956 67.8045 81.2257 67.0791C81.2557 66.3536 81.0841 65.6339 80.73 65C79.7475 63.1886 79.2319 61.1608 79.23 59.1" fill="#B3D2FF"/>
<path fill-rule="evenodd" clip-rule="evenodd" d="M74.18 60.2096L70.85 63.2696C70.5629 63.5405 70.3583 63.8872 70.26 64.2696C70.04 65.1496 69.61 66.8796 69.26 68.5196C69.2053 68.7415 69.0762 68.9379 68.8943 69.0762C68.7123 69.2144 68.4885 69.2862 68.26 69.2796C68.0316 69.2862 67.8078 69.2144 67.6258 69.0762C67.4439 68.9379 67.3148 68.7415 67.26 68.5196L66.2001 64.2696C66.1066 63.8852 65.9013 63.5372 65.6101 63.2696L62.28 60.2096C62.0938 60.0222 61.9893 59.7688 61.9893 59.5046C61.9893 59.2404 62.0938 58.9869 62.28 58.7996C62.3874 58.6847 62.5203 58.5968 62.668 58.543C62.8157 58.4891 62.974 58.4708 63.1301 58.4896L68.1301 59.1696H68.4001L68.7901 59.1196L73.4001 58.4896C73.604 58.4692 73.8094 58.5119 73.9882 58.6121C74.1671 58.7123 74.3109 58.865 74.4001 59.0496C74.49 59.2423 74.5163 59.4586 74.4749 59.6672C74.4335 59.8758 74.3267 60.0658 74.17 60.2096" fill="#003580"/>
<defs>
<linearGradient id="paint0_linear_169_289" x1="31.35" y1="143.45" x2="28.88" y2="123.25" gradientUnits="userSpaceOnUse">
<stop offset="0.29" stop-color="#3A8BFF"/>
<stop offset="1" stop-color="#81B5FF"/>
</linearGradient>
<linearGradient id="paint1_linear_169_289" x1="63.25" y1="-10.5399" x2="14.51" y2="115.02" gradientUnits="userSpaceOnUse">
<stop offset="0.29" stop-color="#0062EE"/>
<stop offset="1" stop-color="#00398A"/>
</linearGradient>
<linearGradient id="paint2_linear_169_289" x1="87.94" y1="133.62" x2="104.45" y2="39.2604" gradientUnits="userSpaceOnUse">
<stop offset="0.29" stop-color="#0062EE"/>
<stop offset="1" stop-color="#00398A"/>
</linearGradient>
<linearGradient id="paint3_linear_169_289" x1="68.26" y1="165.52" x2="68.26" y2="77.8897" gradientUnits="userSpaceOnUse">
<stop offset="0.29" stop-color="#B3D2FF"/>
<stop offset="1" stop-color="white"/>
</linearGradient>
<linearGradient id="paint4_linear_169_289" x1="44.76" y1="30.73" x2="14.26" y2="11.77" gradientUnits="userSpaceOnUse">
<stop offset="0.29" stop-color="#3A8BFF"/>
<stop offset="1" stop-color="#81B5FF"/>
</linearGradient>
</defs>
</svg>
