<?xml version="1.0" encoding="UTF-8"?>
<svg xmlns="http://www.w3.org/2000/svg" width="0" height="0">
<defs>
<symbol id="research-media-kit" viewBox="0 0 28 28" fill="none"><path d="M17.9584 4.72926L17.4567 5.28673V5.28673L17.9584 4.72926ZM22.577 8.88598L22.0752 9.44345V9.44345L22.577 8.88598ZM25.263 11.8465L24.5778 12.1516L24.5778 12.1516L25.263 11.8465ZM3.70014 24.2998L4.23047 23.7695H4.23047L3.70014 24.2998ZM24.2998 24.2998L23.7695 23.7695V23.7695L24.2998 24.2998ZM16.3333 25.6667V24.9167H11.6666V25.6667V26.4167H16.3333V25.6667ZM2.3333 16.3333H3.0833V11.6667H2.3333H1.5833V16.3333H2.3333ZM25.6666 15.8234H24.9166V16.3333H25.6666H26.4166V15.8234H25.6666ZM17.9584 4.72926L17.4567 5.28673L22.0752 9.44345L22.577 8.88598L23.0787 8.32851L18.4601 4.17179L17.9584 4.72926ZM25.6666 15.8234H26.4166C26.4166 13.8426 26.4318 12.6274 25.9481 11.5413L25.263 11.8465L24.5778 12.1516C24.9015 12.8783 24.9166 13.7101 24.9166 15.8234H25.6666ZM22.577 8.88598L22.0752 9.44345C23.646 10.8572 24.2542 11.4249 24.5778 12.1516L25.263 11.8465L25.9481 11.5413C25.4644 10.4553 24.551 9.65359 23.0787 8.32851L22.577 8.88598ZM11.7014 2.33334V3.08334C13.5374 3.08334 14.2614 3.09492 14.9087 3.34333L15.1774 2.64311L15.4461 1.9429C14.4789 1.57176 13.4238 1.58334 11.7014 1.58334V2.33334ZM17.9584 4.72926L18.4601 4.17179C17.1862 3.02522 16.4131 2.31399 15.4461 1.9429L15.1774 2.64311L14.9087 3.34333C15.5561 3.59178 16.099 4.0648 17.4567 5.28673L17.9584 4.72926ZM11.6666 25.6667V24.9167C9.44554 24.9167 7.85517 24.9151 6.64597 24.7525C5.45834 24.5928 4.75131 24.2904 4.23047 23.7695L3.70014 24.2998L3.16981 24.8302C4.0158 25.6762 5.09213 26.0571 6.4461 26.2391C7.77849 26.4183 9.48795 26.4167 11.6666 26.4167V25.6667ZM2.3333 16.3333H1.5833C1.5833 18.512 1.58171 20.2215 1.76084 21.5539C1.94288 22.9078 2.32381 23.9842 3.16981 24.8302L3.70014 24.2998L4.23047 23.7695C3.70962 23.2487 3.40714 22.5416 3.24747 21.354C3.08489 20.1448 3.0833 18.5544 3.0833 16.3333H2.3333ZM16.3333 25.6667V26.4167C18.512 26.4167 20.2214 26.4183 21.5538 26.2391C22.9078 26.0571 23.9841 25.6762 24.8301 24.8302L24.2998 24.2998L23.7695 23.7695C23.2486 24.2904 22.5416 24.5928 21.354 24.7525C20.1448 24.9151 18.5544 24.9167 16.3333 24.9167V25.6667ZM25.6666 16.3333H24.9166C24.9166 18.5544 24.915 20.1448 24.7525 21.354C24.5928 22.5416 24.2903 23.2487 23.7695 23.7695L24.2998 24.2998L24.8301 24.8302C25.6761 23.9842 26.0571 22.9078 26.2391 21.5539C26.4182 20.2215 26.4166 18.512 26.4166 16.3333H25.6666ZM2.3333 11.6667H3.0833C3.0833 9.44558 3.08489 7.85521 3.24747 6.64601C3.40714 5.45838 3.70962 4.75135 4.23047 4.23051L3.70014 3.70018L3.16981 3.16984C2.32381 4.01584 1.94288 5.09217 1.76084 6.44614C1.58171 7.77853 1.5833 9.48799 1.5833 11.6667H2.3333ZM11.7014 2.33334V1.58334C9.51105 1.58334 7.79315 1.58176 6.45523 1.76082C5.09631 1.9427 4.01638 2.32327 3.16981 3.16984L3.70014 3.70018L4.23047 4.23051C4.75072 3.71025 5.45995 3.4074 6.65421 3.24757C7.86948 3.08492 9.46879 3.08334 11.7014 3.08334V2.33334Z" fill="currentColor"/><path d="M15.1667 2.91667V5.83334C15.1667 8.5832 15.1667 9.95813 16.021 10.8124C16.8752 11.6667 18.2502 11.6667 21 11.6667H25.6667" stroke="currentColor" stroke-width="1.5"/><path d="M9.50412 15.1929C9.94745 14.3976 10.1691 14 10.5005 14C10.8319 14 11.0536 14.3976 11.4969 15.1929L11.6116 15.3987C11.7376 15.6247 11.8006 15.7377 11.8988 15.8122C11.997 15.8868 12.1193 15.9145 12.364 15.9698L12.5867 16.0202C13.4476 16.215 13.878 16.3124 13.9804 16.6417C14.0828 16.971 13.7894 17.3142 13.2025 18.0005L13.0506 18.178C12.8839 18.3731 12.8005 18.4706 12.763 18.5912C12.7255 18.7118 12.7381 18.8419 12.7633 19.1021L12.7862 19.339C12.875 20.2547 12.9193 20.7125 12.6512 20.9161C12.3831 21.1196 11.9801 20.934 11.174 20.5629L10.9655 20.4669C10.7364 20.3614 10.6219 20.3087 10.5005 20.3087C10.3791 20.3087 10.2646 20.3614 10.0355 20.4669L9.827 20.5629C9.02095 20.934 8.61793 21.1196 8.34982 20.9161C8.08171 20.7125 8.12607 20.2547 8.21481 19.339L8.23776 19.1021C8.26298 18.8419 8.27558 18.7118 8.23807 18.5912C8.20055 18.4706 8.11717 18.3731 7.95039 18.178L7.79855 18.0005C7.21165 17.3142 6.91821 16.971 7.02061 16.6417C7.12302 16.3124 7.55347 16.215 8.41435 16.0202L8.63708 15.9698C8.88171 15.9145 9.00403 15.8868 9.10225 15.8122C9.20046 15.7377 9.26345 15.6247 9.38943 15.3987L9.50412 15.1929Z" stroke="currentColor" stroke-width="1.5"/></symbol>
<symbol id="calendly-mark" viewBox="0 0 28 29" fill="none"><path d="M16.5449 16.2115C15.7645 16.9157 14.7908 17.7921 13.0202 17.7921H11.9643C10.6844 17.7921 9.52067 17.3198 8.68791 16.4626C7.87444 15.6254 7.42639 14.4793 7.42639 13.2352V11.7648C7.42639 10.5207 7.87444 9.37462 8.68791 8.53744C9.52067 7.6802 10.6844 7.20795 11.9643 7.20795H13.0202C14.7908 7.20795 15.7636 8.08432 16.5449 8.7885C17.3552 9.51881 18.0552 10.1493 19.92 10.1493C20.2044 10.1493 20.4884 10.1262 20.7693 10.0802C20.7693 10.0746 20.7656 10.0695 20.7633 10.0639C20.6515 9.78187 20.5203 9.50821 20.3708 9.24489L19.124 7.04928C18.5618 6.05961 17.7533 5.23777 16.7797 4.66634C15.8061 4.09491 14.7017 3.79403 13.5775 3.79391H11.0833C9.95911 3.79403 8.8547 4.09491 7.88111 4.66634C6.90751 5.23777 6.09901 6.05961 5.53685 7.04928L4.29001 9.24489C3.72795 10.2346 3.43205 11.3572 3.43205 12.5C3.43205 13.6428 3.72795 14.7655 4.29001 15.7552L5.53685 17.9508C6.09903 18.9404 6.90755 19.7622 7.88115 20.3335C8.85475 20.9049 9.95914 21.2057 11.0833 21.2057H13.5775C14.7017 21.2057 15.8061 20.9049 16.7797 20.3335C17.7533 19.7622 18.5618 18.9404 19.124 17.9508L20.3708 15.7552C20.5203 15.4918 20.6515 15.2182 20.7633 14.9362C20.7633 14.9306 20.7674 14.9255 20.7693 14.9199C20.4884 14.8738 20.2044 14.8507 19.92 14.8508C18.0552 14.8508 17.3552 15.4812 16.5449 16.2115Z" fill="currentColor"/><path d="M13.0201 8.53977H11.9643C10.0169 8.53977 8.737 9.95372 8.737 11.7639V13.2343C8.737 15.0444 10.0169 16.4584 11.9643 16.4584H13.0201C15.8581 16.4584 15.6368 13.5185 19.92 13.5185C20.326 13.5182 20.7313 13.5558 21.1305 13.6309C21.2605 12.8829 21.2605 12.1176 21.1305 11.3695C20.7313 11.4451 20.326 11.4829 19.92 11.4825C15.6355 11.482 15.8581 8.53977 13.0201 8.53977Z" fill="currentColor"/><path d="M23.5921 14.7056C22.862 14.1632 22.0204 13.7962 21.1306 13.6323C21.1306 13.6398 21.1283 13.6473 21.1269 13.6543C21.0505 14.088 20.9307 14.5127 20.7693 14.9217C21.5044 15.0373 22.202 15.3291 22.8043 15.7729C22.8043 15.7794 22.8007 15.7859 22.7984 15.7929C22.457 16.9199 21.9411 17.9843 21.2701 18.9461C20.6068 19.8991 19.8014 20.7411 18.883 21.4418C16.6595 23.142 13.8843 23.9214 11.1176 23.6224C8.35082 23.3235 5.79876 21.9685 3.97666 19.8311C2.15457 17.6936 1.1982 14.9331 1.30067 12.1067C1.40314 9.28035 2.55681 6.59881 4.52873 4.60353C5.86836 3.2428 7.53113 2.257 9.35583 1.7417C11.1805 1.2264 13.1053 1.19909 14.9434 1.66241C16.7815 2.12573 18.4707 3.06397 19.8472 4.38616C21.2237 5.70834 22.2407 7.36962 22.7997 9.20893C22.802 9.21593 22.8039 9.22246 22.8057 9.229C22.2029 9.67283 21.5049 9.96443 20.7693 10.0797C20.9306 10.4891 21.0506 10.914 21.1273 11.3481C21.1273 11.3551 21.1273 11.3621 21.1306 11.3686C22.0205 11.2051 22.8622 10.8381 23.5921 10.2953C24.294 9.76751 24.1581 9.17113 24.0512 8.81834C22.5046 3.71082 17.8271 0 12.2967 0C5.50563 0 0 5.59657 0 12.4998C0 19.403 5.50563 25 12.2967 25C17.8271 25 22.5046 21.2892 24.0489 16.1831C24.1581 15.8303 24.294 15.2339 23.5921 14.7056Z" fill="currentColor"/></symbol>
<symbol id="research-icon" viewBox="0 0 21 29" fill="none">
<path d="M16.7812 1.87212C17.2094 1.63652 17.6103 1.43272 18.0815 1.19303C18.2663 1.12267 18.5527 1.03447 18.667 1C18.8882 1.12746 19.1883 1 19.1883 1.46468C19.2066 1.57295 19.195 1.65265 19.147 1.79616C19.0457 1.99207 18.9807 2.12418 18.9158 2.25629C17.8287 3.58899 16.8919 5.00536 15.2712 6.05741C15.4585 6.47836 15.6478 6.94122 15.8756 7.393C15.9429 7.52649 16.0905 7.66135 16.2494 7.74028C18.0057 8.61249 18.1674 10.4803 16.5215 11.4638C16.1581 11.681 16.0824 11.8895 16.0981 12.1982C16.1433 13.0892 16.1603 13.981 16.128 14.9148C15.9227 14.8681 15.7385 14.7989 15.6394 14.6868C15.1157 14.0943 14.3772 13.7928 13.4698 13.6373C13.1697 13.5858 12.931 13.33 12.6879 13.1375C13.0452 12.777 13.4095 12.4614 13.7039 12.1121C14.0009 11.7598 14.0118 11.4195 13.712 11.0032C13.0942 10.1449 13.2215 9.25514 13.7915 8.38442C13.9313 8.17088 13.9354 7.90665 13.9784 7.75094C13.1883 7.75094 12.5276 7.75094 11.8277 7.75094C10.9756 8.82433 9.71503 8.81555 8.5169 7.67443C7.63822 8.05911 6.86888 7.83438 6.0417 7.41491C6.03918 7.79848 6.05039 8.17453 6.23797 8.49093C6.75511 9.36319 6.83747 10.2232 6.18626 11.0528C5.91254 11.4015 5.92379 11.6869 6.14341 12.0132C6.26308 12.191 6.38148 12.3693 6.45335 12.5664C5.4988 12.8698 4.40746 13.7155 3.5 14C3.49767 13.7819 3.67255 13.0026 3.6782 12.7846C3.69291 12.2168 3.70755 11.7471 2.99155 11.2657C1.62716 10.3483 2.03717 8.49863 3.58133 7.74572C3.77595 7.65082 3.94431 7.48097 4.03506 7.31742C4.26612 6.90103 4.44632 6.46854 4.59123 6.16069C3.92368 5.48546 3.23312 4.86118 2.65545 4.18211C2.05753 3.47924 1.52912 2.7374 1.0593 1.98106C0.932283 1.77657 1.02095 1.38923 1.2148 1.21673C1.33416 1.11052 1.91606 1.16935 2.15992 1.2966C3.40774 1.94776 4.61318 2.64526 5.87383 3.34911C6.44619 2.66041 7.21011 2.26926 8.32158 2.63864C9.49683 1.37261 10.8904 1.35979 11.9656 2.60585C12.937 2.40649 13.7101 2.59985 14.163 3.3629C15.0389 2.86967 15.8963 2.38679 16.7812 1.87212Z" fill="currentColor"/>
<path d="M16.5 16C16.0877 15.895 12.2256 20.5 12.2256 20.5C11.5519 20.5 11.1759 18.9601 10.0186 19C7.60212 21.5 9.64464 20.9023 8.0006 20.9486C10.2523 19.014 4.56824 25.9094 3.59612 26C2.78884 26.7049 3.81091 14.9702 3.5 15C3.44274 14.7336 3.52793 14.1138 3.5966 13.8139C3.92025 13.7638 3.95272 14.0534 4.13334 13.9858C5.22881 13.5754 6.44378 13.8002 7.60212 13.8139C8.22116 13.8212 8.57274 13.783 8.61161 13.441C8.86265 13.4635 9.05498 13.483 9.24946 13.5272C9.35437 13.6152 9.45713 13.6785 9.5599 13.7418C9.69466 13.6636 9.82942 13.5853 10.0186 13.4954C10.7906 13.3226 11.5081 13.1613 12.2256 13C12.4887 13.1069 12.7241 13.2754 13.02 13.3093C13.9148 13.4118 14.6429 13.6103 15.1593 14.0006C15.257 14.0745 15.8097 14.4358 16 14.5C16.0866 14.9409 16.9123 16.105 16.5 16Z" fill="currentColor"/>
<path d="M9.35321 13.8856C9.37513 14.4417 8.98653 14.5033 8.30231 14.4915C7.02201 14.4696 5.67911 14.1072 4.4683 14.7685C4.26866 14.8775 3.91635 14.8353 3.57025 14.863C3.53058 14.4281 4 13.5 4 13C5.01164 12.6528 5.29572 12.6996 6.37973 12.3973C7.33171 12.8383 8.49621 13.4442 9.35321 13.8856Z" fill="currentColor"/>
<path d="M11.6541 10.2039C10.9584 10.6333 10.4754 11.0974 10.4228 11.7781C10.4103 11.94 10.1316 12.0901 9.97534 12.2456C9.83835 12.0951 9.58894 11.9467 9.58372 11.7936C9.56042 11.1094 9.08868 10.6501 8.42553 10.2455C8.27326 10.1526 8.232 9.95592 8.13965 9.80699C8.37031 9.75925 8.59998 9.67402 8.8318 9.67056C9.63861 9.65851 10.4463 9.67132 11.2534 9.68299C11.4331 9.68559 11.6119 9.72212 11.7912 9.74303C11.7587 9.88703 11.7262 10.031 11.6541 10.2039Z" fill="currentColor"/>
<path d="M17.9071 14.7143C16.7145 15.975 15.5256 17.2412 14.3367 18.5023C13.5236 19.3648 12.7086 20.2242 11.8935 21.0866L10.8853 20.1017L10.8155 20.0378C10.7272 19.9635 10.5834 19.8713 10.39 19.868C10.1885 19.8646 10.0385 19.9573 9.94329 20.0386L9.8667 20.1124C7.85195 22.2348 5.83311 24.3524 3.81577 26.4737C3.56755 26.7348 3.32024 26.9998 3.07651 27.2698C3.03567 27.2287 2.99343 27.1882 2.95086 27.1474C3.489 26.5854 4.0247 26.0189 4.55725 25.4589C5.93701 24.0078 7.31943 22.5566 8.69886 21.1041C9.25326 20.5203 9.80527 19.9329 10.3555 19.3432C10.4919 19.4755 10.6273 19.607 10.7623 19.7351C10.9631 19.9257 11.1595 20.1125 11.3515 20.3019C11.43 20.3793 11.6146 20.5497 11.888 20.5456C12.1629 20.5412 12.3429 20.3638 12.4235 20.2774C14.1974 18.3739 15.977 16.4756 17.7567 14.5759C17.805 14.6215 17.8562 14.6669 17.9071 14.7143Z" fill="currentColor"/>
<path d="M16.121 27.312C16.0587 24.5902 15.9991 21.8888 15.9418 19.1874C15.9344 18.8386 16.0742 18.6808 16.4237 18.6676C17.0055 18.6456 17.588 18.6337 18.1702 18.6306C18.47 18.6291 18.6134 18.7772 18.6199 19.0758C18.6791 21.7928 18.7363 24.5098 18.7921 27.2269C18.7979 27.5084 18.6797 27.6535 18.3943 27.6654C17.7739 27.6912 17.1525 27.7003 16.5315 27.7047C16.2949 27.7064 16.1664 27.5592 16.121 27.312Z" fill="currentColor"/>
<path d="M12.2985 23.2297C12.2814 22.5432 12.3527 22.4667 13.0038 22.4523C13.4925 22.4415 13.9811 22.4299 14.4698 22.4217C14.8192 22.4158 14.964 22.5539 14.9719 22.9086C15.0043 24.3591 15.0344 25.8096 15.0636 27.2602C15.0705 27.6025 14.939 27.7449 14.5963 27.7547C14.0302 27.7709 13.4639 27.781 12.8976 27.7887C12.55 27.7933 12.3987 27.6513 12.3862 27.3015C12.3701 26.8519 12.3647 26.4018 12.3552 25.9519C12.3363 25.0521 12.3178 24.1523 12.2985 23.2297Z" fill="currentColor"/>
<path d="M10.4925 27.8439C10.035 27.8523 9.60058 27.8637 9.16615 27.8672C8.82089 27.8701 8.66253 27.7226 8.65408 27.3783C8.62477 26.1838 8.60305 24.9892 8.57396 23.7948C8.57063 23.6579 8.62242 23.556 8.71108 23.4629C8.96789 23.1932 9.22555 22.9244 9.4803 22.6528C9.56514 22.5624 9.6618 22.5185 9.78793 22.5181C10.0827 22.5174 10.3774 22.507 10.6722 22.5009C11.1115 22.4918 11.234 22.6096 11.2448 23.0587C11.2596 23.6714 11.2719 24.2842 11.2849 24.897C11.3014 25.6804 11.3176 26.4639 11.3339 27.2473C11.3436 27.7108 11.232 27.8282 10.7716 27.8382C10.6863 27.8401 10.6009 27.8417 10.4925 27.8439Z" fill="currentColor"/>
<path d="M7.5642 25.2865C7.57948 26.0074 7.59544 26.7053 7.60852 27.4032C7.61506 27.7521 7.47632 27.903 7.12491 27.9131C6.55897 27.9294 5.99276 27.9365 5.42664 27.9466C5.21754 27.9503 5.0438 27.8913 4.95854 27.677C4.91479 27.5671 4.91517 27.4659 5.00145 27.3753C5.81427 26.5216 6.62688 25.6678 7.44058 24.8149C7.45415 24.8007 7.4807 24.7989 7.521 24.7839C7.58486 24.9439 7.54848 25.1071 7.5642 25.2865Z" fill="currentColor"/>
</symbol>
<symbol id="rss" viewBox="0 0 36 36" fill="none"><path d="M18 0C27.9411 0 36 8.05887 36 18C36 27.9411 27.9411 36 18 36C8.05887 36 0 27.9411 0 18C0 8.05887 8.05887 0 18 0ZM12.4824 21.5361C11.7578 21.5361 11.0622 21.8236 10.5498 22.3359C10.0376 22.8482 9.75011 23.5432 9.75 24.2676C9.75 25.7464 11.0036 27 12.4824 27C13.9861 26.9998 15.2139 25.7462 15.2139 24.2676C15.2138 23.5432 14.9263 22.8482 14.4141 22.3359C13.9018 21.8237 13.2068 21.5362 12.4824 21.5361ZM9.75 18.1396C12.0999 18.1396 14.353 19.0737 16.0146 20.7354C17.6763 22.397 18.6104 24.6501 18.6104 27H22.1572C22.1572 23.7095 20.8492 20.5543 18.5225 18.2275C16.1957 15.9008 13.0405 14.5928 9.75 14.5928V18.1396ZM9.75 11.0469C13.9811 11.0469 18.0394 12.7279 21.0312 15.7197C24.0228 18.7115 25.7031 22.7691 25.7031 27H29.25C29.25 21.8283 27.196 16.8679 23.5391 13.2109C19.8821 9.55398 14.9217 7.5 9.75 7.5V11.0469Z" fill="white"/></symbol>
<symbol id="x-social" viewBox="0 0 36 36" fill="none"><path d="M18 0C27.9411 0 36 8.05887 36 18C36 27.9411 27.9411 36 18 36C8.05887 36 0 27.9411 0 18C0 8.05887 8.05887 0 18 0ZM15.1934 19.4326L8.08398 27.75H10.7988L16.4512 21.1367L21.3291 27.75H28.5L20.4502 16.835L27.1475 9H24.4336L19.1914 15.1309L14.6709 9H7.5L15.1934 19.4326ZM24.4023 25.667H22.3535L11.5977 11.083H13.6465L24.4023 25.667Z" fill="currentColor"/></symbol>
<symbol id="telegram" viewBox="0 0 36 36" fill="none"><path fill-rule="evenodd" clip-rule="evenodd" d="M36 18C36 27.9405 27.9405 36 18 36C8.0595 36 0 27.9405 0 18C0 8.0595 8.0595 0 18 0C27.9405 0 36 8.0595 36 18ZM18.645 13.2885C16.895 14.0165 13.396 15.5235 8.148 17.8095C7.296 18.1485 6.8495 18.48 6.8085 18.804C6.7395 19.353 7.4265 19.569 8.3595 19.8615L8.754 19.9875C9.6735 20.286 10.9095 20.6355 11.5515 20.649C12.1345 20.661 12.7855 20.421 13.5045 19.929C18.4065 16.619 20.937 14.946 21.096 14.91C21.2085 14.8845 21.3645 14.8515 21.4695 14.946C21.5745 15.039 21.564 15.216 21.5535 15.264C21.4845 15.5535 18.7935 18.057 17.3985 19.353C16.9635 19.7565 16.656 20.043 16.593 20.109C16.45 20.254 16.309 20.3935 16.17 20.5275C15.315 21.3495 14.676 21.9675 16.206 22.9755C16.941 23.46 17.529 23.8605 18.1155 24.2595C18.756 24.696 19.395 25.131 20.223 25.674C20.433 25.814 20.6355 25.954 20.8305 26.094C21.576 26.6265 22.2465 27.1035 23.0745 27.0285C23.5545 26.9835 24.0525 26.532 24.3045 25.1835C24.9 21.9945 26.073 15.0885 26.3445 12.2415C26.3625 12.0051 26.3524 11.7675 26.3145 11.5335C26.2935 11.3441 26.2013 11.1698 26.0565 11.046C25.842 10.8705 25.509 10.833 25.359 10.836C24.6825 10.848 23.6445 11.2095 18.645 13.2885Z" fill="currentColor"/></symbol>
<symbol id="linkedin" viewBox="0 0 36 36" fill="none"><path fill="currentColor" d="M18 0C8.059 0 0 8.059 0 18s8.059 18 18 18 18-8.059 18-18S27.941 0 18 0m-4.406 25.46H9.949V13.73h3.645zm-1.845-13.17c-1.152 0-1.896-.815-1.896-1.824 0-1.03.767-1.82 1.943-1.82 1.175 0 1.895.79 1.918 1.82 0 1.009-.743 1.825-1.965 1.825m15.157 13.17h-3.645v-6.5c0-1.513-.528-2.54-1.847-2.54-1.007 0-1.605.695-1.869 1.364-.098.239-.122.576-.122.912v6.763h-3.647V17.47a78 78 0 0 0-.095-3.742h3.167l.166 1.63h.073c.48-.766 1.656-1.895 3.623-1.895 2.398 0 4.196 1.607 4.196 5.061z"/></symbol>
<symbol id="linkedin-square" viewBox="0 0 24 24" fill="currentColor"><path d="M20.45 20.45h-3.55v-5.57c0-1.33-.02-3.04-1.85-3.04-1.85 0-2.13 1.45-2.13 2.94v5.67H9.37V9h3.41v1.56h.05c.47-.9 1.64-1.85 3.37-1.85 3.6 0 4.27 2.37 4.27 5.45v6.29zM5.34 7.43a2.06 2.06 0 1 1 0-4.12 2.06 2.06 0 0 1 0 4.12zM7.12 20.45H3.56V9h3.56v11.45zM22.23 0H1.77C.79 0 0 .77 0 1.72v20.56C0 23.23.79 24 1.77 24h20.45c.98 0 1.78-.77 1.78-1.72V1.72C24 .77 23.21 0 22.23 0z"/></symbol>
<symbol id="spotlight" viewBox="0 0 32 32" fill="none"><path d="M22.3818 32C21.8034 30.5297 21.2508 29.1451 20.7127 27.7536C20.2372 26.5225 19.6692 25.3445 18.8689 24.2849C17.8177 22.8925 16.452 21.9015 14.9149 21.1136C14.2552 20.7758 13.6143 20.3986 12.9674 20.035C12.9143 20.005 12.8732 19.9545 12.7986 19.8859C13.2142 19.6501 13.6177 19.4306 14.0135 19.1966C14.9612 18.6393 15.9242 18.1043 16.8461 17.5068C17.5692 17.0387 18.145 16.3948 18.6959 15.7312C19.7926 14.4075 20.412 12.8386 21.022 11.2611C21.4573 10.138 21.9045 9.01744 22.3543 7.87462C22.3972 7.91405 22.4469 7.93892 22.4631 7.97835C22.8256 8.89141 23.1828 9.80447 23.5401 10.7193C23.852 11.5183 24.1262 12.3328 24.48 13.1121C25.1209 14.5241 25.9622 15.8041 27.1146 16.8638C27.9517 17.6337 28.9327 18.1823 29.918 18.7276C30.5992 19.104 31.276 19.4889 32 19.8953C31.7558 20.0368 31.5442 20.1619 31.3317 20.2828C30.3833 20.8221 29.4185 21.3331 28.4898 21.9015C26.885 22.8848 25.7018 24.272 24.8613 25.9404C24.4483 26.7591 24.1244 27.6225 23.774 28.4729C23.4416 29.2823 23.1272 30.0984 22.805 30.912C22.7005 31.1778 22.5994 31.4445 22.4966 31.7111C22.47 31.7822 22.4409 31.8525 22.3818 31.9974V32ZM0 8.58192C0.675145 8.19269 1.31945 7.84204 1.94233 7.45709C2.89421 6.86811 3.69017 6.10165 4.38245 5.22288C4.95649 4.49672 5.41059 3.70025 5.79528 2.86521C6.05232 2.30623 6.26052 1.72496 6.48756 1.15226C6.63836 0.772458 6.78401 0.390944 6.99821 0C7.11302 0.28292 7.22611 0.567555 7.34349 0.851333C7.70163 1.70867 8.02378 2.58315 8.42818 3.41905C9.19951 5.03348 10.397 6.40635 11.8913 7.38936C12.5082 7.79831 13.1756 8.13096 13.8191 8.49876C13.8576 8.52019 13.8919 8.54505 13.9707 8.59478C13.7377 8.72938 13.5355 8.85283 13.3264 8.96515C12.2357 9.54899 11.193 10.1946 10.3208 11.0939C9.43804 11.9976 8.7242 13.0522 8.21313 14.2077C7.82329 15.0891 7.48829 15.9961 7.12758 16.8912C7.08817 16.9864 7.03762 17.0781 6.96479 17.2307C6.80629 16.8475 6.67349 16.5217 6.53811 16.1976C6.16027 15.3017 5.83898 14.3758 5.38917 13.5176C4.53153 11.8818 3.32603 10.5401 1.71871 9.59271C1.2192 9.29865 0.70856 9.02173 0.203914 8.73452C0.14394 8.70109 0.0925326 8.65136 0.000856783 8.58277L0 8.58192Z" fill="currentColor"/></symbol>
<symbol id="spotlight-badge" viewBox="0 0 43 35" fill="none"><rect width="42.705" height="34.69" rx="6" fill="#237BFF"/><path d="M25.877 28.691c-.41-1.042-.802-2.024-1.183-3.01-.338-.873-.74-1.709-1.309-2.46-.746-.987-1.715-1.69-2.805-2.248-.469-.24-.923-.508-1.382-.765-.037-.022-.066-.057-.12-.106.295-.167.582-.323.862-.489.673-.395 1.356-.774 2.01-1.198.513-.332.922-.788 1.312-1.259.779-.938 1.218-2.05 1.65-3.169.31-.797.627-1.591.946-2.401.03.027.066.045.077.073.257.648.51 1.295.765 1.944.22.566.415 1.144.666 1.696.455 1.001 1.052 1.91 1.87 2.66.593.546 1.29.935 1.989 1.322.483.267.963.54 1.477.828-.174.1-.323.189-.475.275-.672.382-1.357.744-2.016 1.148-1.138.696-1.978 1.68-2.574 2.863-.293.58-.523 1.193-.771 1.796-.237.574-.46 1.152-.688 1.73-.074.187-.146.377-.219.566-.019.05-.04.1-.082.203v.001ZM10 12.085c.48-.276.936-.525 1.378-.797.675-.418 1.24-.962 1.732-1.585a8.23 8.23 0 0 0 1.002-1.672c.182-.396.33-.808.49-1.214.108-.27.211-.54.363-.817.082.201.162.403.245.604.254.607.483 1.228.77 1.82a6.963 6.963 0 0 0 2.457 2.816c.438.29.91.525 1.368.786.027.015.051.033.107.068-.165.095-.309.183-.457.263-.773.414-1.513.872-2.132 1.51a7.5 7.5 0 0 0-1.496 2.207c-.277.625-.514 1.268-.77 1.902-.028.068-.064.133-.116.242-.112-.273-.206-.503-.302-.733-.268-.635-.496-1.292-.816-1.9-.608-1.16-1.463-2.112-2.603-2.784-.355-.208-.717-.405-1.076-.608-.042-.024-.078-.059-.143-.107L10 12.085Z" fill="#fff"/></symbol>
<symbol id="research-placeholder" viewBox="0 0 32 32" fill="none" stroke="currentColor" stroke-width="1.5"><path d="M4 10h24v18H4z"/><path d="M9 6h14v4"/></symbol>
<symbol id="research-search-empty" viewBox="0 0 64 64" fill="none" stroke="currentColor" stroke-width="2"><circle cx="28" cy="28" r="18"/><line x1="42" y1="42" x2="56" y2="56" stroke-linecap="round"/><line x1="18" y1="28" x2="38" y2="28" stroke-linecap="round"/></symbol>
<symbol id="rss-mark" viewBox="0 0 24 24" fill="none"><rect width="24" height="24" rx="5" fill="#ee802f"/><circle cx="7" cy="17" r="2" fill="#fff"/><path d="M5 11.5a7.5 7.5 0 0 1 7.5 7.5" stroke="#fff" stroke-width="2.4" stroke-linecap="round"/><path d="M5 6.5a12.5 12.5 0 0 1 12.5 12.5" stroke="#fff" stroke-width="2.4" stroke-linecap="round"/></symbol>
<symbol id="quote" viewBox="0 0 27 20" fill="none"><path fill="currentColor" d="M26.727 3.094c-3.495 1.719-5.243 3.738-5.243 6.058 1.49.172 2.722.788 3.696 1.848.974 1.031 1.46 2.234 1.46 3.61 0 1.46-.472 2.692-1.417 3.695-.946 1.002-2.134 1.504-3.567 1.504-1.604 0-2.993-.645-4.168-1.934-1.174-1.318-1.761-2.908-1.761-4.77 0-5.585 3.122-9.954 9.367-13.105l1.633 3.094ZM11 3.094C7.477 4.813 5.715 6.832 5.715 9.152c1.518.172 2.764.788 3.738 1.848.974 1.031 1.461 2.234 1.461 3.61 0 1.46-.487 2.692-1.46 3.695-.946 1.002-2.135 1.504-3.567 1.504-1.604 0-2.994-.645-4.168-1.934C.573 16.557 0 14.967 0 13.105 0 7.52 3.108 3.151 9.324 0L11 3.094Z"/></symbol>
<symbol id="research-admin" viewBox="0 0 24 24" fill="none" stroke="currentColor" stroke-width="1.75" stroke-linecap="round" stroke-linejoin="round"><path d="M12 2l8 4v6c0 5-3.5 9-8 10-4.5-1-8-5-8-10V6l8-4z"/></symbol>
</defs>
</svg>
