<svg width="161" height="34" viewBox="0 0 161 34" fill="none" xmlns="http://www.w3.org/2000/svg">
<path d="M59.3248 8.04711C58.6652 7.21009 57.7917 6.60962 56.7092 6.23662C55.6264 5.8636 54.3027 5.68164 52.7334 5.68164C51.2503 5.68164 49.872 5.70893 48.6028 5.75897C47.6475 5.79991 46.7287 5.84539 45.8462 5.90453C45.3684 5.93637 45 6.33213 45 6.80978C45 10.2352 45 23.0361 45 26.457C45 26.9345 45.3684 27.3305 45.8462 27.3621C46.7287 27.4167 47.6475 27.4669 48.6028 27.5078C49.872 27.5578 51.2456 27.5851 52.7334 27.5851C54.2981 27.5851 55.6264 27.3987 56.7092 27.03C57.7917 26.657 58.6606 26.0567 59.3248 25.2197C59.9843 24.3826 60.4621 23.259 60.7623 21.8488C61.0624 20.4386 61.2125 18.7009 61.2125 16.6356C61.2125 14.5704 61.0624 12.8372 60.7623 11.4225C60.4621 10.0123 59.9843 8.88414 59.3248 8.05167V8.04711ZM57.4826 21.6259C57.1641 22.8314 56.6227 23.6912 55.8584 24.2098C55.0943 24.7236 54.0525 24.9832 52.7334 24.9832C51.414 24.9832 50.254 24.9695 49.1895 24.9376C49.1169 24.9376 49.0441 24.9376 48.9712 24.9329C48.48 24.9193 48.0934 24.5146 48.0934 24.0232V9.19801C48.0934 8.70216 48.489 8.29732 48.9802 8.2882H49.2987C50.3086 8.26092 51.4549 8.25183 52.7334 8.25183C54.0115 8.25183 55.0943 8.51568 55.8584 9.03881C56.6227 9.56648 57.1641 10.4308 57.4826 11.6363C57.8007 12.8418 57.9601 14.5067 57.9601 16.6311C57.9601 18.7555 57.8007 20.4204 57.4826 21.6259Z" fill="white"/>
<path d="M70.6465 24.7376C69.964 24.7376 69.4592 24.5785 69.1317 24.2601C68.7996 23.9417 68.6356 23.4504 68.6356 22.7908V6.86928C68.6356 6.36887 68.2263 5.95947 67.7259 5.95947H66.484C65.9838 5.95947 65.5742 6.36887 65.5742 6.86928V23.2548C65.5742 24.4285 65.9156 25.4065 66.5931 26.1798C67.2756 26.9531 68.3993 27.3398 69.964 27.3398C71.3879 27.3398 72.8118 27.3308 74.231 27.3079C75.3455 27.2899 76.4419 27.2489 77.529 27.1851C78.0295 27.1532 78.4115 26.7165 78.3752 26.2161L78.3343 25.5928C78.3024 25.1153 77.9067 24.7423 77.4245 24.7423H70.6372L70.6465 24.7376Z" fill="white"/>
<path d="M94.8379 18.0553C94.8379 18.633 94.8515 19.2153 94.8834 19.8021C94.9151 20.3889 94.9607 20.9939 95.0243 21.6126H94.6512C94.4056 20.9939 94.1464 20.398 93.8782 19.8203C93.6096 19.2426 93.3504 18.7194 93.1048 18.2418L87.382 7.3833C87.1364 6.91021 86.8816 6.55538 86.6223 6.3143C86.3631 6.07774 85.9901 5.95947 85.4942 5.95947H82.9286C81.773 5.95947 81.1953 6.5281 81.1953 7.66079V26.3935C81.1953 26.8939 81.6049 27.3035 82.1051 27.3035H84.7708C85.2713 27.3035 85.6806 26.8939 85.6806 26.3935V14.8073C85.6806 14.2523 85.658 13.6882 85.617 13.1196C85.5761 12.551 85.5262 11.9915 85.4623 11.4319H85.8034C85.9674 11.9687 86.1674 12.5237 86.4087 13.1014C86.6452 13.6791 86.8862 14.2068 87.1364 14.6799L93.0456 25.8796C93.2729 26.3525 93.5188 26.7119 93.787 26.9485C94.0555 27.1851 94.4466 27.3035 94.9607 27.3035H98.3498C98.85 27.3035 99.2596 26.8939 99.2596 26.3935V6.86928C99.2596 6.36887 98.85 5.95947 98.3498 5.95947H95.7157C95.2109 5.95947 94.8059 6.36887 94.8059 6.87381L94.8332 18.0553H94.8379Z" fill="white"/>
<path d="M116.674 19.9882C117.397 19.2967 117.747 18.2505 117.725 16.8494C117.725 15.1162 117.16 13.8152 116.037 12.9372C114.913 12.0592 113.062 11.6226 110.482 11.6226C108.604 11.6226 107.089 11.8818 105.933 12.3959C104.778 12.9099 103.932 13.756 103.395 14.9342C102.858 16.1079 102.59 17.7 102.59 19.697C102.59 21.5348 102.854 23.036 103.377 24.2141C103.905 25.3878 104.76 26.2612 105.942 26.8299C107.13 27.3986 108.69 27.6805 110.628 27.6805C111.369 27.6805 112.143 27.6442 112.948 27.5713C113.753 27.4985 114.536 27.3803 115.3 27.2166C115.791 27.1118 116.246 26.98 116.664 26.8253C117.083 26.6706 117.297 26.2612 117.233 25.8383L117.06 24.7236C116.965 24.0959 116.528 23.7684 116.041 23.8139C115.281 23.8912 114.522 23.9458 113.767 23.9822C112.725 24.0322 111.852 24.0597 111.151 24.0597C110.182 24.0597 109.422 23.9276 108.876 23.6592C108.331 23.3908 107.944 22.9132 107.717 22.2217L107.707 22.199C107.521 21.6213 107.976 21.0299 108.581 21.0299H112.911C114.686 21.0299 115.932 20.6842 116.655 19.9927L116.674 19.9882ZM111.661 18.4552H108.39C107.848 18.4552 107.421 17.9775 107.484 17.4407C107.53 17.0677 107.589 16.7447 107.671 16.4763C107.857 15.8349 108.185 15.4028 108.663 15.1753C109.136 14.9479 109.795 14.8341 110.642 14.8341C111.588 14.8341 112.266 14.9752 112.666 15.2527C113.066 15.5302 113.28 16.0305 113.298 16.7538C113.298 17.2906 113.198 17.7091 113.003 18.0048C112.807 18.305 112.356 18.4552 111.656 18.4552H111.661Z" fill="white"/>
<path d="M137.862 21.9217C137.78 22.3539 137.712 22.7724 137.662 23.1727C137.612 23.573 137.544 23.9915 137.462 24.4236H137.089C137.025 23.9915 136.957 23.5685 136.871 23.1545C136.789 22.7406 136.716 22.3312 136.652 21.9172L135.015 13.4424C134.951 13.0102 134.774 12.6645 134.473 12.4052C134.173 12.1459 133.818 12.0186 133.404 12.0186H130.434C130.001 12.0186 129.638 12.1459 129.351 12.4052C129.064 12.6645 128.887 12.9966 128.823 13.4106L127.154 21.9172C127.09 22.3312 127.027 22.7497 126.954 23.1682C126.881 23.5912 126.813 24.0097 126.754 24.4193H126.353C126.312 24.0052 126.262 23.5912 126.199 23.1682C126.135 22.7451 126.062 22.3266 125.98 21.9172L124.029 12.7373C123.938 12.3188 123.569 12.0186 123.137 12.0186H120.449C119.848 12.0186 119.416 12.5872 119.571 13.1649L123.037 26.0931C123.119 26.4661 123.305 26.7573 123.592 26.9756C123.879 27.1939 124.22 27.2987 124.611 27.2987H128.045C128.459 27.2987 128.819 27.1713 129.128 26.912C129.437 26.6528 129.624 26.3207 129.683 25.9067L131.352 17.309C131.416 16.8769 131.476 16.4493 131.539 16.0262C131.603 15.6032 131.662 15.1756 131.726 14.7434H132.099C132.181 15.1756 132.244 15.6032 132.285 16.0262C132.326 16.4493 132.376 16.8769 132.44 17.309L134.109 25.9067C134.173 26.3207 134.355 26.6528 134.664 26.912C134.974 27.1713 135.333 27.2987 135.747 27.2987H139.213C139.605 27.2987 139.946 27.1895 140.232 26.9756C140.519 26.7573 140.705 26.4661 140.787 26.0931L144.254 13.1649C144.408 12.5872 143.971 12.0186 143.376 12.0186H140.687C140.26 12.0186 139.886 12.3188 139.796 12.7373L137.844 21.9172L137.862 21.9217Z" fill="white"/>
<path d="M159.484 19.9883C158.866 19.3378 157.915 18.8511 156.637 18.519L152.647 17.5592C151.924 17.3727 151.41 17.2043 151.1 17.0497C150.791 16.895 150.637 16.5902 150.637 16.1353C150.637 15.7441 150.723 15.4712 150.9 15.3165C151.073 15.1618 151.378 15.0663 151.815 15.0208C152.247 14.9799 152.865 14.9708 153.671 14.989C154.617 14.989 155.595 14.9935 156.596 15.0026C157.314 15.0117 158.033 15.0208 158.752 15.0345C159.22 15.0436 159.621 14.6933 159.671 14.2248L159.798 13.0602C159.853 12.578 159.516 12.1322 159.034 12.0594C158.62 11.9957 158.17 11.9411 157.692 11.8957C156.869 11.8138 156.023 11.7455 155.154 11.6955C154.285 11.6455 153.484 11.6182 152.743 11.6182C151.155 11.6182 149.881 11.7637 148.922 12.0503C147.962 12.3415 147.27 12.7963 146.847 13.4287C146.424 14.0564 146.215 14.898 146.215 15.9488C146.215 16.7722 146.324 17.4864 146.538 18.0823C146.756 18.6828 147.129 19.1877 147.666 19.5971C148.203 20.0111 148.953 20.3522 149.922 20.6161L153.789 21.5759C154.553 21.7625 155.108 21.9353 155.458 22.1036C155.809 22.2674 155.986 22.5767 155.986 23.0316C155.986 23.4046 155.882 23.6821 155.677 23.8686C155.472 24.0552 155.09 24.1733 154.531 24.2235C153.976 24.2735 153.17 24.3008 152.119 24.3008H150.077C149.395 24.3008 148.767 24.2961 148.189 24.2871C147.98 24.2871 147.784 24.2781 147.602 24.2735C147.129 24.2598 146.729 24.6146 146.674 25.0831L146.552 26.2205C146.497 26.7073 146.847 27.1485 147.334 27.2214C148.503 27.3895 149.595 27.4986 150.605 27.5488C151.86 27.6124 152.811 27.6397 153.452 27.6397C155.081 27.6397 156.409 27.5123 157.442 27.253C158.474 26.9938 159.225 26.5253 159.698 25.8474C160.171 25.165 160.408 24.187 160.408 22.9088C160.408 21.6305 160.098 20.6343 159.48 19.9838L159.484 19.9883Z" fill="white"/>
<path fill-rule="evenodd" clip-rule="evenodd" d="M27.4988 0H7.45582C3.36172 0 0 3.36173 0 7.45583V27.3715C0 29.2047 0.732389 30.8559 1.95606 32.1979C4.15778 34.5815 8.1882 33.0531 8.1882 29.7551V25.1742C8.1882 24.8059 8.00624 24.5011 7.7606 24.319C6.84627 23.6457 6.23213 22.3038 6.23213 20.7753C6.23213 19.0649 7.02822 17.6001 8.12451 16.986C8.42932 16.804 8.61127 16.5584 8.73409 16.1899C8.97974 15.2119 9.34365 14.2975 9.83494 13.4423C9.22538 13.3832 8.67496 13.0147 8.37018 12.528C7.14649 10.6947 5.49975 8.86146 4.21692 5.92736C3.97127 5.4406 4.03496 4.82648 4.3989 4.33975C4.3989 4.28062 4.45803 4.28062 4.52172 4.21693C4.8265 3.91215 5.31779 3.97128 5.62257 4.27606C7.57864 6.10931 9.96232 6.65974 11.2451 8.4293C11.368 8.18366 11.4908 8.0017 11.6136 7.81974C12.2232 7.08734 13.1421 6.65974 14.0564 6.78256C14.484 6.84169 14.9116 6.60061 15.1573 6.23214C15.5258 5.68171 16.0716 5.25411 16.6857 5.07213C17.9094 4.70366 19.1286 5.19495 19.8018 6.23214C20.0475 6.60061 20.4751 6.78256 20.9027 6.78256C21.2711 6.72343 21.6351 6.78256 22.0035 6.90538C22.554 7.08734 22.9816 7.39214 23.35 7.81974C23.4729 8.0017 23.6548 8.18821 23.7185 8.4293C24.9422 6.77803 27.0802 6.41409 28.9726 4.58084C29.4002 4.27606 29.9506 4.21237 30.4374 4.52171C30.5602 4.58084 30.6194 4.64453 30.683 4.76735C30.9286 5.07213 30.9878 5.49976 30.8058 5.86823L30.7468 5.99105C29.4638 8.92515 27.8764 10.7584 26.6526 12.5917C26.3478 13.1421 25.7974 13.4469 25.1879 13.506C25.7382 14.3612 26.1022 15.2801 26.2888 16.2536C26.3478 16.6221 26.5934 16.8632 26.8982 17.0497C27.8764 17.6001 28.6086 18.7601 28.7316 20.2249C28.7316 20.4068 28.7906 20.5934 28.7906 20.8344C28.7906 22.4857 28.0582 23.8914 27.0166 24.5011C26.9574 24.56 26.8938 24.56 26.8346 24.6238V24.9287C26.8346 24.9287 26.8346 28.1039 27.0166 29.5095C27.4442 33.9719 31.1106 33.2987 31.1106 33.2987C34.4086 32.7483 35.0229 29.6323 35.0229 27.4943V7.45583C35.0229 3.36173 31.661 0 27.5078 0H27.4988Z" fill="white"/>
<path fill-rule="evenodd" clip-rule="evenodd" d="M23.336 16.1308C23.336 16.1703 23.336 16.1703 23.336 16.1308L23.2132 16.2537C22.2989 16.986 20.9524 16.986 19.9743 16.2537V16.3128C19.9743 16.5584 19.9152 16.7404 19.8515 16.986C19.5467 17.5956 18.8735 18.0232 18.0774 18.1461H17.7089C16.4261 18.1461 15.3889 17.2909 15.3889 16.3128C14.4109 17.0452 13.1281 17.0452 12.15 16.3128C12.0272 16.19 11.9044 16.0672 11.7816 15.9443C11.5996 16.2491 11.4768 16.5539 11.4768 16.8587C11.4768 17.1635 11.5359 17.4683 11.7224 17.773C12.15 18.5691 12.3957 19.4835 12.3957 20.4024C12.3957 21.3804 12.15 22.3584 11.5996 23.15C11.2311 23.8232 11.2948 24.6146 11.7816 25.165C13.0644 26.6937 15.1433 28.0357 17.0993 28.1585H17.5861C19.6013 28.1585 21.1935 27.0574 22.4763 25.5291C22.6582 25.2835 22.8447 25.0422 23.0267 24.8559C23.3952 24.3055 23.4543 23.573 23.0858 23.0226C22.6582 22.2265 22.4126 21.3122 22.4126 20.3933C22.4126 19.4152 22.6582 18.5009 23.145 17.6457C23.4498 17.1589 23.5135 16.6085 23.327 16.1172L23.336 16.1308ZM20.22 20.3478C20.2791 20.5297 20.2791 20.7162 20.0972 20.8982C20.0972 20.8982 18.9372 23.0362 17.4087 23.0362C15.8802 23.0362 14.7202 20.8982 14.7202 20.8982C14.5383 20.7162 14.5383 20.4706 14.7202 20.2886C14.8431 20.1658 14.9659 20.1067 15.0887 20.1658C15.0887 20.1658 16.0031 20.4706 17.4724 20.4706C18.9417 20.4706 19.7332 20.1658 19.7332 20.1658C19.9789 20.1067 20.1609 20.225 20.22 20.3478Z" fill="white"/>
</svg>
