<svg xmlns="http://www.w3.org/2000/svg" xmlns:xlink="http://www.w3.org/1999/xlink" viewBox="0 0 600 160.67"><defs><style>.cls-1,.cls-6{fill:#fff;}.cls-10,.cls-13,.cls-14,.cls-15,.cls-2,.cls-4,.cls-5,.cls-6,.cls-8,.cls-9{isolation:isolate;}.cls-2{fill:url(#linear-gradient);}.cls-3{fill:none;}.cls-4{fill:url(#linear-gradient-2);}.cls-5{fill:url(#linear-gradient-3);}.cls-7{fill:#b3d2ff;}.cls-8{fill:url(#linear-gradient-4);}.cls-9{fill:url(#linear-gradient-5);}.cls-10{fill:url(#linear-gradient-6);}.cls-11{fill:#c7c7ff;}.cls-12{fill:#442589;fill-rule:evenodd;}.cls-13{fill:url(#linear-gradient-7);}.cls-14{fill:url(#linear-gradient-8);}.cls-15{fill:url(#linear-gradient-9);}</style><linearGradient id="linear-gradient" y1="80.33" x2="160.67" y2="80.33" gradientTransform="translate(80.33 -33.28) rotate(45)" gradientUnits="userSpaceOnUse"><stop offset="0" stop-color="#442589"/><stop offset="1" stop-color="#5d5fff"/></linearGradient><linearGradient id="linear-gradient-2" x1="-15.53" y1="73.49" x2="80.43" y2="2.56" gradientTransform="matrix(1, 0, 0, 1, 0, 0)" xlink:href="#linear-gradient"/><linearGradient id="linear-gradient-3" x1="-54.54" y1="97.42" x2="26.82" y2="77.25" gradientTransform="matrix(1, 0, 0, 1, 0, 0)" xlink:href="#linear-gradient"/><linearGradient id="linear-gradient-4" x1="85.44" y1="103.11" x2="-61.75" y2="191.64" gradientUnits="userSpaceOnUse"><stop offset="0" stop-color="#c7c7ff"/><stop offset="1" stop-color="#5d5fff"/></linearGradient><linearGradient id="linear-gradient-5" x1="88.57" y1="97.11" x2="205.85" y2="101.8" gradientTransform="matrix(1, 0, 0, 1, 0, 0)" xlink:href="#linear-gradient"/><linearGradient id="linear-gradient-6" x1="75.78" y1="179.2" x2="78.03" y2="91.87" gradientUnits="userSpaceOnUse"><stop offset="0" stop-color="#b3d2ff"/><stop offset="1" stop-color="#fff"/></linearGradient><linearGradient id="linear-gradient-7" x1="97.94" y1="181.49" x2="102.18" y2="103.44" xlink:href="#linear-gradient-6"/><linearGradient id="linear-gradient-8" x1="59.5" y1="151.4" x2="63.74" y2="73.35" gradientTransform="translate(29.67 19.16) rotate(9.28)" xlink:href="#linear-gradient-6"/><linearGradient id="linear-gradient-9" x1="89.13" y1="181.01" x2="93.37" y2="102.96" xlink:href="#linear-gradient-6"/></defs><g id="Layer_2" data-name="Layer 2"><g id="Layer_1-2" data-name="Layer 1"><path class="cls-1" d="M220.81,74.3a24.12,24.12,0,0,1-1.53,9,17.33,17.33,0,0,1-4.32,6.4,18.09,18.09,0,0,1-6.73,3.85,28.25,28.25,0,0,1-8.74,1.28c-.72,0-1.55,0-2.46-.07s-1.86-.12-2.82-.22-1.93-.26-2.91-.45a16.87,16.87,0,0,1-2.69-.74q-3.33-1.22-3.33-4.35V58.48a2.75,2.75,0,0,1,.67-2,4.93,4.93,0,0,1,2-1.16,26,26,0,0,1,5.57-1.08c2-.17,3.76-.26,5.38-.26a31,31,0,0,1,9,1.22A18.39,18.39,0,0,1,214.73,59a17.06,17.06,0,0,1,4.48,6.34A23.08,23.08,0,0,1,220.81,74.3Zm-10.37.13q0-6.21-3-9.26a10.73,10.73,0,0,0-7.91-3c-.77,0-1.49,0-2.17.07a15.72,15.72,0,0,0-2,.25V86.27a14.59,14.59,0,0,0,2,.29c.79.06,1.55.1,2.28.1a10.55,10.55,0,0,0,7.94-3C209.46,81.59,210.44,78.52,210.44,74.43Z"/><path class="cls-1" d="M235.16,82.49a6.17,6.17,0,0,0,3.13,3.81,11.46,11.46,0,0,0,5.19,1.12,17.89,17.89,0,0,0,8.9-2.37,5.44,5.44,0,0,1,1.6,1.67,4.11,4.11,0,0,1,.64,2.24,3.93,3.93,0,0,1-.89,2.56,6.9,6.9,0,0,1-2.47,1.83,14,14,0,0,1-3.71,1.08,28.54,28.54,0,0,1-4.71.36,22.3,22.3,0,0,1-7-1.06,15.2,15.2,0,0,1-5.51-3.14,14.27,14.27,0,0,1-3.61-5.22A18.86,18.86,0,0,1,225.42,78a17.62,17.62,0,0,1,1.32-7.11,14.25,14.25,0,0,1,3.52-5A13.84,13.84,0,0,1,235.32,63a18.76,18.76,0,0,1,5.86-.93,17.37,17.37,0,0,1,6,1,13.82,13.82,0,0,1,4.68,2.78,12.74,12.74,0,0,1,3,4.29A13.43,13.43,0,0,1,256,75.58a4,4,0,0,1-1.09,3.07A5.78,5.78,0,0,1,251.81,80Zm6.08-13.19a6.47,6.47,0,0,0-4.58,1.7,7.43,7.43,0,0,0-2.14,4.9l12.23-2a5.21,5.21,0,0,0-1.48-3.13A5.15,5.15,0,0,0,241.24,69.3Z"/><path class="cls-1" d="M271.08,65.27H282a15.7,15.7,0,0,1,.68,1.6A6.18,6.18,0,0,1,283,69a4,4,0,0,1-.93,3,3.3,3.3,0,0,1-2.4.89h-8.13V93.76a11.68,11.68,0,0,1-1.8.35,18.1,18.1,0,0,1-2.56.16,7.29,7.29,0,0,1-4.16-.92c-.85-.62-1.28-1.83-1.28-3.62V62.52a12.89,12.89,0,0,1,1.06-5.45,9.79,9.79,0,0,1,2.91-3.74,12.66,12.66,0,0,1,4.35-2.15,19.77,19.77,0,0,1,5.38-.7c3,0,5.29.39,6.76,1.18a4.07,4.07,0,0,1,2.21,3.88,4.59,4.59,0,0,1-.48,2.14,4.45,4.45,0,0,1-1.12,1.44,23,23,0,0,0-2.6-.64,17.07,17.07,0,0,0-3.1-.25,7.91,7.91,0,0,0-4.48,1.05,4,4,0,0,0-1.54,3.55Zm17.29-11.08a5.11,5.11,0,0,1,1.5-3.71,5.81,5.81,0,0,1,7.88,0,5.11,5.11,0,0,1,1.5,3.71,5.2,5.2,0,0,1-1.5,3.78,5.81,5.81,0,0,1-7.88,0A5.2,5.2,0,0,1,288.37,54.19Zm10.31,39.57a11.68,11.68,0,0,1-1.8.35,18.1,18.1,0,0,1-2.56.16,7.14,7.14,0,0,1-4.13-.92c-.83-.62-1.25-1.83-1.25-3.62V63.41a15.78,15.78,0,0,1,1.8-.38,15.38,15.38,0,0,1,2.56-.2,6.87,6.87,0,0,1,4.13,1c.83.64,1.25,1.85,1.25,3.65Z"/><path class="cls-1" d="M308.51,92.51a5.24,5.24,0,0,1-1.45-3.87V54.9c.47-.09,1.15-.2,2-.32a17.69,17.69,0,0,1,2.59-.2,7.06,7.06,0,0,1,4.17,1c.85.64,1.28,1.9,1.28,3.78v26.7h15.36a8.33,8.33,0,0,1,.74,1.67,6.7,6.7,0,0,1,.35,2.24,4.74,4.74,0,0,1-.92,3.17,3.22,3.22,0,0,1-2.53,1H312.38A5.23,5.23,0,0,1,308.51,92.51Z"/><path class="cls-1" d="M344.65,94.27a7.14,7.14,0,0,1-4.13-.92c-.83-.62-1.25-1.83-1.25-3.62V52.14a15.61,15.61,0,0,1,1.83-.38,15.9,15.9,0,0,1,2.59-.19,6.92,6.92,0,0,1,4.1,1c.85.64,1.28,1.85,1.28,3.65V93.76a13.89,13.89,0,0,1-1.86.35A18.2,18.2,0,0,1,344.65,94.27Z"/><path class="cls-1" d="M369,62.07a25.27,25.27,0,0,1,6.06.67,13.08,13.08,0,0,1,4.64,2.08,9.52,9.52,0,0,1,3,3.59,11.53,11.53,0,0,1,1.06,5.12V88a3.94,3.94,0,0,1-.86,2.66,8.24,8.24,0,0,1-2.08,1.69A15.81,15.81,0,0,1,376,94.21a30,30,0,0,1-6.53.64q-6.6,0-10.5-2.53A8.54,8.54,0,0,1,355,84.61q0-4.42,2.63-6.73T365.72,75l8.51-.89V73.4a3.22,3.22,0,0,0-1.66-3,9.79,9.79,0,0,0-4.81-1A19.59,19.59,0,0,0,363,70a29.13,29.13,0,0,0-4.19,1.34,4,4,0,0,1-1.31-1.57,4.79,4.79,0,0,1-.55-2.27,4.17,4.17,0,0,1,2.95-4,20.08,20.08,0,0,1,4.32-1.06A34.88,34.88,0,0,1,369,62.07Zm.39,25.55a13.59,13.59,0,0,0,2.78-.29,6.63,6.63,0,0,0,2.09-.74V80.7l-5.26.45a8,8,0,0,0-3.29.93,2.4,2.4,0,0,0-1.25,2.21,2.91,2.91,0,0,0,1.15,2.43A6.21,6.21,0,0,0,369.43,87.62Z"/><path class="cls-1" d="M437.49,93.76a14,14,0,0,1-1.85.35,18.35,18.35,0,0,1-2.57.16,7.16,7.16,0,0,1-4.13-.92c-.83-.62-1.24-1.83-1.24-3.62V73.85a3.9,3.9,0,0,0-1.16-3.11,4.63,4.63,0,0,0-3.13-1,6.33,6.33,0,0,0-2.4.45,8.15,8.15,0,0,0-2,1.15c0,.22.07.43.09.64s0,.43,0,.64V93.76a13.89,13.89,0,0,1-1.86.35,18.2,18.2,0,0,1-2.56.16,7.14,7.14,0,0,1-4.13-.92c-.83-.62-1.25-1.83-1.25-3.62V73.85A3.71,3.71,0,0,0,408,70.74a5,5,0,0,0-3.14-1,6.7,6.7,0,0,0-2.43.42,12.58,12.58,0,0,0-1.79.8V93.76a11.68,11.68,0,0,1-1.8.35,18.2,18.2,0,0,1-2.56.16,7.29,7.29,0,0,1-4.16-.92c-.86-.62-1.28-1.83-1.28-3.62V69.94a4.67,4.67,0,0,1,.7-2.69,7.8,7.8,0,0,1,2-1.92A17.76,17.76,0,0,1,398.79,63a23.57,23.57,0,0,1,6.5-.89,17.3,17.3,0,0,1,5.09.73,13.48,13.48,0,0,1,4.38,2.28,19.47,19.47,0,0,1,4.36-2.15,17.38,17.38,0,0,1,5.76-.86,18.24,18.24,0,0,1,4.77.61,10.73,10.73,0,0,1,4,2,10.09,10.09,0,0,1,2.79,3.59,12.34,12.34,0,0,1,1.05,5.34Z"/><path class="cls-1" d="M457.15,62.07a25.13,25.13,0,0,1,6.05.67,13.08,13.08,0,0,1,4.64,2.08,9.54,9.54,0,0,1,3,3.59,11.67,11.67,0,0,1,1.06,5.12V88a3.89,3.89,0,0,1-.87,2.66,8.07,8.07,0,0,1-2.08,1.69,15.62,15.62,0,0,1-4.87,1.86,30,30,0,0,1-6.53.64q-6.58,0-10.5-2.53a8.55,8.55,0,0,1-3.9-7.71q0-4.42,2.62-6.73T453.82,75l8.52-.89V73.4a3.23,3.23,0,0,0-1.67-3,9.74,9.74,0,0,0-4.8-1,19.59,19.59,0,0,0-4.77.58,29.28,29.28,0,0,0-4.2,1.34,4,4,0,0,1-1.31-1.57,4.9,4.9,0,0,1-.54-2.27,4.16,4.16,0,0,1,2.94-4,20.08,20.08,0,0,1,4.32-1.06A35,35,0,0,1,457.15,62.07Zm.38,25.55a13.76,13.76,0,0,0,2.79-.29,6.56,6.56,0,0,0,2.08-.74V80.7l-5.25.45a8,8,0,0,0-3.3.93,2.4,2.4,0,0,0-1.25,2.21,2.92,2.92,0,0,0,1.16,2.43A6.16,6.16,0,0,0,457.53,87.62Z"/><path class="cls-1" d="M524.57,93.86a12.28,12.28,0,0,1-3.65.48,11.72,11.72,0,0,1-4.09-.71,6.07,6.07,0,0,1-3.21-3.2L506.2,76.09c-.73-1.37-1.4-2.73-2-4.1S503,69.2,502.35,67.7l-.44.13c.21,2.56.34,5,.38,7.33s.06,4.58.06,6.76V93.83c-.42.08-1.05.18-1.89.28a19.69,19.69,0,0,1-2.59.16c-1.92,0-3.26-.33-4-1s-1.16-1.84-1.16-3.55v-33a5,5,0,0,1,2.47-1.69,10.54,10.54,0,0,1,3.62-.61,11.74,11.74,0,0,1,4.13.7,6.2,6.2,0,0,1,3.17,3.14l7.49,14.41c.73,1.36,1.4,2.73,2,4.09s1.22,2.8,1.82,4.29l.26-.06c-.22-2.86-.33-5.57-.36-8.13s0-5,0-7.37V54.9c.43-.09,1.06-.2,1.89-.32a17.21,17.21,0,0,1,2.66-.2c1.92,0,3.26.33,4,1S527,57.22,527,58.93V92.61A6.89,6.89,0,0,1,524.57,93.86Z"/><path class="cls-1" d="M562.54,55a8.12,8.12,0,0,1,.71,1.67,7.58,7.58,0,0,1,.32,2.24,4.57,4.57,0,0,1-.93,3.14,3.34,3.34,0,0,1-2.59,1H545.83v8.39h14.54a12.61,12.61,0,0,1,.73,1.66,6.41,6.41,0,0,1,.35,2.25,4.33,4.33,0,0,1-1,3.1,3.4,3.4,0,0,1-2.56,1H546V93.76a13.76,13.76,0,0,1-2,.35,21,21,0,0,1-2.69.16c-2,0-3.4-.34-4.19-1s-1.19-1.92-1.19-3.71V60.34A5,5,0,0,1,541.22,55Z"/><path class="cls-1" d="M588.6,63.09V93.76a13.84,13.84,0,0,1-2,.35,21.14,21.14,0,0,1-2.69.16q-3,0-4.23-1c-.81-.68-1.21-1.92-1.21-3.71V63.09H568.43a8.86,8.86,0,0,1-.73-1.66,6.75,6.75,0,0,1-.36-2.24,4.44,4.44,0,0,1,1-3.17,3.48,3.48,0,0,1,2.63-1h28a6,6,0,0,1,.77,1.67,7.58,7.58,0,0,1,.32,2.24,4.47,4.47,0,0,1-1,3.14,3.44,3.44,0,0,1-2.63,1Z"/><rect class="cls-2" x="15.01" y="15.01" width="130.65" height="130.65" rx="29.08" transform="translate(-33.27 80.33) rotate(-45)"/><rect class="cls-3" x="15.01" y="15.01" width="130.65" height="130.65" rx="29.08" transform="translate(-33.27 80.33) rotate(-45)"/><path class="cls-4" d="M59.77,8.52l-32,32a29,29,0,0,0,25-8.17l32-32A29,29,0,0,0,59.77,8.52Z"/><path class="cls-5" d="M8.52,100.9l5.86,5.86,5.86-5.86a29.08,29.08,0,0,0,0-41.13l-5.86-5.86L8.52,59.77A29.08,29.08,0,0,0,8.52,100.9Z"/><path class="cls-6" d="M41.19,58.88A2.59,2.59,0,0,1,41,61h0a2.59,2.59,0,0,1-3.74.81l-6.52-4.71a1.76,1.76,0,0,1,1.76-3l7.33,3.29a2.55,2.55,0,0,1,1.39,1.57"/><path class="cls-6" d="M41.19,101.77a2.57,2.57,0,0,1-1.4,1.56l-7.33,3.3a1.76,1.76,0,0,1-1.75-3l6.51-4.7a2.58,2.58,0,0,1,3.6.59,1.64,1.64,0,0,1,.14.22,2.59,2.59,0,0,1,.22,2.07"/><path class="cls-7" d="M28,82.86l-2.8-1a2.14,2.14,0,0,1,0-4.05l2.8-1a3.15,3.15,0,1,1,0,6"/><path class="cls-8" d="M50.31,95.38c-6.52,12.92-15.78,19.32-25.16,22.15l34.62,34.62.61.58a74.47,74.47,0,0,0,11.42-21.9S69.54,57.3,50.31,95.38Z"/><path class="cls-9" d="M156.36,65.1,120,101.47a22.37,22.37,0,0,0,0,31.62l32.19-32.19A29.08,29.08,0,0,0,156.36,65.1Z"/><path class="cls-6" d="M127.45,58.88a2.58,2.58,0,0,1,1.39-1.57L136.17,54a1.76,1.76,0,0,1,1.76,3l-6.52,4.71a2.59,2.59,0,0,1-3.74-.81h0a2.59,2.59,0,0,1-.22-2.07"/><path class="cls-6" d="M127.46,101.77a2.59,2.59,0,0,1,.22-2.07,1.64,1.64,0,0,1,.14-.22,2.58,2.58,0,0,1,3.6-.59l6.51,4.7a1.76,1.76,0,0,1-1.75,3l-7.33-3.3a2.57,2.57,0,0,1-1.4-1.56"/><path class="cls-7" d="M140.65,82.86a3.15,3.15,0,1,1,0-6l2.8,1a2.14,2.14,0,0,1,0,4.05l-2.8,1"/><path class="cls-10" d="M100.09,37.84h-.33a7.42,7.42,0,0,0-7.42-7.42h1a4.9,4.9,0,0,0-4.9-4.91H74.32a4.91,4.91,0,0,0-4.91,4.91H68a7.42,7.42,0,0,0-7.42,7.42H59.45a7.4,7.4,0,0,0-7.4,7.4V58H52V88.17A10.07,10.07,0,0,0,51.82,90C51.61,111,49.41,126.73,46,138.37l13.78,13.78a29.09,29.09,0,0,0,38.42,2.38c.44-.34.88-.7,1.31-1.08l.1-.09c.45-.39.88-.79,1.3-1.21l6.59-6.59V45.24A7.4,7.4,0,0,0,100.09,37.84Z"/><path class="cls-11" d="M121.88,80.72c0,5.7-6.25,10.12-13.47,9.6-11.28-.81-17.59-2.67-20-5.17-2.22-2.27,0-6.12,0-6.12l.66-22.09h14.11c10.33,0,18.88,9.73,18.88,17.85Z"/><path class="cls-12" d="M121.79,81.87a1.61,1.61,0,0,1-1.17-.86l-1.11-5.32a2.48,2.48,0,0,0-.67-1.23l-3.78-3.77a1.33,1.33,0,0,1,0-1.75,1.1,1.1,0,0,1,1-.37l4.87.68s1,1.31,1.33,5.64A21.1,21.1,0,0,1,121.79,81.87Z"/><path class="cls-11" d="M87.12,22.84a2.69,2.69,0,0,0-.84-.58,3.26,3.26,0,0,0-4,1.1c-4.6,6.18-10.74,8.33-13.4,13.78C65.75,43,71.4,53.53,79.27,48.07,85.11,44,85.77,35.6,88,26.45l.09-.4a3.19,3.19,0,0,0-.93-3.21"/><circle class="cls-13" cx="104.65" cy="57.96" r="5.09"/><circle class="cls-14" cx="88.18" cy="67.98" r="11.05"/><ellipse class="cls-15" cx="96.08" cy="53.2" rx="11.03" ry="6.45"/></g></g></svg>