<svg viewBox="0 0 600 160.67" xmlns="http://www.w3.org/2000/svg" xmlns:xlink="http://www.w3.org/1999/xlink"><linearGradient id="a" gradientTransform="matrix(.70710678 .70710678 -.70710678 .70710678 80.33 -33.28)" gradientUnits="userSpaceOnUse" x2="160.67" y1="80.33" y2="80.33"><stop offset="0" stop-color="#442589"/><stop offset="1" stop-color="#5d5fff"/></linearGradient><linearGradient id="b" x1="-15.53" x2="80.43" xlink:href="#a" y1="73.49" y2="2.56"/><linearGradient id="c" x1="-54.54" x2="26.82" xlink:href="#a" y1="97.42" y2="77.25"/><linearGradient id="d" gradientUnits="userSpaceOnUse" x1="85.44" x2="-61.75" y1="103.11" y2="191.64"><stop offset="0" stop-color="#c7c7ff"/><stop offset="1" stop-color="#5d5fff"/></linearGradient><linearGradient id="e" x1="88.57" x2="205.85" xlink:href="#a" y1="97.11" y2="101.8"/><linearGradient id="f" gradientUnits="userSpaceOnUse" x1="75.78" x2="78.03" y1="179.2" y2="91.87"><stop offset="0" stop-color="#b3d2ff"/><stop offset="1" stop-color="#fff"/></linearGradient><linearGradient id="g" x1="97.94" x2="102.18" xlink:href="#f" y1="181.49" y2="103.44"/><linearGradient id="h" gradientTransform="matrix(.98691207 .16125933 -.16125933 .98691207 29.67 19.16)" x1="59.5" x2="63.74" xlink:href="#f" y1="151.4" y2="73.35"/><linearGradient id="i" x1="89.13" x2="93.37" xlink:href="#f" y1="181.01" y2="102.96"/><g fill="#fff"><path d="m220.81 74.3a24.12 24.12 0 0 1 -1.53 9 17.33 17.33 0 0 1 -4.32 6.4 18.09 18.09 0 0 1 -6.73 3.85 28.25 28.25 0 0 1 -8.74 1.28c-.72 0-1.55 0-2.46-.07s-1.86-.12-2.82-.22-1.93-.26-2.91-.45a16.87 16.87 0 0 1 -2.69-.74q-3.33-1.22-3.33-4.35v-30.52a2.75 2.75 0 0 1 .67-2 4.93 4.93 0 0 1 2-1.16 26 26 0 0 1 5.57-1.08c2-.17 3.76-.26 5.38-.26a31 31 0 0 1 9 1.22 18.39 18.39 0 0 1 6.83 3.8 17.06 17.06 0 0 1 4.48 6.34 23.08 23.08 0 0 1 1.6 8.96zm-10.37.13q0-6.21-3-9.26a10.73 10.73 0 0 0 -7.91-3c-.77 0-1.49 0-2.17.07a15.72 15.72 0 0 0 -2 .25v23.78a14.59 14.59 0 0 0 2 .29c.79.06 1.55.1 2.28.1a10.55 10.55 0 0 0 7.94-3c1.88-2.07 2.86-5.14 2.86-9.23z"/><path d="m235.16 82.49a6.17 6.17 0 0 0 3.13 3.81 11.46 11.46 0 0 0 5.19 1.12 17.89 17.89 0 0 0 8.9-2.37 5.44 5.44 0 0 1 1.6 1.67 4.11 4.11 0 0 1 .64 2.24 3.93 3.93 0 0 1 -.89 2.56 6.9 6.9 0 0 1 -2.47 1.83 14 14 0 0 1 -3.71 1.08 28.54 28.54 0 0 1 -4.71.36 22.3 22.3 0 0 1 -7-1.06 15.2 15.2 0 0 1 -5.51-3.14 14.27 14.27 0 0 1 -3.61-5.22 18.86 18.86 0 0 1 -1.3-7.37 17.62 17.62 0 0 1 1.32-7.11 14.25 14.25 0 0 1 3.52-5 13.84 13.84 0 0 1 5.06-2.89 18.76 18.76 0 0 1 5.86-.93 17.37 17.37 0 0 1 6 1 13.82 13.82 0 0 1 4.68 2.78 12.74 12.74 0 0 1 3 4.29 13.43 13.43 0 0 1 1.14 5.44 4 4 0 0 1 -1.09 3.07 5.78 5.78 0 0 1 -3.1 1.35zm6.08-13.19a6.47 6.47 0 0 0 -4.58 1.7 7.43 7.43 0 0 0 -2.14 4.9l12.23-2a5.21 5.21 0 0 0 -1.48-3.13 5.15 5.15 0 0 0 -4.03-1.47z"/><path d="m271.08 65.27h10.92a15.7 15.7 0 0 1 .68 1.6 6.18 6.18 0 0 1 .32 2.13 4 4 0 0 1 -.93 3 3.3 3.3 0 0 1 -2.4.89h-8.13v20.87a11.68 11.68 0 0 1 -1.8.35 18.1 18.1 0 0 1 -2.56.16 7.29 7.29 0 0 1 -4.16-.92c-.85-.62-1.28-1.83-1.28-3.62v-27.21a12.89 12.89 0 0 1 1.06-5.45 9.79 9.79 0 0 1 2.91-3.74 12.66 12.66 0 0 1 4.35-2.15 19.77 19.77 0 0 1 5.38-.7c3 0 5.29.39 6.76 1.18a4.07 4.07 0 0 1 2.21 3.88 4.59 4.59 0 0 1 -.48 2.14 4.45 4.45 0 0 1 -1.12 1.44 23 23 0 0 0 -2.6-.64 17.07 17.07 0 0 0 -3.1-.25 7.91 7.91 0 0 0 -4.48 1.05 4 4 0 0 0 -1.54 3.55zm17.29-11.08a5.11 5.11 0 0 1 1.5-3.71 5.81 5.81 0 0 1 7.88 0 5.11 5.11 0 0 1 1.5 3.71 5.2 5.2 0 0 1 -1.5 3.78 5.81 5.81 0 0 1 -7.88 0 5.2 5.2 0 0 1 -1.5-3.78zm10.31 39.57a11.68 11.68 0 0 1 -1.8.35 18.1 18.1 0 0 1 -2.56.16 7.14 7.14 0 0 1 -4.13-.92c-.83-.62-1.25-1.83-1.25-3.62v-26.32a15.78 15.78 0 0 1 1.8-.38 15.38 15.38 0 0 1 2.56-.2 6.87 6.87 0 0 1 4.13 1c.83.64 1.25 1.85 1.25 3.65z"/><path d="m308.51 92.51a5.24 5.24 0 0 1 -1.45-3.87v-33.74c.47-.09 1.15-.2 2-.32a17.69 17.69 0 0 1 2.59-.2 7.06 7.06 0 0 1 4.17 1c.85.64 1.28 1.9 1.28 3.78v26.7h15.36a8.33 8.33 0 0 1 .74 1.67 6.7 6.7 0 0 1 .35 2.24 4.74 4.74 0 0 1 -.92 3.17 3.22 3.22 0 0 1 -2.53 1h-17.72a5.23 5.23 0 0 1 -3.87-1.43z"/><path d="m344.65 94.27a7.14 7.14 0 0 1 -4.13-.92c-.83-.62-1.25-1.83-1.25-3.62v-37.59a15.61 15.61 0 0 1 1.83-.38 15.9 15.9 0 0 1 2.59-.19 6.92 6.92 0 0 1 4.1 1c.85.64 1.28 1.85 1.28 3.65v37.54a13.89 13.89 0 0 1 -1.86.35 18.2 18.2 0 0 1 -2.56.16z"/><path d="m369 62.07a25.27 25.27 0 0 1 6.06.67 13.08 13.08 0 0 1 4.64 2.08 9.52 9.52 0 0 1 3 3.59 11.53 11.53 0 0 1 1.06 5.12v14.47a3.94 3.94 0 0 1 -.86 2.66 8.24 8.24 0 0 1 -2.08 1.69 15.81 15.81 0 0 1 -4.82 1.86 30 30 0 0 1 -6.53.64q-6.6 0-10.5-2.53a8.54 8.54 0 0 1 -3.97-7.71q0-4.42 2.63-6.73t8.09-2.88l8.51-.89v-.71a3.22 3.22 0 0 0 -1.66-3 9.79 9.79 0 0 0 -4.81-1 19.59 19.59 0 0 0 -4.76.6 29.13 29.13 0 0 0 -4.19 1.34 4 4 0 0 1 -1.31-1.57 4.79 4.79 0 0 1 -.55-2.27 4.17 4.17 0 0 1 2.95-4 20.08 20.08 0 0 1 4.32-1.06 34.88 34.88 0 0 1 4.78-.37zm.39 25.55a13.59 13.59 0 0 0 2.78-.29 6.63 6.63 0 0 0 2.09-.74v-5.89l-5.26.45a8 8 0 0 0 -3.29.93 2.4 2.4 0 0 0 -1.25 2.21 2.91 2.91 0 0 0 1.15 2.43 6.21 6.21 0 0 0 3.82.9z"/><path d="m437.49 93.76a14 14 0 0 1 -1.85.35 18.35 18.35 0 0 1 -2.57.16 7.16 7.16 0 0 1 -4.13-.92c-.83-.62-1.24-1.83-1.24-3.62v-15.88a3.9 3.9 0 0 0 -1.16-3.11 4.63 4.63 0 0 0 -3.13-1 6.33 6.33 0 0 0 -2.4.45 8.15 8.15 0 0 0 -2 1.15c0 .22.07.43.09.64s0 .43 0 .64v21.14a13.89 13.89 0 0 1 -1.86.35 18.2 18.2 0 0 1 -2.56.16 7.14 7.14 0 0 1 -4.13-.92c-.83-.62-1.25-1.83-1.25-3.62v-15.88a3.71 3.71 0 0 0 -1.3-3.11 5 5 0 0 0 -3.14-1 6.7 6.7 0 0 0 -2.43.42 12.58 12.58 0 0 0 -1.79.8v22.8a11.68 11.68 0 0 1 -1.8.35 18.2 18.2 0 0 1 -2.56.16 7.29 7.29 0 0 1 -4.16-.92c-.86-.62-1.28-1.83-1.28-3.62v-19.79a4.67 4.67 0 0 1 .7-2.69 7.8 7.8 0 0 1 2-1.92 17.76 17.76 0 0 1 5.25-2.33 23.57 23.57 0 0 1 6.5-.89 17.3 17.3 0 0 1 5.09.73 13.48 13.48 0 0 1 4.38 2.28 19.47 19.47 0 0 1 4.36-2.15 17.38 17.38 0 0 1 5.76-.86 18.24 18.24 0 0 1 4.77.61 10.73 10.73 0 0 1 4 2 10.09 10.09 0 0 1 2.79 3.59 12.34 12.34 0 0 1 1.05 5.34z"/><path d="m457.15 62.07a25.13 25.13 0 0 1 6.05.67 13.08 13.08 0 0 1 4.64 2.08 9.54 9.54 0 0 1 3 3.59 11.67 11.67 0 0 1 1.06 5.12v14.47a3.89 3.89 0 0 1 -.87 2.66 8.07 8.07 0 0 1 -2.08 1.69 15.62 15.62 0 0 1 -4.87 1.86 30 30 0 0 1 -6.53.64q-6.58 0-10.5-2.53a8.55 8.55 0 0 1 -3.9-7.71q0-4.42 2.62-6.73t8.05-2.88l8.52-.89v-.71a3.23 3.23 0 0 0 -1.67-3 9.74 9.74 0 0 0 -4.8-1 19.59 19.59 0 0 0 -4.77.58 29.28 29.28 0 0 0 -4.2 1.34 4 4 0 0 1 -1.31-1.57 4.9 4.9 0 0 1 -.54-2.27 4.16 4.16 0 0 1 2.94-4 20.08 20.08 0 0 1 4.32-1.06 35 35 0 0 1 4.84-.35zm.38 25.55a13.76 13.76 0 0 0 2.79-.29 6.56 6.56 0 0 0 2.08-.74v-5.89l-5.25.45a8 8 0 0 0 -3.3.93 2.4 2.4 0 0 0 -1.25 2.21 2.92 2.92 0 0 0 1.16 2.43 6.16 6.16 0 0 0 3.77.9z"/><path d="m524.57 93.86a12.28 12.28 0 0 1 -3.65.48 11.72 11.72 0 0 1 -4.09-.71 6.07 6.07 0 0 1 -3.21-3.2l-7.42-14.34c-.73-1.37-1.4-2.73-2-4.1s-1.2-2.79-1.85-4.29l-.44.13c.21 2.56.34 5 .38 7.33s.06 4.58.06 6.76v11.91c-.42.08-1.05.18-1.89.28a19.69 19.69 0 0 1 -2.59.16c-1.92 0-3.26-.33-4-1s-1.16-1.84-1.16-3.55v-33a5 5 0 0 1 2.47-1.69 10.54 10.54 0 0 1 3.62-.61 11.74 11.74 0 0 1 4.13.7 6.2 6.2 0 0 1 3.17 3.14l7.49 14.41c.73 1.36 1.4 2.73 2 4.09s1.22 2.8 1.82 4.29l.26-.06c-.22-2.86-.33-5.57-.36-8.13s0-5 0-7.37v-10.59c.43-.09 1.06-.2 1.89-.32a17.21 17.21 0 0 1 2.66-.2c1.92 0 3.26.33 4 1s1.14 1.84 1.14 3.55v33.68a6.89 6.89 0 0 1 -2.43 1.25z"/><path d="m562.54 55a8.12 8.12 0 0 1 .71 1.67 7.58 7.58 0 0 1 .32 2.24 4.57 4.57 0 0 1 -.93 3.14 3.34 3.34 0 0 1 -2.59 1h-14.22v8.39h14.54a12.61 12.61 0 0 1 .73 1.66 6.41 6.41 0 0 1 .35 2.25 4.33 4.33 0 0 1 -1 3.1 3.4 3.4 0 0 1 -2.56 1h-11.89v14.31a13.76 13.76 0 0 1 -2 .35 21 21 0 0 1 -2.69.16c-2 0-3.4-.34-4.19-1s-1.19-1.92-1.19-3.71v-29.22a5 5 0 0 1 5.29-5.34z"/><path d="m588.6 63.09v30.67a13.84 13.84 0 0 1 -2 .35 21.14 21.14 0 0 1 -2.69.16q-3 0-4.23-1c-.81-.68-1.21-1.92-1.21-3.71v-26.47h-10.04a8.86 8.86 0 0 1 -.73-1.66 6.75 6.75 0 0 1 -.36-2.24 4.44 4.44 0 0 1 1-3.17 3.48 3.48 0 0 1 2.63-1h28a6 6 0 0 1 .77 1.67 7.58 7.58 0 0 1 .32 2.24 4.47 4.47 0 0 1 -1 3.14 3.44 3.44 0 0 1 -2.63 1z"/></g><rect fill="url(#a)" height="130.65" rx="29.08" transform="matrix(.70710678 -.70710678 .70710678 .70710678 -33.27 80.33)" width="130.65" x="15.01" y="15.01"/><rect fill="none" height="130.65" rx="29.08" transform="matrix(.70710678 -.70710678 .70710678 .70710678 -33.27 80.33)" width="130.65" x="15.01" y="15.01"/><path d="m59.77 8.52-32 32a29 29 0 0 0 25-8.17l32-32a29 29 0 0 0 -25 8.17z" fill="url(#b)"/><path d="m8.52 100.9 5.86 5.86 5.86-5.86a29.08 29.08 0 0 0 0-41.13l-5.86-5.86-5.86 5.86a29.08 29.08 0 0 0 0 41.13z" fill="url(#c)"/><path d="m41.19 58.88a2.59 2.59 0 0 1 -.19 2.12 2.59 2.59 0 0 1 -3.74.81l-6.52-4.71a1.76 1.76 0 0 1 1.76-3l7.33 3.29a2.55 2.55 0 0 1 1.39 1.57" fill="#fff"/><path d="m41.19 101.77a2.57 2.57 0 0 1 -1.4 1.56l-7.33 3.3a1.76 1.76 0 0 1 -1.75-3l6.51-4.7a2.58 2.58 0 0 1 3.6.59 1.64 1.64 0 0 1 .14.22 2.59 2.59 0 0 1 .22 2.07" fill="#fff"/><path d="m28 82.86-2.8-1a2.14 2.14 0 0 1 0-4.05l2.8-1a3.15 3.15 0 1 1 0 6" fill="#b3d2ff"/><path d="m50.31 95.38c-6.52 12.92-15.78 19.32-25.16 22.15l34.62 34.62.61.58a74.47 74.47 0 0 0 11.42-21.9s-2.26-73.53-21.49-35.45z" fill="url(#d)"/><path d="m156.36 65.1-36.36 36.37a22.37 22.37 0 0 0 0 31.62l32.19-32.19a29.08 29.08 0 0 0 4.17-35.8z" fill="url(#e)"/><path d="m127.45 58.88a2.58 2.58 0 0 1 1.39-1.57l7.33-3.31a1.76 1.76 0 0 1 1.76 3l-6.52 4.71a2.59 2.59 0 0 1 -3.74-.81 2.59 2.59 0 0 1 -.22-2.07" fill="#fff"/><path d="m127.46 101.77a2.59 2.59 0 0 1 .22-2.07 1.64 1.64 0 0 1 .14-.22 2.58 2.58 0 0 1 3.6-.59l6.51 4.7a1.76 1.76 0 0 1 -1.75 3l-7.33-3.3a2.57 2.57 0 0 1 -1.4-1.56" fill="#fff"/><path d="m140.65 82.86a3.15 3.15 0 1 1 0-6l2.8 1a2.14 2.14 0 0 1 0 4.05l-2.8 1" fill="#b3d2ff"/><path d="m100.09 37.84h-.33a7.42 7.42 0 0 0 -7.42-7.42h1a4.9 4.9 0 0 0 -4.9-4.91h-14.12a4.91 4.91 0 0 0 -4.91 4.91h-1.41a7.42 7.42 0 0 0 -7.42 7.42h-1.13a7.4 7.4 0 0 0 -7.4 7.4v12.76h-.05v30.17a10.07 10.07 0 0 0 -.18 1.83c-.21 21-2.41 36.73-5.82 48.37l13.78 13.78a29.09 29.09 0 0 0 38.42 2.38c.44-.34.88-.7 1.31-1.08l.1-.09c.45-.39.88-.79 1.3-1.21l6.59-6.59v-100.32a7.4 7.4 0 0 0 -7.41-7.4z" fill="url(#f)"/><path d="m121.88 80.72c0 5.7-6.25 10.12-13.47 9.6-11.28-.81-17.59-2.67-20-5.17-2.22-2.27 0-6.12 0-6.12l.66-22.09h14.11c10.33 0 18.88 9.73 18.88 17.85z" fill="#c7c7ff"/><path d="m121.79 81.87a1.61 1.61 0 0 1 -1.17-.86l-1.11-5.32a2.48 2.48 0 0 0 -.67-1.23l-3.78-3.77a1.33 1.33 0 0 1 0-1.75 1.1 1.1 0 0 1 1-.37l4.87.68s1 1.31 1.33 5.64a21.1 21.1 0 0 1 -.47 6.98z" fill="#442589" fill-rule="evenodd"/><path d="m87.12 22.84a2.69 2.69 0 0 0 -.84-.58 3.26 3.26 0 0 0 -4 1.1c-4.6 6.18-10.74 8.33-13.4 13.78-3.13 5.86 2.52 16.39 10.39 10.93 5.84-4.07 6.5-12.47 8.73-21.62l.09-.4a3.19 3.19 0 0 0 -.93-3.21" fill="#c7c7ff"/><circle cx="104.65" cy="57.96" fill="url(#g)" r="5.09"/><circle cx="88.18" cy="67.98" fill="url(#h)" r="11.05"/><ellipse cx="96.08" cy="53.2" fill="url(#i)" rx="11.03" ry="6.45"/></svg>