<svg width="400.7150146484375px" height="150.58121643066406px" xmlns="http://www.w3.org/2000/svg" viewBox="49.642492675781256 -0.2906082153320284 400.7150146484375 150.58121643066406" preserveAspectRatio="xMidYMid"><defs><filter id="editing-hover" x="-100%" y="-100%" width="300%" height="300%"><feFlood flood-color="rgba(1.9607843137254888%,16.862745098039188%,29.01960784313726%,0)" result="flood"></feFlood><feComposite operator="in" in2="SourceAlpha" in="flood" result="shadow"></feComposite><feOffset dx="-4" dy="-4" in="SourceGraphic" result="offset-1"></feOffset><feOffset dx="4" dy="4" in="shadow" result="offset-2"></feOffset><feMerge><feMergeNode in="offset-2"></feMergeNode><feMergeNode in="offset-1"></feMergeNode></feMerge></filter></defs><g filter="url(#editing-hover)"><g transform="translate(50.32000064849854, 106.28718757629395) scale(1.45)"><path d="M32.26-43.84L32.26-43.84L29.76-38.14L29.76-38.14Q27.14-39.10 24.54-39.68L24.54-39.68L24.54-39.68Q21.95-40.26 19.58-40.26L19.58-40.26L19.58-40.26Q15.55-40.26 13.15-38.59L13.15-38.59L13.15-38.59Q10.75-36.93 10.75-34.37L10.75-34.37L10.75-34.37Q10.75-32.19 12.48-30.88L12.48-30.88L12.48-30.88Q14.21-29.57 16.77-28.51L16.77-28.51L16.77-28.51Q19.33-27.46 22.34-26.40L22.34-26.40L22.34-26.40Q25.34-25.34 27.90-23.68L27.90-23.68L27.90-23.68Q30.46-22.02 32.19-19.49L32.19-19.49L32.19-19.49Q33.92-16.96 33.92-12.99L33.92-12.99L33.92-12.99Q33.92-9.92 32.80-7.46L32.80-7.46L32.80-7.46Q31.68-4.99 29.47-3.20L29.47-3.20L29.47-3.20Q27.26-1.41 23.97-0.45L23.97-0.45L23.97-0.45Q20.67 0.51 16.26 0.51L16.26 0.51L16.26 0.51Q13.44 0.51 11.17 0.13L11.17 0.13L11.17 0.13Q8.90-0.26 7.07-0.86L7.07-0.86L7.07-0.86Q5.25-1.47 3.87-2.18L3.87-2.18L3.87-2.18Q2.50-2.88 1.54-3.46L1.54-3.46L4.61-9.54L4.61-9.54Q7.17-8.06 10.30-7.17L10.30-7.17L10.30-7.17Q13.44-6.27 16-6.27L16-6.27L16-6.27Q17.28-6.27 19.17-6.59L19.17-6.59L19.17-6.59Q21.06-6.91 22.78-7.71L22.78-7.71L22.78-7.71Q24.51-8.51 25.76-9.86L25.76-9.86L25.76-9.86Q27.01-11.20 27.01-13.25L27.01-13.25L27.01-13.25Q27.01-15.10 26.02-16.42L26.02-16.42L26.02-16.42Q25.02-17.73 23.39-18.72L23.39-18.72L23.39-18.72Q21.76-19.71 19.68-20.51L19.68-20.51L19.68-20.51Q17.60-21.31 15.42-22.18L15.42-22.18L15.42-22.18Q13.25-23.04 11.17-24L11.17-24L11.17-24Q9.09-24.96 7.46-26.34L7.46-26.34L7.46-26.34Q5.82-27.71 4.83-29.54L4.83-29.54L4.83-29.54Q3.84-31.36 3.84-33.92L3.84-33.92L3.84-33.92Q3.84-36.29 4.80-38.59L4.80-38.59L4.80-38.59Q5.76-40.90 7.68-42.69L7.68-42.69L7.68-42.69Q9.60-44.48 12.45-45.57L12.45-45.57L12.45-45.57Q15.30-46.66 19.07-46.66L19.07-46.66L19.07-46.66Q21.38-46.66 23.58-46.27L23.58-46.27L23.58-46.27Q25.79-45.89 27.58-45.41L27.58-45.41L27.58-45.41Q29.38-44.93 30.62-44.48L30.62-44.48L30.62-44.48Q31.87-44.03 32.26-43.84ZM64.38-26.75L64.38 0.58L59.78 0.58L59.14-6.85L59.14-6.85Q57.66-3.58 55.01-1.47L55.01-1.47L55.01-1.47Q52.35 0.64 48.26 0.64L48.26 0.64L48.26 0.64Q44.16 0.64 41.76-1.57L41.76-1.57L41.76-1.57Q39.36-3.78 39.23-7.36L39.23-7.36L39.23-26.75L44.67-26.75L44.67-9.79L44.67-9.79Q44.80-7.81 46.11-6.40L46.11-6.40L46.11-6.40Q47.42-4.99 50.18-4.80L50.18-4.80L50.18-4.80Q52.10-4.80 53.70-5.47L53.70-5.47L53.70-5.47Q55.30-6.14 56.45-7.30L56.45-7.30L56.45-7.30Q57.60-8.45 58.24-10.05L58.24-10.05L58.24-10.05Q58.88-11.65 58.88-13.57L58.88-13.57L58.88-26.75L64.38-26.75ZM86.98-24.38L86.98-24.38L84.10-20.54L84.10-20.54Q84.03-20.61 83.65-20.86L83.65-20.86L83.65-20.86Q83.26-21.12 82.66-21.38L82.66-21.38L82.66-21.38Q82.05-21.63 81.25-21.86L81.25-21.86L81.25-21.86Q80.45-22.08 79.62-22.08L79.62-22.08L79.62-22.08Q78.53-22.08 77.47-21.57L77.47-21.57L77.47-21.57Q76.42-21.06 76.42-19.65L76.42-19.65L76.42-19.65Q76.42-18.43 77.28-17.66L77.28-17.66L77.28-17.66Q78.14-16.90 79.42-16.29L79.42-16.29L79.42-16.29Q80.70-15.68 82.21-15.04L82.21-15.04L82.21-15.04Q83.71-14.40 84.99-13.47L84.99-13.47L84.99-13.47Q86.27-12.54 87.14-11.17L87.14-11.17L87.14-11.17Q88-9.79 88-7.68L88-7.68L88-7.68Q88-4.10 85.54-1.76L85.54-1.76L85.54-1.76Q83.07 0.58 78.78 0.58L78.78 0.58L78.78 0.58Q76.29 0.58 73.89-0.29L73.89-0.29L73.89-0.29Q71.49-1.15 70.02-2.82L70.02-2.82L70.02-2.82Q70.46-3.26 71.01-3.97L71.01-3.97L71.01-3.97Q71.55-4.67 72.10-5.31L72.10-5.31L72.10-5.31Q72.64-5.95 72.99-6.37L72.99-6.37L72.99-6.37Q73.34-6.78 73.41-6.78L73.41-6.78L73.41-6.78Q73.41-6.72 73.89-6.40L73.89-6.40L73.89-6.40Q74.37-6.08 75.14-5.73L75.14-5.73L75.14-5.73Q75.90-5.38 76.86-5.09L76.86-5.09L76.86-5.09Q77.82-4.80 78.78-4.80L78.78-4.80L78.78-4.80Q80.32-4.80 81.41-5.57L81.41-5.57L81.41-5.57Q82.50-6.34 82.50-7.62L82.50-7.62L82.50-7.62Q82.50-8.77 81.63-9.44L81.63-9.44L81.63-9.44Q80.77-10.11 79.49-10.69L79.49-10.69L79.49-10.69Q78.21-11.26 76.67-11.87L76.67-11.87L76.67-11.87Q75.14-12.48 73.86-13.44L73.86-13.44L73.86-13.44Q72.58-14.40 71.71-15.84L71.71-15.84L71.71-15.84Q70.85-17.28 70.85-19.58L70.85-19.58L70.85-19.58Q70.85-21.76 71.65-23.23L71.65-23.23L71.65-23.23Q72.45-24.70 73.70-25.63L73.70-25.63L73.70-25.63Q74.94-26.56 76.48-26.98L76.48-26.98L76.48-26.98Q78.02-27.39 79.42-27.39L79.42-27.39L79.42-27.39Q81.28-27.39 83.39-26.62L83.39-26.62L83.39-26.62Q85.50-25.86 86.98-24.38ZM93.82 0L93.82-49.73L99.26-49.73L99.26-20.29L99.26-20.29Q100.67-23.49 103.23-25.44L103.23-25.44L103.23-25.44Q105.79-27.39 109.82-27.46L109.82-27.46L109.82-27.46Q113.92-27.52 116.38-25.28L116.38-25.28L116.38-25.28Q118.85-23.04 118.98-19.46L118.98-19.46L118.98 0L113.47 0L113.47-16.96L113.47-16.96Q113.34-19.01 112.06-20.45L112.06-20.45L112.06-20.45Q110.78-21.89 108.03-22.02L108.03-22.02L108.03-22.02Q106.11-22.02 104.51-21.34L104.51-21.34L104.51-21.34Q102.91-20.67 101.76-19.52L101.76-19.52L101.76-19.52Q100.61-18.37 99.94-16.77L99.94-16.77L99.94-16.77Q99.26-15.17 99.26-13.25L99.26-13.25L99.26 0L93.82 0ZM125.70-36.99L125.70-36.99L125.70-36.99Q125.70-38.53 126.82-39.55L126.82-39.55L126.82-39.55Q127.94-40.58 129.22-40.58L129.22-40.58L129.22-40.58Q130.50-40.58 131.58-39.55L131.58-39.55L131.58-39.55Q132.67-38.53 132.67-36.99L132.67-36.99L132.67-36.99Q132.67-35.46 131.58-34.46L131.58-34.46L131.58-34.46Q130.50-33.47 129.22-33.47L129.22-33.47L129.22-33.47Q127.94-33.47 126.82-34.46L126.82-34.46L126.82-34.46Q125.70-35.46 125.70-36.99ZM131.84-26.75L131.84 0L126.40 0L126.40-26.75L131.84-26.75ZM167.30-43.84L167.30-43.84L164.80-38.14L164.80-38.14Q162.18-39.10 159.58-39.68L159.58-39.68L159.58-39.68Q156.99-40.26 154.62-40.26L154.62-40.26L154.62-40.26Q150.59-40.26 148.19-38.59L148.19-38.59L148.19-38.59Q145.79-36.93 145.79-34.37L145.79-34.37L145.79-34.37Q145.79-32.19 147.52-30.88L147.52-30.88L147.52-30.88Q149.25-29.57 151.81-28.51L151.81-28.51L151.81-28.51Q154.37-27.46 157.38-26.40L157.38-26.40L157.38-26.40Q160.38-25.34 162.94-23.68L162.94-23.68L162.94-23.68Q165.50-22.02 167.23-19.49L167.23-19.49L167.23-19.49Q168.96-16.96 168.96-12.99L168.96-12.99L168.96-12.99Q168.96-9.92 167.84-7.46L167.84-7.46L167.84-7.46Q166.72-4.99 164.51-3.20L164.51-3.20L164.51-3.20Q162.30-1.41 159.01-0.45L159.01-0.45L159.01-0.45Q155.71 0.51 151.30 0.51L151.30 0.51L151.30 0.51Q148.48 0.51 146.21 0.13L146.21 0.13L146.21 0.13Q143.94-0.26 142.11-0.86L142.11-0.86L142.11-0.86Q140.29-1.47 138.91-2.18L138.91-2.18L138.91-2.18Q137.54-2.88 136.58-3.46L136.58-3.46L139.65-9.54L139.65-9.54Q142.21-8.06 145.34-7.17L145.34-7.17L145.34-7.17Q148.48-6.27 151.04-6.27L151.04-6.27L151.04-6.27Q152.32-6.27 154.21-6.59L154.21-6.59L154.21-6.59Q156.10-6.91 157.82-7.71L157.82-7.71L157.82-7.71Q159.55-8.51 160.80-9.86L160.80-9.86L160.80-9.86Q162.05-11.20 162.05-13.25L162.05-13.25L162.05-13.25Q162.05-15.10 161.06-16.42L161.06-16.42L161.06-16.42Q160.06-17.73 158.43-18.72L158.43-18.72L158.43-18.72Q156.80-19.71 154.72-20.51L154.72-20.51L154.72-20.51Q152.64-21.31 150.46-22.18L150.46-22.18L150.46-22.18Q148.29-23.04 146.21-24L146.21-24L146.21-24Q144.13-24.96 142.50-26.34L142.50-26.34L142.50-26.34Q140.86-27.71 139.87-29.54L139.87-29.54L139.87-29.54Q138.88-31.36 138.88-33.92L138.88-33.92L138.88-33.92Q138.88-36.29 139.84-38.59L139.84-38.59L139.84-38.59Q140.80-40.90 142.72-42.69L142.72-42.69L142.72-42.69Q144.64-44.48 147.49-45.57L147.49-45.57L147.49-45.57Q150.34-46.66 154.11-46.66L154.11-46.66L154.11-46.66Q156.42-46.66 158.62-46.27L158.62-46.27L158.62-46.27Q160.83-45.89 162.62-45.41L162.62-45.41L162.62-45.41Q164.42-44.93 165.66-44.48L165.66-44.48L165.66-44.48Q166.91-44.03 167.30-43.84ZM188.35-22.46L188.35-22.46L186.37-26.75L191.10-26.75L191.10-26.75Q192.96-22.72 194.24-19.81L194.24-19.81L194.24-19.81Q195.52-16.90 196.42-14.75L196.42-14.75L196.42-14.75Q197.31-12.61 197.89-11.14L197.89-11.14L197.89-11.14Q198.46-9.66 198.85-8.64L198.85-8.64L198.85-8.64Q199.23-10.56 199.78-12.13L199.78-12.13L199.78-12.13Q200.32-13.70 201.15-15.65L201.15-15.65L201.15-15.65Q201.98-17.60 203.17-20.19L203.17-20.19L203.17-20.19Q204.35-22.78 206.02-26.75L206.02-26.75L211.52-26.75L198.85 1.60L198.85 1.60Q197.70-0.77 196.70-3.10L196.70-3.10L196.70-3.10Q195.71-5.44 194.78-7.74L194.78-7.74L194.78-7.74Q193.86-10.05 192.86-12.35L192.86-12.35L192.86-12.35Q191.87-14.66 190.72-17.09L190.72-17.09L182.59 1.60L170.50-26.75L176.00-26.75L176.00-26.75Q177.66-22.78 178.75-20.16L178.75-20.16L178.75-20.16Q179.84-17.54 180.58-15.62L180.58-15.62L180.58-15.62Q181.31-13.70 181.76-12.13L181.76-12.13L181.76-12.13Q182.21-10.56 182.59-8.64L182.59-8.64L182.59-8.64Q182.85-9.41 183.20-10.37L183.20-10.37L183.20-10.37Q183.55-11.33 184.16-12.83L184.16-12.83L184.16-12.83Q184.77-14.34 185.79-16.64L185.79-16.64L185.79-16.64Q186.82-18.94 188.35-22.46ZM212.93-13.12L212.93-13.12L212.93-13.12Q212.93-16.06 214.05-18.66L214.05-18.66L214.05-18.66Q215.17-21.25 217.09-23.20L217.09-23.20L217.09-23.20Q219.01-25.15 221.54-26.30L221.54-26.30L221.54-26.30Q224.06-27.46 226.94-27.46L226.94-27.46L226.94-27.46Q228.86-27.46 230.46-26.98L230.46-26.98L230.46-26.98Q232.06-26.50 233.22-25.79L233.22-25.79L233.22-25.79Q234.37-25.09 235.07-24.32L235.07-24.32L235.07-24.32Q235.78-23.55 236.03-22.98L236.03-22.98L236.29-26.75L241.54-26.75L241.54 0L236.03 0L236.03-3.39L236.03-3.39Q235.71-2.88 235.01-2.18L235.01-2.18L235.01-2.18Q234.30-1.47 233.18-0.86L233.18-0.86L233.18-0.86Q232.06-0.26 230.53 0.19L230.53 0.19L230.53 0.19Q228.99 0.64 227.01 0.64L227.01 0.64L227.01 0.64Q223.94 0.64 221.34-0.48L221.34-0.48L221.34-0.48Q218.75-1.60 216.90-3.49L216.90-3.49L216.90-3.49Q215.04-5.38 213.98-7.87L213.98-7.87L213.98-7.87Q212.93-10.37 212.93-13.12ZM218.43-13.44L218.43-13.44L218.43-13.44Q218.43-11.58 219.10-9.98L219.10-9.98L219.10-9.98Q219.78-8.38 220.93-7.23L220.93-7.23L220.93-7.23Q222.08-6.08 223.68-5.41L223.68-5.41L223.68-5.41Q225.28-4.74 227.20-4.74L227.20-4.74L227.20-4.74Q229.12-4.74 230.75-5.41L230.75-5.41L230.75-5.41Q232.38-6.08 233.57-7.26L233.57-7.26L233.57-7.26Q234.75-8.45 235.39-10.02L235.39-10.02L235.39-10.02Q236.03-11.58 236.03-13.44L236.03-13.44L236.03-13.44Q236.03-15.30 235.39-16.86L235.39-16.86L235.39-16.86Q234.75-18.43 233.57-19.58L233.57-19.58L233.57-19.58Q232.38-20.74 230.75-21.41L230.75-21.41L230.75-21.41Q229.12-22.08 227.20-22.08L227.20-22.08L227.20-22.08Q225.28-22.08 223.68-21.41L223.68-21.41L223.68-21.41Q222.08-20.74 220.93-19.58L220.93-19.58L220.93-19.58Q219.78-18.43 219.10-16.86L219.10-16.86L219.10-16.86Q218.43-15.30 218.43-13.44ZM271.87-13.44L271.87-13.44L271.87-13.44Q271.87-15.30 271.30-16.86L271.30-16.86L271.30-16.86Q270.72-18.43 269.63-19.58L269.63-19.58L269.63-19.58Q268.54-20.74 267.01-21.41L267.01-21.41L267.01-21.41Q265.47-22.08 263.55-22.08L263.55-22.08L263.55-22.08Q261.63-22.08 260.00-21.41L260.00-21.41L260.00-21.41Q258.37-20.74 257.22-19.58L257.22-19.58L257.22-19.58Q256.06-18.43 255.39-16.86L255.39-16.86L255.39-16.86Q254.72-15.30 254.72-13.44L254.72-13.44L254.72-13.44Q254.72-11.58 255.39-9.98L255.39-9.98L255.39-9.98Q256.06-8.38 257.22-7.23L257.22-7.23L257.22-7.23Q258.37-6.08 260.00-5.41L260.00-5.41L260.00-5.41Q261.63-4.74 263.55-4.74L263.55-4.74L263.55-4.74Q265.47-4.74 267.01-5.41L267.01-5.41L267.01-5.41Q268.54-6.08 269.63-7.26L269.63-7.26L269.63-7.26Q270.72-8.45 271.30-10.02L271.30-10.02L271.30-10.02Q271.87-11.58 271.87-13.44ZM277.82-13.31L277.82-13.31L277.82-13.31Q277.82-10.30 276.80-7.74L276.80-7.74L276.80-7.74Q275.78-5.18 273.92-3.33L273.92-3.33L273.92-3.33Q272.06-1.47 269.47-0.42L269.47-0.42L269.47-0.42Q266.88 0.64 263.81 0.64L263.81 0.64L263.81 0.64Q262.21 0.64 260.77 0.29L260.77 0.29L260.77 0.29Q259.33-0.06 258.11-0.67L258.11-0.67L258.11-0.67Q256.90-1.28 256.00-2.02L256.00-2.02L256.00-2.02Q255.10-2.75 254.66-3.52L254.66-3.52L254.66-3.52Q254.66-3.20 254.69-2.85L254.69-2.85L254.69-2.85Q254.72-2.50 254.72-2.18L254.72-2.18L254.72 12.86L249.22 12.86L249.22-26.75L254.53-26.75L254.53-26.75Q254.53-25.98 254.62-24.86L254.62-24.86L254.62-24.86Q254.72-23.74 254.72-22.85L254.72-22.85L254.72-22.85Q255.23-23.62 256.10-24.42L256.10-24.42L256.10-24.42Q256.96-25.22 258.14-25.89L258.14-25.89L258.14-25.89Q259.33-26.56 260.80-27.01L260.80-27.01L260.80-27.01Q262.27-27.46 264.06-27.46L264.06-27.46L264.06-27.46Q267.14-27.46 269.66-26.46L269.66-26.46L269.66-26.46Q272.19-25.47 274.02-23.65L274.02-23.65L274.02-23.65Q275.84-21.82 276.83-19.20L276.83-19.20L276.83-19.20Q277.82-16.58 277.82-13.31Z" fill="#ffffff"></path></g></g></svg>