<svg fill="none" height="77" viewBox="0 0 64 77" width="64" xmlns="http://www.w3.org/2000/svg" xmlns:xlink="http://www.w3.org/1999/xlink"><linearGradient id="a" gradientUnits="userSpaceOnUse" x1="32.197" x2="32.197" y1="62.1309" y2="5.35227"><stop offset="0" stop-color="#fde0a9" stop-opacity=".03"/><stop offset=".05" stop-color="#fde0a9" stop-opacity=".21"/><stop offset=".09" stop-color="#fde0a9" stop-opacity=".38"/><stop offset=".14" stop-color="#fde0a9" stop-opacity=".53"/><stop offset=".19" stop-color="#fde0a9" stop-opacity=".66"/><stop offset=".25" stop-color="#fde0a9" stop-opacity=".77"/><stop offset=".32" stop-color="#fde0a9" stop-opacity=".85"/><stop offset=".4" stop-color="#fde0a9" stop-opacity=".92"/><stop offset=".49" stop-color="#fde0a9" stop-opacity=".97"/><stop offset=".63" stop-color="#fde0a9" stop-opacity=".99"/><stop offset="1" stop-color="#fde0a9"/></linearGradient><clipPath id="b"><path d="m0 0h64v77h-64z"/></clipPath><g clip-path="url(#b)"><path d="m52.2937 9.88269h-40.5874c-6.46555 0-11.7063 5.29291-11.7063 11.82291v32.4507c0 6.53 5.24075 11.8229 11.7063 11.8229h4.3794l-.4234 8.8186c-.0869 1.8154 1.9994 2.8757 3.3906 1.7215l12.706-10.5401h20.536c6.4656 0 11.7063-5.2929 11.7063-11.8229v-32.4507c0-6.53-5.2407-11.82291-11.7063-11.82291z" fill="#fbedcb"/><path d="m54.8302 18.6136c-.3548-.7205-1.1979-1.4249-1.4757-1.9699-.1835-.3596-.2068-.9552-.4001-1.4496-.4564-1.1715-1.4903-2.3677-2.6283-2.9065-.5837-.2769-1.4157-.3387-1.8734-.5796-.3328-.1755-.8149-.8799-1.1746-1.1617-2.1928-1.72886-4.7244-1.33959-7.3356-1.36554-1.0707-.84034-1.6066-1.49778-3.0578-1.60777-.8688-.0655-1.9639.24222-2.6908.12111-.6925-.11493-1.3105-.84776-2.4594-.86135-1.521-.0173-2.5488 1.03436-3.9707.99358.2215.99234 1.1686 5.54627.5813 6.14687-.6021.6166-.9031-.4684-1.105-.6772-.6938-.718-1.4451.1656-1.9969.2138-.2778.0247-.4919-.1533-.7868-.0754-.6656.1792-.9116 1.4113-1.4023 1.8079-.6008.4845-1.3117.2336-1.9504.9961-.3916.4671-.5922 1.5608-1.3301.6982l1.8611-11.28527-.2324-.29659-4.6449 10.57096c-.2704.3176-.6852.2175-.8455-.1557v-.3126l2.5512-5.89972c-1.401.43994-2.3175 1.43352-3.0345 2.68042-.3133.5462-.651 1.6177-.9434 2.0131-.2717.3658-1.1343.5932-1.554.9899-.4968.4708-.8296 1.394-.9177 2.0749-.0637.4906.0611 1.2049-.1249 1.6041-.1419.3052-.8699.5524-1.1881.9009-.85285.9367-.89934 2.3047-.80023 3.5133.04282.5178.38663 1.4632.35973 1.8488-.0245.3547-.4356.9417-.5445 1.305-.37932 1.2642.09422 2.3529.5482 3.5245-1.29093 1.4496-1.19182 3.0919-.79659 4.8801.06852.3078.3267.6179.30835.9158-.0208.325-.53839.8687-.64974 1.3297-.39401 1.6312.49556 2.0403.53717 3.0079.02202.5129-.41481.9565-.48823 1.4916-.09054.6612-.02692 1.5151.1762 2.1491.1603.5005.69504 1.064.68034 1.5435-.0135.4028-.75987 1.6498-.92628 2.2924-.36709 1.4211-.33772 2.7941-.0257 4.2252.03181.147.09177.3176.1603.498h-.25085v3.0586l.19701 2.065-.19701 1.981.40624 1.3952v.6105l.38177.0049c.29732.089.94832.4227 1.30932.5957 4.0146-.0915 8.0783.1891 12.0942.0272.9997-.0408 1.0694-.1211 2.0801-.0075.4674.0532 1.2652-.362 1.7119-.3756.3426-.0112.6754.1446 1.0926.1322.1922-.0062.4038-.0581.6106-.1223l16.1248.2137v-4.3376l.6082-2.8201-.197-.9132 1.4549-1.5089h-.7562c.4735-.7143.8075-1.5151.9409-2.3752-4.2178 1.5027-8.859 2.3603-13.286 1.2395-.2655.0111-.6497 1.0071-1.2151.4918-.4564-.4165.2619-.9367.3732-1.3569.3708-1.3989-.5726-1.5138-.6791-2.1738-.1186-.7365.3243-1.237-.1517-2.3097-.4588-1.0331-1.5124-1.1554-1.7901-1.6522-.2337-.4165-.3255-1.4336-.5666-2.023-.4417-1.0801-1.1685-1.8204-2.1756-2.3752-.2997-.1644-.9213-.1236-1.0449-.5586-.1053-.367.2777-1.2741.2129-1.9377-.0844-.8589-.8309-1.7425-.8529-2.2405-.0208-.4956.5335-1.3248.6069-1.9884.0649-.5771-.1603-1.394-.0611-1.787.0795-.3151 1.1208-.6537 1.4805-.9812.405-.3695 1.0046-1.6807 1.472-1.7314.3316-.0358 1.5161.6303 2.1096.7106 1.8427.2534 2.2331-.3695 3.6659-.6821.8296-.1805 1.1257.4523 1.8256.8193 1.0536.5524 2.4681.8823 3.6513.7575.4858-.0506 1.0841-.4065 1.4586-.3695.4001.0396 1.182.8391 1.6629 1.0517 1.379.6055 2.9929.2879 4.2887-.3658.3855-.1953 1.1307-.8391 1.428-.9071.6681-.1545 1.0278.2286 1.9541-.126 1.6078-.6167 1.2664-1.6164 1.9921-2.437.2728-.309.8944-.4498 1.2297-.8589 1.4598-1.7783 1.3655-5.5784.3879-7.5631z" fill="url(#a)"/><path d="m48.3231 10.0482c1.0865.9108.8271.6303 2.0777 1.1765 1.4695.6426 2.7286 1.8945 3.3918 3.3712.2423.5388.3084 1.2519.5421 1.677s.8357.9343 1.1367 1.4471c1.6176 2.7559 1.5577 7.3481-.8455 9.6293-.8235.7823-.5873.6254-1.1845 1.5226-.1933.2904-.8198.907-.8969 1.0751-.2765.6031.6204 3.2835.9361 3.9953 1.6531 3.7334 5.2481 5.7205 3.9584 10.4586-.5372 1.9711-2.1707 3.7098-4.1664 4.1955-.5666.1384-1.116.0457-1.554.1607-.3928.1038-1.1869.8032-1.8281.996s-1.368.2076-2.0398.3497c-.1639 1.0183-.5959 2.0959-1.1856 2.9425-.1652.236-.8786.8749-.9116 1.0541-.0955.5054.1395 1.069.126 1.6053-.0257 1.0282-.6938 2.1985-.7354 2.8572-.0184.2891.427 1.3457.4735 1.8586.0367.4165.0894 1.2519-.3511 1.4706-.6975.3473-.6865-.5005-.7354-.9293-.0783-.6871-.0575-.7996-.2448-1.483-.3829-1.4014-.0575-1.0331.3072-2.2294.0587-.1927.0306-.3386.0599-.4893.0429-.2212.1016-.3003.1224-.6179.0318-.4869.0771-1.1864-.1224-1.6066.038-.2805-.0685-.566.0637-.8638.0942-.2125.7084-.6673.9128-.9318.6252-.8107 1.067-1.7511 1.226-2.7768-4.2178 1.5027-8.8589 2.3604-13.286 1.2395-.2655.0111-.6497 1.0072-1.215.4918-.4564-.4164.2618-.9367.3732-1.3569.3707-1.3989-.5727-1.5138-.6791-2.1737-.1187-.7366.3242-1.2371-.1518-2.3097-.476-1.0727-1.5124-1.1555-1.7901-1.6523-.2337-.4165-.3255-1.4335-.5666-2.023-.4417-1.0801-1.1685-1.8203-2.1755-2.3752-.2998-.1644-.9214-.1236-1.045-.5586-.1052-.367.2778-1.2741.2129-1.9377-.0844-.8589-.8308-1.7425-.8529-2.2405-.022-.498.5335-1.3248.607-1.9884.0648-.5771-.1603-1.394-.0612-1.787.0795-.3151 1.1208-.6537 1.4805-.9812.4051-.3695 1.0046-1.6807 1.4721-1.7313.3316-.0359 1.516.6302 2.1095.7106 1.8427.2533 2.2331-.3696 3.6659-.6822.8296-.1804 1.1258.4523 1.8257.8193 1.0535.5524 2.468.8824 3.6512.7576.4858-.0507 1.0842-.4066 1.4586-.3695.4001.0395 1.182.8391 1.6629 1.0516 1.379.6056 2.9929.288 4.2888-.3658.3854-.1952 1.1306-.8391 1.4279-.907.6681-.1545 1.0278.2298 1.9541-.1261 1.6079-.6167 1.2665-1.6164 1.9921-2.437.2728-.3089.8944-.4498 1.2297-.8589 1.4598-1.7783 1.3656-5.5783.3879-7.563-.3549-.7205-1.1979-1.4249-1.4757-1.9699-.1835-.3596-.2068-.9553-.4001-1.4496-.4564-1.1715-1.4904-2.3678-2.6283-2.9066-.5837-.2768-1.4158-.3386-1.8734-.5796-.3328-.1754-.8149-.8799-1.1747-1.1616-2.1927-1.72889-4.7243-1.33962-7.3355-1.36557-1.0707-.84034-1.6067-1.49779-3.0579-1.60777-.8687-.0655-1.9639.24221-2.6907.12111-.7268-.12111-1.3105-.84776-2.4595-.86135-1.5209-.0173-2.5488 1.03436-3.9706.99358.2215.99234 1.1686 5.5463.5812 6.1468-.5873.6006-.903-.4683-1.1049-.6772-.6938-.718-1.4451.1656-1.9969.2138-.2778.0247-.4919-.1544-.7868-.0754-.6657.1792-.9116 1.4113-1.4023 1.808-.6008.4844-1.3117.2336-1.9504.9961-.3916.4671-.5923 1.5608-1.3301.6982l1.8611-11.2853-.2325-.2966-4.6448 10.571c-.2704.3176-.6852.2175-.8455-.1557v-.3127l2.5512-5.89965c-1.401.43994-2.3175 1.43355-3.0346 2.68045-.3132.5462-.6509 1.6176-.9434 2.0131-.2716.3658-1.1343.5932-1.554.9899-.4968.4708-.8296 1.394-.9177 2.0749-.0636.4906.0612 1.2049-.1248 1.604-.1419.3053-.87.5524-1.1881.9009-.85288.9368-.89937 2.3048-.80026 3.5134.04283.5178.38666 1.4632.35976 1.8488-.0245.3546-.43563.9416-.54453 1.305-.37932 1.2642.09422 2.3529.54823 3.5244-1.29096 1.4496-1.19185 3.092-.79662 4.8802.06852.3077.3267.6179.30835.9157-.0208.325-.53839.8688-.64974 1.3298-.394 1.6312.49556 2.0403.53717 3.0079.02202.5128-.41481.9565-.48823 1.4916-.09054.6611-.02691 1.5151.17621 2.149.16029.5005.69496 1.0641.68036 1.5435-.0135.4029-.7599 1.6498-.92631 2.2924-.36709 1.4212-.33772 2.7942-.0257 4.2252.1138.5203.56531 1.3458.58367 1.7685.03426.7637-.4038 1.2543-.25329 2.4085.03426.2657.06974.4795.12236.7415.0257.1261.18354.2867.21536.4573.14561.7748-.42215 1.4928-.34506 2.4444.05017.6228.69137 1.153.37442 1.7943-.14928-.0445-.42826.0445-.64729-.0235-.58366-.1816-.76109-2.196-.68767-2.7459.04772-.3596.34995-.8317.34383-1.1246-.01223-.5709-.51636-1.4298-.48332-2.348.01713-.4646.3683-1.326.34261-1.5855-.0208-.2138-.42827-1.1283-.52126-1.5621-.34384-1.5929-.41358-3.0029-.02325-4.5983.13582-.5524.80514-1.8364.82227-2.1491.01224-.2397-.65096-1.3866-.72193-1.9797-.05874-.4869-.05751-1.3384 0-1.8266.05751-.4881.4356-1.0504.45396-1.2703.01101-.1348-.65097-1.5596-.59468-2.5792.04283-.7859.60202-1.693.60569-1.9686.00612-.43-.42459-1.5979-.46253-2.2429-.04894-.8219.07954-1.9044.37933-2.6755.11379-.2929.55429-.8589.56408-.9121.02203-.1124-.58122-1.6769-.59957-2.2059-.03793-1.0442.57877-1.8487.62894-2.5976.03181-.4931-.2227-1.106-.25207-1.6065-.08198-1.4484-.11379-2.72.75375-3.9311.27899-.3893 1.13306-1.0022 1.23466-1.2247.3157-.6859.104-1.8636.7256-2.9745.6766-1.2124 1.6151-1.1901 2.0618-1.7487.1884-.236.219-.6822.3768-.9787.4491-.8416 1.1453-2.0119 1.8208-2.67184.9348-.91449 2.0679-1.25681 3.2377-1.73506 1.1734-2.22814 1.9663-4.89005 3.1398-7.08606.6044-1.1307499 1.0963-.641374 1.8782.05067 1.4671 1.29882 2.4485 3.42316 3.1349 5.23731.9116.82922 1.729-.02719 2.7507-.28794 1.0217-.26076 2.0092-.37569 3.0872-.04696 1.2493.38186.7648.5388 2.2833.52644 1.1171-.00865 2.7127.28177 3.6525-.14088 1.7289-.77731 3.765-3.07342 4.832-4.63547.7427-1.086263 1.1551-3.00916 2.3959-.76619 1.2407 2.24297 1.297 5.61546.9458 8.18221.0465.14088.8737.64755 1.0866.82547zm-20.8027 2.2232c-.301-3.15993-1.1649-6.84384-3.1288-9.38217-.1542-.19896-.93-1.23456-1.1514-.99852l-2.2013 13.09949c.345-.3139 1.1489-.2954 1.434-.529.4662-.3843.5103-1.4174 1.5002-1.8809.6045-.2829.7329-.0308 1.138-.0852.1884-.0247.3793-.2348.5763-.2855.7121-.1817 1.1269-.1656 1.8342.0606zm15.2964-4.07813c1.1551-.06426 2.2832.22492 3.3551.61172l.1738-.19773c.23-2.2442.2129-4.65153-.777-6.71531l-1.3851 3.91376zm1.1-4.57121-2.2 2.16388c-.5213.37445-1.0254.7872-1.5528 1.15053-.1885.12976-.8419.30524-.7733.57588 1.5772 1.54104 2.5769.40781 3.4469-1.08997.4613-.79339.9948-1.90313 1.0792-2.80155zm7.5864 26.81554c-.5824.4152-1.5894.0507-1.9847.1458-.2276.0544-1.1587.7563-1.5356.9318-1.6225.7526-3.3466.9565-5.0046.1817-.3585-.1681-.9593-.6958-1.2297-.7452-.3647-.0667-.8027.199-1.1955.2261-1.8734.1298-3.825-.367-5.2787-1.5855-1.8379.8799-4.0024 1.0393-5.8599.1323-.5934.7661-1.1441 1.6436-2.1156 1.9673-.0673.5772.0318 1.1642-.049 1.7425-.0624.4461-.5408 1.2951-.5604 1.5336-.0061.0767.5629 1.0987.6485 1.4027.2484.8873.1897 1.5632.0759 2.458 1.4634.4164 2.6198 1.7857 3.141 3.1908.1371.3695.3194 1.4496.432 1.6028.0771.1038.5592.3312.7623.5277.8198.7922 1.2701 1.3532 1.3888 2.5507.0428.4263-.0869.9429-.0502 1.2247.0257.1977.4931.6698.5947 1.0689.1101.435.0453.8008.137 1.221 3.6856.9627 7.7639.4795 11.3258-.7501-.7366-.5636-1.5564-.9924-2.26-1.609-.2276-.199-.591-.7489-.6779-.8058-.3524-.2261-1.0388.5858-1.3276-.1446-.1897-.6797.7794-.755 1.171-.9985.3916-.2434 1.2395-1.2259 1.636-.7155.345.477-.1811.9071-.6057 1.0764-.2949.5153 1.8109 1.9043 2.227 2.107 2.2539 1.0949 5.1783.8502 6.6185-1.3915.7109-1.1085 1.275-3.3416.7746-4.591-.2521-.6278-1.5222-.938-1.0781-1.6164.4369-.44.9581.1038 1.3105.4004l.9667-.6093.2912.2015c.3512.4943-.3879.8897-.4735 1.3507-.0979.5252.1321 1.1518.1236 1.7289-.0184 1.2667-.4711 2.8114-1.2285 3.8272 2.9391-.5079 4.564-3.3898 4.0061-6.2741-.3757-1.9402-2.0263-3.5764-3.0322-5.2175-1.0939-1.7833-1.8011-3.658-2.0789-5.7502z" fill="#0f0c09"/><path d="m27.5203 12.2715c-.7072-.2274-1.122-.2422-1.8342-.0606-.1982.0507-.3891.2608-.5763.2855-.405.0544-.5335-.1977-1.138.0853-.9899.4622-1.0339 1.4965-1.5001 1.8809-.2851.2348-1.089.2162-1.4341.5289l2.2013-13.09946c.2227-.23604.9985.8008 1.1514.99852 1.9639 2.53833 2.829 6.22224 3.1288 9.38214z" fill="#faebca"/><path d="m42.8168 8.19329 1.3667-2.38756 1.3852-3.91376c.9911 2.06378 1.0082 4.47111.777 6.71532l-.1738.19772c-1.0719-.3868-2.2-.67598-3.3551-.61172z" fill="#faebca"/><path d="m43.9167 3.62207c-.0844.89842-.6191 2.00817-1.0792 2.80155-.87 1.49779-1.8697 2.63101-3.4469 1.08997-.0673-.27064.5849-.44612.7733-.57588.5274-.36456 1.0315-.77731 1.5528-1.15052l2.2-2.16388z" fill="#fde0a9"/><path d="m44.7745 56.1435h-.2447c-.082-.5524.0526-1.0838.1224-1.6065.1994.4202.1541 1.1196.1223 1.6065z" fill="#fde5b3"/><path d="m51.5032 30.4376c.2778 2.0922.9863 3.967 2.0789 5.7502 1.0071 1.6411 2.6577 3.2773 3.0322 5.2175.5579 2.8844-1.0683 5.7663-4.0062 6.2742.7575-1.0158 1.2102-2.5618 1.2286-3.8273.0085-.5771-.2215-1.2037-.1236-1.7289.0856-.4609.8247-.8564.4735-1.3507l-.2912-.2014-.9667.6092c-.3524-.2966-.8736-.8403-1.3105-.4004-.4441.6785.826.9887 1.078 1.6164.5017 1.2494-.0624 3.4825-.7745 4.591-1.439 2.2418-4.3646 2.4865-6.6185 1.3915-.4161-.2014-2.5219-1.5904-2.227-2.107.4246-.1705.9519-.6006.6057-1.0764-.3965-.5104-1.2285.461-1.636.7156-.4075.2545-1.3607.3188-1.171.9985.2888.7303.974-.0816 1.3276.1446.0869.0556.4515.6055.6779.8057.7036.6167 1.5234 1.0455 2.26 1.609-3.5619 1.2296-7.639 1.7128-11.3258.7501-.093-.4189-.0269-.7847-.137-1.2209-.1004-.3992-.569-.8725-.5947-1.069-.0367-.2818.093-.7983.0502-1.2247-.1187-1.1975-.569-1.7585-1.3888-2.5506-.2032-.1965-.6853-.4239-.7623-.5277-.1126-.1533-.2949-1.2334-.432-1.6029-.5212-1.4051-1.6776-2.7743-3.141-3.1908.1138-.8947.1725-1.5707-.0759-2.458-.0856-.304-.6546-1.326-.6485-1.4026.0208-.2385.498-1.0875.5604-1.5336.082-.5784-.0183-1.1654.049-1.7425.9715-.3238 1.5234-1.2012 2.1156-1.9674 1.8587.9058 4.022.7477 5.8599-.1322 1.4537 1.2185 3.4053 1.7153 5.2787 1.5855.3928-.0272.832-.2929 1.1955-.2262.2704.0495.8712.5772 1.2297.7452 1.6568.7749 3.3808.571 5.0046-.1816.3769-.1743 1.308-.8762 1.5356-.9318.3965-.0952 1.4035.2694 1.9847-.1458zm-17.2774 2.138c-.4259.0445-.9031.1606-1.3191.2743-.4442.1199-1.7669.5129-1.8391.9924-.1627 1.0875 1.0719.2681 1.4977.1446 1.5614-.4548 3.0358-.6513 4.651-.3016.5457.1187 1.9553.9763 2.1572.2484.175-.6265-.7709-.8576-1.1795-.9899-1.2677-.409-2.6418-.5066-3.9682-.3695z" fill="#faebca"/><path d="m34.2258 32.5756c1.3264-.1372 2.6993-.0408 3.9682.3695.4087.1322 1.3545.3633 1.1796.9899-.2032.7279-1.6128-.1298-2.1573-.2484-1.6152-.3497-3.0884-.1532-4.6509.3015-.4246.1236-1.6605.9429-1.4978-.1446.0722-.4794 1.395-.8724 1.8391-.9923.4161-.1125.8933-.2299 1.3191-.2743z" fill="#120f0b"/></g></svg>